<svg width="206" height="30" viewBox="0 0 206 30" fill="none" xmlns="http://www.w3.org/2000/svg">
<path d="M53.0137 24.2856C51.5014 23.4125 50.253 22.1471 49.4002 20.6232C48.5034 19.0454 48.042 17.2576 48.0632 15.4428C48.0431 13.6301 48.5045 11.8445 49.4002 10.2684C50.2557 8.74178 51.5031 7.47121 53.0137 6.58796C54.5748 5.68873 56.3494 5.22679 58.1508 5.2507C59.6555 5.24115 61.1432 5.5684 62.5051 6.20848C63.8255 6.81695 64.9832 7.7293 65.8836 8.87095C66.7593 9.95774 67.3197 11.2642 67.5037 12.6478H62.9447C62.6813 11.7082 62.0668 10.9059 61.2283 10.407C60.3106 9.81906 59.2406 9.51328 58.1508 9.52753C57.1311 9.51328 56.1277 9.78452 55.254 10.3106C54.3873 10.8221 53.6755 11.559 53.1943 12.443C52.6804 13.3628 52.4167 14.4013 52.4295 15.4548C52.4151 16.4991 52.6791 17.5283 53.1943 18.4366C53.6792 19.3147 54.3904 20.0469 55.254 20.5569C56.1295 21.0783 57.132 21.3472 58.1508 21.334C59.2593 21.351 60.3469 21.0318 61.2704 20.4184C62.1204 19.8766 62.7337 19.0329 62.9868 18.0571H67.5458C67.3913 19.4774 66.845 20.8268 65.968 21.9544C65.07 23.1173 63.902 24.0436 62.5653 24.653C61.1824 25.294 59.6749 25.621 58.1508 25.6108C56.3515 25.6305 54.579 25.1733 53.0137 24.2856Z" fill="#4D484F"/>
<path d="M58.1444 25.8755C56.3019 25.8953 54.4866 25.4299 52.8808 24.5262C51.3238 23.6327 50.0361 22.3364 49.1529 20.7734C48.2361 19.1562 47.7624 17.3255 47.7798 15.4665C47.7623 13.6094 48.236 11.7807 49.1529 10.1656C50.039 8.60014 51.3257 7.29867 52.8808 6.39482C54.4818 5.47718 56.2993 5.00504 58.1444 5.02743C59.6857 5.01932 61.2097 5.35257 62.607 6.00327C63.9605 6.63221 65.1484 7.56868 66.076 8.73804C66.9752 9.86406 67.5518 11.2132 67.7442 12.6414L67.7803 12.9245H62.7456L62.6974 12.7378C62.4538 11.855 61.8745 11.1026 61.0834 10.6415C60.2074 10.0787 59.1855 9.78549 58.1444 9.7982C57.1698 9.78704 56.2111 10.0455 55.3741 10.5451C54.548 11.0389 53.8683 11.7437 53.4047 12.5872C52.9187 13.4685 52.6677 14.4601 52.676 15.4665C52.6647 16.4657 52.916 17.4503 53.4047 18.3217C53.8728 19.1587 54.5517 19.8586 55.3741 20.3517C56.2117 20.8499 57.17 21.1083 58.1444 21.0987C59.2026 21.1164 60.2409 20.8095 61.1195 20.2192C61.9218 19.7161 62.5014 18.9252 62.7395 18.0085L62.7877 17.8158H67.8165L67.7864 18.0989C67.6274 19.5631 67.0644 20.9542 66.1603 22.1167C65.2297 23.3092 64.0253 24.2597 62.6492 24.8876C61.2375 25.5412 59.7 25.8783 58.1444 25.8755ZM58.1444 5.5274C56.3889 5.50062 54.6584 5.94581 53.1337 6.81647C51.6503 7.68338 50.4256 8.9312 49.5865 10.4307C48.7127 11.9683 48.2618 13.71 48.2796 15.4786C48.261 17.2491 48.712 18.9929 49.5865 20.5324C50.4258 22.0193 51.6515 23.2514 53.1337 24.0985C54.6605 24.964 56.3896 25.4088 58.1444 25.3875C59.6335 25.3967 61.1062 25.0758 62.4565 24.4478C63.7538 23.854 64.8882 22.955 65.7628 21.8275C66.5506 20.8102 67.0629 19.6069 67.2504 18.3338H63.1732C62.8722 19.2886 62.2456 20.1073 61.4026 20.6469C60.4395 21.2914 59.3031 21.6276 58.1444 21.6107C57.0858 21.6155 56.0455 21.3346 55.1332 20.7975C54.2349 20.2596 53.4935 19.4952 52.9832 18.5808C52.4526 17.6338 52.1806 16.564 52.1942 15.4786C52.1844 14.3879 52.4561 13.3131 52.9832 12.3583C53.4913 11.4391 54.2329 10.6703 55.1332 10.1295C56.0432 9.58639 57.0847 9.30306 58.1444 9.31029C59.2812 9.29887 60.3967 9.61915 61.3544 10.2319C62.1893 10.7312 62.8175 11.5135 63.125 12.4366H67.2082C66.9839 11.1945 66.4518 10.0285 65.6604 9.04524C64.7792 7.93681 63.6511 7.0498 62.3662 6.45505C61.0436 5.84105 59.6025 5.52441 58.1444 5.5274Z" fill="#4D484F"/>
<path d="M74.6166 24.2857C73.0929 23.4141 71.829 22.1519 70.9549 20.6294C70.0572 19.0585 69.5956 17.2763 69.618 15.4671C69.5978 13.6543 70.0592 11.8687 70.9549 10.2927C71.8246 8.76054 73.0891 7.4896 74.6166 6.61221C76.1852 5.71508 77.965 5.2534 79.7718 5.27495C81.5668 5.25635 83.3342 5.71804 84.8909 6.61221C86.4207 7.4907 87.6888 8.76113 88.5646 10.2927C89.4761 11.8633 89.9464 13.6511 89.9257 15.4671C89.9487 17.2795 89.4782 19.064 88.5646 20.6294C87.6845 22.1514 86.4169 23.413 84.8909 24.2857C83.3342 25.1799 81.5668 25.6416 79.7718 25.623C77.965 25.6446 76.1852 25.1829 74.6166 24.2857ZM74.7371 18.4488C75.232 19.3314 75.9561 20.064 76.8329 20.5691C77.7251 21.0871 78.7402 21.3555 79.7718 21.3462C80.7979 21.357 81.8076 21.0884 82.6927 20.5691C83.5641 20.0571 84.2866 19.3261 84.7885 18.4488C85.315 17.5443 85.5856 16.5136 85.5714 15.4671C85.5848 14.4111 85.3144 13.3709 84.7885 12.4552C84.2903 11.5719 83.5672 10.8362 82.6927 10.3228C81.8093 9.79886 80.7988 9.52796 79.7718 9.53973C78.7393 9.52956 77.7235 9.80023 76.8329 10.3228C75.9531 10.8293 75.2284 11.5667 74.7371 12.4552C74.2271 13.3763 73.9655 14.4142 73.9782 15.4671C73.9646 16.5104 74.2264 17.5389 74.7371 18.4488Z" fill="#4D484F"/>
<path d="M79.7716 25.8763C77.9204 25.8952 76.0975 25.4212 74.4899 24.5029C72.9303 23.6075 71.6357 22.3147 70.7379 20.7562C69.821 19.1459 69.3491 17.3204 69.3708 15.4674C69.3513 13.6108 69.8229 11.782 70.7379 10.1665C71.6314 8.59846 72.9265 7.29686 74.4899 6.3957C76.098 5.47931 77.9209 5.00737 79.7716 5.02832C81.6105 5.01031 83.421 5.48227 85.0172 6.3957C86.5815 7.29977 87.8798 8.60044 88.7812 10.1665C89.7138 11.7762 90.1964 13.6071 90.1784 15.4674C90.1987 17.3242 89.7159 19.1518 88.7812 20.7562C87.8756 22.3128 86.5777 23.6046 85.0172 24.5029C83.4211 25.4174 81.6109 25.8914 79.7716 25.8763ZM79.7716 5.52829C78.0095 5.50663 76.2735 5.9558 74.7429 6.82941C73.2493 7.69126 72.0156 8.93978 71.1715 10.4436C70.2996 11.9817 69.8508 13.7235 69.8707 15.4915C69.8483 17.256 70.2973 18.9945 71.1715 20.5273C72.0241 22.0122 73.2568 23.2431 74.7429 24.0933C76.273 24.9688 78.0089 25.42 79.7716 25.4005C81.5224 25.4168 83.2459 24.9655 84.7642 24.0933C86.2598 23.2412 87.5057 22.0116 88.3777 20.5273C89.2647 18.9987 89.7225 17.2588 89.7026 15.4915C89.7225 13.7196 89.2626 11.9753 88.3717 10.4436C87.5214 8.94037 86.2841 7.69238 84.7883 6.82941C83.2625 5.95487 81.5301 5.50556 79.7716 5.52829ZM79.7716 21.5995C78.6958 21.6046 77.638 21.324 76.7062 20.7863C75.7921 20.2566 75.037 19.491 74.52 18.5696C73.9855 17.624 73.7112 16.5536 73.7251 15.4674C73.7151 14.376 73.9891 13.3007 74.52 12.3471C75.0314 11.4183 75.7875 10.6475 76.7062 10.1183C77.6364 9.57611 78.695 9.29321 79.7716 9.29912C80.8429 9.29019 81.8965 9.57341 82.819 10.1183C83.7297 10.6577 84.4833 11.4261 85.0051 12.3471C85.548 13.2967 85.8286 14.3736 85.8182 15.4674C85.8324 16.5559 85.5514 17.628 85.0051 18.5696C84.4797 19.4847 83.7266 20.2483 82.819 20.7863C81.8942 21.3252 80.8418 21.6061 79.7716 21.5995ZM79.7716 9.79909C78.7833 9.79125 77.8114 10.0515 76.9591 10.552C76.1193 11.0374 75.4263 11.7409 74.9536 12.5881C74.4676 13.4693 74.2166 14.461 74.2249 15.4674C74.2136 16.4665 74.4649 17.4511 74.9536 18.3226C75.4289 19.1663 76.1214 19.8672 76.9591 20.3526C77.8136 20.8472 78.7844 21.1051 79.7716 21.0996C80.7533 21.1065 81.7187 20.8485 82.566 20.3526C83.3989 19.8609 84.0899 19.1614 84.5715 18.3226C85.0742 17.456 85.3323 16.4692 85.3183 15.4674C85.3264 14.4606 85.0688 13.4695 84.5715 12.5941C84.0924 11.7486 83.4012 11.0427 82.566 10.546C81.7164 10.059 80.7507 9.81127 79.7716 9.82921V9.79909Z" fill="#4D484F"/>
<path d="M111.19 25.2254H106.715V14.1117C106.78 12.8599 106.367 11.6304 105.559 10.6721C105.176 10.2496 104.705 9.91593 104.18 9.69431C103.655 9.47269 103.087 9.36853 102.518 9.38909C101.591 9.38082 100.681 9.64016 99.8978 10.136C99.1438 10.5921 98.5293 11.2463 98.1212 12.0275V25.2254H93.6465V5.67247H98.1212V8.19639C98.7592 7.34887 99.5701 6.64666 100.5 6.13629C101.582 5.54268 102.802 5.24553 104.035 5.2749C106.757 5.2749 108.717 6.32704 109.913 8.43132C110.686 7.50759 111.628 6.74075 112.689 6.17243C113.8 5.57487 115.042 5.26623 116.303 5.2749C117.751 5.24213 119.183 5.58672 120.458 6.27484C121.643 6.92426 122.621 7.89252 123.283 9.06984C123.984 10.3626 124.335 11.8162 124.301 13.2864V25.2435H119.784V14.1117C119.856 12.8537 119.447 11.6155 118.64 10.648C118.241 10.2229 117.754 9.88993 117.213 9.67248C116.672 9.45503 116.09 9.35832 115.508 9.38909C114.612 9.40444 113.738 9.66936 112.985 10.1541C112.197 10.6229 111.538 11.2814 111.069 12.0696L111.184 12.7503L111.19 25.2254Z" fill="#4D484F"/>
<path d="M124.554 25.4906H119.537V14.1119C119.606 12.9179 119.223 11.7417 118.465 10.8169C118.087 10.4198 117.628 10.1092 117.118 9.90643C116.609 9.70368 116.062 9.61356 115.514 9.64227C114.659 9.6535 113.825 9.9039 113.105 10.3651C112.371 10.796 111.751 11.3972 111.298 12.118L111.401 12.7204V25.4906H106.42V14.1119C106.482 12.9231 106.093 11.7549 105.33 10.841C104.973 10.441 104.532 10.1254 104.039 9.91707C103.545 9.7087 103.011 9.61277 102.476 9.63624C101.596 9.62825 100.733 9.87286 99.9883 10.341C99.2892 10.7656 98.7156 11.3685 98.3261 12.0879V25.4906H93.3516V5.4317H98.3261V7.50385C98.9096 6.87959 99.5861 6.34927 100.332 5.93167C101.452 5.31583 102.715 5.0082 103.993 5.04016C106.667 5.04016 108.655 6.0401 109.907 8.01587C110.657 7.1847 111.546 6.48973 112.533 5.96179C113.68 5.34545 114.965 5.02847 116.267 5.04016C117.759 5.00899 119.234 5.36379 120.549 6.07021C121.771 6.74297 122.781 7.74456 123.464 8.96159C124.182 10.286 124.543 11.7744 124.512 13.2806L124.554 25.4906ZM120.037 24.9846H124.078V13.2685C124.109 11.8484 123.768 10.4449 123.09 9.19651C122.453 8.05871 121.51 7.1219 120.368 6.49188C119.128 5.83112 117.739 5.4993 116.333 5.52808C115.112 5.51695 113.909 5.81537 112.834 6.3955C111.8 6.94501 110.882 7.68958 110.13 8.58812L109.901 8.87124L109.721 8.558C108.564 6.51597 106.709 5.54615 104.059 5.54615C102.869 5.51702 101.691 5.80161 100.645 6.3714C99.7475 6.86604 98.9638 7.54319 98.3442 8.35922L97.8925 8.96159V5.94974H93.9177V24.9967H97.8925L97.9226 11.9373C98.3524 11.1155 98.9978 10.4262 99.7896 9.94345C100.614 9.42694 101.569 9.15729 102.542 9.16639C103.146 9.14858 103.747 9.26093 104.304 9.49581C104.861 9.7307 105.361 10.0826 105.77 10.5278C106.612 11.5378 107.042 12.8285 106.974 14.142V24.9846H110.949V12.7505L110.817 12.0216L110.865 11.9433C111.353 11.1181 112.041 10.4285 112.864 9.93742C113.658 9.42842 114.578 9.15288 115.52 9.1423C116.138 9.11183 116.754 9.21621 117.327 9.44818C117.9 9.68016 118.416 10.0342 118.839 10.4856C119.683 11.4945 120.113 12.786 120.043 14.0998L120.037 24.9846Z" fill="#4D484F"/>
<path d="M146.53 25.2252H142.055V14.1115C142.118 12.8591 141.702 11.6296 140.893 10.672C140.514 10.2521 140.049 9.91989 139.529 9.69831C139.009 9.47673 138.447 9.37115 137.882 9.38893C136.954 9.37824 136.044 9.63777 135.262 10.1359C134.497 10.5877 133.872 11.2423 133.455 12.0273V25.2252H128.98V5.67231H133.455V8.19623C134.103 7.34683 134.924 6.64467 135.864 6.13613C136.948 5.54256 138.17 5.24544 139.405 5.27474C142.119 5.27474 144.079 6.32687 145.283 8.43115C146.053 7.50471 146.996 6.73741 148.06 6.17227C149.17 5.5747 150.412 5.26606 151.673 5.27474C153.121 5.24362 154.553 5.58812 155.829 6.27468C157.01 6.92499 157.987 7.89317 158.647 9.06967C159.35 10.3616 159.701 11.8158 159.665 13.2863V25.2433H155.148V14.1115C155.219 12.8547 154.812 11.6177 154.01 10.6479C153.609 10.2229 153.121 9.89014 152.58 9.67274C152.038 9.45534 151.455 9.3585 150.872 9.38893C149.978 9.40283 149.106 9.66791 148.355 10.1539C147.565 10.6226 146.905 11.281 146.434 12.0695L146.554 12.7502L146.53 25.2252Z" fill="#4D484F"/>
<path d="M159.894 25.49H154.871V14.1113C154.94 12.9173 154.557 11.7411 153.799 10.8163C153.422 10.4182 152.962 10.107 152.453 9.90415C151.943 9.70132 151.396 9.61177 150.848 9.64169C149.993 9.65387 149.159 9.9042 148.439 10.3645C147.704 10.7947 147.085 11.396 146.632 12.1174L146.735 12.7198V25.49H141.76V14.1113C141.823 12.9214 141.431 11.7522 140.664 10.8404C140.308 10.4412 139.868 10.1261 139.375 9.9178C138.882 9.70946 138.35 9.61309 137.815 9.63566C136.936 9.62597 136.072 9.87071 135.328 10.3404C134.629 10.7651 134.055 11.3679 133.666 12.0873V25.49H128.691V5.43112H133.714V7.50327C134.297 6.878 134.973 6.34755 135.72 5.93109C136.835 5.3058 138.097 4.98777 139.375 5.00946C142.049 5.00946 144.031 6.0094 145.283 7.98517C146.038 7.15849 146.925 6.46416 147.909 5.93109C149.059 5.31523 150.345 4.99832 151.649 5.00946C153.139 4.97878 154.612 5.3336 155.925 6.03952C157.15 6.70887 158.16 7.71128 158.84 8.93089C159.561 10.2542 159.924 11.743 159.894 13.2499V25.49ZM155.377 24.9841H159.394V13.268C159.42 11.8579 159.08 10.4652 158.406 9.22605C157.769 8.08825 156.826 7.15143 155.684 6.52141C154.443 5.86141 153.054 5.52965 151.649 5.55762C150.437 5.54028 149.24 5.82821 148.168 6.39492C147.132 6.94119 146.213 7.68623 145.464 8.58754L145.229 8.87066L145.054 8.55742C143.892 6.51539 142.043 5.54557 139.393 5.54557C138.202 5.51644 137.025 5.80103 135.979 6.37082C135.08 6.86413 134.296 7.5415 133.678 8.35864L133.226 8.96101V5.94916H129.251V24.9961H133.226L133.256 11.9367C133.684 11.1137 134.33 10.424 135.123 9.94287C135.947 9.4248 136.903 9.15502 137.876 9.16581C138.479 9.14526 139.08 9.2564 139.637 9.49148C140.193 9.72657 140.692 10.08 141.098 10.5272C141.942 11.5358 142.373 12.8275 142.302 14.1414V24.9841H146.277V12.7499L146.15 12.021L146.199 11.9427C146.689 11.119 147.376 10.4297 148.198 9.93684C148.989 9.42862 149.908 9.1531 150.848 9.14172C151.466 9.11077 152.084 9.2149 152.658 9.44688C153.232 9.67885 153.749 10.0331 154.172 10.485C155.014 11.4954 155.444 12.7858 155.377 14.0992V24.9841Z" fill="#4D484F"/>
<path d="M168.32 24.2857C166.795 23.4159 165.53 22.1534 164.658 20.6293C163.76 19.0585 163.299 17.2762 163.321 15.467C163.301 13.6543 163.762 11.8687 164.658 10.2927C165.526 8.75907 166.791 7.48768 168.32 6.61219C169.884 5.71549 171.66 5.25377 173.463 5.27493C175.258 5.2572 177.025 5.71883 178.582 6.61219C180.111 7.4923 181.378 8.76234 182.256 10.2927C183.167 11.8633 183.638 13.6511 183.617 15.467C183.64 17.2794 183.169 19.064 182.256 20.6293C181.374 22.1499 180.107 23.4111 178.582 24.2857C177.025 25.1791 175.258 25.6407 173.463 25.623C171.66 25.6441 169.884 25.1824 168.32 24.2857ZM168.44 18.4488C168.932 19.334 169.657 20.0673 170.536 20.5691C171.425 21.085 172.435 21.3533 173.463 21.3462C174.487 21.3562 175.495 21.0876 176.378 20.5691C177.25 20.0557 177.974 19.3252 178.48 18.4488C179.001 17.5426 179.27 16.5127 179.257 15.467C179.269 14.412 179.001 13.3726 178.48 12.4552C177.977 11.5728 177.253 10.8376 176.378 10.3228C175.496 9.79961 174.488 9.52873 173.463 9.53971C172.43 9.52953 171.415 9.80021 170.524 10.3228C169.641 10.8258 168.916 11.564 168.428 12.4552C167.914 13.3749 167.65 14.4134 167.663 15.467C167.653 16.5123 167.921 17.5416 168.44 18.4488Z" fill="#4D484F"/>
<path d="M173.462 25.8757C171.611 25.8946 169.788 25.4205 168.18 24.5023C166.619 23.6087 165.324 22.3155 164.428 20.7556C163.51 19.1457 163.036 17.3203 163.055 15.4668C163.038 13.6097 163.512 11.7809 164.428 10.1659C165.32 8.59642 166.616 7.29437 168.18 6.39508C169.787 5.47238 171.61 4.99418 173.462 5.00963C175.299 4.99095 177.108 5.46299 178.702 6.37701C180.281 7.27906 181.591 8.5872 182.496 10.1659C183.424 11.7772 183.904 13.6074 183.887 15.4668C183.909 17.323 183.428 19.1506 182.496 20.7556C181.595 22.316 180.296 23.609 178.732 24.5023C177.129 25.4228 175.31 25.8971 173.462 25.8757ZM173.462 5.52767C171.703 5.50371 169.969 5.94864 168.439 6.81674C166.949 7.68109 165.718 8.92914 164.874 10.431C164.002 11.9691 163.553 13.7108 163.573 15.4788C163.551 17.2433 164 18.9818 164.874 20.5146C165.725 21.9987 166.956 23.2296 168.439 24.0807C169.969 24.9498 171.703 25.3967 173.462 25.3758C175.213 25.392 176.936 24.9408 178.455 24.0686C179.952 23.2187 181.198 21.9886 182.068 20.5026C182.955 18.974 183.413 17.2341 183.393 15.4668C183.412 13.6957 182.954 11.9522 182.068 10.4189C181.206 8.91445 179.959 7.66692 178.455 6.80469C176.934 5.94272 175.21 5.50192 173.462 5.52767ZM173.462 21.5989C172.386 21.604 171.328 21.3234 170.397 20.7857C169.481 20.2577 168.726 19.4917 168.21 18.569C167.685 17.6209 167.419 16.5507 167.44 15.4668C167.433 14.3757 167.706 13.3012 168.235 12.3465C168.75 11.4187 169.508 10.6484 170.427 10.1177C171.348 9.58067 172.396 9.29796 173.462 9.2985C174.521 9.29432 175.562 9.57743 176.473 10.1177C177.387 10.6547 178.144 11.4235 178.665 12.3465C179.206 13.2972 179.486 14.3733 179.478 15.4668C179.49 16.555 179.209 17.6262 178.665 18.569C178.139 19.4856 177.384 20.2496 176.473 20.7857C175.56 21.32 174.52 21.6008 173.462 21.5989ZM173.462 9.82859C172.475 9.82131 171.503 10.0793 170.65 10.5755C169.814 11.0559 169.122 11.7504 168.644 12.5874C168.155 13.4676 167.904 14.46 167.915 15.4668C167.901 16.4663 168.153 17.4516 168.644 18.322C169.115 19.1688 169.809 19.8707 170.65 20.352C171.504 20.8466 172.475 21.1045 173.462 21.0989C174.442 21.1066 175.406 20.8485 176.25 20.352C177.09 19.8614 177.79 19.1622 178.28 18.322C178.78 17.4542 179.038 16.4682 179.027 15.4668C179.035 14.46 178.777 13.4688 178.28 12.5935C177.797 11.7491 177.104 11.0437 176.269 10.5454C175.416 10.0545 174.445 9.80663 173.462 9.82859Z" fill="#4D484F"/>
<path d="M191.819 8.27439C192.446 7.33414 193.308 6.57412 194.319 6.06971C195.38 5.53755 196.552 5.26504 197.739 5.27459C198.827 5.2222 199.912 5.40799 200.92 5.81897C201.928 6.22996 202.834 6.85621 203.575 7.65395C205.017 9.24019 205.735 11.3786 205.731 14.0692V25.2251H201.299V14.792C201.374 13.4343 200.921 12.1 200.034 11.0694C199.602 10.6151 199.077 10.259 198.495 10.0252C197.913 9.79133 197.288 9.68523 196.661 9.71405C195.695 9.70638 194.744 9.95363 193.903 10.4309C193.059 10.9028 192.343 11.5751 191.819 12.3886V25.2251H187.345V5.67216H191.819V8.27439Z" fill="#4D484F"/>
<path d="M205.984 25.4904H201.052V14.7863C201.121 13.4946 200.69 12.2259 199.847 11.2444C199.438 10.8153 198.941 10.4788 198.39 10.2575C197.84 10.0362 197.248 9.93524 196.655 9.96132C195.732 9.95794 194.823 10.1946 194.018 10.648C193.233 11.0863 192.564 11.7059 192.066 12.4551V25.4904H187.092V5.43149H192.066V7.53377C192.659 6.83891 193.386 6.27131 194.204 5.8652C195.298 5.30344 196.51 5.01023 197.74 5.00983C198.861 4.95861 199.981 5.15187 201.021 5.57623C202.061 6.00058 202.996 6.6459 203.762 7.4675C205.237 9.10595 205.984 11.3227 205.984 14.0454V25.4904ZM201.552 24.9844H205.484V14.0454C205.484 11.4311 204.78 9.32883 203.389 7.79881C202.67 7.02961 201.792 6.42595 200.816 6.02967C199.841 5.63339 198.791 5.45395 197.74 5.50378C196.593 5.49656 195.46 5.75858 194.433 6.26878C193.46 6.75266 192.63 7.4813 192.024 8.38311L191.566 9.08185V5.90134H187.592V24.9483H191.566V12.2985L191.609 12.2383C192.15 11.3896 192.893 10.6881 193.771 10.1962C194.65 9.69785 195.645 9.43826 196.655 9.44328C197.317 9.41631 197.977 9.53077 198.59 9.77903C199.204 10.0273 199.758 10.4036 200.215 10.8829C201.141 11.9591 201.617 13.3503 201.546 14.7682L201.552 24.9844Z" fill="#4D484F"/>
<path d="M14.0502 15.1894C14.0608 13.1403 14.5277 11.1194 15.4167 9.27431C16.3057 7.42923 17.5945 5.80656 19.1889 4.52477L16.0367 1.36392C15.5823 0.908494 14.9662 0.652649 14.3238 0.652649C13.6814 0.652649 13.0652 0.908494 12.6109 1.36392L0.724947 13.2824C0.270762 13.738 0.015625 14.3558 0.015625 15C0.015625 15.6442 0.270762 16.262 0.724947 16.7176L12.6109 28.6361C13.0652 29.0915 13.6814 29.3473 14.3238 29.3473C14.9662 29.3473 15.5823 29.0915 16.0367 28.6361L18.9479 25.7103C17.4156 24.4211 16.1831 22.8113 15.337 20.9938C14.491 19.1763 14.0517 17.1951 14.0502 15.1894Z" fill="#4D484F"/>
<path d="M28.4236 1.21321C25.0408 1.20793 21.7606 2.38005 19.14 4.53046L27.8271 13.27C28.0518 13.4947 28.23 13.7618 28.3517 14.0559C28.4733 14.3501 28.5359 14.6655 28.5359 14.984C28.5359 15.3026 28.4733 15.618 28.3517 15.9121C28.23 16.2063 28.0518 16.4734 27.8271 16.6981L18.9001 25.6722C21.5603 27.9383 24.9368 29.1768 28.4236 29.1654C36.3716 29.1654 42.8221 22.9155 42.8221 15.1991C42.8221 7.48275 36.3587 1.21321 28.4236 1.21321Z" fill="#4D484F"/>
</svg>
