<svg width="16" height="15" viewBox="0 0 16 15" fill="none" xmlns="http://www.w3.org/2000/svg">
<path d="M1 8L12.86 8L9.23 12.36C9.14595 12.4611 9.08265 12.5778 9.0437 12.7034C9.00474 12.829 8.99091 12.961 9.00298 13.0919C9.01505 13.2229 9.05279 13.3501 9.11405 13.4665C9.17531 13.5828 9.25888 13.686 9.36 13.77C9.46112 13.854 9.5778 13.9174 9.70338 13.9563C9.82897 13.9953 9.96099 14.0091 10.0919 13.997C10.2229 13.9849 10.3501 13.9472 10.4665 13.8859C10.5828 13.8247 10.686 13.7411 10.77 13.64L15.77 7.64C15.8036 7.59228 15.8337 7.54214 15.86 7.49C15.86 7.44 15.86 7.41 15.93 7.36C15.9753 7.24534 15.9991 7.12329 16 7C15.9991 6.87671 15.9753 6.75466 15.93 6.64C15.93 6.59 15.93 6.56 15.86 6.51C15.8337 6.45786 15.8036 6.40772 15.77 6.36L10.77 0.360001C10.676 0.247118 10.5582 0.156338 10.4252 0.0941162C10.2921 0.0318947 10.1469 -0.000238419 10 0C9.76635 -0.00045681 9.53991 0.0809183 9.36 0.23C9.25874 0.313949 9.17504 0.41705 9.11369 0.533398C9.05234 0.649745 9.01454 0.777051 9.00246 0.908028C8.99039 1.039 9.00427 1.17108 9.04331 1.29668C9.08236 1.42228 9.1458 1.53895 9.23 1.64L12.86 6L1 6C0.734783 6 0.480429 6.10536 0.292892 6.29289C0.105356 6.48043 0 6.73478 0 7C0 7.26522 0.105356 7.51957 0.292892 7.70711C0.480429 7.89464 0.734783 8 1 8Z" fill="white"/>
</svg>
