<svg xmlns="http://www.w3.org/2000/svg" xmlns:xlink="http://www.w3.org/1999/xlink" width="324" height="233" viewBox="0 0 324 233">
  <defs>
    <filter id="Path_176" x="271.864" y="1.688" width="43.719" height="43.633" filterUnits="userSpaceOnUse">
      <feOffset dy="3" input="SourceAlpha"/>
      <feGaussianBlur stdDeviation="3" result="blur"/>
      <feFlood flood-opacity="0.161"/>
      <feComposite operator="in" in2="blur"/>
      <feComposite in="SourceGraphic"/>
    </filter>
  </defs>
  <g id="Group_25" data-name="Group 25" transform="translate(-7927 6288)">
    <rect id="Rectangle_105" data-name="Rectangle 105" width="324" height="218" transform="translate(7927 -6273)" fill="#fff"/>
    <g id="Group_24" data-name="Group 24" transform="translate(-5 -75)">
      <g id="Group_23" data-name="Group 23" transform="translate(7931.279 -6213.48)">
        <path id="Path_155" data-name="Path 155" d="M.721,15.347H324.28V3.043A2.567,2.567,0,0,0,321.708.48H3.293A2.568,2.568,0,0,0,.721,3.043Z" fill="#4c4b51"/>
        <path id="Path_156" data-name="Path 156" d="M40.329,81.22H25.412a6.921,6.921,0,1,0,0,13.841H40.329a6.921,6.921,0,1,0,0-13.841Z" fill="none" stroke="#e7e7e7" stroke-width="0.514"/>
        <path id="Path_157" data-name="Path 157" d="M28.951,88.826a1.585,1.585,0,1,0,0-3.158H27V90.7h.856V88.826Zm.881-1.575a.8.8,0,0,1-.9.837H27.856V86.406h1.078A.8.8,0,0,1,29.831,87.251Zm4.662,1.632a1.744,1.744,0,1,0-1.737,1.9A1.745,1.745,0,0,0,34.493,88.883Zm-.823,0c0,.689-.321,1.2-.914,1.2s-.914-.508-.914-1.2.321-1.2.914-1.2S33.67,88.194,33.67,88.883Zm2.415-3.511h-.823V90.7h.823Zm1.84,0H37.1V90.7h.823Z" fill="#262523"/>
        <path id="Path_158" data-name="Path 158" d="M57.3,59.69H25.412a6.921,6.921,0,1,0,0,13.841H57.3a6.921,6.921,0,1,0,0-13.841Z" fill="none" stroke="#e7e7e7" stroke-width="0.514"/>
        <path id="Path_159" data-name="Path 159" d="M29.815,69.173l1.358-3.5v3.5H32V64.137h-.955l-1.523,3.871-1.539-3.871H27v5.036h.815v-3.5l1.391,3.5Zm5.508-1.132a.725.725,0,0,1-.782.525.938.938,0,0,1-.922-1.025h2.494v-.3c0-1.066-.56-1.8-1.589-1.8a1.767,1.767,0,0,0-1.712,1.911,1.732,1.732,0,0,0,1.728,1.895,1.428,1.428,0,0,0,1.539-1.214Zm-.79-1.9a.744.744,0,0,1,.765.8H33.644A.88.88,0,0,1,34.532,66.139Zm5.036-.205a1.172,1.172,0,0,0-.963-.484,1.124,1.124,0,0,0-.914.385v-.3h-.823v3.642h.823V66.729a.646.646,0,0,1,.65-.541c.4,0,.6.3.6.746v2.239h.823V66.729a.646.646,0,0,1,.65-.541c.4,0,.6.3.6.746v2.239h.823V66.8c0-.828-.436-1.353-1.185-1.353A1.35,1.35,0,0,0,39.568,65.934Zm4.063,2.928a1.247,1.247,0,0,0,.93.394,1.916,1.916,0,0,0,0-3.806,1.247,1.247,0,0,0-.93.394v-2h-.823v5.331h.823Zm0-2.2a.887.887,0,0,1,.79-.484,1.186,1.186,0,0,1,0,2.346.887.887,0,0,1-.79-.484ZM49.3,68.041a.725.725,0,0,1-.782.525.938.938,0,0,1-.922-1.025H50.09v-.3c0-1.066-.56-1.8-1.589-1.8a1.767,1.767,0,0,0-1.712,1.911,1.732,1.732,0,0,0,1.728,1.895,1.428,1.428,0,0,0,1.539-1.214Zm-.79-1.9a.744.744,0,0,1,.765.8H47.62A.88.88,0,0,1,48.51,66.139Zm4.377-.623a1.028,1.028,0,0,0-.4-.066.918.918,0,0,0-.815.459v-.377h-.823v3.642h.823V66.819a.712.712,0,0,1,.732-.582.908.908,0,0,1,.486.123Zm.461,2.608A1.4,1.4,0,0,0,54.9,69.255c.823,0,1.424-.443,1.424-1.165,0-.533-.313-.886-.938-1.033l-.774-.18c-.263-.066-.379-.172-.379-.336,0-.287.3-.418.584-.418a.62.62,0,0,1,.667.4h.807A1.312,1.312,0,0,0,54.83,65.45a1.241,1.241,0,0,0-1.383,1.14.994.994,0,0,0,.905,1l.757.18c.3.074.428.18.428.377,0,.287-.247.435-.625.435a.684.684,0,0,1-.724-.459Z" fill="#262523"/>
        <path id="Path_160" data-name="Path 160" d="M32.5,32.949l-1.226-2.133H30.132l1.819,3.125v1.911H33V33.941l1.835-3.125H33.72Zm5.618,1.075a1.806,1.806,0,1,0-1.8,1.911A1.777,1.777,0,0,0,38.12,34.023Zm-1.012,0c0,.607-.28,1.05-.79,1.05s-.79-.443-.79-1.05.28-1.058.79-1.058S37.107,33.408,37.107,34.023Zm4.924-1.837H41v2.329a.653.653,0,0,1-.658.508c-.4,0-.593-.262-.593-.648v-2.19H38.731v2.4a1.226,1.226,0,0,0,1.292,1.353,1.335,1.335,0,0,0,.988-.418v.336h1.021Zm3.111-.016a.962.962,0,0,0-.387-.066.946.946,0,0,0-.823.443v-.361H42.911v3.666h1.021V33.58a.665.665,0,0,1,.7-.517,1.021,1.021,0,0,1,.51.123Zm2.169-.435h1.621v4.118h1.062V31.735h1.63v-.919H47.311Zm7.809,2.288a1.806,1.806,0,1,0-1.8,1.911A1.777,1.777,0,0,0,55.119,34.023Zm-1.012,0c0,.607-.28,1.05-.79,1.05s-.79-.443-.79-1.05.28-1.058.79-1.058S54.107,33.408,54.107,34.023Zm4.06,1.829h1.21l-1.547-2.108,1.49-1.558H58.051l-1.259,1.362V30.521H55.771v5.331h1.021V34.7l.3-.32Zm3.8-1.2a.632.632,0,0,1-.683.459c-.453,0-.765-.328-.8-.878h2.453v-.312A1.623,1.623,0,0,0,61.265,32.1a1.789,1.789,0,0,0-1.77,1.919,1.758,1.758,0,0,0,1.786,1.911,1.5,1.5,0,0,0,1.63-1.28Zm-.691-1.722a.643.643,0,0,1,.658.689H60.508A.756.756,0,0,1,61.274,32.932Zm2.311,2.92H64.6V33.531a.669.669,0,0,1,.667-.509.571.571,0,0,1,.6.648v2.182h1.021v-2.4a1.228,1.228,0,0,0-1.3-1.353,1.321,1.321,0,0,0-.988.418v-.336h-1.02Zm5.5.689h.946l2.041-6.02h-.946Zm6.3-1.616V31.735h.7a1.415,1.415,0,0,1,1.49,1.6,1.413,1.413,0,0,1-1.49,1.591Zm-1.045.927h1.786a2.338,2.338,0,0,0,2.494-2.518,2.338,2.338,0,0,0-2.494-2.518H74.339Zm5.995-3.666H79.314v3.666h1.021Zm.09-1.058a.605.605,0,1,0-.6.582A.589.589,0,0,0,80.425,31.128Zm.563,3.634a1.462,1.462,0,0,0,1.638,1.173c.856,0,1.506-.443,1.506-1.189,0-.558-.337-.91-.979-1.066l-.757-.172c-.23-.057-.329-.139-.329-.287,0-.23.239-.344.486-.344a.537.537,0,0,1,.576.361H84.1A1.39,1.39,0,0,0,82.535,32.1c-.823,0-1.465.476-1.465,1.189,0,.615.4.9.955,1.034l.741.164c.255.066.37.148.37.312,0,.238-.206.361-.519.361a.593.593,0,0,1-.617-.4Zm3.6-.738a1.759,1.759,0,0,0,1.77,1.911,1.5,1.5,0,0,0,1.613-1.321h-1a.568.568,0,0,1-.609.451c-.469,0-.757-.427-.757-1.042s.288-1.05.757-1.05a.568.568,0,0,1,.609.451h1a1.5,1.5,0,0,0-1.613-1.32A1.761,1.761,0,0,0,84.589,34.023Zm7.268-1.837H90.828v2.329a.653.653,0,0,1-.658.508c-.4,0-.593-.262-.593-.648v-2.19H88.556v2.4a1.226,1.226,0,0,0,1.292,1.353,1.335,1.335,0,0,0,.988-.418v.336h1.021Zm.642,2.576a1.462,1.462,0,0,0,1.638,1.173c.856,0,1.506-.443,1.506-1.189,0-.558-.338-.91-.979-1.066l-.757-.172c-.23-.057-.329-.139-.329-.287,0-.23.239-.344.486-.344a.537.537,0,0,1,.576.361h.971A1.39,1.39,0,0,0,94.045,32.1c-.823,0-1.465.476-1.465,1.189,0,.615.395.9.955,1.034l.741.164c.255.066.37.148.37.312,0,.238-.206.361-.519.361a.593.593,0,0,1-.617-.4Zm3.592,0a1.463,1.463,0,0,0,1.638,1.173c.856,0,1.506-.443,1.506-1.189,0-.558-.337-.91-.979-1.066l-.757-.172c-.23-.057-.329-.139-.329-.287,0-.23.239-.344.486-.344a.537.537,0,0,1,.576.361H99.2A1.39,1.39,0,0,0,97.638,32.1c-.823,0-1.465.476-1.465,1.189,0,.615.4.9.955,1.034l.741.164c.255.066.37.148.37.312,0,.238-.206.361-.519.361a.593.593,0,0,1-.617-.4Zm4.852-2.576h-1.02v3.666h1.02Zm.091-1.058a.605.605,0,1,0-.6.582A.589.589,0,0,0,101.033,31.128Zm4.176,2.9a1.806,1.806,0,1,0-1.8,1.911A1.777,1.777,0,0,0,105.209,34.023Zm-1.012,0c0,.607-.28,1.05-.79,1.05s-.79-.443-.79-1.05.28-1.058.79-1.058S104.2,33.408,104.2,34.023Zm1.665,1.829h1.02V33.531a.668.668,0,0,1,.667-.509.571.571,0,0,1,.6.648v2.182h1.02v-2.4a1.228,1.228,0,0,0-1.3-1.353,1.322,1.322,0,0,0-.988.418v-.336h-1.02Zm3.916-1.091a1.463,1.463,0,0,0,1.638,1.173c.856,0,1.506-.443,1.506-1.189,0-.558-.337-.91-.979-1.066l-.757-.172c-.231-.057-.33-.139-.33-.287,0-.23.239-.344.486-.344a.538.538,0,0,1,.576.361h.971a1.389,1.389,0,0,0-1.563-1.132c-.824,0-1.465.476-1.465,1.189,0,.615.395.9.954,1.034l.741.164c.255.066.37.148.37.312,0,.238-.205.361-.518.361a.592.592,0,0,1-.617-.4Z" fill="#262523"/>
        <path id="Path_161" data-name="Path 161" d="M24.64,10.733a2.82,2.82,0,1,0-2.829-2.82A2.824,2.824,0,0,0,24.64,10.733Z" fill="#a1e59d"/>
        <path id="Path_162" data-name="Path 162" d="M16.41,10.733a2.82,2.82,0,1,0-2.829-2.82A2.824,2.824,0,0,0,16.41,10.733Z" fill="#f2c571"/>
        <path id="Path_163" data-name="Path 163" d="M8.179,10.733A2.82,2.82,0,1,0,5.35,7.913,2.824,2.824,0,0,0,8.179,10.733Z" fill="#d27365"/>
        <path id="Path_164" data-name="Path 164" d="M22.325,37.9a4.1,4.1,0,1,0-4.115-4.1A4.108,4.108,0,0,0,22.325,37.9Z" fill="#dedede"/>
        <path id="Path_165" data-name="Path 165" d="M243.518,60.971H80.967a2.054,2.054,0,0,0-2.058,2.051v2.563a2.054,2.054,0,0,0,2.058,2.05H243.518a2.054,2.054,0,0,0,2.058-2.05V63.022A2.054,2.054,0,0,0,243.518,60.971Z" fill="#d5d5d5"/>
        <path id="Path_166" data-name="Path 166" d="M243.518,100.444H80.967a2.054,2.054,0,0,0-2.058,2.051v2.563a2.054,2.054,0,0,0,2.058,2.05H243.518a2.054,2.054,0,0,0,2.058-2.05V102.5A2.054,2.054,0,0,0,243.518,100.444Z" fill="#d5d5d5"/>
        <path id="Path_167" data-name="Path 167" d="M216.77,75.838H80.967a2.054,2.054,0,0,0-2.058,2.051v2.563a2.054,2.054,0,0,0,2.058,2.05h135.8a2.054,2.054,0,0,0,2.057-2.05V77.888A2.054,2.054,0,0,0,216.77,75.838Z" fill="#e6e6e6"/>
        <path id="Path_168" data-name="Path 168" d="M216.77,115.311H80.967a2.054,2.054,0,0,0-2.058,2.05v2.563a2.054,2.054,0,0,0,2.058,2.051h135.8a2.054,2.054,0,0,0,2.057-2.051v-2.563A2.054,2.054,0,0,0,216.77,115.311Z" fill="#e6e6e6"/>
        <path id="Path_170" data-name="Path 170" d="M272.582,78.4a5.9,5.9,0,1,0-5.915-5.9A5.905,5.905,0,0,0,272.582,78.4Z" fill="#f7d58c" stroke="#fff" stroke-width="1.029"/>
        <path id="Path_171" data-name="Path 171" d="M279.269,78.4a5.9,5.9,0,1,0-5.915-5.9A5.905,5.905,0,0,0,279.269,78.4Z" fill="#73304f" stroke="#fff" stroke-width="1.029"/>
        <path id="Path_172" data-name="Path 172" d="M279.269,115.823a5.9,5.9,0,1,0-5.915-5.895A5.9,5.9,0,0,0,279.269,115.823Z" fill="#c3326b" stroke="#fff" stroke-width="1.029"/>
        <path id="Path_173" data-name="Path 173" d="M285.957,78.4a5.9,5.9,0,1,0-5.916-5.9A5.905,5.905,0,0,0,285.957,78.4Z" fill="#8fd4dd" stroke="#fff" stroke-width="1.029"/>
        <path id="Path_174" data-name="Path 174" d="M285.957,115.823a5.9,5.9,0,1,0-5.916-5.895A5.9,5.9,0,0,0,285.957,115.823Z" fill="#7e964f" stroke="#fff" stroke-width="1.029"/>
        <path id="Path_175" data-name="Path 175" d="M298.56,8.682h-8.745a10.27,10.27,0,0,0-10.288,10.253V25.6a10.27,10.27,0,0,0,10.288,10.253h8.745A10.27,10.27,0,0,0,308.848,25.6V18.935A10.27,10.27,0,0,0,298.56,8.682Z" fill="#fff" opacity="0.8"/>
        <g transform="matrix(1, 0, 0, 1, 0.72, 0.48)" filter="url(#Path_176)">
          <path id="Path_176-2" data-name="Path 176" d="M287.757,8.426h13.375a5.9,5.9,0,0,1,5.915,5.9V27.65a5.905,5.905,0,0,1-5.915,5.9H287.757a5.905,5.905,0,0,1-5.915-5.9V14.321A5.9,5.9,0,0,1,287.757,8.426Z" transform="translate(-0.72 -0.48)" fill="#fff" stroke="#e7e7e7" stroke-width="0.514"/>
        </g>
        <path id="Path_177" data-name="Path 177" d="M297.531,18.935a3.087,3.087,0,0,0-6.173,0c0,3.588-1.543,4.614-1.543,4.614h9.259S297.531,22.523,297.531,18.935Z" fill="none" stroke="#000" stroke-linecap="round" stroke-linejoin="round" stroke-width="1.029"/>
        <path id="Path_178" data-name="Path 178" d="M295.334,25.6a1.031,1.031,0,0,1-1.78,0" fill="none" stroke="#000" stroke-linecap="round" stroke-linejoin="round" stroke-width="1.029"/>
        <path id="Path_179" data-name="Path 179" d="M272.839,13.3H221.914a2.054,2.054,0,0,0-2.058,2.051v12.3a2.054,2.054,0,0,0,2.058,2.051h50.925A2.054,2.054,0,0,0,274.9,27.65v-12.3A2.054,2.054,0,0,0,272.839,13.3Z" fill="#1c1c25"/>
        <path id="Path_180" data-name="Path 180" d="M232.3,23.549V19.241h.549l2.137,3.076.184.285V19.241h.56v4.307h-.554l-2.149-3.088-.166-.264v3.352ZM236.428,22a1.644,1.644,0,0,1,.413-1.163,1.4,1.4,0,0,1,1.085-.462,1.333,1.333,0,0,1,1.03.414,1.639,1.639,0,0,1,.383,1.162v.252h-2.363a.975.975,0,0,0,.293.67.935.935,0,0,0,.668.246.8.8,0,0,0,.841-.5h.531a1.394,1.394,0,0,1-.5.736,1.447,1.447,0,0,1-.88.261,1.408,1.408,0,0,1-1.08-.445A1.648,1.648,0,0,1,236.428,22Zm.554-.27H238.8a.857.857,0,0,0-.247-.628.867.867,0,0,0-.63-.234.9.9,0,0,0-.642.237A.992.992,0,0,0,236.982,21.734Zm2.716-1.286h.567l.648,2.166.063.282.066-.282.7-2.166h.456l.7,2.166.066.282.063-.282.649-2.166h.566l-.989,3.1h-.536l-.753-2.214-.76,2.214h-.519Zm6.393,3.1V19.241h1.278a1.419,1.419,0,0,1,1.03.369,1.254,1.254,0,0,1,.383.955,1.236,1.236,0,0,1-.383.946,1.434,1.434,0,0,1-1.03.358h-.718v1.679Zm.56-2.2h.718a.876.876,0,0,0,.615-.207.739.739,0,0,0,.229-.574.764.764,0,0,0-.232-.586.856.856,0,0,0-.612-.216h-.718Zm2.785,2.2v-3.1h.477l.036.541a.834.834,0,0,1,.334-.412,1.071,1.071,0,0,1,.6-.159v.529a.9.9,0,0,0-.63.225.974.974,0,0,0-.283.733v1.643Zm2.186-.388a1.762,1.762,0,0,1,0-2.325,1.527,1.527,0,0,1,1.142-.456,1.5,1.5,0,0,1,1.13.456,1.747,1.747,0,0,1,0,2.325,1.494,1.494,0,0,1-1.13.457A1.527,1.527,0,0,1,251.622,23.161ZM251.733,22a1.172,1.172,0,0,0,.284.808.956.956,0,0,0,.753.318.922.922,0,0,0,.735-.321,1.166,1.166,0,0,0,.284-.805,1.139,1.139,0,0,0-.284-.805.922.922,0,0,0-.735-.321.952.952,0,0,0-.753.321A1.134,1.134,0,0,0,251.733,22Zm3.34,2.872V20.449h.482l.024.454a1.2,1.2,0,0,1,1.067-.523,1.321,1.321,0,0,1,1.049.462A1.7,1.7,0,0,1,258.1,22a1.681,1.681,0,0,1-.41,1.156,1.323,1.323,0,0,1-1.049.463,1.389,1.389,0,0,1-.621-.132,1,1,0,0,1-.41-.36V24.87ZM255.6,22a1.129,1.129,0,0,0,.283.805.92.92,0,0,0,.681.309.91.91,0,0,0,.709-.309,1.167,1.167,0,0,0,.277-.805,1.188,1.188,0,0,0-.268-.808.891.891,0,0,0-.711-.312.914.914,0,0,0-.688.3,1.1,1.1,0,0,0-.283.787Zm3.457,1.162a1.765,1.765,0,0,1,0-2.325,1.531,1.531,0,0,1,1.143-.456,1.5,1.5,0,0,1,1.13.456,1.747,1.747,0,0,1,0,2.325,1.494,1.494,0,0,1-1.13.457A1.531,1.531,0,0,1,259.054,23.161ZM259.166,22a1.176,1.176,0,0,0,.283.808.96.96,0,0,0,.754.318.923.923,0,0,0,.735-.321,1.165,1.165,0,0,0,.283-.805,1.138,1.138,0,0,0-.283-.805.923.923,0,0,0-.735-.321.955.955,0,0,0-.754.321A1.138,1.138,0,0,0,259.166,22Zm3.068.61h.543q.006.517.6.517a.613.613,0,0,0,.4-.114.372.372,0,0,0,.142-.306.361.361,0,0,0-.135-.3,1.366,1.366,0,0,0-.513-.192,1.647,1.647,0,0,1-.732-.321.722.722,0,0,1-.227-.565.906.906,0,0,1,.275-.667,1.028,1.028,0,0,1,.759-.276,1.01,1.01,0,0,1,.727.27.96.96,0,0,1,.3.709h-.542a.437.437,0,0,0-.495-.487.5.5,0,0,0-.352.114.4.4,0,0,0-.121.3.326.326,0,0,0,.121.276,1.321,1.321,0,0,0,.464.174,1.779,1.779,0,0,1,.787.342.753.753,0,0,1,.232.586.864.864,0,0,1-.3.694,1.175,1.175,0,0,1-.786.255,1.2,1.2,0,0,1-.827-.27A.993.993,0,0,1,262.234,22.608Zm2.767.135q0-.733.871-.9l.95-.18v-.153q0-.64-.573-.64a.689.689,0,0,0-.461.15.52.52,0,0,0-.175.417h-.524a1.044,1.044,0,0,1,.331-.757,1.16,1.16,0,0,1,.829-.3,1.018,1.018,0,0,1,1.112,1.114v2.055h-.482l-.024-.424a.923.923,0,0,1-.377.36,1.192,1.192,0,0,1-.57.132.914.914,0,0,1-.66-.237A.845.845,0,0,1,265,22.744Zm.537-.006a.35.35,0,0,0,.123.285.541.541,0,0,0,.353.1.732.732,0,0,0,.63-.309.938.938,0,0,0,.178-.571v-.117l-.851.183a.77.77,0,0,0-.325.15A.351.351,0,0,0,265.538,22.738Zm2.718.811V19.058h.531v4.491Zm1.384-.312a.365.365,0,0,1,.111-.273.384.384,0,0,1,.277-.108.393.393,0,0,1,.281.108.379.379,0,0,1,0,.544.388.388,0,0,1-.281.111.38.38,0,0,1-.274-.111A.364.364,0,0,1,269.64,23.236Zm.124-.919V19.241h.53v3.076Z" fill="#fff"/>
        <path id="Path_181" data-name="Path 181" d="M226.029,23.549a2.051,2.051,0,1,0-2.058-2.05A2.054,2.054,0,0,0,226.029,23.549Z" fill="#53c1ff"/>
        <path id="Path_182" data-name="Path 182" d="M243.518,60.971H80.967a2.054,2.054,0,0,0-2.058,2.051v2.563a2.054,2.054,0,0,0,2.058,2.05H243.518a2.054,2.054,0,0,0,2.058-2.05V63.022A2.054,2.054,0,0,0,243.518,60.971Z" transform="translate(0 79)" fill="#d5d5d5"/>
        <path id="Path_183" data-name="Path 183" d="M243.518,100.444H80.967a2.054,2.054,0,0,0-2.058,2.051v2.563a2.054,2.054,0,0,0,2.058,2.05H243.518a2.054,2.054,0,0,0,2.058-2.05V102.5A2.054,2.054,0,0,0,243.518,100.444Z" transform="translate(0 79)" fill="#d5d5d5"/>
        <path id="Path_184" data-name="Path 184" d="M216.77,75.838H80.967a2.054,2.054,0,0,0-2.058,2.051v2.563a2.054,2.054,0,0,0,2.058,2.05h135.8a2.054,2.054,0,0,0,2.057-2.05V77.888A2.054,2.054,0,0,0,216.77,75.838Z" transform="translate(0 79)" fill="#e6e6e6"/>
        <path id="Path_185" data-name="Path 185" d="M216.77,115.311H80.967a2.054,2.054,0,0,0-2.058,2.05v2.563a2.054,2.054,0,0,0,2.058,2.051h135.8a2.054,2.054,0,0,0,2.057-2.051v-2.563A2.054,2.054,0,0,0,216.77,115.311Z" transform="translate(0 79)" fill="#e6e6e6"/>
        <path id="Path_186" data-name="Path 186" d="M272.582,78.4a5.9,5.9,0,1,0-5.915-5.9A5.905,5.905,0,0,0,272.582,78.4Z" transform="translate(0 79)" fill="#f7d58c" stroke="#fff" stroke-width="1.029"/>
        <path id="Path_187" data-name="Path 187" d="M279.269,78.4a5.9,5.9,0,1,0-5.915-5.9A5.905,5.905,0,0,0,279.269,78.4Z" transform="translate(0 79)" fill="#73304f" stroke="#fff" stroke-width="1.029"/>
        <path id="Path_188" data-name="Path 188" d="M279.269,115.823a5.9,5.9,0,1,0-5.915-5.895A5.9,5.9,0,0,0,279.269,115.823Z" transform="translate(0 79)" fill="#c3326b" stroke="#fff" stroke-width="1.029"/>
        <path id="Path_189" data-name="Path 189" d="M285.957,78.4a5.9,5.9,0,1,0-5.916-5.9A5.905,5.905,0,0,0,285.957,78.4Z" transform="translate(0 79)" fill="#8fd4dd" stroke="#fff" stroke-width="1.029"/>
        <path id="Path_190" data-name="Path 190" d="M285.957,115.823a5.9,5.9,0,1,0-5.916-5.895A5.9,5.9,0,0,0,285.957,115.823Z" transform="translate(0 79)" fill="#7e964f" stroke="#fff" stroke-width="1.029"/>
        <path id="Path_169" data-name="Path 169" d="M304.732,133.253H68.107v99.964H304.732Z" fill="rgba(255,255,255,0.65)"/>
      </g>
    </g>
  </g>
</svg>
