<svg xmlns="http://www.w3.org/2000/svg" xmlns:xlink="http://www.w3.org/1999/xlink" width="323.56" height="233.539" viewBox="0 0 323.56 233.539">
  <defs>
    <filter id="Path_228" x="68.675" y="53.156" width="241.765" height="158.583" filterUnits="userSpaceOnUse">
      <feOffset dy="3" input="SourceAlpha"/>
      <feGaussianBlur stdDeviation="3" result="blur"/>
      <feFlood flood-opacity="0.173"/>
      <feComposite operator="in" in2="blur"/>
      <feComposite in="SourceGraphic"/>
    </filter>
  </defs>
  <g id="Group_35" data-name="Group 35" transform="translate(-25.72 -20.527)">
    <g id="Group_32" data-name="Group 32">
      <path id="Path_216" data-name="Path 216" d="M25.72,35.445H349.28V23.1a2.572,2.572,0,0,0-2.572-2.572H28.292A2.572,2.572,0,0,0,25.72,23.1Z" fill="#4c4b51"/>
      <path id="Path_217" data-name="Path 217" d="M25.72,35.444H349.28v216.05a2.573,2.573,0,0,1-2.572,2.572H28.292a2.572,2.572,0,0,1-2.572-2.572Z" fill="#fff"/>
      <path id="Path_218" data-name="Path 218" d="M65.329,101.545H50.411a6.944,6.944,0,1,0,0,13.889H65.329a6.944,6.944,0,0,0,0-13.889Z" fill="none" stroke="#e7e7e7" stroke-width="1"/>
      <path id="Path_219" data-name="Path 219" d="M53.951,109.177a1.59,1.59,0,1,0,0-3.169H52v5.054h.856v-1.885Zm.881-1.58a.8.8,0,0,1-.9.839H52.856v-1.687h1.078A.8.8,0,0,1,54.831,107.6Zm4.662,1.638a1.744,1.744,0,1,0-1.737,1.909A1.749,1.749,0,0,0,59.493,109.235Zm-.823,0c0,.691-.321,1.2-.914,1.2s-.914-.51-.914-1.2.321-1.2.914-1.2S58.67,108.543,58.67,109.235Zm2.415-3.523h-.823v5.35h.823Zm1.84,0H62.1v5.35h.823Z" fill="#262523"/>
      <path id="Path_220" data-name="Path 220" d="M82.3,79.94H50.411a6.944,6.944,0,1,0,0,13.889H82.3a6.944,6.944,0,0,0,0-13.889Z" fill="none" stroke="#e7e7e7" stroke-width="1"/>
      <path id="Path_221" data-name="Path 221" d="M54.815,89.457l1.358-3.514v3.514H57V84.4h-.955l-1.523,3.885L52.979,84.4H52v5.054h.815V85.942l1.391,3.514Zm5.508-1.136a.725.725,0,0,1-.782.527.94.94,0,0,1-.922-1.029h2.494v-.3c0-1.07-.56-1.8-1.589-1.8a1.77,1.77,0,0,0-1.712,1.918,1.736,1.736,0,0,0,1.728,1.9,1.429,1.429,0,0,0,1.539-1.218Zm-.79-1.909a.745.745,0,0,1,.765.807H58.644A.881.881,0,0,1,59.532,86.411Zm5.036-.206a1.171,1.171,0,0,0-.963-.486,1.123,1.123,0,0,0-.914.387v-.3h-.823v3.654h.823V87a.647.647,0,0,1,.65-.543c.4,0,.6.3.6.749v2.247h.823V87a.647.647,0,0,1,.65-.543c.4,0,.6.3.6.749v2.247h.823V87.078c0-.831-.436-1.358-1.185-1.358A1.348,1.348,0,0,0,64.568,86.206Zm4.063,2.938a1.245,1.245,0,0,0,.93.4,1.923,1.923,0,0,0,0-3.819,1.245,1.245,0,0,0-.93.4V84.107h-.823v5.35h.823Zm0-2.206a.887.887,0,0,1,.79-.486,1.19,1.19,0,0,1,0,2.354.887.887,0,0,1-.79-.486ZM74.3,88.321a.725.725,0,0,1-.782.527.94.94,0,0,1-.922-1.029H75.09v-.3c0-1.07-.56-1.8-1.588-1.8a1.77,1.77,0,0,0-1.712,1.918,1.736,1.736,0,0,0,1.728,1.9,1.429,1.429,0,0,0,1.539-1.218Zm-.79-1.909a.745.745,0,0,1,.765.807H72.62A.881.881,0,0,1,73.51,86.411Zm4.377-.626a1.025,1.025,0,0,0-.4-.066.917.917,0,0,0-.815.461V85.8h-.823v3.654h.823V87.095a.713.713,0,0,1,.733-.584.906.906,0,0,1,.486.123Zm.461,2.617A1.406,1.406,0,0,0,79.9,89.539c.823,0,1.424-.444,1.424-1.169a1.033,1.033,0,0,0-.938-1.037l-.774-.181c-.263-.066-.379-.173-.379-.338,0-.288.3-.42.584-.42a.62.62,0,0,1,.667.4h.807A1.312,1.312,0,0,0,79.83,85.72a1.242,1.242,0,0,0-1.383,1.144,1,1,0,0,0,.905,1l.757.181c.3.074.428.181.428.379,0,.288-.247.436-.625.436a.684.684,0,0,1-.724-.461Z" fill="#262523"/>
      <path id="Path_222" data-name="Path 222" d="M57.5,53.107l-1.226-2.14H55.132L56.951,54.1v1.918H58V54.1l1.835-3.136H58.72Zm5.618,1.078a1.806,1.806,0,1,0-1.8,1.918A1.781,1.781,0,0,0,63.12,54.185Zm-1.012,0c0,.609-.28,1.054-.79,1.054s-.79-.444-.79-1.054.28-1.062.79-1.062S62.108,53.568,62.108,54.185Zm4.924-1.844H66v2.337a.653.653,0,0,1-.658.51c-.4,0-.593-.263-.593-.65v-2.2H63.731v2.4A1.229,1.229,0,0,0,65.023,56.1a1.332,1.332,0,0,0,.988-.42v.337h1.021Zm3.111-.017a.96.96,0,0,0-.387-.066.945.945,0,0,0-.823.444v-.362H67.912v3.679h1.021v-2.28a.665.665,0,0,1,.7-.519,1.019,1.019,0,0,1,.51.123Zm2.169-.436h1.621v4.132h1.062V51.889h1.63v-.922H72.311Zm7.809,2.3a1.806,1.806,0,1,0-1.8,1.918A1.781,1.781,0,0,0,80.119,54.185Zm-1.012,0c0,.609-.28,1.054-.79,1.054s-.79-.444-.79-1.054.28-1.062.79-1.062S79.107,53.568,79.107,54.185Zm4.06,1.835h1.21l-1.547-2.115,1.49-1.564H83.052l-1.259,1.366V50.671H80.772v5.35h1.021V54.86l.3-.321Zm3.8-1.2a.632.632,0,0,1-.683.461c-.453,0-.765-.329-.8-.881h2.453v-.313a1.627,1.627,0,0,0-1.671-1.827,1.792,1.792,0,0,0-1.77,1.926A1.761,1.761,0,0,0,86.282,56.1a1.505,1.505,0,0,0,1.63-1.284Zm-.691-1.728a.644.644,0,0,1,.658.691H85.508A.756.756,0,0,1,86.274,53.091Zm2.311,2.93h1.021V53.692a.669.669,0,0,1,.667-.51.572.572,0,0,1,.6.65v2.189h1.021v-2.4a1.231,1.231,0,0,0-1.3-1.358,1.319,1.319,0,0,0-.988.42v-.337H88.585Zm5.5.691h.946l2.041-6.041h-.947Zm7.316-2.444a1.655,1.655,0,1,0,0-3.3H99.34v5.053h1.045V54.268Zm.741-1.646a.713.713,0,0,1-.807.749h-.946V51.864h.946A.712.712,0,0,1,102.138,52.621Zm4.923,1.564a1.806,1.806,0,1,0-1.8,1.918A1.78,1.78,0,0,0,107.061,54.185Zm-1.012,0c0,.609-.28,1.054-.79,1.054s-.79-.444-.79-1.054.28-1.062.79-1.062S106.049,53.568,106.049,54.185Zm2.685-3.514h-1.02v5.35h1.02Zm1.913,0h-1.02v5.35h1.02Z" fill="#262523"/>
      <path id="Path_223" data-name="Path 223" d="M49.64,30.815a2.829,2.829,0,1,0-2.829-2.829A2.829,2.829,0,0,0,49.64,30.815Z" fill="#a1e59d"/>
      <path id="Path_224" data-name="Path 224" d="M41.41,30.815a2.829,2.829,0,1,0-2.829-2.829A2.829,2.829,0,0,0,41.41,30.815Z" fill="#f2c571"/>
      <path id="Path_225" data-name="Path 225" d="M33.179,30.815a2.829,2.829,0,1,0-2.829-2.829A2.829,2.829,0,0,0,33.179,30.815Z" fill="#d27365"/>
      <path id="Path_226" data-name="Path 226" d="M47.325,58.078a4.115,4.115,0,1,0-4.115-4.115A4.115,4.115,0,0,0,47.325,58.078Z" fill="#dedede"/>
    </g>
    <g id="Group_33" data-name="Group 33" opacity="0.8">
      <path id="Path_227" data-name="Path 227" d="M316.872,84.313H114.2A10.289,10.289,0,0,0,103.909,94.6V213.943A10.289,10.289,0,0,0,114.2,224.231H316.872a10.288,10.288,0,0,0,10.288-10.288V94.6A10.288,10.288,0,0,0,316.872,84.313Z" fill="#fff" opacity="0.8"/>
    </g>
    <g transform="matrix(1, 0, 0, 1, 25.72, 20.53)" filter="url(#Path_228)">
      <path id="Path_228-2" data-name="Path 228" d="M316.872,79.683H113.683a10.288,10.288,0,0,0-10.288,10.288V209.978a10.288,10.288,0,0,0,10.288,10.288H316.872a10.288,10.288,0,0,0,10.288-10.288V89.971A10.288,10.288,0,0,0,316.872,79.683Z" transform="translate(-25.72 -20.53)" fill="#fff"/>
    </g>
    <path id="Path_229" data-name="Path 229" d="M118.271,96.059a2.833,2.833,0,0,0,2.782,3.084,2.367,2.367,0,0,0,2.5-2.033h-1.235a1.25,1.25,0,0,1-1.265.924c-.953,0-1.518-.846-1.518-1.975s.565-1.975,1.518-1.975a1.252,1.252,0,0,1,1.265.914h1.235a2.368,2.368,0,0,0-2.5-2.023A2.833,2.833,0,0,0,118.271,96.059Zm10.084.817a2.135,2.135,0,1,0-2.13,2.266A2.1,2.1,0,0,0,128.355,96.877Zm-1.2,0c0,.72-.33,1.245-.933,1.245s-.934-.526-.934-1.245.33-1.255.934-1.255S127.158,96.146,127.158,96.877Zm5.442-1.722a1.443,1.443,0,0,0-1.168-.555,1.381,1.381,0,0,0-1.1.457V94.7h-1.207v4.349h1.207v-2.8a.681.681,0,0,1,.681-.564c.418,0,.612.312.612.778v2.588h1.217v-2.8a.672.672,0,0,1,.671-.564c.419,0,.623.312.623.778v2.588h1.206v-2.84a1.412,1.412,0,0,0-1.43-1.605A1.694,1.694,0,0,0,132.6,95.154Zm7.22,0a1.44,1.44,0,0,0-1.167-.555,1.383,1.383,0,0,0-1.1.457V94.7h-1.206v4.349h1.206v-2.8a.682.682,0,0,1,.682-.564c.418,0,.612.312.612.778v2.588h1.216v-2.8a.672.672,0,0,1,.672-.564c.418,0,.622.312.622.778v2.588h1.207v-2.84a1.412,1.412,0,0,0-1.43-1.605A1.7,1.7,0,0,0,139.82,95.154Zm7.737,1.722a2.135,2.135,0,1,0-2.131,2.266A2.105,2.105,0,0,0,147.557,96.877Zm-1.2,0c0,.72-.331,1.245-.934,1.245s-.934-.526-.934-1.245.33-1.255.934-1.255S146.36,96.146,146.36,96.877Zm1.968,2.169h1.206V96.293a.791.791,0,0,1,.788-.6.676.676,0,0,1,.71.769v2.588h1.207v-2.84A1.455,1.455,0,0,0,150.7,94.6a1.556,1.556,0,0,0-1.168.5v-.4h-1.206Zm8.1-4.349h-.925l-.71,2.773-.779-2.773h-1.206l1.323,4.349h1.109l.711-2.666.71,2.666h1.109L159.1,94.7h-1.168l-.778,2.773Zm5.915,2.929a.749.749,0,0,1-.808.545c-.535,0-.9-.389-.944-1.041h2.9V96.76a1.923,1.923,0,0,0-1.975-2.16,2.118,2.118,0,0,0-2.091,2.277,2.081,2.081,0,0,0,2.111,2.266,1.778,1.778,0,0,0,1.926-1.517Zm-.818-2.043a.761.761,0,0,1,.779.817h-1.684A.894.894,0,0,1,161.529,95.582Zm6.311,3.463V96.273a1.61,1.61,0,0,0-1.828-1.673,1.738,1.738,0,0,0-1.829,1.392h1.148a.623.623,0,0,1,.642-.409.639.639,0,0,1,.71.671v.321a2.029,2.029,0,0,0-.992-.253,1.511,1.511,0,0,0-1.683,1.391,1.454,1.454,0,0,0,1.614,1.411,1.731,1.731,0,0,0,1.061-.312v.233Zm-1.157-1.187a.86.86,0,0,1-.788.38c-.38,0-.769-.156-.769-.535s.389-.535.769-.535a.859.859,0,0,1,.788.38Zm3.345-5.137h-1.207v6.324h1.207Zm1.317,5.01a1.274,1.274,0,0,0,1.44,1.4,1.83,1.83,0,0,0,.778-.136v-1.07a1.028,1.028,0,0,1-.525.146.442.442,0,0,1-.5-.5V95.67h.953V94.7h-.953V93.52h-1.2V94.7h-.661v.973h.661Zm3.091,1.313h1.206V96.293a.792.792,0,0,1,.789-.6.677.677,0,0,1,.71.769v2.588h1.206v-2.84A1.454,1.454,0,0,0,176.81,94.6a1.56,1.56,0,0,0-1.168.5V92.722h-1.206Zm9.455-2.072a1.956,1.956,0,1,0,0-3.9h-2.433v5.973h1.236V96.974Zm.875-1.946a.843.843,0,0,1-.953.885h-1.119v-1.78h1.119A.841.841,0,0,1,184.766,95.028Zm5.82,1.849a2.135,2.135,0,1,0-2.13,2.266A2.1,2.1,0,0,0,190.586,96.877Zm-1.2,0c0,.72-.33,1.245-.933,1.245s-.934-.526-.934-1.245.33-1.255.934-1.255S189.389,96.146,189.389,96.877Zm5.995,0a2.135,2.135,0,1,0-2.13,2.266A2.1,2.1,0,0,0,195.384,96.877Zm-1.2,0c0,.72-.331,1.245-.934,1.245s-.935-.526-.935-1.245.331-1.255.935-1.255S194.188,96.146,194.188,96.877Zm3.174-4.154h-1.207v6.324h1.207Z" fill="#111"/>
    <path id="Path_230" data-name="Path 230" d="M120.151,133.157h-.4l-1.55.791v.682l1.294-.665v4.427h.656Zm1.72,3.567A1.129,1.129,0,1,1,123,137.9,1.112,1.112,0,0,1,121.871,136.724Zm2.8-2.341a1.543,1.543,0,0,0-1.626-1.295c-1.132,0-1.915,1.09-1.915,2.784a3.664,3.664,0,0,0,.306,1.6,1.67,1.67,0,0,0,1.558,1,1.7,1.7,0,0,0,1.754-1.754,1.677,1.677,0,0,0-1.694-1.737,1.364,1.364,0,0,0-1.32.894c0-.051-.009-.179-.009-.23,0-1.123.554-2,1.32-2a.95.95,0,0,1,.962.741Zm1.456,2.341a1.129,1.129,0,1,1,1.132,1.175A1.111,1.111,0,0,1,126.128,136.724Zm2.8-2.341a1.545,1.545,0,0,0-1.626-1.295c-1.133,0-1.916,1.09-1.916,2.784a3.663,3.663,0,0,0,.306,1.6,1.672,1.672,0,0,0,1.559,1,1.694,1.694,0,0,0,1.753-1.754,1.676,1.676,0,0,0-1.694-1.737,1.365,1.365,0,0,0-1.32.894c0-.051-.008-.179-.008-.23,0-1.123.553-2,1.32-2a.949.949,0,0,1,.961.741Zm3.276-1.218h-.681l-2.009,3.567v.477h2.409v1.183h.622v-1.183h.919v-.562h-.919v-1.26h-.622v1.26h-1.668Zm3.769,5.3c1.166,0,1.949-1.1,1.949-2.69s-.783-2.691-1.949-2.691-1.949,1.1-1.949,2.691S134.808,138.469,135.974,138.469Zm0-4.776c.843,0,1.294.868,1.294,2.086s-.451,2.085-1.294,2.085-1.294-.868-1.294-2.085S135.122,133.693,135.974,133.693Zm4.791-.528v5.227h3.329v-.6h-2.665v-1.778h2.418v-.6h-2.418v-1.651h2.665v-.6Zm4.015.6H146.6v4.631h.672v-4.631H149.1v-.6H144.78Zm8.822-.6V135.4h-2.953v-2.239h-.673v5.227h.673v-2.383H153.6v2.383h.673v-5.227Z" fill="#111"/>
    <path id="Path_231" data-name="Path 231" d="M207.323,180.045a2.435,2.435,0,0,0,2.341,2.691,1.963,1.963,0,0,0,2.035-1.618h-.665a1.363,1.363,0,0,1-1.37,1.013c-1.005,0-1.668-.851-1.668-2.086s.672-2.085,1.668-2.085a1.365,1.365,0,0,1,1.37,1h.665a1.957,1.957,0,0,0-2.035-1.609A2.434,2.434,0,0,0,207.323,180.045Zm8.232-1.166h-.647v2.562a1,1,0,0,1-.945.707.781.781,0,0,1-.826-.894v-2.375h-.647v2.477a1.243,1.243,0,0,0,1.32,1.38,1.365,1.365,0,0,0,1.1-.554v.477h.647Zm3.076-.017a.925.925,0,0,0-.366-.06,1.056,1.056,0,0,0-.937.571v-.494h-.638v3.78h.638v-2.537a.915.915,0,0,1,.877-.706.819.819,0,0,1,.426.1Zm2.735,0a.925.925,0,0,0-.366-.06,1.056,1.056,0,0,0-.937.571v-.494h-.638v3.78h.638v-2.537a.915.915,0,0,1,.877-.706.819.819,0,0,1,.426.1Zm3.07,2.665a.872.872,0,0,1-.92.664c-.638,0-1.09-.494-1.1-1.3h2.673v-.23c0-1.1-.554-1.856-1.592-1.856a1.786,1.786,0,0,0-1.72,1.975,1.766,1.766,0,0,0,1.737,1.959,1.442,1.442,0,0,0,1.524-1.209Zm-.928-2.18a.95.95,0,0,1,.936,1.056h-2.009A1.084,1.084,0,0,1,223.508,179.347Zm2.434,3.312h.639V180.1a1.025,1.025,0,0,1,.962-.707.787.787,0,0,1,.834.894v2.375h.647v-2.477a1.249,1.249,0,0,0-1.328-1.38,1.412,1.412,0,0,0-1.115.554v-.477h-.639Zm4.344-.954a.944.944,0,0,0,1.039,1.031,1.341,1.341,0,0,0,.6-.129v-.6a.943.943,0,0,1-.494.153c-.324,0-.5-.161-.5-.528v-2.213h.91v-.545h-.91v-1h-.639v1h-.613v.545h.613Zm4.087-.085a1.421,1.421,0,0,0,1.549,1.116c.809,0,1.4-.426,1.4-1.141,0-.528-.315-.886-.962-1.056l-.732-.178c-.357-.1-.528-.222-.528-.477,0-.367.349-.545.724-.545a.774.774,0,0,1,.834.536h.638a1.33,1.33,0,0,0-1.464-1.073,1.2,1.2,0,0,0-1.353,1.116c0,.587.374.859.91,1l.75.2c.391.1.562.263.562.527,0,.384-.324.562-.775.562a.842.842,0,0,1-.894-.579Zm4.019.085a.943.943,0,0,0,1.039,1.031,1.333,1.333,0,0,0,.6-.129v-.6a.94.94,0,0,1-.494.153c-.323,0-.5-.161-.5-.528v-2.213h.911v-.545h-.911v-1h-.638v1h-.613v.545h.613Zm5.206.954v-2.52a1.283,1.283,0,0,0-1.439-1.337,1.37,1.37,0,0,0-1.413,1.073h.63a.732.732,0,0,1,.775-.519.762.762,0,0,1,.834.809v.476a1.619,1.619,0,0,0-.954-.306,1.3,1.3,0,0,0-1.447,1.183,1.272,1.272,0,0,0,1.4,1.209,1.517,1.517,0,0,0,1-.349v.281Zm-.613-.937a.946.946,0,0,1-.886.469c-.459,0-.9-.213-.9-.673s.443-.655.9-.655a.947.947,0,0,1,.886.468Zm4.19.937h.783l-1.762-2.146,1.7-1.634h-.842l-1.728,1.677v-3.431h-.639v5.534h.639V181.3l.408-.391Zm3.739-1.132a.873.873,0,0,1-.92.664c-.639,0-1.09-.494-1.1-1.3h2.673v-.23c0-1.1-.554-1.856-1.592-1.856a1.786,1.786,0,0,0-1.72,1.975,1.766,1.766,0,0,0,1.737,1.959,1.442,1.442,0,0,0,1.524-1.209Zm-.928-2.18a.95.95,0,0,1,.936,1.056h-2.009A1.084,1.084,0,0,1,249.986,179.347Zm2.136,2.9a.456.456,0,1,0,.46-.468A.46.46,0,0,0,252.122,182.242Zm0-2.673a.456.456,0,1,0,.911,0,.456.456,0,1,0-.911,0Zm5.224-2.146h-.4l-1.549.792v.681l1.293-.664v4.427h.656Zm.912,4.819a.456.456,0,1,0,.911,0,.456.456,0,1,0-.911,0Zm3.214.494c1.166,0,1.95-1.1,1.95-2.691s-.784-2.69-1.95-2.69-1.949,1.1-1.949,2.69S260.306,182.736,261.472,182.736Zm0-4.776c.843,0,1.294.868,1.294,2.085s-.451,2.086-1.294,2.086-1.294-.868-1.294-2.086S260.621,177.96,261.472,177.96Zm4.581,4.776c1.166,0,1.95-1.1,1.95-2.691s-.784-2.69-1.95-2.69-1.95,1.1-1.95,2.69S264.887,182.736,266.053,182.736Zm0-4.776c.843,0,1.294.868,1.294,2.085s-.451,2.086-1.294,2.086-1.294-.868-1.294-2.086S265.2,177.96,266.053,177.96Zm4.581,4.776c1.166,0,1.949-1.1,1.949-2.691s-.783-2.69-1.949-2.69-1.95,1.1-1.95,2.69S269.467,182.736,270.634,182.736Zm0-4.776c.842,0,1.293.868,1.293,2.085s-.451,2.086-1.293,2.086-1.3-.868-1.3-2.086S269.782,177.96,270.634,177.96Zm4.58,4.776c1.167,0,1.95-1.1,1.95-2.691s-.783-2.69-1.95-2.69-1.949,1.1-1.949,2.69S274.048,182.736,275.214,182.736Zm0-4.776c.843,0,1.294.868,1.294,2.085s-.451,2.086-1.294,2.086-1.294-.868-1.294-2.086S274.363,177.96,275.214,177.96Zm4.581,4.776c1.166,0,1.949-1.1,1.949-2.691s-.783-2.69-1.949-2.69-1.95,1.1-1.95,2.69S278.629,182.736,279.8,182.736Zm0-4.776c.843,0,1.294.868,1.294,2.085s-.451,2.086-1.294,2.086-1.294-.868-1.294-2.086S278.943,177.96,279.8,177.96Zm4.58,4.776c1.167,0,1.95-1.1,1.95-2.691s-.783-2.69-1.95-2.69-1.949,1.1-1.949,2.69S283.209,182.736,284.375,182.736Zm0-4.776c.843,0,1.294.868,1.294,2.085s-.451,2.086-1.294,2.086-1.294-.868-1.294-2.086S283.524,177.96,284.375,177.96Zm4.379-.537h-.4l-1.549.792v.681l1.294-.664v4.427h.656Zm3.139.009v5.227h3.329v-.6h-2.665v-1.779h2.418v-.6h-2.418v-1.651h2.665v-.6Zm4.015.6h1.822v4.631h.672v-4.631h1.822v-.6h-4.316Zm8.823-.6v2.239h-2.954v-2.239H301.1v5.227h.673v-2.384h2.954v2.384h.672v-5.227Z" fill="#111"/>
    <path id="Path_232" data-name="Path 232" d="M207.323,199.5a2.434,2.434,0,0,0,2.341,2.69,1.962,1.962,0,0,0,2.035-1.617h-.665a1.363,1.363,0,0,1-1.37,1.013c-1.005,0-1.668-.851-1.668-2.086s.672-2.085,1.668-2.085a1.365,1.365,0,0,1,1.37,1h.665a1.957,1.957,0,0,0-2.035-1.609A2.434,2.434,0,0,0,207.323,199.5Zm8.232-1.166h-.647V200.9a1,1,0,0,1-.945.707.781.781,0,0,1-.826-.894v-2.375h-.647v2.477a1.242,1.242,0,0,0,1.32,1.379,1.365,1.365,0,0,0,1.1-.553v.477h.647Zm3.076-.017a.924.924,0,0,0-.366-.06,1.056,1.056,0,0,0-.937.571v-.494h-.638v3.78h.638V199.58a.916.916,0,0,1,.877-.707.809.809,0,0,1,.426.1Zm2.735,0a.924.924,0,0,0-.366-.06,1.056,1.056,0,0,0-.937.571v-.494h-.638v3.78h.638V199.58a.916.916,0,0,1,.877-.707.809.809,0,0,1,.426.1Zm3.07,2.665a.872.872,0,0,1-.92.664c-.638,0-1.09-.494-1.1-1.3h2.673v-.23c0-1.1-.553-1.856-1.592-1.856a1.787,1.787,0,0,0-1.72,1.976,1.765,1.765,0,0,0,1.737,1.957,1.441,1.441,0,0,0,1.524-1.208Zm-.928-2.18a.95.95,0,0,1,.936,1.056h-2.009A1.084,1.084,0,0,1,223.508,198.8Zm2.434,3.312h.639v-2.562a1.025,1.025,0,0,1,.962-.707.787.787,0,0,1,.834.894v2.375h.647v-2.478a1.249,1.249,0,0,0-1.328-1.379,1.412,1.412,0,0,0-1.115.554v-.477h-.639Zm4.344-.954a.943.943,0,0,0,1.039,1.03,1.342,1.342,0,0,0,.6-.127v-.6a.943.943,0,0,1-.494.153c-.324,0-.5-.162-.5-.528v-2.213h.91v-.545h-.91v-1h-.639v1h-.613v.545h.613Zm5.041-2.826h-.639v3.78h.639Zm.093-1.14a.413.413,0,1,0-.417.408A.416.416,0,0,0,235.42,197.2Zm1.047,4.92h.638v-2.562a1.027,1.027,0,0,1,.962-.707.787.787,0,0,1,.835.894v2.375h.647v-2.478a1.249,1.249,0,0,0-1.328-1.379,1.415,1.415,0,0,0-1.116.554v-.477h-.638Zm4.344-.954a.943.943,0,0,0,1.038,1.03,1.336,1.336,0,0,0,.6-.127v-.6a.937.937,0,0,1-.493.153c-.324,0-.5-.162-.5-.528v-2.213h.91v-.545h-.91v-1h-.639v1H240.2v.545h.613Zm4.865-.178a.871.871,0,0,1-.919.664c-.639,0-1.09-.494-1.1-1.3h2.673v-.23c0-1.1-.553-1.856-1.591-1.856a1.786,1.786,0,0,0-1.72,1.976,1.764,1.764,0,0,0,1.737,1.957,1.44,1.44,0,0,0,1.523-1.208Zm-.928-2.18a.95.95,0,0,1,.937,1.056h-2.01A1.085,1.085,0,0,1,244.748,198.8Zm4.376-.485a.921.921,0,0,0-.366-.06,1.055,1.055,0,0,0-.937.571v-.494h-.638v3.78h.638V199.58a.916.916,0,0,1,.878-.707.808.808,0,0,1,.425.1Zm3.069,2.665a.87.87,0,0,1-.919.664c-.638,0-1.089-.494-1.1-1.3h2.673v-.23c0-1.1-.553-1.856-1.592-1.856a1.786,1.786,0,0,0-1.719,1.976,1.764,1.764,0,0,0,1.736,1.957,1.441,1.441,0,0,0,1.524-1.208Zm-.927-2.18a.95.95,0,0,1,.936,1.056h-2.009A1.083,1.083,0,0,1,251.266,198.8Zm2.136,2.273a1.421,1.421,0,0,0,1.55,1.115c.808,0,1.4-.425,1.4-1.141,0-.527-.315-.885-.961-1.055l-.733-.179c-.358-.1-.528-.221-.528-.476,0-.367.349-.545.724-.545a.774.774,0,0,1,.834.536h.639a1.332,1.332,0,0,0-1.464-1.073,1.2,1.2,0,0,0-1.354,1.116c0,.587.374.86.911.995l.749.2c.392.1.562.264.562.528,0,.383-.324.562-.775.562a.843.843,0,0,1-.894-.579Zm4.019.085a.943.943,0,0,0,1.038,1.03,1.347,1.347,0,0,0,.6-.127v-.6a.949.949,0,0,1-.494.153c-.324,0-.5-.162-.5-.528v-2.213h.911v-.545h-.911v-1h-.638v1h-.613v.545h.613Zm2.25.537a.456.456,0,1,0,.911,0,.456.456,0,1,0-.911,0Zm0-2.673a.456.456,0,1,0,.911,0,.456.456,0,1,0-.911,0Zm5.351,3.166c1.166,0,1.95-1.1,1.95-2.69s-.784-2.69-1.95-2.69-1.95,1.1-1.95,2.69S263.856,202.193,265.022,202.193Zm0-4.775c.843,0,1.294.868,1.294,2.085s-.451,2.086-1.294,2.086-1.294-.868-1.294-2.086S264.171,197.418,265.022,197.418Zm2.306,4.282a.455.455,0,1,0,.91,0,.455.455,0,1,0-.91,0Zm3.214.493c1.166,0,1.95-1.1,1.95-2.69s-.784-2.69-1.95-2.69-1.949,1.1-1.949,2.69S269.376,202.193,270.542,202.193Zm0-4.775c.843,0,1.294.868,1.294,2.085s-.451,2.086-1.294,2.086-1.294-.868-1.294-2.086S269.691,197.418,270.542,197.418Zm4.581,4.775c1.166,0,1.949-1.1,1.949-2.69s-.783-2.69-1.949-2.69-1.95,1.1-1.95,2.69S273.956,202.193,275.123,202.193Zm0-4.775c.842,0,1.294.868,1.294,2.085s-.452,2.086-1.294,2.086-1.294-.868-1.294-2.086S274.272,197.418,275.123,197.418Zm4.58,4.775c1.167,0,1.95-1.1,1.95-2.69s-.783-2.69-1.95-2.69-1.949,1.1-1.949,2.69S278.537,202.193,279.7,202.193Zm0-4.775c.843,0,1.294.868,1.294,2.085s-.451,2.086-1.294,2.086-1.294-.868-1.294-2.086S278.852,197.418,279.7,197.418Zm5.185-.528h-.681l-2.009,3.567v.477h2.409v1.183h.621v-1.183h.92v-.563h-.92v-1.259h-.621v1.259h-1.668Zm2.535,3.558a1.129,1.129,0,1,1,1.132,1.175A1.112,1.112,0,0,1,287.423,200.448Zm2.8-2.341a1.544,1.544,0,0,0-1.626-1.294c-1.133,0-1.915,1.09-1.915,2.784a3.652,3.652,0,0,0,.306,1.6,1.669,1.669,0,0,0,1.558.995,1.694,1.694,0,0,0,1.753-1.753,1.676,1.676,0,0,0-1.694-1.737,1.362,1.362,0,0,0-1.319.894c0-.051-.009-.179-.009-.23,0-1.124.554-2,1.32-2a.951.951,0,0,1,.962.74Zm2.875-1.217v5.227h3.328v-.605h-2.665v-1.779h2.418v-.6h-2.418v-1.651h2.665v-.6Zm4.015.6h1.821v4.631h.673v-4.631h1.821v-.6h-4.315Zm8.822-.6v2.239h-2.954V196.89h-.672v5.227h.672v-2.384h2.954v2.384h.673V196.89Z" fill="#111"/>
    <path id="Path_233" data-name="Path 233" d="M305.027,151.678H215.035a8.026,8.026,0,1,0,0,16.052h89.992a8.026,8.026,0,1,0,0-16.052Z" fill="none" stroke="#111" stroke-linecap="square" stroke-width="0.946" opacity="0.1"/>
    <path id="Path_234" data-name="Path 234" d="M216.872,157.488v5.227H220.2v-.6h-2.665v-1.779h2.418v-.6h-2.418v-1.652H220.2v-.595Zm4.015.595h1.822v4.632h.673v-4.632H225.2v-.595h-4.316Zm8.823-.595v2.238h-2.954v-2.238h-.673v5.227h.673v-2.384h2.954v2.384h.672v-5.227Zm4.385,4.784a1.329,1.329,0,0,0,1.063.519,1.987,1.987,0,0,0,0-3.933,1.327,1.327,0,0,0-1.063.52v-2.2h-.648v5.534h.648Zm0-2.213a1.086,1.086,0,0,1,.97-.622c.723,0,1.149.588,1.149,1.388s-.426,1.388-1.149,1.388a1.086,1.086,0,0,1-.97-.622Zm6.375,2.656V160.2a1.282,1.282,0,0,0-1.439-1.337,1.369,1.369,0,0,0-1.413,1.073h.63a.733.733,0,0,1,.775-.519.762.762,0,0,1,.834.808v.477a1.625,1.625,0,0,0-.953-.306,1.294,1.294,0,0,0-1.447,1.183,1.27,1.27,0,0,0,1.4,1.208,1.517,1.517,0,0,0,1-.348v.281Zm-.613-.937a.945.945,0,0,1-.885.468c-.46,0-.9-.212-.9-.672s.443-.656.9-.656a.947.947,0,0,1,.885.468Zm2.343-4.6h-.639v5.534h.639Zm3.882,5.534V160.2a1.283,1.283,0,0,0-1.439-1.337,1.368,1.368,0,0,0-1.413,1.073h.629a.734.734,0,0,1,.775-.519.763.763,0,0,1,.835.808v.477a1.626,1.626,0,0,0-.954-.306,1.294,1.294,0,0,0-1.447,1.183,1.271,1.271,0,0,0,1.405,1.208,1.517,1.517,0,0,0,1-.348v.281Zm-.613-.937a.947.947,0,0,1-.886.468c-.46,0-.9-.212-.9-.672s.442-.656.9-.656a.949.949,0,0,1,.886.468Zm1.7.937h.638v-2.563a1.025,1.025,0,0,1,.962-.706.787.787,0,0,1,.834.894v2.375h.648v-2.478a1.249,1.249,0,0,0-1.329-1.379,1.413,1.413,0,0,0-1.115.554v-.477h-.638Zm3.892-1.89a1.765,1.765,0,0,0,1.72,1.966,1.427,1.427,0,0,0,1.515-1.217h-.655a.814.814,0,0,1-.86.655c-.647,0-1.073-.579-1.073-1.4s.426-1.4,1.073-1.4a.815.815,0,0,1,.86.656h.655a1.427,1.427,0,0,0-1.515-1.218A1.766,1.766,0,0,0,251.065,160.825Zm6.439.757a.87.87,0,0,1-.92.664c-.638,0-1.089-.493-1.1-1.3h2.672v-.23c0-1.1-.553-1.856-1.592-1.856a1.786,1.786,0,0,0-1.719,1.975,1.764,1.764,0,0,0,1.736,1.958,1.442,1.442,0,0,0,1.524-1.209Zm-.928-2.179a.949.949,0,0,1,.936,1.056H255.5A1.083,1.083,0,0,1,256.576,159.4Zm4.492,2.358a.943.943,0,0,0,1.039,1.03,1.353,1.353,0,0,0,.6-.127v-.6a.932.932,0,0,1-.494.154c-.323,0-.5-.162-.5-.528v-2.214h.911v-.544h-.911v-1h-.639v1h-.612v.544h.612Zm5.683-.936a1.75,1.75,0,1,0-1.737,1.966A1.778,1.778,0,0,0,266.751,160.825Zm-.647,0c0,.825-.409,1.4-1.09,1.4s-1.089-.579-1.089-1.4.408-1.4,1.089-1.4S266.1,160,266.1,160.825Zm3.075.851a1.42,1.42,0,0,0,1.549,1.115c.809,0,1.4-.425,1.4-1.141,0-.528-.315-.885-.962-1.055l-.732-.179c-.358-.1-.528-.221-.528-.477,0-.366.349-.544.724-.544a.775.775,0,0,1,.834.536h.638a1.332,1.332,0,0,0-1.464-1.073,1.2,1.2,0,0,0-1.353,1.115c0,.588.375.86.911,1l.749.195c.391.1.562.264.562.528,0,.383-.324.562-.775.562a.843.843,0,0,1-.894-.579Zm4.018.085a.943.943,0,0,0,1.039,1.03,1.353,1.353,0,0,0,.6-.127v-.6a.932.932,0,0,1-.494.154c-.323,0-.5-.162-.5-.528v-2.214h.911v-.544h-.911v-1H273.2v1h-.612v.544h.612Zm5.207.954V160.2a1.283,1.283,0,0,0-1.439-1.337,1.368,1.368,0,0,0-1.413,1.073h.63a.732.732,0,0,1,.774-.519.763.763,0,0,1,.835.808v.477a1.626,1.626,0,0,0-.954-.306,1.294,1.294,0,0,0-1.447,1.183,1.271,1.271,0,0,0,1.4,1.208,1.517,1.517,0,0,0,1-.348v.281Zm-.613-.937a.947.947,0,0,1-.886.468c-.459,0-.9-.212-.9-.672s.443-.656.9-.656a.949.949,0,0,1,.886.468Zm4.19.937h.783L281,160.57l1.7-1.635h-.842l-1.729,1.677v-3.431h-.638v5.534h.638v-1.354l.409-.391Zm3.738-1.133a.87.87,0,0,1-.919.664c-.639,0-1.09-.493-1.1-1.3h2.673v-.23c0-1.1-.554-1.856-1.592-1.856a1.786,1.786,0,0,0-1.72,1.975,1.765,1.765,0,0,0,1.737,1.958,1.441,1.441,0,0,0,1.523-1.209Zm-.927-2.179a.95.95,0,0,1,.936,1.056h-2.009A1.083,1.083,0,0,1,284.792,159.4Zm2.136,2.894a.456.456,0,1,0,.911,0,.456.456,0,1,0-.911,0Zm1.635,0a.456.456,0,1,0,.911,0,.456.456,0,1,0-.911,0Zm1.626,0a.456.456,0,1,0,.911,0,.456.456,0,1,0-.911,0Z" fill="#111" opacity="0.3"/>
    <path id="Path_235" data-name="Path 235" d="M190.226,151.678H126.015a8.026,8.026,0,0,0,0,16.052h64.211a8.026,8.026,0,0,0,0-16.052Z" fill="#332"/>
    <path id="Path_236" data-name="Path 236" d="M136.519,160.016a1.12,1.12,0,0,0,.681-1.106c0-.937-.681-1.422-1.77-1.422H133.6v5.227h2c1.089,0,1.77-.519,1.77-1.5A1.264,1.264,0,0,0,136.519,160.016Zm-2.06-.332v-1.43h.962c.6,0,.928.213.928.706s-.324.724-.928.724Zm0,.732h1.124c.6,0,.919.289.919.766s-.323.767-.919.767h-1.124Zm6.689,2.3v-2.478a1.339,1.339,0,0,0-1.515-1.387,1.432,1.432,0,0,0-1.481,1.132h.817a.615.615,0,0,1,.647-.409.652.652,0,0,1,.724.681v.307a1.772,1.772,0,0,0-.877-.23,1.323,1.323,0,0,0-1.473,1.217,1.278,1.278,0,0,0,1.413,1.235,1.518,1.518,0,0,0,.937-.281v.213Zm-.808-1a.825.825,0,0,1-.775.383c-.383,0-.783-.161-.783-.545s.4-.536.783-.536a.827.827,0,0,1,.775.383Zm1.548-.885a1.8,1.8,0,0,0,1.763,1.975,1.464,1.464,0,0,0,1.583-1.269h-.851a.671.671,0,0,1-.723.528c-.571,0-.92-.519-.92-1.234s.349-1.234.92-1.234a.671.671,0,0,1,.723.527h.851a1.464,1.464,0,0,0-1.583-1.268A1.8,1.8,0,0,0,141.888,160.825Zm6.557,1.89h1.03l-1.668-2.145,1.608-1.635h-1.089l-1.481,1.549v-3.3h-.852v5.534h.852v-1.252l.349-.357Zm3.262-1.89a1.8,1.8,0,0,0,1.762,1.975,1.464,1.464,0,0,0,1.583-1.269H154.2a.671.671,0,0,1-.724.528c-.57,0-.919-.519-.919-1.234s.349-1.234.919-1.234a.671.671,0,0,1,.724.527h.851a1.464,1.464,0,0,0-1.583-1.268A1.8,1.8,0,0,0,151.707,160.825Zm7.433,0a1.8,1.8,0,1,0-1.8,1.975A1.809,1.809,0,0,0,159.14,160.825Zm-.851,0c0,.715-.333,1.242-.945,1.242s-.945-.527-.945-1.242.332-1.243.945-1.243S158.289,160.11,158.289,160.825Zm2.5-3.644h-.851v5.534h.851Zm1.9,0h-.851v5.534h.851Zm3.385,4.359a.75.75,0,0,1-.809.544.972.972,0,0,1-.954-1.063h2.58v-.307c0-1.106-.579-1.864-1.643-1.864a1.831,1.831,0,0,0-1.771,1.983,1.8,1.8,0,0,0,1.788,1.967,1.479,1.479,0,0,0,1.592-1.26Zm-.818-1.975a.77.77,0,0,1,.792.834h-1.711A.91.91,0,0,1,165.257,159.565Zm2.178,1.26A1.8,1.8,0,0,0,169.2,162.8a1.464,1.464,0,0,0,1.583-1.269h-.851a.671.671,0,0,1-.724.528c-.57,0-.919-.519-.919-1.234s.349-1.234.919-1.234a.671.671,0,0,1,.724.527h.851a1.464,1.464,0,0,0-1.583-1.268A1.8,1.8,0,0,0,167.435,160.825Zm4.342.868a1.033,1.033,0,0,0,1.15,1.107,1.321,1.321,0,0,0,.638-.136v-.775a.911.911,0,0,1-.485.153.4.4,0,0,1-.451-.443v-1.957h.851v-.707h-.851v-1.013h-.852v1.013h-.595v.707h.595Zm3.508-2.758h-.852v3.78h.852Zm.1-1.141a.528.528,0,1,0-.527.519A.529.529,0,0,0,175.386,157.794Zm2.883,4.921,1.439-3.78h-.885l-.971,2.767-.979-2.767h-.911l1.431,3.78Zm4.366-1.175a.75.75,0,0,1-.809.544.971.971,0,0,1-.953-1.063h2.579v-.307c0-1.106-.579-1.864-1.643-1.864a1.831,1.831,0,0,0-1.771,1.983,1.8,1.8,0,0,0,1.788,1.967,1.479,1.479,0,0,0,1.592-1.26Zm-.818-1.975a.77.77,0,0,1,.792.834H180.9A.91.91,0,0,1,181.817,159.565Z" fill="#fff"/>
    <path id="Path_237" data-name="Path 237" d="M190.226,171.135H126.015a8.027,8.027,0,0,0,0,16.053h64.211a8.027,8.027,0,0,0,0-16.053Z" fill="#332"/>
    <path id="Path_238" data-name="Path 238" d="M131.2,176.946l-1,3.847-.945-3.847h-.869l1.345,5.227h.809l1-3.738.988,3.738h.817l1.345-5.227h-.851l-.945,3.847-.987-3.847Zm5.025,1.447h-.851v3.78h.851Zm.1-1.141a.528.528,0,1,0-.528.519A.529.529,0,0,0,136.325,177.252Zm1.146,3.9a1.032,1.032,0,0,0,1.149,1.107,1.315,1.315,0,0,0,.638-.136v-.775a.908.908,0,0,1-.485.153.4.4,0,0,1-.451-.443V179.1h.851v-.707h-.851V177.38h-.851v1.013h-.6v.707h.6Zm2.655,1.022h.851v-2.486a.8.8,0,0,1,.792-.6c.486,0,.715.306.715.774v2.316h.851v-2.461a1.27,1.27,0,0,0-1.336-1.4,1.373,1.373,0,0,0-1.022.442v-2.111h-.851Zm6.667,0h.851v-5.534h-.851v2.077a1.29,1.29,0,0,0-.962-.408,1.989,1.989,0,0,0,0,3.95,1.287,1.287,0,0,0,.962-.409Zm0-1.175a.918.918,0,0,1-.818.5,1.231,1.231,0,0,1,0-2.434.918.918,0,0,1,.818.5Zm4.015-2.622a1.053,1.053,0,0,0-.416-.068.951.951,0,0,0-.844.477v-.392H148.7v3.78h.851V179.73a.738.738,0,0,1,.758-.6.927.927,0,0,1,.5.128Zm3.569,3.8V179.7a1.339,1.339,0,0,0-1.515-1.387,1.431,1.431,0,0,0-1.481,1.132h.817a.613.613,0,0,1,.647-.408.651.651,0,0,1,.724.68v.307a1.776,1.776,0,0,0-.878-.23,1.322,1.322,0,0,0-1.472,1.217,1.278,1.278,0,0,0,1.413,1.235,1.521,1.521,0,0,0,.937-.281v.213Zm-.808-1.005a.825.825,0,0,1-.775.383c-.383,0-.784-.161-.784-.545s.4-.536.784-.536a.827.827,0,0,1,.775.383Zm4.46-2.775h-.775l-.664,2.681-.732-2.681h-.851l1.1,3.78h.851l.673-2.631.672,2.631h.851l1.1-3.78h-.826l-.733,2.681Zm5.636,3.456a1.286,1.286,0,0,0,.962.409,1.989,1.989,0,0,0,0-3.95,1.289,1.289,0,0,0-.962.408v-2.077h-.852v5.534h.852Zm0-2.281a.916.916,0,0,1,.817-.5,1.231,1.231,0,0,1,0,2.434.916.916,0,0,1-.817-.5Zm6.416,2.605V179.7a1.34,1.34,0,0,0-1.516-1.387,1.433,1.433,0,0,0-1.481,1.132h.817a.615.615,0,0,1,.647-.408.65.65,0,0,1,.724.68v.307a1.769,1.769,0,0,0-.877-.23,1.323,1.323,0,0,0-1.473,1.217,1.278,1.278,0,0,0,1.413,1.235,1.516,1.516,0,0,0,.937-.281v.213Zm-.809-1.005a.822.822,0,0,1-.774.383c-.384,0-.784-.161-.784-.545s.4-.536.784-.536a.824.824,0,0,1,.774.383Zm1.549-.885a1.8,1.8,0,0,0,1.762,1.975,1.465,1.465,0,0,0,1.584-1.269h-.852a.671.671,0,0,1-.723.528c-.571,0-.92-.519-.92-1.234s.349-1.234.92-1.234a.671.671,0,0,1,.723.527h.852a1.465,1.465,0,0,0-1.584-1.268A1.8,1.8,0,0,0,170.821,180.283Zm6.557,1.89h1.029l-1.668-2.145,1.609-1.635h-1.09l-1.481,1.549v-3.3h-.852v5.534h.852v-1.252l.349-.357Zm2.5-3.78h-.852v3.78h.852Zm.1-1.141a.528.528,0,1,0-.527.519A.528.528,0,0,0,179.977,177.252Zm.951,4.921h.851v-2.486a.8.8,0,0,1,.792-.6c.485,0,.715.306.715.774v2.316h.851v-2.461a1.27,1.27,0,0,0-1.336-1.4,1.371,1.371,0,0,0-1.022.442v-.357h-.851Zm6.666-.256c0,.707-.3,1.09-.927,1.09a.769.769,0,0,1-.852-.63h-.825a1.5,1.5,0,0,0,1.677,1.328,1.66,1.66,0,0,0,1.779-1.847v-3.465h-.852v.306a1.3,1.3,0,0,0-.962-.391,1.923,1.923,0,0,0,0,3.831,1.3,1.3,0,0,0,.962-.392Zm0-.978a.948.948,0,0,1-.817.451,1.176,1.176,0,0,1,0-2.333.948.948,0,0,1,.817.451Z" fill="#fff"/>
    <path id="Path_239" data-name="Path 239" d="M190.226,190.593H126.015a8.026,8.026,0,0,0,0,16.053h64.211a8.026,8.026,0,0,0,0-16.053Z" fill="#332"/>
    <path id="Path_240" data-name="Path 240" d="M131.022,196.4l-1,3.848-.945-3.848h-.869l1.346,5.227h.808l1.005-3.737.987,3.737h.817l1.346-5.227h-.852l-.945,3.848-.987-3.848Zm5.025,1.447H135.2v3.78h.851Zm.1-1.14a.528.528,0,1,0-.528.519A.529.529,0,0,0,136.15,196.71Zm1.146,3.9a1.032,1.032,0,0,0,1.149,1.107,1.314,1.314,0,0,0,.638-.137V200.8a.92.92,0,0,1-.485.153.4.4,0,0,1-.451-.443v-1.958H139v-.707h-.851v-1.013H137.3v1.013h-.6v.707h.6Zm2.656,1.021h.851v-2.485a.8.8,0,0,1,.792-.605c.485,0,.715.307.715.775v2.315h.851v-2.46a1.271,1.271,0,0,0-1.337-1.4,1.369,1.369,0,0,0-1.021.443V196.1h-.851Zm6.666,0h.851V196.1h-.851v2.077a1.289,1.289,0,0,0-.962-.409,1.989,1.989,0,0,0,0,3.951,1.289,1.289,0,0,0,.962-.409Zm0-1.175a.916.916,0,0,1-.817.5,1.231,1.231,0,0,1,0-2.435.917.917,0,0,1,.817.5Zm4.016-2.622a1.063,1.063,0,0,0-.417-.068.948.948,0,0,0-.843.477v-.392h-.851v3.78h.851v-2.443a.736.736,0,0,1,.757-.6.942.942,0,0,1,.5.127Zm3.568,3.8v-2.477a1.339,1.339,0,0,0-1.515-1.388,1.431,1.431,0,0,0-1.481,1.133h.817a.615.615,0,0,1,.647-.409.651.651,0,0,1,.723.681v.306a1.78,1.78,0,0,0-.877-.229,1.323,1.323,0,0,0-1.472,1.217,1.278,1.278,0,0,0,1.413,1.235,1.512,1.512,0,0,0,.936-.282v.213Zm-.809-1a.824.824,0,0,1-.774.383c-.383,0-.784-.162-.784-.545s.4-.537.784-.537a.824.824,0,0,1,.774.384Zm4.461-2.776h-.775l-.664,2.682-.732-2.682h-.851l1.1,3.78h.851l.673-2.63.672,2.63h.851l1.1-3.78h-.826l-.732,2.682Zm5.636,0h-.852v3.78h.852Zm.1-1.14a.528.528,0,1,0-.528.519A.529.529,0,0,0,163.592,196.71Zm.95,4.92h.851v-2.485a.8.8,0,0,1,.792-.605c.485,0,.715.307.715.775v2.315h.852v-2.46a1.271,1.271,0,0,0-1.337-1.4,1.372,1.372,0,0,0-1.022.443v-.358h-.851Zm4.411-1.021a1.032,1.032,0,0,0,1.149,1.107,1.321,1.321,0,0,0,.639-.137V200.8a.926.926,0,0,1-.486.153.4.4,0,0,1-.451-.443v-1.958h.851v-.707H169.8v-1.013h-.851v1.013h-.6v.707h.6Zm4.947-.154a.751.751,0,0,1-.81.546.973.973,0,0,1-.953-1.065h2.58v-.306c0-1.107-.579-1.865-1.643-1.865a1.832,1.832,0,0,0-1.771,1.984,1.8,1.8,0,0,0,1.787,1.967,1.479,1.479,0,0,0,1.593-1.261Zm-.818-1.975a.772.772,0,0,1,.792.835h-1.711A.911.911,0,0,1,173.082,198.48Zm4.528-.647a1.056,1.056,0,0,0-.417-.068.95.95,0,0,0-.843.477v-.392H175.5v3.78h.851v-2.443a.737.737,0,0,1,.758-.6.936.936,0,0,1,.5.127Zm2.99,2.622a.75.75,0,0,1-.809.546.972.972,0,0,1-.953-1.065h2.579v-.306c0-1.107-.579-1.865-1.643-1.865a1.831,1.831,0,0,0-1.77,1.984,1.8,1.8,0,0,0,1.787,1.967,1.478,1.478,0,0,0,1.592-1.261Zm-.817-1.975a.772.772,0,0,1,.792.835h-1.712A.911.911,0,0,1,179.783,198.48Zm2.153,2.061a1.453,1.453,0,0,0,1.609,1.175c.851,0,1.472-.46,1.472-1.209a1.068,1.068,0,0,0-.97-1.073l-.8-.187c-.273-.069-.392-.179-.392-.349,0-.3.306-.435.6-.435a.642.642,0,0,1,.69.418h.834a1.358,1.358,0,0,0-1.515-1.116,1.284,1.284,0,0,0-1.43,1.184,1.03,1.03,0,0,0,.936,1.038l.784.187c.314.077.442.188.442.392,0,.3-.255.451-.647.451a.708.708,0,0,1-.749-.476Zm4.109.068a1.032,1.032,0,0,0,1.149,1.107,1.321,1.321,0,0,0,.639-.137V200.8a.926.926,0,0,1-.486.153.4.4,0,0,1-.451-.443v-1.958h.851v-.707H186.9v-1.013h-.851v1.013h-.6v.707h.6Z" fill="#fff"/>
    <g id="Group_34" data-name="Group 34" opacity="0.4">
      <path id="Path_241" data-name="Path 241" d="M119.282,108.356h-.672v5.227h.672Zm5.562,5.227h.647V108.05h-.647v2.2a1.331,1.331,0,0,0-1.064-.519,1.987,1.987,0,0,0,0,3.933,1.331,1.331,0,0,0,1.064-.519Zm0-1.123a1.089,1.089,0,0,1-.971.621c-.723,0-1.149-.587-1.149-1.388s.426-1.387,1.149-1.387a1.089,1.089,0,0,1,.971.621Zm4.98-.767a1.75,1.75,0,1,0-1.737,1.967A1.777,1.777,0,0,0,129.824,111.693Zm-.648,0c0,.826-.408,1.4-1.089,1.4s-1.09-.579-1.09-1.4.409-1.4,1.09-1.4S129.176,110.868,129.176,111.693Zm1.512,1.89h.639v-2.562a1.025,1.025,0,0,1,.962-.707.786.786,0,0,1,.833.894v2.375h.648v-2.477a1.249,1.249,0,0,0-1.329-1.379,1.409,1.409,0,0,0-1.114.553V109.8h-.639Zm3.69-3.55h.434l.434-.723a1.1,1.1,0,0,0,.187-.536.456.456,0,1,0-.91-.043.418.418,0,0,0,.374.426Zm2.034,2.6a.942.942,0,0,0,1.038,1.03,1.339,1.339,0,0,0,.6-.128v-.6a.942.942,0,0,1-.493.153c-.324,0-.5-.161-.5-.527v-2.213h.911V109.8h-.911v-1h-.638v1H135.8v.546h.613Zm6.887.953h.783l-1.762-2.145,1.7-1.635h-.843l-1.728,1.678V108.05h-.638v5.533h.638V112.23l.409-.392Zm1.463,0h.639v-2.562a1.026,1.026,0,0,1,.962-.707.787.787,0,0,1,.834.894v2.375h.647v-2.477a1.248,1.248,0,0,0-1.328-1.379,1.411,1.411,0,0,0-1.115.553V109.8h-.639Zm7.366-1.89a1.75,1.75,0,1,0-1.737,1.967A1.777,1.777,0,0,0,152.128,111.693Zm-.647,0c0,.826-.408,1.4-1.09,1.4s-1.089-.579-1.089-1.4.408-1.4,1.089-1.4S151.481,110.868,151.481,111.693Zm3.912-1.89h-.57l-.775,2.887-.834-2.887h-.638l1.114,3.78h.622l.792-2.869.783,2.869h.621l1.115-3.78H157l-.834,2.887Zm7.233,0h-.57l-.775,2.887-.834-2.887h-.639l1.115,3.78h.622l.791-2.869.783,2.869h.622l1.115-3.78h-.621l-.835,2.887Zm2.953,3.78h.638v-2.562a1.027,1.027,0,0,1,.962-.707.787.787,0,0,1,.834.894v2.375h.648v-2.477a1.249,1.249,0,0,0-1.329-1.379,1.413,1.413,0,0,0-1.115.553v-2.23h-.638Zm6.906,0v-2.519a1.282,1.282,0,0,0-1.439-1.337,1.369,1.369,0,0,0-1.413,1.073h.63a.734.734,0,0,1,.775-.52.762.762,0,0,1,.834.809v.477a1.618,1.618,0,0,0-.953-.307,1.3,1.3,0,0,0-1.448,1.184,1.272,1.272,0,0,0,1.405,1.209,1.512,1.512,0,0,0,1-.35v.281Zm-.613-.936a.946.946,0,0,1-.885.468c-.46,0-.9-.213-.9-.672s.443-.656.9-.656a.945.945,0,0,1,.885.469Zm1.858-.017a.943.943,0,0,0,1.039,1.03,1.342,1.342,0,0,0,.6-.128v-.6a.946.946,0,0,1-.494.153c-.324,0-.5-.161-.5-.527v-2.213h.911V109.8h-.911v-1h-.638v1h-.613v.546h.613Zm4.581,0a.942.942,0,0,0,1.038,1.03,1.339,1.339,0,0,0,.6-.128v-.6a.942.942,0,0,1-.493.153c-.324,0-.5-.161-.5-.527v-2.213h.911V109.8h-.911v-1h-.638v1H177.7v.546h.613Zm2.523.953h.638v-2.562a1.027,1.027,0,0,1,.962-.707.787.787,0,0,1,.835.894v2.375h.647v-2.477a1.249,1.249,0,0,0-1.329-1.379,1.411,1.411,0,0,0-1.115.553v-2.23h-.638Zm6.548-1.132a.87.87,0,0,1-.919.664c-.638,0-1.09-.494-1.1-1.3h2.673v-.23c0-1.1-.553-1.856-1.592-1.856a1.786,1.786,0,0,0-1.72,1.975,1.765,1.765,0,0,0,1.737,1.958,1.443,1.443,0,0,0,1.524-1.209Zm-.928-2.179a.95.95,0,0,1,.937,1.056h-2.009A1.082,1.082,0,0,1,186.454,110.272Zm4.952,2.869a1.347,1.347,0,0,0,1.065.519,1.987,1.987,0,0,0,0-3.933,1.347,1.347,0,0,0-1.065.519V109.8h-.638v5.227h.638Zm0-2.214a1.09,1.09,0,0,1,.971-.621c.724,0,1.149.587,1.149,1.387s-.425,1.388-1.149,1.388a1.09,1.09,0,0,1-.971-.621Zm6.853.766a1.75,1.75,0,1,0-1.737,1.967A1.777,1.777,0,0,0,198.259,111.693Zm-.647,0c0,.826-.409,1.4-1.09,1.4s-1.089-.579-1.089-1.4.408-1.4,1.089-1.4S197.612,110.868,197.612,111.693Zm2.149-3.643h-.638v5.533h.638Zm1.78,1.753H200.9v3.78h.639Zm.093-1.14a.413.413,0,1,0-.417.408A.416.416,0,0,0,201.634,108.663Zm.774,3.03a1.766,1.766,0,0,0,1.72,1.967,1.428,1.428,0,0,0,1.516-1.217h-.656a.815.815,0,0,1-.86.655c-.646,0-1.072-.579-1.072-1.4s.426-1.4,1.072-1.4a.815.815,0,0,1,.86.655h.656a1.428,1.428,0,0,0-1.516-1.217A1.765,1.765,0,0,0,202.408,111.693Zm4.711-1.89h-.639v3.78h.639Zm.094-1.14a.413.413,0,1,0-.418.408A.416.416,0,0,0,207.213,108.663Zm3.43,3.788a.87.87,0,0,1-.919.664c-.639,0-1.09-.494-1.1-1.3H211.3v-.23c0-1.1-.553-1.856-1.592-1.856a1.786,1.786,0,0,0-1.719,1.975,1.765,1.765,0,0,0,1.737,1.958,1.441,1.441,0,0,0,1.523-1.209Zm-.928-2.179a.948.948,0,0,1,.936,1.056h-2.008A1.082,1.082,0,0,1,209.715,110.272Zm2.137,2.273a1.419,1.419,0,0,0,1.549,1.115c.809,0,1.4-.426,1.4-1.141,0-.527-.315-.885-.962-1.056l-.732-.178c-.358-.1-.528-.221-.528-.477,0-.366.349-.545.723-.545a.776.776,0,0,1,.835.537h.638a1.332,1.332,0,0,0-1.464-1.073,1.2,1.2,0,0,0-1.354,1.115c0,.587.375.86.911,1l.749.2c.392.1.562.264.562.528,0,.383-.323.562-.774.562a.845.845,0,0,1-.9-.579Zm8.459,1.038v-2.519a1.282,1.282,0,0,0-1.439-1.337,1.369,1.369,0,0,0-1.413,1.073h.631a.732.732,0,0,1,.774-.52.763.763,0,0,1,.835.809v.477a1.621,1.621,0,0,0-.954-.307,1.3,1.3,0,0,0-1.447,1.184,1.272,1.272,0,0,0,1.4,1.209,1.512,1.512,0,0,0,1-.35v.281Zm-.612-.936a.947.947,0,0,1-.886.468c-.46,0-.9-.213-.9-.672s.442-.656.9-.656a.946.946,0,0,1,.886.469Zm3.645-2.861a.933.933,0,0,0-.367-.059,1.056,1.056,0,0,0-.936.57V109.8H221.4v3.78h.638v-2.536a.916.916,0,0,1,.877-.707.812.812,0,0,1,.426.1Zm3.069,2.665a.87.87,0,0,1-.919.664c-.639,0-1.09-.494-1.1-1.3h2.673v-.23c0-1.1-.554-1.856-1.592-1.856a1.786,1.786,0,0,0-1.72,1.975,1.765,1.765,0,0,0,1.737,1.958,1.442,1.442,0,0,0,1.524-1.209Zm-.927-2.179a.95.95,0,0,1,.936,1.056h-2.009A1.083,1.083,0,0,1,225.486,110.272Zm6.2-2.213a1.214,1.214,0,0,0-.494-.086,1.111,1.111,0,0,0-1.157,1.2v.629H229.4v.546h.639v3.234h.629v-3.234h.852V109.8h-.852v-.578a.6.6,0,0,1,.622-.69.744.744,0,0,1,.4.1Zm2.512,1.727a.928.928,0,0,0-.366-.059,1.057,1.057,0,0,0-.937.57V109.8h-.638v3.78h.638v-2.536a.916.916,0,0,1,.877-.707.809.809,0,0,1,.426.1Zm3.887,1.907a1.75,1.75,0,1,0-1.737,1.967A1.777,1.777,0,0,0,238.088,111.693Zm-.647,0c0,.826-.409,1.4-1.09,1.4s-1.09-.579-1.09-1.4.409-1.4,1.09-1.4S237.441,110.868,237.441,111.693Zm4.193-1.362a1.108,1.108,0,0,0-1.022-.6,1.181,1.181,0,0,0-1.021.519V109.8h-.639v3.78h.639v-2.605a.881.881,0,0,1,.834-.672c.485,0,.715.349.715.877v2.4h.638v-2.605a.882.882,0,0,1,.835-.672c.485,0,.715.349.715.877v2.4h.647v-2.5c0-.818-.426-1.354-1.192-1.354A1.367,1.367,0,0,0,241.634,110.331Zm7.7-.528h-.57l-.775,2.887-.834-2.887h-.639l1.116,3.78h.621l.792-2.869.783,2.869h.622l1.115-3.78h-.622l-.834,2.887Zm3.592,0h-.638v3.78h.638Zm.094-1.14a.413.413,0,1,0-.418.408A.416.416,0,0,0,253.019,108.663Zm1.225,3.967a.943.943,0,0,0,1.039,1.03,1.339,1.339,0,0,0,.6-.128v-.6a.943.943,0,0,1-.494.153c-.323,0-.5-.161-.5-.527v-2.213h.911V109.8h-.911v-1h-.639v1h-.612v.546h.612Zm2.524.953h.638v-2.562a1.026,1.026,0,0,1,.962-.707.787.787,0,0,1,.834.894v2.375h.647v-2.477a1.248,1.248,0,0,0-1.328-1.379,1.411,1.411,0,0,0-1.115.553v-2.23h-.638Zm6.658,0h.648V108.05h-.648v2.2a1.329,1.329,0,0,0-1.063-.519,1.987,1.987,0,0,0,0,3.933,1.329,1.329,0,0,0,1.063-.519Zm0-1.123a1.086,1.086,0,0,1-.97.621c-.723,0-1.149-.587-1.149-1.388s.426-1.387,1.149-1.387a1.086,1.086,0,0,1,.97.621Zm3.72-2.674a.924.924,0,0,0-.366-.059,1.056,1.056,0,0,0-.936.57V109.8H265.2v3.78h.639v-2.536a.916.916,0,0,1,.877-.707.808.808,0,0,1,.425.1Zm3.436,3.8v-2.519a1.282,1.282,0,0,0-1.439-1.337,1.369,1.369,0,0,0-1.413,1.073h.63a.734.734,0,0,1,.775-.52.762.762,0,0,1,.834.809v.477a1.619,1.619,0,0,0-.954-.307,1.3,1.3,0,0,0-1.447,1.184,1.272,1.272,0,0,0,1.4,1.209,1.512,1.512,0,0,0,1-.35v.281Zm-.613-.936a.947.947,0,0,1-.886.468c-.459,0-.9-.213-.9-.672s.443-.656.9-.656a.946.946,0,0,1,.886.469Zm4.105-2.844h-.57l-.775,2.887-.834-2.887h-.639l1.115,3.78h.622l.792-2.869.782,2.869h.622l1.115-3.78h-.621l-.835,2.887Zm3.591,0h-.638v3.78h.638Zm.094-1.14a.413.413,0,1,0-.417.408A.416.416,0,0,0,277.759,108.663Zm1.047,4.92h.639v-2.562a1.026,1.026,0,0,1,.961-.707.787.787,0,0,1,.835.894v2.375h.646v-2.477a1.248,1.248,0,0,0-1.327-1.379,1.411,1.411,0,0,0-1.115.553V109.8h-.639Zm6.642-.255c0,.817-.357,1.243-1.038,1.243a.9.9,0,0,1-.988-.707h-.63a1.469,1.469,0,0,0,1.618,1.252,1.613,1.613,0,0,0,1.685-1.831V109.8h-.647v.426a1.325,1.325,0,0,0-1.055-.5,1.93,1.93,0,0,0,0,3.831,1.331,1.331,0,0,0,1.055-.511Zm0-.937a1.094,1.094,0,0,1-.962.588c-.715,0-1.132-.562-1.132-1.337s.417-1.345,1.132-1.345a1.094,1.094,0,0,1,.962.588ZM291,108.059a1.209,1.209,0,0,0-.493-.086,1.111,1.111,0,0,0-1.158,1.2v.629h-.638v.546h.638v3.234h.63v-3.234h.851V109.8h-.851v-.578c0-.451.246-.69.621-.69a.744.744,0,0,1,.4.1Zm2.512,1.727a.924.924,0,0,0-.366-.059,1.056,1.056,0,0,0-.936.57V109.8h-.639v3.78h.639v-2.536a.915.915,0,0,1,.877-.707.808.808,0,0,1,.425.1Zm3.887,1.907a1.75,1.75,0,1,0-1.737,1.967A1.777,1.777,0,0,0,297.4,111.693Zm-.647,0c0,.826-.409,1.4-1.09,1.4s-1.089-.579-1.089-1.4.409-1.4,1.089-1.4S296.756,110.868,296.756,111.693Zm4.193-1.362a1.107,1.107,0,0,0-1.021-.6,1.181,1.181,0,0,0-1.022.519V109.8h-.638v3.78h.638v-2.605a.881.881,0,0,1,.834-.672c.485,0,.715.349.715.877v2.4h.639v-2.605a.881.881,0,0,1,.834-.672c.485,0,.715.349.715.877v2.4h.647v-2.5c0-.818-.426-1.354-1.192-1.354A1.368,1.368,0,0,0,300.949,110.331ZM118.738,122.918a.942.942,0,0,0,1.038,1.03,1.339,1.339,0,0,0,.6-.128v-.6a.934.934,0,0,1-.494.153c-.323,0-.5-.161-.5-.527v-2.213h.911v-.546h-.911v-1h-.638v1h-.613v.546h.613Zm2.523.953h.638v-2.562a1.027,1.027,0,0,1,.962-.707.788.788,0,0,1,.835.894v2.375h.646v-2.477a1.248,1.248,0,0,0-1.328-1.379,1.411,1.411,0,0,0-1.115.553v-2.23h-.638Zm4.8-3.78h-.639v3.78h.639Zm.094-1.14a.413.413,0,1,0-.417.408A.416.416,0,0,0,126.158,118.951Zm.732,3.882a1.419,1.419,0,0,0,1.549,1.115c.809,0,1.4-.425,1.4-1.14,0-.528-.315-.886-.962-1.057l-.732-.178c-.358-.1-.528-.221-.528-.477,0-.366.349-.545.723-.545a.776.776,0,0,1,.835.537h.638a1.332,1.332,0,0,0-1.464-1.073A1.2,1.2,0,0,0,127,121.13c0,.587.374.86.91,1l.75.2c.391.1.561.264.561.528,0,.383-.323.562-.774.562a.843.843,0,0,1-.894-.579Zm6.357.6a1.344,1.344,0,0,0,1.064.519,1.987,1.987,0,0,0,0-3.933,1.344,1.344,0,0,0-1.064.519v-.443h-.638v5.227h.638Zm0-2.214a1.087,1.087,0,0,1,.97-.621c.724,0,1.149.587,1.149,1.387s-.425,1.388-1.149,1.388a1.087,1.087,0,0,1-.97-.621Zm6.852.766a1.75,1.75,0,1,0-1.737,1.967A1.777,1.777,0,0,0,140.1,121.981Zm-.647,0c0,.827-.409,1.4-1.09,1.4s-1.089-.578-1.089-1.4.408-1.4,1.089-1.4S139.452,121.156,139.452,121.981Zm4.729,0a1.75,1.75,0,1,0-1.737,1.967A1.777,1.777,0,0,0,144.181,121.981Zm-.648,0c0,.827-.408,1.4-1.089,1.4s-1.09-.578-1.09-1.4.409-1.4,1.09-1.4S143.533,121.156,143.533,121.981Zm2.151-3.643h-.639v5.533h.639Zm3.658,5.091a1.329,1.329,0,0,0,1.063.519,1.987,1.987,0,0,0,0-3.933,1.329,1.329,0,0,0-1.063.519v-2.2h-.648v5.533h.648Zm0-2.214a1.087,1.087,0,0,1,.97-.621c.724,0,1.149.587,1.149,1.387s-.425,1.388-1.149,1.388a1.087,1.087,0,0,1-.97-.621Zm6.647-1.124h-.646v2.563a1,1,0,0,1-.945.706.78.78,0,0,1-.826-.893v-2.376h-.647v2.478a1.242,1.242,0,0,0,1.319,1.379,1.364,1.364,0,0,0,1.1-.554v.477h.646Zm1.314,2.827a.942.942,0,0,0,1.039,1.03,1.331,1.331,0,0,0,.6-.128v-.6a.931.931,0,0,1-.493.153c-.324,0-.5-.161-.5-.527v-2.213h.911v-.546h-.911v-1H157.3v1h-.613v.546h.613Zm5.04-2.827h-.638v3.78h.638Zm.094-1.14a.413.413,0,1,0-.417.408A.416.416,0,0,0,162.437,118.951Zm1.226,3.967a.943.943,0,0,0,1.038,1.03,1.339,1.339,0,0,0,.6-.128v-.6a.933.933,0,0,1-.493.153c-.324,0-.5-.161-.5-.527v-2.213h.911v-.546H164.3v-1h-.638v1h-.613v.546h.613Zm6.291-4.571a1.211,1.211,0,0,0-.494-.086,1.111,1.111,0,0,0-1.157,1.2v.629h-.638v.546h.638v3.234h.63v-3.234h.851v-.546h-.851v-.578a.6.6,0,0,1,.622-.69.743.743,0,0,1,.4.1Zm3.229,5.524v-2.519a1.282,1.282,0,0,0-1.439-1.337,1.369,1.369,0,0,0-1.413,1.073h.63a.734.734,0,0,1,.775-.52.763.763,0,0,1,.835.809v.477a1.621,1.621,0,0,0-.954-.307,1.3,1.3,0,0,0-1.447,1.184,1.272,1.272,0,0,0,1.4,1.209,1.514,1.514,0,0,0,1-.35v.281Zm-.612-.936a.947.947,0,0,1-.886.468c-.46,0-.9-.213-.9-.672s.443-.656.9-.656a.946.946,0,0,1,.886.469Zm3.645-2.861a.949.949,0,0,0-.367-.059,1.056,1.056,0,0,0-.936.57v-.494h-.638v3.78h.638v-2.536a.916.916,0,0,1,.877-.707.812.812,0,0,1,.426.1Zm3.475.545a1.106,1.106,0,0,0-1.021-.6,1.185,1.185,0,0,0-1.022.519v-.443h-.638v3.78h.638v-2.605a.882.882,0,0,1,.835-.672c.485,0,.715.349.715.877v2.4h.638v-2.605a.881.881,0,0,1,.834-.672c.485,0,.715.349.715.877v2.4h.647v-2.5c0-.818-.425-1.354-1.191-1.354A1.37,1.37,0,0,0,179.691,120.619Zm3.106,2.214a1.419,1.419,0,0,0,1.549,1.115c.809,0,1.405-.425,1.405-1.14,0-.528-.315-.886-.962-1.057l-.732-.178c-.358-.1-.528-.221-.528-.477,0-.366.349-.545.724-.545a.774.774,0,0,1,.833.537h.639a1.332,1.332,0,0,0-1.464-1.073,1.2,1.2,0,0,0-1.354,1.115c0,.587.375.86.911,1l.749.2c.392.1.562.264.562.528,0,.383-.323.562-.775.562a.845.845,0,0,1-.894-.579Zm5.4,0a1.42,1.42,0,0,0,1.55,1.115c.808,0,1.4-.425,1.4-1.14,0-.528-.315-.886-.962-1.057l-.732-.178c-.357-.1-.527-.221-.527-.477,0-.366.348-.545.723-.545a.774.774,0,0,1,.834.537h.639a1.332,1.332,0,0,0-1.464-1.073,1.2,1.2,0,0,0-1.354,1.115c0,.587.375.86.911,1l.749.2c.392.1.562.264.562.528,0,.383-.324.562-.775.562a.844.844,0,0,1-.894-.579Zm7.041-.852a1.75,1.75,0,1,0-1.737,1.967A1.777,1.777,0,0,0,195.241,121.981Zm-.647,0c0,.827-.409,1.4-1.09,1.4s-1.089-.578-1.089-1.4.408-1.4,1.089-1.4S194.594,121.156,194.594,121.981Zm4.193-1.362a1.108,1.108,0,0,0-1.022-.6,1.183,1.183,0,0,0-1.021.519v-.443H196.1v3.78h.639v-2.605a.881.881,0,0,1,.834-.672c.485,0,.715.349.715.877v2.4h.639v-2.605a.881.881,0,0,1,.834-.672c.485,0,.715.349.715.877v2.4h.647v-2.5c0-.818-.426-1.354-1.192-1.354A1.367,1.367,0,0,0,198.787,120.619Zm5.8,2.12a.871.871,0,0,1-.92.664c-.638,0-1.089-.494-1.1-1.3h2.673v-.23c0-1.1-.553-1.856-1.592-1.856a1.786,1.786,0,0,0-1.719,1.975,1.765,1.765,0,0,0,1.736,1.958,1.443,1.443,0,0,0,1.525-1.209Zm-.928-2.179a.948.948,0,0,1,.936,1.056h-2.008A1.083,1.083,0,0,1,203.663,120.56Zm2.614,2.358a.942.942,0,0,0,1.038,1.03,1.339,1.339,0,0,0,.6-.128v-.6a.934.934,0,0,1-.494.153c-.323,0-.5-.161-.5-.527v-2.213h.911v-.546h-.911v-1h-.638v1h-.613v.546h.613Zm2.523.953h.638v-2.562a1.027,1.027,0,0,1,.962-.707.788.788,0,0,1,.835.894v2.375h.646v-2.477a1.248,1.248,0,0,0-1.327-1.379,1.413,1.413,0,0,0-1.116.553v-2.23H208.8Zm4.8-3.78h-.638v3.78h.638Zm.094-1.14a.413.413,0,1,0-.417.408A.416.416,0,0,0,213.7,118.951Zm1.047,4.92h.638v-2.562a1.027,1.027,0,0,1,.962-.707.788.788,0,0,1,.835.894v2.375h.646v-2.477a1.248,1.248,0,0,0-1.328-1.379,1.411,1.411,0,0,0-1.115.553v-.477h-.638Zm6.642-.255c0,.817-.358,1.243-1.039,1.243a.9.9,0,0,1-.987-.707h-.63a1.468,1.468,0,0,0,1.617,1.252,1.614,1.614,0,0,0,1.686-1.831v-3.482h-.647v.426a1.327,1.327,0,0,0-1.056-.5,1.93,1.93,0,0,0,0,3.831,1.333,1.333,0,0,0,1.056-.511Zm0-.937a1.1,1.1,0,0,1-.962.588c-.715,0-1.132-.562-1.132-1.337s.417-1.345,1.132-1.345a1.1,1.1,0,0,1,.962.588Zm1.49.775a.456.456,0,1,0,.911,0,.456.456,0,1,0-.911,0Zm6.364-2.289a1.123,1.123,0,0,0,.766-1.133c0-.9-.647-1.388-1.728-1.388h-1.72v5.227h1.89c1.073,0,1.737-.519,1.737-1.472A1.26,1.26,0,0,0,229.24,121.165Zm-2.026-.247v-1.686h1.064c.7,0,1.081.264,1.081.834s-.383.852-1.081.852Zm0,.561h1.234c.706,0,1.081.349,1.081.9s-.375.9-1.081.9h-1.234Zm6.282,1.26a.87.87,0,0,1-.919.664c-.639,0-1.09-.494-1.1-1.3h2.674v-.23c0-1.1-.554-1.856-1.592-1.856a1.786,1.786,0,0,0-1.72,1.975,1.765,1.765,0,0,0,1.737,1.958,1.442,1.442,0,0,0,1.524-1.209Zm-.928-2.179a.95.95,0,0,1,.937,1.056H231.5A1.084,1.084,0,0,1,232.568,120.56ZM235,123.871h.639v-2.562a1.026,1.026,0,0,1,.961-.707.788.788,0,0,1,.835.894v2.375h.647v-2.477a1.248,1.248,0,0,0-1.328-1.379,1.411,1.411,0,0,0-1.115.553v-.477H235Zm6.549-1.132a.87.87,0,0,1-.92.664c-.638,0-1.089-.494-1.1-1.3h2.672v-.23c0-1.1-.553-1.856-1.592-1.856a1.786,1.786,0,0,0-1.719,1.975,1.765,1.765,0,0,0,1.736,1.958,1.442,1.442,0,0,0,1.524-1.209Zm-.928-2.179a.948.948,0,0,1,.936,1.056h-2.009A1.085,1.085,0,0,1,240.624,120.56Zm4.325-2.213a1.218,1.218,0,0,0-.494-.086,1.111,1.111,0,0,0-1.158,1.2v.629h-.639v.546h.639v3.234h.63v-3.234h.851v-.546h-.851v-.578a.6.6,0,0,1,.621-.69.748.748,0,0,1,.4.1Zm1.209,1.744h-.638v3.78h.638Zm.094-1.14a.413.413,0,1,0-.418.408A.416.416,0,0,0,246.252,118.951Zm.774,3.03a1.766,1.766,0,0,0,1.72,1.967,1.427,1.427,0,0,0,1.515-1.217H249.6a.813.813,0,0,1-.859.655c-.647,0-1.073-.578-1.073-1.4s.426-1.4,1.073-1.4a.813.813,0,0,1,.859.655h.656a1.427,1.427,0,0,0-1.515-1.217A1.765,1.765,0,0,0,247.026,121.981Zm4.71-1.89H251.1v3.78h.638Zm.094-1.14a.413.413,0,1,0-.417.408A.416.416,0,0,0,251.83,118.951Zm3.788,4.92v-2.519a1.282,1.282,0,0,0-1.439-1.337,1.369,1.369,0,0,0-1.413,1.073h.63a.734.734,0,0,1,.775-.52.762.762,0,0,1,.834.809v.477a1.619,1.619,0,0,0-.954-.307,1.3,1.3,0,0,0-1.447,1.184,1.272,1.272,0,0,0,1.4,1.209,1.512,1.512,0,0,0,1-.35v.281Zm-.613-.936a.945.945,0,0,1-.885.468c-.46,0-.9-.213-.9-.672s.443-.656.9-.656a.944.944,0,0,1,.885.469Zm3.645-2.861a.943.943,0,0,0-.366-.059,1.054,1.054,0,0,0-.936.57v-.494h-.639v3.78h.639v-2.536a.915.915,0,0,1,.876-.707.809.809,0,0,1,.426.1Zm1.91,5.244,2.034-5.227h-.664l-1.1,2.98-1.115-2.98h-.69L260.5,123.9l-.57,1.421Zm2.461-1.864a.455.455,0,1,0,.91,0,.455.455,0,1,0-.91,0Zm0-2.673a.455.455,0,1,0,.91,0,.455.455,0,1,0-.91,0Zm4.355,2.486v-4.026h.995a2.018,2.018,0,0,1,0,4.026Zm-.673.6h1.677a2.615,2.615,0,0,0,0-5.227H266.7Zm5.742-3.78h-.639v3.78h.639Zm.093-1.14a.413.413,0,0,0-.826,0,.413.413,0,0,0,.826,0Zm1.686-.613h-.639v5.533h.639Zm1.779,0h-.639v5.533H276Zm4.341,3.643a1.75,1.75,0,1,0-1.736,1.967A1.777,1.777,0,0,0,280.344,121.981Zm-.647,0c0,.827-.408,1.4-1.089,1.4s-1.09-.578-1.09-1.4.408-1.4,1.09-1.4S279.7,121.156,279.7,121.981Zm1.511,1.89h.639v-2.562a1.026,1.026,0,0,1,.962-.707.787.787,0,0,1,.834.894v2.375h.647v-2.477a1.248,1.248,0,0,0-1.328-1.379,1.411,1.411,0,0,0-1.115.553v-.477h-.639Zm7.764.077c1.166,0,1.949-1.1,1.949-2.69s-.783-2.69-1.949-2.69-1.949,1.1-1.949,2.69S287.806,123.948,288.972,123.948Zm0-4.776c.843,0,1.294.869,1.294,2.086s-.451,2.086-1.294,2.086-1.294-.869-1.294-2.086S288.12,119.172,288.972,119.172Zm5.883.919h-.7l-.979,1.354-.954-1.354h-.732l1.32,1.848-1.4,1.932h.69l1.055-1.472,1.047,1.472h.724l-1.4-1.958Zm3.109-1.447h-.681l-2.009,3.567v.477h2.409v1.183h.622v-1.183h.919v-.562H298.3v-1.26h-.622v1.26h-1.669Zm3.53,2.418a1.154,1.154,0,1,1-1.132,1.32h-.656a1.693,1.693,0,0,0,1.8,1.566,1.66,1.66,0,0,0,1.694-1.728,1.631,1.631,0,0,0-1.643-1.737,1.474,1.474,0,0,0-.953.332v-1.574h2.3v-.6h-2.86v2.869h.528A1.194,1.194,0,0,1,301.494,121.062Z" fill="#111" opacity="0.4"/>
      <path id="Path_242" data-name="Path 242" d="M266.082,124.467h37.387v.255H266.082Z" fill="#111" opacity="0.4"/>
    </g>
    <path id="Path_243" data-name="Path 243" d="M65.329,101.288H50.412a7.2,7.2,0,1,0,0,14.4H65.329a7.2,7.2,0,1,0,0-14.4Z" fill="#4c4b51"/>
    <path id="Path_244" data-name="Path 244" d="M53.951,109.177a1.59,1.59,0,1,0,0-3.169H52v5.054h.856v-1.885Zm.881-1.58a.8.8,0,0,1-.9.839H52.856v-1.687h1.078A.8.8,0,0,1,54.831,107.6Zm4.662,1.638a1.744,1.744,0,1,0-1.737,1.909A1.749,1.749,0,0,0,59.493,109.235Zm-.823,0c0,.691-.321,1.2-.914,1.2s-.914-.51-.914-1.2.321-1.2.914-1.2S58.67,108.543,58.67,109.235Zm2.415-3.523h-.823v5.35h.823Zm1.84,0H62.1v5.35h.823Z" fill="#fff"/>
  </g>
</svg>
