<svg xmlns="http://www.w3.org/2000/svg" width="435.945" height="274.238" viewBox="0 0 435.945 274.238">
  <g id="Group_47" data-name="Group 47" transform="translate(-0.261 -0.94)">
    <rect id="Rectangle_114" data-name="Rectangle 114" width="435" height="273.293" rx="20" transform="translate(0.733 1.414)" fill="#fff" stroke="#e7e7e7" stroke-linecap="square" stroke-width="0.946"/>
    <path id="Path_303" data-name="Path 303" d="M35.712,39.414,40.081,27.8h-2.5l-3.007,8.4L31.57,27.8H29.017l4.35,11.613Zm8.005-8.454H41.372v8.454h2.345Zm.208-2.44a1.391,1.391,0,1,0-1.381,1.343A1.356,1.356,0,0,0,43.925,28.52Zm2.353,8.341a2.476,2.476,0,0,0,2.8,2.724,3.559,3.559,0,0,0,1.513-.265v-2.08a2.012,2.012,0,0,1-1.021.284.86.86,0,0,1-.965-.965V32.851h1.853V30.959H48.6V28.671H46.279v2.288H44.993v1.891h1.286ZM59.1,39.414v-5.39c0-2.024-1.305-3.253-3.556-3.253a3.381,3.381,0,0,0-3.556,2.7H54.22a1.212,1.212,0,0,1,1.248-.794,1.242,1.242,0,0,1,1.381,1.305v.624a3.934,3.934,0,0,0-1.929-.492c-1.834,0-3.272,1.1-3.272,2.7,0,1.759,1.437,2.742,3.139,2.742a3.366,3.366,0,0,0,2.062-.605v.454Zm-2.251-2.307a1.671,1.671,0,0,1-1.532.738c-.738,0-1.494-.3-1.494-1.04,0-.719.757-1.04,1.494-1.04a1.671,1.671,0,0,1,1.532.738Zm6.5-9.986H61.006V39.414h2.345Zm4.4,3.839H65.4v8.454h2.345Zm.208-2.44a1.391,1.391,0,1,0-1.381,1.343A1.356,1.356,0,0,0,67.955,28.52ZM75.3,39.414h2.78l-3.556-4.861,3.423-3.593H75.036L72.142,34.1V27.12H69.8V39.414h2.345V36.747l.681-.738Zm14.864-6A2.5,2.5,0,0,0,91.7,30.959c0-2.08-1.494-3.158-3.915-3.158H83.338V39.414H88.16c2.421,0,3.9-1.154,3.9-3.291A2.823,2.823,0,0,0,90.165,33.418Zm-4.5-.851V29.844h1.967c1.154,0,1.759.416,1.759,1.343s-.605,1.381-1.759,1.381Zm0,1.891h2.288c1.135,0,1.74.548,1.74,1.456,0,.889-.605,1.456-1.74,1.456H85.664Zm15.523-3.5H98.823v5.371A1.5,1.5,0,0,1,97.309,37.5c-.927,0-1.362-.605-1.362-1.494v-5.05H93.6v5.523A2.823,2.823,0,0,0,96.572,39.6a3.062,3.062,0,0,0,2.27-.965v.776h2.346Zm2.533,5.9a2.476,2.476,0,0,0,2.8,2.724,3.561,3.561,0,0,0,1.513-.265v-2.08a2.012,2.012,0,0,1-1.021.284.86.86,0,0,1-.965-.965V32.851H107.9V30.959h-1.853V28.671H103.72v2.288h-1.286v1.891h1.286Zm11.079-.208a1.453,1.453,0,0,1-1.57,1.059c-1.04,0-1.758-.757-1.834-2.024h5.636v-.719c0-2.478-1.362-4.2-3.839-4.2a4.12,4.12,0,0,0-4.067,4.426c0,2.61,1.646,4.407,4.1,4.407a3.458,3.458,0,0,0,3.745-2.95Zm-1.588-3.972a1.48,1.48,0,0,1,1.513,1.589h-3.272A1.738,1.738,0,0,1,113.211,32.681Zm10.435-1.759a2.209,2.209,0,0,0-.889-.151,2.172,2.172,0,0,0-1.891,1.021v-.832H118.52v8.454h2.346V34.175a1.528,1.528,0,0,1,1.607-1.192,2.344,2.344,0,0,1,1.173.284Zm3.85.038h-2.345v8.454H127.5Zm.208-2.44a1.391,1.391,0,1,0-1.38,1.343A1.356,1.356,0,0,0,127.7,28.52Zm1.843,10.894h2.345V34.061a1.537,1.537,0,0,1,1.532-1.173,1.315,1.315,0,0,1,1.381,1.494v5.031h2.345V33.891a2.828,2.828,0,0,0-2.988-3.121,3.03,3.03,0,0,0-2.27.965v-.775h-2.345Zm8.72-6.922h1.494l1.04-1.57a3.3,3.3,0,0,0,.624-1.7,1.472,1.472,0,0,0-1.494-1.608,1.422,1.422,0,0,0-1.475,1.437,1.34,1.34,0,0,0,1.153,1.362Zm3.254,4.407c.246,1.721,1.7,2.7,3.764,2.7,1.967,0,3.461-1.021,3.461-2.742,0-1.286-.776-2.1-2.251-2.459l-1.74-.4c-.53-.132-.756-.321-.756-.662,0-.53.548-.794,1.115-.794a1.234,1.234,0,0,1,1.324.832h2.232c-.284-1.589-1.456-2.61-3.593-2.61-1.892,0-3.367,1.1-3.367,2.742,0,1.418.908,2.08,2.194,2.383l1.7.378c.586.151.851.34.851.719,0,.549-.473.832-1.191.832a1.364,1.364,0,0,1-1.419-.927Zm22.628-9.1h-2.326v7.338L156.7,27.8h-2.269V39.414h2.326V31.678l5.485,7.736h1.91Zm7.279,8.851a1.454,1.454,0,0,1-1.57,1.059c-1.04,0-1.759-.757-1.835-2.024h5.636v-.719c0-2.478-1.361-4.2-3.839-4.2a4.119,4.119,0,0,0-4.066,4.426c0,2.61,1.645,4.407,4.1,4.407a3.459,3.459,0,0,0,3.745-2.95Zm-1.589-3.972a1.48,1.48,0,0,1,1.513,1.589H168.08A1.738,1.738,0,0,1,169.839,32.681Zm11.478-1.721h-1.8l-1.381,5.39-1.513-5.39h-2.345l2.572,8.454h2.156l1.381-5.182,1.381,5.182h2.156l2.572-8.454h-2.27l-1.513,5.39Zm9.925-1.04h3.726v9.494h2.44V29.919h3.744V27.8h-9.91ZM209.186,35.2a4.151,4.151,0,1,0-8.284,0,4.15,4.15,0,1,0,8.284,0Zm-2.327,0c0,1.4-.643,2.421-1.815,2.421s-1.816-1.021-1.816-2.421c0-1.418.643-2.44,1.816-2.44S206.859,33.778,206.859,35.2Zm9.329,4.218h2.78l-3.555-4.861,3.423-3.593h-2.913L213.03,34.1V27.12h-2.345V39.414h2.345V36.747l.681-.738Zm8.728-2.761a1.453,1.453,0,0,1-1.57,1.059c-1.04,0-1.759-.757-1.834-2.024h5.636v-.719c0-2.478-1.362-4.2-3.84-4.2a4.119,4.119,0,0,0-4.066,4.426c0,2.61,1.646,4.407,4.1,4.407a3.459,3.459,0,0,0,3.745-2.95Zm-1.589-3.972a1.479,1.479,0,0,1,1.513,1.589h-3.272A1.739,1.739,0,0,1,223.327,32.681Zm5.31,6.733h2.345V34.061a1.538,1.538,0,0,1,1.532-1.173,1.315,1.315,0,0,1,1.381,1.494v5.031h2.345V33.891a2.828,2.828,0,0,0-2.988-3.121,3.03,3.03,0,0,0-2.27.965v-.775h-2.345Z" fill="#111"/>
    <path id="Path_304" data-name="Path 304" d="M33.306,105.366h-.778L29.516,106.9v1.324l2.515-1.29v8.6h1.274Zm3.345,6.934a2.195,2.195,0,1,1,2.2,2.284A2.161,2.161,0,0,1,36.651,112.3Zm5.445-4.551a3,3,0,0,0-3.161-2.515c-2.2,0-3.723,2.118-3.723,5.411a7.114,7.114,0,0,0,.6,3.112,3.245,3.245,0,0,0,3.028,1.936,3.294,3.294,0,0,0,3.409-3.409,3.258,3.258,0,0,0-3.293-3.376,2.649,2.649,0,0,0-2.565,1.737c0-.1-.016-.347-.016-.446,0-2.185,1.076-3.889,2.565-3.889a1.846,1.846,0,0,1,1.87,1.439Zm2.83,4.551a2.195,2.195,0,1,1,2.2,2.284A2.161,2.161,0,0,1,44.925,112.3Zm5.445-4.551a3,3,0,0,0-3.161-2.515c-2.2,0-3.723,2.118-3.723,5.411a7.113,7.113,0,0,0,.6,3.112,3.245,3.245,0,0,0,3.028,1.936,3.294,3.294,0,0,0,3.409-3.409,3.258,3.258,0,0,0-3.293-3.376,2.649,2.649,0,0,0-2.565,1.737c0-.1-.017-.347-.017-.446,0-2.185,1.076-3.889,2.565-3.889a1.847,1.847,0,0,1,1.87,1.439Zm6.37-2.366H55.416l-3.905,6.934v.927h4.683v2.3H57.4v-2.3h1.787v-1.093H57.4V109.7H56.194v2.449H52.95Zm7.327,10.31c2.267,0,3.79-2.135,3.79-5.23s-1.522-5.229-3.79-5.229-3.79,2.135-3.79,5.229S61.8,115.693,64.066,115.693Zm0-9.284c1.638,0,2.515,1.688,2.515,4.054s-.877,4.055-2.515,4.055c-1.655,0-2.515-1.688-2.515-4.055S62.411,106.409,64.066,106.409Zm9.313-1.026v10.161H79.85v-1.175h-5.18V110.91h4.7v-1.158h-4.7v-3.211h5.18v-1.158Zm7.805,1.158h3.541v9h1.307v-9h3.542v-1.158h-8.39Zm17.151-1.158v4.352H92.594v-4.352H91.286v10.161h1.307V110.91h5.743v4.634h1.307V105.383Z" fill="#111"/>
    <path id="Path_305" data-name="Path 305" d="M202.77,196.518c0,3.16,1.985,5.229,4.55,5.229a3.814,3.814,0,0,0,3.956-3.144h-1.291a2.654,2.654,0,0,1-2.665,1.969c-1.952,0-3.243-1.655-3.243-4.054,0-2.417,1.307-4.055,3.243-4.055a2.658,2.658,0,0,1,2.665,1.953h1.291a3.8,3.8,0,0,0-3.956-3.128C204.755,191.288,202.77,193.357,202.77,196.518Zm16-2.268h-1.257v4.982a1.953,1.953,0,0,1-1.837,1.373,1.517,1.517,0,0,1-1.6-1.737V194.25h-1.258v4.816a2.415,2.415,0,0,0,2.565,2.681,2.652,2.652,0,0,0,2.135-1.076v.927h1.257Zm5.98-.033a1.8,1.8,0,0,0-.712-.116,2.05,2.05,0,0,0-1.82,1.109v-.96h-1.241V201.6h1.241v-4.931a1.778,1.778,0,0,1,1.7-1.374,1.567,1.567,0,0,1,.828.2Zm5.317,0a1.8,1.8,0,0,0-.712-.116,2.05,2.05,0,0,0-1.82,1.109v-.96h-1.242V201.6h1.242v-4.931a1.778,1.778,0,0,1,1.7-1.374,1.567,1.567,0,0,1,.828.2Zm5.967,5.18a1.692,1.692,0,0,1-1.787,1.291c-1.241,0-2.118-.96-2.135-2.532h5.2v-.447c0-2.135-1.075-3.608-3.094-3.608-2,0-3.343,1.639-3.343,3.84,0,2.267,1.373,3.806,3.376,3.806a2.8,2.8,0,0,0,2.962-2.35Zm-1.8-4.236a1.846,1.846,0,0,1,1.821,2.052h-3.906A2.106,2.106,0,0,1,234.232,195.161Zm4.734,6.437h1.241v-4.981a1.994,1.994,0,0,1,1.87-1.374,1.53,1.53,0,0,1,1.622,1.738V201.6h1.257v-4.816a2.427,2.427,0,0,0-2.581-2.681,2.746,2.746,0,0,0-2.168,1.076v-.927h-1.241Zm8.444-1.853a1.832,1.832,0,0,0,2.019,2,2.607,2.607,0,0,0,1.158-.248V200.34a1.822,1.822,0,0,1-.959.3c-.629,0-.977-.314-.977-1.026v-4.3h1.771v-1.06h-1.771v-1.936H247.41v1.936h-1.192v1.06h1.192Zm7.945-.166a2.761,2.761,0,0,0,3.012,2.168c1.572,0,2.73-.827,2.73-2.217,0-1.027-.612-1.722-1.87-2.053l-1.423-.347c-.695-.2-1.026-.43-1.026-.927,0-.711.679-1.059,1.407-1.059a1.509,1.509,0,0,1,1.622,1.043h1.241A2.59,2.59,0,0,0,258.2,194.1c-1.489,0-2.631.861-2.631,2.168,0,1.142.728,1.672,1.771,1.937l1.456.38c.761.2,1.092.513,1.092,1.026,0,.745-.629,1.093-1.506,1.093a1.638,1.638,0,0,1-1.737-1.126Zm7.812.166a1.832,1.832,0,0,0,2.019,2,2.607,2.607,0,0,0,1.158-.248V200.34a1.822,1.822,0,0,1-.959.3c-.629,0-.977-.314-.977-1.026v-4.3h1.771v-1.06h-1.771v-1.936h-1.241v1.936h-1.192v1.06h1.192Zm10.12,1.853v-4.9a2.492,2.492,0,0,0-2.8-2.6,2.661,2.661,0,0,0-2.747,2.086h1.224a1.425,1.425,0,0,1,1.506-1.01,1.482,1.482,0,0,1,1.622,1.572v.927a3.152,3.152,0,0,0-1.854-.6c-1.572,0-2.813.927-2.813,2.3a2.472,2.472,0,0,0,2.731,2.35,2.943,2.943,0,0,0,1.936-.679v.546Zm-1.191-1.82a1.839,1.839,0,0,1-1.721.91c-.894,0-1.754-.414-1.754-1.307,0-.878.86-1.275,1.754-1.275a1.838,1.838,0,0,1,1.721.911Zm8.145,1.82h1.523l-3.426-4.17,3.31-3.178H280.01l-3.36,3.261v-6.67h-1.241V201.6h1.241v-2.631l.794-.761Zm7.268-2.2a1.692,1.692,0,0,1-1.787,1.291c-1.241,0-2.119-.96-2.135-2.532h5.2v-.447c0-2.135-1.075-3.608-3.094-3.608-2,0-3.343,1.639-3.343,3.84,0,2.267,1.373,3.806,3.376,3.806a2.8,2.8,0,0,0,2.962-2.35Zm-1.8-4.236a1.846,1.846,0,0,1,1.821,2.052H283.62A2.106,2.106,0,0,1,285.7,195.161Zm4.154,5.626a.886.886,0,1,0,1.771,0,.886.886,0,1,0-1.771,0Zm0-5.2a.886.886,0,1,0,1.771,0,.886.886,0,1,0-1.771,0Zm10.155-4.17h-.778l-3.012,1.539v1.324l2.516-1.291V201.6h1.274Zm1.772,9.366a.886.886,0,1,0,1.771,0,.886.886,0,1,0-1.771,0Zm6.25.96c2.267,0,3.789-2.135,3.789-5.229s-1.522-5.23-3.789-5.23-3.79,2.135-3.79,5.23S305.768,201.747,308.036,201.747Zm0-9.284c1.638,0,2.515,1.688,2.515,4.055s-.877,4.054-2.515,4.054c-1.655,0-2.516-1.688-2.516-4.054S306.381,192.463,308.036,192.463Zm8.9,9.284c2.268,0,3.79-2.135,3.79-5.229s-1.522-5.23-3.79-5.23-3.789,2.135-3.789,5.23S314.673,201.747,316.94,201.747Zm0-9.284c1.639,0,2.516,1.688,2.516,4.055s-.877,4.054-2.516,4.054c-1.655,0-2.515-1.688-2.515-4.054S315.285,192.463,316.94,192.463Zm8.9,9.284c2.267,0,3.79-2.135,3.79-5.229s-1.523-5.23-3.79-5.23-3.79,2.135-3.79,5.23S323.578,201.747,325.845,201.747Zm0-9.284c1.638,0,2.516,1.688,2.516,4.055s-.878,4.054-2.516,4.054c-1.655,0-2.515-1.688-2.515-4.054S324.19,192.463,325.845,192.463Zm8.9,9.284c2.267,0,3.79-2.135,3.79-5.229s-1.523-5.23-3.79-5.23-3.79,2.135-3.79,5.23S332.483,201.747,334.75,201.747Zm0-9.284c1.638,0,2.515,1.688,2.515,4.055s-.877,4.054-2.515,4.054c-1.655,0-2.516-1.688-2.516-4.054S333.1,192.463,334.75,192.463Zm8.9,9.284c2.267,0,3.789-2.135,3.789-5.229s-1.522-5.23-3.789-5.23-3.79,2.135-3.79,5.23S341.387,201.747,343.655,201.747Zm0-9.284c1.638,0,2.515,1.688,2.515,4.055s-.877,4.054-2.515,4.054c-1.655,0-2.516-1.688-2.516-4.054S342,192.463,343.655,192.463Zm8.9,9.284c2.268,0,3.79-2.135,3.79-5.229s-1.522-5.23-3.79-5.23-3.789,2.135-3.789,5.23S350.292,201.747,352.559,201.747Zm0-9.284c1.639,0,2.516,1.688,2.516,4.055s-.877,4.054-2.516,4.054c-1.655,0-2.515-1.688-2.515-4.054S350.9,192.463,352.559,192.463Zm8.511-1.042h-.777l-3.012,1.539v1.324l2.515-1.291V201.6h1.274Zm6.1.016V201.6h6.47v-1.175h-5.179v-3.459h4.7v-1.158h-4.7V192.6h5.179v-1.159Zm7.8,1.159h3.541v9h1.308v-9h3.541v-1.159h-8.39Zm17.151-1.159v4.352h-5.743v-4.352H385.08V201.6h1.307v-4.634h5.743V201.6h1.307V191.437Z" fill="#111"/>
    <path id="Path_306" data-name="Path 306" d="M202.77,234.344c0,3.161,1.985,5.229,4.55,5.229a3.814,3.814,0,0,0,3.956-3.144h-1.291a2.654,2.654,0,0,1-2.665,1.969c-1.952,0-3.243-1.655-3.243-4.054,0-2.416,1.307-4.055,3.243-4.055a2.658,2.658,0,0,1,2.665,1.953h1.291a3.8,3.8,0,0,0-3.956-3.128C204.755,229.114,202.77,231.183,202.77,234.344Zm16-2.267h-1.257v4.981a1.953,1.953,0,0,1-1.837,1.373,1.517,1.517,0,0,1-1.6-1.737v-4.617h-1.258v4.815a2.414,2.414,0,0,0,2.565,2.681,2.654,2.654,0,0,0,2.135-1.075v.926h1.257Zm5.98-.033a1.785,1.785,0,0,0-.712-.116,2.051,2.051,0,0,0-1.82,1.108v-.959h-1.241v7.347h1.241v-4.931a1.778,1.778,0,0,1,1.7-1.374,1.567,1.567,0,0,1,.828.2Zm5.317,0a1.785,1.785,0,0,0-.712-.116,2.051,2.051,0,0,0-1.82,1.108v-.959h-1.242v7.347h1.242v-4.931a1.778,1.778,0,0,1,1.7-1.374,1.567,1.567,0,0,1,.828.2Zm5.967,5.179a1.692,1.692,0,0,1-1.787,1.291c-1.241,0-2.118-.96-2.135-2.532h5.2v-.447c0-2.134-1.075-3.607-3.094-3.607-2,0-3.343,1.638-3.343,3.839,0,2.267,1.373,3.806,3.376,3.806a2.8,2.8,0,0,0,2.962-2.35Zm-1.8-4.236a1.846,1.846,0,0,1,1.821,2.052h-3.906A2.106,2.106,0,0,1,234.232,232.987Zm4.734,6.437h1.241v-4.981a1.993,1.993,0,0,1,1.87-1.373,1.529,1.529,0,0,1,1.622,1.737v4.617h1.257v-4.815a2.426,2.426,0,0,0-2.581-2.681A2.745,2.745,0,0,0,240.207,233v-.926h-1.241Zm8.444-1.853a1.832,1.832,0,0,0,2.019,2,2.607,2.607,0,0,0,1.158-.248v-1.158a1.831,1.831,0,0,1-.959.3c-.629,0-.977-.314-.977-1.026v-4.3h1.771v-1.059h-1.771V230.14H247.41v1.937h-1.192v1.059h1.192Zm9.8-5.494h-1.241v7.347h1.241Zm.182-2.218a.8.8,0,1,0-.811.794A.809.809,0,0,0,257.39,229.859Zm2.036,9.565h1.241v-4.981a1.993,1.993,0,0,1,1.87-1.373,1.529,1.529,0,0,1,1.622,1.737v4.617h1.257v-4.815a2.426,2.426,0,0,0-2.581-2.681A2.744,2.744,0,0,0,260.667,233v-.926h-1.241Zm8.444-1.853a1.832,1.832,0,0,0,2.019,2,2.607,2.607,0,0,0,1.158-.248v-1.158a1.831,1.831,0,0,1-.96.3c-.628,0-.976-.314-.976-1.026v-4.3h1.771v-1.059h-1.771V230.14H267.87v1.937h-1.192v1.059h1.192Zm9.458-.348a1.694,1.694,0,0,1-1.788,1.291c-1.241,0-2.118-.96-2.135-2.532h5.2v-.447c0-2.134-1.076-3.607-3.1-3.607-2,0-3.343,1.638-3.343,3.839,0,2.267,1.374,3.806,3.376,3.806a2.8,2.8,0,0,0,2.963-2.35Zm-1.8-4.236a1.845,1.845,0,0,1,1.82,2.052h-3.9A2.106,2.106,0,0,1,275.524,232.987Zm8.506-.943a1.776,1.776,0,0,0-.711-.116,2.054,2.054,0,0,0-1.821,1.108v-.959h-1.241v7.347H281.5v-4.931a1.78,1.78,0,0,1,1.705-1.374,1.563,1.563,0,0,1,.827.2ZM290,237.223a1.692,1.692,0,0,1-1.787,1.291c-1.242,0-2.119-.96-2.135-2.532h5.2v-.447c0-2.134-1.076-3.607-3.1-3.607-2,0-3.342,1.638-3.342,3.839,0,2.267,1.373,3.806,3.376,3.806a2.8,2.8,0,0,0,2.962-2.35Zm-1.8-4.236a1.845,1.845,0,0,1,1.82,2.052h-3.9A2.106,2.106,0,0,1,288.194,232.987Zm4.154,4.418a2.759,2.759,0,0,0,3.011,2.168c1.573,0,2.731-.827,2.731-2.217,0-1.026-.612-1.721-1.87-2.052l-1.423-.348c-.7-.2-1.026-.43-1.026-.927,0-.711.678-1.059,1.406-1.059a1.508,1.508,0,0,1,1.622,1.043h1.241a2.588,2.588,0,0,0-2.846-2.085c-1.489,0-2.631.86-2.631,2.168,0,1.141.728,1.671,1.77,1.936l1.457.38c.761.2,1.092.513,1.092,1.026,0,.745-.629,1.093-1.506,1.093a1.639,1.639,0,0,1-1.738-1.126Zm7.812.166a1.832,1.832,0,0,0,2.019,2,2.61,2.61,0,0,0,1.158-.248v-1.158a1.831,1.831,0,0,1-.96.3c-.629,0-.976-.314-.976-1.026v-4.3h1.771v-1.059H301.4V230.14H300.16v1.937h-1.192v1.059h1.192Zm4.374,1.042a.885.885,0,1,0,1.77,0,.885.885,0,1,0-1.77,0Zm0-5.2a.885.885,0,1,0,1.77,0,.885.885,0,1,0-1.77,0Zm10.4,6.156c2.268,0,3.79-2.135,3.79-5.229s-1.522-5.23-3.79-5.23-3.789,2.135-3.789,5.23S312.669,239.573,314.936,239.573Zm0-9.284c1.639,0,2.516,1.688,2.516,4.055s-.877,4.054-2.516,4.054-2.515-1.688-2.515-4.054S313.282,230.289,314.936,230.289Zm4.482,8.324a.886.886,0,1,0,1.771,0,.886.886,0,1,0-1.771,0Zm6.249.96c2.268,0,3.79-2.135,3.79-5.229s-1.522-5.23-3.79-5.23-3.789,2.135-3.789,5.23S323.4,239.573,325.667,239.573Zm0-9.284c1.639,0,2.516,1.688,2.516,4.055s-.877,4.054-2.516,4.054c-1.655,0-2.515-1.688-2.515-4.054S324.012,230.289,325.667,230.289Zm8.9,9.284c2.267,0,3.79-2.135,3.79-5.229s-1.523-5.23-3.79-5.23-3.79,2.135-3.79,5.23S332.3,239.573,334.572,239.573Zm0-9.284c1.638,0,2.516,1.688,2.516,4.055s-.878,4.054-2.516,4.054c-1.655,0-2.515-1.688-2.515-4.054S332.917,230.289,334.572,230.289Zm8.9,9.284c2.267,0,3.79-2.135,3.79-5.229s-1.523-5.23-3.79-5.23-3.79,2.135-3.79,5.23S341.21,239.573,343.477,239.573Zm0-9.284c1.638,0,2.515,1.688,2.515,4.055s-.877,4.054-2.515,4.054c-1.655,0-2.516-1.688-2.516-4.054S341.822,230.289,343.477,230.289Zm10.079-1.026h-1.324l-3.906,6.934v.927h4.684v2.3h1.208v-2.3h1.787v-1.092h-1.787v-2.449H353.01v2.449h-3.244Zm4.928,6.918a2.194,2.194,0,1,1,2.2,2.283A2.161,2.161,0,0,1,358.484,236.181Zm5.444-4.551a3,3,0,0,0-3.16-2.516c-2.2,0-3.724,2.119-3.724,5.412a7.112,7.112,0,0,0,.6,3.111,3.244,3.244,0,0,0,3.028,1.936,3.294,3.294,0,0,0,3.409-3.409,3.258,3.258,0,0,0-3.293-3.376,2.65,2.65,0,0,0-2.565,1.738c0-.1-.017-.348-.017-.447,0-2.184,1.076-3.889,2.566-3.889a1.847,1.847,0,0,1,1.87,1.44Zm5.589-2.367v10.161h6.471v-1.175h-5.18v-3.458h4.7v-1.159h-4.7v-3.21h5.18v-1.159Zm7.8,1.159h3.542v9h1.307v-9h3.542v-1.159h-8.391Zm17.151-1.159v4.353h-5.742v-4.353h-1.308v10.161h1.308v-4.633h5.742v4.633h1.308V229.263Z" fill="#111"/>
    <rect id="Rectangle_115" data-name="Rectangle 115" width="206.152" height="31.206" rx="15.603" transform="translate(202.157 141.37)" fill="none" stroke="#111" stroke-linecap="square" stroke-width="0.946" opacity="0.1"/>
    <path id="Path_307" data-name="Path 307" d="M221.333,152.666v10.161H227.8v-1.175h-5.18v-3.459h4.7v-1.158h-4.7v-3.211h5.18v-1.158Zm7.805,1.158h3.542v9h1.307v-9h3.542v-1.158h-8.391Zm17.151-1.158v4.352h-5.742v-4.352H239.24v10.161h1.307v-4.634h5.742v4.634H247.6V152.666Zm8.524,9.3a2.587,2.587,0,0,0,2.069,1.01c2.151,0,3.31-1.738,3.31-3.823,0-2.069-1.159-3.823-3.31-3.823a2.589,2.589,0,0,0-2.069,1.009V152.07h-1.258v10.757h1.258Zm0-4.3a2.116,2.116,0,0,1,1.887-1.208c1.406,0,2.234,1.142,2.234,2.7s-.828,2.7-2.234,2.7a2.116,2.116,0,0,1-1.887-1.208Zm12.4,5.164v-4.9a2.492,2.492,0,0,0-2.8-2.6,2.661,2.661,0,0,0-2.747,2.085h1.224a1.425,1.425,0,0,1,1.506-1.009,1.482,1.482,0,0,1,1.622,1.572v.927a3.141,3.141,0,0,0-1.853-.6c-1.573,0-2.814.927-2.814,2.3a2.472,2.472,0,0,0,2.731,2.35,2.949,2.949,0,0,0,1.936-.678v.546Zm-1.192-1.821a1.839,1.839,0,0,1-1.721.91c-.894,0-1.754-.413-1.754-1.307,0-.877.86-1.274,1.754-1.274a1.839,1.839,0,0,1,1.721.91Zm4.554-8.936h-1.241v10.757h1.241Zm7.546,10.757v-4.9a2.492,2.492,0,0,0-2.8-2.6,2.663,2.663,0,0,0-2.748,2.085H273.8a1.425,1.425,0,0,1,1.506-1.009,1.482,1.482,0,0,1,1.622,1.572v.927a3.145,3.145,0,0,0-1.854-.6c-1.572,0-2.813.927-2.813,2.3a2.472,2.472,0,0,0,2.731,2.35,2.951,2.951,0,0,0,1.936-.678v.546Zm-1.191-1.821a1.839,1.839,0,0,1-1.721.91c-.894,0-1.755-.413-1.755-1.307,0-.877.861-1.274,1.755-1.274a1.839,1.839,0,0,1,1.721.91Zm3.313,1.821h1.241v-4.982a1.993,1.993,0,0,1,1.87-1.373,1.53,1.53,0,0,1,1.622,1.738v4.617h1.257v-4.816a2.427,2.427,0,0,0-2.581-2.681,2.743,2.743,0,0,0-2.168,1.076v-.927h-1.241Zm7.567-3.674c0,2.284,1.373,3.823,3.343,3.823a2.773,2.773,0,0,0,2.945-2.367h-1.274a1.583,1.583,0,0,1-1.671,1.274c-1.258,0-2.085-1.125-2.085-2.73s.827-2.731,2.085-2.731a1.583,1.583,0,0,1,1.671,1.274h1.274a2.773,2.773,0,0,0-2.945-2.366C289.178,155.33,287.8,156.869,287.8,159.153Zm12.516,1.473a1.692,1.692,0,0,1-1.787,1.29c-1.241,0-2.118-.959-2.135-2.532h5.2v-.446c0-2.135-1.076-3.608-3.1-3.608-2,0-3.343,1.638-3.343,3.839,0,2.268,1.374,3.807,3.376,3.807a2.8,2.8,0,0,0,2.962-2.35Zm-1.8-4.237a1.846,1.846,0,0,1,1.82,2.052h-3.906A2.107,2.107,0,0,1,298.518,156.389Zm8.733,4.584a1.833,1.833,0,0,0,2.019,2,2.606,2.606,0,0,0,1.158-.249v-1.158a1.831,1.831,0,0,1-.959.3c-.629,0-.977-.315-.977-1.026v-4.3h1.771v-1.059h-1.771v-1.936h-1.241v1.936h-1.192v1.059h1.192Zm11.046-1.82c0-2.251-1.373-3.823-3.376-3.823-2.019,0-3.376,1.572-3.376,3.823s1.357,3.823,3.376,3.823C316.924,162.976,318.3,161.4,318.3,159.153Zm-1.257,0c0,1.6-.8,2.73-2.119,2.73s-2.118-1.125-2.118-2.73.795-2.731,2.118-2.731S317.04,157.548,317.04,159.153Zm5.978,1.655a2.761,2.761,0,0,0,3.012,2.168c1.572,0,2.73-.828,2.73-2.218,0-1.026-.612-1.721-1.87-2.052l-1.423-.348c-.7-.2-1.026-.43-1.026-.926,0-.712.679-1.059,1.407-1.059a1.508,1.508,0,0,1,1.622,1.042h1.241a2.589,2.589,0,0,0-2.847-2.085c-1.489,0-2.631.861-2.631,2.168,0,1.142.728,1.671,1.771,1.936l1.456.381c.761.2,1.092.513,1.092,1.026,0,.744-.629,1.092-1.506,1.092a1.638,1.638,0,0,1-1.737-1.125Zm7.812.165a1.833,1.833,0,0,0,2.019,2,2.606,2.606,0,0,0,1.158-.249v-1.158a1.831,1.831,0,0,1-.959.3c-.629,0-.977-.315-.977-1.026v-4.3h1.771v-1.059h-1.771v-1.936H330.83v1.936h-1.192v1.059h1.192Zm10.12,1.854v-4.9a2.492,2.492,0,0,0-2.8-2.6,2.661,2.661,0,0,0-2.747,2.085h1.224a1.425,1.425,0,0,1,1.506-1.009,1.482,1.482,0,0,1,1.622,1.572v.927a3.145,3.145,0,0,0-1.854-.6c-1.572,0-2.813.927-2.813,2.3a2.472,2.472,0,0,0,2.731,2.35,2.949,2.949,0,0,0,1.936-.678v.546Zm-1.191-1.821a1.839,1.839,0,0,1-1.721.91c-.894,0-1.754-.413-1.754-1.307,0-.877.86-1.274,1.754-1.274a1.839,1.839,0,0,1,1.721.91Zm8.145,1.821h1.523L346,158.656l3.31-3.177h-1.638l-3.36,3.26V152.07h-1.241v10.757h1.241V160.2l.794-.761Zm7.268-2.2a1.693,1.693,0,0,1-1.787,1.29c-1.241,0-2.119-.959-2.135-2.532h5.2v-.446c0-2.135-1.075-3.608-3.094-3.608-2,0-3.343,1.638-3.343,3.839,0,2.268,1.373,3.807,3.376,3.807a2.8,2.8,0,0,0,2.962-2.35Zm-1.8-4.237a1.846,1.846,0,0,1,1.821,2.052h-3.906A2.106,2.106,0,0,1,353.368,156.389Zm4.154,5.627a.886.886,0,1,0,1.771,0,.886.886,0,1,0-1.771,0Zm3.178,0a.886.886,0,1,0,1.771,0,.886.886,0,1,0-1.771,0Zm3.161,0a.885.885,0,1,0,1.77,0,.885.885,0,1,0-1.77,0Z" fill="#111" opacity="0.3"/>
    <rect id="Rectangle_116" data-name="Rectangle 116" width="156.033" height="31.206" rx="15.603" transform="translate(29.104 179.37)" fill="#332"/>
    <path id="Path_308" data-name="Path 308" d="M73.054,195.581a2.178,2.178,0,0,0,1.324-2.152c0-1.82-1.324-2.763-3.442-2.763H67.377v10.161h3.889c2.118,0,3.442-1.01,3.442-2.913A2.458,2.458,0,0,0,73.054,195.581Zm-4-.646v-2.78h1.87c1.175,0,1.8.414,1.8,1.374s-.629,1.406-1.8,1.406Zm0,1.423h2.184c1.158,0,1.787.563,1.787,1.49,0,.91-.629,1.489-1.787,1.489H69.049Zm13,4.469v-4.816c0-1.672-1.092-2.7-2.946-2.7a2.785,2.785,0,0,0-2.88,2.2h1.589a1.194,1.194,0,0,1,1.258-.794,1.266,1.266,0,0,1,1.407,1.324v.6a3.449,3.449,0,0,0-1.7-.447c-1.622,0-2.863.976-2.863,2.366a2.485,2.485,0,0,0,2.747,2.4,2.953,2.953,0,0,0,1.82-.546v.414Zm-1.572-1.953a1.6,1.6,0,0,1-1.506.745c-.745,0-1.522-.315-1.522-1.06,0-.728.778-1.042,1.522-1.042a1.6,1.6,0,0,1,1.506.745Zm3.011-1.721c0,2.284,1.44,3.839,3.426,3.839A2.846,2.846,0,0,0,90,198.526H88.341a1.305,1.305,0,0,1-1.407,1.026c-1.109,0-1.787-1.009-1.787-2.4s.679-2.4,1.787-2.4a1.305,1.305,0,0,1,1.407,1.026H90a2.846,2.846,0,0,0-3.078-2.466C84.932,193.313,83.492,194.869,83.492,197.153Zm12.745,3.674h2L95,196.656l3.128-3.177H96.006l-2.88,3.012V190.07H91.471v10.757h1.655v-2.433l.679-.695Zm10.875-3.79c2.1,0,3.476-1.109,3.476-3.177,0-2.1-1.374-3.194-3.476-3.194H103.19v10.161h1.721v-3.79Zm1.771-3.177a1.615,1.615,0,0,1-1.8,1.688h-2.168v-3.393h2.168A1.612,1.612,0,0,1,108.883,193.86Zm7.33-.414a2.063,2.063,0,0,0-.811-.133,1.845,1.845,0,0,0-1.638.927v-.761h-1.655v7.348h1.655v-4.75a1.433,1.433,0,0,1,1.473-1.175,1.826,1.826,0,0,1,.976.248Zm7.748,3.707a3.508,3.508,0,1,0-3.492,3.839A3.517,3.517,0,0,0,123.961,197.153Zm-1.655,0c0,1.39-.645,2.416-1.837,2.416s-1.837-1.026-1.837-2.416.646-2.416,1.837-2.416S122.306,195.763,122.306,197.153Zm4.855-3.674h-1.655v7.894c0,.695-.281,1.026-.91,1.026a2.128,2.128,0,0,1-.5-.066v1.39a2.273,2.273,0,0,0,.662.082,2.126,2.126,0,0,0,2.4-2.316Zm.2-2.218a1.026,1.026,0,1,0-1.026,1.01A1.028,1.028,0,0,0,127.36,191.261Zm6.349,7.282a1.457,1.457,0,0,1-1.572,1.059,1.89,1.89,0,0,1-1.853-2.069H135.3v-.6c0-2.152-1.125-3.625-3.194-3.625a3.56,3.56,0,0,0-3.442,3.856c0,2.268,1.423,3.823,3.475,3.823a2.874,2.874,0,0,0,3.1-2.449Zm-1.588-3.839a1.5,1.5,0,0,1,1.539,1.621h-3.327A1.771,1.771,0,0,1,132.121,194.7Zm4.234,2.449c0,2.284,1.439,3.839,3.425,3.839a2.846,2.846,0,0,0,3.078-2.466H141.2a1.3,1.3,0,0,1-1.406,1.026c-1.109,0-1.788-1.009-1.788-2.4s.679-2.4,1.788-2.4a1.3,1.3,0,0,1,1.406,1.026h1.655a2.846,2.846,0,0,0-3.078-2.466C137.794,193.313,136.355,194.869,136.355,197.153Zm8.44,1.688a2.006,2.006,0,0,0,2.235,2.151,2.557,2.557,0,0,0,1.241-.265v-1.506a1.77,1.77,0,0,1-.944.3.774.774,0,0,1-.877-.86v-3.806H148.1v-1.374H146.45V191.51h-1.655v1.969h-1.158v1.374h1.158Z" fill="#fff"/>
    <rect id="Rectangle_117" data-name="Rectangle 117" width="156.033" height="31.206" rx="15.603" transform="translate(29.104 217.196)" fill="#332"/>
    <path id="Path_309" data-name="Path 309" d="M54.778,228.491l-1.936,7.48-1.837-7.48H49.317l2.615,10.161H53.5l1.953-7.265,1.92,7.265h1.589l2.615-10.161H59.925l-1.837,7.48-1.92-7.48Zm9.77,2.814H62.894v7.347h1.655Zm.2-2.218a1.026,1.026,0,1,0-1.026,1.01A1.027,1.027,0,0,0,64.747,229.087Zm2.228,7.579a2.006,2.006,0,0,0,2.234,2.152,2.555,2.555,0,0,0,1.241-.265v-1.506a1.766,1.766,0,0,1-.943.3.775.775,0,0,1-.877-.861v-3.806h1.655V231.3H68.63v-1.97H66.975v1.97H65.817v1.373h1.158Zm5.163,1.986h1.655V233.82a1.557,1.557,0,0,1,1.539-1.175c.943,0,1.39.6,1.39,1.506v4.5h1.655V233.87a2.47,2.47,0,0,0-2.6-2.731,2.658,2.658,0,0,0-1.986.861v-4.1H72.138Zm12.96,0h1.655V227.9H85.1v4.037a2.506,2.506,0,0,0-1.87-.794c-2.151,0-3.409,1.738-3.409,3.839,0,2.119,1.258,3.84,3.409,3.84a2.5,2.5,0,0,0,1.87-.795Zm0-2.283a1.784,1.784,0,0,1-1.589.976,2.393,2.393,0,0,1,0-4.733,1.784,1.784,0,0,1,1.589.976Zm7.806-5.1a2.043,2.043,0,0,0-.811-.133,1.845,1.845,0,0,0-1.638.927V231.3H88.8v7.347h1.655V233.9a1.432,1.432,0,0,1,1.473-1.175,1.826,1.826,0,0,1,.976.248Zm6.937,7.38v-4.815c0-1.672-1.092-2.7-2.946-2.7a2.784,2.784,0,0,0-2.88,2.2H95.6a1.194,1.194,0,0,1,1.258-.794,1.266,1.266,0,0,1,1.407,1.324v.6a3.45,3.45,0,0,0-1.7-.446c-1.622,0-2.863.976-2.863,2.366a2.485,2.485,0,0,0,2.747,2.4,2.953,2.953,0,0,0,1.82-.546v.413ZM98.269,236.7a1.6,1.6,0,0,1-1.506.744c-.745,0-1.522-.314-1.522-1.059,0-.728.778-1.042,1.522-1.042a1.6,1.6,0,0,1,1.506.744Zm8.671-5.4h-1.506l-1.291,5.213L102.72,231.3h-1.655l2.135,7.347h1.655l1.307-5.113,1.308,5.113h1.655l2.134-7.347h-1.605l-1.423,5.213Zm10.956,6.718a2.5,2.5,0,0,0,1.87.795c2.152,0,3.409-1.721,3.409-3.84,0-2.1-1.257-3.839-3.409-3.839a2.508,2.508,0,0,0-1.87.794V227.9h-1.655v10.756H117.9Zm0-4.435a1.786,1.786,0,0,1,1.589-.976,2.393,2.393,0,0,1,0,4.733,1.786,1.786,0,0,1-1.589-.976Zm12.474,5.064v-4.815c0-1.672-1.093-2.7-2.946-2.7a2.785,2.785,0,0,0-2.88,2.2h1.589a1.2,1.2,0,0,1,1.258-.794,1.266,1.266,0,0,1,1.406,1.324v.6a3.445,3.445,0,0,0-1.7-.446c-1.622,0-2.863.976-2.863,2.366a2.484,2.484,0,0,0,2.747,2.4,2.95,2.95,0,0,0,1.82-.546v.413ZM128.8,236.7a1.6,1.6,0,0,1-1.5.744c-.745,0-1.523-.314-1.523-1.059,0-.728.778-1.042,1.523-1.042a1.6,1.6,0,0,1,1.5.744Zm3.012-1.722c0,2.284,1.439,3.84,3.425,3.84a2.846,2.846,0,0,0,3.078-2.466h-1.654a1.306,1.306,0,0,1-1.407,1.026c-1.109,0-1.787-1.009-1.787-2.4s.678-2.4,1.787-2.4a1.306,1.306,0,0,1,1.407,1.026h1.654a2.846,2.846,0,0,0-3.078-2.466C133.248,231.139,131.809,232.7,131.809,234.978Zm12.745,3.674h2l-3.244-4.17,3.128-3.177h-2.118l-2.88,3.012V227.9h-1.655v10.756h1.655V236.22l.679-.7Zm4.856-7.347h-1.654v7.347h1.654Zm.2-2.218a1.026,1.026,0,1,0-1.026,1.01A1.027,1.027,0,0,0,149.609,229.087Zm1.847,9.565h1.655V233.82a1.558,1.558,0,0,1,1.539-1.175c.944,0,1.39.6,1.39,1.506v4.5H157.7V233.87a2.47,2.47,0,0,0-2.6-2.731,2.659,2.659,0,0,0-1.986.861v-.7h-1.655Zm12.96-.5c0,1.373-.579,2.118-1.8,2.118a1.5,1.5,0,0,1-1.655-1.224h-1.6c.182,1.6,1.39,2.581,3.26,2.581a3.228,3.228,0,0,0,3.459-3.591V231.3h-1.655v.6a2.522,2.522,0,0,0-1.87-.761,3.738,3.738,0,0,0,0,7.447,2.522,2.522,0,0,0,1.87-.761Zm0-1.9a1.845,1.845,0,0,1-1.589.877,2.285,2.285,0,0,1,0-4.535,1.843,1.843,0,0,1,1.589.878Z" fill="#fff"/>
    <path id="Path_310" data-name="Path 310" d="M31.618,57.155V67.316H30.311V57.155ZM42.43,67.316v-.861a2.363,2.363,0,0,1-.861.728,2.664,2.664,0,0,1-1.208.281,2.947,2.947,0,0,1-2.433-1.092,4.663,4.663,0,0,1,0-5.445,2.929,2.929,0,0,1,2.433-1.109,2.544,2.544,0,0,1,1.208.3,2.23,2.23,0,0,1,.861.712v-4.27h1.258V67.316Zm0-2.184V62.153a2.111,2.111,0,0,0-.794-.877,1.927,1.927,0,0,0-1.092-.331,2,2,0,0,0-1.638.761,3,3,0,0,0-.6,1.936,3.074,3.074,0,0,0,.6,1.953,2.128,2.128,0,0,0,2.73.43A2.226,2.226,0,0,0,42.43,65.132Zm8.737-4.237a3.976,3.976,0,0,1,.943,2.747,4.038,4.038,0,0,1-.943,2.764,3.077,3.077,0,0,1-2.433,1.059,3.127,3.127,0,0,1-2.449-1.059,4.083,4.083,0,0,1-.927-2.764,4.02,4.02,0,0,1,.927-2.747,3.105,3.105,0,0,1,2.449-1.076A3.056,3.056,0,0,1,51.167,60.895Zm-.894,4.733a3.192,3.192,0,0,0,.579-1.986,3.12,3.12,0,0,0-.579-1.969,1.811,1.811,0,0,0-1.539-.761,1.854,1.854,0,0,0-1.556.761,3.185,3.185,0,0,0-.563,1.969,3.259,3.259,0,0,0,.563,1.986,1.869,1.869,0,0,0,1.556.745A1.824,1.824,0,0,0,50.273,65.628Zm3.517,1.688V59.968h1.241v.927a2.687,2.687,0,0,1,.91-.761,2.6,2.6,0,0,1,1.258-.314,2.473,2.473,0,0,1,1.9.728,2.75,2.75,0,0,1,.678,1.953v4.816H58.523V62.7a1.82,1.82,0,0,0-.414-1.258,1.478,1.478,0,0,0-1.208-.48,1.843,1.843,0,0,0-1.158.4,1.963,1.963,0,0,0-.712.976v4.981Zm7.173-6.9,1.01-1.7a.935.935,0,0,1-.53-.265.835.835,0,0,1-.2-.563.852.852,0,0,1,.248-.629.909.909,0,0,1,.645-.248.825.825,0,0,1,.629.265.94.94,0,0,1,.248.7,2.149,2.149,0,0,1-.364,1.043l-.844,1.407Zm3.954,5.047V61.027H63.726V59.968h1.191V58.032h1.241v1.936h1.771v1.059H66.158v4.3q0,1.026.976,1.026a1.7,1.7,0,0,0,.96-.3v1.158a2.433,2.433,0,0,1-1.158.248,2.106,2.106,0,0,1-1.473-.5A1.968,1.968,0,0,1,64.917,65.462Zm13.39,1.854-2.8-3.393-.794.761v2.631H73.474V56.559h1.241v6.669l3.359-3.26h1.638L76.4,63.146l3.426,4.17Zm2.844,0V59.968h1.241v.927a2.689,2.689,0,0,1,.91-.761,2.594,2.594,0,0,1,1.258-.314,2.473,2.473,0,0,1,1.9.728,2.75,2.75,0,0,1,.679,1.953v4.816H85.884V62.7a1.82,1.82,0,0,0-.414-1.258,1.478,1.478,0,0,0-1.208-.48,1.843,1.843,0,0,0-1.158.4,1.964,1.964,0,0,0-.712.976v4.981Zm13.376-6.421a3.976,3.976,0,0,1,.943,2.747,4.038,4.038,0,0,1-.943,2.764,3.077,3.077,0,0,1-2.433,1.059,3.127,3.127,0,0,1-2.449-1.059,4.083,4.083,0,0,1-.927-2.764,4.02,4.02,0,0,1,.927-2.747,3.105,3.105,0,0,1,2.449-1.076A3.056,3.056,0,0,1,94.527,60.895Zm-.894,4.733a3.192,3.192,0,0,0,.579-1.986,3.12,3.12,0,0,0-.579-1.969,1.811,1.811,0,0,0-1.539-.761,1.854,1.854,0,0,0-1.556.761,3.185,3.185,0,0,0-.563,1.969,3.259,3.259,0,0,0,.563,1.986,1.869,1.869,0,0,0,1.556.745A1.824,1.824,0,0,0,93.633,65.628Zm8.184-5.66,1.506,5.61,1.622-5.61h1.208l-2.168,7.348h-1.208l-1.522-5.577-1.539,5.577H98.507L96.34,59.968h1.241l1.622,5.61,1.506-5.61Zm14.06,0,1.506,5.61L119,59.968h1.208l-2.168,7.348h-1.208l-1.522-5.577-1.539,5.577h-1.208L110.4,59.968h1.241l1.622,5.61,1.506-5.61Zm5.741,7.348V56.559h1.241v4.336a2.686,2.686,0,0,1,.911-.761,2.592,2.592,0,0,1,1.257-.314,2.472,2.472,0,0,1,1.9.728,2.747,2.747,0,0,1,.679,1.953v4.816h-1.258V62.7a1.819,1.819,0,0,0-.414-1.258,1.476,1.476,0,0,0-1.208-.48,1.843,1.843,0,0,0-1.158.4,1.969,1.969,0,0,0-.712.976v4.981Zm13.426,0h-1.192V66.77a2.145,2.145,0,0,1-.778.463,3.13,3.13,0,0,1-1.158.215,3,3,0,0,1-1.953-.645,2.107,2.107,0,0,1-.778-1.7A2.024,2.024,0,0,1,130,63.444a3.115,3.115,0,0,1,2-.645,3.283,3.283,0,0,1,1.075.182,2.191,2.191,0,0,1,.778.414v-.927a1.543,1.543,0,0,0-.43-1.142,1.577,1.577,0,0,0-1.192-.43,1.435,1.435,0,0,0-1.506,1.009H129.5a2.446,2.446,0,0,1,.926-1.506,2.922,2.922,0,0,1,1.821-.579,2.891,2.891,0,0,1,2.052.695,2.478,2.478,0,0,1,.745,1.9Zm-1.192-1.82v-.761a1.3,1.3,0,0,0-.662-.645,2.156,2.156,0,0,0-1.059-.265,2.241,2.241,0,0,0-1.241.331,1.058,1.058,0,0,0-.513.943,1.113,1.113,0,0,0,.513.976,2.241,2.241,0,0,0,1.241.331,2.271,2.271,0,0,0,1.059-.248A1.37,1.37,0,0,0,133.852,65.5Zm3.612-.033V61.027h-1.191V59.968h1.191V58.032h1.241v1.936h1.771v1.059h-1.771v4.3q0,1.026.977,1.026a1.7,1.7,0,0,0,.96-.3v1.158a2.434,2.434,0,0,1-1.159.248,2.106,2.106,0,0,1-1.473-.5A1.968,1.968,0,0,1,137.464,65.462Zm9.8-5.494v7.348h-1.242V59.968Zm-.067-2.78a.76.76,0,0,1,0,1.125.794.794,0,1,1,0-1.125Zm2.631,8.274V61.027h-1.191V59.968h1.191V58.032h1.242v1.936h1.77v1.059h-1.77v4.3q0,1.026.976,1.026a1.7,1.7,0,0,0,.96-.3v1.158a2.434,2.434,0,0,1-1.159.248,2.109,2.109,0,0,1-1.473-.5A1.968,1.968,0,0,1,149.827,65.462Zm13.406,1.854v-.861a2.357,2.357,0,0,1-.86.728,2.664,2.664,0,0,1-1.208.281,2.948,2.948,0,0,1-2.433-1.092,4.664,4.664,0,0,1,0-5.445,2.93,2.93,0,0,1,2.433-1.109,2.545,2.545,0,0,1,1.208.3,2.225,2.225,0,0,1,.86.712v-4.27h1.258V67.316Zm0-2.184V62.153a2.106,2.106,0,0,0-.794-.877,1.927,1.927,0,0,0-1.092-.331,1.994,1.994,0,0,0-1.638.761,3,3,0,0,0-.6,1.936,3.07,3.07,0,0,0,.6,1.953,2.127,2.127,0,0,0,2.73.43A2.221,2.221,0,0,0,163.233,65.132Zm8.737-4.237a3.975,3.975,0,0,1,.944,2.747,4.038,4.038,0,0,1-.944,2.764,3.074,3.074,0,0,1-2.432,1.059,3.125,3.125,0,0,1-2.449-1.059,4.082,4.082,0,0,1-.927-2.764,4.019,4.019,0,0,1,.927-2.747,3.1,3.1,0,0,1,2.449-1.076A3.053,3.053,0,0,1,171.97,60.895Zm-.893,4.733a3.192,3.192,0,0,0,.579-1.986,3.121,3.121,0,0,0-.579-1.969,1.81,1.81,0,0,0-1.539-.761,1.855,1.855,0,0,0-1.556.761,3.185,3.185,0,0,0-.562,1.969,3.259,3.259,0,0,0,.562,1.986,1.869,1.869,0,0,0,1.556.745A1.824,1.824,0,0,0,171.077,65.628Zm8.183-.513h1.175a2.822,2.822,0,0,1-.976,1.721,3.06,3.06,0,0,1-1.986.629,3.148,3.148,0,0,1-2.449-1.043,4.559,4.559,0,0,1,0-5.511,3.016,3.016,0,0,1,2.416-1.092,2.783,2.783,0,0,1,2.284.993,3.966,3.966,0,0,1,.81,2.615v.447h-5.2a2.87,2.87,0,0,0,.6,1.854,2.127,2.127,0,0,0,2.7.347A1.611,1.611,0,0,0,179.26,65.115Zm-1.8-4.236a1.919,1.919,0,0,0-1.39.546,2.5,2.5,0,0,0-.695,1.506h3.906a2.33,2.33,0,0,0-.48-1.456A1.6,1.6,0,0,0,177.456,60.878ZM181.61,65.3H182.9a1.6,1.6,0,0,0,1.737,1.125,2,2,0,0,0,1.093-.265.938.938,0,0,0,.413-.827q0-.745-1.092-1.026l-1.456-.381q-1.771-.447-1.771-1.936a1.9,1.9,0,0,1,.745-1.556,2.87,2.87,0,0,1,1.886-.612,3.121,3.121,0,0,1,1.92.546A2.447,2.447,0,0,1,187.3,61.9h-1.242a1.5,1.5,0,0,0-1.621-1.043,1.724,1.724,0,0,0-.993.281.865.865,0,0,0-.414.778.75.75,0,0,0,.232.579,2.247,2.247,0,0,0,.794.347l1.423.348q1.871.5,1.87,2.052a1.948,1.948,0,0,1-.761,1.622,3.1,3.1,0,0,1-1.969.6,3.462,3.462,0,0,1-2.036-.579A2.34,2.34,0,0,1,181.61,65.3Zm12.358,1.158v.861H192.71V56.559h1.258v4.27a2.228,2.228,0,0,1,.861-.712,2.542,2.542,0,0,1,1.208-.3,2.927,2.927,0,0,1,2.432,1.109,4.664,4.664,0,0,1,0,5.445,2.944,2.944,0,0,1-2.432,1.092,2.661,2.661,0,0,1-1.208-.281A2.361,2.361,0,0,1,193.968,66.455Zm0-4.3v2.979a2.274,2.274,0,0,0,.778.894,2.082,2.082,0,0,0,1.109.314,1.964,1.964,0,0,0,1.621-.745,3.013,3.013,0,0,0,.613-1.953,2.946,2.946,0,0,0-.613-1.936,1.947,1.947,0,0,0-1.621-.761,2.005,2.005,0,0,0-1.109.331A2.153,2.153,0,0,0,193.968,62.153Zm12.924-2.184v7.348h-1.258v-.927a2.676,2.676,0,0,1-.893.778,2.615,2.615,0,0,1-1.242.3,2.475,2.475,0,0,1-1.9-.728,2.793,2.793,0,0,1-.662-1.953V59.968h1.258v4.617a1.894,1.894,0,0,0,.4,1.274,1.505,1.505,0,0,0,1.208.463,1.8,1.8,0,0,0,1.126-.381,1.957,1.957,0,0,0,.711-.993V59.968Zm2.553,5.494V61.027h-1.191V59.968h1.191V58.032h1.242v1.936h1.77v1.059h-1.77v4.3q0,1.026.976,1.026a1.7,1.7,0,0,0,.96-.3v1.158a2.434,2.434,0,0,1-1.159.248,2.105,2.105,0,0,1-1.472-.5A1.969,1.969,0,0,1,209.445,65.462Zm7.945-.165h1.291a1.6,1.6,0,0,0,1.738,1.125,2,2,0,0,0,1.092-.265.936.936,0,0,0,.414-.827q0-.745-1.092-1.026l-1.457-.381q-1.77-.447-1.77-1.936a1.9,1.9,0,0,1,.744-1.556,2.875,2.875,0,0,1,1.887-.612,3.118,3.118,0,0,1,1.919.546,2.438,2.438,0,0,1,.927,1.539h-1.241a1.5,1.5,0,0,0-1.622-1.043,1.724,1.724,0,0,0-.993.281.867.867,0,0,0-.413.778.753.753,0,0,0,.231.579,2.262,2.262,0,0,0,.795.347l1.423.348q1.87.5,1.87,2.052a1.95,1.95,0,0,1-.761,1.622,3.1,3.1,0,0,1-1.97.6,3.459,3.459,0,0,1-2.035-.579A2.341,2.341,0,0,1,217.39,65.3Zm12.744-4.4a3.975,3.975,0,0,1,.943,2.747,4.037,4.037,0,0,1-.943,2.764,3.078,3.078,0,0,1-2.433,1.059,3.126,3.126,0,0,1-2.449-1.059,4.083,4.083,0,0,1-.927-2.764,4.019,4.019,0,0,1,.927-2.747,3.1,3.1,0,0,1,2.449-1.076A3.057,3.057,0,0,1,230.134,60.895Zm-.894,4.733a3.187,3.187,0,0,0,.58-1.986,3.115,3.115,0,0,0-.58-1.969,1.81,1.81,0,0,0-1.539-.761,1.853,1.853,0,0,0-1.555.761,3.186,3.186,0,0,0-.563,1.969,3.259,3.259,0,0,0,.563,1.986,1.868,1.868,0,0,0,1.555.745A1.824,1.824,0,0,0,229.24,65.628Zm8.731-4.634a2.6,2.6,0,0,1,2.234-1.175,2.1,2.1,0,0,1,1.7.712,2.845,2.845,0,0,1,.613,1.92v4.865h-1.258V62.649a1.974,1.974,0,0,0-.348-1.241,1.218,1.218,0,0,0-1.042-.463,1.557,1.557,0,0,0-1.01.364,1.746,1.746,0,0,0-.612.943v5.064h-1.241V62.649a1.974,1.974,0,0,0-.348-1.241,1.218,1.218,0,0,0-1.042-.463,1.557,1.557,0,0,0-1.01.364,1.746,1.746,0,0,0-.612.943v5.064h-1.241V59.968H234v.861a2.168,2.168,0,0,1,1.986-1.009A2.057,2.057,0,0,1,237.971,60.994Zm11.283,4.121h1.175a2.824,2.824,0,0,1-.977,1.721,3.056,3.056,0,0,1-1.986.629,3.149,3.149,0,0,1-2.449-1.043,4.559,4.559,0,0,1,0-5.511,3.018,3.018,0,0,1,2.416-1.092,2.783,2.783,0,0,1,2.284.993,3.961,3.961,0,0,1,.811,2.615v.447h-5.2a2.87,2.87,0,0,0,.6,1.854,2.128,2.128,0,0,0,2.7.347A1.615,1.615,0,0,0,249.254,65.115Zm-1.8-4.236a1.917,1.917,0,0,0-1.39.546,2.5,2.5,0,0,0-.695,1.506h3.9a2.33,2.33,0,0,0-.48-1.456A1.6,1.6,0,0,0,247.45,60.878Zm5.081,4.584V61.027h-1.192V59.968h1.192V58.032h1.241v1.936h1.771v1.059h-1.771v4.3q0,1.026.976,1.026a1.7,1.7,0,0,0,.96-.3v1.158a2.432,2.432,0,0,1-1.158.248,2.106,2.106,0,0,1-1.473-.5A1.968,1.968,0,0,1,252.531,65.462Zm4.9,1.854V56.559h1.241v4.336a2.692,2.692,0,0,1,.91-.761,2.593,2.593,0,0,1,1.258-.314,2.473,2.473,0,0,1,1.9.728,2.751,2.751,0,0,1,.678,1.953v4.816h-1.257V62.7a1.819,1.819,0,0,0-.414-1.258,1.479,1.479,0,0,0-1.208-.48,1.846,1.846,0,0,0-1.159.4,1.961,1.961,0,0,0-.711.976v4.981Zm9.338-7.348v7.348h-1.242V59.968Zm-.067-2.78a.76.76,0,0,1,0,1.125.794.794,0,1,1,0-1.125Zm2.284,10.128V59.968h1.241v.927a2.692,2.692,0,0,1,.91-.761,2.6,2.6,0,0,1,1.258-.314,2.473,2.473,0,0,1,1.9.728,2.752,2.752,0,0,1,.679,1.953v4.816h-1.258V62.7a1.819,1.819,0,0,0-.414-1.258,1.477,1.477,0,0,0-1.208-.48,1.843,1.843,0,0,0-1.158.4,1.963,1.963,0,0,0-.712.976v4.981Zm12.912-.5v-.546a2.433,2.433,0,0,1-.86.712,2.565,2.565,0,0,1-1.192.281,2.929,2.929,0,0,1-2.416-1.092,4.069,4.069,0,0,1-.877-2.631,4.027,4.027,0,0,1,.877-2.631,2.929,2.929,0,0,1,2.416-1.092,2.565,2.565,0,0,1,1.192.281,2.292,2.292,0,0,1,.86.695v-.827h1.258v6.769a3.551,3.551,0,0,1-.91,2.648,3.168,3.168,0,0,1-2.367.91,3.4,3.4,0,0,1-2.151-.645,2.736,2.736,0,0,1-.993-1.787h1.225a1.721,1.721,0,0,0,1.919,1.374Q281.9,69.236,281.9,66.82Zm0-1.82V62.07a2.016,2.016,0,0,0-1.87-1.142,1.986,1.986,0,0,0-1.622.728,3.363,3.363,0,0,0,0,3.773A2.145,2.145,0,0,0,281.9,65Zm12.456,2.317h-1.191V66.77a2.154,2.154,0,0,1-.778.463,3.131,3.131,0,0,1-1.158.215,3,3,0,0,1-1.953-.645,2.1,2.1,0,0,1-.778-1.7,2.021,2.021,0,0,1,.811-1.655,3.112,3.112,0,0,1,2-.645,3.289,3.289,0,0,1,1.076.182,2.2,2.2,0,0,1,.778.414v-.927a1.544,1.544,0,0,0-.431-1.142,1.575,1.575,0,0,0-1.191-.43A1.435,1.435,0,0,0,290.04,61.9h-1.225a2.452,2.452,0,0,1,.927-1.506,3.268,3.268,0,0,1,3.873.116,2.478,2.478,0,0,1,.744,1.9Zm-1.191-1.82v-.761a1.3,1.3,0,0,0-.662-.645,2.156,2.156,0,0,0-1.059-.265,2.242,2.242,0,0,0-1.242.331,1.058,1.058,0,0,0-.513.943,1.113,1.113,0,0,0,.513.976,2.242,2.242,0,0,0,1.242.331,2.271,2.271,0,0,0,1.059-.248A1.374,1.374,0,0,0,293.168,65.5Zm4.554.96v.861h-1.258V56.559h1.258v4.27a2.232,2.232,0,0,1,.86-.712,2.548,2.548,0,0,1,1.209-.3,2.927,2.927,0,0,1,2.432,1.109,4.664,4.664,0,0,1,0,5.445,2.944,2.944,0,0,1-2.432,1.092,2.668,2.668,0,0,1-1.209-.281A2.366,2.366,0,0,1,297.722,66.455Zm0-4.3v2.979a2.267,2.267,0,0,0,.778.894,2.082,2.082,0,0,0,1.109.314,1.964,1.964,0,0,0,1.621-.745,3.013,3.013,0,0,0,.613-1.953,2.946,2.946,0,0,0-.613-1.936,1.947,1.947,0,0,0-1.621-.761,2.005,2.005,0,0,0-1.109.331A2.146,2.146,0,0,0,297.722,62.153ZM310.1,60.895a3.975,3.975,0,0,1,.943,2.747,4.037,4.037,0,0,1-.943,2.764,3.078,3.078,0,0,1-2.433,1.059,3.126,3.126,0,0,1-2.449-1.059,4.082,4.082,0,0,1-.927-2.764,4.019,4.019,0,0,1,.927-2.747,3.1,3.1,0,0,1,2.449-1.076A3.057,3.057,0,0,1,310.1,60.895Zm-.894,4.733a3.193,3.193,0,0,0,.58-1.986,3.121,3.121,0,0,0-.58-1.969,1.81,1.81,0,0,0-1.539-.761,1.853,1.853,0,0,0-1.555.761,3.186,3.186,0,0,0-.563,1.969,3.259,3.259,0,0,0,.563,1.986,1.868,1.868,0,0,0,1.555.745A1.824,1.824,0,0,0,309.2,65.628Zm9.376-5.66v7.348h-1.258v-.927a2.676,2.676,0,0,1-.893.778,2.615,2.615,0,0,1-1.242.3,2.475,2.475,0,0,1-1.9-.728,2.793,2.793,0,0,1-.662-1.953V59.968h1.258v4.617a1.894,1.894,0,0,0,.4,1.274,1.505,1.505,0,0,0,1.208.463,1.8,1.8,0,0,0,1.126-.381,1.956,1.956,0,0,0,.711-.993V59.968Zm2.553,5.494V61.027h-1.191V59.968h1.191V58.032h1.242v1.936h1.77v1.059h-1.77v4.3q0,1.026.976,1.026a1.7,1.7,0,0,0,.96-.3v1.158a2.434,2.434,0,0,1-1.159.248,2.105,2.105,0,0,1-1.472-.5A1.969,1.969,0,0,1,321.134,65.462Zm8.9,0V61.027h-1.191V59.968h1.191V58.032h1.241v1.936h1.771v1.059H331.28v4.3q0,1.026.977,1.026a1.7,1.7,0,0,0,.96-.3v1.158a2.434,2.434,0,0,1-1.159.248,2.106,2.106,0,0,1-1.473-.5A1.968,1.968,0,0,1,330.039,65.462Zm4.9,1.854V56.559h1.241v4.336a2.692,2.692,0,0,1,.91-.761,2.6,2.6,0,0,1,1.258-.314,2.472,2.472,0,0,1,1.9.728,2.747,2.747,0,0,1,.679,1.953v4.816h-1.258V62.7a1.819,1.819,0,0,0-.414-1.258,1.476,1.476,0,0,0-1.208-.48,1.843,1.843,0,0,0-1.158.4,1.969,1.969,0,0,0-.712.976v4.981Zm9.338-7.348v7.348h-1.241V59.968Zm-.066-2.78a.762.762,0,0,1,0,1.125.794.794,0,1,1,0-1.125Zm1.671,8.109h1.291a1.6,1.6,0,0,0,1.737,1.125,2,2,0,0,0,1.093-.265.938.938,0,0,0,.413-.827q0-.745-1.092-1.026l-1.456-.381q-1.771-.447-1.771-1.936a1.9,1.9,0,0,1,.745-1.556,2.87,2.87,0,0,1,1.886-.612,3.119,3.119,0,0,1,1.92.546,2.447,2.447,0,0,1,.927,1.539h-1.241a1.5,1.5,0,0,0-1.622-1.043,1.724,1.724,0,0,0-.993.281.865.865,0,0,0-.414.778.75.75,0,0,0,.232.579,2.247,2.247,0,0,0,.794.347l1.423.348q1.871.5,1.87,2.052a1.948,1.948,0,0,1-.761,1.622,3.1,3.1,0,0,1-1.969.6,3.462,3.462,0,0,1-2.036-.579A2.34,2.34,0,0,1,345.887,65.3ZM361.82,66.82v-.546a2.445,2.445,0,0,1-.861.712,2.561,2.561,0,0,1-1.191.281,2.931,2.931,0,0,1-2.417-1.092,4.074,4.074,0,0,1-.877-2.631,4.033,4.033,0,0,1,.877-2.631,2.931,2.931,0,0,1,2.417-1.092,2.561,2.561,0,0,1,1.191.281,2.3,2.3,0,0,1,.861.695v-.827h1.257v6.769a3.551,3.551,0,0,1-.91,2.648,3.166,3.166,0,0,1-2.366.91,3.4,3.4,0,0,1-2.152-.645,2.745,2.745,0,0,1-.993-1.787h1.225a1.722,1.722,0,0,0,1.92,1.374Q361.82,69.236,361.82,66.82Zm0-1.82V62.07a2.018,2.018,0,0,0-1.87-1.142,1.984,1.984,0,0,0-1.622.728,3.363,3.363,0,0,0,0,3.773A2.145,2.145,0,0,0,361.82,65Zm9.333-5.031v7.348h-1.258v-.927a2.68,2.68,0,0,1-.894.778,2.608,2.608,0,0,1-1.241.3,2.475,2.475,0,0,1-1.9-.728,2.793,2.793,0,0,1-.662-1.953V59.968h1.258v4.617a1.894,1.894,0,0,0,.4,1.274,1.505,1.505,0,0,0,1.208.463,1.8,1.8,0,0,0,1.126-.381,1.956,1.956,0,0,0,.711-.993V59.968Zm4.374,10.161H374.3l1.109-2.764-2.863-7.4h1.34l2.168,5.792,2.135-5.792h1.291ZM30.559,85.462V81.027H29.367V79.968h1.191V78.032H31.8v1.936h1.771v1.059H31.8v4.3q0,1.026.976,1.026a1.7,1.7,0,0,0,.96-.3v1.158a2.433,2.433,0,0,1-1.158.248,2.106,2.106,0,0,1-1.473-.5A1.968,1.968,0,0,1,30.559,85.462Zm4.9,1.854V76.559H36.7v4.336a2.689,2.689,0,0,1,.91-.761,2.6,2.6,0,0,1,1.258-.314,2.474,2.474,0,0,1,1.9.728,2.75,2.75,0,0,1,.678,1.953v4.816H40.2V82.7a1.82,1.82,0,0,0-.414-1.258,1.478,1.478,0,0,0-1.208-.48,1.844,1.844,0,0,0-1.159.4,1.964,1.964,0,0,0-.712.976v4.981Zm13.425,0H47.7V86.77a2.149,2.149,0,0,1-.778.463,3.132,3.132,0,0,1-1.159.215,3,3,0,0,1-1.953-.645,2.105,2.105,0,0,1-.778-1.7,2.022,2.022,0,0,1,.811-1.655,3.114,3.114,0,0,1,2-.645,3.287,3.287,0,0,1,1.076.182,2.194,2.194,0,0,1,.778.414v-.927a1.544,1.544,0,0,0-.43-1.142,1.577,1.577,0,0,0-1.191-.43A1.434,1.434,0,0,0,44.57,81.9H43.345a2.447,2.447,0,0,1,.927-1.506,2.919,2.919,0,0,1,1.82-.579,2.89,2.89,0,0,1,2.052.695,2.476,2.476,0,0,1,.745,1.9ZM47.7,85.5v-.761a1.3,1.3,0,0,0-.662-.645,2.156,2.156,0,0,0-1.059-.265,2.24,2.24,0,0,0-1.241.331,1.058,1.058,0,0,0-.513.943,1.113,1.113,0,0,0,.513.976,2.24,2.24,0,0,0,1.241.331,2.27,2.27,0,0,0,1.059-.248A1.371,1.371,0,0,0,47.7,85.5Zm3.612-.033V81.027H50.118V79.968H51.31V78.032h1.241v1.936h1.771v1.059H52.551v4.3q0,1.026.976,1.026a1.7,1.7,0,0,0,.96-.3v1.158a2.433,2.433,0,0,1-1.158.248,2.106,2.106,0,0,1-1.473-.5A1.968,1.968,0,0,1,51.31,85.462Zm13.77-4.468a2.6,2.6,0,0,1,2.234-1.175,2.1,2.1,0,0,1,1.7.712,2.844,2.844,0,0,1,.612,1.92v4.865H68.373V82.649a1.977,1.977,0,0,0-.348-1.241,1.22,1.22,0,0,0-1.043-.463,1.556,1.556,0,0,0-1.01.364,1.749,1.749,0,0,0-.612.943v5.064H64.12V82.649a1.976,1.976,0,0,0-.348-1.241,1.22,1.22,0,0,0-1.043-.463,1.556,1.556,0,0,0-1.01.364,1.749,1.749,0,0,0-.612.943v5.064H59.867V79.968h1.241v.86a2.168,2.168,0,0,1,1.986-1.009A2.057,2.057,0,0,1,65.08,80.994Zm11.978,6.322H75.866V86.77a2.148,2.148,0,0,1-.778.463,3.132,3.132,0,0,1-1.158.215,3,3,0,0,1-1.953-.645,2.106,2.106,0,0,1-.778-1.7,2.022,2.022,0,0,1,.811-1.655,3.114,3.114,0,0,1,2-.645,3.287,3.287,0,0,1,1.076.182,2.194,2.194,0,0,1,.778.414v-.927a1.543,1.543,0,0,0-.43-1.142,1.577,1.577,0,0,0-1.191-.43,1.434,1.434,0,0,0-1.506,1.01H71.514a2.447,2.447,0,0,1,.927-1.506,3.267,3.267,0,0,1,3.872.116,2.476,2.476,0,0,1,.745,1.9ZM75.866,85.5v-.761a1.3,1.3,0,0,0-.662-.645,2.156,2.156,0,0,0-1.059-.265,2.241,2.241,0,0,0-1.241.331,1.058,1.058,0,0,0-.513.943,1.113,1.113,0,0,0,.513.976,2.241,2.241,0,0,0,1.241.331,2.27,2.27,0,0,0,1.059-.248A1.371,1.371,0,0,0,75.866,85.5Zm8.145,1.82-2.8-3.393-.794.761v2.631H79.179V76.559h1.241v6.669l3.359-3.26h1.638l-3.31,3.177,3.426,4.17Zm7.268-2.2h1.175a2.822,2.822,0,0,1-.976,1.721,3.058,3.058,0,0,1-1.986.629,3.15,3.15,0,0,1-2.449-1.043,4.559,4.559,0,0,1,0-5.511,3.018,3.018,0,0,1,2.416-1.092,2.782,2.782,0,0,1,2.284.993,3.963,3.963,0,0,1,.811,2.615v.447h-5.2a2.869,2.869,0,0,0,.6,1.854,2.127,2.127,0,0,0,2.7.347A1.612,1.612,0,0,0,91.279,85.115Zm-1.8-4.236a1.918,1.918,0,0,0-1.39.546,2.5,2.5,0,0,0-.7,1.506H91.3a2.331,2.331,0,0,0-.48-1.456A1.6,1.6,0,0,0,89.476,80.878ZM93.629,85.3H94.92a1.6,1.6,0,0,0,1.738,1.125,2,2,0,0,0,1.092-.265.937.937,0,0,0,.414-.827q0-.745-1.092-1.026l-1.456-.381q-1.771-.447-1.771-1.936a1.9,1.9,0,0,1,.745-1.556,2.872,2.872,0,0,1,1.887-.612,3.12,3.12,0,0,1,1.92.546,2.442,2.442,0,0,1,.927,1.539H98.081a1.5,1.5,0,0,0-1.622-1.043,1.723,1.723,0,0,0-.993.281.865.865,0,0,0-.414.778.752.752,0,0,0,.232.579,2.252,2.252,0,0,0,.794.348L97.5,83.2q1.87.5,1.87,2.052a1.949,1.949,0,0,1-.761,1.622,3.1,3.1,0,0,1-1.969.6,3.461,3.461,0,0,1-2.035-.579A2.34,2.34,0,0,1,93.629,85.3Zm16.33-4.3a2.6,2.6,0,0,1,2.234-1.175,2.1,2.1,0,0,1,1.705.712,2.844,2.844,0,0,1,.612,1.92v4.865h-1.258V82.649a1.981,1.981,0,0,0-.347-1.241,1.222,1.222,0,0,0-1.043-.463,1.555,1.555,0,0,0-1.009.364,1.753,1.753,0,0,0-.613.943v5.064H109V82.649a1.981,1.981,0,0,0-.347-1.241,1.222,1.222,0,0,0-1.043-.463,1.553,1.553,0,0,0-1.009.364,1.753,1.753,0,0,0-.613.943v5.064h-1.241V79.968h1.241v.86a2.168,2.168,0,0,1,1.986-1.009A2.057,2.057,0,0,1,109.959,80.994Zm11.283,4.121h1.175a2.822,2.822,0,0,1-.976,1.721,3.06,3.06,0,0,1-1.986.629A3.152,3.152,0,0,1,117,86.422a4.562,4.562,0,0,1,0-5.511,3.02,3.02,0,0,1,2.417-1.092,2.781,2.781,0,0,1,2.283.993,3.961,3.961,0,0,1,.811,2.615v.447h-5.2a2.87,2.87,0,0,0,.6,1.854,2.127,2.127,0,0,0,2.7.347A1.611,1.611,0,0,0,121.242,85.115Zm-1.8-4.236a1.919,1.919,0,0,0-1.39.546,2.5,2.5,0,0,0-.695,1.506h3.906a2.336,2.336,0,0,0-.48-1.456A1.6,1.6,0,0,0,119.438,80.878Zm8.734,4.584V81.027H126.98V79.968h1.192V78.032h1.241v1.936h1.77v1.059h-1.77v4.3q0,1.026.976,1.026a1.7,1.7,0,0,0,.96-.3v1.158a2.432,2.432,0,0,1-1.158.248,2.106,2.106,0,0,1-1.473-.5A1.968,1.968,0,0,1,128.172,85.462Zm4.9,1.854V76.559h1.242v4.336a2.682,2.682,0,0,1,.91-.761,2.592,2.592,0,0,1,1.257-.314,2.475,2.475,0,0,1,1.9.728,2.751,2.751,0,0,1,.678,1.953v4.816h-1.258V82.7a1.823,1.823,0,0,0-.413-1.258,1.479,1.479,0,0,0-1.208-.48,1.843,1.843,0,0,0-1.159.4,1.961,1.961,0,0,0-.711.976v4.981Zm9.338-7.348v7.348h-1.241V79.968Zm-.066-2.78a.762.762,0,0,1,0,1.125.794.794,0,1,1,0-1.125Zm2.284,10.128V79.968h1.241v.927a2.682,2.682,0,0,1,.91-.761,2.593,2.593,0,0,1,1.258-.314,2.475,2.475,0,0,1,1.9.728,2.751,2.751,0,0,1,.678,1.953v4.816h-1.257V82.7a1.819,1.819,0,0,0-.414-1.258,1.479,1.479,0,0,0-1.208-.48,1.843,1.843,0,0,0-1.159.4,1.961,1.961,0,0,0-.711.976v4.981Zm12.929,0-2.8-3.393-.8.761v2.631h-1.241V76.559h1.241v6.669l3.36-3.26h1.638l-3.31,3.177,3.426,4.17Zm6.5,0V76.559H165.3v4.336a2.692,2.692,0,0,1,.91-.761,2.6,2.6,0,0,1,1.258-.314,2.472,2.472,0,0,1,1.9.728,2.747,2.747,0,0,1,.679,1.953v4.816H168.79V82.7a1.819,1.819,0,0,0-.414-1.258,1.476,1.476,0,0,0-1.208-.48,1.843,1.843,0,0,0-1.158.4,1.969,1.969,0,0,0-.712.976v4.981Zm12.731-2.2h1.174a2.818,2.818,0,0,1-.976,1.721,3.056,3.056,0,0,1-1.986.629,3.149,3.149,0,0,1-2.449-1.043,4.559,4.559,0,0,1,0-5.511,3.018,3.018,0,0,1,2.416-1.092,2.783,2.783,0,0,1,2.284.993,3.967,3.967,0,0,1,.811,2.615v.447h-5.2a2.87,2.87,0,0,0,.6,1.854,2.128,2.128,0,0,0,2.7.347A1.615,1.615,0,0,0,176.788,85.115Zm-1.8-4.236a1.917,1.917,0,0,0-1.39.546,2.5,2.5,0,0,0-.695,1.506h3.9a2.33,2.33,0,0,0-.48-1.456A1.6,1.6,0,0,0,174.984,80.878Zm3.858-.463,1.01-1.7a.934.934,0,0,1-.53-.265.837.837,0,0,1-.2-.563.851.851,0,0,1,.249-.629.907.907,0,0,1,.645-.248.826.826,0,0,1,.629.265.942.942,0,0,1,.248.7,2.145,2.145,0,0,1-.364,1.043l-.844,1.407Zm2.331,4.882h1.291a1.6,1.6,0,0,0,1.738,1.125,2,2,0,0,0,1.092-.265.936.936,0,0,0,.414-.827q0-.745-1.092-1.026l-1.457-.381q-1.77-.447-1.77-1.936a1.9,1.9,0,0,1,.744-1.556,2.875,2.875,0,0,1,1.887-.612,3.123,3.123,0,0,1,1.92.546,2.441,2.441,0,0,1,.926,1.539h-1.241A1.5,1.5,0,0,0,184,80.862a1.724,1.724,0,0,0-.993.281.867.867,0,0,0-.413.778.753.753,0,0,0,.231.579,2.262,2.262,0,0,0,.795.348l1.423.347q1.87.5,1.87,2.052a1.95,1.95,0,0,1-.761,1.622,3.1,3.1,0,0,1-1.97.6,3.461,3.461,0,0,1-2.035-.579A2.341,2.341,0,0,1,181.173,85.3Zm15.933,1.523v-.546a2.432,2.432,0,0,1-.86.712,2.565,2.565,0,0,1-1.192.281,2.929,2.929,0,0,1-2.416-1.092,4.069,4.069,0,0,1-.877-2.631,4.027,4.027,0,0,1,.877-2.631,2.929,2.929,0,0,1,2.416-1.092,2.565,2.565,0,0,1,1.192.281,2.292,2.292,0,0,1,.86.695v-.827h1.258v6.769a3.551,3.551,0,0,1-.91,2.648,3.168,3.168,0,0,1-2.367.91,3.4,3.4,0,0,1-2.151-.645,2.736,2.736,0,0,1-.993-1.787h1.225a1.721,1.721,0,0,0,1.919,1.374Q197.106,89.236,197.106,86.82Zm0-1.82V82.07a2.016,2.016,0,0,0-1.87-1.142,1.986,1.986,0,0,0-1.622.728,3.363,3.363,0,0,0,0,3.773,2.145,2.145,0,0,0,3.492-.43Zm8.754-4.1a3.975,3.975,0,0,1,.943,2.747,4.037,4.037,0,0,1-.943,2.764,3.077,3.077,0,0,1-2.432,1.059,3.128,3.128,0,0,1-2.45-1.059,4.082,4.082,0,0,1-.926-2.764,4.019,4.019,0,0,1,.926-2.747,3.107,3.107,0,0,1,2.45-1.076A3.056,3.056,0,0,1,205.86,80.895Zm-.893,4.733a3.192,3.192,0,0,0,.579-1.986,3.121,3.121,0,0,0-.579-1.969,1.813,1.813,0,0,0-1.539-.761,1.855,1.855,0,0,0-1.556.761,3.186,3.186,0,0,0-.563,1.969,3.259,3.259,0,0,0,.563,1.986,1.869,1.869,0,0,0,1.556.745A1.827,1.827,0,0,0,204.967,85.628Zm4.758-5.66v7.348h-1.241V79.968Zm-.066-2.78a.762.762,0,0,1,0,1.125.794.794,0,1,1,0-1.125Zm2.283,10.128V79.968h1.241v.927a2.7,2.7,0,0,1,.911-.761,2.592,2.592,0,0,1,1.257-.314,2.475,2.475,0,0,1,1.9.728,2.751,2.751,0,0,1,.678,1.953v4.816h-1.258V82.7a1.823,1.823,0,0,0-.413-1.258,1.479,1.479,0,0,0-1.208-.48,1.843,1.843,0,0,0-1.159.4,1.969,1.969,0,0,0-.712.976v4.981Zm12.913-.5v-.546a2.445,2.445,0,0,1-.861.712,2.561,2.561,0,0,1-1.191.281,2.928,2.928,0,0,1-2.416-1.092,4.07,4.07,0,0,1-.878-2.631,4.028,4.028,0,0,1,.878-2.631,2.928,2.928,0,0,1,2.416-1.092,2.561,2.561,0,0,1,1.191.281,2.3,2.3,0,0,1,.861.695v-.827h1.257v6.769a3.551,3.551,0,0,1-.91,2.648,3.166,3.166,0,0,1-2.366.91,3.4,3.4,0,0,1-2.152-.645,2.745,2.745,0,0,1-.993-1.787h1.225a1.722,1.722,0,0,0,1.92,1.374Q224.855,89.236,224.855,86.82Zm0-1.82V82.07a2.018,2.018,0,0,0-1.87-1.142,1.984,1.984,0,0,0-1.622.728,3.363,3.363,0,0,0,0,3.773,2.145,2.145,0,0,0,3.492-.43Zm8.368,1.456v3.674h-1.241V79.968h1.241v.86a2.412,2.412,0,0,1,.861-.712,2.545,2.545,0,0,1,1.208-.3,2.927,2.927,0,0,1,2.432,1.109,4.2,4.2,0,0,1,.878,2.714,4.263,4.263,0,0,1-.878,2.73,2.945,2.945,0,0,1-2.432,1.092,2.664,2.664,0,0,1-1.208-.281A2.568,2.568,0,0,1,233.223,86.455Zm0-4.3v2.979a2.274,2.274,0,0,0,.778.894,2.085,2.085,0,0,0,1.109.314,1.967,1.967,0,0,0,1.622-.745,3.019,3.019,0,0,0,.612-1.953,2.951,2.951,0,0,0-.612-1.936,1.95,1.95,0,0,0-1.622-.761,2.008,2.008,0,0,0-1.109.331A2.153,2.153,0,0,0,233.223,82.153Zm8.307-5.594V87.316h-1.241V76.559Zm7.546,10.757h-1.192V86.77a2.14,2.14,0,0,1-.777.463,3.136,3.136,0,0,1-1.159.215,3,3,0,0,1-1.953-.645,2.106,2.106,0,0,1-.777-1.7,2.021,2.021,0,0,1,.811-1.655,3.112,3.112,0,0,1,2-.645,3.289,3.289,0,0,1,1.076.182,2.185,2.185,0,0,1,.777.414v-.927a1.543,1.543,0,0,0-.43-1.142,1.576,1.576,0,0,0-1.191-.43,1.433,1.433,0,0,0-1.506,1.01h-1.225a2.443,2.443,0,0,1,.927-1.506,3.267,3.267,0,0,1,3.872.116,2.475,2.475,0,0,1,.745,1.9Zm-1.192-1.82v-.761a1.3,1.3,0,0,0-.661-.645,2.157,2.157,0,0,0-1.06-.265,2.241,2.241,0,0,0-1.241.331,1.058,1.058,0,0,0-.513.943,1.113,1.113,0,0,0,.513.976,2.241,2.241,0,0,0,1.241.331,2.272,2.272,0,0,0,1.06-.248A1.367,1.367,0,0,0,247.884,85.5Zm3.711.91a4.583,4.583,0,0,1,0-5.527,3.057,3.057,0,0,1,2.416-1.059,2.939,2.939,0,0,1,1.969.645,2.823,2.823,0,0,1,.977,1.721h-1.275a1.516,1.516,0,0,0-.579-.927,1.683,1.683,0,0,0-1.092-.348,1.823,1.823,0,0,0-1.523.761,3.731,3.731,0,0,0,0,3.939,1.823,1.823,0,0,0,1.523.761,1.74,1.74,0,0,0,1.092-.331,1.587,1.587,0,0,0,.579-.943h1.275a2.824,2.824,0,0,1-.977,1.721,2.939,2.939,0,0,1-1.969.645A3.057,3.057,0,0,1,251.6,86.406Zm11.589-1.291h1.175a2.818,2.818,0,0,1-.976,1.721,3.056,3.056,0,0,1-1.986.629,3.149,3.149,0,0,1-2.449-1.043,4.559,4.559,0,0,1,0-5.511,3.018,3.018,0,0,1,2.416-1.092,2.783,2.783,0,0,1,2.284.993,3.967,3.967,0,0,1,.811,2.615v.447h-5.2a2.87,2.87,0,0,0,.6,1.854,2.128,2.128,0,0,0,2.7.347A1.609,1.609,0,0,0,263.184,85.115Zm-1.8-4.236a1.917,1.917,0,0,0-1.39.546,2.5,2.5,0,0,0-.7,1.506H263.2a2.33,2.33,0,0,0-.48-1.456A1.6,1.6,0,0,0,261.381,80.878Zm4.153,4.419h1.291a1.6,1.6,0,0,0,1.738,1.125,2,2,0,0,0,1.092-.265.936.936,0,0,0,.414-.827q0-.745-1.093-1.026l-1.456-.381q-1.77-.447-1.771-1.936a1.9,1.9,0,0,1,.745-1.556,2.871,2.871,0,0,1,1.887-.612,3.117,3.117,0,0,1,1.919.546,2.438,2.438,0,0,1,.927,1.539h-1.241a1.5,1.5,0,0,0-1.622-1.043,1.724,1.724,0,0,0-.993.281.865.865,0,0,0-.414.778.754.754,0,0,0,.232.579,2.256,2.256,0,0,0,.794.348l1.424.347q1.869.5,1.87,2.052a1.948,1.948,0,0,1-.762,1.622,3.1,3.1,0,0,1-1.969.6,3.459,3.459,0,0,1-2.035-.579A2.338,2.338,0,0,1,265.534,85.3Zm7.134,1.853a.964.964,0,0,1,0-1.291.876.876,0,0,1,.645-.265.8.8,0,0,1,.612.265.918.918,0,0,1,0,1.291.83.83,0,0,1-.612.248A.907.907,0,0,1,272.668,87.15Zm12.124-5.1a2.463,2.463,0,0,1,1.836,2.4,2.6,2.6,0,0,1-.893,2.118,3.767,3.767,0,0,1-2.483.745h-3.673V77.155h3.343a3.878,3.878,0,0,1,2.465.695,2.385,2.385,0,0,1,.894,2,2.346,2.346,0,0,1-.43,1.44A2.03,2.03,0,0,1,284.792,82.053Zm-3.939-.48h2.069q2.1,0,2.1-1.655,0-1.622-2.1-1.622h-2.069Zm0,1.092v3.508h2.4a2.339,2.339,0,0,0,1.556-.463,1.632,1.632,0,0,0,.546-1.291,1.6,1.6,0,0,0-.546-1.291,2.339,2.339,0,0,0-1.556-.463Zm12.213,2.449h1.175a2.823,2.823,0,0,1-.976,1.721,3.06,3.06,0,0,1-1.986.629,3.15,3.15,0,0,1-2.449-1.043,4.559,4.559,0,0,1,0-5.511,3.018,3.018,0,0,1,2.416-1.092,2.783,2.783,0,0,1,2.284.993,3.967,3.967,0,0,1,.811,2.615v.447h-5.2a2.87,2.87,0,0,0,.6,1.854,2.127,2.127,0,0,0,2.7.347A1.611,1.611,0,0,0,293.066,85.115Zm-1.8-4.236a1.919,1.919,0,0,0-1.39.546,2.506,2.506,0,0,0-.7,1.506h3.906a2.33,2.33,0,0,0-.48-1.456A1.6,1.6,0,0,0,291.262,80.878ZM296,87.316V79.968h1.241v.927a2.692,2.692,0,0,1,.91-.761,2.6,2.6,0,0,1,1.258-.314,2.473,2.473,0,0,1,1.9.728,2.752,2.752,0,0,1,.679,1.953v4.816h-1.258V82.7a1.819,1.819,0,0,0-.414-1.258,1.477,1.477,0,0,0-1.208-.48,1.843,1.843,0,0,0-1.158.4,1.963,1.963,0,0,0-.712.976v4.981Zm12.73-2.2H309.9a2.822,2.822,0,0,1-.976,1.721,3.06,3.06,0,0,1-1.986.629,3.149,3.149,0,0,1-2.449-1.043,4.559,4.559,0,0,1,0-5.511,3.018,3.018,0,0,1,2.416-1.092,2.783,2.783,0,0,1,2.284.993A3.967,3.967,0,0,1,310,83.427v.447h-5.2a2.87,2.87,0,0,0,.6,1.854,2.127,2.127,0,0,0,2.7.347A1.611,1.611,0,0,0,308.726,85.115Zm-1.8-4.236a1.919,1.919,0,0,0-1.39.546,2.506,2.506,0,0,0-.7,1.506h3.906a2.33,2.33,0,0,0-.48-1.456A1.6,1.6,0,0,0,306.922,80.878Zm8.408-4.3V77.7a1.431,1.431,0,0,0-.778-.2,1.178,1.178,0,0,0-.894.347,1.433,1.433,0,0,0-.314.993v1.125H315v1.059h-1.655v6.289h-1.225V81.027h-1.241V79.968h1.241V78.744a2.3,2.3,0,0,1,.629-1.7,2.2,2.2,0,0,1,1.622-.629A2.494,2.494,0,0,1,315.33,76.576Zm2.351,3.393v7.348H316.44V79.968Zm-.066-2.78a.762.762,0,0,1,0,1.125.794.794,0,1,1,0-1.125Zm2.68,9.218a4.587,4.587,0,0,1,0-5.527,3.058,3.058,0,0,1,2.416-1.059,2.942,2.942,0,0,1,1.97.645,2.822,2.822,0,0,1,.976,1.721h-1.274a1.515,1.515,0,0,0-.579-.927,1.684,1.684,0,0,0-1.093-.348,1.823,1.823,0,0,0-1.522.761,3.726,3.726,0,0,0,0,3.939,1.823,1.823,0,0,0,1.522.761,1.741,1.741,0,0,0,1.093-.331,1.587,1.587,0,0,0,.579-.943h1.274a2.823,2.823,0,0,1-.976,1.721,2.942,2.942,0,0,1-1.97.645A3.058,3.058,0,0,1,320.3,86.406Zm8.23-6.437v7.348h-1.241V79.968Zm-.066-2.78a.762.762,0,0,1,0,1.125.794.794,0,1,1,0-1.125Zm7.612,10.128h-1.192V86.77a2.139,2.139,0,0,1-.777.463,3.136,3.136,0,0,1-1.159.215,3,3,0,0,1-1.953-.645,2.106,2.106,0,0,1-.777-1.7,2.021,2.021,0,0,1,.811-1.655,3.113,3.113,0,0,1,2-.645,3.289,3.289,0,0,1,1.076.182,2.185,2.185,0,0,1,.777.414v-.927a1.543,1.543,0,0,0-.43-1.142,1.576,1.576,0,0,0-1.191-.43,1.433,1.433,0,0,0-1.506,1.01h-1.225a2.443,2.443,0,0,1,.927-1.506,3.267,3.267,0,0,1,3.872.116,2.475,2.475,0,0,1,.745,1.9Zm-1.192-1.82v-.761a1.3,1.3,0,0,0-.662-.645,2.156,2.156,0,0,0-1.059-.265,2.241,2.241,0,0,0-1.241.331,1.058,1.058,0,0,0-.513.943,1.113,1.113,0,0,0,.513.976,2.241,2.241,0,0,0,1.241.331,2.271,2.271,0,0,0,1.059-.248A1.37,1.37,0,0,0,334.879,85.5Zm7.087-5.56v1.274a1.483,1.483,0,0,0-.828-.2,1.667,1.667,0,0,0-1.059.364,1.89,1.89,0,0,0-.645,1.009v4.932h-1.242V79.968h1.242v.96a2.085,2.085,0,0,1,.728-.794,2,2,0,0,1,1.092-.314A1.668,1.668,0,0,1,341.966,79.935Zm3.711,10.194h-1.224l1.108-2.764-2.862-7.4h1.34l2.168,5.792,2.135-5.792h1.291Zm5.032-2.979a.964.964,0,0,1,0-1.291.88.88,0,0,1,.646-.265.8.8,0,0,1,.612.265.918.918,0,0,1,0,1.291.83.83,0,0,1-.612.248A.911.911,0,0,1,350.709,87.15Zm0-5.2a.964.964,0,0,1,0-1.291.88.88,0,0,1,.646-.265.8.8,0,0,1,.612.265.918.918,0,0,1,0,1.291.83.83,0,0,1-.612.248A.911.911,0,0,1,350.709,81.954Zm12.885,4.071a3.221,3.221,0,0,1-2.73,1.44,3.264,3.264,0,0,1-2.747-1.44,6.364,6.364,0,0,1-1.043-3.79,6.288,6.288,0,0,1,1.043-3.773,3.254,3.254,0,0,1,2.747-1.456,3.211,3.211,0,0,1,2.73,1.456,6.21,6.21,0,0,1,1.06,3.773A6.285,6.285,0,0,1,363.594,86.025Zm-2.73-7.844a2.071,2.071,0,0,0-1.87,1.109,7.039,7.039,0,0,0,0,5.891,2.117,2.117,0,0,0,3.723,0,5.759,5.759,0,0,0,.662-2.946,5.667,5.667,0,0,0-.662-2.929A2.053,2.053,0,0,0,360.864,78.181ZM372.3,79.968l-2.582,3.541,2.731,3.806h-1.407l-2.036-2.863-2.052,2.863h-1.34l2.714-3.757-2.565-3.591h1.423L369.04,82.6l1.9-2.631Zm1.341,7.182a.964.964,0,0,1,0-1.291.879.879,0,0,1,.645-.265.808.808,0,0,1,.613.265.921.921,0,0,1,0,1.291.834.834,0,0,1-.613.248A.91.91,0,0,1,373.642,87.15Zm2.828,0a.964.964,0,0,1,0-1.291.88.88,0,0,1,.646-.265.807.807,0,0,1,.612.265.918.918,0,0,1,0,1.291.833.833,0,0,1-.612.248A.911.911,0,0,1,376.47,87.15Zm2.828,0a.964.964,0,0,1,0-1.291.88.88,0,0,1,.646-.265.806.806,0,0,1,.612.265.918.918,0,0,1,0,1.291.832.832,0,0,1-.612.248A.911.911,0,0,1,379.3,87.15Z" fill="#111" opacity="0.4"/>
  </g>
</svg>
