<svg xmlns="http://www.w3.org/2000/svg" width="716.158" height="562.359" viewBox="0 0 716.158 562.359">
  <g id="Frame_547" data-name="Frame 547" transform="translate(-0.339 -0.227)">
    <path id="Path_63" data-name="Path 63" d="M.339,41.306H716.5v-34A7.082,7.082,0,0,0,709.414.227H7.421A7.083,7.083,0,0,0,.339,7.309Z" fill="#e3e3e3"/>
    <path id="Path_64" data-name="Path 64" d="M.339,25.6H716.5v514.2a7.083,7.083,0,0,1-7.083,7.083H7.421a7.083,7.083,0,0,1-7.083-7.083Z" transform="translate(0 15.71)" fill="#fff"/>
    <rect id="Rectangle_71" data-name="Rectangle 71" width="79.325" height="38.246" rx="11.81" transform="translate(49.209 223.328)" fill="none" stroke="#e7e7e7" stroke-width="0.875"/>
    <path id="Path_65" data-name="Path 65" d="M50.4,155.138H47.388v5.191H45.03V146.413H50.4a5.023,5.023,0,0,1,3.468,1.132,4.683,4.683,0,0,1,0,6.459A5.016,5.016,0,0,1,50.4,155.138Zm2.425-4.351a2.3,2.3,0,0,0-.635-1.7,2.488,2.488,0,0,0-1.836-.635H47.388V153.1h2.969a2.455,2.455,0,0,0,1.813-.635A2.228,2.228,0,0,0,52.827,150.787Zm11.5.725a6.025,6.025,0,0,1,0,7.57,4.4,4.4,0,0,1-3.445,1.474,4.47,4.47,0,0,1-3.468-1.474,6.106,6.106,0,0,1,0-7.57,4.465,4.465,0,0,1,3.468-1.474A4.395,4.395,0,0,1,64.327,151.512ZM62.74,157.7a4.069,4.069,0,0,0,.657-2.4,3.96,3.96,0,0,0-.657-2.379,2.323,2.323,0,0,0-3.717,0,3.96,3.96,0,0,0-.657,2.379,4.069,4.069,0,0,0,.657,2.4,2.358,2.358,0,0,0,3.717,0Zm7.306-12.1v14.732H67.78V145.6Zm5.069,0v14.732H72.849V145.6Z" transform="translate(27.675 90.02)" fill="#262523"/>
    <rect id="Rectangle_72" data-name="Rectangle 72" width="126.07" height="38.246" rx="11.81" transform="translate(49.209 163.836)" fill="none" stroke="#e7e7e7" stroke-width="0.875"/>
    <path id="Path_66" data-name="Path 66" d="M52.782,123.587H51.1l-3.83-9.678v9.678H45.03V109.671h2.7l4.238,10.7,4.193-10.7h2.629v13.916H56.521v-9.678Zm15.166-3.128h2.085a3.918,3.918,0,0,1-1.383,2.448,4.316,4.316,0,0,1-2.856.907,4.475,4.475,0,0,1-3.445-1.451,6.033,6.033,0,0,1,.023-7.547,4.307,4.307,0,0,1,3.377-1.519,3.955,3.955,0,0,1,3.218,1.36,5.321,5.321,0,0,1,1.156,3.6v.816H63.256a3.212,3.212,0,0,0,.725,2.086,2.375,2.375,0,0,0,1.813.748A1.928,1.928,0,0,0,67.948,120.459ZM65.772,115.2a2.321,2.321,0,0,0-1.609.589,2.817,2.817,0,0,0-.838,1.632H67.88a2.386,2.386,0,0,0-.567-1.587A1.921,1.921,0,0,0,65.772,115.2Zm13.869-.567a3.768,3.768,0,0,1,2.992-1.338,2.973,2.973,0,0,1,2.4,1.02,4.022,4.022,0,0,1,.861,2.72v6.55H83.629V117.4a2.35,2.35,0,0,0-.431-1.5,1.411,1.411,0,0,0-1.224-.567,1.9,1.9,0,0,0-1.156.385,1.745,1.745,0,0,0-.635,1.111v6.754H77.918V117.4a2.35,2.35,0,0,0-.431-1.5,1.411,1.411,0,0,0-1.224-.567,1.9,1.9,0,0,0-1.156.385,1.745,1.745,0,0,0-.635,1.111v6.754H72.207V113.523h2.266v.839a2.929,2.929,0,0,1,2.516-1.065,3.163,3.163,0,0,1,1.541.385A2.975,2.975,0,0,1,79.641,114.634Zm11.189,8.091v.861H88.563V108.855h2.266v5.53a2.817,2.817,0,0,1,1.065-.771,3.609,3.609,0,0,1,1.5-.317,4.165,4.165,0,0,1,3.4,1.519,5.58,5.58,0,0,1,1.269,3.739,5.669,5.669,0,0,1-1.269,3.763,4.19,4.19,0,0,1-3.4,1.5,3.609,3.609,0,0,1-1.5-.317A2.817,2.817,0,0,1,90.829,122.725Zm0-6.074v3.807a2.48,2.48,0,0,0,.884.975,2.422,2.422,0,0,0,1.292.363,2.505,2.505,0,0,0,2.04-.907,4.016,4.016,0,0,0,0-4.668,2.505,2.505,0,0,0-2.04-.907,2.515,2.515,0,0,0-2.176,1.337Zm15.608,3.807h2.085a3.918,3.918,0,0,1-1.383,2.448,4.316,4.316,0,0,1-2.856.907,4.475,4.475,0,0,1-3.445-1.451,6.033,6.033,0,0,1,.023-7.547,4.308,4.308,0,0,1,3.377-1.519,3.954,3.954,0,0,1,3.218,1.36,5.321,5.321,0,0,1,1.156,3.6v.816h-6.867a3.214,3.214,0,0,0,.725,2.086,2.376,2.376,0,0,0,1.813.748A1.929,1.929,0,0,0,106.437,120.459Zm-2.176-5.258a2.321,2.321,0,0,0-1.609.589,2.817,2.817,0,0,0-.839,1.632h4.556a2.386,2.386,0,0,0-.567-1.587A1.921,1.921,0,0,0,104.262,115.2Zm12.055-1.723v2.335a2.272,2.272,0,0,0-1.337-.34,2.082,2.082,0,0,0-1.292.431,1.845,1.845,0,0,0-.725,1.179v6.5H110.7V113.523h2.266v1.043a2.187,2.187,0,0,1,.907-.907,2.58,2.58,0,0,1,1.337-.363A2.431,2.431,0,0,1,116.317,113.478Zm1.268,7.207H119.9a1.826,1.826,0,0,0,1.995,1.269,2.275,2.275,0,0,0,1.246-.295,1.026,1.026,0,0,0,.476-.907.783.783,0,0,0-.272-.635,2.145,2.145,0,0,0-.907-.408l-2.085-.5q-2.493-.588-2.493-2.764a2.791,2.791,0,0,1,1.065-2.244,4.141,4.141,0,0,1,2.742-.907,4.347,4.347,0,0,1,2.742.793,3.426,3.426,0,0,1,1.292,2.176h-2.221q-.34-1.11-1.836-1.111a2.115,2.115,0,0,0-1.133.295.95.95,0,0,0-.476.861q0,.656,1.043.929l2.13.5q2.584.612,2.584,2.855a2.86,2.86,0,0,1-1.11,2.358,4.4,4.4,0,0,1-2.81.861,4.854,4.854,0,0,1-2.924-.839A3.383,3.383,0,0,1,117.585,120.685Z" transform="translate(27.675 67.267)" fill="#262523"/>
    <path id="Path_67" data-name="Path 67" d="M56.883,58.7l3.354-5.893H63.3l-5.054,8.635v5.281H55.365V61.444l-5.009-8.635h3.15Zm15.47,2.969a5.34,5.34,0,0,1-1.383,3.807,5.089,5.089,0,0,1-7.162,0,5.966,5.966,0,0,1,0-7.638,5.089,5.089,0,0,1,7.162,0A5.371,5.371,0,0,1,72.354,61.67Zm-2.788,0a3.452,3.452,0,0,0-.589-2.108,1.822,1.822,0,0,0-1.587-.816,1.879,1.879,0,0,0-1.609.816,3.553,3.553,0,0,0-.567,2.108,3.617,3.617,0,0,0,.567,2.108,1.9,1.9,0,0,0,1.609.793,1.838,1.838,0,0,0,1.587-.793A3.514,3.514,0,0,0,69.566,61.67Zm13.559-5.077V66.724h-2.81V65.8a3.491,3.491,0,0,1-2.72,1.156,3.42,3.42,0,0,1-2.629-1.02,3.882,3.882,0,0,1-.929-2.72V56.594h2.81v6.051a1.956,1.956,0,0,0,.408,1.315,1.524,1.524,0,0,0,1.224.476,1.913,1.913,0,0,0,1.156-.363,1.809,1.809,0,0,0,.657-1.042V56.594Zm8.565-.045v2.81a2.689,2.689,0,0,0-1.405-.34,2.039,2.039,0,0,0-1.246.385,1.682,1.682,0,0,0-.68,1.042v6.278h-2.81V56.594h2.81v1a2.447,2.447,0,0,1,2.266-1.224A2.281,2.281,0,0,1,91.691,56.548Zm5.972-1.2V52.809h11.876v2.538h-4.488V66.724h-2.924V55.347Zm21.5,6.323a5.339,5.339,0,0,1-1.383,3.807,5.089,5.089,0,0,1-7.162,0,5.966,5.966,0,0,1,0-7.638,5.089,5.089,0,0,1,7.162,0A5.37,5.37,0,0,1,119.165,61.67Zm-2.788,0a3.452,3.452,0,0,0-.589-2.108,1.822,1.822,0,0,0-1.587-.816,1.879,1.879,0,0,0-1.609.816,3.553,3.553,0,0,0-.567,2.108,3.617,3.617,0,0,0,.567,2.108,1.9,1.9,0,0,0,1.609.793,1.838,1.838,0,0,0,1.587-.793A3.514,3.514,0,0,0,116.377,61.67Zm11.179,5.054-2.969-4.08-.816.884v3.2h-2.81V51.993h2.81v8.363l3.468-3.762h3.49l-4.1,4.306,4.262,5.825Zm10.459-3.309h2.607a4.064,4.064,0,0,1-1.451,2.606,4.7,4.7,0,0,1-3.038.929,4.651,4.651,0,0,1-3.557-1.451,6.009,6.009,0,0,1,0-7.615,4.541,4.541,0,0,1,3.512-1.519,4.237,4.237,0,0,1,3.378,1.383A5.25,5.25,0,0,1,140.69,61.4v.861h-6.754a2.849,2.849,0,0,0,.657,1.79,2,2,0,0,0,1.54.635A1.7,1.7,0,0,0,138.015,63.415Zm-1.9-4.759A2.031,2.031,0,0,0,134,60.56h3.92a2.021,2.021,0,0,0-.5-1.36A1.655,1.655,0,0,0,136.111,58.656Zm6.364,8.069V56.594h2.811v.929a3.835,3.835,0,0,1,5.348-.136,3.825,3.825,0,0,1,.952,2.72v6.618h-2.811V60.7a1.848,1.848,0,0,0-.431-1.292,1.489,1.489,0,0,0-1.224-.5,1.929,1.929,0,0,0-1.177.385,1.7,1.7,0,0,0-.657,1.02v6.414Zm15.135,1.9,5.62-16.636h2.607l-5.62,16.636Zm17.36-4.465H176.9a3.88,3.88,0,0,0,3.036-1.178,5.428,5.428,0,0,0,0-6.459,3.88,3.88,0,0,0-3.036-1.178H174.97Zm-2.877,2.561V52.809h4.918a6.722,6.722,0,0,1,5.008,1.881,6.909,6.909,0,0,1,1.859,5.077,6.909,6.909,0,0,1-1.859,5.077,6.721,6.721,0,0,1-5.008,1.881ZM188.6,56.594V66.724H185.79V56.594Zm.249-2.924a1.494,1.494,0,0,1-.5,1.156,1.615,1.615,0,0,1-1.156.453,1.72,1.72,0,0,1-1.2-.453,1.526,1.526,0,0,1-.476-1.156,1.47,1.47,0,0,1,.5-1.133,1.65,1.65,0,0,1,1.179-.476,1.575,1.575,0,0,1,1.156.476A1.47,1.47,0,0,1,188.85,53.67Zm1.55,10.04h2.788a1.568,1.568,0,0,0,1.7,1.11q1.426,0,1.427-1a.6.6,0,0,0-.249-.521,1.842,1.842,0,0,0-.769-.34l-2.04-.453q-2.63-.612-2.63-2.856a2.857,2.857,0,0,1,1.156-2.357,4.447,4.447,0,0,1,2.879-.929,4.646,4.646,0,0,1,2.945.839,3.545,3.545,0,0,1,1.36,2.289h-2.675a1.462,1.462,0,0,0-1.585-1,1.789,1.789,0,0,0-.952.249.79.79,0,0,0-.385.7c0,.378.3.642.907.793l2.084.476q2.7.657,2.7,2.946a2.845,2.845,0,0,1-1.179,2.4,4.75,4.75,0,0,1-2.968.884,5.269,5.269,0,0,1-3.083-.838A3.444,3.444,0,0,1,190.4,63.71Zm9.916-2.04a5.423,5.423,0,0,1,1.36-3.83,5.012,5.012,0,0,1,6.55-.476,4.061,4.061,0,0,1,1.406,2.652h-2.766a1.369,1.369,0,0,0-.567-.907,1.739,1.739,0,0,0-1.111-.34,1.774,1.774,0,0,0-1.517.793,3.545,3.545,0,0,0-.567,2.108,3.5,3.5,0,0,0,.567,2.085,1.774,1.774,0,0,0,1.517.793,1.824,1.824,0,0,0,1.111-.317,1.455,1.455,0,0,0,.567-.929h2.766a4.061,4.061,0,0,1-1.406,2.652,4.486,4.486,0,0,1-3.038,1,4.562,4.562,0,0,1-3.512-1.473A5.391,5.391,0,0,1,200.316,61.67Zm20.012-5.077V66.724h-2.809V65.8a3.5,3.5,0,0,1-2.72,1.156,3.421,3.421,0,0,1-2.63-1.02,3.887,3.887,0,0,1-.929-2.72V56.594h2.811v6.051a1.956,1.956,0,0,0,.408,1.315,1.524,1.524,0,0,0,1.224.476,1.919,1.919,0,0,0,1.156-.363,1.817,1.817,0,0,0,.657-1.042V56.594Zm1.767,7.117h2.788a1.565,1.565,0,0,0,1.7,1.11q1.428,0,1.428-1a.6.6,0,0,0-.249-.521,1.841,1.841,0,0,0-.771-.34l-2.039-.453q-2.63-.612-2.63-2.856a2.857,2.857,0,0,1,1.156-2.357,4.445,4.445,0,0,1,2.877-.929,4.651,4.651,0,0,1,2.947.839,3.545,3.545,0,0,1,1.36,2.289h-2.675a1.464,1.464,0,0,0-1.587-1,1.789,1.789,0,0,0-.952.249.793.793,0,0,0-.385.7q0,.567.907.793l2.086.476q2.7.657,2.7,2.946a2.845,2.845,0,0,1-1.179,2.4,4.751,4.751,0,0,1-2.97.884,5.264,5.264,0,0,1-3.081-.838A3.439,3.439,0,0,1,222.095,63.71Zm9.894,0h2.787a1.568,1.568,0,0,0,1.7,1.11q1.428,0,1.428-1a.6.6,0,0,0-.249-.521,1.841,1.841,0,0,0-.771-.34l-2.04-.453q-2.628-.612-2.628-2.856a2.857,2.857,0,0,1,1.156-2.357,4.445,4.445,0,0,1,2.877-.929,4.651,4.651,0,0,1,2.947.839,3.545,3.545,0,0,1,1.36,2.289h-2.675a1.464,1.464,0,0,0-1.587-1,1.789,1.789,0,0,0-.952.249.793.793,0,0,0-.385.7q0,.567.907.793l2.086.476q2.7.657,2.7,2.946a2.845,2.845,0,0,1-1.179,2.4,4.751,4.751,0,0,1-2.97.884,5.264,5.264,0,0,1-3.081-.838A3.439,3.439,0,0,1,231.988,63.71Zm13.36-7.117V66.724h-2.809V56.594Zm.249-2.924a1.489,1.489,0,0,1-.5,1.156,1.613,1.613,0,0,1-1.155.453,1.72,1.72,0,0,1-1.2-.453,1.526,1.526,0,0,1-.476-1.156,1.465,1.465,0,0,1,.5-1.133,1.65,1.65,0,0,1,1.179-.476,1.573,1.573,0,0,1,1.155.476A1.465,1.465,0,0,1,245.6,53.67Zm11.5,8a5.341,5.341,0,0,1-1.383,3.807,5.089,5.089,0,0,1-7.162,0,5.965,5.965,0,0,1,0-7.638,5.089,5.089,0,0,1,7.162,0A5.372,5.372,0,0,1,257.1,61.67Zm-2.788,0a3.448,3.448,0,0,0-.589-2.108,1.822,1.822,0,0,0-1.587-.816,1.876,1.876,0,0,0-1.608.816,3.545,3.545,0,0,0-.567,2.108,3.609,3.609,0,0,0,.567,2.108,1.893,1.893,0,0,0,1.608.793,1.838,1.838,0,0,0,1.587-.793A3.51,3.51,0,0,0,254.311,61.67Zm4.584,5.054V56.594h2.811v.929a3.835,3.835,0,0,1,5.348-.136,3.825,3.825,0,0,1,.952,2.72v6.618H265.2V60.7a1.855,1.855,0,0,0-.431-1.292,1.489,1.489,0,0,0-1.224-.5,1.937,1.937,0,0,0-1.179.385,1.705,1.705,0,0,0-.656,1.02v6.414Zm10.786-3.014h2.787a1.568,1.568,0,0,0,1.7,1.11q1.428,0,1.428-1a.6.6,0,0,0-.249-.521,1.841,1.841,0,0,0-.771-.34l-2.04-.453q-2.628-.612-2.628-2.856a2.857,2.857,0,0,1,1.156-2.357,4.445,4.445,0,0,1,2.877-.929,4.651,4.651,0,0,1,2.947.839,3.545,3.545,0,0,1,1.36,2.289h-2.675a1.464,1.464,0,0,0-1.587-1,1.789,1.789,0,0,0-.952.249.793.793,0,0,0-.385.7q0,.567.907.793l2.086.476q2.7.657,2.7,2.946a2.845,2.845,0,0,1-1.179,2.4,4.751,4.751,0,0,1-2.97.884,5.264,5.264,0,0,1-3.081-.838A3.439,3.439,0,0,1,269.681,63.71Z" transform="translate(30.973 32.056)" fill="#262523"/>
    <circle id="Ellipse_74" data-name="Ellipse 74" cx="7.791" cy="7.791" r="7.791" transform="translate(58.417 12.976)" fill="#a1e59d"/>
    <circle id="Ellipse_75" data-name="Ellipse 75" cx="16.29" cy="16.29" r="16.29" transform="translate(613.249 520.09)" fill="#73304f" stroke="#fff" stroke-width="1.75"/>
    <circle id="Ellipse_76" data-name="Ellipse 76" cx="16.29" cy="16.29" r="16.29" transform="translate(631.663 520.09)" fill="#f7d58c" stroke="#fff" stroke-width="1.75"/>
    <circle id="Ellipse_77" data-name="Ellipse 77" cx="16.29" cy="16.29" r="16.29" transform="translate(650.077 520.09)" fill="#c3326b" stroke="#fff" stroke-width="1.75"/>
    <circle id="Ellipse_78" data-name="Ellipse 78" cx="7.791" cy="7.791" r="7.791" transform="translate(35.752 12.976)" fill="#f2c571"/>
    <circle id="Ellipse_79" data-name="Ellipse 79" cx="7.791" cy="7.791" r="7.791" transform="translate(13.087 12.976)" fill="#d27365"/>
    <circle id="Ellipse_80" data-name="Ellipse 80" cx="16.29" cy="16.29" r="16.29" transform="translate(611.832 411.018)" fill="#e1696c" stroke="#fff" stroke-width="1.75"/>
    <circle id="Ellipse_81" data-name="Ellipse 81" cx="16.29" cy="16.29" r="16.29" transform="translate(630.246 411.018)" fill="#8fd4d7" stroke="#fff" stroke-width="1.75"/>
    <circle id="Ellipse_82" data-name="Ellipse 82" cx="16.29" cy="16.29" r="16.29" transform="translate(648.662 411.018)" fill="#4da978" stroke="#fff" stroke-width="1.75"/>
    <circle id="Ellipse_83" data-name="Ellipse 83" cx="11.332" cy="11.332" r="11.332" transform="translate(48.5 80.968)" fill="#dedede"/>
    <rect id="Rectangle_73" data-name="Rectangle 73" width="324.383" height="18.415" rx="3.499" transform="translate(215.65 167.377)" fill="#d5d5d5"/>
    <rect id="Rectangle_74" data-name="Rectangle 74" width="324.383" height="18.415" rx="3.499" transform="translate(215.65 276.448)" fill="#d5d5d5"/>
    <rect id="Rectangle_75" data-name="Rectangle 75" width="324.383" height="18.415" rx="3.499" transform="translate(215.65 503.092)" fill="#d5d5d5"/>
    <rect id="Rectangle_76" data-name="Rectangle 76" width="324.383" height="18.415" rx="3.499" transform="translate(215.65 391.186)" fill="#d5d5d5"/>
    <rect id="Rectangle_77" data-name="Rectangle 77" width="272.321" height="18.415" rx="3.499" transform="translate(215.65 208.456)" fill="#e6e6e6"/>
    <rect id="Rectangle_78" data-name="Rectangle 78" width="272.321" height="18.415" rx="3.499" transform="translate(215.65 317.528)" fill="#e6e6e6"/>
    <rect id="Rectangle_79" data-name="Rectangle 79" width="272.321" height="18.415" rx="3.499" transform="translate(215.65 544.17)" fill="#e6e6e6"/>
    <rect id="Rectangle_80" data-name="Rectangle 80" width="272.321" height="18.415" rx="3.499" transform="translate(215.65 432.266)" fill="#e6e6e6"/>
    <rect id="Rectangle_81" data-name="Rectangle 81" width="530.594" height="118.985" transform="translate(185.903 443.601)" fill="rgba(255,255,255,0.78)"/>
    <circle id="Ellipse_84" data-name="Ellipse 84" cx="16.29" cy="16.29" r="16.29" transform="translate(613.249 182.959)" fill="#f7d58c" stroke="#fff" stroke-width="1.75"/>
    <circle id="Ellipse_85" data-name="Ellipse 85" cx="16.29" cy="16.29" r="16.29" transform="translate(631.663 182.959)" fill="#73304f" stroke="#fff" stroke-width="1.75"/>
    <circle id="Ellipse_86" data-name="Ellipse 86" cx="16.29" cy="16.29" r="16.29" transform="translate(631.663 286.364)" fill="#c3326b" stroke="#fff" stroke-width="1.75"/>
    <circle id="Ellipse_87" data-name="Ellipse 87" cx="16.29" cy="16.29" r="16.29" transform="translate(650.078 182.959)" fill="#8fd4dd" stroke="#fff" stroke-width="1.75"/>
    <circle id="Ellipse_88" data-name="Ellipse 88" cx="16.29" cy="16.29" r="16.29" transform="translate(650.078 286.364)" fill="#7e964f" stroke="#fff" stroke-width="1.75"/>
  </g>
</svg>
