<svg xmlns="http://www.w3.org/2000/svg" width="588.726" height="727.656" viewBox="0 0 588.726 727.656">
  <g id="Group_16" data-name="Group 16" transform="translate(-0.007 -0.324)">
    <path id="Path_48" data-name="Path 48" d="M.007,40.094H588.732V7.181A6.857,6.857,0,0,0,581.875.324H6.864A6.857,6.857,0,0,0,.007,7.181Z" transform="translate(0)" fill="#e3e3e3"/>
    <path id="Path_49" data-name="Path 49" d="M.007,25.693H588.732v681.03a6.856,6.856,0,0,1-6.857,6.857H6.864a6.857,6.857,0,0,1-6.857-6.857Z" transform="translate(0 14.4)" fill="#fff"/>
    <rect id="Rectangle_57" data-name="Rectangle 57" width="76.797" height="37.027" rx="11.81" transform="translate(47.317 216.314)" fill="none" stroke="#e7e7e7" stroke-width="0.875"/>
    <path id="Path_50" data-name="Path 50" d="M49.9,154.93H46.98v5.026H44.7V146.484h5.2a4.863,4.863,0,0,1,3.357,1.1,4.536,4.536,0,0,1,0,6.255A4.863,4.863,0,0,1,49.9,154.93Zm2.348-4.212a2.225,2.225,0,0,0-.614-1.646,2.409,2.409,0,0,0-1.777-.615H46.98v4.5h2.874a2.377,2.377,0,0,0,1.755-.614A2.155,2.155,0,0,0,52.246,150.718Zm11.133.7a5.833,5.833,0,0,1,0,7.329,4.26,4.26,0,0,1-3.335,1.427,4.327,4.327,0,0,1-3.357-1.427,5.912,5.912,0,0,1,0-7.329,4.322,4.322,0,0,1,3.357-1.427A4.255,4.255,0,0,1,63.379,151.421Zm-1.536,5.99a3.94,3.94,0,0,0,.636-2.326,3.834,3.834,0,0,0-.636-2.3,2.249,2.249,0,0,0-3.6,0,3.834,3.834,0,0,0-.636,2.3,3.94,3.94,0,0,0,.636,2.326,2.283,2.283,0,0,0,3.6,0Zm7.073-11.716v14.262H66.722V145.694Zm4.907,0v14.262H71.629V145.694Z" transform="translate(25.368 82.516)" fill="#262523"/>
    <rect id="Rectangle_58" data-name="Rectangle 58" width="122.052" height="37.027" rx="11.81" transform="translate(47.317 158.717)" fill="none" stroke="#e7e7e7" stroke-width="0.875"/>
    <path id="Path_51" data-name="Path 51" d="M52.2,123.214H50.578l-3.708-9.37v9.37H44.7V109.742h2.611l4.1,10.356,4.059-10.356h2.545v13.472H55.822v-9.37Zm14.683-3.029H68.9a3.793,3.793,0,0,1-1.338,2.37,4.179,4.179,0,0,1-2.765.878,4.332,4.332,0,0,1-3.335-1.4,5.841,5.841,0,0,1,.022-7.307,4.17,4.17,0,0,1,3.269-1.47,3.828,3.828,0,0,1,3.116,1.317,5.156,5.156,0,0,1,1.119,3.49v.79H62.343a3.11,3.11,0,0,0,.7,2.018,2.3,2.3,0,0,0,1.755.724A1.866,1.866,0,0,0,66.885,120.186Zm-2.106-5.09a2.247,2.247,0,0,0-1.558.571,2.727,2.727,0,0,0-.812,1.58h4.41a2.313,2.313,0,0,0-.549-1.536A1.86,1.86,0,0,0,64.778,115.1Zm13.427-.549a3.653,3.653,0,0,1,2.9-1.295,2.878,2.878,0,0,1,2.326.988,3.9,3.9,0,0,1,.834,2.634v6.341H82.067v-5.99a2.275,2.275,0,0,0-.417-1.448,1.366,1.366,0,0,0-1.185-.549,1.835,1.835,0,0,0-1.119.373,1.694,1.694,0,0,0-.614,1.075v6.539H76.537v-5.99a2.275,2.275,0,0,0-.417-1.448,1.366,1.366,0,0,0-1.185-.549,1.835,1.835,0,0,0-1.119.373,1.694,1.694,0,0,0-.614,1.075v6.539H71.008v-9.743H73.2v.812a2.839,2.839,0,0,1,2.435-1.032,3.063,3.063,0,0,1,1.492.373A2.908,2.908,0,0,1,78.2,114.547Zm10.832,7.833v.834H86.843V108.952h2.194v5.353a2.743,2.743,0,0,1,1.031-.746,3.493,3.493,0,0,1,1.448-.307,4.032,4.032,0,0,1,3.291,1.47,5.4,5.4,0,0,1,1.229,3.621,5.488,5.488,0,0,1-1.229,3.642,4.057,4.057,0,0,1-3.291,1.448,3.468,3.468,0,0,1-1.448-.307A2.727,2.727,0,0,1,89.037,122.38Zm0-5.88v3.685a2.391,2.391,0,0,0,.856.944,2.331,2.331,0,0,0,1.251.351,2.42,2.42,0,0,0,1.975-.878,3.888,3.888,0,0,0,0-4.519,2.425,2.425,0,0,0-1.975-.878,2.435,2.435,0,0,0-2.106,1.295Zm15.11,3.685h2.019a3.792,3.792,0,0,1-1.338,2.37,4.178,4.178,0,0,1-2.765.878,4.332,4.332,0,0,1-3.335-1.4,5.841,5.841,0,0,1,.022-7.307,4.17,4.17,0,0,1,3.269-1.47,3.829,3.829,0,0,1,3.116,1.317,5.156,5.156,0,0,1,1.119,3.49v.79H99.605a3.108,3.108,0,0,0,.7,2.018,2.3,2.3,0,0,0,1.755.724A1.866,1.866,0,0,0,104.147,120.186Zm-2.106-5.09a2.247,2.247,0,0,0-1.558.571,2.727,2.727,0,0,0-.812,1.58h4.41a2.312,2.312,0,0,0-.549-1.536A1.859,1.859,0,0,0,102.041,115.1Zm11.671-1.668v2.261a2.2,2.2,0,0,0-1.295-.329,2.015,2.015,0,0,0-1.251.417,1.789,1.789,0,0,0-.7,1.141v6.3H108.27v-9.743h2.194v1.01a2.118,2.118,0,0,1,.878-.878,2.5,2.5,0,0,1,1.295-.351A2.354,2.354,0,0,1,113.712,113.428Zm1.228,6.978h2.238a1.768,1.768,0,0,0,1.931,1.229,2.19,2.19,0,0,0,1.207-.285.991.991,0,0,0,.461-.878.757.757,0,0,0-.263-.615,2.057,2.057,0,0,0-.878-.393l-2.019-.483q-2.414-.571-2.414-2.678a2.7,2.7,0,0,1,1.031-2.173,4.009,4.009,0,0,1,2.655-.878,4.218,4.218,0,0,1,2.655.768,3.321,3.321,0,0,1,1.251,2.107h-2.15q-.329-1.075-1.777-1.075a2.047,2.047,0,0,0-1.1.285.922.922,0,0,0-.461.834q0,.637,1.009.9l2.063.483q2.5.593,2.5,2.764a2.769,2.769,0,0,1-1.075,2.282,4.248,4.248,0,0,1-2.721.834,4.7,4.7,0,0,1-2.831-.812A3.272,3.272,0,0,1,114.94,120.405Z" transform="translate(25.368 61.661)" fill="#262523"/>
    <path id="Path_52" data-name="Path 52" d="M56.343,58.585l3.247-5.7h2.962l-4.893,8.36v5.113H54.873V61.239l-4.849-8.36h3.05ZM71.32,61.459a5.17,5.17,0,0,1-1.338,3.686,4.927,4.927,0,0,1-6.934,0,5.776,5.776,0,0,1,0-7.395,4.927,4.927,0,0,1,6.934,0A5.2,5.2,0,0,1,71.32,61.459Zm-2.7,0a3.342,3.342,0,0,0-.57-2.041,1.764,1.764,0,0,0-1.536-.79,1.82,1.82,0,0,0-1.558.79,3.441,3.441,0,0,0-.549,2.041,3.5,3.5,0,0,0,.549,2.041,1.837,1.837,0,0,0,1.558.768,1.78,1.78,0,0,0,1.536-.768A3.4,3.4,0,0,0,68.622,61.459Zm13.127-4.915v9.808H79.028v-.9a3.379,3.379,0,0,1-2.633,1.119,3.311,3.311,0,0,1-2.545-.987,3.759,3.759,0,0,1-.9-2.633V56.544h2.721V62.4a1.894,1.894,0,0,0,.395,1.273,1.475,1.475,0,0,0,1.185.461,1.852,1.852,0,0,0,1.119-.351,1.751,1.751,0,0,0,.636-1.009V56.544Zm8.293-.044v2.721a2.6,2.6,0,0,0-1.36-.329,1.974,1.974,0,0,0-1.207.373,1.629,1.629,0,0,0-.658,1.009v6.078H84.095V56.544h2.721v.966a2.369,2.369,0,0,1,2.194-1.185A2.209,2.209,0,0,1,90.041,56.5Zm5.782-1.163V52.88h11.5v2.458h-4.345V66.352h-2.831V55.337Zm20.817,6.122a5.17,5.17,0,0,1-1.338,3.686,4.927,4.927,0,0,1-6.934,0,5.776,5.776,0,0,1,0-7.395,4.927,4.927,0,0,1,6.934,0A5.2,5.2,0,0,1,116.64,61.459Zm-2.7,0a3.342,3.342,0,0,0-.57-2.041,1.764,1.764,0,0,0-1.536-.79,1.82,1.82,0,0,0-1.558.79,3.441,3.441,0,0,0-.549,2.041,3.5,3.5,0,0,0,.549,2.041,1.837,1.837,0,0,0,1.558.768,1.78,1.78,0,0,0,1.536-.768A3.4,3.4,0,0,0,113.941,61.459Zm10.823,4.893L121.89,62.4l-.79.856v3.094h-2.721V52.09H121.1v8.1l3.357-3.642h3.379l-3.971,4.169,4.125,5.639Zm10.125-3.2h2.524a3.935,3.935,0,0,1-1.4,2.523,4.551,4.551,0,0,1-2.941.9,4.5,4.5,0,0,1-3.444-1.4,5.818,5.818,0,0,1,0-7.373,4.4,4.4,0,0,1,3.4-1.47,4.1,4.1,0,0,1,3.27,1.338,5.082,5.082,0,0,1,1.185,3.533v.834H130.94a2.759,2.759,0,0,0,.636,1.733,1.94,1.94,0,0,0,1.491.614A1.65,1.65,0,0,0,134.889,63.148Zm-1.844-4.608a1.966,1.966,0,0,0-2.039,1.843h3.8a1.956,1.956,0,0,0-.483-1.317A1.6,1.6,0,0,0,133.046,58.541Zm6.161,7.811V56.544h2.721v.9a3.712,3.712,0,0,1,5.178-.132,3.7,3.7,0,0,1,.922,2.633v6.407h-2.721V60.515a1.789,1.789,0,0,0-.417-1.251,1.442,1.442,0,0,0-1.185-.483,1.868,1.868,0,0,0-1.14.373,1.646,1.646,0,0,0-.636.987v6.21ZM153.859,68.2,159.3,52.09h2.524L156.383,68.2Zm16.807-4.323h1.865a3.756,3.756,0,0,0,2.939-1.141,5.255,5.255,0,0,0,0-6.253,3.756,3.756,0,0,0-2.939-1.141h-1.865Zm-2.786,2.48V52.88h4.761A6.507,6.507,0,0,1,177.49,54.7a6.688,6.688,0,0,1,1.8,4.915,6.688,6.688,0,0,1-1.8,4.915,6.507,6.507,0,0,1-4.849,1.821Zm15.982-9.808v9.808h-2.721V56.544Zm.24-2.831a1.445,1.445,0,0,1-.481,1.119,1.563,1.563,0,0,1-1.119.439,1.666,1.666,0,0,1-1.163-.439,1.478,1.478,0,0,1-.461-1.119,1.423,1.423,0,0,1,.483-1.1,1.6,1.6,0,0,1,1.141-.461,1.524,1.524,0,0,1,1.119.461A1.421,1.421,0,0,1,184.1,53.713Zm1.5,9.72h2.7a1.518,1.518,0,0,0,1.646,1.075q1.38,0,1.381-.965a.584.584,0,0,0-.241-.5,1.782,1.782,0,0,0-.746-.329l-1.974-.439q-2.547-.593-2.546-2.765a2.766,2.766,0,0,1,1.119-2.282,4.3,4.3,0,0,1,2.787-.9,4.5,4.5,0,0,1,2.852.812,3.432,3.432,0,0,1,1.317,2.216h-2.59a1.415,1.415,0,0,0-1.535-.966,1.732,1.732,0,0,0-.922.241.765.765,0,0,0-.373.68c0,.366.292.622.878.768l2.018.461q2.612.636,2.612,2.852a2.754,2.754,0,0,1-1.141,2.326,4.6,4.6,0,0,1-2.873.856,5.1,5.1,0,0,1-2.985-.812A3.329,3.329,0,0,1,185.6,63.434Zm9.6-1.975a5.25,5.25,0,0,1,1.317-3.708,4.852,4.852,0,0,1,6.341-.461,3.932,3.932,0,0,1,1.361,2.567h-2.678a1.325,1.325,0,0,0-.549-.878,1.683,1.683,0,0,0-1.075-.329,1.717,1.717,0,0,0-1.469.768,3.432,3.432,0,0,0-.549,2.041,3.391,3.391,0,0,0,.549,2.019,1.717,1.717,0,0,0,1.469.768A1.766,1.766,0,0,0,201,63.938a1.408,1.408,0,0,0,.549-.9h2.678a3.932,3.932,0,0,1-1.361,2.567,4.343,4.343,0,0,1-2.941.965,4.418,4.418,0,0,1-3.4-1.426A5.22,5.22,0,0,1,195.2,61.459Zm19.374-4.915v9.808h-2.721v-.9a3.378,3.378,0,0,1-2.632,1.119,3.312,3.312,0,0,1-2.546-.987,3.763,3.763,0,0,1-.9-2.633V56.544H208.5V62.4a1.893,1.893,0,0,0,.4,1.273,1.476,1.476,0,0,0,1.185.461,1.858,1.858,0,0,0,1.119-.351,1.759,1.759,0,0,0,.636-1.009V56.544Zm1.71,6.89h2.7a1.518,1.518,0,0,0,1.646,1.075q1.383,0,1.383-.965a.584.584,0,0,0-.241-.5,1.782,1.782,0,0,0-.746-.329l-1.975-.439q-2.544-.593-2.544-2.765a2.766,2.766,0,0,1,1.119-2.282,4.3,4.3,0,0,1,2.786-.9,4.5,4.5,0,0,1,2.853.812,3.432,3.432,0,0,1,1.317,2.216h-2.59a1.417,1.417,0,0,0-1.536-.966,1.732,1.732,0,0,0-.922.241.768.768,0,0,0-.373.68q0,.549.878.768l2.019.461q2.61.636,2.612,2.852a2.754,2.754,0,0,1-1.141,2.326,4.6,4.6,0,0,1-2.875.856,5.1,5.1,0,0,1-2.983-.812A3.329,3.329,0,0,1,216.288,63.434Zm9.578,0h2.7a1.518,1.518,0,0,0,1.646,1.075q1.383,0,1.383-.965a.584.584,0,0,0-.241-.5,1.782,1.782,0,0,0-.746-.329l-1.975-.439q-2.544-.593-2.544-2.765a2.766,2.766,0,0,1,1.119-2.282,4.3,4.3,0,0,1,2.786-.9,4.5,4.5,0,0,1,2.853.812,3.432,3.432,0,0,1,1.317,2.216h-2.59a1.417,1.417,0,0,0-1.536-.966,1.732,1.732,0,0,0-.922.241.768.768,0,0,0-.373.68q0,.549.878.768l2.019.461q2.61.636,2.612,2.852a2.754,2.754,0,0,1-1.141,2.326,4.6,4.6,0,0,1-2.875.856,5.1,5.1,0,0,1-2.983-.812A3.329,3.329,0,0,1,225.867,63.434Zm12.934-6.89v9.808h-2.72V56.544Zm.241-2.831a1.442,1.442,0,0,1-.483,1.119,1.563,1.563,0,0,1-1.119.439,1.664,1.664,0,0,1-1.162-.439,1.478,1.478,0,0,1-.461-1.119,1.417,1.417,0,0,1,.483-1.1,1.6,1.6,0,0,1,1.14-.461,1.524,1.524,0,0,1,1.119.461A1.417,1.417,0,0,1,239.043,53.713Zm11.135,7.746a5.172,5.172,0,0,1-1.339,3.686,4.927,4.927,0,0,1-6.934,0,5.775,5.775,0,0,1,0-7.395,4.927,4.927,0,0,1,6.934,0A5.2,5.2,0,0,1,250.177,61.459Zm-2.7,0a3.338,3.338,0,0,0-.571-2.041,1.764,1.764,0,0,0-1.536-.79,1.821,1.821,0,0,0-1.558.79,3.443,3.443,0,0,0-.547,2.041,3.505,3.505,0,0,0,.547,2.041,1.838,1.838,0,0,0,1.558.768,1.78,1.78,0,0,0,1.536-.768A3.4,3.4,0,0,0,247.478,61.459Zm4.438,4.893V56.544h2.721v.9a3.712,3.712,0,0,1,5.178-.132,3.7,3.7,0,0,1,.922,2.633v6.407h-2.721V60.515a1.8,1.8,0,0,0-.417-1.251,1.442,1.442,0,0,0-1.185-.483,1.876,1.876,0,0,0-1.141.373,1.651,1.651,0,0,0-.635.987v6.21Zm10.442-2.918h2.7a1.518,1.518,0,0,0,1.646,1.075q1.383,0,1.383-.965a.584.584,0,0,0-.241-.5,1.782,1.782,0,0,0-.746-.329l-1.975-.439q-2.544-.593-2.544-2.765a2.766,2.766,0,0,1,1.119-2.282,4.3,4.3,0,0,1,2.786-.9,4.5,4.5,0,0,1,2.853.812,3.432,3.432,0,0,1,1.317,2.216h-2.59a1.417,1.417,0,0,0-1.536-.966,1.732,1.732,0,0,0-.922.241.768.768,0,0,0-.373.68q0,.549.878.768l2.019.461q2.61.636,2.612,2.852a2.754,2.754,0,0,1-1.141,2.326,4.6,4.6,0,0,1-2.875.856,5.1,5.1,0,0,1-2.983-.812A3.329,3.329,0,0,1,262.358,63.434Z" transform="translate(28.391 29.384)" fill="#262523"/>
    <circle id="Ellipse_60" data-name="Ellipse 60" cx="7.543" cy="7.543" r="7.543" transform="translate(56.233 12.666)" fill="#a1e59d"/>
    <circle id="Ellipse_61" data-name="Ellipse 61" cx="15.771" cy="15.771" r="15.771" transform="translate(459.362 503.616)" fill="#73304f" stroke="#fff" stroke-width="1.75"/>
    <circle id="Ellipse_62" data-name="Ellipse 62" cx="15.771" cy="15.771" r="15.771" transform="translate(459.362 628.174)" fill="#73304f" stroke="#fff" stroke-width="1.75"/>
    <circle id="Ellipse_63" data-name="Ellipse 63" cx="15.771" cy="15.771" r="15.771" transform="translate(477.189 503.616)" fill="#f7d58c" stroke="#fff" stroke-width="1.75"/>
    <circle id="Ellipse_64" data-name="Ellipse 64" cx="15.771" cy="15.771" r="15.771" transform="translate(477.189 628.174)" fill="#f7d58c" stroke="#fff" stroke-width="1.75"/>
    <circle id="Ellipse_65" data-name="Ellipse 65" cx="7.543" cy="7.543" r="7.543" transform="translate(34.29 12.666)" fill="#f2c571"/>
    <circle id="Ellipse_66" data-name="Ellipse 66" cx="7.543" cy="7.543" r="7.543" transform="translate(12.349 12.666)" fill="#d27365"/>
    <circle id="Ellipse_67" data-name="Ellipse 67" cx="15.771" cy="15.771" r="15.771" transform="translate(457.99 398.021)" fill="#e1696c" stroke="#fff" stroke-width="1.75"/>
    <circle id="Ellipse_68" data-name="Ellipse 68" cx="15.771" cy="15.771" r="15.771" transform="translate(475.819 398.021)" fill="#8fd4d7" stroke="#fff" stroke-width="1.75"/>
    <rect id="Rectangle_59" data-name="Rectangle 59" width="209.763" height="17.828" rx="3.499" transform="translate(208.456 162.146)" fill="#d5d5d5"/>
    <rect id="Rectangle_60" data-name="Rectangle 60" width="209.763" height="17.828" rx="3.499" transform="translate(208.456 267.741)" fill="#d5d5d5"/>
    <rect id="Rectangle_61" data-name="Rectangle 61" width="209.763" height="17.828" rx="3.499" transform="translate(208.456 487.159)" fill="#d5d5d5"/>
    <rect id="Rectangle_62" data-name="Rectangle 62" width="209.763" height="17.828" rx="3.499" transform="translate(208.456 600.393)" fill="#d5d5d5"/>
    <rect id="Rectangle_63" data-name="Rectangle 63" width="209.763" height="17.828" rx="3.499" transform="translate(208.456 378.822)" fill="#d5d5d5"/>
    <rect id="Rectangle_64" data-name="Rectangle 64" width="176.097" height="17.828" rx="3.499" transform="translate(208.456 201.915)" fill="#e6e6e6"/>
    <rect id="Rectangle_65" data-name="Rectangle 65" width="176.097" height="17.828" rx="3.499" transform="translate(208.456 307.511)" fill="#e6e6e6"/>
    <rect id="Rectangle_66" data-name="Rectangle 66" width="165.728" height="17.828" rx="3.499" transform="translate(208.456 526.929)" fill="#e6e6e6"/>
    <rect id="Rectangle_67" data-name="Rectangle 67" width="165.728" height="17.828" rx="3.499" transform="translate(208.456 640.163)" fill="#e6e6e6"/>
    <rect id="Rectangle_68" data-name="Rectangle 68" width="176.097" height="17.828" rx="3.499" transform="translate(208.456 418.591)" fill="#e6e6e6"/>
    <circle id="Ellipse_69" data-name="Ellipse 69" cx="15.771" cy="15.771" r="15.771" transform="translate(459.362 177.231)" fill="#f7d58c" stroke="#fff" stroke-width="1.75"/>
    <circle id="Ellipse_70" data-name="Ellipse 70" cx="15.771" cy="15.771" r="15.771" transform="translate(477.189 177.231)" fill="#73304f" stroke="#fff" stroke-width="1.75"/>
    <circle id="Ellipse_71" data-name="Ellipse 71" cx="15.771" cy="15.771" r="15.771" transform="translate(477.189 277.34)" fill="#c3326b" stroke="#fff" stroke-width="1.75"/>
  </g>
</svg>
