<svg xmlns="http://www.w3.org/2000/svg" width="284" height="347.297" viewBox="0 0 284 347.297">
  <g id="Frame_544main" data-name="Frame 544main" transform="translate(-0.275)">
    <path id="Path_73" data-name="Path 73" d="M.275,25.369h284v-21A4.374,4.374,0,0,0,279.9,0H4.649A4.374,4.374,0,0,0,.275,4.374Z" fill="#e3e3e3"/>
    <path id="Path_74" data-name="Path 74" d="M.275,25.369h284V342.923A4.374,4.374,0,0,1,279.9,347.3H4.649a4.374,4.374,0,0,1-4.374-4.374Z" fill="#fff"/>
    <path id="Path_75" data-name="Path 75" d="M42.076,55.909l2.072-3.639h1.889L42.916,57.6v3.261H41.138V57.6L38.045,52.27H39.99Zm9.554,1.834a3.3,3.3,0,0,1-.854,2.351,3.143,3.143,0,0,1-4.423,0,3.684,3.684,0,0,1,0-4.717,3.143,3.143,0,0,1,4.423,0A3.317,3.317,0,0,1,51.63,57.743Zm-1.722,0a2.131,2.131,0,0,0-.364-1.3,1.125,1.125,0,0,0-.98-.5,1.161,1.161,0,0,0-.994.5,2.194,2.194,0,0,0-.35,1.3,2.234,2.234,0,0,0,.35,1.3,1.172,1.172,0,0,0,.994.49,1.135,1.135,0,0,0,.98-.49A2.17,2.17,0,0,0,49.908,57.743Zm8.374-3.135v6.257H56.546V60.29a2.156,2.156,0,0,1-1.68.714,2.112,2.112,0,0,1-1.624-.63,2.4,2.4,0,0,1-.574-1.68V54.607H54.4v3.737a1.208,1.208,0,0,0,.252.812.941.941,0,0,0,.756.294,1.182,1.182,0,0,0,.714-.224,1.117,1.117,0,0,0,.406-.644V54.607Zm5.29-.028v1.736a1.66,1.66,0,0,0-.868-.21,1.259,1.259,0,0,0-.77.238,1.039,1.039,0,0,0-.42.644v3.877H59.779V54.607h1.736v.616a1.511,1.511,0,0,1,1.4-.756A1.408,1.408,0,0,1,63.572,54.579Zm3.688-.742V52.27h7.334v1.568H71.823v7.026H70.017V53.837Zm13.279,3.905a3.3,3.3,0,0,1-.854,2.351,3.143,3.143,0,0,1-4.423,0,3.684,3.684,0,0,1,0-4.717,3.143,3.143,0,0,1,4.423,0A3.317,3.317,0,0,1,80.539,57.743Zm-1.722,0a2.131,2.131,0,0,0-.364-1.3,1.125,1.125,0,0,0-.98-.5,1.161,1.161,0,0,0-.994.5,2.194,2.194,0,0,0-.35,1.3,2.234,2.234,0,0,0,.35,1.3,1.172,1.172,0,0,0,.994.49,1.135,1.135,0,0,0,.98-.49A2.17,2.17,0,0,0,78.818,57.743Zm6.9,3.121-1.834-2.52-.5.546v1.974H81.649v-9.1h1.736v5.165l2.142-2.323h2.155l-2.533,2.659,2.632,3.6Zm6.459-2.044h1.61a2.509,2.509,0,0,1-.9,1.61A2.9,2.9,0,0,1,91.019,61a2.873,2.873,0,0,1-2.2-.9,3.712,3.712,0,0,1,0-4.7,2.805,2.805,0,0,1,2.17-.938,2.615,2.615,0,0,1,2.085.854,3.242,3.242,0,0,1,.756,2.254v.532H89.661a1.762,1.762,0,0,0,.406,1.106,1.238,1.238,0,0,0,.952.392A1.053,1.053,0,0,0,92.181,58.82Zm-1.176-2.939a1.255,1.255,0,0,0-1.3,1.176h2.421a1.249,1.249,0,0,0-.308-.84A1.022,1.022,0,0,0,91.005,55.881Zm3.93,4.983V54.607H96.67v.574a2.369,2.369,0,0,1,3.3-.084,2.361,2.361,0,0,1,.588,1.68v4.087H98.826V57.141a1.144,1.144,0,0,0-.266-.8.919.919,0,0,0-.756-.308,1.194,1.194,0,0,0-.728.238,1.054,1.054,0,0,0-.406.63v3.961Zm9.347,1.176,3.471-10.274h1.61L105.891,62.04ZM115,59.282h1.19a2.4,2.4,0,0,0,1.875-.728,3.352,3.352,0,0,0,0-3.989,2.4,2.4,0,0,0-1.875-.728H115Zm-1.778,1.582V52.27h3.038a4.151,4.151,0,0,1,3.093,1.162,4.855,4.855,0,0,1,0,6.271,4.151,4.151,0,0,1-3.093,1.162Zm10.195-6.257v6.257h-1.735V54.607Zm.154-1.806a.92.92,0,0,1-.308.714,1,1,0,0,1-.714.28,1.062,1.062,0,0,1-.741-.28.943.943,0,0,1-.294-.714.9.9,0,0,1,.308-.7,1.018,1.018,0,0,1,.727-.294.972.972,0,0,1,.714.294A.9.9,0,0,1,123.574,52.8Zm.958,6.2h1.722a.967.967,0,0,0,1.049.686q.882,0,.882-.616a.373.373,0,0,0-.154-.322,1.138,1.138,0,0,0-.476-.21l-1.259-.28q-1.625-.378-1.624-1.764a1.765,1.765,0,0,1,.714-1.456,2.745,2.745,0,0,1,1.777-.574,2.872,2.872,0,0,1,1.82.518,2.189,2.189,0,0,1,.84,1.414h-1.652a.9.9,0,0,0-.98-.616,1.1,1.1,0,0,0-.588.154.489.489,0,0,0-.237.434q0,.35.559.49l1.288.294q1.667.406,1.666,1.82a1.757,1.757,0,0,1-.728,1.484,2.934,2.934,0,0,1-1.834.546,3.251,3.251,0,0,1-1.9-.518A2.124,2.124,0,0,1,124.532,59Zm6.124-1.26a3.349,3.349,0,0,1,.84-2.366,3.1,3.1,0,0,1,4.045-.294,2.512,2.512,0,0,1,.868,1.638H134.7a.849.849,0,0,0-.35-.56,1.074,1.074,0,0,0-.686-.21,1.1,1.1,0,0,0-.938.49,2.2,2.2,0,0,0-.35,1.3,2.17,2.17,0,0,0,.35,1.288,1.1,1.1,0,0,0,.938.49,1.126,1.126,0,0,0,.686-.2.9.9,0,0,0,.35-.574h1.708a2.513,2.513,0,0,1-.868,1.638,2.77,2.77,0,0,1-1.876.616,2.818,2.818,0,0,1-2.169-.91A3.329,3.329,0,0,1,130.656,57.743Zm12.359-3.135v6.257h-1.736V60.29A2.155,2.155,0,0,1,139.6,61a2.112,2.112,0,0,1-1.624-.63,2.4,2.4,0,0,1-.574-1.68V54.607h1.736v3.737a1.208,1.208,0,0,0,.252.812.941.941,0,0,0,.756.294,1.18,1.18,0,0,0,.713-.224,1.112,1.112,0,0,0,.406-.644V54.607Zm1.091,4.4h1.721a.968.968,0,0,0,1.05.686q.882,0,.882-.616a.376.376,0,0,0-.154-.322,1.138,1.138,0,0,0-.476-.21l-1.26-.28q-1.623-.378-1.623-1.764a1.766,1.766,0,0,1,.713-1.456,2.748,2.748,0,0,1,1.778-.574,2.872,2.872,0,0,1,1.82.518A2.188,2.188,0,0,1,149.4,56.4h-1.651a.9.9,0,0,0-.98-.616,1.1,1.1,0,0,0-.588.154.49.49,0,0,0-.238.434q0,.35.56.49l1.288.294q1.665.406,1.665,1.82a1.756,1.756,0,0,1-.727,1.484,2.936,2.936,0,0,1-1.834.546,3.256,3.256,0,0,1-1.9-.518A2.126,2.126,0,0,1,144.106,59Zm6.11,0h1.721a.968.968,0,0,0,1.05.686q.882,0,.882-.616a.376.376,0,0,0-.154-.322,1.144,1.144,0,0,0-.476-.21l-1.26-.28q-1.623-.378-1.623-1.764a1.764,1.764,0,0,1,.713-1.456,2.748,2.748,0,0,1,1.778-.574,2.874,2.874,0,0,1,1.82.518,2.192,2.192,0,0,1,.839,1.414h-1.651a.9.9,0,0,0-.98-.616,1.1,1.1,0,0,0-.588.154.488.488,0,0,0-.238.434q0,.35.56.49l1.288.294q1.665.406,1.665,1.82a1.756,1.756,0,0,1-.727,1.484A2.936,2.936,0,0,1,153,61a3.254,3.254,0,0,1-1.9-.518A2.126,2.126,0,0,1,150.216,59Zm8.251-4.4v6.257h-1.736V54.607Zm.154-1.806a.923.923,0,0,1-.308.714,1,1,0,0,1-.714.28,1.066,1.066,0,0,1-.742-.28.943.943,0,0,1-.294-.714.908.908,0,0,1,.308-.7,1.021,1.021,0,0,1,.728-.294.972.972,0,0,1,.714.294A.908.908,0,0,1,158.621,52.8Zm7.1,4.941a3.3,3.3,0,0,1-.853,2.351,3.143,3.143,0,0,1-4.423,0,3.684,3.684,0,0,1,0-4.717,3.143,3.143,0,0,1,4.423,0A3.317,3.317,0,0,1,165.723,57.743Zm-1.721,0a2.136,2.136,0,0,0-.364-1.3,1.125,1.125,0,0,0-.98-.5,1.161,1.161,0,0,0-.994.5,2.2,2.2,0,0,0-.35,1.3,2.236,2.236,0,0,0,.35,1.3,1.172,1.172,0,0,0,.994.49,1.135,1.135,0,0,0,.98-.49A2.174,2.174,0,0,0,164,57.743Zm2.831,3.121V54.607h1.735v.574a2.37,2.37,0,0,1,3.3-.084,2.366,2.366,0,0,1,.587,1.68v4.087h-1.735V57.141a1.146,1.146,0,0,0-.266-.8.92.92,0,0,0-.756-.308,1.194,1.194,0,0,0-.728.238,1.059,1.059,0,0,0-.406.63v3.961ZM173.494,59h1.721a.968.968,0,0,0,1.05.686q.882,0,.882-.616a.376.376,0,0,0-.154-.322,1.144,1.144,0,0,0-.476-.21l-1.26-.28q-1.623-.378-1.623-1.764a1.764,1.764,0,0,1,.713-1.456,2.748,2.748,0,0,1,1.778-.574,2.874,2.874,0,0,1,1.82.518,2.192,2.192,0,0,1,.839,1.414h-1.651a.9.9,0,0,0-.98-.616,1.1,1.1,0,0,0-.588.154.488.488,0,0,0-.238.434q0,.35.56.49l1.288.294q1.665.406,1.665,1.82a1.756,1.756,0,0,1-.727,1.484,2.936,2.936,0,0,1-1.834.546,3.254,3.254,0,0,1-1.9-.518A2.126,2.126,0,0,1,173.494,59Z" fill="#262523"/>
    <circle id="Ellipse_104" data-name="Ellipse 104" cx="4.811" cy="4.811" r="4.811" transform="translate(36.142 7.873)" fill="#a1e59d"/>
    <circle id="Ellipse_105" data-name="Ellipse 105" cx="4.811" cy="4.811" r="4.811" transform="translate(22.145 7.873)" fill="#f2c571"/>
    <circle id="Ellipse_106" data-name="Ellipse 106" cx="4.811" cy="4.811" r="4.811" transform="translate(8.148 7.873)" fill="#d27365"/>
    <circle id="Ellipse_107" data-name="Ellipse 107" cx="6.998" cy="6.998" r="6.998" transform="translate(17.771 49.864)" fill="#dedede"/>
    <rect id="Rectangle_93" data-name="Rectangle 93" width="140.709" height="11.372" rx="3.499" transform="translate(39.86 103.227)" fill="#d5d5d5"/>
    <rect id="Rectangle_94" data-name="Rectangle 94" width="140.709" height="11.372" rx="3.499" transform="translate(39.86 170.587)" fill="#d5d5d5"/>
    <rect id="Rectangle_95" data-name="Rectangle 95" width="140.709" height="11.372" rx="3.499" transform="translate(39.86 310.555)" fill="#d5d5d5"/>
    <rect id="Rectangle_96" data-name="Rectangle 96" width="140.709" height="11.372" rx="3.499" transform="translate(39.86 241.446)" fill="#d5d5d5"/>
    <rect id="Rectangle_97" data-name="Rectangle 97" width="118.126" height="11.372" rx="3.499" transform="translate(39.86 128.596)" fill="#e6e6e6"/>
    <rect id="Rectangle_98" data-name="Rectangle 98" width="118.126" height="11.372" rx="3.499" transform="translate(39.86 195.956)" fill="#e6e6e6"/>
    <rect id="Rectangle_99" data-name="Rectangle 99" width="101.13" height="11.372" rx="3.499" transform="translate(38.003 335.924)" fill="#e6e6e6"/>
    <rect id="Rectangle_100" data-name="Rectangle 100" width="118.126" height="11.372" rx="3.499" transform="translate(39.86 266.815)" fill="#e6e6e6"/>
    <rect id="Rectangle_101" data-name="Rectangle 101" width="230.158" height="80.482" transform="translate(26.956 266.815)" fill="#fff"/>
    <circle id="Ellipse_108" data-name="Ellipse 108" cx="10.06" cy="10.06" r="10.06" transform="translate(212.5 254.059)" fill="#e1696c" stroke="#fff" stroke-width="1.75"/>
    <circle id="Ellipse_109" data-name="Ellipse 109" cx="10.06" cy="10.06" r="10.06" transform="translate(223.872 254.059)" fill="#8fd4d7" stroke="#fff" stroke-width="1.75"/>
    <circle id="Ellipse_110" data-name="Ellipse 110" cx="10.06" cy="10.06" r="10.06" transform="translate(235.245 254.059)" fill="#4da978" stroke="#fff" stroke-width="1.75"/>
    <circle id="Ellipse_111" data-name="Ellipse 111" cx="10.06" cy="10.06" r="10.06" transform="translate(213.375 113.216)" fill="#f7d58c" stroke="#fff" stroke-width="1.75"/>
    <circle id="Ellipse_112" data-name="Ellipse 112" cx="10.06" cy="10.06" r="10.06" transform="translate(224.747 113.216)" fill="#73304f" stroke="#fff" stroke-width="1.75"/>
    <circle id="Ellipse_113" data-name="Ellipse 113" cx="10.06" cy="10.06" r="10.06" transform="translate(224.747 177.077)" fill="#c3326b" stroke="#fff" stroke-width="1.75"/>
    <circle id="Ellipse_114" data-name="Ellipse 114" cx="10.06" cy="10.06" r="10.06" transform="translate(236.12 113.216)" fill="#8fd4dd" stroke="#fff" stroke-width="1.75"/>
    <circle id="Ellipse_115" data-name="Ellipse 115" cx="10.06" cy="10.06" r="10.06" transform="translate(236.12 177.077)" fill="#7e964f" stroke="#fff" stroke-width="1.75"/>
  </g>
</svg>
