<svg xmlns="http://www.w3.org/2000/svg" width="798.648" height="575.015" viewBox="0 0 798.648 575.015">
  <g id="Frame_547" data-name="Frame 547" transform="translate(-0.339 -0.227)">
    <path id="Path_63" data-name="Path 63" d="M.339,41.265H798.986V7.3c0-3.908-3.536-7.076-7.9-7.076H8.237C3.875.227.339,3.395.339,7.3Z" transform="translate(0 0)" fill="#e3e3e3"/>
    <path id="Path_64" data-name="Path 64" d="M.339,25.6H798.986V552.318c0,4.006-3.536,7.255-7.9,7.255H8.237c-4.362,0-7.9-3.249-7.9-7.255Z" transform="translate(0 15.669)" fill="#fff"/>
    <rect id="Rectangle_71" data-name="Rectangle 71" width="79.246" height="38.208" rx="11.81" transform="translate(49.16 228.732)" fill="none" stroke="#e7e7e7" stroke-width="0.875"/>
    <path id="Path_65" data-name="Path 65" d="M50.4,155.128H47.385v5.186H45.03v-13.9H50.4a5.018,5.018,0,0,1,3.464,1.131,4.678,4.678,0,0,1,0,6.453A5.011,5.011,0,0,1,50.4,155.128Zm2.423-4.347a2.294,2.294,0,0,0-.634-1.7,2.485,2.485,0,0,0-1.834-.634H47.385v4.643h2.966a2.453,2.453,0,0,0,1.811-.634A2.226,2.226,0,0,0,52.819,150.782Zm11.488.725a6.019,6.019,0,0,1,0,7.562,4.4,4.4,0,0,1-3.442,1.472,4.465,4.465,0,0,1-3.464-1.472,6.1,6.1,0,0,1,0-7.562,4.46,4.46,0,0,1,3.464-1.472A4.39,4.39,0,0,1,64.307,151.506Zm-1.585,6.181a4.065,4.065,0,0,0,.657-2.4,3.956,3.956,0,0,0-.657-2.376,2.321,2.321,0,0,0-3.713,0,3.956,3.956,0,0,0-.657,2.376,4.065,4.065,0,0,0,.657,2.4,2.356,2.356,0,0,0,3.713,0Zm7.3-12.09v14.717H67.757V145.6Zm5.064,0v14.717H72.821V145.6Z" transform="translate(27.603 95.468)" fill="#262523"/>
    <rect id="Rectangle_72" data-name="Rectangle 72" width="125.945" height="38.208" rx="11.81" transform="translate(49.16 167.798)" fill="none" stroke="#e7e7e7" stroke-width="0.875"/>
    <path id="Path_66" data-name="Path 66" d="M52.774,123.572H51.1L47.272,113.9v9.669H45.03v-13.9h2.694l4.234,10.686,4.189-10.686h2.626v13.9H56.51V113.9Zm15.151-3.125h2.083a3.914,3.914,0,0,1-1.381,2.446,4.312,4.312,0,0,1-2.853.906,4.47,4.47,0,0,1-3.442-1.449,6.027,6.027,0,0,1,.023-7.54,4.3,4.3,0,0,1,3.374-1.517,3.951,3.951,0,0,1,3.215,1.359,5.316,5.316,0,0,1,1.155,3.6v.815h-6.86a3.208,3.208,0,0,0,.725,2.083,2.373,2.373,0,0,0,1.811.747A1.927,1.927,0,0,0,67.925,120.447Zm-2.174-5.252a2.319,2.319,0,0,0-1.608.589,2.814,2.814,0,0,0-.838,1.631h4.551a2.383,2.383,0,0,0-.566-1.585A1.919,1.919,0,0,0,65.751,115.195Zm13.855-.566a3.765,3.765,0,0,1,2.989-1.336,2.97,2.97,0,0,1,2.4,1.019,4.018,4.018,0,0,1,.86,2.718v6.543H83.591v-6.181a2.348,2.348,0,0,0-.43-1.495,1.409,1.409,0,0,0-1.223-.566,1.894,1.894,0,0,0-1.155.385,1.744,1.744,0,0,0-.634,1.11v6.747H77.885v-6.181a2.348,2.348,0,0,0-.43-1.495,1.409,1.409,0,0,0-1.223-.566,1.894,1.894,0,0,0-1.155.385,1.744,1.744,0,0,0-.634,1.11v6.747H72.18V113.519h2.264v.838a2.926,2.926,0,0,1,2.513-1.064,3.16,3.16,0,0,1,1.54.385A2.972,2.972,0,0,1,79.606,114.628Zm11.178,8.083v.861H88.52V108.855h2.264v5.524a2.814,2.814,0,0,1,1.064-.77,3.6,3.6,0,0,1,1.494-.317,4.16,4.16,0,0,1,3.4,1.517,5.574,5.574,0,0,1,1.268,3.735,5.663,5.663,0,0,1-1.268,3.759,4.186,4.186,0,0,1-3.4,1.495,3.605,3.605,0,0,1-1.494-.317A2.814,2.814,0,0,1,90.784,122.712Zm0-6.068v3.8a2.478,2.478,0,0,0,.883.974,2.42,2.42,0,0,0,1.291.362A2.5,2.5,0,0,0,95,120.877a4.012,4.012,0,0,0,0-4.664,2.5,2.5,0,0,0-2.038-.906,2.512,2.512,0,0,0-2.174,1.336Zm15.592,3.8h2.083a3.914,3.914,0,0,1-1.381,2.446,4.312,4.312,0,0,1-2.853.906,4.47,4.47,0,0,1-3.442-1.449,6.027,6.027,0,0,1,.023-7.54,4.3,4.3,0,0,1,3.374-1.517,3.951,3.951,0,0,1,3.215,1.359,5.316,5.316,0,0,1,1.155,3.6v.815h-6.86a3.21,3.21,0,0,0,.725,2.083,2.373,2.373,0,0,0,1.811.747A1.927,1.927,0,0,0,106.376,120.447Zm-2.174-5.252a2.319,2.319,0,0,0-1.608.589,2.814,2.814,0,0,0-.838,1.631h4.551a2.383,2.383,0,0,0-.566-1.585A1.919,1.919,0,0,0,104.2,115.195Zm12.043-1.721v2.333a2.27,2.27,0,0,0-1.336-.34,2.08,2.08,0,0,0-1.291.43,1.844,1.844,0,0,0-.725,1.178v6.5h-2.264V113.519h2.264v1.042a2.185,2.185,0,0,1,.906-.906,2.578,2.578,0,0,1,1.336-.362A2.429,2.429,0,0,1,116.246,113.473Zm1.267,7.2h2.309a1.824,1.824,0,0,0,1.993,1.268,2.273,2.273,0,0,0,1.245-.294,1.025,1.025,0,0,0,.475-.906.782.782,0,0,0-.272-.634,2.143,2.143,0,0,0-.906-.408l-2.083-.5q-2.491-.587-2.491-2.761a2.788,2.788,0,0,1,1.064-2.242,4.137,4.137,0,0,1,2.74-.906,4.343,4.343,0,0,1,2.74.793,3.423,3.423,0,0,1,1.291,2.174H123.4q-.339-1.109-1.834-1.11a2.113,2.113,0,0,0-1.132.294.949.949,0,0,0-.475.861q0,.655,1.042.929l2.128.5q2.581.611,2.581,2.852a2.857,2.857,0,0,1-1.109,2.355,4.393,4.393,0,0,1-2.808.861,4.849,4.849,0,0,1-2.921-.838A3.379,3.379,0,0,1,117.513,120.673Z" transform="translate(27.603 71.339)" fill="#262523"/>
    <path id="Path_67" data-name="Path 67" d="M56.877,58.695l3.351-5.887h3.057l-5.049,8.626V66.71H55.36V61.434l-5-8.626H53.5Zm15.455,2.966a5.334,5.334,0,0,1-1.381,3.8,5.084,5.084,0,0,1-7.155,0,5.96,5.96,0,0,1,0-7.63,5.084,5.084,0,0,1,7.155,0A5.365,5.365,0,0,1,72.332,61.661Zm-2.785,0a3.449,3.449,0,0,0-.589-2.106,1.82,1.82,0,0,0-1.585-.815,1.877,1.877,0,0,0-1.607.815,3.549,3.549,0,0,0-.566,2.106,3.614,3.614,0,0,0,.566,2.106,1.9,1.9,0,0,0,1.607.792,1.837,1.837,0,0,0,1.585-.792A3.511,3.511,0,0,0,69.547,61.661Zm13.546-5.072V66.71H80.285v-.928a3.487,3.487,0,0,1-2.717,1.155,3.417,3.417,0,0,1-2.626-1.019,3.879,3.879,0,0,1-.928-2.717V56.589h2.808v6.045a1.954,1.954,0,0,0,.408,1.313,1.522,1.522,0,0,0,1.223.475,1.911,1.911,0,0,0,1.155-.362,1.807,1.807,0,0,0,.657-1.041v-6.43Zm8.557-.045v2.808a2.686,2.686,0,0,0-1.4-.34A2.037,2.037,0,0,0,89,59.4a1.681,1.681,0,0,0-.679,1.041V66.71H85.513V56.589h2.808v1a2.445,2.445,0,0,1,2.264-1.223A2.279,2.279,0,0,1,91.649,56.544Zm5.966-1.2V52.808H109.48v2.536H105V66.71h-2.921V55.344ZM119.1,61.661a5.334,5.334,0,0,1-1.381,3.8,5.084,5.084,0,0,1-7.155,0,5.96,5.96,0,0,1,0-7.63,5.084,5.084,0,0,1,7.155,0A5.365,5.365,0,0,1,119.1,61.661Zm-2.785,0a3.449,3.449,0,0,0-.589-2.106,1.82,1.82,0,0,0-1.585-.815,1.877,1.877,0,0,0-1.607.815,3.549,3.549,0,0,0-.566,2.106,3.614,3.614,0,0,0,.566,2.106,1.9,1.9,0,0,0,1.607.792,1.836,1.836,0,0,0,1.585-.792A3.511,3.511,0,0,0,116.312,61.661ZM127.48,66.71l-2.966-4.076-.815.883V66.71h-2.808V51.993H123.7v8.355l3.464-3.759h3.487l-4.1,4.3,4.257,5.819ZM137.928,63.4h2.6a4.06,4.06,0,0,1-1.449,2.6,4.7,4.7,0,0,1-3.035.928,4.646,4.646,0,0,1-3.554-1.449,6,6,0,0,1,0-7.608A4.536,4.536,0,0,1,136,56.362a4.232,4.232,0,0,1,3.374,1.381,5.244,5.244,0,0,1,1.223,3.645v.86h-6.747a2.846,2.846,0,0,0,.657,1.789,2,2,0,0,0,1.538.634A1.7,1.7,0,0,0,137.928,63.4Zm-1.9-4.755a2.029,2.029,0,0,0-2.1,1.9h3.916a2.019,2.019,0,0,0-.5-1.358A1.653,1.653,0,0,0,136.026,58.649Zm6.357,8.06V56.589h2.808v.928a3.831,3.831,0,0,1,5.343-.136,3.822,3.822,0,0,1,.951,2.717V66.71h-2.808V60.687a1.846,1.846,0,0,0-.43-1.291,1.488,1.488,0,0,0-1.223-.5,1.927,1.927,0,0,0-1.176.385,1.7,1.7,0,0,0-.657,1.019V66.71Zm15.12,1.9,5.615-16.619h2.6l-5.615,16.619Zm17.343-4.46h1.925a3.876,3.876,0,0,0,3.033-1.177,5.422,5.422,0,0,0,0-6.453,3.876,3.876,0,0,0-3.033-1.177h-1.925Zm-2.875,2.559v-13.9h4.913a6.715,6.715,0,0,1,5,1.879,6.9,6.9,0,0,1,1.857,5.072,6.9,6.9,0,0,1-1.857,5.072,6.715,6.715,0,0,1-5,1.879Zm16.492-10.121V66.71h-2.808V56.589Zm.249-2.921a1.493,1.493,0,0,1-.5,1.155,1.613,1.613,0,0,1-1.155.453,1.719,1.719,0,0,1-1.2-.453,1.525,1.525,0,0,1-.476-1.155,1.469,1.469,0,0,1,.5-1.132,1.648,1.648,0,0,1,1.178-.475,1.573,1.573,0,0,1,1.155.475A1.469,1.469,0,0,1,188.712,53.668ZM190.26,63.7h2.786a1.567,1.567,0,0,0,1.7,1.109q1.424,0,1.425-1a.6.6,0,0,0-.249-.521,1.841,1.841,0,0,0-.768-.34l-2.038-.453q-2.628-.612-2.627-2.853a2.854,2.854,0,0,1,1.155-2.355,4.442,4.442,0,0,1,2.876-.928,4.641,4.641,0,0,1,2.942.838,3.541,3.541,0,0,1,1.359,2.287h-2.672a1.46,1.46,0,0,0-1.584-1,1.787,1.787,0,0,0-.951.249.789.789,0,0,0-.385.7c0,.377.3.642.906.792l2.082.475q2.7.657,2.695,2.943a2.842,2.842,0,0,1-1.178,2.4,4.745,4.745,0,0,1-2.965.883,5.264,5.264,0,0,1-3.08-.838A3.441,3.441,0,0,1,190.26,63.7Zm9.906-2.038a5.417,5.417,0,0,1,1.359-3.826,5.007,5.007,0,0,1,6.543-.475,4.057,4.057,0,0,1,1.4,2.649H206.71a1.367,1.367,0,0,0-.566-.906,1.737,1.737,0,0,0-1.11-.34,1.772,1.772,0,0,0-1.516.792,3.541,3.541,0,0,0-.566,2.106,3.5,3.5,0,0,0,.566,2.083,1.772,1.772,0,0,0,1.516.792,1.822,1.822,0,0,0,1.11-.317,1.453,1.453,0,0,0,.566-.928h2.763a4.057,4.057,0,0,1-1.4,2.649,4.481,4.481,0,0,1-3.035,1,4.558,4.558,0,0,1-3.509-1.472A5.386,5.386,0,0,1,200.166,61.661Zm19.992-5.072V66.71h-2.807v-.928a3.491,3.491,0,0,1-2.718,1.155,3.417,3.417,0,0,1-2.627-1.019,3.883,3.883,0,0,1-.929-2.717V56.589h2.808v6.045a1.954,1.954,0,0,0,.408,1.313,1.523,1.523,0,0,0,1.223.475,1.917,1.917,0,0,0,1.155-.362,1.815,1.815,0,0,0,.657-1.041v-6.43Zm1.765,7.109h2.786a1.563,1.563,0,0,0,1.7,1.109q1.427,0,1.427-1a.6.6,0,0,0-.249-.521,1.839,1.839,0,0,0-.77-.34l-2.037-.453q-2.628-.612-2.627-2.853a2.854,2.854,0,0,1,1.155-2.355,4.441,4.441,0,0,1,2.875-.928,4.646,4.646,0,0,1,2.944.838,3.541,3.541,0,0,1,1.359,2.287H227.81a1.462,1.462,0,0,0-1.585-1,1.787,1.787,0,0,0-.951.249.792.792,0,0,0-.385.7q0,.566.906.792l2.084.475q2.693.657,2.695,2.943a2.842,2.842,0,0,1-1.178,2.4,4.746,4.746,0,0,1-2.967.883,5.258,5.258,0,0,1-3.078-.838A3.435,3.435,0,0,1,221.923,63.7Zm9.884,0h2.784a1.567,1.567,0,0,0,1.7,1.109q1.427,0,1.427-1a.6.6,0,0,0-.249-.521,1.839,1.839,0,0,0-.77-.34l-2.038-.453q-2.625-.612-2.625-2.853a2.854,2.854,0,0,1,1.155-2.355,4.441,4.441,0,0,1,2.875-.928,4.646,4.646,0,0,1,2.944.838,3.541,3.541,0,0,1,1.359,2.287h-2.672a1.462,1.462,0,0,0-1.585-1,1.787,1.787,0,0,0-.951.249.792.792,0,0,0-.385.7q0,.566.906.792l2.084.475q2.693.657,2.695,2.943a2.842,2.842,0,0,1-1.178,2.4,4.746,4.746,0,0,1-2.967.883,5.258,5.258,0,0,1-3.078-.838A3.436,3.436,0,0,1,231.807,63.7Zm13.347-7.109V66.71h-2.807V56.589Zm.249-2.921a1.487,1.487,0,0,1-.5,1.155,1.612,1.612,0,0,1-1.153.453,1.719,1.719,0,0,1-1.2-.453,1.525,1.525,0,0,1-.476-1.155,1.463,1.463,0,0,1,.5-1.132,1.648,1.648,0,0,1,1.178-.475,1.572,1.572,0,0,1,1.153.475A1.463,1.463,0,0,1,245.4,53.668Zm11.49,7.993a5.336,5.336,0,0,1-1.381,3.8,5.084,5.084,0,0,1-7.155,0,5.959,5.959,0,0,1,0-7.63,5.084,5.084,0,0,1,7.155,0A5.367,5.367,0,0,1,256.893,61.661Zm-2.786,0a3.445,3.445,0,0,0-.589-2.106,1.82,1.82,0,0,0-1.585-.815,1.874,1.874,0,0,0-1.606.815,3.541,3.541,0,0,0-.566,2.106,3.605,3.605,0,0,0,.566,2.106,1.891,1.891,0,0,0,1.606.792,1.836,1.836,0,0,0,1.585-.792A3.506,3.506,0,0,0,254.108,61.661Zm4.58,5.049V56.589H261.5v.928a3.831,3.831,0,0,1,5.343-.136,3.822,3.822,0,0,1,.951,2.717V66.71h-2.808V60.687a1.854,1.854,0,0,0-.43-1.291,1.488,1.488,0,0,0-1.223-.5,1.935,1.935,0,0,0-1.178.385A1.7,1.7,0,0,0,261.5,60.3V66.71ZM269.462,63.7h2.784a1.567,1.567,0,0,0,1.7,1.109q1.427,0,1.427-1a.6.6,0,0,0-.249-.521,1.839,1.839,0,0,0-.77-.34l-2.038-.453q-2.625-.612-2.625-2.853a2.854,2.854,0,0,1,1.155-2.355,4.441,4.441,0,0,1,2.875-.928,4.646,4.646,0,0,1,2.944.838,3.541,3.541,0,0,1,1.359,2.287h-2.672a1.462,1.462,0,0,0-1.585-1,1.787,1.787,0,0,0-.951.249.792.792,0,0,0-.385.7q0,.566.906.792l2.083.475q2.693.657,2.695,2.943a2.842,2.842,0,0,1-1.178,2.4,4.746,4.746,0,0,1-2.967.883,5.258,5.258,0,0,1-3.078-.838A3.435,3.435,0,0,1,269.462,63.7Z" transform="translate(30.892 31.972)" fill="#262523"/>
    <circle id="Ellipse_74" data-name="Ellipse 74" cx="7.783" cy="7.783" r="7.783" transform="translate(58.359 12.963)" fill="#a1e59d"/>
    <circle id="Ellipse_75" data-name="Ellipse 75" cx="16.274" cy="16.274" r="16.274" transform="translate(695.841 532.788)" fill="#73304f" stroke="#fff" stroke-width="1.75"/>
    <circle id="Ellipse_76" data-name="Ellipse 76" cx="16.274" cy="16.274" r="16.274" transform="translate(714.237 532.788)" fill="#f7d58c" stroke="#fff" stroke-width="1.75"/>
    <circle id="Ellipse_77" data-name="Ellipse 77" cx="16.274" cy="16.274" r="16.274" transform="translate(732.632 532.788)" fill="#c3326b" stroke="#fff" stroke-width="1.75"/>
    <circle id="Ellipse_78" data-name="Ellipse 78" cx="7.783" cy="7.783" r="7.783" transform="translate(35.717 12.963)" fill="#f2c571"/>
    <circle id="Ellipse_79" data-name="Ellipse 79" cx="7.783" cy="7.783" r="7.783" transform="translate(13.074 12.963)" fill="#d27365"/>
    <circle id="Ellipse_80" data-name="Ellipse 80" cx="16.274" cy="16.274" r="16.274" transform="translate(694.426 420.856)" fill="#e1696c" stroke="#fff" stroke-width="1.75"/>
    <circle id="Ellipse_81" data-name="Ellipse 81" cx="16.274" cy="16.274" r="16.274" transform="translate(712.821 420.856)" fill="#8fd4d7" stroke="#fff" stroke-width="1.75"/>
    <circle id="Ellipse_82" data-name="Ellipse 82" cx="16.274" cy="16.274" r="16.274" transform="translate(731.219 420.856)" fill="#4da978" stroke="#fff" stroke-width="1.75"/>
    <circle id="Ellipse_83" data-name="Ellipse 83" cx="11.321" cy="11.321" r="11.321" transform="translate(48.452 80.888)" fill="#dedede"/>
    <rect id="Rectangle_73" data-name="Rectangle 73" width="324.06" height="18.396" rx="3.499" transform="translate(261.162 171.272)" fill="#d5d5d5"/>
    <rect id="Rectangle_74" data-name="Rectangle 74" width="324.06" height="18.396" rx="3.499" transform="translate(261.162 282.884)" fill="#d5d5d5"/>
    <rect id="Rectangle_75" data-name="Rectangle 75" width="324.06" height="18.396" rx="3.499" transform="translate(261.162 515.807)" fill="#d5d5d5"/>
    <rect id="Rectangle_76" data-name="Rectangle 76" width="324.06" height="18.396" rx="3.499" transform="translate(261.162 400.295)" fill="#d5d5d5"/>
    <rect id="Rectangle_77" data-name="Rectangle 77" width="272.05" height="18.396" rx="3.499" transform="translate(255.799 213.307)" fill="#e6e6e6"/>
    <rect id="Rectangle_78" data-name="Rectangle 78" width="272.05" height="18.396" rx="3.499" transform="translate(255.799 324.921)" fill="#e6e6e6"/>
    <rect id="Rectangle_79" data-name="Rectangle 79" width="272.05" height="18.396" rx="3.499" transform="translate(255.799 556.844)" fill="#e6e6e6"/>
    <rect id="Rectangle_80" data-name="Rectangle 80" width="272.05" height="18.396" rx="3.499" transform="translate(255.799 442.332)" fill="#e6e6e6"/>
    <rect id="Rectangle_81" data-name="Rectangle 81" width="530.065" height="118.867" transform="translate(268.922 456.375)" fill="rgba(255,255,255,0.78)"/>
    <circle id="Ellipse_84" data-name="Ellipse 84" cx="16.274" cy="16.274" r="16.274" transform="translate(695.841 187.335)" fill="#f7d58c" stroke="#fff" stroke-width="1.75"/>
    <circle id="Ellipse_85" data-name="Ellipse 85" cx="16.274" cy="16.274" r="16.274" transform="translate(714.237 187.335)" fill="#73304f" stroke="#fff" stroke-width="1.75"/>
    <circle id="Ellipse_86" data-name="Ellipse 86" cx="16.274" cy="16.274" r="16.274" transform="translate(714.237 293.216)" fill="#c3326b" stroke="#fff" stroke-width="1.75"/>
    <circle id="Ellipse_87" data-name="Ellipse 87" cx="16.274" cy="16.274" r="16.274" transform="translate(732.634 187.335)" fill="#8fd4dd" stroke="#fff" stroke-width="1.75"/>
    <circle id="Ellipse_88" data-name="Ellipse 88" cx="16.274" cy="16.274" r="16.274" transform="translate(732.634 293.216)" fill="#7e964f" stroke="#fff" stroke-width="1.75"/>
  </g>
</svg>
