<svg xmlns="http://www.w3.org/2000/svg" width="832.401" height="748.098" viewBox="0 0 832.401 748.098">
  <g id="Group_6" data-name="Group 6" transform="translate(-0.896 -0.324)">
    <path id="Path_29" data-name="Path 29" d="M.9,48.071H833.3V8.556a8.231,8.231,0,0,0-8.23-8.232H9.128A8.232,8.232,0,0,0,.9,8.556Z" transform="translate(0 0)" fill="#e3e3e3"/>
    <path id="Path_30" data-name="Path 30" d="M.9,25.693H833.3V717.2a8.233,8.233,0,0,1-8.23,8.234H9.128A8.233,8.233,0,0,1,.9,717.2Z" transform="translate(0 22.378)" fill="#fff"/>
    <rect id="Rectangle_36" data-name="Rectangle 36" width="92.201" height="44.454" rx="11.81" transform="translate(57.698 259.638)" fill="none" stroke="#e7e7e7" stroke-width="0.875"/>
    <path id="Path_31" data-name="Path 31" d="M51.831,156.783h-3.5v6.034h-2.74V146.643h6.243a5.838,5.838,0,0,1,4.03,1.316,5.445,5.445,0,0,1,0,7.509A5.838,5.838,0,0,1,51.831,156.783Zm2.819-5.057a2.672,2.672,0,0,0-.738-1.976,2.891,2.891,0,0,0-2.134-.738H48.327v5.4h3.451a2.853,2.853,0,0,0,2.107-.738A2.587,2.587,0,0,0,54.65,151.726Zm13.366.843a7,7,0,0,1,0,8.8,5.114,5.114,0,0,1-4,1.713,5.2,5.2,0,0,1-4.03-1.713,7.1,7.1,0,0,1,0-8.8,5.189,5.189,0,0,1,4.03-1.713A5.108,5.108,0,0,1,68.016,152.569Zm-1.844,7.191a4.73,4.73,0,0,0,.764-2.793,4.6,4.6,0,0,0-.764-2.765,2.7,2.7,0,0,0-4.32,0,4.6,4.6,0,0,0-.764,2.765,4.729,4.729,0,0,0,.764,2.793,2.741,2.741,0,0,0,4.32,0Zm8.492-14.067v17.123H72.03V145.694Zm5.891,0v17.123H77.921V145.694Z" transform="translate(39.422 128.227)" fill="#262523"/>
    <rect id="Rectangle_37" data-name="Rectangle 37" width="146.534" height="44.454" rx="11.81" transform="translate(57.698 190.489)" fill="none" stroke="#e7e7e7" stroke-width="0.875"/>
    <path id="Path_32" data-name="Path 32" d="M54.6,126.075H52.648L48.2,114.826v11.249H45.588V109.9h3.135l4.926,12.433L58.522,109.9h3.056v16.175H58.943V114.826Zm17.628-3.636h2.424a4.552,4.552,0,0,1-1.607,2.846,5.017,5.017,0,0,1-3.319,1.054,5.2,5.2,0,0,1-4-1.686,7.012,7.012,0,0,1,.026-8.772,5.007,5.007,0,0,1,3.925-1.765A4.6,4.6,0,0,1,73.41,115.7a6.19,6.19,0,0,1,1.343,4.189v.949H66.772a3.734,3.734,0,0,0,.843,2.422,2.761,2.761,0,0,0,2.107.87A2.24,2.24,0,0,0,72.225,122.439ZM69.7,116.328a2.7,2.7,0,0,0-1.87.685,3.274,3.274,0,0,0-.975,1.9h5.295a2.775,2.775,0,0,0-.659-1.844A2.232,2.232,0,0,0,69.7,116.328Zm16.12-.659a4.386,4.386,0,0,1,3.477-1.555,3.456,3.456,0,0,1,2.792,1.186,4.679,4.679,0,0,1,1,3.162v7.613H90.452v-7.191a2.732,2.732,0,0,0-.5-1.739,1.639,1.639,0,0,0-1.422-.659,2.2,2.2,0,0,0-1.344.448,2.034,2.034,0,0,0-.738,1.291v7.85H83.814v-7.191a2.732,2.732,0,0,0-.5-1.739,1.64,1.64,0,0,0-1.422-.659,2.2,2.2,0,0,0-1.344.448,2.034,2.034,0,0,0-.738,1.291v7.85H77.175v-11.7h2.634v.975a3.409,3.409,0,0,1,2.924-1.238,3.678,3.678,0,0,1,1.791.448A3.492,3.492,0,0,1,85.816,115.669Zm13.005,9.4v1H96.186V108.952h2.634v6.427a3.294,3.294,0,0,1,1.238-.9,4.194,4.194,0,0,1,1.739-.369,4.841,4.841,0,0,1,3.951,1.765,6.487,6.487,0,0,1,1.475,4.348,6.588,6.588,0,0,1-1.475,4.372,4.87,4.87,0,0,1-3.951,1.739,4.165,4.165,0,0,1-1.739-.369A3.274,3.274,0,0,1,98.821,125.074Zm0-7.06v4.425a2.87,2.87,0,0,0,1.027,1.133,2.8,2.8,0,0,0,1.5.422,2.906,2.906,0,0,0,2.371-1.054,4.668,4.668,0,0,0,0-5.426,2.911,2.911,0,0,0-2.371-1.054,2.923,2.923,0,0,0-2.529,1.555Zm18.141,4.425h2.424a4.554,4.554,0,0,1-1.607,2.846,5.017,5.017,0,0,1-3.319,1.054,5.2,5.2,0,0,1-4-1.686,7.012,7.012,0,0,1,.026-8.772,5.007,5.007,0,0,1,3.925-1.765,4.6,4.6,0,0,1,3.741,1.581,6.19,6.19,0,0,1,1.344,4.189v.949h-7.982a3.734,3.734,0,0,0,.843,2.422,2.761,2.761,0,0,0,2.108.87A2.24,2.24,0,0,0,116.962,122.439Zm-2.529-6.111a2.7,2.7,0,0,0-1.87.685,3.274,3.274,0,0,0-.975,1.9h5.3a2.776,2.776,0,0,0-.659-1.844A2.233,2.233,0,0,0,114.433,116.328Zm14.012-2v2.714a2.641,2.641,0,0,0-1.554-.4,2.419,2.419,0,0,0-1.5.5,2.148,2.148,0,0,0-.843,1.37v7.56h-2.634v-11.7h2.634v1.212a2.542,2.542,0,0,1,1.054-1.054,3,3,0,0,1,1.554-.422A2.825,2.825,0,0,1,128.445,114.325Zm1.474,8.377h2.687a2.122,2.122,0,0,0,2.318,1.476,2.628,2.628,0,0,0,1.449-.343,1.19,1.19,0,0,0,.553-1.054.909.909,0,0,0-.316-.738,2.471,2.471,0,0,0-1.054-.472l-2.424-.58q-2.9-.686-2.9-3.215a3.244,3.244,0,0,1,1.238-2.609,4.813,4.813,0,0,1,3.187-1.054,5.064,5.064,0,0,1,3.187.922,3.988,3.988,0,0,1,1.5,2.53h-2.582q-.4-1.29-2.134-1.291a2.457,2.457,0,0,0-1.317.343,1.107,1.107,0,0,0-.553,1q0,.765,1.212,1.08l2.476.58q3,.711,3,3.318a3.324,3.324,0,0,1-1.291,2.74,5.1,5.1,0,0,1-3.267,1,5.642,5.642,0,0,1-3.4-.975A3.928,3.928,0,0,1,129.919,122.7Z" transform="translate(39.422 95.818)" fill="#262523"/>
    <path id="Path_33" data-name="Path 33" d="M58.5,59.887l3.9-6.849h3.556L60.08,63.075v6.138H56.735V63.075L50.913,53.038h3.662Zm17.981,3.451a6.207,6.207,0,0,1-1.607,4.426,5.915,5.915,0,0,1-8.324,0,6.934,6.934,0,0,1,0-8.878,5.915,5.915,0,0,1,8.324,0A6.243,6.243,0,0,1,76.481,63.338Zm-3.24,0a4.013,4.013,0,0,0-.685-2.45,2.118,2.118,0,0,0-1.844-.948,2.185,2.185,0,0,0-1.87.948,4.129,4.129,0,0,0-.659,2.45,4.2,4.2,0,0,0,.659,2.45,2.2,2.2,0,0,0,1.87.922,2.137,2.137,0,0,0,1.844-.922A4.085,4.085,0,0,0,73.241,63.338ZM89,57.437V69.213H85.734v-1.08a4.057,4.057,0,0,1-3.161,1.344,3.976,3.976,0,0,1-3.056-1.186,4.513,4.513,0,0,1-1.08-3.161V57.437H81.7v7.034A2.274,2.274,0,0,0,82.178,66a1.771,1.771,0,0,0,1.422.553,2.224,2.224,0,0,0,1.344-.421,2.1,2.1,0,0,0,.764-1.212V57.437Zm9.956-.053v3.267a3.125,3.125,0,0,0-1.633-.4,2.37,2.37,0,0,0-1.449.448,1.955,1.955,0,0,0-.79,1.212v7.3H91.817V57.437h3.267V58.6a2.844,2.844,0,0,1,2.634-1.423A2.651,2.651,0,0,1,98.956,57.385Zm6.941-1.4V53.038h13.8v2.951h-5.216V69.213h-3.4V55.989Zm24.993,7.35a6.207,6.207,0,0,1-1.607,4.426,5.915,5.915,0,0,1-8.324,0,6.934,6.934,0,0,1,0-8.878,5.915,5.915,0,0,1,8.324,0A6.243,6.243,0,0,1,130.891,63.338Zm-3.24,0a4.013,4.013,0,0,0-.685-2.45,2.118,2.118,0,0,0-1.844-.948,2.185,2.185,0,0,0-1.87.948,4.13,4.13,0,0,0-.659,2.45,4.2,4.2,0,0,0,.659,2.45,2.2,2.2,0,0,0,1.87.922,2.137,2.137,0,0,0,1.844-.922A4.085,4.085,0,0,0,127.65,63.338Zm12.994,5.875-3.451-4.742-.948,1.027v3.714h-3.267V52.09h3.267V61.81l4.03-4.373h4.056l-4.768,5.005,4.952,6.77ZM152.8,65.367h3.028a4.714,4.714,0,0,1-1.684,3.03,5.464,5.464,0,0,1-3.531,1.08,5.4,5.4,0,0,1-4.135-1.686,6.985,6.985,0,0,1,0-8.851,5.278,5.278,0,0,1,4.082-1.765,4.924,4.924,0,0,1,3.926,1.607,6.1,6.1,0,0,1,1.421,4.241v1h-7.85a3.323,3.323,0,0,0,.764,2.081,2.333,2.333,0,0,0,1.792.738A1.981,1.981,0,0,0,152.8,65.367Zm-2.213-5.532a2.363,2.363,0,0,0-2.45,2.213H152.7a2.349,2.349,0,0,0-.58-1.581A1.926,1.926,0,0,0,150.588,59.835Zm7.4,9.378V57.437h3.265v1.08a4.459,4.459,0,0,1,6.218-.158,4.445,4.445,0,0,1,1.1,3.161v7.692h-3.265V62.205a2.157,2.157,0,0,0-.5-1.5,1.731,1.731,0,0,0-1.423-.579,2.248,2.248,0,0,0-1.37.448,1.993,1.993,0,0,0-.764,1.186v7.455Zm17.592,2.213,6.533-19.336h3.03L178.6,71.426Zm20.178-5.19h2.24a4.512,4.512,0,0,0,3.529-1.37,5.368,5.368,0,0,0,1.238-3.741,5.408,5.408,0,0,0-1.238-3.767,4.512,4.512,0,0,0-3.529-1.37h-2.24Zm-3.346,2.977V53.038h5.718a7.812,7.812,0,0,1,5.821,2.187,8.03,8.03,0,0,1,2.161,5.9,8.029,8.029,0,0,1-2.161,5.9,7.812,7.812,0,0,1-5.821,2.187ZM211.6,57.437V69.213H208.33V57.437Zm.29-3.4a1.737,1.737,0,0,1-.58,1.343,1.877,1.877,0,0,1-1.344.527,2,2,0,0,1-1.395-.527,1.774,1.774,0,0,1-.553-1.343,1.7,1.7,0,0,1,.58-1.317,1.913,1.913,0,0,1,1.368-.553,1.829,1.829,0,0,1,1.344.553A1.708,1.708,0,0,1,211.885,54.039Zm1.8,11.67h3.239A1.823,1.823,0,0,0,218.9,67q1.66,0,1.66-1.159a.7.7,0,0,0-.29-.606,2.139,2.139,0,0,0-.9-.4l-2.371-.527q-3.055-.711-3.055-3.319a3.321,3.321,0,0,1,1.344-2.74,5.167,5.167,0,0,1,3.344-1.08,5.407,5.407,0,0,1,3.425.975,4.12,4.12,0,0,1,1.581,2.661h-3.109a1.7,1.7,0,0,0-1.844-1.159,2.079,2.079,0,0,0-1.107.29.922.922,0,0,0-.448.817q0,.659,1.054.922l2.424.553q3.134.764,3.136,3.425a3.307,3.307,0,0,1-1.37,2.792,5.523,5.523,0,0,1-3.452,1.027,6.118,6.118,0,0,1-3.582-.975A4,4,0,0,1,213.688,65.709Zm11.526-2.371a6.3,6.3,0,0,1,1.581-4.452,5.825,5.825,0,0,1,7.613-.553,4.718,4.718,0,0,1,1.632,3.082h-3.213a1.6,1.6,0,0,0-.659-1.054,2.021,2.021,0,0,0-1.291-.4,2.065,2.065,0,0,0-1.765.922,4.134,4.134,0,0,0-.659,2.45,4.084,4.084,0,0,0,.659,2.424,2.065,2.065,0,0,0,1.765.922,2.119,2.119,0,0,0,1.291-.369,1.7,1.7,0,0,0,.659-1.08h3.213a4.719,4.719,0,0,1-1.632,3.082,5.214,5.214,0,0,1-3.531,1.159,5.3,5.3,0,0,1-4.082-1.712A6.267,6.267,0,0,1,225.214,63.338Zm23.261-5.9V69.213h-3.267v-1.08a4.055,4.055,0,0,1-3.16,1.344,3.976,3.976,0,0,1-3.056-1.186,4.509,4.509,0,0,1-1.08-3.161V57.437h3.267v7.034A2.273,2.273,0,0,0,241.652,66a1.77,1.77,0,0,0,1.421.553,2.222,2.222,0,0,0,1.344-.421,2.094,2.094,0,0,0,.764-1.212V57.437Zm2.053,8.272h3.239A1.823,1.823,0,0,0,255.743,67q1.66,0,1.66-1.159a.706.706,0,0,0-.29-.606,2.152,2.152,0,0,0-.9-.4l-2.371-.527q-3.055-.711-3.055-3.319a3.319,3.319,0,0,1,1.342-2.74,5.172,5.172,0,0,1,3.346-1.08,5.411,5.411,0,0,1,3.425.975,4.126,4.126,0,0,1,1.579,2.661h-3.107a1.7,1.7,0,0,0-1.844-1.159,2.079,2.079,0,0,0-1.107.29.918.918,0,0,0-.448.817q0,.659,1.054.922l2.424.553q3.134.764,3.134,3.425a3.305,3.305,0,0,1-1.368,2.792,5.526,5.526,0,0,1-3.452,1.027,6.124,6.124,0,0,1-3.583-.975A4,4,0,0,1,250.528,65.709Zm11.5,0h3.239A1.823,1.823,0,0,0,267.243,67q1.66,0,1.66-1.159a.706.706,0,0,0-.29-.606,2.151,2.151,0,0,0-.9-.4l-2.371-.527q-3.055-.711-3.056-3.319a3.321,3.321,0,0,1,1.344-2.74,5.172,5.172,0,0,1,3.346-1.08,5.41,5.41,0,0,1,3.425.975,4.126,4.126,0,0,1,1.579,2.661h-3.107a1.7,1.7,0,0,0-1.844-1.159,2.079,2.079,0,0,0-1.107.29.918.918,0,0,0-.448.817q0,.659,1.054.922l2.424.553q3.134.764,3.134,3.425a3.3,3.3,0,0,1-1.37,2.792,5.517,5.517,0,0,1-3.45,1.027,6.125,6.125,0,0,1-3.583-.975A4,4,0,0,1,262.027,65.709Zm15.529-8.272V69.213h-3.267V57.437Zm.29-3.4a1.737,1.737,0,0,1-.58,1.343,1.877,1.877,0,0,1-1.344.527,2.006,2.006,0,0,1-1.4-.527,1.774,1.774,0,0,1-.553-1.343,1.708,1.708,0,0,1,.58-1.317,1.92,1.92,0,0,1,1.37-.553,1.83,1.83,0,0,1,1.344.553A1.708,1.708,0,0,1,277.846,54.039Zm13.367,9.3a6.2,6.2,0,0,1-1.607,4.426,5.915,5.915,0,0,1-8.324,0,6.939,6.939,0,0,1,0-8.878,5.915,5.915,0,0,1,8.324,0A6.237,6.237,0,0,1,291.213,63.338Zm-3.239,0a4.02,4.02,0,0,0-.685-2.45,2.12,2.12,0,0,0-1.844-.948,2.186,2.186,0,0,0-1.871.948,4.133,4.133,0,0,0-.659,2.45,4.208,4.208,0,0,0,.659,2.45,2.206,2.206,0,0,0,1.871.922,2.139,2.139,0,0,0,1.844-.922A4.093,4.093,0,0,0,287.974,63.338Zm5.328,5.875V57.437h3.265v1.08a3.961,3.961,0,0,1,3.162-1.344,3.919,3.919,0,0,1,3.055,1.186,4.446,4.446,0,0,1,1.107,3.161v7.692h-3.265V62.205a2.157,2.157,0,0,0-.5-1.5,1.731,1.731,0,0,0-1.423-.579,2.248,2.248,0,0,0-1.37.448,1.993,1.993,0,0,0-.764,1.186v7.455Zm12.535-3.5h3.241A1.823,1.823,0,0,0,311.054,67q1.66,0,1.66-1.159a.706.706,0,0,0-.29-.606,2.151,2.151,0,0,0-.9-.4l-2.371-.527Q306.1,63.6,306.1,60.994a3.321,3.321,0,0,1,1.344-2.74,5.172,5.172,0,0,1,3.346-1.08,5.4,5.4,0,0,1,3.424.975,4.12,4.12,0,0,1,1.581,2.661h-3.107a1.7,1.7,0,0,0-1.844-1.159,2.08,2.08,0,0,0-1.107.29.918.918,0,0,0-.448.817q0,.659,1.054.922l2.424.553Q315.9,63,315.9,65.656a3.3,3.3,0,0,1-1.37,2.792,5.517,5.517,0,0,1-3.45,1.027A6.125,6.125,0,0,1,307.5,68.5,4.01,4.01,0,0,1,305.836,65.709Z" transform="translate(44.119 45.661)" fill="#262523"/>
    <circle id="Ellipse_20" data-name="Ellipse 20" cx="13.172" cy="13.172" r="13.172" transform="translate(56.874 94.171)" fill="#dedede"/>
    <rect id="Rectangle_38" data-name="Rectangle 38" width="377.036" height="21.404" rx="3.499" transform="translate(251.156 194.605)" fill="#d5d5d5"/>
    <rect id="Rectangle_39" data-name="Rectangle 39" width="377.036" height="21.404" rx="3.499" transform="translate(251.156 321.382)" fill="#d5d5d5"/>
    <rect id="Rectangle_40" data-name="Rectangle 40" width="316.524" height="21.404" rx="3.499" transform="translate(251.156 242.351)" fill="#e6e6e6"/>
    <rect id="Rectangle_41" data-name="Rectangle 41" width="316.524" height="21.404" rx="3.499" transform="translate(251.156 369.128)" fill="#e6e6e6"/>
    <circle id="Ellipse_21" data-name="Ellipse 21" cx="18.934" cy="18.934" r="18.934" transform="translate(713.29 212.716)" fill="#f7d58c" stroke="#fff" stroke-width="1.75"/>
    <circle id="Ellipse_22" data-name="Ellipse 22" cx="18.934" cy="18.934" r="18.934" transform="translate(734.693 212.716)" fill="#73304f" stroke="#fff" stroke-width="1.75"/>
    <circle id="Ellipse_23" data-name="Ellipse 23" cx="18.934" cy="18.934" r="18.934" transform="translate(734.693 332.905)" fill="#c3326b" stroke="#fff" stroke-width="1.75"/>
    <circle id="Ellipse_24" data-name="Ellipse 24" cx="18.934" cy="18.934" r="18.934" transform="translate(756.097 212.716)" fill="#8fd4dd" stroke="#fff" stroke-width="1.75"/>
    <circle id="Ellipse_25" data-name="Ellipse 25" cx="18.934" cy="18.934" r="18.934" transform="translate(756.097 332.905)" fill="#7e964f" stroke="#fff" stroke-width="1.75"/>
    <rect id="Rectangle_43" data-name="Rectangle 43" width="377.036" height="21.404" rx="3.499" transform="translate(251.156 448.685)" fill="#d5d5d5"/>
    <rect id="Rectangle_44" data-name="Rectangle 44" width="377.036" height="21.404" rx="3.499" transform="translate(251.156 575.462)" fill="#d5d5d5"/>
    <rect id="Rectangle_45" data-name="Rectangle 45" width="316.524" height="21.404" rx="3.499" transform="translate(251.156 496.431)" fill="#e6e6e6"/>
    <rect id="Rectangle_46" data-name="Rectangle 46" width="316.524" height="21.404" rx="3.499" transform="translate(251.156 623.209)" fill="#e6e6e6"/>
    <circle id="Ellipse_26" data-name="Ellipse 26" cx="18.934" cy="18.934" r="18.934" transform="translate(713.29 466.796)" fill="#f7d58c" stroke="#fff" stroke-width="1.75"/>
    <circle id="Ellipse_27" data-name="Ellipse 27" cx="18.934" cy="18.934" r="18.934" transform="translate(734.693 466.796)" fill="#73304f" stroke="#fff" stroke-width="1.75"/>
    <circle id="Ellipse_28" data-name="Ellipse 28" cx="18.934" cy="18.934" r="18.934" transform="translate(734.693 586.986)" fill="#c3326b" stroke="#fff" stroke-width="1.75"/>
    <circle id="Ellipse_29" data-name="Ellipse 29" cx="18.934" cy="18.934" r="18.934" transform="translate(756.097 466.796)" fill="#8fd4dd" stroke="#fff" stroke-width="1.75"/>
    <circle id="Ellipse_30" data-name="Ellipse 30" cx="18.934" cy="18.934" r="18.934" transform="translate(756.097 586.986)" fill="#7e964f" stroke="#fff" stroke-width="1.75"/>
    <rect id="Rectangle_47" data-name="Rectangle 47" width="616.718" height="321.058" transform="translate(216.384 427.364)" fill="#fff" opacity="0.676"/>
    <circle id="Ellipse_57" data-name="Ellipse 57" cx="9.024" cy="9.024" r="9.024" transform="translate(68.166 15.091)" fill="#a1e59d"/>
    <circle id="Ellipse_58" data-name="Ellipse 58" cx="9.024" cy="9.024" r="9.024" transform="translate(41.914 15.091)" fill="#f2c571"/>
    <circle id="Ellipse_59" data-name="Ellipse 59" cx="9.024" cy="9.024" r="9.024" transform="translate(15.662 15.091)" fill="#d27365"/>
  </g>
</svg>
