<svg width="29" height="29" viewBox="0 0 29 29" fill="none" xmlns="http://www.w3.org/2000/svg">
<g clip-path="url(#clip0)">
<mask id="path-1-outside-1" maskUnits="userSpaceOnUse" x="0.476562" y="0.87793" width="28" height="28" fill="black">
<rect fill="white" x="0.476562" y="0.87793" width="28" height="28"/>
<path fill-rule="evenodd" clip-rule="evenodd" d="M12.5601 16.5192V23.0951L15.4228 26.4983V16.52L25.5069 2.87793H2.47656L12.5601 16.5192Z"/>
</mask>
<path d="M12.5601 23.0951H10.5601C10.5601 23.5662 10.7263 24.0221 11.0296 24.3826L12.5601 23.0951ZM12.5601 16.5192H14.5601C14.5601 16.0912 14.4228 15.6745 14.1684 15.3304L12.5601 16.5192ZM15.4228 26.4983L13.8923 27.7857C14.4333 28.4288 15.3185 28.6651 16.108 28.3772C16.8975 28.0893 17.4228 27.3386 17.4228 26.4983H15.4228ZM15.4228 16.52L13.8145 15.3312C13.5601 15.6753 13.4228 16.092 13.4228 16.52H15.4228ZM25.5069 2.87793L27.1152 4.06677C27.564 3.45961 27.6326 2.65144 27.2926 1.97729C26.9526 1.30314 26.2619 0.87793 25.5069 0.87793V2.87793ZM2.47656 2.87793V0.87793C1.72152 0.87793 1.03084 1.30314 0.690829 1.97729C0.350819 2.65144 0.419444 3.45961 0.868256 4.06677L2.47656 2.87793ZM14.5601 23.0951V16.5192H10.5601V23.0951H14.5601ZM16.9533 25.2108L14.0906 21.8076L11.0296 24.3826L13.8923 27.7857L16.9533 25.2108ZM13.4228 16.52V26.4983H17.4228V16.52H13.4228ZM17.0311 17.7088L27.1152 4.06677L23.8986 1.68909L13.8145 15.3312L17.0311 17.7088ZM25.5069 0.87793H2.47656V4.87793H25.5069V0.87793ZM0.868256 4.06677L10.9518 17.7081L14.1684 15.3304L4.08487 1.68909L0.868256 4.06677Z" fill="black" mask="url(#path-1-outside-1)"/>
</g>
<defs>
<clipPath id="clip0">
<rect width="28" height="28" fill="white" transform="translate(0.0546875 0.647461)"/>
</clipPath>
</defs>
</svg>
