<svg xmlns="http://www.w3.org/2000/svg" xmlns:xlink="http://www.w3.org/1999/xlink" width="520" height="248" viewBox="0 0 520 248">
  <defs>
    <filter id="Rectangle_50" x="0" y="0" width="520" height="248" filterUnits="userSpaceOnUse">
      <feOffset dy="3" input="SourceAlpha"/>
      <feGaussianBlur stdDeviation="3" result="blur"/>
      <feFlood flood-opacity="0.161"/>
      <feComposite operator="in" in2="blur"/>
      <feComposite in="SourceGraphic"/>
    </filter>
  </defs>
  <g id="Group_10" data-name="Group 10" transform="translate(-3793 7959)">
    <g transform="matrix(1, 0, 0, 1, 3793, -7959)" filter="url(#Rectangle_50)">
      <rect id="Rectangle_50-2" data-name="Rectangle 50" width="502" height="230" rx="34" transform="translate(9 6)" fill="#fff"/>
    </g>
    <g id="Group_9" data-name="Group 9" transform="translate(3758.129 -7987.122)">
      <g id="Group_9-2" data-name="Group 9" transform="translate(43.871 34.122)">
        <path id="Path_39" data-name="Path 39" d="M43.871,55.9A21.8,21.8,0,0,1,65.7,34.122H524.044A21.8,21.8,0,0,1,545.871,55.9V242.346a21.8,21.8,0,0,1-21.827,21.777H65.7a21.8,21.8,0,0,1-21.826-21.777Z" transform="translate(-43.871 -34.122)" fill="#fff"/>
        <path id="Path_40" data-name="Path 40" d="M44.309,55.427A20.892,20.892,0,0,1,65.225,34.559h458.35a20.892,20.892,0,0,1,20.916,20.868V241.874a20.894,20.894,0,0,1-20.916,20.87H65.225a20.894,20.894,0,0,1-20.917-20.87Z" transform="translate(-43.401 -33.651)" fill="none" stroke="#e7e7e7" stroke-width="0.875"/>
      </g>
      <path id="Path_41" data-name="Path 41" d="M94.73,62.514a10.9,10.9,0,0,0-21.792,0c0,12.712-5.448,16.344-5.448,16.344h32.688S94.73,75.226,94.73,62.514Z" transform="translate(25.411 18.793)" fill="none" stroke="#000" stroke-linecap="round" stroke-linejoin="round" stroke-width="1.75"/>
      <path id="Path_42" data-name="Path 42" d="M74.217,87.47a2.372,2.372,0,0,0-.757-1.831,2.743,2.743,0,0,0-1.98-.7,2.6,2.6,0,0,0-2.038.843,3.42,3.42,0,0,0-.815,2.121H65.513a6.341,6.341,0,0,1,1.863-4.068,5.682,5.682,0,0,1,4.1-1.569,5.844,5.844,0,0,1,4.163,1.395,4.885,4.885,0,0,1,1.514,3.777,4.243,4.243,0,0,1-.058.7,3.755,3.755,0,0,1-.2.726q-.146.378-.262.668a4.092,4.092,0,0,1-.407.668q-.291.407-.437.639a5.063,5.063,0,0,1-.524.668q-.378.465-.524.639-.145.145-.64.668-.466.523-.582.668l-3.843,4.271h7.773V100.4H65.542V98.424l5.3-5.869q.2-.2.582-.639.407-.436.582-.639.2-.232.524-.581.32-.378.466-.581.175-.232.408-.552a4.087,4.087,0,0,0,.349-.552q.116-.233.233-.494a1.653,1.653,0,0,0,.175-.523A2.409,2.409,0,0,0,74.217,87.47Zm4.989,16.213,2.1-3.225a2.028,2.028,0,0,1-1.194-.61,1.817,1.817,0,0,1-.437-1.249,1.888,1.888,0,0,1,.553-1.395,2,2,0,0,1,1.426-.552,1.881,1.881,0,0,1,1.427.581,2.161,2.161,0,0,1,.553,1.6,4.327,4.327,0,0,1-.844,2.324L81.1,103.683Zm17.232-5.55a5.956,5.956,0,0,1-9.782,0,11.029,11.029,0,0,1-1.863-6.654,11.029,11.029,0,0,1,1.863-6.654,5.956,5.956,0,0,1,9.782,0A11.029,11.029,0,0,1,98.3,91.479,11.029,11.029,0,0,1,96.439,98.133ZM91.548,85a3.094,3.094,0,0,0-2.882,1.772,10.038,10.038,0,0,0-.932,4.707,10.222,10.222,0,0,0,.932,4.736,3.1,3.1,0,0,0,2.882,1.743,3.018,3.018,0,0,0,2.824-1.743,9.957,9.957,0,0,0,.961-4.736,9.779,9.779,0,0,0-.961-4.707A3.013,3.013,0,0,0,91.548,85Zm20.613,13.133a5.956,5.956,0,0,1-9.782,0,11.029,11.029,0,0,1-1.863-6.654,11.029,11.029,0,0,1,1.863-6.654,5.956,5.956,0,0,1,9.782,0,11.03,11.03,0,0,1,1.863,6.654A11.03,11.03,0,0,1,112.161,98.133ZM107.27,85a3.094,3.094,0,0,0-2.882,1.772,10.039,10.039,0,0,0-.932,4.707,10.222,10.222,0,0,0,.932,4.736,3.1,3.1,0,0,0,2.882,1.743,3.018,3.018,0,0,0,2.824-1.743,9.959,9.959,0,0,0,.961-4.736,9.781,9.781,0,0,0-.961-4.707A3.013,3.013,0,0,0,107.27,85Zm20.613,13.133a5.956,5.956,0,0,1-9.782,0,11.029,11.029,0,0,1-1.863-6.654,11.029,11.029,0,0,1,1.863-6.654,5.956,5.956,0,0,1,9.782,0,11.03,11.03,0,0,1,1.863,6.654A11.03,11.03,0,0,1,127.882,98.133ZM122.992,85a3.094,3.094,0,0,0-2.882,1.772,10.039,10.039,0,0,0-.932,4.707,10.222,10.222,0,0,0,.932,4.736,3.1,3.1,0,0,0,2.882,1.743,3.018,3.018,0,0,0,2.824-1.743,9.957,9.957,0,0,0,.961-4.736,9.779,9.779,0,0,0-.961-4.707A3.013,3.013,0,0,0,122.992,85Zm7.446,18.683,2.1-3.225a2.028,2.028,0,0,1-1.193-.61A1.817,1.817,0,0,1,130.9,98.6a1.889,1.889,0,0,1,.553-1.395,2,2,0,0,1,1.427-.552,1.881,1.881,0,0,1,1.426.581,2.161,2.161,0,0,1,.553,1.6,4.327,4.327,0,0,1-.844,2.324l-1.688,2.528Zm17.232-5.55a5.956,5.956,0,0,1-9.782,0,11.032,11.032,0,0,1-1.863-6.654,11.032,11.032,0,0,1,1.863-6.654,5.956,5.956,0,0,1,9.782,0,11.032,11.032,0,0,1,1.864,6.654A11.032,11.032,0,0,1,147.67,98.133ZM142.78,85a3.1,3.1,0,0,0-2.883,1.772,10.028,10.028,0,0,0-.932,4.707,10.211,10.211,0,0,0,.932,4.736,3.1,3.1,0,0,0,2.883,1.743,3.016,3.016,0,0,0,2.822-1.743,9.957,9.957,0,0,0,.961-4.736,9.779,9.779,0,0,0-.961-4.707A3.011,3.011,0,0,0,142.78,85Zm20.612,13.133a5.956,5.956,0,0,1-9.782,0,11.032,11.032,0,0,1-1.864-6.654,11.032,11.032,0,0,1,1.864-6.654,5.956,5.956,0,0,1,9.782,0,11.032,11.032,0,0,1,1.864,6.654A11.032,11.032,0,0,1,163.392,98.133ZM158.5,85a3.094,3.094,0,0,0-2.881,1.772,10.028,10.028,0,0,0-.932,4.707,10.211,10.211,0,0,0,.932,4.736,3.1,3.1,0,0,0,2.881,1.743,3.016,3.016,0,0,0,2.825-1.743,9.957,9.957,0,0,0,.961-4.736,9.779,9.779,0,0,0-.961-4.707A3.012,3.012,0,0,0,158.5,85Zm20.614,13.133a5.956,5.956,0,0,1-9.782,0,11.032,11.032,0,0,1-1.864-6.654,11.032,11.032,0,0,1,1.864-6.654,5.956,5.956,0,0,1,9.782,0,11.032,11.032,0,0,1,1.864,6.654A11.032,11.032,0,0,1,179.114,98.133ZM174.222,85a3.092,3.092,0,0,0-2.881,1.772,10.028,10.028,0,0,0-.932,4.707,10.211,10.211,0,0,0,.932,4.736,3.1,3.1,0,0,0,2.881,1.743,3.019,3.019,0,0,0,2.825-1.743,9.957,9.957,0,0,0,.961-4.736,9.779,9.779,0,0,0-.961-4.707A3.014,3.014,0,0,0,174.222,85Zm29.949,8.484-.435,2.208h-3.087l-1.107,4.707H196.98l1.136-4.707h-3.725l-1.136,4.707h-2.533l1.107-4.707h-2.737l.466-2.208h2.8l.961-4.01h-2.97l.437-2.208h3.057l1.134-4.707h2.562L196.4,87.266h3.727l1.136-4.707h2.533l-1.136,4.707h2.764l-.466,2.208h-2.822l-.961,4.01Zm-8.3-4.01-.961,4.01h3.727l.961-4.01ZM220.055,98.8a7.111,7.111,0,0,1-5.21,1.889A7.214,7.214,0,0,1,209.6,98.8a7.463,7.463,0,0,1-1.922-5.521V82.559h3.028v10.4q0,5.027,4.135,5.027t4.133-5.027v-10.4h3.028V93.31A7.359,7.359,0,0,1,220.055,98.8Zm20.011-16.242V100.4h-2.327L228.6,87.412V100.4h-2.912V82.559h2.854l8.617,12.378V82.559Zm6.984,0V100.4h-3.028V82.559Zm11.381,16.475a12.262,12.262,0,0,1,0-13.714,10,10,0,0,1,5.705-3.806v3.138a5.828,5.828,0,0,0-3.55,2.557,9.7,9.7,0,0,0,0,9.937,5.828,5.828,0,0,0,3.55,2.557v3.138A10,10,0,0,1,258.432,99.034ZM268.526,94.7a3.432,3.432,0,0,0,.932,2.5,3.251,3.251,0,0,0,2.444.959,3.125,3.125,0,0,0,2.388-.959,3.431,3.431,0,0,0,.932-2.5,3.509,3.509,0,0,0-.932-2.557,3.079,3.079,0,0,0-2.388-.988,3.238,3.238,0,0,0-2.473.988A3.572,3.572,0,0,0,268.526,94.7Zm9.316-7.9h-3.028a2.671,2.671,0,0,0-2.737-2.063,3.338,3.338,0,0,0-2.881,1.8,7.771,7.771,0,0,0-1.107,4.155v.319a3.853,3.853,0,0,1,1.6-1.656,4.9,4.9,0,0,1,2.5-.639,5.37,5.37,0,0,1,4.193,1.743,5.906,5.906,0,0,1,1.6,4.184,6,6,0,0,1-1.66,4.3,5.806,5.806,0,0,1-4.455,1.743,5.664,5.664,0,0,1-5.385-3.429,12.377,12.377,0,0,1-1.077-5.4,12.061,12.061,0,0,1,1.805-6.886,5.624,5.624,0,0,1,4.861-2.7A5.414,5.414,0,0,1,277.842,86.8Zm6.86,5.753V90.027h1.048a3.3,3.3,0,0,0,2.155-.668,2.357,2.357,0,0,0,.844-1.918,2.435,2.435,0,0,0-.757-1.831,2.683,2.683,0,0,0-1.98-.726,2.915,2.915,0,0,0-2.155.784,3.035,3.035,0,0,0-.874,2h-2.968a6.2,6.2,0,0,1,1.891-3.894,5.769,5.769,0,0,1,4.077-1.511,5.711,5.711,0,0,1,4.075,1.395,4.614,4.614,0,0,1,1.514,3.6,4.719,4.719,0,0,1-.641,2.47,3.509,3.509,0,0,1-1.687,1.54,4.093,4.093,0,0,1,1.978,1.656,4.28,4.28,0,0,1,.7,2.383,5.133,5.133,0,0,1-1.6,3.864,6.018,6.018,0,0,1-4.308,1.511,6.647,6.647,0,0,1-4.513-1.54,5.717,5.717,0,0,1-1.891-4.1h2.939a3.146,3.146,0,0,0,3.436,3.051,3.2,3.2,0,0,0,2.213-.755,2.575,2.575,0,0,0,.874-2,2.517,2.517,0,0,0-.9-2.034,3.511,3.511,0,0,0-2.33-.755Zm8.442,11.128,2.094-3.225a2.035,2.035,0,0,1-1.194-.61,1.825,1.825,0,0,1-.435-1.249,1.889,1.889,0,0,1,.551-1.395,2,2,0,0,1,1.427-.552,1.881,1.881,0,0,1,1.427.581,2.164,2.164,0,0,1,.553,1.6,4.321,4.321,0,0,1-.844,2.324l-1.689,2.528Zm17.363-18.828L304.334,100.4h-3.026l6.113-15.167h-8.675V82.559h11.762Zm8.507-2.3V100.4h-2.941V86.191l-4.193,2.121V85.262l5.358-2.7ZM325.129,94.7a3.44,3.44,0,0,0,.932,2.5,3.259,3.259,0,0,0,2.446.959,3.128,3.128,0,0,0,2.388-.959,3.44,3.44,0,0,0,.932-2.5,3.518,3.518,0,0,0-.932-2.557,3.082,3.082,0,0,0-2.388-.988,3.243,3.243,0,0,0-2.475.988A3.582,3.582,0,0,0,325.129,94.7Zm9.316-7.9h-3.026a2.672,2.672,0,0,0-2.737-2.063,3.341,3.341,0,0,0-2.883,1.8,7.79,7.79,0,0,0-1.107,4.155v.319a3.876,3.876,0,0,1,1.6-1.656,4.916,4.916,0,0,1,2.5-.639,5.363,5.363,0,0,1,4.191,1.743,5.9,5.9,0,0,1,1.6,4.184,6,6,0,0,1-1.66,4.3,5.8,5.8,0,0,1-4.453,1.743,5.662,5.662,0,0,1-5.385-3.429,12.347,12.347,0,0,1-1.077-5.4,12.076,12.076,0,0,1,1.8-6.886,5.624,5.624,0,0,1,4.863-2.7A5.412,5.412,0,0,1,334.445,86.8Zm1.344,16.881,2.1-3.225a2.023,2.023,0,0,1-1.194-.61,1.817,1.817,0,0,1-.437-1.249,1.883,1.883,0,0,1,.553-1.395,1.993,1.993,0,0,1,1.427-.552,1.879,1.879,0,0,1,1.425.581,2.155,2.155,0,0,1,.553,1.6,4.321,4.321,0,0,1-.844,2.324l-1.687,2.528Zm11.456-21.124V100.4H344.3V86.191l-4.193,2.121V85.262l5.358-2.7Zm11.614,4.91a2.369,2.369,0,0,0-.757-1.831,2.74,2.74,0,0,0-1.98-.7,2.6,2.6,0,0,0-2.036.843,3.411,3.411,0,0,0-.815,2.121h-3.116a6.343,6.343,0,0,1,1.864-4.068,5.678,5.678,0,0,1,4.1-1.569,5.846,5.846,0,0,1,4.164,1.395,4.886,4.886,0,0,1,1.514,3.777,4.15,4.15,0,0,1-.058.7,3.734,3.734,0,0,1-.2.726q-.147.378-.262.668a4.1,4.1,0,0,1-.408.668q-.29.407-.437.639a4.936,4.936,0,0,1-.524.668q-.377.465-.524.639c-.1.1-.31.32-.641.668-.31.349-.5.571-.582.668l-3.842,4.271h7.773V100.4H350.184V98.424l5.3-5.869q.2-.2.58-.639c.272-.29.466-.5.582-.639q.206-.232.524-.581c.214-.252.37-.445.466-.581.116-.155.254-.339.408-.552a3.948,3.948,0,0,0,.349-.552c.079-.155.156-.32.233-.494a1.616,1.616,0,0,0,.175-.523A2.358,2.358,0,0,0,358.859,87.47Zm14.578.784a3.439,3.439,0,0,0-.932-2.5,3.259,3.259,0,0,0-2.446-.959,3.222,3.222,0,0,0-2.417.959,3.5,3.5,0,0,0-.9,2.5,3.688,3.688,0,0,0,.9,2.586,3.562,3.562,0,0,0,4.863,0A3.621,3.621,0,0,0,373.437,88.254Zm-9.316,7.9h3.026a2.672,2.672,0,0,0,2.737,2.063,3.277,3.277,0,0,0,2.854-1.8,7.626,7.626,0,0,0,1.136-4.155v-.32a3.876,3.876,0,0,1-1.6,1.656,4.916,4.916,0,0,1-2.5.639,5.5,5.5,0,0,1-4.22-1.714,6.458,6.458,0,0,1,.058-8.513,5.9,5.9,0,0,1,4.482-1.743,5.667,5.667,0,0,1,5.387,3.429,12.377,12.377,0,0,1,1.075,5.4,12.061,12.061,0,0,1-1.832,6.915,5.569,5.569,0,0,1-4.834,2.673A5.412,5.412,0,0,1,364.121,96.158ZM398.14,98.8a7.111,7.111,0,0,1-5.21,1.889,7.217,7.217,0,0,1-5.241-1.889,7.471,7.471,0,0,1-1.92-5.521V82.559H388.8v10.4q0,5.027,4.135,5.027t4.133-5.027v-10.4h3.028V93.31A7.359,7.359,0,0,1,398.14,98.8Zm4.233-3.341h3.087q.845,2.673,4.048,2.673a4.075,4.075,0,0,0,2.5-.7,2.316,2.316,0,0,0,.961-1.947,1.933,1.933,0,0,0-.612-1.511,4.094,4.094,0,0,0-1.978-.9l-3.028-.726q-4.455-1.046-4.455-4.794a4.8,4.8,0,0,1,1.689-3.777,6.414,6.414,0,0,1,4.4-1.511,7.188,7.188,0,0,1,4.54,1.336,5.88,5.88,0,0,1,2.242,3.6h-3.028a3.531,3.531,0,0,0-3.725-2.383,3.749,3.749,0,0,0-2.359.7,2.122,2.122,0,0,0-.874,1.772q0,1.773,2.359,2.325l3.114.726a6.707,6.707,0,0,1,3.407,1.743,4.379,4.379,0,0,1,1.223,3.2,4.888,4.888,0,0,1-1.776,3.952,7.028,7.028,0,0,1-4.6,1.453,8.035,8.035,0,0,1-4.776-1.366A6,6,0,0,1,402.373,95.46ZM421.9,97.7h2.883a5.411,5.411,0,0,0,4.249-1.656,7.629,7.629,0,0,0,0-9.124,5.363,5.363,0,0,0-4.249-1.685H421.9Zm-3.028,2.7V82.559h6.028A8.377,8.377,0,0,1,431.211,85a8.867,8.867,0,0,1,2.359,6.479,8.969,8.969,0,0,1-2.359,6.509,8.431,8.431,0,0,1-6.317,2.412Zm21.708-15.08a12.123,12.123,0,0,1,0,13.714,9.866,9.866,0,0,1-5.676,3.806V99.7a5.834,5.834,0,0,0,3.55-2.557,9.7,9.7,0,0,0,0-9.937,5.834,5.834,0,0,0-3.55-2.557V81.513A9.867,9.867,0,0,1,440.575,85.32ZM67.114,132.2v-7H65.076v-2.41h2.038v-3.458h2.911v3.458h2.911v2.41H70.025v6.684a1.35,1.35,0,0,0,1.543,1.511,2.772,2.772,0,0,0,1.659-.523v2.643a4.287,4.287,0,0,1-2.184.465,4.175,4.175,0,0,1-2.882-.959A3.627,3.627,0,0,1,67.114,132.2Zm16.3-9.472v2.991a2.922,2.922,0,0,0-1.718-.436,2.677,2.677,0,0,0-1.659.552,2.369,2.369,0,0,0-.932,1.511v8.339H76.2v-12.9h2.911v1.337a2.794,2.794,0,0,1,1.165-1.162,3.3,3.3,0,0,1,1.718-.465A3.1,3.1,0,0,1,83.416,122.731Zm12.2,12.958H92.854v-.727a3.446,3.446,0,0,1-1.281.668,6.19,6.19,0,0,1-1.921.291,5.322,5.322,0,0,1-3.464-1.133,3.837,3.837,0,0,1-1.368-3.079,3.656,3.656,0,0,1,1.427-2.964,5.519,5.519,0,0,1,3.61-1.192,5.968,5.968,0,0,1,1.718.262,4.134,4.134,0,0,1,1.281.523v-1.046a2.244,2.244,0,0,0-.64-1.657,2.426,2.426,0,0,0-1.834-.668,2.091,2.091,0,0,0-2.212,1.395H85.372a4.3,4.3,0,0,1,1.688-2.759,6.026,6.026,0,0,1,7.191.174,4.444,4.444,0,0,1,1.368,3.456Zm-2.766-3.427v-1.075a1.8,1.8,0,0,0-.99-.93,3.673,3.673,0,0,0-1.66-.378,3.76,3.76,0,0,0-1.892.465,1.492,1.492,0,0,0-.786,1.366,1.561,1.561,0,0,0,.786,1.395,3.66,3.66,0,0,0,1.892.465,3.919,3.919,0,0,0,1.66-.349A1.92,1.92,0,0,0,92.854,132.262Zm6.2,3.427v-12.9h2.911v1.221a4.388,4.388,0,0,1,3.493-1.511,4.3,4.3,0,0,1,3.348,1.308,4.9,4.9,0,0,1,1.223,3.485v8.4h-2.911v-7.9a2.858,2.858,0,0,0-.612-1.947,2.31,2.31,0,0,0-1.834-.7,2.755,2.755,0,0,0-1.718.581,2.55,2.55,0,0,0-.99,1.482v8.484Zm13.512-3.718h2.97A2.347,2.347,0,0,0,118.1,133.6a2.926,2.926,0,0,0,1.6-.378,1.316,1.316,0,0,0,.611-1.163,1,1,0,0,0-.349-.814,2.707,2.707,0,0,0-1.165-.523l-2.678-.639q-3.2-.757-3.2-3.546a3.572,3.572,0,0,1,1.368-2.875,5.315,5.315,0,0,1,3.523-1.162,5.592,5.592,0,0,1,3.523,1.017,4.392,4.392,0,0,1,1.659,2.788h-2.853q-.437-1.423-2.358-1.422a2.719,2.719,0,0,0-1.456.376,1.222,1.222,0,0,0-.611,1.1q0,.844,1.339,1.192l2.737.639q3.319.785,3.319,3.662a3.663,3.663,0,0,1-1.427,3.02,5.643,5.643,0,0,1-3.61,1.1,6.23,6.23,0,0,1-3.756-1.075A4.332,4.332,0,0,1,112.565,131.971Zm20.516-15.11v2.557a2.515,2.515,0,0,0-1.426-.407,1.891,1.891,0,0,0-1.4.523,1.968,1.968,0,0,0-.495,1.453v1.8h2.824v2.41h-2.824v10.489h-2.853V125.2h-2.242v-2.41h2.242v-2.005a4.12,4.12,0,0,1,1.194-3.138,4.26,4.26,0,0,1,3.057-1.133A4.728,4.728,0,0,1,133.081,116.862Zm9.8,14.819h2.677a5.021,5.021,0,0,1-1.774,3.137,5.542,5.542,0,0,1-3.669,1.162,5.746,5.746,0,0,1-4.425-1.86,7.72,7.72,0,0,1,.029-9.674,5.531,5.531,0,0,1,4.338-1.947,5.081,5.081,0,0,1,4.133,1.744,6.809,6.809,0,0,1,1.485,4.619v1.046h-8.82a4.123,4.123,0,0,0,.931,2.674,3.055,3.055,0,0,0,2.33.959Q142.415,133.54,142.882,131.68Zm-2.8-6.742a3,3,0,0,0-2.067.756,3.623,3.623,0,0,0-1.077,2.093h5.852a3.065,3.065,0,0,0-.728-2.034A2.472,2.472,0,0,0,140.086,124.938Zm15.485-2.207v2.991a2.922,2.922,0,0,0-1.718-.436,2.684,2.684,0,0,0-1.66.552,2.367,2.367,0,0,0-.93,1.511v8.339h-2.912v-12.9h2.912v1.337a2.786,2.786,0,0,1,1.163-1.162,3.3,3.3,0,0,1,1.718-.465A3.1,3.1,0,0,1,155.571,122.731Zm9.894,0v2.991a2.922,2.922,0,0,0-1.718-.436,2.675,2.675,0,0,0-1.66.552,2.378,2.378,0,0,0-.932,1.511v8.339h-2.91v-12.9h2.91v1.337a2.8,2.8,0,0,1,1.165-1.162,3.3,3.3,0,0,1,1.718-.465A3.1,3.1,0,0,1,165.465,122.731Zm10.223,8.949h2.679a5.014,5.014,0,0,1-1.776,3.137,5.536,5.536,0,0,1-3.667,1.162,5.749,5.749,0,0,1-4.426-1.86,7.719,7.719,0,0,1,.029-9.674,5.534,5.534,0,0,1,4.339-1.947A5.081,5.081,0,0,1,177,124.243a6.808,6.808,0,0,1,1.485,4.619v1.046h-8.821a4.126,4.126,0,0,0,.932,2.674,3.052,3.052,0,0,0,2.33.959Q175.223,133.54,175.688,131.68Zm-2.793-6.742a3,3,0,0,0-2.067.756,3.626,3.626,0,0,0-1.077,2.093H175.6a3.055,3.055,0,0,0-.728-2.034A2.465,2.465,0,0,0,172.895,124.938Zm16.735,10.751v-1.1a3.613,3.613,0,0,1-1.369.988,4.607,4.607,0,0,1-1.922.407,5.475,5.475,0,0,1-4.395-1.916,7.339,7.339,0,0,1-1.6-4.824,7.212,7.212,0,0,1,1.6-4.793,5.43,5.43,0,0,1,4.395-1.947,4.607,4.607,0,0,1,1.922.407,3.613,3.613,0,0,1,1.369.988V116.8h2.91v18.886Zm0-4.009V126.8a3.232,3.232,0,0,0-2.8-1.715,3.221,3.221,0,0,0-2.621,1.162,5.143,5.143,0,0,0,0,5.987,3.221,3.221,0,0,0,2.621,1.162,3.121,3.121,0,0,0,1.66-.465A3.218,3.218,0,0,0,189.63,131.68ZM209.7,116.862v2.557a2.511,2.511,0,0,0-1.425-.407,1.891,1.891,0,0,0-1.4.523,1.964,1.964,0,0,0-.5,1.453v1.8h2.825v2.41h-2.825v10.489h-2.854V125.2h-2.242v-2.41h2.242v-2.005a4.116,4.116,0,0,1,1.194-3.138,4.26,4.26,0,0,1,3.057-1.133A4.713,4.713,0,0,1,209.7,116.862Zm9.328,5.87v2.991a2.922,2.922,0,0,0-1.718-.436,2.675,2.675,0,0,0-1.66.552,2.377,2.377,0,0,0-.932,1.511v8.339h-2.91v-12.9h2.91v1.337a2.8,2.8,0,0,1,1.165-1.162,3.3,3.3,0,0,1,1.718-.465A3.1,3.1,0,0,1,219.028,122.731Zm11.912,1.657a7.711,7.711,0,0,1,0,9.7,5.653,5.653,0,0,1-4.424,1.887,5.749,5.749,0,0,1-4.455-1.887,7.815,7.815,0,0,1,0-9.7,5.744,5.744,0,0,1,4.455-1.889A5.648,5.648,0,0,1,230.939,124.388ZM228.9,132.32a5.2,5.2,0,0,0,.844-3.081,5.071,5.071,0,0,0-.844-3.052,2.986,2.986,0,0,0-4.773,0,5.071,5.071,0,0,0-.844,3.052,5.2,5.2,0,0,0,.844,3.081,3.031,3.031,0,0,0,4.773,0Zm16.024-8.106a4.846,4.846,0,0,1,3.844-1.715,3.819,3.819,0,0,1,3.085,1.308,5.14,5.14,0,0,1,1.107,3.485v8.4h-2.912v-7.932a3,3,0,0,0-.553-1.918,1.808,1.808,0,0,0-1.57-.727,2.447,2.447,0,0,0-1.485.494,2.25,2.25,0,0,0-.815,1.424v8.659h-2.912v-7.932a3,3,0,0,0-.553-1.918,1.814,1.814,0,0,0-1.572-.727,2.445,2.445,0,0,0-1.483.494,2.241,2.241,0,0,0-.815,1.424v8.659h-2.912v-12.9h2.912v1.075a3.761,3.761,0,0,1,3.23-1.366,4.043,4.043,0,0,1,1.98.494A3.824,3.824,0,0,1,244.925,124.213Zm28.628-1.424v12.9h-2.91v-1.221a4.359,4.359,0,0,1-3.465,1.511,4.3,4.3,0,0,1-3.349-1.308,4.97,4.97,0,0,1-1.194-3.485v-8.4h2.912v7.9q0,2.644,2.417,2.645a2.724,2.724,0,0,0,1.689-.552,2.688,2.688,0,0,0,.99-1.511v-8.484Zm3.615,12.9v-12.9h2.912v1.221a4.388,4.388,0,0,1,3.492-1.511,4.3,4.3,0,0,1,3.349,1.308,4.895,4.895,0,0,1,1.223,3.485v8.4h-2.912v-7.9a2.858,2.858,0,0,0-.611-1.947,2.309,2.309,0,0,0-1.832-.7,2.753,2.753,0,0,0-1.718.581,2.539,2.539,0,0,0-.99,1.482v8.484Zm22.8,0-4.278-5.491-1.194,1.221v4.27h-2.912V116.8h2.912v11.273l5.065-5.287h3.727l-5.5,5.578,5.705,7.322Zm5.632,0v-12.9h2.912v1.221A4.385,4.385,0,0,1,312,122.5a4.305,4.305,0,0,1,3.349,1.308,4.9,4.9,0,0,1,1.223,3.485v8.4h-2.912v-7.9a2.858,2.858,0,0,0-.612-1.947,2.311,2.311,0,0,0-1.835-.7,2.747,2.747,0,0,0-1.716.581,2.54,2.54,0,0,0-.99,1.482v8.484Zm24.079-11.3a7.711,7.711,0,0,1,0,9.7,5.654,5.654,0,0,1-4.426,1.887,5.741,5.741,0,0,1-4.453-1.887,7.815,7.815,0,0,1,0-9.7,5.736,5.736,0,0,1,4.453-1.889A5.649,5.649,0,0,1,329.678,124.388Zm-2.038,7.932a5.2,5.2,0,0,0,.844-3.081,5.071,5.071,0,0,0-.844-3.052,2.986,2.986,0,0,0-4.773,0,5.071,5.071,0,0,0-.844,3.052,5.2,5.2,0,0,0,.844,3.081,3.031,3.031,0,0,0,4.773,0Zm15.529-9.53,2.271,9.153,2.5-9.153h2.825l-3.756,12.9H344.1l-2.3-8.978-2.3,8.978h-2.912l-3.754-12.9h2.912l2.5,9.153,2.271-9.153Zm9.938,12.9v-12.9h2.91v1.221a4.39,4.39,0,0,1,3.494-1.511,4.3,4.3,0,0,1,3.347,1.308,4.895,4.895,0,0,1,1.223,3.485v8.4h-2.91v-7.9a2.858,2.858,0,0,0-.612-1.947,2.31,2.31,0,0,0-1.834-.7,2.757,2.757,0,0,0-1.718.581,2.549,2.549,0,0,0-.99,1.482v8.484ZM383,122.789l2.271,9.153,2.5-9.153H390.6l-3.756,12.9h-2.91l-2.3-8.978-2.3,8.978h-2.912l-3.754-12.9h2.912l2.5,9.153,2.271-9.153Zm19.751,12.9h-2.766v-.727a3.448,3.448,0,0,1-1.279.668,6.2,6.2,0,0,1-1.922.291,5.322,5.322,0,0,1-3.465-1.133,3.84,3.84,0,0,1-1.369-3.079,3.658,3.658,0,0,1,1.427-2.964,5.522,5.522,0,0,1,3.611-1.192,5.977,5.977,0,0,1,1.718.262,4.128,4.128,0,0,1,1.279.523v-1.046a2.238,2.238,0,0,0-.641-1.657,2.424,2.424,0,0,0-1.832-.668,2.092,2.092,0,0,0-2.213,1.395h-2.8a4.3,4.3,0,0,1,1.689-2.759,6.025,6.025,0,0,1,7.19.174,4.441,4.441,0,0,1,1.369,3.456Zm-2.766-3.427v-1.075a1.792,1.792,0,0,0-.99-.93,3.663,3.663,0,0,0-1.658-.378,3.756,3.756,0,0,0-1.893.465,1.492,1.492,0,0,0-.786,1.366,1.561,1.561,0,0,0,.786,1.395,3.659,3.659,0,0,0,1.893.465,3.908,3.908,0,0,0,1.658-.349A1.913,1.913,0,0,0,399.983,132.262ZM409.1,116.8v18.886h-2.912V116.8Zm6.51,0v18.886h-2.912V116.8Zm11.577,14.877h2.677a5.021,5.021,0,0,1-1.774,3.137,5.542,5.542,0,0,1-3.669,1.162,5.749,5.749,0,0,1-4.426-1.86,7.726,7.726,0,0,1,.029-9.674,5.534,5.534,0,0,1,4.339-1.947,5.081,5.081,0,0,1,4.133,1.744,6.809,6.809,0,0,1,1.485,4.619v1.046h-8.821a4.126,4.126,0,0,0,.932,2.674,3.055,3.055,0,0,0,2.329.959Q426.716,133.54,427.182,131.68Zm-2.8-6.742a3,3,0,0,0-2.067.756,3.626,3.626,0,0,0-1.077,2.093H427.1a3.065,3.065,0,0,0-.728-2.034A2.472,2.472,0,0,0,424.387,124.938Zm8.935,7.266v-7h-2.038v-2.41h2.038v-3.458h2.91v3.458h2.912v2.41h-2.912v6.684a1.351,1.351,0,0,0,1.543,1.511,2.77,2.77,0,0,0,1.66-.523v2.643a4.288,4.288,0,0,1-2.184.465,4.172,4.172,0,0,1-2.881-.959A3.627,3.627,0,0,1,433.322,132.2Zm16.176,0v-7h-2.036v-2.41H449.5v-3.458h2.912v3.458h2.912v2.41H452.41v6.684a1.35,1.35,0,0,0,1.543,1.511,2.779,2.779,0,0,0,1.66-.523v2.643a4.288,4.288,0,0,1-2.184.465,4.174,4.174,0,0,1-2.883-.959A3.627,3.627,0,0,1,449.5,132.2Zm18.6-7.816a7.712,7.712,0,0,1,0,9.7,5.653,5.653,0,0,1-4.424,1.887,5.749,5.749,0,0,1-4.455-1.887,7.823,7.823,0,0,1,0-9.7,5.744,5.744,0,0,1,4.455-1.889A5.648,5.648,0,0,1,468.1,124.388Zm-2.036,7.932a5.218,5.218,0,0,0,.842-3.081,5.085,5.085,0,0,0-.842-3.052,2.988,2.988,0,0,0-4.775,0,5.071,5.071,0,0,0-.845,3.052,5.2,5.2,0,0,0,.845,3.081,3.033,3.033,0,0,0,4.775,0Zm-388.88,25.76v12.9H74.276v-1.221a4.355,4.355,0,0,1-3.465,1.511,4.3,4.3,0,0,1-3.348-1.308,4.964,4.964,0,0,1-1.194-3.485v-8.4h2.911v7.9q0,2.644,2.416,2.645a2.721,2.721,0,0,0,1.688-.552,2.679,2.679,0,0,0,.99-1.511v-8.484Zm3.615,12.9v-12.9h2.911V159.3a4.388,4.388,0,0,1,3.494-1.511,4.3,4.3,0,0,1,3.348,1.308,4.9,4.9,0,0,1,1.223,3.485v8.4H88.866v-7.9a2.859,2.859,0,0,0-.611-1.947,2.31,2.31,0,0,0-1.834-.7,2.755,2.755,0,0,0-1.718.581,2.55,2.55,0,0,0-.99,1.482v8.484Zm22.8,0-4.279-5.491-1.194,1.221v4.27H95.216V152.093h2.911v11.274l5.066-5.287h3.726l-5.5,5.578,5.706,7.322Zm5.632,0v-12.9h2.911V159.3a4.388,4.388,0,0,1,3.494-1.511,4.3,4.3,0,0,1,3.348,1.308,4.9,4.9,0,0,1,1.223,3.485v8.4H117.3v-7.9a2.859,2.859,0,0,0-.611-1.947,2.31,2.31,0,0,0-1.834-.7,2.755,2.755,0,0,0-1.718.581,2.55,2.55,0,0,0-.99,1.482v8.484Zm24.079-11.3a7.713,7.713,0,0,1,0,9.7,5.655,5.655,0,0,1-4.425,1.887,5.745,5.745,0,0,1-4.454-1.887,7.816,7.816,0,0,1,0-9.7,5.739,5.739,0,0,1,4.454-1.889A5.65,5.65,0,0,1,133.311,159.678Zm-2.038,7.932a5.209,5.209,0,0,0,.844-3.081,5.076,5.076,0,0,0-.844-3.052,2.987,2.987,0,0,0-4.774,0,5.076,5.076,0,0,0-.844,3.052,5.209,5.209,0,0,0,.844,3.081,3.032,3.032,0,0,0,4.774,0Zm15.527-9.53,2.271,9.153,2.5-9.153H154.4l-3.756,12.9h-2.912l-2.3-8.978-2.3,8.978h-2.912l-3.755-12.9h2.911l2.5,9.153,2.271-9.153Zm9.938,12.9v-12.9h2.912V159.3a4.388,4.388,0,0,1,3.492-1.511,4.3,4.3,0,0,1,3.349,1.308,4.895,4.895,0,0,1,1.223,3.485v8.4H164.8v-7.9a2.858,2.858,0,0,0-.611-1.947,2.309,2.309,0,0,0-1.832-.7,2.753,2.753,0,0,0-1.718.581,2.54,2.54,0,0,0-.99,1.482v8.484Zm29.893-12.9,2.271,9.153,2.5-9.153h2.825l-3.756,12.9h-2.912l-2.3-8.978-2.3,8.978h-2.912l-3.756-12.9h2.912l2.5,9.153,2.271-9.153Zm19.753,12.9h-2.766v-.727a3.443,3.443,0,0,1-1.281.668,6.186,6.186,0,0,1-1.922.291,5.32,5.32,0,0,1-3.463-1.133A3.834,3.834,0,0,1,195.583,167a3.652,3.652,0,0,1,1.427-2.964,5.516,5.516,0,0,1,3.609-1.192,5.966,5.966,0,0,1,1.718.262,4.144,4.144,0,0,1,1.281.523v-1.046a2.246,2.246,0,0,0-.641-1.657,2.425,2.425,0,0,0-1.835-.668,2.094,2.094,0,0,0-2.213,1.395h-2.793a4.3,4.3,0,0,1,1.689-2.759,6.025,6.025,0,0,1,7.19.174,4.448,4.448,0,0,1,1.369,3.456Zm-2.766-3.427v-1.075a1.8,1.8,0,0,0-.99-.93,3.672,3.672,0,0,0-1.66-.378,3.766,3.766,0,0,0-1.893.465,1.494,1.494,0,0,0-.784,1.366,1.563,1.563,0,0,0,.784,1.395,3.664,3.664,0,0,0,1.893.465,3.917,3.917,0,0,0,1.66-.349A1.921,1.921,0,0,0,203.618,167.552Zm9.11-15.459v18.886h-2.91V152.093Zm6.512,0v18.886h-2.912V152.093Zm11.575,14.878h2.679a5.024,5.024,0,0,1-1.776,3.137,5.54,5.54,0,0,1-3.667,1.162,5.749,5.749,0,0,1-4.426-1.86,7.719,7.719,0,0,1,.029-9.674,5.534,5.534,0,0,1,4.339-1.947,5.082,5.082,0,0,1,4.133,1.744,6.808,6.808,0,0,1,1.485,4.619V165.2h-8.821a4.126,4.126,0,0,0,.932,2.674,3.052,3.052,0,0,0,2.33.959Q230.35,168.83,230.815,166.97Zm-2.793-6.742a2.993,2.993,0,0,0-2.067.756,3.614,3.614,0,0,0-1.077,2.093h5.851a3.055,3.055,0,0,0-.728-2.034A2.468,2.468,0,0,0,228.021,160.228Zm8.933,7.266v-7h-2.036v-2.41h2.036v-3.458h2.912v3.458h2.912v2.41h-2.912v6.684a1.35,1.35,0,0,0,1.543,1.511,2.779,2.779,0,0,0,1.66-.523V170.8a4.288,4.288,0,0,1-2.184.465A4.174,4.174,0,0,1,238,170.31,3.627,3.627,0,0,1,236.955,167.493Z" transform="translate(22.814 50.869)" fill="#757575"/>
      <circle id="Ellipse_32" data-name="Ellipse 32" cx="8.172" cy="8.172" r="8.172" transform="translate(113.786 64.085)" fill="#f27a7a" stroke="#fff" stroke-width="0.875"/>
    </g>
  </g>
</svg>
