<svg xmlns="http://www.w3.org/2000/svg" width="423.64" height="134.822" viewBox="0 0 423.64 134.822">
  <g id="Group_69" data-name="Group 69" transform="translate(-43.896 -33.781)">
    <g id="Group_18" data-name="Group 18" transform="translate(43.896 33.782)">
      <path id="Path_53" data-name="Path 53" d="M43.9,49.045A15.263,15.263,0,0,1,59.159,33.782H452.273a15.263,15.263,0,0,1,15.263,15.263v104.3A15.263,15.263,0,0,1,452.273,168.6H59.159A15.263,15.263,0,0,1,43.9,153.34Z" transform="translate(-43.896 -33.782)" fill="#fff"/>
      <path id="Path_54" data-name="Path 54" d="M44.334,48.846A14.627,14.627,0,0,1,58.961,34.219H452.074A14.627,14.627,0,0,1,466.7,48.846v104.3a14.626,14.626,0,0,1-14.626,14.626H58.961a14.627,14.627,0,0,1-14.627-14.626Z" transform="translate(-43.698 -33.583)" fill="none" stroke="#e7e7e7" stroke-width="0.875"/>
    </g>
    <path id="Path_55" data-name="Path 55" d="M88.232,58.909a7.491,7.491,0,0,0-2.321-5.4,8.14,8.14,0,0,0-11.206,0,7.491,7.491,0,0,0-2.321,5.4c0,8.9-3.962,11.447-3.962,11.447H92.194S88.232,67.813,88.232,58.909Z" transform="translate(11.133 7.942)" fill="none" stroke="#000" stroke-linecap="round" stroke-linejoin="round" stroke-width="1.75"/>
    <path id="Path_56" data-name="Path 56" d="M79.594,67.9a2.594,2.594,0,0,1-.966.928,2.728,2.728,0,0,1-2.637,0,2.593,2.593,0,0,1-.966-.928" transform="translate(14.13 15.487)" fill="none" stroke="#000" stroke-linecap="round" stroke-linejoin="round" stroke-width="1.75"/>
    <path id="Path_57" data-name="Path 57" d="M71.473,85.409a1.662,1.662,0,0,0-.529-1.282,1.914,1.914,0,0,0-1.384-.488,1.818,1.818,0,0,0-1.425.59,2.4,2.4,0,0,0-.57,1.485H65.388a4.444,4.444,0,0,1,1.3-2.849,3.968,3.968,0,0,1,2.869-1.1,4.081,4.081,0,0,1,2.91.977,3.424,3.424,0,0,1,1.058,2.646,2.976,2.976,0,0,1-.041.488,2.631,2.631,0,0,1-.142.509q-.1.265-.183.468a2.864,2.864,0,0,1-.285.468q-.2.285-.305.448a3.544,3.544,0,0,1-.366.468q-.265.326-.366.448-.1.1-.448.468-.326.366-.407.468L68.3,92.613h5.433v1.852H65.408V93.081l3.7-4.111q.142-.142.407-.448.285-.305.407-.448.142-.163.366-.407.224-.265.326-.407.122-.163.285-.387a2.864,2.864,0,0,0,.244-.387q.081-.163.163-.346a1.163,1.163,0,0,0,.122-.366A1.689,1.689,0,0,0,71.473,85.409ZM74.96,96.764l1.465-2.259a1.416,1.416,0,0,1-.834-.427,1.273,1.273,0,0,1-.305-.875,1.324,1.324,0,0,1,.387-.977,1.393,1.393,0,0,1,1-.387,1.314,1.314,0,0,1,1,.407,1.516,1.516,0,0,1,.387,1.119,3.035,3.035,0,0,1-.59,1.628l-1.18,1.77Zm12.046-3.887a4.159,4.159,0,0,1-6.838,0,8.988,8.988,0,0,1,0-9.32,4.159,4.159,0,0,1,6.838,0,8.988,8.988,0,0,1,0,9.32Zm-3.419-9.2a2.163,2.163,0,0,0-2.015,1.241,7.042,7.042,0,0,0-.651,3.3,7.171,7.171,0,0,0,.651,3.317,2.167,2.167,0,0,0,2.015,1.221,2.109,2.109,0,0,0,1.974-1.221,6.985,6.985,0,0,0,.672-3.317,6.86,6.86,0,0,0-.672-3.3A2.106,2.106,0,0,0,83.587,83.679ZM98,92.877a4.159,4.159,0,0,1-6.838,0,8.989,8.989,0,0,1,0-9.32,4.159,4.159,0,0,1,6.838,0,8.988,8.988,0,0,1,0,9.32Zm-3.419-9.2a2.163,2.163,0,0,0-2.015,1.241,7.042,7.042,0,0,0-.651,3.3,7.171,7.171,0,0,0,.651,3.317,2.167,2.167,0,0,0,2.015,1.221,2.109,2.109,0,0,0,1.974-1.221,6.987,6.987,0,0,0,.672-3.317,6.862,6.862,0,0,0-.672-3.3A2.106,2.106,0,0,0,94.577,83.679Zm14.409,9.2a4.159,4.159,0,0,1-6.838,0,8.989,8.989,0,0,1,0-9.32,4.159,4.159,0,0,1,6.838,0,8.988,8.988,0,0,1,0,9.32Zm-3.419-9.2a2.163,2.163,0,0,0-2.015,1.241,7.042,7.042,0,0,0-.651,3.3,7.171,7.171,0,0,0,.651,3.317,2.167,2.167,0,0,0,2.015,1.221,2.109,2.109,0,0,0,1.974-1.221,6.985,6.985,0,0,0,.672-3.317,6.86,6.86,0,0,0-.672-3.3A2.106,2.106,0,0,0,105.567,83.679Zm5.2,13.085,1.465-2.259a1.416,1.416,0,0,1-.834-.427,1.274,1.274,0,0,1-.305-.875,1.324,1.324,0,0,1,.387-.977,1.394,1.394,0,0,1,1-.387,1.314,1.314,0,0,1,1,.407,1.516,1.516,0,0,1,.387,1.119,3.035,3.035,0,0,1-.59,1.628l-1.18,1.77Zm12.045-3.887a4.157,4.157,0,0,1-6.836,0,8.985,8.985,0,0,1,0-9.32,4.158,4.158,0,0,1,6.836,0,8.987,8.987,0,0,1,0,9.32Zm-3.418-9.2a2.163,2.163,0,0,0-2.015,1.241,7.053,7.053,0,0,0-.651,3.3,7.182,7.182,0,0,0,.651,3.317,2.167,2.167,0,0,0,2.015,1.221,2.11,2.11,0,0,0,1.974-1.221,6.985,6.985,0,0,0,.672-3.317,6.86,6.86,0,0,0-.672-3.3A2.106,2.106,0,0,0,119.4,83.679Zm14.408,9.2a4.159,4.159,0,0,1-6.838,0,9,9,0,0,1,0-9.32,4.159,4.159,0,0,1,6.838,0,8.987,8.987,0,0,1,0,9.32Zm-3.418-9.2a2.163,2.163,0,0,0-2.015,1.241,7.053,7.053,0,0,0-.651,3.3,7.182,7.182,0,0,0,.651,3.317,2.167,2.167,0,0,0,2.015,1.221,2.111,2.111,0,0,0,1.974-1.221,7,7,0,0,0,.67-3.317,6.878,6.878,0,0,0-.67-3.3A2.108,2.108,0,0,0,130.389,83.679Zm14.408,9.2a4.159,4.159,0,0,1-6.838,0,8.987,8.987,0,0,1,0-9.32,4.159,4.159,0,0,1,6.838,0,8.987,8.987,0,0,1,0,9.32Zm-3.418-9.2a2.163,2.163,0,0,0-2.015,1.241,7.035,7.035,0,0,0-.651,3.3,7.164,7.164,0,0,0,.651,3.317,2.167,2.167,0,0,0,2.015,1.221,2.108,2.108,0,0,0,1.973-1.221,6.985,6.985,0,0,0,.672-3.317,6.86,6.86,0,0,0-.672-3.3A2.1,2.1,0,0,0,141.379,83.679Zm20.935,5.942-.305,1.547h-2.158l-.773,3.3h-1.79l.794-3.3h-2.605l-.794,3.3h-1.771l.773-3.3h-1.913l.326-1.547h1.954l.672-2.808h-2.076l.305-1.547h2.137l.794-3.3h1.791l-.794,3.3h2.6l.794-3.3h1.771l-.794,3.3h1.934l-.326,1.547H160.89l-.672,2.808Zm-5.8-2.808-.672,2.808h2.6l.672-2.808Zm16.9,6.532a4.965,4.965,0,0,1-3.642,1.323,5.039,5.039,0,0,1-3.664-1.323,5.239,5.239,0,0,1-1.342-3.867V81.97h2.115v7.285q0,3.521,2.89,3.521t2.889-3.521V81.97h2.117V89.5A5.155,5.155,0,0,1,173.417,93.346Zm13.99-11.376v12.5h-1.628l-6.39-9.1v9.1h-2.035V81.97h1.995l6.024,8.669V81.97Zm4.881,0v12.5h-2.115V81.97Zm7.956,11.539a8.6,8.6,0,0,1,0-9.605,6.985,6.985,0,0,1,3.99-2.666v2.2a4.081,4.081,0,0,0-2.483,1.791,6.807,6.807,0,0,0,0,6.96,4.081,4.081,0,0,0,2.483,1.791v2.2A6.985,6.985,0,0,1,200.243,93.508Zm7.056-3.032a2.4,2.4,0,0,0,.651,1.75,2.275,2.275,0,0,0,1.71.672,2.179,2.179,0,0,0,1.668-.672,2.4,2.4,0,0,0,.651-1.75,2.461,2.461,0,0,0-.651-1.791,2.147,2.147,0,0,0-1.668-.692,2.264,2.264,0,0,0-1.73.692A2.511,2.511,0,0,0,207.3,90.476Zm6.512-5.535h-2.117a1.866,1.866,0,0,0-1.912-1.445,2.335,2.335,0,0,0-2.015,1.262,5.45,5.45,0,0,0-.773,2.91v.224a2.7,2.7,0,0,1,1.12-1.16,3.431,3.431,0,0,1,1.751-.448,3.747,3.747,0,0,1,2.93,1.221,4.141,4.141,0,0,1,1.12,2.93,4.2,4.2,0,0,1-1.16,3.012,4.049,4.049,0,0,1-3.113,1.221,3.961,3.961,0,0,1-3.766-2.4,8.683,8.683,0,0,1-.753-3.785,8.47,8.47,0,0,1,1.262-4.823,3.93,3.93,0,0,1,3.4-1.893A3.786,3.786,0,0,1,213.811,84.941Zm4.8,4.029V87.2h.733a2.3,2.3,0,0,0,1.506-.468,1.648,1.648,0,0,0,.59-1.343,1.7,1.7,0,0,0-.529-1.282,1.868,1.868,0,0,0-1.384-.509,2.031,2.031,0,0,0-1.5.549,2.127,2.127,0,0,0-.611,1.4H215.33a4.346,4.346,0,0,1,1.323-2.727,4.5,4.5,0,0,1,5.7-.081,3.24,3.24,0,0,1,1.058,2.523,3.323,3.323,0,0,1-.448,1.73,2.457,2.457,0,0,1-1.181,1.079,2.866,2.866,0,0,1,1.384,1.16,3,3,0,0,1,.489,1.669,3.6,3.6,0,0,1-1.12,2.707,4.206,4.206,0,0,1-3.013,1.058,4.634,4.634,0,0,1-3.154-1.079,4.009,4.009,0,0,1-1.323-2.869H217.1a2.446,2.446,0,0,0,.712,1.567,2.421,2.421,0,0,0,1.688.57,2.23,2.23,0,0,0,1.547-.529,1.8,1.8,0,0,0,.611-1.4,1.764,1.764,0,0,0-.631-1.424,2.445,2.445,0,0,0-1.628-.529Zm5.9,7.794,1.466-2.259a1.412,1.412,0,0,1-.835-.427,1.273,1.273,0,0,1-.305-.875,1.326,1.326,0,0,1,.387-.977,1.391,1.391,0,0,1,1-.387,1.316,1.316,0,0,1,1,.407,1.518,1.518,0,0,1,.387,1.119,3.043,3.043,0,0,1-.59,1.628l-1.181,1.77Zm12.137-13.187-4.314,10.887h-2.117l4.273-10.623h-6.064V81.97h8.222Zm5.947-1.608v12.5h-2.056V84.513L237.606,86V83.862l3.744-1.893Zm4.276,8.506a2.406,2.406,0,0,0,.651,1.75,2.27,2.27,0,0,0,1.708.672,2.182,2.182,0,0,0,1.669-.672,2.4,2.4,0,0,0,.651-1.75,2.461,2.461,0,0,0-.651-1.791,2.15,2.15,0,0,0-1.669-.692,2.261,2.261,0,0,0-1.729.692A2.5,2.5,0,0,0,246.867,90.476Zm6.512-5.535h-2.117a1.867,1.867,0,0,0-1.913-1.445,2.333,2.333,0,0,0-2.014,1.262,5.45,5.45,0,0,0-.773,2.91v.224a2.7,2.7,0,0,1,1.12-1.16,3.422,3.422,0,0,1,1.749-.448,3.751,3.751,0,0,1,2.931,1.221,4.141,4.141,0,0,1,1.12,2.93,4.2,4.2,0,0,1-1.16,3.012,4.054,4.054,0,0,1-3.114,1.221,3.959,3.959,0,0,1-3.764-2.4,8.684,8.684,0,0,1-.753-3.785,8.459,8.459,0,0,1,1.262-4.823,3.929,3.929,0,0,1,3.4-1.893A3.786,3.786,0,0,1,253.38,84.941Zm.938,11.823,1.466-2.259a1.417,1.417,0,0,1-.835-.427,1.273,1.273,0,0,1-.305-.875,1.326,1.326,0,0,1,.387-.977,1.394,1.394,0,0,1,1-.387,1.316,1.316,0,0,1,1,.407,1.518,1.518,0,0,1,.387,1.119,3.042,3.042,0,0,1-.59,1.628l-1.181,1.77Zm8.008-14.795v12.5H260.27V84.513L257.34,86V83.862l3.744-1.893Zm8.12,3.439a1.666,1.666,0,0,0-.529-1.282,1.917,1.917,0,0,0-1.384-.488,1.819,1.819,0,0,0-1.425.59,2.4,2.4,0,0,0-.57,1.485h-2.177a4.437,4.437,0,0,1,1.3-2.849,3.97,3.97,0,0,1,2.87-1.1,4.077,4.077,0,0,1,2.909.977,3.42,3.42,0,0,1,1.058,2.646,2.911,2.911,0,0,1-.041.488,2.521,2.521,0,0,1-.142.509q-.1.265-.183.468a2.771,2.771,0,0,1-.285.468q-.2.285-.305.448a3.461,3.461,0,0,1-.366.468c-.176.217-.3.366-.365.448s-.218.224-.448.468-.353.4-.407.468l-2.687,2.992H272.7v1.852h-8.322V93.081l3.7-4.111c.094-.095.231-.244.407-.448s.326-.353.407-.448.217-.244.366-.407.257-.312.326-.407.176-.237.285-.387a3.068,3.068,0,0,0,.244-.387c.054-.108.108-.224.163-.346a1.21,1.21,0,0,0,.122-.366A1.746,1.746,0,0,0,270.446,85.409Zm10.189.549a2.4,2.4,0,0,0-.651-1.75,2.27,2.27,0,0,0-1.708-.672,2.247,2.247,0,0,0-1.689.672,2.454,2.454,0,0,0-.631,1.75,2.585,2.585,0,0,0,.631,1.811,2.485,2.485,0,0,0,3.4,0A2.533,2.533,0,0,0,280.635,85.958Zm-6.512,5.535h2.117a1.866,1.866,0,0,0,1.913,1.445,2.288,2.288,0,0,0,1.993-1.262,5.348,5.348,0,0,0,.794-2.91v-.224a2.7,2.7,0,0,1-1.12,1.16,3.426,3.426,0,0,1-1.749.448,3.845,3.845,0,0,1-2.951-1.2,4.53,4.53,0,0,1,.041-5.963,4.118,4.118,0,0,1,3.135-1.221,3.96,3.96,0,0,1,3.764,2.4,8.683,8.683,0,0,1,.753,3.785,8.46,8.46,0,0,1-1.282,4.843,3.891,3.891,0,0,1-3.377,1.872A3.787,3.787,0,0,1,274.123,91.494ZM297.9,93.346a4.966,4.966,0,0,1-3.644,1.323,5.036,5.036,0,0,1-3.662-1.323,5.233,5.233,0,0,1-1.343-3.867V81.97h2.117v7.285q0,3.521,2.889,3.521t2.89-3.521V81.97h2.115V89.5A5.16,5.16,0,0,1,297.9,93.346Zm2.959-2.34h2.156a2.634,2.634,0,0,0,2.829,1.872,2.852,2.852,0,0,0,1.751-.488,1.624,1.624,0,0,0,.672-1.363,1.355,1.355,0,0,0-.427-1.058,2.864,2.864,0,0,0-1.384-.631l-2.117-.509q-3.112-.733-3.113-3.358a3.363,3.363,0,0,1,1.181-2.646,4.474,4.474,0,0,1,3.072-1.058,5.025,5.025,0,0,1,3.175.936,4.117,4.117,0,0,1,1.566,2.523h-2.115a2.47,2.47,0,0,0-2.605-1.669,2.622,2.622,0,0,0-1.649.488,1.487,1.487,0,0,0-.611,1.241q0,1.241,1.649,1.628l2.178.509a4.673,4.673,0,0,1,2.38,1.221,3.07,3.07,0,0,1,.855,2.238,3.425,3.425,0,0,1-1.24,2.768,4.912,4.912,0,0,1-3.216,1.018,5.6,5.6,0,0,1-3.337-.957A4.189,4.189,0,0,1,300.863,91.005Zm13.645,1.567h2.015a3.78,3.78,0,0,0,2.972-1.16,5.352,5.352,0,0,0,0-6.39,3.747,3.747,0,0,0-2.972-1.18h-2.015Zm-2.115,1.893V81.97h4.212a5.847,5.847,0,0,1,4.416,1.71,6.217,6.217,0,0,1,1.649,4.538,6.289,6.289,0,0,1-1.649,4.558,5.885,5.885,0,0,1-4.416,1.689ZM327.566,83.9a8.5,8.5,0,0,1,0,9.605,6.892,6.892,0,0,1-3.968,2.666v-2.2a4.081,4.081,0,0,0,2.483-1.791,6.816,6.816,0,0,0,0-6.96,4.081,4.081,0,0,0-2.483-1.791v-2.2A6.892,6.892,0,0,1,327.566,83.9Zm8.325,8.12v-4.9h-1.425V85.429h1.425V83.008h2.035v2.422h2.034v1.689h-2.034V91.8A.944.944,0,0,0,339,92.857a1.934,1.934,0,0,0,1.16-.366v1.852a3,3,0,0,1-1.527.326A2.913,2.913,0,0,1,336.624,94,2.545,2.545,0,0,1,335.891,92.023Zm11.4-6.634v2.1a2.043,2.043,0,0,0-1.2-.305,1.865,1.865,0,0,0-1.16.387,1.658,1.658,0,0,0-.651,1.058v5.841h-2.035V85.429h2.035v.936a1.958,1.958,0,0,1,.814-.814,2.312,2.312,0,0,1,1.2-.326A2.174,2.174,0,0,1,347.287,85.389Zm8.53,9.076h-1.934v-.509a2.423,2.423,0,0,1-.9.468,4.344,4.344,0,0,1-1.342.2,3.716,3.716,0,0,1-2.422-.794,2.69,2.69,0,0,1-.957-2.157,2.565,2.565,0,0,1,1-2.076,3.851,3.851,0,0,1,2.524-.834,4.165,4.165,0,0,1,1.2.183,2.858,2.858,0,0,1,.9.366v-.733a1.565,1.565,0,0,0-.448-1.16,1.689,1.689,0,0,0-1.281-.468,1.461,1.461,0,0,0-1.547.977h-1.954A3.014,3.014,0,0,1,349.834,86a4.206,4.206,0,0,1,5.026.122,3.115,3.115,0,0,1,.957,2.422Zm-1.934-2.4v-.753a1.255,1.255,0,0,0-.692-.651,2.551,2.551,0,0,0-1.159-.265,2.617,2.617,0,0,0-1.323.326,1.046,1.046,0,0,0-.55.956,1.093,1.093,0,0,0,.55.977,2.55,2.55,0,0,0,1.323.326,2.729,2.729,0,0,0,1.159-.244A1.332,1.332,0,0,0,353.884,92.064Zm4.334,2.4V85.429h2.036v.855a3.068,3.068,0,0,1,2.441-1.058,3.007,3.007,0,0,1,2.341.916,3.435,3.435,0,0,1,.855,2.442v5.881h-2.035V88.929a2,2,0,0,0-.427-1.363,1.613,1.613,0,0,0-1.282-.489,1.915,1.915,0,0,0-1.2.407,1.772,1.772,0,0,0-.692,1.038v5.942Zm9.445-2.6h2.076A1.64,1.64,0,0,0,371.53,93a2.035,2.035,0,0,0,1.118-.264.921.921,0,0,0,.427-.814.7.7,0,0,0-.244-.57,1.9,1.9,0,0,0-.813-.366l-1.873-.448q-2.24-.529-2.239-2.483a2.5,2.5,0,0,1,.957-2.015,3.718,3.718,0,0,1,2.463-.814,3.9,3.9,0,0,1,2.461.712,3.078,3.078,0,0,1,1.16,1.954h-1.995q-.305-1-1.647-1a1.894,1.894,0,0,0-1.018.264.855.855,0,0,0-.427.773q0,.59.936.834l1.912.448q2.32.549,2.32,2.564a2.569,2.569,0,0,1-1,2.116,3.941,3.941,0,0,1-2.523.773,4.359,4.359,0,0,1-2.626-.753A3.044,3.044,0,0,1,367.663,91.86ZM382,81.278v1.791a1.758,1.758,0,0,0-1-.285,1.321,1.321,0,0,0-.977.366,1.384,1.384,0,0,0-.346,1.018v1.262h1.974v1.689h-1.974v7.347H377.69V87.118h-1.567V85.429h1.567v-1.4a2.887,2.887,0,0,1,.835-2.2,2.971,2.971,0,0,1,2.136-.794A3.3,3.3,0,0,1,382,81.278Zm6.851,10.379h1.871a3.515,3.515,0,0,1-1.242,2.2,3.869,3.869,0,0,1-2.563.814,4.019,4.019,0,0,1-3.094-1.3,5.421,5.421,0,0,1,.02-6.777,3.869,3.869,0,0,1,3.033-1.363,3.55,3.55,0,0,1,2.889,1.221,4.778,4.778,0,0,1,1.038,3.236v.733h-6.166a2.889,2.889,0,0,0,.651,1.872,2.133,2.133,0,0,0,1.628.672A1.732,1.732,0,0,0,388.855,91.656ZM386.9,86.935a2.088,2.088,0,0,0-1.445.529,2.534,2.534,0,0,0-.753,1.465h4.091a2.147,2.147,0,0,0-.509-1.424A1.725,1.725,0,0,0,386.9,86.935Zm10.824-1.547v2.1a2.039,2.039,0,0,0-1.2-.305,1.871,1.871,0,0,0-1.16.387,1.663,1.663,0,0,0-.651,1.058v5.841h-2.034V85.429h2.034v.936a1.967,1.967,0,0,1,.814-.814,2.316,2.316,0,0,1,1.2-.326A2.169,2.169,0,0,1,397.725,85.389Zm6.916,0v2.1a2.043,2.043,0,0,0-1.2-.305,1.865,1.865,0,0,0-1.16.387,1.663,1.663,0,0,0-.651,1.058v5.841H399.6V85.429h2.034v.936a1.958,1.958,0,0,1,.814-.814,2.312,2.312,0,0,1,1.2-.326A2.173,2.173,0,0,1,404.642,85.389Zm7.146,6.268h1.873a3.522,3.522,0,0,1-1.242,2.2,3.874,3.874,0,0,1-2.563.814,4.019,4.019,0,0,1-3.094-1.3,5.416,5.416,0,0,1,.02-6.777,3.869,3.869,0,0,1,3.033-1.363,3.55,3.55,0,0,1,2.889,1.221,4.778,4.778,0,0,1,1.038,3.236v.733h-6.166a2.889,2.889,0,0,0,.651,1.872,2.131,2.131,0,0,0,1.628.672A1.73,1.73,0,0,0,411.788,91.656Zm-1.953-4.721a2.086,2.086,0,0,0-1.445.529,2.534,2.534,0,0,0-.753,1.465h4.09a2.14,2.14,0,0,0-.509-1.424A1.722,1.722,0,0,0,409.835,86.935Zm11.7,7.53v-.773a2.541,2.541,0,0,1-.957.692,3.225,3.225,0,0,1-1.343.285,3.826,3.826,0,0,1-3.074-1.343,5.15,5.15,0,0,1-1.118-3.378,5.069,5.069,0,0,1,1.118-3.358,3.8,3.8,0,0,1,3.074-1.363,3.222,3.222,0,0,1,1.343.285,2.54,2.54,0,0,1,.957.692V81.237h2.034V94.465Zm0-2.808V88.238a2.1,2.1,0,0,0-.794-.855,2.079,2.079,0,0,0-1.16-.346,2.249,2.249,0,0,0-1.832.814,3.607,3.607,0,0,0,0,4.192,2.249,2.249,0,0,0,1.832.814,2.174,2.174,0,0,0,1.16-.326A2.241,2.241,0,0,0,421.533,91.656ZM71.025,105.994v1.791a1.755,1.755,0,0,0-1-.285,1.321,1.321,0,0,0-.977.366,1.38,1.38,0,0,0-.346,1.017v1.262h1.974v1.689H68.7v7.345H66.711v-7.345H65.144v-1.689h1.567v-1.4a2.888,2.888,0,0,1,.834-2.2,2.974,2.974,0,0,1,2.137-.794A3.3,3.3,0,0,1,71.025,105.994Zm6.52,4.111v2.1a2.04,2.04,0,0,0-1.2-.305,1.861,1.861,0,0,0-1.16.387,1.657,1.657,0,0,0-.651,1.057v5.84H72.5v-9.035h2.035v.936a1.955,1.955,0,0,1,.814-.814,2.317,2.317,0,0,1,1.2-.326A2.163,2.163,0,0,1,77.545,110.105Zm8.327,1.16a5.41,5.41,0,0,1,0,6.8,3.95,3.95,0,0,1-3.093,1.322,4.012,4.012,0,0,1-3.114-1.322,5.483,5.483,0,0,1,0-6.8,4.008,4.008,0,0,1,3.114-1.323A3.946,3.946,0,0,1,85.872,111.266Zm-1.425,5.555a3.653,3.653,0,0,0,.59-2.158,3.555,3.555,0,0,0-.59-2.136,2.086,2.086,0,0,0-3.337,0,3.556,3.556,0,0,0-.59,2.136,3.654,3.654,0,0,0,.59,2.158,2.117,2.117,0,0,0,3.337,0Zm11.2-5.678a3.383,3.383,0,0,1,2.686-1.2,2.669,2.669,0,0,1,2.157.916,3.608,3.608,0,0,1,.773,2.441v5.881H99.229v-5.555a2.106,2.106,0,0,0-.387-1.342,1.263,1.263,0,0,0-1.1-.509,1.7,1.7,0,0,0-1.038.346,1.567,1.567,0,0,0-.57,1v6.064H94.1v-5.555a2.106,2.106,0,0,0-.387-1.342,1.263,1.263,0,0,0-1.1-.509,1.7,1.7,0,0,0-1.038.346,1.567,1.567,0,0,0-.57,1v6.064H88.973v-9.035h2.035v.753a2.629,2.629,0,0,1,2.259-.957,2.825,2.825,0,0,1,1.384.346A2.671,2.671,0,0,1,95.648,111.144Zm20.012-1v9.035h-2.035v-.853a3.045,3.045,0,0,1-2.422,1.057,3,3,0,0,1-2.34-.915,3.487,3.487,0,0,1-.834-2.443v-5.881h2.035v5.535q0,1.852,1.689,1.852a1.9,1.9,0,0,0,1.18-.387,1.87,1.87,0,0,0,.692-1.058v-5.942Zm2.526,9.035v-9.035h2.035V111a3.07,3.07,0,0,1,2.443-1.058,3,3,0,0,1,2.339.916,3.435,3.435,0,0,1,.855,2.441v5.881h-2.036v-5.535a2.007,2.007,0,0,0-.426-1.362,1.613,1.613,0,0,0-1.282-.489,1.916,1.916,0,0,0-1.2.407,1.778,1.778,0,0,0-.692,1.037v5.942Zm15.938,0-2.992-3.846-.835.855v2.991h-2.035V105.954H130.3v7.9l3.542-3.7h2.6l-3.846,3.907,3.988,5.128Zm3.936,0v-9.035H140.1V111a3.069,3.069,0,0,1,2.441-1.058,3.006,3.006,0,0,1,2.341.916,3.435,3.435,0,0,1,.855,2.441v5.881H143.7v-5.535a2,2,0,0,0-.427-1.362,1.612,1.612,0,0,0-1.281-.489,1.913,1.913,0,0,0-1.2.407,1.771,1.771,0,0,0-.692,1.037v5.942Zm16.832-7.915a5.409,5.409,0,0,1,0,6.8,3.948,3.948,0,0,1-3.092,1.322,4.015,4.015,0,0,1-3.114-1.322,5.482,5.482,0,0,1,0-6.8,4.011,4.011,0,0,1,3.114-1.323A3.944,3.944,0,0,1,154.892,111.266Zm-1.425,5.555a3.65,3.65,0,0,0,.59-2.158,3.552,3.552,0,0,0-.59-2.136,2.085,2.085,0,0,0-3.337,0,3.552,3.552,0,0,0-.59,2.136,3.65,3.65,0,0,0,.59,2.158,2.116,2.116,0,0,0,3.337,0Zm10.855-6.675,1.588,6.41,1.749-6.41h1.974l-2.624,9.035h-2.035l-1.608-6.288-1.608,6.288h-2.034l-2.626-9.035h2.035l1.749,6.41,1.588-6.41Zm6.947,9.035v-9.035H173.3V111a3.07,3.07,0,0,1,2.443-1.058,3.006,3.006,0,0,1,2.341.916,3.435,3.435,0,0,1,.855,2.441v5.881h-2.035v-5.535a2,2,0,0,0-.427-1.362,1.613,1.613,0,0,0-1.282-.489,1.916,1.916,0,0,0-1.2.407,1.784,1.784,0,0,0-.692,1.037v5.942Zm20.9-9.035,1.588,6.41,1.749-6.41h1.974l-2.624,9.035h-2.036l-1.608-6.288-1.608,6.288h-2.034l-2.626-9.035h2.035l1.749,6.41,1.588-6.41Zm13.806,9.035h-1.932v-.507a2.42,2.42,0,0,1-.9.467,4.33,4.33,0,0,1-1.343.2,3.715,3.715,0,0,1-2.422-.792,2.7,2.7,0,0,1-.957-2.158,2.564,2.564,0,0,1,1-2.076,3.855,3.855,0,0,1,2.524-.835,4.17,4.17,0,0,1,1.2.183,2.9,2.9,0,0,1,.9.366V113.3a1.569,1.569,0,0,0-.448-1.159,1.692,1.692,0,0,0-1.282-.468,1.463,1.463,0,0,0-1.547.976h-1.954a3.018,3.018,0,0,1,1.181-1.932,4.205,4.205,0,0,1,5.026.122,3.113,3.113,0,0,1,.957,2.421Zm-1.932-2.4v-.753a1.264,1.264,0,0,0-.692-.651,2.567,2.567,0,0,0-1.16-.265,2.625,2.625,0,0,0-1.323.326,1.047,1.047,0,0,0-.55.957,1.094,1.094,0,0,0,.55.977,2.554,2.554,0,0,0,1.323.326,2.738,2.738,0,0,0,1.16-.244A1.35,1.35,0,0,0,204.039,116.78Zm6.368-10.827v13.227h-2.035V105.954Zm4.551,0v13.227h-2.035V105.954Zm8.093,10.42h1.871a3.519,3.519,0,0,1-1.24,2.2,3.876,3.876,0,0,1-2.565.813,4.014,4.014,0,0,1-3.092-1.3,5.416,5.416,0,0,1,.02-6.777,3.865,3.865,0,0,1,3.031-1.364,3.552,3.552,0,0,1,2.89,1.221A4.774,4.774,0,0,1,225,114.4v.733h-6.166a2.89,2.89,0,0,0,.651,1.873,2.136,2.136,0,0,0,1.628.672A1.733,1.733,0,0,0,223.051,116.373Zm-1.954-4.721a2.086,2.086,0,0,0-1.445.529,2.532,2.532,0,0,0-.753,1.464h4.091a2.145,2.145,0,0,0-.509-1.423A1.72,1.72,0,0,0,221.1,111.652Zm6.246,5.087v-4.9h-1.425v-1.689h1.425v-2.422h2.035v2.422h2.034v1.689h-2.034v4.68a.944.944,0,0,0,1.077,1.058,1.934,1.934,0,0,0,1.16-.366v1.852a3.009,3.009,0,0,1-1.527.324,2.919,2.919,0,0,1-2.014-.67A2.546,2.546,0,0,1,227.343,116.74Zm11.307,0v-4.9h-1.423v-1.689h1.423v-2.422h2.036v2.422h2.035v1.689h-2.035v4.68a.945.945,0,0,0,1.079,1.058,1.934,1.934,0,0,0,1.16-.366v1.852a3.009,3.009,0,0,1-1.527.324,2.925,2.925,0,0,1-2.015-.67A2.546,2.546,0,0,1,238.65,116.74Zm13.007-5.474a5.414,5.414,0,0,1,0,6.8,3.953,3.953,0,0,1-3.094,1.322,4.01,4.01,0,0,1-3.113-1.322,5.482,5.482,0,0,1,0-6.8,4.006,4.006,0,0,1,3.113-1.323A3.95,3.95,0,0,1,251.657,111.266Zm-1.425,5.555a3.66,3.66,0,0,0,.59-2.158,3.562,3.562,0,0,0-.59-2.136,2.086,2.086,0,0,0-3.338,0,3.562,3.562,0,0,0-.59,2.136,3.66,3.66,0,0,0,.59,2.158,2.118,2.118,0,0,0,3.338,0Zm16.525-6.675v9.035h-2.034v-.853a3.046,3.046,0,0,1-2.422,1.057,3.005,3.005,0,0,1-2.341-.915,3.491,3.491,0,0,1-.835-2.443v-5.881h2.035v5.535q0,1.852,1.689,1.852a1.9,1.9,0,0,0,1.181-.387,1.878,1.878,0,0,0,.692-1.058v-5.942Zm2.527,9.035v-9.035h2.035V111a3.07,3.07,0,0,1,2.443-1.058,3,3,0,0,1,2.339.916,3.435,3.435,0,0,1,.855,2.441v5.881h-2.035v-5.535a2,2,0,0,0-.427-1.362,1.61,1.61,0,0,0-1.281-.489,1.913,1.913,0,0,0-1.2.407,1.778,1.778,0,0,0-.692,1.037v5.942Zm15.936,0-2.991-3.846-.835.855v2.991H279.36V105.954H281.4v7.9l3.54-3.7h2.605l-3.846,3.907,3.988,5.128Zm3.937,0v-9.035h2.035V111a3.067,3.067,0,0,1,2.441-1.058,3.006,3.006,0,0,1,2.341.916,3.435,3.435,0,0,1,.855,2.441v5.881h-2.035v-5.535a2,2,0,0,0-.427-1.362,1.613,1.613,0,0,0-1.282-.489,1.909,1.909,0,0,0-1.2.407,1.771,1.771,0,0,0-.692,1.037v5.942Zm16.832-7.915a5.409,5.409,0,0,1,0,6.8,3.948,3.948,0,0,1-3.092,1.322,4.013,4.013,0,0,1-3.114-1.322,5.482,5.482,0,0,1,0-6.8,4.009,4.009,0,0,1,3.114-1.323A3.944,3.944,0,0,1,305.99,111.266Zm-1.425,5.555a3.65,3.65,0,0,0,.59-2.158,3.552,3.552,0,0,0-.59-2.136,2.085,2.085,0,0,0-3.337,0,3.552,3.552,0,0,0-.59,2.136,3.65,3.65,0,0,0,.59,2.158,2.116,2.116,0,0,0,3.337,0Zm10.855-6.675,1.588,6.41,1.749-6.41h1.974l-2.626,9.035h-2.034l-1.608-6.288-1.608,6.288h-2.034l-2.626-9.035h2.035l1.749,6.41,1.588-6.41Zm6.947,9.035v-9.035H324.4V111a3.07,3.07,0,0,1,2.443-1.058,3.008,3.008,0,0,1,2.341.916,3.44,3.44,0,0,1,.853,2.441v5.881H328v-5.535a2,2,0,0,0-.427-1.362,1.613,1.613,0,0,0-1.282-.489,1.916,1.916,0,0,0-1.2.407,1.785,1.785,0,0,0-.692,1.037v5.942Zm20.9-9.035,1.588,6.41,1.749-6.41h1.974l-2.626,9.035h-2.034l-1.608-6.288-1.608,6.288h-2.034l-2.626-9.035h2.036l1.749,6.41,1.588-6.41Zm13.806,9.035h-1.934v-.507a2.411,2.411,0,0,1-.894.467,4.33,4.33,0,0,1-1.343.2,3.715,3.715,0,0,1-2.422-.792,2.7,2.7,0,0,1-.957-2.158,2.564,2.564,0,0,1,1-2.076,3.855,3.855,0,0,1,2.524-.835,4.17,4.17,0,0,1,1.2.183,2.868,2.868,0,0,1,.894.366V113.3a1.568,1.568,0,0,0-.446-1.159,1.692,1.692,0,0,0-1.282-.468,1.463,1.463,0,0,0-1.547.976h-1.954a3.018,3.018,0,0,1,1.181-1.932,4.205,4.205,0,0,1,5.026.122,3.113,3.113,0,0,1,.957,2.421Zm-1.934-2.4v-.753a1.256,1.256,0,0,0-.691-.651,2.566,2.566,0,0,0-1.16-.265,2.621,2.621,0,0,0-1.323.326,1.047,1.047,0,0,0-.55.957,1.094,1.094,0,0,0,.55.977,2.554,2.554,0,0,0,1.323.326,2.738,2.738,0,0,0,1.16-.244A1.341,1.341,0,0,0,355.135,116.78Zm6.37-10.827v13.227H359.47V105.954Zm4.551,0v13.227H364.02V105.954Zm8.093,10.42h1.871a3.525,3.525,0,0,1-1.24,2.2,3.876,3.876,0,0,1-2.565.813,4.019,4.019,0,0,1-3.094-1.3,5.421,5.421,0,0,1,.02-6.777,3.87,3.87,0,0,1,3.033-1.364,3.554,3.554,0,0,1,2.89,1.221A4.781,4.781,0,0,1,376.1,114.4v.733h-6.166a2.89,2.89,0,0,0,.651,1.873,2.134,2.134,0,0,0,1.628.672A1.733,1.733,0,0,0,374.148,116.373Zm-1.954-4.721a2.086,2.086,0,0,0-1.445.529,2.532,2.532,0,0,0-.753,1.464h4.091a2.146,2.146,0,0,0-.509-1.423A1.72,1.72,0,0,0,372.194,111.652Zm6.246,5.087v-4.9h-1.425v-1.689h1.425v-2.422h2.034v2.422h2.035v1.689h-2.035v4.68a.945.945,0,0,0,1.079,1.058,1.934,1.934,0,0,0,1.16-.366v1.852a3.009,3.009,0,0,1-1.527.324,2.919,2.919,0,0,1-2.014-.67A2.546,2.546,0,0,1,378.44,116.74Z" transform="translate(9.645 21.449)" fill="#757575"/>
    <circle id="Ellipse_72" data-name="Ellipse 72" cx="5.724" cy="5.724" r="5.724" transform="translate(92.864 54.768)" fill="#f27a7a" stroke="#fff" stroke-width="0.875"/>
  </g>
</svg>
