<svg width="376" height="227" viewBox="0 0 376 227" fill="none" xmlns="http://www.w3.org/2000/svg">
<g filter="url(#filter0_d)">
<path d="M50 50C50 43.3726 55.3726 38 62 38H314C320.627 38 326 43.3726 326 50V152.747C326 159.374 320.627 164.747 314 164.747H62C55.3726 164.747 50 159.374 50 152.747V50Z" fill="white"/>
<path d="M62 38.5H314C320.351 38.5 325.5 43.6487 325.5 50V152.747C325.5 159.098 320.351 164.247 314 164.247H62C55.6487 164.247 50.5 159.098 50.5 152.747V50C50.5 43.6487 55.6487 38.5 62 38.5Z" stroke="#E7E7E7"/>
</g>
<path d="M92 64C92 62.4087 91.3679 60.8826 90.2426 59.7574C89.1174 58.6321 87.5913 58 86 58C84.4087 58 82.8826 58.6321 81.7574 59.7574C80.6321 60.8826 80 62.4087 80 64C80 71 77 73 77 73H95C95 73 92 71 92 64Z" stroke="black" stroke-width="2" stroke-linecap="round" stroke-linejoin="round"/>
<path d="M87.73 77C87.5542 77.3031 87.3019 77.5547 86.9982 77.7295C86.6946 77.9044 86.3504 77.9965 86 77.9965C85.6496 77.9965 85.3054 77.9044 85.0018 77.7295C84.6982 77.5547 84.4458 77.3031 84.27 77" stroke="black" stroke-width="2" stroke-linecap="round" stroke-linejoin="round"/>
<path d="M79.264 94.88C79.264 95.728 78.416 96.56 77.408 97.68L74.496 100.912V102H81.04V100.544H76.768L78.88 98.192C79.888 97.056 80.88 96.064 80.88 94.864C80.88 93.12 79.728 92.016 77.76 92.016C75.936 92.016 74.672 93.296 74.48 95.12H76.192C76.256 94.192 76.784 93.488 77.76 93.488C78.688 93.488 79.264 94.064 79.264 94.88ZM82.006 103.808H83.046L83.974 102.416C84.23 102.032 84.438 101.552 84.438 101.136C84.438 100.352 83.958 99.936 83.35 99.936C82.742 99.936 82.262 100.384 82.262 101.008C82.262 101.584 82.646 101.952 83.158 102.032L82.006 103.808ZM88.7888 102.16C91.0128 102.16 92.5008 100.08 92.5008 97.088C92.5008 94.096 91.0128 92.016 88.7888 92.016C86.5648 92.016 85.0768 94.096 85.0768 97.088C85.0768 100.08 86.5648 102.16 88.7888 102.16ZM88.7888 93.52C90.2288 93.52 90.8688 95.024 90.8688 97.088C90.8688 99.152 90.2288 100.656 88.7888 100.656C87.3328 100.656 86.6928 99.152 86.6928 97.088C86.6928 95.024 87.3328 93.52 88.7888 93.52ZM97.4294 102.16C99.6534 102.16 101.141 100.08 101.141 97.088C101.141 94.096 99.6534 92.016 97.4294 92.016C95.2054 92.016 93.7174 94.096 93.7174 97.088C93.7174 100.08 95.2054 102.16 97.4294 102.16ZM97.4294 93.52C98.8694 93.52 99.5094 95.024 99.5094 97.088C99.5094 99.152 98.8694 100.656 97.4294 100.656C95.9734 100.656 95.3334 99.152 95.3334 97.088C95.3334 95.024 95.9734 93.52 97.4294 93.52ZM106.07 102.16C108.294 102.16 109.782 100.08 109.782 97.088C109.782 94.096 108.294 92.016 106.07 92.016C103.846 92.016 102.358 94.096 102.358 97.088C102.358 100.08 103.846 102.16 106.07 102.16ZM106.07 93.52C107.51 93.52 108.15 95.024 108.15 97.088C108.15 99.152 107.51 100.656 106.07 100.656C104.614 100.656 103.974 99.152 103.974 97.088C103.974 95.024 104.614 93.52 106.07 93.52ZM110.162 103.808H111.202L112.13 102.416C112.386 102.032 112.594 101.552 112.594 101.136C112.594 100.352 112.114 99.936 111.506 99.936C110.898 99.936 110.418 100.384 110.418 101.008C110.418 101.584 110.802 101.952 111.314 102.032L110.162 103.808ZM116.945 102.16C119.169 102.16 120.657 100.08 120.657 97.088C120.657 94.096 119.169 92.016 116.945 92.016C114.721 92.016 113.233 94.096 113.233 97.088C113.233 100.08 114.721 102.16 116.945 102.16ZM116.945 93.52C118.385 93.52 119.025 95.024 119.025 97.088C119.025 99.152 118.385 100.656 116.945 100.656C115.489 100.656 114.849 99.152 114.849 97.088C114.849 95.024 115.489 93.52 116.945 93.52ZM125.586 102.16C127.81 102.16 129.298 100.08 129.298 97.088C129.298 94.096 127.81 92.016 125.586 92.016C123.362 92.016 121.874 94.096 121.874 97.088C121.874 100.08 123.362 102.16 125.586 102.16ZM125.586 93.52C127.026 93.52 127.666 95.024 127.666 97.088C127.666 99.152 127.026 100.656 125.586 100.656C124.13 100.656 123.49 99.152 123.49 97.088C123.49 95.024 124.13 93.52 125.586 93.52ZM134.226 102.16C136.45 102.16 137.938 100.08 137.938 97.088C137.938 94.096 136.45 92.016 134.226 92.016C132.002 92.016 130.514 94.096 130.514 97.088C130.514 100.08 132.002 102.16 134.226 102.16ZM134.226 93.52C135.666 93.52 136.306 95.024 136.306 97.088C136.306 99.152 135.666 100.656 134.226 100.656C132.77 100.656 132.13 99.152 132.13 97.088C132.13 95.024 132.77 93.52 134.226 93.52ZM150.686 98.192H149.038L149.566 95.984H151.118L151.374 94.768H149.854L150.478 92.176H149.086L148.462 94.768H146.414L147.038 92.176H145.63L145.006 94.768H143.326L143.086 95.984H144.718L144.19 98.192H142.654L142.398 99.408H143.902L143.294 102H144.686L145.31 99.408H147.358L146.734 102H148.142L148.75 99.408H150.446L150.686 98.192ZM146.126 95.984H148.174L147.646 98.192H145.598L146.126 95.984ZM156.552 102.16C158.904 102.16 160.488 100.784 160.488 98.096V92.176H158.824V97.904C158.824 99.792 158.024 100.672 156.552 100.672C155.08 100.672 154.28 99.792 154.28 97.904V92.176H152.616V98.08C152.616 100.784 154.216 102.16 156.552 102.16ZM170.414 92.176H168.814V98.992L164.078 92.176H162.51V102H164.11V94.848L169.134 102H170.414V92.176ZM174.252 92.176H172.588V102H174.252V92.176ZM179.355 97.472C179.355 100.4 181.019 102.656 183.643 103.344V101.616C182.091 101.232 180.939 99.68 180.939 97.472C180.939 95.264 182.091 93.712 183.643 93.328V91.6C181.019 92.288 179.355 94.544 179.355 97.472ZM186.054 98.864C186.054 97.68 186.79 96.912 187.91 96.912C188.998 96.912 189.734 97.696 189.734 98.864C189.734 100 188.998 100.768 187.91 100.768C186.79 100.768 186.054 100 186.054 98.864ZM191.174 94.512C190.774 92.928 189.798 92.016 188.006 92.016C185.75 92.016 184.342 94.24 184.342 97.296C184.342 98.512 184.518 99.408 184.934 100.272C185.59 101.584 186.694 102.16 187.894 102.16C190.038 102.16 191.254 100.624 191.254 98.832C191.254 97.088 190.054 95.568 188.07 95.568C187.03 95.568 186.166 96.096 185.814 96.832V96.656C185.814 95.008 186.678 93.376 188.006 93.376C188.806 93.376 189.286 93.808 189.51 94.512H191.174ZM194.945 97.68H195.569C196.609 97.68 197.345 98.272 197.345 99.216C197.345 100.128 196.641 100.736 195.649 100.736C194.513 100.736 193.873 100.048 193.761 99.056H192.145C192.257 100.896 193.649 102.16 195.665 102.16C197.697 102.16 198.913 100.864 198.913 99.2C198.913 98.288 198.449 97.392 197.441 96.976C198.225 96.64 198.721 95.792 198.721 94.768C198.721 93.168 197.585 92.016 195.649 92.016C193.809 92.016 192.577 93.28 192.369 94.992H194.001C194.065 94.128 194.625 93.456 195.665 93.456C196.609 93.456 197.169 94.08 197.169 94.864C197.169 95.792 196.465 96.288 195.521 96.288H194.945V97.68ZM199.584 103.808H200.624L201.552 102.416C201.808 102.032 202.016 101.552 202.016 101.136C202.016 100.352 201.536 99.936 200.928 99.936C200.32 99.936 199.84 100.384 199.84 101.008C199.84 101.584 200.224 101.952 200.736 102.032L199.584 103.808ZM209.127 93.44V92.176H202.663V93.648H207.431L204.071 102H205.735L209.127 93.44ZM213.802 92.176H212.826L209.882 93.664V95.344L212.186 94.176V102H213.802V92.176ZM217.164 98.864C217.164 97.68 217.9 96.912 219.02 96.912C220.108 96.912 220.844 97.696 220.844 98.864C220.844 100 220.108 100.768 219.02 100.768C217.9 100.768 217.164 100 217.164 98.864ZM222.284 94.512C221.884 92.928 220.908 92.016 219.116 92.016C216.86 92.016 215.452 94.24 215.452 97.296C215.452 98.512 215.628 99.408 216.044 100.272C216.7 101.584 217.804 102.16 219.004 102.16C221.148 102.16 222.364 100.624 222.364 98.832C222.364 97.088 221.164 95.568 219.18 95.568C218.14 95.568 217.276 96.096 216.924 96.832V96.656C216.924 95.008 217.788 93.376 219.116 93.376C219.916 93.376 220.396 93.808 220.62 94.512H222.284ZM223.022 103.808H224.062L224.99 102.416C225.246 102.032 225.454 101.552 225.454 101.136C225.454 100.352 224.974 99.936 224.366 99.936C223.758 99.936 223.278 100.384 223.278 101.008C223.278 101.584 223.662 101.952 224.174 102.032L223.022 103.808ZM229.318 92.176H228.342L225.398 93.664V95.344L227.702 94.176V102H229.318V92.176ZM235.702 94.88C235.702 95.728 234.854 96.56 233.846 97.68L230.934 100.912V102H237.478V100.544H233.206L235.318 98.192C236.326 97.056 237.318 96.064 237.318 94.864C237.318 93.12 236.166 92.016 234.198 92.016C232.374 92.016 231.11 93.296 230.918 95.12H232.63C232.694 94.192 233.222 93.488 234.198 93.488C235.126 93.488 235.702 94.064 235.702 94.88ZM243.713 95.312C243.713 96.496 242.977 97.264 241.857 97.264C240.769 97.264 240.033 96.48 240.033 95.312C240.033 94.176 240.769 93.408 241.857 93.408C242.977 93.408 243.713 94.176 243.713 95.312ZM238.593 99.664C238.993 101.248 239.969 102.16 241.761 102.16C244.017 102.16 245.425 99.936 245.425 96.88C245.425 95.664 245.249 94.768 244.833 93.904C244.177 92.592 243.073 92.016 241.873 92.016C239.729 92.016 238.513 93.552 238.513 95.344C238.513 97.088 239.713 98.608 241.697 98.608C242.737 98.608 243.601 98.08 243.953 97.344V97.52C243.953 99.168 243.089 100.8 241.761 100.8C240.961 100.8 240.481 100.368 240.257 99.664H238.593ZM254.427 102.16C256.779 102.16 258.363 100.784 258.363 98.096V92.176H256.699V97.904C256.699 99.792 255.899 100.672 254.427 100.672C252.955 100.672 252.155 99.792 252.155 97.904V92.176H250.491V98.08C250.491 100.784 252.091 102.16 254.427 102.16ZM259.617 99.28C259.969 101.104 261.457 102.16 263.537 102.16C265.569 102.16 267.041 101.024 267.041 99.184C267.041 97.712 266.033 96.816 264.497 96.464L262.785 96.064C261.905 95.856 261.489 95.44 261.489 94.784C261.489 93.968 262.209 93.424 263.265 93.424C264.433 93.424 265.057 94 265.313 94.736H266.977C266.625 93.104 265.377 92.016 263.249 92.016C261.265 92.016 259.905 93.264 259.905 94.928C259.905 96.512 260.993 97.248 262.353 97.568L264.017 97.968C265.041 98.208 265.441 98.608 265.441 99.296C265.441 100.208 264.689 100.752 263.537 100.752C262.465 100.752 261.633 100.288 261.313 99.28H259.617ZM270.346 100.512V93.648H271.93C273.994 93.648 275.098 94.976 275.098 97.088C275.098 99.184 273.994 100.512 271.93 100.512H270.346ZM268.682 102H271.994C274.89 102 276.762 100.08 276.762 97.088C276.762 94.096 274.89 92.176 271.994 92.176H268.682V102ZM281.78 97.472C281.78 94.544 280.116 92.288 277.492 91.6V93.328C279.044 93.712 280.196 95.264 280.196 97.472C280.196 99.68 279.044 101.232 277.492 101.616V103.344C280.116 102.656 281.78 100.4 281.78 97.472ZM75.36 119.08C75.36 120.488 76.256 121.16 77.52 121.16C78.016 121.16 78.448 121.064 78.72 120.904V119.448C78.496 119.608 78.128 119.736 77.808 119.736C77.28 119.736 76.96 119.48 76.96 118.904V115.224H78.56V113.896H76.96V111.992H75.36V113.896H74.24V115.224H75.36V119.08ZM84.3194 113.864C84.2074 113.8 83.8874 113.736 83.5354 113.736C82.8474 113.736 82.2234 114.104 81.9514 114.632V113.896H80.3514V121H81.9514V116.408C82.1114 115.64 82.7194 115.272 83.3754 115.272C83.7114 115.272 84.0954 115.352 84.3194 115.512V113.864ZM91.0265 121V116.344C91.0265 114.728 89.9705 113.736 88.1785 113.736C86.7225 113.736 85.6025 114.648 85.3945 115.864H86.9305C87.1065 115.368 87.5065 115.096 88.1465 115.096C89.0585 115.096 89.5065 115.656 89.5065 116.376V116.952C89.2185 116.744 88.4985 116.52 87.8585 116.52C86.2905 116.52 85.0905 117.464 85.0905 118.808C85.0905 120.264 86.2905 121.128 87.7465 121.128C88.5465 121.128 89.2665 120.84 89.5065 120.6V121H91.0265ZM89.5065 119.112C89.3305 119.56 88.6905 119.832 88.0505 119.832C87.3305 119.832 86.5785 119.528 86.5785 118.808C86.5785 118.104 87.3305 117.8 88.0505 117.8C88.6905 117.8 89.3305 118.072 89.5065 118.52V119.112ZM92.9139 121H94.5139V116.328C94.6899 115.624 95.3139 115.192 96.0019 115.192C96.9139 115.192 97.3459 115.768 97.3459 116.648V121H98.9459V116.376C98.9459 114.808 98.0499 113.736 96.4339 113.736C95.6019 113.736 94.8979 114.12 94.5139 114.568V113.896H92.9139V121ZM100.34 118.952C100.548 120.328 101.7 121.16 103.364 121.16C104.964 121.16 106.132 120.296 106.132 118.888C106.132 117.848 105.524 117.16 104.308 116.872L102.804 116.52C102.292 116.392 102.068 116.184 102.068 115.864C102.068 115.304 102.644 115.048 103.204 115.048C103.94 115.048 104.356 115.368 104.5 115.832H106.068C105.828 114.536 104.884 113.736 103.22 113.736C101.668 113.736 100.532 114.68 100.532 115.96C100.532 117.128 101.284 117.672 102.292 117.912L103.764 118.264C104.356 118.408 104.596 118.616 104.596 119C104.596 119.56 104.116 119.848 103.38 119.848C102.676 119.848 102.148 119.544 101.972 118.952H100.34ZM111.615 110.632C111.327 110.504 111.023 110.44 110.559 110.44C109.231 110.44 108.223 111.272 108.223 112.792V113.896H106.991V115.224H108.223V121H109.791V115.224H111.343V113.896H109.791V112.904C109.791 112.2 110.191 111.816 110.831 111.816C111.087 111.816 111.375 111.88 111.615 112.04V110.632ZM117.001 118.792C116.825 119.48 116.249 119.816 115.481 119.816C114.457 119.816 113.737 119.064 113.689 117.816H118.537V117.24C118.537 115.16 117.449 113.736 115.449 113.736C113.513 113.736 112.121 115.336 112.121 117.464C112.121 119.656 113.497 121.16 115.481 121.16C117.193 121.16 118.233 120.2 118.473 118.792H117.001ZM115.465 115.08C116.441 115.08 116.937 115.784 116.953 116.648H113.737C113.929 115.624 114.585 115.08 115.465 115.08ZM123.976 113.864C123.864 113.8 123.544 113.736 123.192 113.736C122.504 113.736 121.88 114.104 121.608 114.632V113.896H120.008V121H121.608V116.408C121.768 115.64 122.376 115.272 123.032 115.272C123.368 115.272 123.752 115.352 123.976 115.512V113.864ZM129.413 113.864C129.301 113.8 128.981 113.736 128.629 113.736C127.941 113.736 127.317 114.104 127.045 114.632V113.896H125.445V121H127.045V116.408C127.205 115.64 127.813 115.272 128.469 115.272C128.805 115.272 129.189 115.352 129.413 115.512V113.864ZM135.032 118.792C134.856 119.48 134.28 119.816 133.512 119.816C132.488 119.816 131.768 119.064 131.72 117.816H136.568V117.24C136.568 115.16 135.48 113.736 133.48 113.736C131.544 113.736 130.152 115.336 130.152 117.464C130.152 119.656 131.528 121.16 133.512 121.16C135.224 121.16 136.264 120.2 136.504 118.792H135.032ZM133.496 115.08C134.472 115.08 134.968 115.784 134.984 116.648H131.768C131.96 115.624 132.616 115.08 133.496 115.08ZM142.694 121H144.294V110.6H142.694V114.504C142.374 114.104 141.67 113.736 140.886 113.736C138.806 113.736 137.59 115.416 137.59 117.448C137.59 119.496 138.806 121.16 140.886 121.16C141.67 121.16 142.374 120.792 142.694 120.392V121ZM142.694 118.792C142.422 119.352 141.814 119.736 141.158 119.736C139.926 119.736 139.19 118.76 139.19 117.448C139.19 116.136 139.926 115.16 141.158 115.16C141.814 115.16 142.422 115.544 142.694 116.104V118.792ZM153.725 110.632C153.437 110.504 153.133 110.44 152.669 110.44C151.341 110.44 150.333 111.272 150.333 112.792V113.896H149.101V115.224H150.333V121H151.901V115.224H153.453V113.896H151.901V112.904C151.901 112.2 152.301 111.816 152.941 111.816C153.197 111.816 153.485 111.88 153.725 112.04V110.632ZM158.851 113.864C158.739 113.8 158.419 113.736 158.067 113.736C157.379 113.736 156.755 114.104 156.483 114.632V113.896H154.883V121H156.483V116.408C156.643 115.64 157.251 115.272 157.907 115.272C158.243 115.272 158.627 115.352 158.851 115.512V113.864ZM166.342 117.448C166.342 115.272 164.966 113.736 162.966 113.736C160.966 113.736 159.59 115.272 159.59 117.448C159.59 119.624 160.966 121.16 162.966 121.16C164.966 121.16 166.342 119.624 166.342 117.448ZM164.742 117.448C164.742 118.792 164.118 119.784 162.966 119.784C161.814 119.784 161.19 118.792 161.19 117.448C161.19 116.104 161.814 115.112 162.966 115.112C164.118 115.112 164.742 116.104 164.742 117.448ZM173.084 114.68C172.716 114.136 172.012 113.736 171.212 113.736C170.412 113.736 169.772 114.04 169.436 114.488V113.896H167.836V121H169.436V116.232C169.58 115.528 170.124 115.176 170.7 115.176C171.484 115.176 171.868 115.752 171.868 116.632V121H173.468V116.232C173.612 115.528 174.156 115.176 174.732 115.176C175.516 115.176 175.9 115.752 175.9 116.632V121H177.5V116.376C177.5 114.76 176.652 113.736 175.196 113.736C174.236 113.736 173.58 114.104 173.084 114.68ZM188.818 113.896H187.218V118.568C187.042 119.272 186.434 119.704 185.746 119.704C184.834 119.704 184.418 119.128 184.418 118.248V113.896H182.818V118.52C182.818 120.088 183.698 121.16 185.314 121.16C186.146 121.16 186.834 120.776 187.218 120.328V121H188.818V113.896ZM190.805 121H192.405V116.328C192.581 115.624 193.205 115.192 193.893 115.192C194.805 115.192 195.237 115.768 195.237 116.648V121H196.837V116.376C196.837 114.808 195.941 113.736 194.325 113.736C193.493 113.736 192.789 114.12 192.405 114.568V113.896H190.805V121ZM203.334 121H205.27L202.134 116.968L205.158 113.896H203.11L200.326 116.808V110.6H198.726V121H200.326V118.648L200.982 117.976L203.334 121ZM206.43 121H208.03V116.328C208.206 115.624 208.83 115.192 209.518 115.192C210.43 115.192 210.862 115.768 210.862 116.648V121H212.462V116.376C212.462 114.808 211.566 113.736 209.95 113.736C209.118 113.736 208.414 114.12 208.03 114.568V113.896H206.43V121ZM220.607 117.448C220.607 115.272 219.231 113.736 217.231 113.736C215.231 113.736 213.855 115.272 213.855 117.448C213.855 119.624 215.231 121.16 217.231 121.16C219.231 121.16 220.607 119.624 220.607 117.448ZM219.007 117.448C219.007 118.792 218.383 119.784 217.231 119.784C216.079 119.784 215.455 118.792 215.455 117.448C215.455 116.104 216.079 115.112 217.231 115.112C218.383 115.112 219.007 116.104 219.007 117.448ZM227.077 113.896H225.621L224.373 118.936L222.997 113.896H221.397L223.461 121H225.061L226.325 116.056L227.589 121H229.189L231.253 113.896H229.701L228.325 118.936L227.077 113.896ZM232.539 121H234.139V116.328C234.315 115.624 234.939 115.192 235.627 115.192C236.539 115.192 236.971 115.768 236.971 116.648V121H238.571V116.376C238.571 114.808 237.675 113.736 236.059 113.736C235.227 113.736 234.523 114.12 234.139 114.568V113.896H232.539V121ZM248.968 113.896H247.512L246.264 118.936L244.888 113.896H243.288L245.352 121H246.952L248.216 116.056L249.48 121H251.08L253.144 113.896H251.592L250.216 118.936L248.968 113.896ZM259.823 121V116.344C259.823 114.728 258.767 113.736 256.975 113.736C255.519 113.736 254.399 114.648 254.191 115.864H255.727C255.903 115.368 256.303 115.096 256.943 115.096C257.855 115.096 258.303 115.656 258.303 116.376V116.952C258.015 116.744 257.295 116.52 256.655 116.52C255.087 116.52 253.887 117.464 253.887 118.808C253.887 120.264 255.087 121.128 256.543 121.128C257.343 121.128 258.063 120.84 258.303 120.6V121H259.823ZM258.303 119.112C258.127 119.56 257.487 119.832 256.847 119.832C256.127 119.832 255.375 119.528 255.375 118.808C255.375 118.104 256.127 117.8 256.847 117.8C257.487 117.8 258.127 118.072 258.303 118.52V119.112ZM263.311 110.6H261.711V121H263.311V110.6ZM266.889 110.6H265.289V121H266.889V110.6ZM273.251 118.792C273.075 119.48 272.499 119.816 271.731 119.816C270.707 119.816 269.987 119.064 269.939 117.816H274.787V117.24C274.787 115.16 273.699 113.736 271.699 113.736C269.763 113.736 268.371 115.336 268.371 117.464C268.371 119.656 269.747 121.16 271.731 121.16C273.443 121.16 274.483 120.2 274.723 118.792H273.251ZM271.715 115.08C272.691 115.08 273.187 115.784 273.203 116.648H269.987C270.179 115.624 270.835 115.08 271.715 115.08ZM276.626 119.08C276.626 120.488 277.522 121.16 278.786 121.16C279.282 121.16 279.714 121.064 279.986 120.904V119.448C279.762 119.608 279.394 119.736 279.074 119.736C278.546 119.736 278.226 119.48 278.226 118.904V115.224H279.826V113.896H278.226V111.992H276.626V113.896H275.506V115.224H276.626V119.08ZM285.516 119.08C285.516 120.488 286.412 121.16 287.676 121.16C288.172 121.16 288.604 121.064 288.876 120.904V119.448C288.652 119.608 288.284 119.736 287.964 119.736C287.436 119.736 287.116 119.48 287.116 118.904V115.224H288.716V113.896H287.116V111.992H285.516V113.896H284.396V115.224H285.516V119.08ZM296.686 117.448C296.686 115.272 295.31 113.736 293.31 113.736C291.31 113.736 289.934 115.272 289.934 117.448C289.934 119.624 291.31 121.16 293.31 121.16C295.31 121.16 296.686 119.624 296.686 117.448ZM295.086 117.448C295.086 118.792 294.462 119.784 293.31 119.784C292.158 119.784 291.534 118.792 291.534 117.448C291.534 116.104 292.158 115.112 293.31 115.112C294.462 115.112 295.086 116.104 295.086 117.448ZM80.896 132.896H79.296V137.568C79.12 138.272 78.512 138.704 77.824 138.704C76.912 138.704 76.496 138.128 76.496 137.248V132.896H74.896V137.52C74.896 139.088 75.776 140.16 77.392 140.16C78.224 140.16 78.912 139.776 79.296 139.328V140H80.896V132.896ZM82.8826 140H84.4826V135.328C84.6586 134.624 85.2826 134.192 85.9706 134.192C86.8826 134.192 87.3146 134.768 87.3146 135.648V140H88.9146V135.376C88.9146 133.808 88.0186 132.736 86.4026 132.736C85.5706 132.736 84.8666 133.12 84.4826 133.568V132.896H82.8826V140ZM95.4125 140H97.3485L94.2125 135.968L97.2365 132.896H95.1885L92.4045 135.808V129.6H90.8045V140H92.4045V137.648L93.0605 136.976L95.4125 140ZM98.5076 140H100.108V135.328C100.284 134.624 100.908 134.192 101.596 134.192C102.508 134.192 102.94 134.768 102.94 135.648V140H104.54V135.376C104.54 133.808 103.644 132.736 102.028 132.736C101.196 132.736 100.492 133.12 100.108 133.568V132.896H98.5076V140ZM112.686 136.448C112.686 134.272 111.31 132.736 109.31 132.736C107.31 132.736 105.934 134.272 105.934 136.448C105.934 138.624 107.31 140.16 109.31 140.16C111.31 140.16 112.686 138.624 112.686 136.448ZM111.086 136.448C111.086 137.792 110.462 138.784 109.31 138.784C108.158 138.784 107.534 137.792 107.534 136.448C107.534 135.104 108.158 134.112 109.31 134.112C110.462 134.112 111.086 135.104 111.086 136.448ZM119.156 132.896H117.7L116.452 137.936L115.076 132.896H113.476L115.539 140H117.14L118.404 135.056L119.668 140H121.267L123.332 132.896H121.78L120.404 137.936L119.156 132.896ZM124.617 140H126.217V135.328C126.393 134.624 127.017 134.192 127.705 134.192C128.617 134.192 129.049 134.768 129.049 135.648V140H130.649V135.376C130.649 133.808 129.753 132.736 128.137 132.736C127.305 132.736 126.601 133.12 126.217 133.568V132.896H124.617V140ZM141.046 132.896H139.59L138.342 137.936L136.966 132.896H135.366L137.43 140H139.03L140.294 135.056L141.558 140H143.158L145.222 132.896H143.67L142.294 137.936L141.046 132.896ZM151.902 140V135.344C151.902 133.728 150.846 132.736 149.054 132.736C147.598 132.736 146.478 133.648 146.27 134.864H147.806C147.982 134.368 148.382 134.096 149.022 134.096C149.934 134.096 150.382 134.656 150.382 135.376V135.952C150.094 135.744 149.374 135.52 148.734 135.52C147.166 135.52 145.965 136.464 145.965 137.808C145.965 139.264 147.166 140.128 148.622 140.128C149.422 140.128 150.141 139.84 150.382 139.6V140H151.902ZM150.382 138.112C150.206 138.56 149.566 138.832 148.926 138.832C148.206 138.832 147.454 138.528 147.454 137.808C147.454 137.104 148.206 136.8 148.926 136.8C149.566 136.8 150.206 137.072 150.382 137.52V138.112ZM155.389 129.6H153.789V140H155.389V129.6ZM158.967 129.6H157.367V140H158.967V129.6ZM165.329 137.792C165.153 138.48 164.577 138.816 163.809 138.816C162.785 138.816 162.065 138.064 162.017 136.816H166.865V136.24C166.865 134.16 165.777 132.736 163.777 132.736C161.841 132.736 160.449 134.336 160.449 136.464C160.449 138.656 161.825 140.16 163.809 140.16C165.521 140.16 166.561 139.2 166.801 137.792H165.329ZM163.793 134.08C164.769 134.08 165.265 134.784 165.281 135.648H162.065C162.257 134.624 162.913 134.08 163.793 134.08ZM168.704 138.08C168.704 139.488 169.6 140.16 170.864 140.16C171.36 140.16 171.792 140.064 172.064 139.904V138.448C171.84 138.608 171.472 138.736 171.152 138.736C170.624 138.736 170.304 138.48 170.304 137.904V134.224H171.904V132.896H170.304V130.992H168.704V132.896H167.584V134.224H168.704V138.08Z" fill="#757575"/>
<circle cx="93" cy="59" r="4.5" fill="#F27A7A" stroke="white"/>
<defs>
<filter id="filter0_d" x="0" y="0" width="376" height="226.747" filterUnits="userSpaceOnUse" color-interpolation-filters="sRGB">
<feFlood flood-opacity="0" result="BackgroundImageFix"/>
<feColorMatrix in="SourceAlpha" type="matrix" values="0 0 0 0 0 0 0 0 0 0 0 0 0 0 0 0 0 0 127 0"/>
<feOffset dy="12"/>
<feGaussianBlur stdDeviation="25"/>
<feColorMatrix type="matrix" values="0 0 0 0 0.0352941 0 0 0 0 0.0509804 0 0 0 0 0.0705882 0 0 0 0.2 0"/>
<feBlend mode="normal" in2="BackgroundImageFix" result="effect1_dropShadow"/>
<feBlend mode="normal" in="SourceGraphic" in2="effect1_dropShadow" result="shape"/>
</filter>
</defs>
</svg>
