<svg width="169" height="59" viewBox="0 0 169 59" fill="none" xmlns="http://www.w3.org/2000/svg">
<rect x="0.5" y="0.5" width="168" height="57.99" rx="7.5" fill="#F9F9F9"/>
<path d="M21.988 23.272V26.38H20.938V17.784H21.988V18.512C22.1653 18.2693 22.408 18.0687 22.716 17.91C23.0333 17.742 23.374 17.658 23.738 17.658C24.6153 17.658 25.3013 17.9707 25.796 18.596C26.2907 19.212 26.538 19.9773 26.538 20.892C26.538 21.8067 26.2907 22.5767 25.796 23.202C25.3013 23.818 24.6153 24.126 23.738 24.126C23.374 24.126 23.0333 24.0467 22.716 23.888C22.408 23.72 22.1653 23.5147 21.988 23.272ZM21.988 19.632V22.152C22.1467 22.4693 22.366 22.7213 22.646 22.908C22.9353 23.0853 23.248 23.174 23.584 23.174C24.1627 23.174 24.62 22.964 24.956 22.544C25.3013 22.1147 25.474 21.564 25.474 20.892C25.474 20.22 25.3013 19.674 24.956 19.254C24.62 18.8247 24.1627 18.61 23.584 18.61C23.248 18.61 22.9353 18.7033 22.646 18.89C22.366 19.0673 22.1467 19.3147 21.988 19.632ZM32.4587 18.568C32.9907 19.1653 33.2567 19.94 33.2567 20.892C33.2567 21.844 32.9907 22.6233 32.4587 23.23C31.936 23.8273 31.25 24.126 30.4007 24.126C29.5514 24.126 28.8607 23.8273 28.3287 23.23C27.806 22.6233 27.5447 21.844 27.5447 20.892C27.5447 19.94 27.806 19.1653 28.3287 18.568C28.8607 17.9613 29.5514 17.658 30.4007 17.658C31.25 17.658 31.936 17.9613 32.4587 18.568ZM31.7027 22.572C32.0294 22.1427 32.1927 21.5827 32.1927 20.892C32.1927 20.2013 32.0294 19.646 31.7027 19.226C31.3854 18.7967 30.9514 18.582 30.4007 18.582C29.85 18.582 29.4114 18.7967 29.0847 19.226C28.7674 19.646 28.6087 20.2013 28.6087 20.892C28.6087 21.5827 28.7674 22.1427 29.0847 22.572C29.4114 22.992 29.85 23.202 30.4007 23.202C30.9514 23.202 31.3854 22.992 31.7027 22.572ZM38.6262 17.784L39.9002 22.53L41.2722 17.784H42.2942L40.4602 24H39.4382L38.1502 19.282L36.8482 24H35.8262L33.9922 17.784H35.0422L36.4142 22.53L37.6882 17.784H38.6262ZM47.4029 22.138H48.3969C48.2849 22.7447 48.0096 23.23 47.5709 23.594C47.1323 23.9487 46.5723 24.126 45.8909 24.126C45.0416 24.126 44.3509 23.832 43.8189 23.244C43.2963 22.6467 43.0349 21.8673 43.0349 20.906C43.0349 19.9633 43.2963 19.1887 43.8189 18.582C44.3416 17.966 45.0229 17.658 45.8629 17.658C46.6936 17.658 47.3376 17.938 47.7949 18.498C48.2523 19.0487 48.4809 19.786 48.4809 20.71V21.088H44.0849C44.0943 21.7413 44.2623 22.264 44.5889 22.656C44.9249 23.0387 45.3589 23.23 45.8909 23.23C46.2829 23.23 46.6096 23.1367 46.8709 22.95C47.1416 22.754 47.3189 22.4833 47.4029 22.138ZM45.8769 18.554C45.4103 18.554 45.0183 18.708 44.7009 19.016C44.3836 19.324 44.1876 19.7487 44.1129 20.29H47.4169C47.4076 19.7953 47.2723 19.3847 47.0109 19.058C46.7496 18.722 46.3716 18.554 45.8769 18.554ZM53.0734 17.756V18.834C52.9054 18.722 52.672 18.666 52.3734 18.666C52.0374 18.666 51.7387 18.7687 51.4774 18.974C51.216 19.1793 51.034 19.464 50.9314 19.828V24H49.8814V17.784H50.9314V18.596C51.0714 18.3253 51.2767 18.1013 51.5474 17.924C51.8274 17.7467 52.1354 17.658 52.4714 17.658C52.742 17.658 52.9427 17.6907 53.0734 17.756ZM58.1217 22.138H59.1157C59.0037 22.7447 58.7283 23.23 58.2897 23.594C57.851 23.9487 57.291 24.126 56.6097 24.126C55.7603 24.126 55.0697 23.832 54.5377 23.244C54.015 22.6467 53.7537 21.8673 53.7537 20.906C53.7537 19.9633 54.015 19.1887 54.5377 18.582C55.0603 17.966 55.7417 17.658 56.5817 17.658C57.4123 17.658 58.0563 17.938 58.5137 18.498C58.971 19.0487 59.1997 19.786 59.1997 20.71V21.088H54.8037C54.813 21.7413 54.981 22.264 55.3077 22.656C55.6437 23.0387 56.0777 23.23 56.6097 23.23C57.0017 23.23 57.3283 23.1367 57.5897 22.95C57.8603 22.754 58.0377 22.4833 58.1217 22.138ZM56.5957 18.554C56.129 18.554 55.737 18.708 55.4197 19.016C55.1023 19.324 54.9063 19.7487 54.8317 20.29H58.1357C58.1263 19.7953 57.991 19.3847 57.7297 19.058C57.4683 18.722 57.0903 18.554 56.5957 18.554ZM64.7295 24V23.272C64.5615 23.5147 64.3188 23.72 64.0015 23.888C63.6841 24.0467 63.3435 24.126 62.9795 24.126C62.1021 24.126 61.4161 23.818 60.9215 23.202C60.4268 22.586 60.1795 21.816 60.1795 20.892C60.1795 19.9773 60.4268 19.212 60.9215 18.596C61.4161 17.9707 62.1021 17.658 62.9795 17.658C63.3435 17.658 63.6841 17.742 64.0015 17.91C64.3188 18.0687 64.5615 18.2693 64.7295 18.512V14.9H65.7935V24H64.7295ZM64.7295 22.152V19.632C64.5708 19.3147 64.3468 19.0673 64.0575 18.89C63.7775 18.7033 63.4695 18.61 63.1335 18.61C62.5548 18.61 62.0928 18.8247 61.7475 19.254C61.4115 19.674 61.2435 20.22 61.2435 20.892C61.2435 21.564 61.4115 22.1147 61.7475 22.544C62.0928 22.964 62.5548 23.174 63.1335 23.174C63.4695 23.174 63.7775 23.0853 64.0575 22.908C64.3468 22.7213 64.5708 22.4693 64.7295 22.152ZM71.7946 23.272V24H70.7306V14.9H71.7946V18.512C71.9626 18.2693 72.2053 18.0687 72.5226 17.91C72.84 17.742 73.1806 17.658 73.5446 17.658C74.422 17.658 75.108 17.9707 75.6026 18.596C76.0973 19.212 76.3446 19.9773 76.3446 20.892C76.3446 21.816 76.0973 22.586 75.6026 23.202C75.108 23.818 74.422 24.126 73.5446 24.126C73.1806 24.126 72.84 24.0467 72.5226 23.888C72.2053 23.72 71.9626 23.5147 71.7946 23.272ZM71.7946 19.632V22.152C71.9533 22.4693 72.1726 22.7213 72.4526 22.908C72.742 23.0853 73.0546 23.174 73.3906 23.174C73.9693 23.174 74.4266 22.964 74.7626 22.544C75.108 22.1147 75.2806 21.564 75.2806 20.892C75.2806 20.22 75.108 19.674 74.7626 19.254C74.4266 18.8247 73.9693 18.61 73.3906 18.61C73.0546 18.61 72.742 18.7033 72.4526 18.89C72.1726 19.0673 71.9533 19.3147 71.7946 19.632ZM79.4966 26.38H78.4606L79.3986 24.042L76.9766 17.784H78.1106L79.9446 22.684L81.7506 17.784H82.8426L79.4966 26.38Z" fill="#666666"/>
<path d="M21.7416 39.4832C22.7034 39.4832 23.4832 38.7034 23.4832 37.7416C23.4832 36.7797 22.7034 36 21.7416 36C20.7797 36 20 36.7797 20 37.7416C20 38.7034 20.7797 39.4832 21.7416 39.4832Z" fill="black"/>
<path d="M25.9214 39.4832C26.8832 39.4832 27.6629 38.7034 27.6629 37.7416C27.6629 36.7797 26.8832 36 25.9214 36C24.9595 36 24.1798 36.7797 24.1798 37.7416C24.1798 38.7034 24.9595 39.4832 25.9214 39.4832Z" fill="black"/>
<path d="M30.1012 39.4832C31.063 39.4832 31.8428 38.7034 31.8428 37.7416C31.8428 36.7797 31.063 36 30.1012 36C29.1393 36 28.3596 36.7797 28.3596 37.7416C28.3596 38.7034 29.1393 39.4832 30.1012 39.4832Z" fill="black"/>
<path d="M21.7416 43.6631C22.7034 43.6631 23.4832 42.8833 23.4832 41.9215C23.4832 40.9596 22.7034 40.1799 21.7416 40.1799C20.7797 40.1799 20 40.9596 20 41.9215C20 42.8833 20.7797 43.6631 21.7416 43.6631Z" fill="black"/>
<path d="M30.1012 43.6631C31.0631 43.6631 31.8428 42.8833 31.8428 41.9215C31.8428 40.9596 31.0631 40.1799 30.1012 40.1799C29.1394 40.1799 28.3596 40.9596 28.3596 41.9215C28.3596 42.8833 29.1394 43.6631 30.1012 43.6631Z" fill="black"/>
<path d="M21.7416 47.8429C22.7034 47.8429 23.4832 47.0632 23.4832 46.1013C23.4832 45.1395 22.7034 44.3597 21.7416 44.3597C20.7797 44.3597 20 45.1395 20 46.1013C20 47.0632 20.7797 47.8429 21.7416 47.8429Z" fill="black"/>
<path d="M25.9214 47.8429C26.8832 47.8429 27.6629 47.0632 27.6629 46.1013C27.6629 45.1395 26.8832 44.3597 25.9214 44.3597C24.9595 44.3597 24.1798 45.1395 24.1798 46.1013C24.1798 47.0632 24.9595 47.8429 25.9214 47.8429Z" fill="black"/>
<path d="M25.6662 40.3491L24.3491 41.6661C24.2081 41.8071 24.2081 42.0356 24.3491 42.1766L25.6662 43.4937C25.8071 43.6346 26.0357 43.6346 26.1766 43.4937L27.4937 42.1766C27.6346 42.0356 27.6346 41.8071 27.4937 41.6661L26.1766 40.3491C26.0357 40.2081 25.8071 40.2081 25.6662 40.3491Z" fill="black"/>
<path d="M29.8459 44.529L28.5288 45.846C28.3878 45.987 28.3878 46.2155 28.5288 46.3565L29.8459 47.6736C29.9868 47.8145 30.2153 47.8145 30.3563 47.6736L31.6734 46.3565C31.8143 46.2155 31.8143 45.987 31.6734 45.846L30.3563 44.529C30.2153 44.388 29.9868 44.388 29.8459 44.529Z" fill="black"/>
<path d="M42.1282 47.9917C40.4734 47.9917 39.1356 47.4491 38.1148 46.3638C37.0833 45.2785 36.5675 43.8225 36.5675 41.9958C36.5675 40.1584 37.0779 38.6971 38.0987 37.6118C39.1088 36.5373 40.4519 36 42.1282 36C43.4713 36 44.6157 36.36 45.5613 37.0799C46.5069 37.7998 47.0978 38.8421 47.3342 40.2068H45.1261C44.9327 39.4546 44.5727 38.8851 44.0462 38.4983C43.5304 38.1007 42.8911 37.9019 42.1282 37.9019C41.1074 37.9019 40.3015 38.2672 39.7105 38.9979C39.1302 39.7179 38.8401 40.7172 38.8401 41.9958C38.8401 43.2853 39.1302 44.29 39.7105 45.0099C40.2907 45.7298 41.0966 46.0898 42.1282 46.0898C42.9233 46.0898 43.6056 45.8534 44.1751 45.3806C44.7446 44.9078 45.0885 44.2524 45.2067 43.4142H47.3826C47.2429 44.8756 46.6734 46.0038 45.6741 46.799C44.6855 47.5941 43.5036 47.9917 42.1282 47.9917Z" fill="black"/>
<path d="M56.7085 43.5754C56.7085 44.8863 56.3217 45.9394 55.5481 46.7345C54.7744 47.5297 53.7536 47.9272 52.4857 47.9272C51.2177 47.9272 50.1969 47.5297 49.4233 46.7345C48.6389 45.9501 48.2467 44.8971 48.2467 43.5754C48.2467 42.2537 48.6389 41.2007 49.4233 40.4163C50.1969 39.6211 51.2177 39.2236 52.4857 39.2236C53.7536 39.2236 54.7744 39.6158 55.5481 40.4002C56.3217 41.1846 56.7085 42.243 56.7085 43.5754ZM50.89 45.5579C51.2768 46.0199 51.8087 46.251 52.4857 46.251C53.1626 46.251 53.6891 46.0199 54.0652 45.5579C54.452 45.0851 54.6455 44.4243 54.6455 43.5754C54.6455 42.7265 54.452 42.0711 54.0652 41.609C53.6891 41.1362 53.1626 40.8998 52.4857 40.8998C51.8087 40.8998 51.2768 41.1309 50.89 41.5929C50.5139 42.0549 50.3259 42.7158 50.3259 43.5754C50.3259 44.435 50.5139 45.0959 50.89 45.5579Z" fill="black"/>
<path d="M67.4762 39.2236C68.3895 39.2236 69.0987 39.4922 69.6037 40.0295C70.1195 40.5667 70.3774 41.3028 70.3774 42.2376V47.7338H68.3465V42.56C68.3465 41.5069 67.8684 40.9804 66.912 40.9804C66.3963 40.9804 65.9772 41.1685 65.6548 41.5445C65.3432 41.9099 65.1874 42.4471 65.1874 43.1563V47.7338H63.1727V42.56C63.1727 41.5069 62.6892 40.9804 61.7221 40.9804C61.2171 40.9804 60.8034 41.1685 60.481 41.5445C60.1694 41.9099 60.0136 42.4471 60.0136 43.1563V47.7338H57.9827V39.417H59.9491V40.6097C60.5186 39.6856 61.3084 39.2236 62.3184 39.2236C63.5864 39.2236 64.446 39.7393 64.8973 40.7709C65.5205 39.7393 66.3801 39.2236 67.4762 39.2236Z" fill="black"/>
<path d="M81.5163 39.2236C82.4297 39.2236 83.1389 39.4922 83.6439 40.0295C84.1597 40.5667 84.4176 41.3028 84.4176 42.2376V47.7338H82.3867V42.56C82.3867 41.5069 81.9085 40.9804 80.9522 40.9804C80.4364 40.9804 80.0174 41.1685 79.695 41.5445C79.3834 41.9099 79.2276 42.4471 79.2276 43.1563V47.7338H77.2129V42.56C77.2129 41.5069 76.7293 40.9804 75.7623 40.9804C75.2572 40.9804 74.8435 41.1685 74.5212 41.5445C74.2096 41.9099 74.0538 42.4471 74.0538 43.1563V47.7338H72.0229V39.417H73.9893V40.6097C74.5588 39.6856 75.3486 39.2236 76.3586 39.2236C77.6266 39.2236 78.4862 39.7393 78.9375 40.7709C79.5607 39.7393 80.4203 39.2236 81.5163 39.2236Z" fill="black"/>
<path d="M94.1543 43.5754C94.1543 44.8863 93.7674 45.9394 92.9938 46.7345C92.2201 47.5297 91.1993 47.9272 89.9314 47.9272C88.6634 47.9272 87.6426 47.5297 86.869 46.7345C86.0846 45.9501 85.6924 44.8971 85.6924 43.5754C85.6924 42.2537 86.0846 41.2007 86.869 40.4163C87.6426 39.6211 88.6634 39.2236 89.9314 39.2236C91.1993 39.2236 92.2201 39.6158 92.9938 40.4002C93.7674 41.1846 94.1543 42.243 94.1543 43.5754ZM88.3357 45.5579C88.7225 46.0199 89.2544 46.251 89.9314 46.251C90.6083 46.251 91.1348 46.0199 91.5109 45.5579C91.8978 45.0851 92.0912 44.4243 92.0912 43.5754C92.0912 42.7265 91.8978 42.0711 91.5109 41.609C91.1348 41.1362 90.6083 40.8998 89.9314 40.8998C89.2544 40.8998 88.7225 41.1309 88.3357 41.5929C87.9596 42.0549 87.7716 42.7158 87.7716 43.5754C87.7716 44.435 87.9596 45.0959 88.3357 45.5579Z" fill="black"/>
<path d="M99.9898 39.2236C100.892 39.2236 101.602 39.4868 102.117 40.0134C102.644 40.5291 102.907 41.2652 102.907 42.2215V47.7338H100.876V42.56C100.876 41.5069 100.355 40.9804 99.3129 40.9804C98.7971 40.9804 98.3565 41.1685 97.9912 41.5445C97.6366 41.9099 97.4593 42.4203 97.4593 43.0757V47.7338H95.4285V39.417H97.3948V40.6097C98.0288 39.6856 98.8938 39.2236 99.9898 39.2236Z" fill="black"/>
<path d="M113.481 42.5277L114.416 39.417H116.591L113.851 47.7338H111.724L110.676 44.3168C110.279 42.9199 110.042 42.0926 109.967 41.8347C109.935 41.9529 109.704 42.7803 109.274 44.3168L108.242 47.7338H106.115L103.375 39.417H105.551L106.486 42.5277C106.722 43.2692 106.996 44.2309 107.308 45.4128C107.608 44.2201 107.872 43.253 108.097 42.5116L109.016 39.417H110.95L111.869 42.5116C112.095 43.253 112.358 44.2201 112.659 45.4128C112.938 44.3491 113.212 43.3874 113.481 42.5277Z" fill="black"/>
<path d="M124.889 43.7205V44.204H118.668C118.743 44.9132 118.963 45.4504 119.328 45.8158C119.704 46.1704 120.204 46.3477 120.827 46.3477C121.751 46.3477 122.385 45.9501 122.729 45.155H124.679C124.465 46.0038 124.013 46.6808 123.326 47.1858C122.638 47.6801 121.8 47.9272 120.811 47.9272C119.576 47.9272 118.576 47.5297 117.813 46.7345C117.05 45.9394 116.669 44.8863 116.669 43.5754C116.669 42.2645 117.045 41.2114 117.797 40.4163C118.56 39.6211 119.554 39.2236 120.779 39.2236C122.036 39.2236 123.035 39.6373 123.777 40.4647C124.518 41.292 124.889 42.3773 124.889 43.7205ZM120.763 40.8031C119.57 40.8031 118.877 41.464 118.684 42.7856H122.858C122.772 42.1731 122.547 41.6896 122.181 41.335C121.816 40.9804 121.343 40.8031 120.763 40.8031Z" fill="black"/>
<path d="M133.6 47.7338H131.57C131.473 47.5619 131.398 47.2234 131.344 46.7184C130.785 47.5243 129.893 47.9272 128.668 47.9272C127.755 47.9272 127.024 47.7069 126.476 47.2664C125.939 46.8258 125.67 46.2134 125.67 45.429C125.67 43.9139 126.734 43.0489 128.862 42.834L130.119 42.7212C130.538 42.6674 130.839 42.5707 131.021 42.431C131.204 42.2806 131.295 42.0603 131.295 41.7702C131.295 41.4156 131.177 41.1577 130.941 40.9965C130.715 40.8246 130.328 40.7387 129.78 40.7387C129.189 40.7387 128.765 40.8407 128.507 41.0449C128.249 41.2383 128.099 41.5768 128.056 42.0603H126.057C126.175 40.1692 127.422 39.2236 129.797 39.2236C132.107 39.2236 133.262 40.0563 133.262 41.7218V46.1543C133.262 46.8849 133.375 47.4115 133.6 47.7338ZM129.152 46.4766C129.786 46.4766 130.302 46.3047 130.699 45.9608C131.097 45.6063 131.295 45.1012 131.295 44.4458V43.6882C131.102 43.8601 130.785 43.973 130.345 44.0267L129.249 44.1556C128.711 44.2201 128.324 44.3491 128.088 44.5425C127.862 44.7251 127.75 44.9938 127.75 45.3484C127.75 45.703 127.868 45.9823 128.104 46.1865C128.351 46.3799 128.701 46.4766 129.152 46.4766Z" fill="black"/>
<path d="M136.794 47.7338H134.763V36.2579H136.794V47.7338Z" fill="black"/>
<path d="M142.766 39.417V40.9643H141.122V45.4612C141.122 45.7298 141.192 45.9179 141.332 46.0253C141.482 46.1328 141.729 46.1865 142.073 46.1865H142.766V47.7338C142.326 47.7768 141.971 47.7983 141.702 47.7983C140.8 47.7983 140.139 47.6317 139.72 47.2986C139.312 46.9548 139.107 46.4121 139.107 45.6707V40.9643H137.818V39.417H139.107V36.9993H141.122V39.417H142.766Z" fill="black"/>
<path d="M148.517 39.2236C149.419 39.2236 150.128 39.4868 150.644 40.0134C151.171 40.5291 151.434 41.2652 151.434 42.2215V47.7338H149.403V42.56C149.403 41.5069 148.882 40.9804 147.84 40.9804C147.324 40.9804 146.883 41.1685 146.518 41.5445C146.163 41.9099 145.986 42.4203 145.986 43.0757V47.7338H143.955V36.2579H145.986V40.5291C146.62 39.6588 147.464 39.2236 148.517 39.2236Z" fill="black"/>
<path d="M158.174 9H156.369C155.613 9 155 9.61295 155 10.3691V16.3431C155 17.0992 155.613 17.7122 156.369 17.7122H162.343C163.099 17.7122 163.712 17.0992 163.712 16.3431V14.5384M159.625 9H163.712M163.712 9V13.0864M163.712 9L159.356 13.356" stroke="#999999"/>
<rect x="0.5" y="0.5" width="168" height="57.99" rx="7.5" stroke="url(#paint0_linear)"/>
<defs>
<linearGradient id="paint0_linear" x1="88.7222" y1="29.0154" x2="168.572" y2="29.0154" gradientUnits="userSpaceOnUse">
<stop stop-color="#335FB7"/>
<stop offset="1" stop-color="#D48CDD"/>
</linearGradient>
</defs>
</svg>
