<svg width="169" height="59" viewBox="0 0 169 59" fill="none" xmlns="http://www.w3.org/2000/svg">
<rect x="0.5" y="0.5" width="168" height="57.99" rx="7.5" fill="#F9F9F9"/>
<path d="M19.988 22.272V25.38H18.938V16.784H19.988V17.512C20.1653 17.2693 20.408 17.0687 20.716 16.91C21.0333 16.742 21.374 16.658 21.738 16.658C22.6153 16.658 23.3013 16.9707 23.796 17.596C24.2907 18.212 24.538 18.9773 24.538 19.892C24.538 20.8067 24.2907 21.5767 23.796 22.202C23.3013 22.818 22.6153 23.126 21.738 23.126C21.374 23.126 21.0333 23.0467 20.716 22.888C20.408 22.72 20.1653 22.5147 19.988 22.272ZM19.988 18.632V21.152C20.1467 21.4693 20.366 21.7213 20.646 21.908C20.9353 22.0853 21.248 22.174 21.584 22.174C22.1627 22.174 22.62 21.964 22.956 21.544C23.3013 21.1147 23.474 20.564 23.474 19.892C23.474 19.22 23.3013 18.674 22.956 18.254C22.62 17.8247 22.1627 17.61 21.584 17.61C21.248 17.61 20.9353 17.7033 20.646 17.89C20.366 18.0673 20.1467 18.3147 19.988 18.632ZM30.4587 17.568C30.9907 18.1653 31.2567 18.94 31.2567 19.892C31.2567 20.844 30.9907 21.6233 30.4587 22.23C29.936 22.8273 29.25 23.126 28.4007 23.126C27.5514 23.126 26.8607 22.8273 26.3287 22.23C25.806 21.6233 25.5447 20.844 25.5447 19.892C25.5447 18.94 25.806 18.1653 26.3287 17.568C26.8607 16.9613 27.5514 16.658 28.4007 16.658C29.25 16.658 29.936 16.9613 30.4587 17.568ZM29.7027 21.572C30.0294 21.1427 30.1927 20.5827 30.1927 19.892C30.1927 19.2013 30.0294 18.646 29.7027 18.226C29.3854 17.7967 28.9514 17.582 28.4007 17.582C27.85 17.582 27.4114 17.7967 27.0847 18.226C26.7674 18.646 26.6087 19.2013 26.6087 19.892C26.6087 20.5827 26.7674 21.1427 27.0847 21.572C27.4114 21.992 27.85 22.202 28.4007 22.202C28.9514 22.202 29.3854 21.992 29.7027 21.572ZM36.6262 16.784L37.9002 21.53L39.2722 16.784H40.2942L38.4602 23H37.4382L36.1502 18.282L34.8482 23H33.8262L31.9922 16.784H33.0422L34.4142 21.53L35.6882 16.784H36.6262ZM45.4029 21.138H46.3969C46.2849 21.7447 46.0096 22.23 45.5709 22.594C45.1323 22.9487 44.5723 23.126 43.8909 23.126C43.0416 23.126 42.3509 22.832 41.8189 22.244C41.2963 21.6467 41.0349 20.8673 41.0349 19.906C41.0349 18.9633 41.2963 18.1887 41.8189 17.582C42.3416 16.966 43.0229 16.658 43.8629 16.658C44.6936 16.658 45.3376 16.938 45.7949 17.498C46.2523 18.0487 46.4809 18.786 46.4809 19.71V20.088H42.0849C42.0943 20.7413 42.2623 21.264 42.5889 21.656C42.9249 22.0387 43.3589 22.23 43.8909 22.23C44.2829 22.23 44.6096 22.1367 44.8709 21.95C45.1416 21.754 45.3189 21.4833 45.4029 21.138ZM43.8769 17.554C43.4103 17.554 43.0183 17.708 42.7009 18.016C42.3836 18.324 42.1876 18.7487 42.1129 19.29H45.4169C45.4076 18.7953 45.2723 18.3847 45.0109 18.058C44.7496 17.722 44.3716 17.554 43.8769 17.554ZM51.0734 16.756V17.834C50.9054 17.722 50.672 17.666 50.3734 17.666C50.0374 17.666 49.7387 17.7687 49.4774 17.974C49.216 18.1793 49.034 18.464 48.9314 18.828V23H47.8814V16.784H48.9314V17.596C49.0714 17.3253 49.2767 17.1013 49.5474 16.924C49.8274 16.7467 50.1354 16.658 50.4714 16.658C50.742 16.658 50.9427 16.6907 51.0734 16.756ZM56.1217 21.138H57.1157C57.0037 21.7447 56.7283 22.23 56.2897 22.594C55.851 22.9487 55.291 23.126 54.6097 23.126C53.7603 23.126 53.0697 22.832 52.5377 22.244C52.015 21.6467 51.7537 20.8673 51.7537 19.906C51.7537 18.9633 52.015 18.1887 52.5377 17.582C53.0603 16.966 53.7417 16.658 54.5817 16.658C55.4123 16.658 56.0563 16.938 56.5137 17.498C56.971 18.0487 57.1997 18.786 57.1997 19.71V20.088H52.8037C52.813 20.7413 52.981 21.264 53.3077 21.656C53.6437 22.0387 54.0777 22.23 54.6097 22.23C55.0017 22.23 55.3283 22.1367 55.5897 21.95C55.8603 21.754 56.0377 21.4833 56.1217 21.138ZM54.5957 17.554C54.129 17.554 53.737 17.708 53.4197 18.016C53.1023 18.324 52.9063 18.7487 52.8317 19.29H56.1357C56.1263 18.7953 55.991 18.3847 55.7297 18.058C55.4683 17.722 55.0903 17.554 54.5957 17.554ZM62.7295 23V22.272C62.5615 22.5147 62.3188 22.72 62.0015 22.888C61.6841 23.0467 61.3435 23.126 60.9795 23.126C60.1021 23.126 59.4161 22.818 58.9215 22.202C58.4268 21.586 58.1795 20.816 58.1795 19.892C58.1795 18.9773 58.4268 18.212 58.9215 17.596C59.4161 16.9707 60.1021 16.658 60.9795 16.658C61.3435 16.658 61.6841 16.742 62.0015 16.91C62.3188 17.0687 62.5615 17.2693 62.7295 17.512V13.9H63.7935V23H62.7295ZM62.7295 21.152V18.632C62.5708 18.3147 62.3468 18.0673 62.0575 17.89C61.7775 17.7033 61.4695 17.61 61.1335 17.61C60.5548 17.61 60.0928 17.8247 59.7475 18.254C59.4115 18.674 59.2435 19.22 59.2435 19.892C59.2435 20.564 59.4115 21.1147 59.7475 21.544C60.0928 21.964 60.5548 22.174 61.1335 22.174C61.4695 22.174 61.7775 22.0853 62.0575 21.908C62.3468 21.7213 62.5708 21.4693 62.7295 21.152ZM69.7946 22.272V23H68.7306V13.9H69.7946V17.512C69.9626 17.2693 70.2053 17.0687 70.5226 16.91C70.84 16.742 71.1806 16.658 71.5446 16.658C72.422 16.658 73.108 16.9707 73.6026 17.596C74.0973 18.212 74.3446 18.9773 74.3446 19.892C74.3446 20.816 74.0973 21.586 73.6026 22.202C73.108 22.818 72.422 23.126 71.5446 23.126C71.1806 23.126 70.84 23.0467 70.5226 22.888C70.2053 22.72 69.9626 22.5147 69.7946 22.272ZM69.7946 18.632V21.152C69.9533 21.4693 70.1726 21.7213 70.4526 21.908C70.742 22.0853 71.0546 22.174 71.3906 22.174C71.9693 22.174 72.4266 21.964 72.7626 21.544C73.108 21.1147 73.2806 20.564 73.2806 19.892C73.2806 19.22 73.108 18.674 72.7626 18.254C72.4266 17.8247 71.9693 17.61 71.3906 17.61C71.0546 17.61 70.742 17.7033 70.4526 17.89C70.1726 18.0673 69.9533 18.3147 69.7946 18.632ZM77.4966 25.38H76.4606L77.3986 23.042L74.9766 16.784H76.1106L77.9446 21.684L79.7506 16.784H80.8426L77.4966 25.38Z" fill="#666666"/>
<path d="M19.7416 38.4832C20.7034 38.4832 21.4832 37.7034 21.4832 36.7416C21.4832 35.7797 20.7034 35 19.7416 35C18.7797 35 18 35.7797 18 36.7416C18 37.7034 18.7797 38.4832 19.7416 38.4832Z" fill="black"/>
<path d="M23.9214 38.4832C24.8832 38.4832 25.6629 37.7034 25.6629 36.7416C25.6629 35.7797 24.8832 35 23.9214 35C22.9595 35 22.1798 35.7797 22.1798 36.7416C22.1798 37.7034 22.9595 38.4832 23.9214 38.4832Z" fill="black"/>
<path d="M28.1012 38.4832C29.063 38.4832 29.8428 37.7034 29.8428 36.7416C29.8428 35.7797 29.063 35 28.1012 35C27.1393 35 26.3596 35.7797 26.3596 36.7416C26.3596 37.7034 27.1393 38.4832 28.1012 38.4832Z" fill="black"/>
<path d="M19.7416 42.6631C20.7034 42.6631 21.4832 41.8833 21.4832 40.9215C21.4832 39.9596 20.7034 39.1799 19.7416 39.1799C18.7797 39.1799 18 39.9596 18 40.9215C18 41.8833 18.7797 42.6631 19.7416 42.6631Z" fill="black"/>
<path d="M28.1012 42.6631C29.0631 42.6631 29.8428 41.8833 29.8428 40.9215C29.8428 39.9596 29.0631 39.1799 28.1012 39.1799C27.1394 39.1799 26.3596 39.9596 26.3596 40.9215C26.3596 41.8833 27.1394 42.6631 28.1012 42.6631Z" fill="black"/>
<path d="M19.7416 46.8429C20.7034 46.8429 21.4832 46.0632 21.4832 45.1013C21.4832 44.1395 20.7034 43.3597 19.7416 43.3597C18.7797 43.3597 18 44.1395 18 45.1013C18 46.0632 18.7797 46.8429 19.7416 46.8429Z" fill="black"/>
<path d="M23.9214 46.8429C24.8832 46.8429 25.6629 46.0632 25.6629 45.1013C25.6629 44.1395 24.8832 43.3597 23.9214 43.3597C22.9595 43.3597 22.1798 44.1395 22.1798 45.1013C22.1798 46.0632 22.9595 46.8429 23.9214 46.8429Z" fill="black"/>
<path d="M23.6662 39.3491L22.3491 40.6661C22.2081 40.8071 22.2081 41.0356 22.3491 41.1766L23.6662 42.4937C23.8071 42.6346 24.0357 42.6346 24.1766 42.4937L25.4937 41.1766C25.6346 41.0356 25.6346 40.8071 25.4937 40.6661L24.1766 39.3491C24.0357 39.2081 23.8071 39.2081 23.6662 39.3491Z" fill="black"/>
<path d="M27.8459 43.529L26.5288 44.846C26.3878 44.987 26.3878 45.2155 26.5288 45.3565L27.8459 46.6736C27.9868 46.8145 28.2153 46.8145 28.3563 46.6736L29.6734 45.3565C29.8143 45.2155 29.8143 44.987 29.6734 44.846L28.3563 43.529C28.2153 43.388 27.9868 43.388 27.8459 43.529Z" fill="black"/>
<path d="M40.1282 46.9917C38.4734 46.9917 37.1356 46.4491 36.1148 45.3638C35.0833 44.2785 34.5675 42.8225 34.5675 40.9958C34.5675 39.1584 35.0779 37.6971 36.0987 36.6118C37.1088 35.5373 38.4519 35 40.1282 35C41.4713 35 42.6157 35.36 43.5613 36.0799C44.5069 36.7998 45.0978 37.8421 45.3342 39.2068H43.1261C42.9327 38.4546 42.5727 37.8851 42.0462 37.4983C41.5304 37.1007 40.8911 36.9019 40.1282 36.9019C39.1074 36.9019 38.3015 37.2672 37.7105 37.9979C37.1302 38.7179 36.8401 39.7172 36.8401 40.9958C36.8401 42.2853 37.1302 43.29 37.7105 44.0099C38.2907 44.7298 39.0966 45.0898 40.1282 45.0898C40.9233 45.0898 41.6056 44.8534 42.1751 44.3806C42.7446 43.9078 43.0885 43.2524 43.2067 42.4142H45.3826C45.2429 43.8756 44.6734 45.0038 43.6741 45.799C42.6855 46.5941 41.5036 46.9917 40.1282 46.9917Z" fill="black"/>
<path d="M54.7085 42.5754C54.7085 43.8863 54.3217 44.9394 53.5481 45.7345C52.7744 46.5297 51.7536 46.9272 50.4857 46.9272C49.2177 46.9272 48.1969 46.5297 47.4233 45.7345C46.6389 44.9501 46.2467 43.8971 46.2467 42.5754C46.2467 41.2537 46.6389 40.2007 47.4233 39.4163C48.1969 38.6211 49.2177 38.2236 50.4857 38.2236C51.7536 38.2236 52.7744 38.6158 53.5481 39.4002C54.3217 40.1846 54.7085 41.243 54.7085 42.5754ZM48.89 44.5579C49.2768 45.0199 49.8087 45.251 50.4857 45.251C51.1626 45.251 51.6891 45.0199 52.0652 44.5579C52.452 44.0851 52.6455 43.4243 52.6455 42.5754C52.6455 41.7265 52.452 41.0711 52.0652 40.609C51.6891 40.1362 51.1626 39.8998 50.4857 39.8998C49.8087 39.8998 49.2768 40.1309 48.89 40.5929C48.5139 41.0549 48.3259 41.7158 48.3259 42.5754C48.3259 43.435 48.5139 44.0959 48.89 44.5579Z" fill="black"/>
<path d="M65.4762 38.2236C66.3895 38.2236 67.0987 38.4922 67.6037 39.0295C68.1195 39.5667 68.3774 40.3028 68.3774 41.2376V46.7338H66.3465V41.56C66.3465 40.5069 65.8684 39.9804 64.912 39.9804C64.3963 39.9804 63.9772 40.1685 63.6548 40.5445C63.3432 40.9099 63.1874 41.4471 63.1874 42.1563V46.7338H61.1727V41.56C61.1727 40.5069 60.6892 39.9804 59.7221 39.9804C59.2171 39.9804 58.8034 40.1685 58.481 40.5445C58.1694 40.9099 58.0136 41.4471 58.0136 42.1563V46.7338H55.9827V38.417H57.9491V39.6097C58.5186 38.6856 59.3084 38.2236 60.3184 38.2236C61.5864 38.2236 62.446 38.7393 62.8973 39.7709C63.5205 38.7393 64.3802 38.2236 65.4762 38.2236Z" fill="black"/>
<path d="M79.5163 38.2236C80.4297 38.2236 81.1389 38.4922 81.6439 39.0295C82.1597 39.5667 82.4176 40.3028 82.4176 41.2376V46.7338H80.3867V41.56C80.3867 40.5069 79.9085 39.9804 78.9522 39.9804C78.4364 39.9804 78.0174 40.1685 77.695 40.5445C77.3834 40.9099 77.2276 41.4471 77.2276 42.1563V46.7338H75.2129V41.56C75.2129 40.5069 74.7293 39.9804 73.7623 39.9804C73.2572 39.9804 72.8435 40.1685 72.5212 40.5445C72.2096 40.9099 72.0538 41.4471 72.0538 42.1563V46.7338H70.0229V38.417H71.9893V39.6097C72.5588 38.6856 73.3486 38.2236 74.3586 38.2236C75.6266 38.2236 76.4862 38.7393 76.9375 39.7709C77.5607 38.7393 78.4203 38.2236 79.5163 38.2236Z" fill="black"/>
<path d="M92.1543 42.5754C92.1543 43.8863 91.7674 44.9394 90.9938 45.7345C90.2201 46.5297 89.1993 46.9272 87.9314 46.9272C86.6634 46.9272 85.6426 46.5297 84.869 45.7345C84.0846 44.9501 83.6924 43.8971 83.6924 42.5754C83.6924 41.2537 84.0846 40.2007 84.869 39.4163C85.6426 38.6211 86.6634 38.2236 87.9314 38.2236C89.1993 38.2236 90.2201 38.6158 90.9938 39.4002C91.7674 40.1846 92.1543 41.243 92.1543 42.5754ZM86.3357 44.5579C86.7225 45.0199 87.2544 45.251 87.9314 45.251C88.6083 45.251 89.1348 45.0199 89.5109 44.5579C89.8978 44.0851 90.0912 43.4243 90.0912 42.5754C90.0912 41.7265 89.8978 41.0711 89.5109 40.609C89.1348 40.1362 88.6083 39.8998 87.9314 39.8998C87.2544 39.8998 86.7225 40.1309 86.3357 40.5929C85.9596 41.0549 85.7716 41.7158 85.7716 42.5754C85.7716 43.435 85.9596 44.0959 86.3357 44.5579Z" fill="black"/>
<path d="M97.9898 38.2236C98.8924 38.2236 99.6016 38.4868 100.117 39.0134C100.644 39.5291 100.907 40.2652 100.907 41.2215V46.7338H98.8763V41.56C98.8763 40.5069 98.3551 39.9804 97.3129 39.9804C96.7971 39.9804 96.3565 40.1685 95.9912 40.5445C95.6366 40.9099 95.4593 41.4203 95.4593 42.0757V46.7338H93.4285V38.417H95.3948V39.6097C96.0288 38.6856 96.8938 38.2236 97.9898 38.2236Z" fill="black"/>
<path d="M111.481 41.5277L112.416 38.417H114.591L111.851 46.7338H109.724L108.676 43.3168C108.279 41.9199 108.042 41.0926 107.967 40.8347C107.935 40.9529 107.704 41.7803 107.274 43.3168L106.242 46.7338H104.115L101.375 38.417H103.551L104.486 41.5277C104.722 42.2692 104.996 43.2309 105.308 44.4128C105.608 43.2201 105.872 42.253 106.097 41.5116L107.016 38.417H108.95L109.869 41.5116C110.095 42.253 110.358 43.2201 110.659 44.4128C110.938 43.3491 111.212 42.3874 111.481 41.5277Z" fill="black"/>
<path d="M122.889 42.7205V43.204H116.668C116.743 43.9132 116.963 44.4504 117.328 44.8158C117.704 45.1704 118.204 45.3477 118.827 45.3477C119.751 45.3477 120.385 44.9501 120.729 44.155H122.679C122.465 45.0038 122.013 45.6808 121.326 46.1858C120.638 46.6801 119.8 46.9272 118.811 46.9272C117.575 46.9272 116.576 46.5297 115.813 45.7345C115.05 44.9394 114.669 43.8863 114.669 42.5754C114.669 41.2645 115.045 40.2114 115.797 39.4163C116.56 38.6211 117.554 38.2236 118.779 38.2236C120.036 38.2236 121.035 38.6373 121.777 39.4647C122.518 40.292 122.889 41.3773 122.889 42.7205ZM118.763 39.8031C117.57 39.8031 116.877 40.464 116.684 41.7856H120.858C120.772 41.1731 120.547 40.6896 120.181 40.335C119.816 39.9804 119.343 39.8031 118.763 39.8031Z" fill="black"/>
<path d="M131.6 46.7338H129.57C129.473 46.5619 129.398 46.2234 129.344 45.7184C128.785 46.5243 127.893 46.9272 126.668 46.9272C125.755 46.9272 125.024 46.7069 124.476 46.2664C123.939 45.8258 123.67 45.2134 123.67 44.429C123.67 42.9139 124.734 42.0489 126.862 41.834L128.119 41.7212C128.538 41.6674 128.839 41.5707 129.021 41.431C129.204 41.2806 129.295 41.0603 129.295 40.7702C129.295 40.4156 129.177 40.1577 128.941 39.9965C128.715 39.8246 128.328 39.7387 127.78 39.7387C127.189 39.7387 126.765 39.8407 126.507 40.0449C126.249 40.2383 126.099 40.5768 126.056 41.0603H124.057C124.175 39.1692 125.422 38.2236 127.797 38.2236C130.107 38.2236 131.262 39.0563 131.262 40.7218V45.1543C131.262 45.8849 131.375 46.4115 131.6 46.7338ZM127.152 45.4766C127.786 45.4766 128.302 45.3047 128.699 44.9608C129.097 44.6063 129.295 44.1012 129.295 43.4458V42.6882C129.102 42.8601 128.785 42.973 128.345 43.0267L127.249 43.1556C126.711 43.2201 126.324 43.3491 126.088 43.5425C125.862 43.7251 125.75 43.9938 125.75 44.3484C125.75 44.703 125.868 44.9823 126.104 45.1865C126.351 45.3799 126.701 45.4766 127.152 45.4766Z" fill="black"/>
<path d="M134.794 46.7338H132.763V35.2579H134.794V46.7338Z" fill="black"/>
<path d="M140.766 38.417V39.9643H139.122V44.4612C139.122 44.7298 139.192 44.9179 139.332 45.0253C139.482 45.1328 139.729 45.1865 140.073 45.1865H140.766V46.7338C140.326 46.7768 139.971 46.7983 139.702 46.7983C138.8 46.7983 138.139 46.6317 137.72 46.2986C137.312 45.9548 137.107 45.4121 137.107 44.6707V39.9643H135.818V38.417H137.107V35.9993H139.122V38.417H140.766Z" fill="black"/>
<path d="M146.517 38.2236C147.419 38.2236 148.128 38.4868 148.644 39.0134C149.171 39.5291 149.434 40.2652 149.434 41.2215V46.7338H147.403V41.56C147.403 40.5069 146.882 39.9804 145.84 39.9804C145.324 39.9804 144.883 40.1685 144.518 40.5445C144.163 40.9099 143.986 41.4203 143.986 42.0757V46.7338H141.955V35.2579H143.986V39.5291C144.62 38.6588 145.464 38.2236 146.517 38.2236Z" fill="black"/>
<path d="M158.174 9H156.369C155.613 9 155 9.61295 155 10.3691V16.3431C155 17.0992 155.613 17.7122 156.369 17.7122H162.343C163.099 17.7122 163.712 17.0992 163.712 16.3431V14.5384M159.625 9H163.712M163.712 9V13.0864M163.712 9L159.356 13.356" stroke="#999999"/>
<rect x="0.5" y="0.5" width="168" height="57.99" rx="7.5" stroke="url(#paint0_linear)"/>
<defs>
<linearGradient id="paint0_linear" x1="88.7222" y1="29.0154" x2="168.572" y2="29.0154" gradientUnits="userSpaceOnUse">
<stop stop-color="#335FB7"/>
<stop offset="1" stop-color="#D48CDD"/>
</linearGradient>
</defs>
</svg>
