<svg width="729" height="554" viewBox="0 0 729 554" fill="none" xmlns="http://www.w3.org/2000/svg">
<circle cx="630" cy="67" r="6" fill="#53C1FF" stroke="white" stroke-width="2"/>
<g filter="url(#filter0_d)">
<path d="M50 67H679V43C679 40.2386 676.761 38 674 38H55C52.2386 38 50 40.2386 50 43V67Z" fill="#4C4B51"/>
<path d="M50 67H679V487C679 489.761 676.761 492 674 492H55C52.2386 492 50 489.761 50 487V67Z" fill="white"/>
<rect x="84.5" y="195.5" width="56" height="27" rx="13.5" stroke="#E7E7E7"/>
<path d="M104.88 210.336C106.912 210.336 108.24 209.264 108.24 207.264C108.24 205.232 106.912 204.176 104.88 204.176H101.088V214H102.752V210.336H104.88ZM106.592 207.264C106.592 208.208 106 208.896 104.848 208.896H102.752V205.616H104.848C106 205.616 106.592 206.288 106.592 207.264ZM115.654 210.448C115.654 208.272 114.278 206.736 112.278 206.736C110.278 206.736 108.902 208.272 108.902 210.448C108.902 212.624 110.278 214.16 112.278 214.16C114.278 214.16 115.654 212.624 115.654 210.448ZM114.054 210.448C114.054 211.792 113.43 212.784 112.278 212.784C111.126 212.784 110.502 211.792 110.502 210.448C110.502 209.104 111.126 208.112 112.278 208.112C113.43 208.112 114.054 209.104 114.054 210.448ZM118.748 203.6H117.148V214H118.748V203.6ZM122.326 203.6H120.726V214H122.326V203.6Z" fill="#262523"/>
<rect x="84.5" y="153.5" width="89" height="27" rx="13.5" stroke="#E7E7E7"/>
<path d="M106.56 172L109.2 165.168V172H110.8V162.176H108.944L105.984 169.728L102.992 162.176H101.088V172H102.672V165.168L105.376 172H106.56ZM117.267 169.792C117.091 170.48 116.515 170.816 115.747 170.816C114.723 170.816 114.003 170.064 113.955 168.816H118.803V168.24C118.803 166.16 117.715 164.736 115.715 164.736C113.779 164.736 112.387 166.336 112.387 168.464C112.387 170.656 113.763 172.16 115.747 172.16C117.459 172.16 118.499 171.2 118.739 169.792H117.267ZM115.731 166.08C116.707 166.08 117.203 166.784 117.219 167.648H114.003C114.195 166.624 114.851 166.08 115.731 166.08ZM125.521 165.68C125.153 165.136 124.449 164.736 123.649 164.736C122.849 164.736 122.209 165.04 121.873 165.488V164.896H120.273V172H121.873V167.232C122.017 166.528 122.561 166.176 123.137 166.176C123.921 166.176 124.305 166.752 124.305 167.632V172H125.905V167.232C126.049 166.528 126.593 166.176 127.169 166.176C127.953 166.176 128.337 166.752 128.337 167.632V172H129.937V167.376C129.937 165.76 129.089 164.736 127.633 164.736C126.673 164.736 126.017 165.104 125.521 165.68ZM133.42 171.392C133.74 171.792 134.444 172.16 135.228 172.16C137.308 172.16 138.524 170.496 138.524 168.448C138.524 166.416 137.308 164.736 135.228 164.736C134.444 164.736 133.74 165.104 133.42 165.504V161.6H131.82V172H133.42V171.392ZM133.42 167.104C133.692 166.544 134.3 166.16 134.956 166.16C136.188 166.16 136.924 167.136 136.924 168.448C136.924 169.76 136.188 170.736 134.956 170.736C134.3 170.736 133.692 170.352 133.42 169.792V167.104ZM144.439 169.792C144.263 170.48 143.687 170.816 142.919 170.816C141.895 170.816 141.174 170.064 141.127 168.816H145.975V168.24C145.975 166.16 144.887 164.736 142.887 164.736C140.951 164.736 139.559 166.336 139.559 168.464C139.559 170.656 140.935 172.16 142.919 172.16C144.631 172.16 145.671 171.2 145.911 169.792H144.439ZM142.903 166.08C143.879 166.08 144.375 166.784 144.391 167.648H141.174C141.367 166.624 142.023 166.08 142.903 166.08ZM151.413 164.864C151.301 164.8 150.981 164.736 150.629 164.736C149.941 164.736 149.317 165.104 149.045 165.632V164.896H147.445V172H149.045V167.408C149.205 166.64 149.813 166.272 150.469 166.272C150.805 166.272 151.189 166.352 151.413 166.512V164.864ZM152.309 169.952C152.517 171.328 153.669 172.16 155.333 172.16C156.933 172.16 158.101 171.296 158.101 169.888C158.101 168.848 157.493 168.16 156.277 167.872L154.773 167.52C154.261 167.392 154.037 167.184 154.037 166.864C154.037 166.304 154.613 166.048 155.173 166.048C155.909 166.048 156.325 166.368 156.469 166.832H158.037C157.797 165.536 156.853 164.736 155.189 164.736C153.637 164.736 152.501 165.68 152.501 166.96C152.501 168.128 153.253 168.672 154.261 168.912L155.733 169.264C156.325 169.408 156.565 169.616 156.565 170C156.565 170.56 156.085 170.848 155.349 170.848C154.645 170.848 154.117 170.544 153.941 169.952H152.309Z" fill="#262523"/>
<path d="M111.784 101.336L109.4 97.176H107.176L110.712 103.272V107H112.744V103.272L116.312 97.176H114.152L111.784 101.336ZM122.705 103.432C122.705 101.224 121.281 99.688 119.201 99.688C117.121 99.688 115.697 101.224 115.697 103.432C115.697 105.624 117.121 107.16 119.201 107.16C121.281 107.16 122.705 105.624 122.705 103.432ZM120.737 103.432C120.737 104.616 120.193 105.48 119.201 105.48C118.209 105.48 117.665 104.616 117.665 103.432C117.665 102.232 118.209 101.368 119.201 101.368C120.193 101.368 120.737 102.232 120.737 103.432ZM130.309 99.848H128.309V104.392C128.165 105.016 127.637 105.384 127.029 105.384C126.245 105.384 125.877 104.872 125.877 104.12V99.848H123.893V104.52C123.893 106.104 124.805 107.16 126.405 107.16C127.237 107.16 127.925 106.792 128.325 106.344V107H130.309V99.848ZM136.356 99.816C136.244 99.752 135.94 99.688 135.604 99.688C134.9 99.688 134.308 100.04 134.004 100.552V99.848H132.02V107H134.004V102.568C134.148 101.912 134.692 101.56 135.364 101.56C135.732 101.56 136.084 101.64 136.356 101.8V99.816ZM140.572 98.968H143.724V107H145.788V98.968H148.956V97.176H140.572V98.968ZM155.752 103.432C155.752 101.224 154.328 99.688 152.248 99.688C150.168 99.688 148.744 101.224 148.744 103.432C148.744 105.624 150.168 107.16 152.248 107.16C154.328 107.16 155.752 105.624 155.752 103.432ZM153.784 103.432C153.784 104.616 153.24 105.48 152.248 105.48C151.256 105.48 150.712 104.616 150.712 103.432C150.712 102.232 151.256 101.368 152.248 101.368C153.24 101.368 153.784 102.232 153.784 103.432ZM161.676 107H164.028L161.02 102.888L163.916 99.848H161.452L159.004 102.504V96.6H157.02V107H159.004V104.744L159.58 104.12L161.676 107ZM169.06 104.664C168.9 105.272 168.404 105.56 167.732 105.56C166.852 105.56 166.244 104.92 166.18 103.848H170.948V103.24C170.948 101.144 169.796 99.688 167.7 99.688C165.7 99.688 164.26 101.272 164.26 103.432C164.26 105.64 165.652 107.16 167.732 107.16C169.524 107.16 170.644 106.184 170.9 104.664H169.06ZM167.716 101.304C168.532 101.304 168.98 101.896 168.996 102.648H166.228C166.404 101.768 166.948 101.304 167.716 101.304ZM172.208 107H174.192V102.472C174.352 101.848 174.88 101.48 175.488 101.48C176.272 101.48 176.656 101.992 176.656 102.744V107H178.64V102.328C178.64 100.744 177.728 99.688 176.112 99.688C175.28 99.688 174.576 100.056 174.192 100.504V99.848H172.208V107ZM182.893 108.344H184.733L188.701 96.6H186.861L182.893 108.344ZM195.148 105.192V98.968H196.508C198.38 98.968 199.404 100.168 199.404 102.088C199.404 103.992 198.38 105.192 196.508 105.192H195.148ZM193.116 107H196.588C199.564 107 201.436 105.08 201.436 102.088C201.436 99.096 199.564 97.176 196.588 97.176H193.116V107ZM204.77 99.848H202.786V107H204.77V99.848ZM204.946 97.784C204.946 97.128 204.402 96.648 203.778 96.648C203.138 96.648 202.594 97.128 202.594 97.784C202.594 98.456 203.138 98.92 203.778 98.92C204.402 98.92 204.946 98.456 204.946 97.784ZM206.041 104.872C206.249 106.328 207.481 107.16 209.225 107.16C210.889 107.16 212.153 106.296 212.153 104.84C212.153 103.752 211.497 103.064 210.249 102.76L208.777 102.424C208.329 102.312 208.137 102.152 208.137 101.864C208.137 101.416 208.601 101.192 209.081 101.192C209.737 101.192 210.073 101.496 210.201 101.896H212.089C211.849 100.552 210.857 99.688 209.049 99.688C207.449 99.688 206.201 100.616 206.201 102.008C206.201 103.208 206.969 103.768 208.057 104.024L209.497 104.344C209.993 104.472 210.217 104.632 210.217 104.952C210.217 105.416 209.817 105.656 209.209 105.656C208.617 105.656 208.169 105.384 208.009 104.872H206.041ZM213.041 103.432C213.041 105.64 214.449 107.16 216.481 107.16C218.273 107.16 219.409 106.12 219.617 104.584H217.665C217.553 105.128 217.121 105.464 216.481 105.464C215.569 105.464 215.009 104.632 215.009 103.432C215.009 102.216 215.569 101.384 216.481 101.384C217.121 101.384 217.553 101.72 217.665 102.264H219.617C219.409 100.744 218.273 99.688 216.481 99.688C214.449 99.688 213.041 101.208 213.041 103.432ZM227.169 99.848H225.169V104.392C225.025 105.016 224.497 105.384 223.889 105.384C223.105 105.384 222.737 104.872 222.737 104.12V99.848H220.753V104.52C220.753 106.104 221.665 107.16 223.265 107.16C224.097 107.16 224.785 106.792 225.185 106.344V107H227.169V99.848ZM228.416 104.872C228.624 106.328 229.856 107.16 231.6 107.16C233.264 107.16 234.528 106.296 234.528 104.84C234.528 103.752 233.872 103.064 232.624 102.76L231.152 102.424C230.704 102.312 230.512 102.152 230.512 101.864C230.512 101.416 230.976 101.192 231.456 101.192C232.112 101.192 232.448 101.496 232.576 101.896H234.464C234.224 100.552 233.232 99.688 231.424 99.688C229.824 99.688 228.576 100.616 228.576 102.008C228.576 103.208 229.344 103.768 230.432 104.024L231.872 104.344C232.368 104.472 232.592 104.632 232.592 104.952C232.592 105.416 232.192 105.656 231.584 105.656C230.992 105.656 230.544 105.384 230.384 104.872H228.416ZM235.4 104.872C235.608 106.328 236.84 107.16 238.584 107.16C240.248 107.16 241.512 106.296 241.512 104.84C241.512 103.752 240.856 103.064 239.608 102.76L238.136 102.424C237.688 102.312 237.496 102.152 237.496 101.864C237.496 101.416 237.96 101.192 238.44 101.192C239.096 101.192 239.432 101.496 239.56 101.896H241.448C241.208 100.552 240.216 99.688 238.408 99.688C236.808 99.688 235.56 100.616 235.56 102.008C235.56 103.208 236.328 103.768 237.416 104.024L238.856 104.344C239.352 104.472 239.576 104.632 239.576 104.952C239.576 105.416 239.176 105.656 238.568 105.656C237.976 105.656 237.528 105.384 237.368 104.872H235.4ZM244.832 99.848H242.848V107H244.832V99.848ZM245.008 97.784C245.008 97.128 244.464 96.648 243.84 96.648C243.2 96.648 242.656 97.128 242.656 97.784C242.656 98.456 243.2 98.92 243.84 98.92C244.464 98.92 245.008 98.456 245.008 97.784ZM253.127 103.432C253.127 101.224 251.703 99.688 249.623 99.688C247.543 99.688 246.119 101.224 246.119 103.432C246.119 105.624 247.543 107.16 249.623 107.16C251.703 107.16 253.127 105.624 253.127 103.432ZM251.159 103.432C251.159 104.616 250.615 105.48 249.623 105.48C248.631 105.48 248.087 104.616 248.087 103.432C248.087 102.232 248.631 101.368 249.623 101.368C250.615 101.368 251.159 102.232 251.159 103.432ZM254.395 107H256.379V102.472C256.539 101.848 257.067 101.48 257.675 101.48C258.459 101.48 258.843 101.992 258.843 102.744V107H260.827V102.328C260.827 100.744 259.915 99.688 258.299 99.688C257.467 99.688 256.763 100.056 256.379 100.504V99.848H254.395V107ZM262.009 104.872C262.217 106.328 263.449 107.16 265.193 107.16C266.857 107.16 268.121 106.296 268.121 104.84C268.121 103.752 267.465 103.064 266.217 102.76L264.745 102.424C264.297 102.312 264.105 102.152 264.105 101.864C264.105 101.416 264.569 101.192 265.049 101.192C265.705 101.192 266.041 101.496 266.169 101.896H268.057C267.817 100.552 266.825 99.688 265.017 99.688C263.417 99.688 262.169 100.616 262.169 102.008C262.169 103.208 262.937 103.768 264.025 104.024L265.465 104.344C265.961 104.472 266.185 104.632 266.185 104.952C266.185 105.416 265.785 105.656 265.177 105.656C264.585 105.656 264.137 105.384 263.977 104.872H262.009Z" fill="#262523"/>
<circle cx="96.5" cy="52.5" r="5.5" fill="#A1E59D"/>
<circle cx="578.5" cy="416.5" r="11.5" fill="#73304F" stroke="white" stroke-width="2"/>
<circle cx="591.5" cy="416.5" r="11.5" fill="#F7D58C" stroke="white" stroke-width="2"/>
<circle cx="604.5" cy="416.5" r="11.5" fill="#C3326B" stroke="white" stroke-width="2"/>
<circle cx="80.5" cy="52.5" r="5.5" fill="#F2C571"/>
<circle cx="64.5" cy="52.5" r="5.5" fill="#D27365"/>
<circle cx="577.5" cy="339.5" r="11.5" fill="#E1696C" stroke="white" stroke-width="2"/>
<circle cx="590.5" cy="339.5" r="11.5" fill="#8FD4D7" stroke="white" stroke-width="2"/>
<circle cx="603.5" cy="339.5" r="11.5" fill="#4DA978" stroke="white" stroke-width="2"/>
<circle cx="92" cy="103" r="8" fill="#DEDEDE"/>
<rect x="202" y="156" width="324" height="13" rx="4" fill="#D5D5D5"/>
<rect x="202" y="233" width="324" height="13" rx="4" fill="#D5D5D5"/>
<rect x="202" y="393" width="324" height="13" rx="4" fill="#D5D5D5"/>
<rect x="202" y="314" width="324" height="13" rx="4" fill="#D5D5D5"/>
<rect x="202" y="185" width="272" height="13" rx="4" fill="#E6E6E6"/>
<rect x="202" y="262" width="272" height="13" rx="4" fill="#E6E6E6"/>
<rect x="202" y="422" width="272" height="13" rx="4" fill="#E6E6E6"/>
<rect x="202" y="343" width="272" height="13" rx="4" fill="#E6E6E6"/>
<rect x="181" y="297" width="460" height="195" fill="url(#paint0_linear)"/>
<circle cx="578.5" cy="178.5" r="11.5" fill="#F7D58C" stroke="white" stroke-width="2"/>
<circle cx="591.5" cy="178.5" r="11.5" fill="#73304F" stroke="white" stroke-width="2"/>
<circle cx="591.5" cy="251.5" r="11.5" fill="#C3326B" stroke="white" stroke-width="2"/>
<circle cx="604.5" cy="178.5" r="11.5" fill="#8FD4DD" stroke="white" stroke-width="2"/>
<circle cx="604.5" cy="251.5" r="11.5" fill="#7E964F" stroke="white" stroke-width="2"/>
</g>
<g opacity="0.8" filter="url(#filter1_f)">
<rect x="592" y="54" width="57" height="53" rx="20" fill="url(#paint1_linear)"/>
</g>
<path d="M608 53.5H634C640.351 53.5 645.5 58.6487 645.5 65V91C645.5 97.3513 640.351 102.5 634 102.5H608C601.649 102.5 596.5 97.3513 596.5 91V65C596.5 58.6487 601.649 53.5 608 53.5Z" fill="white" stroke="#E7E7E7"/>
<path d="M627 74C627 72.4087 626.368 70.8826 625.243 69.7574C624.117 68.6321 622.591 68 621 68C619.409 68 617.883 68.6321 616.757 69.7574C615.632 70.8826 615 72.4087 615 74C615 81 612 83 612 83H630C630 83 627 81 627 74Z" stroke="black" stroke-width="2" stroke-linecap="round" stroke-linejoin="round"/>
<path d="M622.73 87C622.554 87.3031 622.302 87.5547 621.998 87.7295C621.695 87.9044 621.35 87.9965 621 87.9965C620.65 87.9965 620.305 87.9044 620.002 87.7295C619.698 87.5547 619.446 87.3031 619.27 87" stroke="black" stroke-width="2" stroke-linecap="round" stroke-linejoin="round"/>
<g filter="url(#filter2_d)">
<rect x="476" y="63" width="107" height="32" rx="4" fill="#1C1C25"/>
<path d="M500.199 83V74.5977H501.266L505.42 80.5977L505.777 81.1543V74.5977H506.867V83H505.789L501.611 76.9766L501.289 76.4609V83H500.199ZM508.215 79.9883C508.215 79.0586 508.482 78.3027 509.018 77.7207C509.561 77.1191 510.264 76.8184 511.127 76.8184C511.967 76.8184 512.635 77.0879 513.131 77.627C513.627 78.1621 513.875 78.918 513.875 79.8945V80.3867H509.281C509.32 80.9375 509.51 81.373 509.85 81.6934C510.189 82.0137 510.623 82.1738 511.15 82.1738C511.99 82.1738 512.535 81.8457 512.785 81.1895H513.816C513.625 81.8066 513.299 82.2852 512.838 82.625C512.377 82.9648 511.807 83.1348 511.127 83.1348C510.264 83.1348 509.564 82.8457 509.029 82.2676C508.486 81.6816 508.215 80.9219 508.215 79.9883ZM509.293 79.4609H512.832C512.824 78.9492 512.664 78.541 512.352 78.2363C512.039 77.9316 511.631 77.7793 511.127 77.7793C510.623 77.7793 510.207 77.9336 509.879 78.2422C509.551 78.5508 509.355 78.957 509.293 79.4609ZM514.572 76.9531H515.674L516.934 81.1777L517.057 81.7285L517.186 81.1777L518.545 76.9531H519.43L520.789 81.1777L520.918 81.7285L521.041 81.1777L522.301 76.9531H523.402L521.48 83H520.438L518.973 78.6816L517.496 83H516.488L514.572 76.9531ZM527 83V74.5977H529.484C530.324 74.5977 530.992 74.8379 531.488 75.3184C531.984 75.791 532.232 76.4121 532.232 77.1816C532.232 77.9434 531.984 78.5586 531.488 79.0273C531 79.4922 530.332 79.7246 529.484 79.7246H528.09V83H527ZM528.09 78.7051H529.484C529.988 78.7051 530.387 78.5703 530.68 78.3008C530.977 78.0273 531.125 77.6543 531.125 77.1816C531.125 76.7012 530.975 76.3203 530.674 76.0391C530.377 75.7578 529.98 75.6172 529.484 75.6172H528.09V78.7051ZM533.504 83V76.9531H534.43L534.5 78.0078C534.621 77.6797 534.838 77.4121 535.15 77.2051C535.467 76.998 535.854 76.8945 536.311 76.8945V77.9258C535.814 77.9258 535.406 78.0723 535.086 78.3652C534.734 78.6855 534.551 79.1621 534.535 79.7949V83H533.504ZM537.752 82.2441C537.186 81.6504 536.902 80.8945 536.902 79.9766C536.902 79.0547 537.186 78.2988 537.752 77.709C538.33 77.1152 539.07 76.8184 539.973 76.8184C540.867 76.8184 541.6 77.1152 542.17 77.709C542.744 78.2949 543.031 79.0508 543.031 79.9766C543.031 80.9023 542.744 81.6582 542.17 82.2441C541.604 82.8379 540.871 83.1348 539.973 83.1348C539.07 83.1348 538.33 82.8379 537.752 82.2441ZM537.969 79.9766C537.969 80.6094 538.152 81.1348 538.52 81.5527C538.887 81.9668 539.375 82.1738 539.984 82.1738C540.578 82.1738 541.055 81.9648 541.414 81.5469C541.781 81.1328 541.965 80.6094 541.965 79.9766C541.965 79.3281 541.781 78.8047 541.414 78.4062C541.055 77.9883 540.578 77.7793 539.984 77.7793C539.375 77.7793 538.887 77.9883 538.52 78.4062C538.152 78.8047 537.969 79.3281 537.969 79.9766ZM544.461 85.5781V76.9531H545.398L545.445 77.8379C545.906 77.1582 546.598 76.8184 547.52 76.8184C548.359 76.8184 549.039 77.1191 549.559 77.7207C550.078 78.3145 550.34 79.0664 550.344 79.9766C550.344 80.8789 550.078 81.6309 549.547 82.2324C549.027 82.834 548.348 83.1348 547.508 83.1348C547.051 83.1348 546.648 83.0488 546.301 82.877C545.953 82.7012 545.688 82.4668 545.504 82.1738V85.5781H544.461ZM545.48 79.9766C545.48 80.6328 545.664 81.1562 546.031 81.5469C546.406 81.9453 546.848 82.1465 547.355 82.1504C547.914 82.1504 548.373 81.9492 548.732 81.5469C549.092 81.1406 549.271 80.6172 549.271 79.9766C549.271 79.3281 549.098 78.8027 548.75 78.4004C548.402 77.9941 547.941 77.791 547.367 77.791C546.848 77.791 546.402 77.9883 546.031 78.3828C545.664 78.7734 545.48 79.2852 545.48 79.918V79.9766ZM552.201 82.2441C551.635 81.6504 551.352 80.8945 551.352 79.9766C551.352 79.0547 551.635 78.2988 552.201 77.709C552.779 77.1152 553.52 76.8184 554.422 76.8184C555.316 76.8184 556.049 77.1152 556.619 77.709C557.193 78.2949 557.48 79.0508 557.48 79.9766C557.48 80.9023 557.193 81.6582 556.619 82.2441C556.053 82.8379 555.32 83.1348 554.422 83.1348C553.52 83.1348 552.779 82.8379 552.201 82.2441ZM552.418 79.9766C552.418 80.6094 552.602 81.1348 552.969 81.5527C553.336 81.9668 553.824 82.1738 554.434 82.1738C555.027 82.1738 555.504 81.9648 555.863 81.5469C556.23 81.1328 556.414 80.6094 556.414 79.9766C556.414 79.3281 556.23 78.8047 555.863 78.4062C555.504 77.9883 555.027 77.7793 554.434 77.7793C553.824 77.7793 553.336 77.9883 552.969 78.4062C552.602 78.8047 552.418 79.3281 552.418 79.9766ZM558.383 81.166H559.438C559.445 81.8379 559.838 82.1738 560.615 82.1738C560.943 82.1738 561.199 82.0996 561.383 81.9512C561.566 81.8027 561.658 81.6035 561.658 81.3535C561.658 81.0957 561.57 80.8984 561.395 80.7617C561.219 80.6211 560.887 80.4961 560.398 80.3867C559.742 80.2344 559.268 80.0254 558.975 79.7598C558.682 79.4941 558.535 79.127 558.535 78.6582C558.535 78.1465 558.713 77.7129 559.068 77.3574C559.428 76.998 559.92 76.8184 560.545 76.8184C561.119 76.8184 561.59 76.9941 561.957 77.3457C562.324 77.6895 562.516 78.1504 562.531 78.7285H561.477C561.469 78.0957 561.148 77.7793 560.516 77.7793C560.219 77.7793 559.99 77.8535 559.83 78.002C559.674 78.1504 559.596 78.3477 559.596 78.5938C559.596 78.832 559.674 79.0117 559.83 79.1328C559.986 79.2539 560.287 79.3672 560.732 79.4727C561.451 79.6406 561.961 79.8633 562.262 80.1406C562.562 80.4141 562.713 80.7949 562.713 81.2832C562.713 81.8496 562.516 82.3008 562.121 82.6367C561.73 82.9688 561.221 83.1348 560.592 83.1348C559.912 83.1348 559.377 82.959 558.986 82.6074C558.6 82.252 558.398 81.7715 558.383 81.166ZM563.762 81.4297C563.762 80.4766 564.326 79.8926 565.455 79.6777L567.301 79.3262V79.0273C567.301 78.1953 566.93 77.7793 566.188 77.7793C565.82 77.7793 565.521 77.877 565.291 78.0723C565.064 78.2676 564.951 78.5391 564.951 78.8867H563.932C563.947 78.3008 564.162 77.8086 564.576 77.4102C564.994 77.0156 565.531 76.8184 566.188 76.8184C566.867 76.8184 567.396 77.0078 567.775 77.3867C568.158 77.7617 568.35 78.2969 568.35 78.9922V83H567.412L567.365 82.1738C567.197 82.4707 566.953 82.7051 566.633 82.877C566.312 83.0488 565.943 83.1348 565.525 83.1348C564.99 83.1348 564.562 82.9805 564.242 82.6719C563.922 82.3633 563.762 81.9492 563.762 81.4297ZM564.805 81.418C564.805 81.6562 564.885 81.8418 565.045 81.9746C565.205 82.1074 565.434 82.1738 565.73 82.1738C566.258 82.1738 566.666 81.9727 566.955 81.5703C567.186 81.2539 567.301 80.8828 567.301 80.457V80.2285L565.648 80.5859C565.367 80.6562 565.156 80.7539 565.016 80.8789C564.875 81.0039 564.805 81.1836 564.805 81.418ZM570.09 83V74.2402H571.121V83H570.09ZM572.779 82.3906C572.779 82.1758 572.852 81.998 572.996 81.8574C573.141 81.7168 573.32 81.6465 573.535 81.6465C573.75 81.6465 573.932 81.7168 574.08 81.8574C574.229 81.998 574.303 82.1758 574.303 82.3906C574.303 82.5977 574.229 82.7734 574.08 82.918C573.932 83.0625 573.75 83.1348 573.535 83.1348C573.328 83.1348 573.15 83.0625 573.002 82.918C572.854 82.7734 572.779 82.5977 572.779 82.3906ZM573.02 80.5977V74.5977H574.051V80.5977H573.02Z" fill="white"/>
<circle cx="488" cy="79" r="4" fill="#53C1FF"/>
<path d="M587.002 77.7951C587.45 78.2162 587.47 79.0119 587.043 79.4547L582.726 83.9395L578.206 78.8443L582.467 73.5306L587.002 77.7951Z" fill="#1C1C25"/>
</g>
<defs>
<filter id="filter0_d" x="0" y="0" width="729" height="554" filterUnits="userSpaceOnUse" color-interpolation-filters="sRGB">
<feFlood flood-opacity="0" result="BackgroundImageFix"/>
<feColorMatrix in="SourceAlpha" type="matrix" values="0 0 0 0 0 0 0 0 0 0 0 0 0 0 0 0 0 0 127 0"/>
<feOffset dy="12"/>
<feGaussianBlur stdDeviation="25"/>
<feColorMatrix type="matrix" values="0 0 0 0 0.0352941 0 0 0 0 0.0509804 0 0 0 0 0.0705882 0 0 0 0.2 0"/>
<feBlend mode="normal" in2="BackgroundImageFix" result="effect1_dropShadow"/>
<feBlend mode="normal" in="SourceGraphic" in2="effect1_dropShadow" result="shape"/>
</filter>
<filter id="filter1_f" x="562" y="24" width="117" height="113" filterUnits="userSpaceOnUse" color-interpolation-filters="sRGB">
<feFlood flood-opacity="0" result="BackgroundImageFix"/>
<feBlend mode="normal" in="SourceGraphic" in2="BackgroundImageFix" result="shape"/>
<feGaussianBlur stdDeviation="15" result="effect1_foregroundBlur"/>
</filter>
<filter id="filter2_d" x="316" y="37" width="295.862" height="96" filterUnits="userSpaceOnUse" color-interpolation-filters="sRGB">
<feFlood flood-opacity="0" result="BackgroundImageFix"/>
<feColorMatrix in="SourceAlpha" type="matrix" values="0 0 0 0 0 0 0 0 0 0 0 0 0 0 0 0 0 0 127 0"/>
<feOffset dy="6"/>
<feGaussianBlur stdDeviation="10"/>
<feColorMatrix type="matrix" values="0 0 0 0 0.0352941 0 0 0 0 0.0509804 0 0 0 0 0.0705882 0 0 0 0.2 0"/>
<feBlend mode="normal" in2="BackgroundImageFix" result="effect1_dropShadow"/>
<feBlend mode="normal" in="SourceGraphic" in2="effect1_dropShadow" result="shape"/>
</filter>
<linearGradient id="paint0_linear" x1="411" y1="297" x2="411" y2="446.312" gradientUnits="userSpaceOnUse">
<stop stop-color="white" stop-opacity="0"/>
<stop offset="1" stop-color="white"/>
</linearGradient>
<linearGradient id="paint1_linear" x1="649" y1="57.7266" x2="601.626" y2="110.448" gradientUnits="userSpaceOnUse">
<stop stop-color="#79E0E8"/>
<stop offset="0.2451" stop-color="#BF8E60"/>
<stop offset="0.5155" stop-color="#D69FCC"/>
<stop offset="0.7896" stop-color="#6086D1"/>
<stop offset="1" stop-color="#B37DBA"/>
</linearGradient>
</defs>
</svg>
