<svg width="44" height="35" viewBox="0 0 44 35" fill="none" xmlns="http://www.w3.org/2000/svg">
<path d="M43.391 4.14063C41.7789 4.85561 40.0683 5.32471 38.3168 5.53232C40.1618 4.42841 41.5424 2.69131 42.2014 0.644771C40.4672 1.67482 38.5693 2.39999 36.59 2.78874C35.3775 1.49726 33.8047 0.599958 32.0759 0.213221C30.3473 -0.17354 28.5422 -0.0318886 26.8949 0.619792C25.2475 1.27147 23.8342 2.40311 22.838 3.86791C21.8418 5.33271 21.3086 7.06309 21.3078 8.83457C21.3071 9.51232 21.3834 10.1879 21.5355 10.8484C18.0227 10.6724 14.5862 9.75962 11.4491 8.16941C8.3119 6.57918 5.54423 4.34701 3.32567 1.61783C2.19598 3.5628 1.84985 5.86516 2.35771 8.05633C2.86558 10.2475 4.18929 12.1629 6.05943 13.4126C4.6563 13.369 3.28396 12.9903 2.05716 12.3081V12.4196C2.05743 14.4594 2.76323 16.4366 4.05487 18.0153C5.34652 19.5942 7.14451 20.6775 9.14387 21.0818C8.38531 21.2888 7.60241 21.3929 6.81614 21.3917C6.25815 21.3917 5.70136 21.3395 5.15304 21.2361C5.71766 22.991 6.81651 24.5259 8.29603 25.6257C9.77552 26.7257 11.5617 27.3358 13.405 27.371C9.70017 30.272 4.9969 31.5871 0.324707 31.0282C4.36394 33.625 9.06554 35.0036 13.8675 34.9994C17.1749 35.0221 20.4536 34.3876 23.5136 33.1323C26.5737 31.8772 29.3536 30.0263 31.6925 27.6877C34.0311 25.3491 35.8817 22.569 37.1371 19.509C38.3921 16.4491 39.0268 13.1702 39.0042 9.86283C39.0042 9.47954 38.9951 9.09861 38.9771 8.72007C40.7086 7.4677 42.2034 5.91701 43.391 4.14063Z" fill="url(#paint0_linear)"/>
<defs>
<linearGradient id="paint0_linear" x1="0.324707" y1="0" x2="45.2976" y2="2.65054" gradientUnits="userSpaceOnUse">
<stop stop-color="#8C8C8C"/>
<stop offset="1" stop-color="#B0B0B0"/>
</linearGradient>
</defs>
</svg>
