<svg width="45" height="35" viewBox="0 0 45 35" fill="none" xmlns="http://www.w3.org/2000/svg">
<path d="M44.0331 4.14063C42.421 4.85561 40.7104 5.32471 38.9589 5.53232C40.8039 4.42841 42.1845 2.69131 42.8435 0.644771C41.1093 1.67482 39.2114 2.39999 37.2321 2.78874C36.0196 1.49726 34.4468 0.599958 32.718 0.213221C30.9894 -0.17354 29.1843 -0.0318886 27.537 0.619792C25.8896 1.27147 24.4763 2.40311 23.4801 3.86791C22.4839 5.33271 21.9506 7.06309 21.9499 8.83457C21.9492 9.51232 22.0255 10.1879 22.1775 10.8484C18.6648 10.6724 15.2283 9.75962 12.0911 8.16941C8.95399 6.57918 6.18632 4.34701 3.96776 1.61783C2.83807 3.5628 2.49194 5.86516 2.9998 8.05633C3.50767 10.2475 4.83138 12.1629 6.70152 13.4126C5.29839 13.369 3.92605 12.9903 2.69925 12.3081V12.4196C2.69952 14.4594 3.40532 16.4366 4.69696 18.0153C5.98861 19.5942 7.7866 20.6775 9.78596 21.0818C9.0274 21.2888 8.2445 21.3929 7.45823 21.3917C6.90024 21.3917 6.34345 21.3395 5.79513 21.2361C6.35975 22.991 7.4586 24.5259 8.93812 25.6257C10.4176 26.7257 12.2038 27.3358 14.0471 27.371C10.3423 30.272 5.63899 31.5871 0.966797 31.0282C5.00603 33.625 9.70763 35.0036 14.5096 34.9994C17.817 35.0221 21.0957 34.3876 24.1557 33.1323C27.2158 31.8772 29.9957 30.0263 32.3346 27.6877C34.6732 25.3491 36.5238 22.569 37.7792 19.509C39.0342 16.4491 39.6689 13.1702 39.6463 9.86283C39.6463 9.47954 39.6372 9.09861 39.6192 8.72007C41.3507 7.4677 42.8455 5.91701 44.0331 4.14063Z" fill="#1093F2"/>
</svg>
