<?xml version="1.0" standalone="no"?><!DOCTYPE svg PUBLIC "-//W3C//DTD SVG 1.1//EN" "http://www.w3.org/Graphics/SVG/1.1/DTD/svg11.dtd" ><svg version="1.1" xmlns="http://www.w3.org/2000/svg"><defs><font horiz-adv-x="0" id="font"><font-face ascent="750" bbox="-188 -201 893 893" cap-height="614" descent="-250" font-family="Copyright Klim Type Foundry" font-stretch="normal" font-style="normal" font-weight="400" units-per-em="1000" x-height="444" /><missing-glyph horiz-adv-x="608" /><glyph d="M362 516 213 254H413ZM462 0 426 186H174L68 0H-14L341 614H416L540 0Z" glyph-name="A" horiz-adv-x="596" unicode="A" /><glyph d="M501 554 268 254H448ZM403 0 436 186H215L71 0H-14L461 614H893L880 544H576L542 350H817L804 280H530L493 71H797L785 0Z" glyph-name="AE" horiz-adv-x="870" unicode="&#198;" /><glyph d="M718 668H639L739 785H829ZM501 554 268 254H448ZM403 0 436 186H215L71 0H-14L461 614H893L880 544H576L542 350H817L804 280H530L493 71H797L785 0Z" glyph-name="AEacute" horiz-adv-x="870" unicode="&#508;" /><glyph d="M362 516 213 254H413ZM462 0 426 186H174L68 0H-14L341 614H416L540 0ZM422 668H343L443 785H533Z" glyph-name="Aacute" horiz-adv-x="596" unicode="&#193;" /><glyph d="M362 516 213 254H413ZM462 0 426 186H174L68 0H-14L341 614H416L540 0ZM388 666Q364 666 344 674Q324 682 310.5 697Q297 712 291.5 735Q286 758 291 786H348Q345 770 347 758Q349 746 355.5 738Q362 730 372 726Q382 722 395 722Q408 722 419.5 726Q431 730 440 738Q449 746 455.5 758Q462 770 465 786H522Q517 757 505.5 734.5Q494 712 477 697Q460 682 437.5 674Q415 666 388 666Z" glyph-name="Abreve" horiz-adv-x="596" unicode="&#258;" /><glyph d="M362 516 213 254H413ZM462 0 426 186H174L68 0H-14L341 614H416L540 0ZM439 791 510 669H445L398 740L328 669H256L370 791Z" glyph-name="Acircumflex" horiz-adv-x="596" unicode="&#194;" /><glyph d="M362 516 213 254H413ZM462 0 426 186H174L68 0H-14L341 614H416L540 0ZM420 722Q420 732 423.5 740Q427 748 433 754.5Q439 761 447.5 764.5Q456 768 465 768Q475 768 483.5 764.5Q492 761 498.5 754.5Q505 748 508.5 740Q512 732 512 722Q512 712 508.5 704Q505 696 498.5 689.5Q492 683 483.5 679.5Q475 676 465 676Q456 676 447.5 679.5Q439 683 433 689.5Q427 696 423.5 704Q420 712 420 722ZM279 722Q279 732 282.5 740Q286 748 292.5 754.5Q299 761 307.5 764.5Q316 768 326 768Q335 768 343.5 764.5Q352 761 358.5 754.5Q365 748 368.5 740Q372 732 372 722Q372 712 368.5 704Q365 696 358.5 689.5Q352 683 343.5 679.5Q335 676 326 676Q316 676 307.5 679.5Q299 683 292.5 689.5Q286 696 282.5 704Q279 712 279 722Z" glyph-name="Adieresis" horiz-adv-x="596" unicode="&#196;" /><glyph d="M362 516 213 254H413ZM462 0 426 186H174L68 0H-14L341 614H416L540 0ZM424 668H353L282 785H364Z" glyph-name="Agrave" horiz-adv-x="596" unicode="&#192;" /><glyph d="M362 516 213 254H413ZM462 0 426 186H174L68 0H-14L341 614H416L540 0ZM278 671 289 732H503L492 671Z" glyph-name="Amacron" horiz-adv-x="596" unicode="&#256;" /><glyph d="M341 614H416L540 0Q496 -58 488 -70Q480 -82 476 -92.5Q472 -103 472 -113Q472 -118 473 -121.5Q474 -125 476.5 -127.5Q479 -130 482.5 -131Q486 -132 490 -132Q495 -132 499.5 -131Q504 -130 508.5 -128.5Q513 -127 518 -124Q523 -121 530 -117L521 -167Q515 -171 508.5 -174.5Q502 -178 495 -180.5Q488 -183 481 -184.5Q474 -186 466 -186Q453 -186 442.5 -182.5Q432 -179 424.5 -172Q417 -165 413.5 -155.5Q410 -146 410 -134Q410 -117 415.5 -101Q421 -85 431 -70Q441 -55 484 0H462L426 186H174L68 0H-14ZM362 516 212 254H413Z" glyph-name="Aogonek" horiz-adv-x="596" unicode="&#260;" /><glyph d="M362 516 213 254H413ZM462 0 426 186H174L68 0H-14L341 614H416L540 0ZM394 648Q376 648 360.5 654Q345 660 334 671.5Q323 683 316.5 698Q310 713 310 730Q310 748 317 764.5Q324 781 336.5 794Q349 807 365.5 814Q382 821 401 821Q419 821 434.5 814.5Q450 808 461 797Q472 786 478.5 770.5Q485 755 485 738Q485 720 478 704Q471 688 458.5 675Q446 662 429.5 655Q413 648 394 648ZM396 689Q405 689 413.5 692.5Q422 696 428.5 702Q435 708 439 717Q443 726 443 736Q443 745 439.5 753Q436 761 430.5 767Q425 773 417 776.5Q409 780 400 780Q391 780 382 776.5Q373 773 366.5 766.5Q360 760 356 751.5Q352 743 352 732Q352 723 355.5 715Q359 707 365 701.5Q371 696 379 692.5Q387 689 396 689Z" glyph-name="Aring" horiz-adv-x="596" unicode="&#197;" /><glyph d="M449 807H376L449 893H534ZM391 636Q373 636 357.5 641.5Q342 647 331 656.5Q320 666 313.5 679Q307 692 307 707Q307 722 314 736Q321 750 333.5 761Q346 772 362.5 778Q379 784 398 784Q415 784 430.5 779Q446 774 457 764Q468 754 474.5 741.5Q481 729 481 714Q481 698 474 684Q467 670 455 659Q443 648 426.5 642Q410 636 391 636ZM393 674Q402 674 410.5 676.5Q419 679 425.5 684Q432 689 435.5 696Q439 703 439 712Q439 720 435.5 726.5Q432 733 426.5 737.5Q421 742 413 744.5Q405 747 396 747Q387 747 378.5 744.5Q370 742 363.5 737Q357 732 353 724.5Q349 717 349 708Q349 701 352.5 694.5Q356 688 362 683.5Q368 679 376 676.5Q384 674 393 674ZM362 516 213 254H413ZM462 0 426 186H174L68 0H-14L341 614H416L540 0Z" glyph-name="Aringacute" horiz-adv-x="596" unicode="&#506;" /><glyph d="M362 516 213 254H413ZM462 0 426 186H174L68 0H-14L341 614H416L540 0ZM488 785H538Q533 758 524.5 736.5Q516 715 504 699.5Q492 684 476 675.5Q460 667 442 667Q427 667 415 674.5Q403 682 389.5 697Q376 712 368.5 718.5Q361 725 350 725Q342 725 335 721Q328 717 322.5 710Q317 703 313 693Q309 683 306 670H256Q261 696 269.5 718Q278 740 290 755.5Q302 771 318 779.5Q334 788 352 788Q367 788 379 780.5Q391 773 405 758Q419 743 426.5 736.5Q434 730 444 730Q452 730 459 734Q466 738 471.5 745Q477 752 481 762Q485 772 488 785Z" glyph-name="Atilde" horiz-adv-x="596" unicode="&#195;" /><glyph d="M408 315Q428 309 444.5 298Q461 287 472.5 271.5Q484 256 490 236Q496 216 496 194Q496 148 478 111.5Q460 75 428 50Q396 25 353 12.5Q310 0 260 0H39L147 614H349Q391 614 424 604.5Q457 595 479 577Q501 559 512.5 533Q524 507 524 473Q524 442 514.5 415.5Q505 389 488.5 369Q472 349 451.5 335.5Q431 322 408 315ZM176 347H301Q334 347 361 354Q388 361 407 376Q426 391 436.5 413Q447 435 447 464Q447 485 440 500Q433 515 419.5 525Q406 535 385 540Q364 545 336 545H211ZM164 281 127 69H272Q306 69 333 78Q360 87 379.5 103.5Q399 120 409 143Q419 166 419 194Q419 214 412 230.5Q405 247 391.5 258Q378 269 357.5 275Q337 281 310 281Z" glyph-name="B" horiz-adv-x="538" unicode="B" /><glyph d="M470 117 455 30Q440 21 423 13.5Q406 6 387.5 1Q369 -4 349 -6.5Q329 -9 308 -9Q251 -9 203.5 10Q156 29 122 65Q88 101 69.5 151.5Q51 202 51 263Q51 338 76 404Q101 470 146 519Q191 568 251 595.5Q311 623 379 623Q406 623 431 619Q456 615 477.5 607.5Q499 600 517 589.5Q535 579 549 567L535 485Q519 502 500.5 514.5Q482 527 462.5 535.5Q443 544 422 548Q401 552 379 552Q326 552 280 530.5Q234 509 200.5 469.5Q167 430 148.5 377Q130 324 130 263Q130 219 143 182Q156 145 179.5 118Q203 91 236 76.5Q269 62 308 62Q332 62 353 65.5Q374 69 394 75.5Q414 82 432.5 92.5Q451 103 470 117Z" glyph-name="C" horiz-adv-x="540" unicode="C" /><glyph d="M470 117 455 30Q440 21 423 13.5Q406 6 387.5 1Q369 -4 349 -6.5Q329 -9 308 -9Q251 -9 203.5 10Q156 29 122 65Q88 101 69.5 151.5Q51 202 51 263Q51 338 76 404Q101 470 146 519Q191 568 251 595.5Q311 623 379 623Q406 623 431 619Q456 615 477.5 607.5Q499 600 517 589.5Q535 579 549 567L535 485Q519 502 500.5 514.5Q482 527 462.5 535.5Q443 544 422 548Q401 552 379 552Q326 552 280 530.5Q234 509 200.5 469.5Q167 430 148.5 377Q130 324 130 263Q130 219 143 182Q156 145 179.5 118Q203 91 236 76.5Q269 62 308 62Q332 62 353 65.5Q374 69 394 75.5Q414 82 432.5 92.5Q451 103 470 117ZM434 668H355L455 785H545Z" glyph-name="Cacute" horiz-adv-x="540" unicode="&#262;" /><glyph d="M470 117 455 30Q440 21 423 13.5Q406 6 387.5 1Q369 -4 349 -6.5Q329 -9 308 -9Q251 -9 203.5 10Q156 29 122 65Q88 101 69.5 151.5Q51 202 51 263Q51 338 76 404Q101 470 146 519Q191 568 251 595.5Q311 623 379 623Q406 623 431 619Q456 615 477.5 607.5Q499 600 517 589.5Q535 579 549 567L535 485Q519 502 500.5 514.5Q482 527 462.5 535.5Q443 544 422 548Q401 552 379 552Q326 552 280 530.5Q234 509 200.5 469.5Q167 430 148.5 377Q130 324 130 263Q130 219 143 182Q156 145 179.5 118Q203 91 236 76.5Q269 62 308 62Q332 62 353 65.5Q374 69 394 75.5Q414 82 432.5 92.5Q451 103 470 117ZM367 666 296 787H361L408 716L478 787H550L436 666Z" glyph-name="Ccaron" horiz-adv-x="540" unicode="&#268;" /><glyph d="M470 117 455 30Q440 21 423 13.5Q406 6 387.5 1Q369 -4 349 -6.5Q329 -9 308 -9Q251 -9 203.5 10Q156 29 122 65Q88 101 69.5 151.5Q51 202 51 263Q51 338 76 404Q101 470 146 519Q191 568 251 595.5Q311 623 379 623Q406 623 431 619Q456 615 477.5 607.5Q499 600 517 589.5Q535 579 549 567L535 485Q519 502 500.5 514.5Q482 527 462.5 535.5Q443 544 422 548Q401 552 379 552Q326 552 280 530.5Q234 509 200.5 469.5Q167 430 148.5 377Q130 324 130 263Q130 219 143 182Q156 145 179.5 118Q203 91 236 76.5Q269 62 308 62Q332 62 353 65.5Q374 69 394 75.5Q414 82 432.5 92.5Q451 103 470 117ZM225 -183H150L239 -51H317Z" glyph-name="Ccedilla" horiz-adv-x="540" unicode="&#199;" /><glyph d="M470 117 455 30Q440 21 423 13.5Q406 6 387.5 1Q369 -4 349 -6.5Q329 -9 308 -9Q251 -9 203.5 10Q156 29 122 65Q88 101 69.5 151.5Q51 202 51 263Q51 338 76 404Q101 470 146 519Q191 568 251 595.5Q311 623 379 623Q406 623 431 619Q456 615 477.5 607.5Q499 600 517 589.5Q535 579 549 567L535 485Q519 502 500.5 514.5Q482 527 462.5 535.5Q443 544 422 548Q401 552 379 552Q326 552 280 530.5Q234 509 200.5 469.5Q167 430 148.5 377Q130 324 130 263Q130 219 143 182Q156 145 179.5 118Q203 91 236 76.5Q269 62 308 62Q332 62 353 65.5Q374 69 394 75.5Q414 82 432.5 92.5Q451 103 470 117ZM453 791 524 669H459L412 740L342 669H270L384 791Z" glyph-name="Ccircumflex" horiz-adv-x="540" unicode="&#264;" /><glyph d="M457 721Q457 711 453 702.5Q449 694 442.5 687.5Q436 681 427.5 677Q419 673 409 673Q399 673 390.5 677Q382 681 375.5 687.5Q369 694 365 702.5Q361 711 361 721Q361 731 365 740Q369 749 375.5 755.5Q382 762 390.5 766Q399 770 409 770Q419 770 427.5 766Q436 762 442.5 755.5Q449 749 453 740Q457 731 457 721ZM470 117 455 30Q440 21 423 13.5Q406 6 387.5 1Q369 -4 349 -6.5Q329 -9 308 -9Q251 -9 203.5 10Q156 29 122 65Q88 101 69.5 151.5Q51 202 51 263Q51 338 76 404Q101 470 146 519Q191 568 251 595.5Q311 623 379 623Q406 623 431 619Q456 615 477.5 607.5Q499 600 517 589.5Q535 579 549 567L535 485Q519 502 500.5 514.5Q482 527 462.5 535.5Q443 544 422 548Q401 552 379 552Q326 552 280 530.5Q234 509 200.5 469.5Q167 430 148.5 377Q130 324 130 263Q130 219 143 182Q156 145 179.5 118Q203 91 236 76.5Q269 62 308 62Q332 62 353 65.5Q374 69 394 75.5Q414 82 432.5 92.5Q451 103 470 117Z" glyph-name="Cdotaccent" horiz-adv-x="540" unicode="&#266;" /><glyph d="M39 0 147 614H334Q395 614 442.5 596.5Q490 579 522.5 545.5Q555 512 571.5 464Q588 416 588 356Q588 281 563 216Q538 151 491 102Q444 53 379 26.5Q314 0 237 0ZM129 71H247Q305 71 353.5 92Q402 113 437 151Q472 189 490.5 241.5Q509 294 509 356Q509 400 497.5 434.5Q486 469 462.5 493.5Q439 518 404.5 531Q370 544 324 544H213Z" glyph-name="D" horiz-adv-x="608" unicode="D" /><glyph d="M327 666 256 787H321L368 716L438 787H510L396 666ZM39 0 147 614H334Q395 614 442.5 596.5Q490 579 522.5 545.5Q555 512 571.5 464Q588 416 588 356Q588 281 563 216Q538 151 491 102Q444 53 379 26.5Q314 0 237 0ZM129 71H247Q305 71 353.5 92Q402 113 437 151Q472 189 490.5 241.5Q509 294 509 356Q509 400 497.5 434.5Q486 469 462.5 493.5Q439 518 404.5 531Q370 544 324 544H213Z" glyph-name="Dcaron" horiz-adv-x="608" unicode="&#270;" /><glyph d="M250 0H52L102 284H45L56 351H114L160 614H347Q408 614 455.5 596.5Q503 579 535.5 545.5Q568 512 584.5 464Q601 416 601 356Q601 281 576 216Q551 151 504 102Q457 53 392 26.5Q327 0 250 0ZM142 71H260Q318 71 366.5 92Q415 113 450 151Q485 189 503.5 241.5Q522 294 522 356Q522 400 510.5 434.5Q499 469 475.5 493.5Q452 518 417.5 531Q383 544 337 544H226L192 351H314L303 284H180Z" glyph-name="Dcroat" horiz-adv-x="621" unicode="&#272;" /><glyph d="M147 614H538L525 544H211L177 350H462L450 280H165L128 71H442L430 0H39Z" glyph-name="E" horiz-adv-x="515" unicode="E" /><glyph d="M388 668H309L409 785H499ZM147 614H538L525 544H211L177 350H462L450 280H165L128 71H442L430 0H39Z" glyph-name="Eacute" horiz-adv-x="515" unicode="&#201;" /><glyph d="M357 666Q333 666 313 674Q293 682 279.5 697Q266 712 260.5 735Q255 758 260 786H317Q314 770 316 758Q318 746 324.5 738Q331 730 341 726Q351 722 364 722Q377 722 388.5 726Q400 730 409 738Q418 746 424.5 758Q431 770 434 786H491Q486 757 474.5 734.5Q463 712 446 697Q429 682 406.5 674Q384 666 357 666ZM147 614H538L525 544H211L177 350H462L450 280H165L128 71H442L430 0H39Z" glyph-name="Ebreve" horiz-adv-x="515" unicode="&#276;" /><glyph d="M321 666 250 787H315L362 716L432 787H504L390 666ZM147 614H538L525 544H211L177 350H462L450 280H165L128 71H442L430 0H39Z" glyph-name="Ecaron" horiz-adv-x="515" unicode="&#282;" /><glyph d="M147 614H538L525 544H211L177 350H462L450 280H165L128 71H442L430 0H39ZM407 791 478 669H413L366 740L296 669H224L338 791Z" glyph-name="Ecircumflex" horiz-adv-x="515" unicode="&#202;" /><glyph d="M388 722Q388 732 391.5 740Q395 748 401 754.5Q407 761 415.5 764.5Q424 768 433 768Q443 768 451.5 764.5Q460 761 466.5 754.5Q473 748 476.5 740Q480 732 480 722Q480 712 476.5 704Q473 696 466.5 689.5Q460 683 451.5 679.5Q443 676 433 676Q424 676 415.5 679.5Q407 683 401 689.5Q395 696 391.5 704Q388 712 388 722ZM247 722Q247 732 250.5 740Q254 748 260.5 754.5Q267 761 275.5 764.5Q284 768 294 768Q303 768 311.5 764.5Q320 761 326.5 754.5Q333 748 336.5 740Q340 732 340 722Q340 712 336.5 704Q333 696 326.5 689.5Q320 683 311.5 679.5Q303 676 294 676Q284 676 275.5 679.5Q267 683 260.5 689.5Q254 696 250.5 704Q247 712 247 722ZM147 614H538L525 544H211L177 350H462L450 280H165L128 71H442L430 0H39Z" glyph-name="Edieresis" horiz-adv-x="515" unicode="&#203;" /><glyph d="M411 721Q411 711 407 702.5Q403 694 396.5 687.5Q390 681 381.5 677Q373 673 363 673Q353 673 344.5 677Q336 681 329.5 687.5Q323 694 319 702.5Q315 711 315 721Q315 731 319 740Q323 749 329.5 755.5Q336 762 344.5 766Q353 770 363 770Q373 770 381.5 766Q390 762 396.5 755.5Q403 749 407 740Q411 731 411 721ZM147 614H538L525 544H211L177 350H462L450 280H165L128 71H442L430 0H39Z" glyph-name="Edotaccent" horiz-adv-x="515" unicode="&#278;" /><glyph d="M391 668H320L249 785H331ZM147 614H538L525 544H211L177 350H462L450 280H165L128 71H442L430 0H39Z" glyph-name="Egrave" horiz-adv-x="515" unicode="&#200;" /><glyph d="M248 671 259 732H473L462 671ZM147 614H538L525 544H211L177 350H462L450 280H165L128 71H442L430 0H39Z" glyph-name="Emacron" horiz-adv-x="515" unicode="&#274;" /><glyph d="M442 29 201 498 114 0H39L147 614H221L464 137L548 614H624L520 23Q510 -32 492 -71.5Q474 -111 448 -136.5Q422 -162 388 -174.5Q354 -187 312 -187Q296 -187 281 -184.5Q266 -182 253 -177.5Q240 -173 229.5 -167.5Q219 -162 209 -156L223 -80Q233 -88 244 -94.5Q255 -101 266 -105.5Q277 -110 289.5 -112Q302 -114 316 -114Q344 -114 364.5 -105.5Q385 -97 400 -80Q415 -63 425 -36Q435 -9 442 29Z" glyph-name="Eng" horiz-adv-x="623" unicode="&#330;" /><glyph d="M147 614H538L525 544H211L177 350H462L450 280H165L128 71H442L430 0H391Q382 -12 366 -33Q348 -58 340 -70Q332 -82 327.5 -92.5Q323 -103 323 -113Q323 -118 324 -121.5Q325 -125 327.5 -127.5Q330 -130 333.5 -131Q337 -132 341 -132Q346 -132 350.5 -131Q355 -130 359.5 -128Q364 -126 369.5 -123.5Q375 -121 381 -117L372 -167Q366 -171 359.5 -174.5Q353 -178 346.5 -180.5Q340 -183 333 -184.5Q326 -186 318 -186Q304 -186 293.5 -182.5Q283 -179 276 -172Q269 -165 265.5 -155.5Q262 -146 262 -134Q262 -117 268 -100.5Q274 -84 284 -68Q293 -53 335 0H39Z" glyph-name="Eogonek" horiz-adv-x="515" unicode="&#280;" /><glyph d="M250 0H52L102 284H45L56 351H114L160 614H347Q408 614 455.5 596.5Q503 579 535.5 545.5Q568 512 584.5 464Q601 416 601 356Q601 281 576 216Q551 151 504 102Q457 53 392 26.5Q327 0 250 0ZM142 71H260Q318 71 366.5 92Q415 113 450 151Q485 189 503.5 241.5Q522 294 522 356Q522 400 510.5 434.5Q499 469 475.5 493.5Q452 518 417.5 531Q383 544 337 544H226L192 351H314L303 284H180Z" glyph-name="Eth" horiz-adv-x="621" unicode="&#208;" /><glyph d="M438 25Q425 17 409.5 10.5Q394 4 377.5 -0.5Q361 -5 343 -7Q325 -9 306 -9Q260 -9 222 6Q184 21 156 49.5Q128 78 110.5 118.5Q93 159 89 210H23L34 270H87Q88 281 88.5 289.5Q89 298 90 306Q91 314 92.5 322.5Q94 331 96 339H46L56 399H112Q129 449 157 490Q185 531 221 561Q257 591 299.5 607Q342 623 387 623Q410 623 431.5 619.5Q453 616 472 609Q491 602 507 592.5Q523 583 535 572L520 490Q506 506 491 518Q476 530 459 538Q442 546 423.5 550Q405 554 385 554Q352 554 322.5 543Q293 532 267.5 511.5Q242 491 222 462.5Q202 434 188 399H401L378 339H170Q168 330 167 322Q166 314 165 305Q164 296 163 287.5Q162 279 162 270H356L333 210H163Q167 175 178.5 147Q190 119 208.5 99.5Q227 80 252 70Q277 60 307 60Q330 60 349 62.5Q368 65 385 71Q402 77 419 86.5Q436 96 454 110Z" glyph-name="Euro" horiz-adv-x="497" unicode="&#8364;" /><glyph d="M441 25Q428 17 412.5 10.5Q397 4 380.5 -0.5Q364 -5 346 -7Q328 -9 309 -9Q263 -9 225 6Q187 21 159 49.5Q131 78 113.5 118.5Q96 159 92 210H26L37 270H90Q91 281 91.5 289.5Q92 298 93 306Q94 314 95.5 322.5Q97 331 99 339H49L59 399H115Q132 449 160 490Q188 531 224 561Q260 591 302.5 607Q345 623 390 623Q413 623 434.5 619.5Q456 616 475 609Q494 602 510 592.5Q526 583 538 572L523 490Q509 506 494 518Q479 530 462 538Q445 546 426.5 550Q408 554 388 554Q355 554 325.5 543Q296 532 270.5 511.5Q245 491 225 462.5Q205 434 191 399H404L381 339H173Q171 330 170 322Q169 314 168 305Q167 296 166 287.5Q165 279 165 270H359L336 210H166Q170 175 181.5 147Q193 119 211.5 99.5Q230 80 255 70Q280 60 310 60Q333 60 352 62.5Q371 65 388 71Q405 77 422 86.5Q439 96 457 110Z" glyph-name="Euro.lt" horiz-adv-x="520" /><glyph d="M117 0H39L147 614H521L509 544H213L176 337H454L442 267H164Z" glyph-name="F" horiz-adv-x="485" unicode="F" /><glyph d="M306 -9Q249 -9 202 10.5Q155 30 121 66.5Q87 103 69 153.5Q51 204 51 263Q51 337 76 403Q101 469 146 518.5Q191 568 251 595.5Q311 623 379 623Q409 623 436 619Q463 615 486.5 607Q510 599 530.5 588.5Q551 578 567 565L553 482Q537 499 517 512Q497 525 475 534Q453 543 429 547.5Q405 552 379 552Q327 552 281.5 531Q236 510 202 471Q168 432 149 378.5Q130 325 130 263Q130 219 142 182Q154 145 177.5 118Q201 91 233.5 76Q266 61 306 61Q327 61 345.5 63Q364 65 381.5 70Q399 75 416 83Q433 91 449 103L476 253H342L353 319H561L517 72Q495 50 469.5 34.5Q444 19 417.5 9.5Q391 0 363 -4.5Q335 -9 306 -9Z" glyph-name="G" horiz-adv-x="593" unicode="G" /><glyph d="M408 666Q384 666 364 674Q344 682 330.5 697Q317 712 311.5 735Q306 758 311 786H368Q365 770 367 758Q369 746 375.5 738Q382 730 392 726Q402 722 415 722Q428 722 439.5 726Q451 730 460 738Q469 746 475.5 758Q482 770 485 786H542Q537 757 525.5 734.5Q514 712 497 697Q480 682 457.5 674Q435 666 408 666ZM306 -9Q249 -9 202 10.5Q155 30 121 66.5Q87 103 69 153.5Q51 204 51 263Q51 337 76 403Q101 469 146 518.5Q191 568 251 595.5Q311 623 379 623Q409 623 436 619Q463 615 486.5 607Q510 599 530.5 588.5Q551 578 567 565L553 482Q537 499 517 512Q497 525 475 534Q453 543 429 547.5Q405 552 379 552Q327 552 281.5 531Q236 510 202 471Q168 432 149 378.5Q130 325 130 263Q130 219 142 182Q154 145 177.5 118Q201 91 233.5 76Q266 61 306 61Q327 61 345.5 63Q364 65 381.5 70Q399 75 416 83Q433 91 449 103L476 253H342L353 319H561L517 72Q495 50 469.5 34.5Q444 19 417.5 9.5Q391 0 363 -4.5Q335 -9 306 -9Z" glyph-name="Gbreve" horiz-adv-x="593" unicode="&#286;" /><glyph d="M306 -9Q249 -9 202 10.5Q155 30 121 66.5Q87 103 69 153.5Q51 204 51 263Q51 337 76 403Q101 469 146 518.5Q191 568 251 595.5Q311 623 379 623Q409 623 436 619Q463 615 486.5 607Q510 599 530.5 588.5Q551 578 567 565L553 482Q537 499 517 512Q497 525 475 534Q453 543 429 547.5Q405 552 379 552Q327 552 281.5 531Q236 510 202 471Q168 432 149 378.5Q130 325 130 263Q130 219 142 182Q154 145 177.5 118Q201 91 233.5 76Q266 61 306 61Q327 61 345.5 63Q364 65 381.5 70Q399 75 416 83Q433 91 449 103L476 253H342L353 319H561L517 72Q495 50 469.5 34.5Q444 19 417.5 9.5Q391 0 363 -4.5Q335 -9 306 -9ZM458 791 529 669H464L417 740L347 669H275L389 791Z" glyph-name="Gcircumflex" horiz-adv-x="593" unicode="&#284;" /><glyph d="M209 -201 255 -139Q247 -137 241 -133Q235 -129 230.5 -123.5Q226 -118 223.5 -110.5Q221 -103 221 -95Q221 -84 224.5 -75Q228 -66 235 -59Q242 -52 251 -48.5Q260 -45 270 -45Q280 -45 289 -48.5Q298 -52 305 -59Q312 -66 315.5 -75.5Q319 -85 319 -97Q319 -105 317 -112.5Q315 -120 311.5 -127.5Q308 -135 303.5 -142Q299 -149 294 -155L260 -201ZM306 -9Q249 -9 202 10.5Q155 30 121 66.5Q87 103 69 153.5Q51 204 51 263Q51 337 76 403Q101 469 146 518.5Q191 568 251 595.5Q311 623 379 623Q409 623 436 619Q463 615 486.5 607Q510 599 530.5 588.5Q551 578 567 565L553 482Q537 499 517 512Q497 525 475 534Q453 543 429 547.5Q405 552 379 552Q327 552 281.5 531Q236 510 202 471Q168 432 149 378.5Q130 325 130 263Q130 219 142 182Q154 145 177.5 118Q201 91 233.5 76Q266 61 306 61Q327 61 345.5 63Q364 65 381.5 70Q399 75 416 83Q433 91 449 103L476 253H342L353 319H561L517 72Q495 50 469.5 34.5Q444 19 417.5 9.5Q391 0 363 -4.5Q335 -9 306 -9Z" glyph-name="Gcommaaccent" horiz-adv-x="593" unicode="&#290;" /><glyph d="M463 721Q463 711 459 702.5Q455 694 448.5 687.5Q442 681 433.5 677Q425 673 415 673Q405 673 396.5 677Q388 681 381.5 687.5Q375 694 371 702.5Q367 711 367 721Q367 731 371 740Q375 749 381.5 755.5Q388 762 396.5 766Q405 770 415 770Q425 770 433.5 766Q442 762 448.5 755.5Q455 749 459 740Q463 731 463 721ZM306 -9Q249 -9 202 10.5Q155 30 121 66.5Q87 103 69 153.5Q51 204 51 263Q51 337 76 403Q101 469 146 518.5Q191 568 251 595.5Q311 623 379 623Q409 623 436 619Q463 615 486.5 607Q510 599 530.5 588.5Q551 578 567 565L553 482Q537 499 517 512Q497 525 475 534Q453 543 429 547.5Q405 552 379 552Q327 552 281.5 531Q236 510 202 471Q168 432 149 378.5Q130 325 130 263Q130 219 142 182Q154 145 177.5 118Q201 91 233.5 76Q266 61 306 61Q327 61 345.5 63Q364 65 381.5 70Q399 75 416 83Q433 91 449 103L476 253H342L353 319H561L517 72Q495 50 469.5 34.5Q444 19 417.5 9.5Q391 0 363 -4.5Q335 -9 306 -9Z" glyph-name="Gdotaccent" horiz-adv-x="593" unicode="&#288;" /><glyph d="M573 614H651L543 0H465L514 280H166L117 0H39L147 614H225L178 351H526Z" glyph-name="H" horiz-adv-x="651" unicode="H" /><glyph d="M187 321H534L553 430H206ZM175 256 130 0H52L128 430H71L82 496H139L160 614H238L217 496H565L586 614H665L644 496H701L689 430H633L557 0H478L523 256Z" glyph-name="Hbar" horiz-adv-x="679" unicode="&#294;" /><glyph glyph-name="Hcaron" horiz-adv-x="0" /><glyph d="M573 614H651L543 0H465L514 280H166L117 0H39L147 614H225L178 351H526ZM462 791 533 669H468L421 740L351 669H279L393 791Z" glyph-name="Hcircumflex" horiz-adv-x="651" unicode="&#292;" /><glyph d="M225 614 117 0H39L147 614Z" glyph-name="I" horiz-adv-x="225" unicode="I" /><glyph d="M225 614 117 0H39L147 614ZM192 28 206 108Q219 97 232 89Q245 81 259 75Q273 69 288.5 66Q304 63 320 63Q347 63 367.5 71Q388 79 403 95.5Q418 112 428.5 138.5Q439 165 446 204L519 614H597L524 201Q514 146 496 106Q478 66 451.5 40.5Q425 15 390 3Q355 -9 311 -9Q293 -9 275 -6Q257 -3 241.5 2.5Q226 8 213.5 14.5Q201 21 192 28Z" glyph-name="IJ" horiz-adv-x="586" unicode="&#306;" /><glyph d="M225 614 117 0H39L147 614ZM230 668H151L251 785H341Z" glyph-name="Iacute" horiz-adv-x="225" unicode="&#205;" /><glyph d="M225 614 117 0H39L147 614ZM198 666Q174 666 154 674Q134 682 120.5 697Q107 712 101.5 735Q96 758 101 786H158Q155 770 157 758Q159 746 165.5 738Q172 730 182 726Q192 722 205 722Q218 722 229.5 726Q241 730 250 738Q259 746 265.5 758Q272 770 275 786H332Q327 757 315.5 734.5Q304 712 287 697Q270 682 247.5 674Q225 666 198 666Z" glyph-name="Ibreve" horiz-adv-x="225" unicode="&#300;" /><glyph d="M225 614 117 0H39L147 614ZM249 791 320 669H255L208 740L138 669H66L180 791Z" glyph-name="Icircumflex" horiz-adv-x="225" unicode="&#206;" /><glyph d="M225 614 117 0H39L147 614ZM229 722Q229 732 232.5 740Q236 748 242 754.5Q248 761 256.5 764.5Q265 768 274 768Q284 768 292.5 764.5Q301 761 307.5 754.5Q314 748 317.5 740Q321 732 321 722Q321 712 317.5 704Q314 696 307.5 689.5Q301 683 292.5 679.5Q284 676 274 676Q265 676 256.5 679.5Q248 683 242 689.5Q236 696 232.5 704Q229 712 229 722ZM88 722Q88 732 91.5 740Q95 748 101.5 754.5Q108 761 116.5 764.5Q125 768 135 768Q144 768 152.5 764.5Q161 761 167.5 754.5Q174 748 177.5 740Q181 732 181 722Q181 712 177.5 704Q174 696 167.5 689.5Q161 683 152.5 679.5Q144 676 135 676Q125 676 116.5 679.5Q108 683 101.5 689.5Q95 696 91.5 704Q88 712 88 722Z" glyph-name="Idieresis" horiz-adv-x="225" unicode="&#207;" /><glyph d="M225 614 117 0H39L147 614ZM253 721Q253 711 249 702.5Q245 694 238.5 687.5Q232 681 223.5 677Q215 673 205 673Q195 673 186.5 677Q178 681 171.5 687.5Q165 694 161 702.5Q157 711 157 721Q157 731 161 740Q165 749 171.5 755.5Q178 762 186.5 766Q195 770 205 770Q215 770 223.5 766Q232 762 238.5 755.5Q245 749 249 740Q253 731 253 721Z" glyph-name="Idotaccent" horiz-adv-x="225" unicode="&#304;" /><glyph d="M225 614 117 0H39L147 614ZM232 668H161L90 785H172Z" glyph-name="Igrave" horiz-adv-x="225" unicode="&#204;" /><glyph d="M225 614 117 0H39L147 614ZM89 671 100 732H314L303 671Z" glyph-name="Imacron" horiz-adv-x="225" unicode="&#298;" /><glyph d="M225 614 117 0Q113 -5 93 -32Q73 -59 65 -70.5Q57 -82 53 -92.5Q49 -103 49 -113Q49 -118 50 -121.5Q51 -125 53.5 -127.5Q56 -130 59 -131Q62 -132 67 -132Q72 -132 76.5 -131Q81 -130 85.5 -128.5Q90 -127 95 -124Q100 -121 107 -117L98 -167Q92 -171 85.5 -174.5Q79 -178 72 -180.5Q65 -183 58 -184.5Q51 -186 43 -186Q30 -186 19.5 -182.5Q9 -179 1.5 -172Q-6 -165 -9.5 -155.5Q-13 -146 -13 -134Q-13 -117 -7.5 -101Q-2 -85 8 -70Q18 -55 61 0H39L147 614Z" glyph-name="Iogonek" horiz-adv-x="225" unicode="&#302;" /><glyph d="M225 614 117 0H39L147 614ZM297 785H347Q342 758 333.5 736.5Q325 715 313 699.5Q301 684 285 675.5Q269 667 251 667Q236 667 224 674.5Q212 682 198.5 697Q185 712 177.5 718.5Q170 725 159 725Q151 725 144 721Q137 717 131.5 710Q126 703 122 693Q118 683 115 670H65Q70 696 78.5 718Q87 740 99 755.5Q111 771 127 779.5Q143 788 161 788Q176 788 188 780.5Q200 773 214 758Q228 743 235.5 736.5Q243 730 253 730Q261 730 268 734Q275 738 280.5 745Q286 752 290 762Q294 772 297 785Z" glyph-name="Itilde" horiz-adv-x="225" unicode="&#296;" /><glyph d="M-3 28 11 108Q24 97 37 89Q50 81 64 75Q78 69 93.5 66Q109 63 125 63Q152 63 172.5 71Q193 79 208 95.5Q223 112 233.5 138.5Q244 165 251 204L324 614H402L329 201Q319 146 301 106Q283 66 256.5 40.5Q230 15 195 3Q160 -9 116 -9Q98 -9 80 -6Q62 -3 46.5 2.5Q31 8 18.5 14.5Q6 21 -3 28Z" glyph-name="J" horiz-adv-x="391" unicode="J" /><glyph d="M-3 28 11 108Q24 97 37 89Q50 81 64 75Q78 69 93.5 66Q109 63 125 63Q152 63 172.5 71Q193 79 208 95.5Q223 112 233.5 138.5Q244 165 251 204L324 614H402L329 201Q319 146 301 106Q283 66 256.5 40.5Q230 15 195 3Q160 -9 116 -9Q98 -9 80 -6Q62 -3 46.5 2.5Q31 8 18.5 14.5Q6 21 -3 28ZM426 791 497 669H432L385 740L315 669H243L357 791Z" glyph-name="Jcircumflex" horiz-adv-x="391" unicode="&#308;" /><glyph d="M225 614 177 341 497 614H602L245 314L504 0H408L168 289L117 0H39L147 614Z" glyph-name="K" horiz-adv-x="555" unicode="K" /><glyph d="M165 -201 211 -139Q203 -137 197 -133Q191 -129 186.5 -123.5Q182 -118 179.5 -110.5Q177 -103 177 -95Q177 -84 180.5 -75Q184 -66 191 -59Q198 -52 207 -48.5Q216 -45 226 -45Q236 -45 245 -48.5Q254 -52 261 -59Q268 -66 271.5 -75.5Q275 -85 275 -97Q275 -105 273 -112.5Q271 -120 267.5 -127.5Q264 -135 259.5 -142Q255 -149 250 -155L216 -201ZM225 614 177 341 497 614H602L245 314L504 0H408L168 289L117 0H39L147 614Z" glyph-name="Kcommaaccent" horiz-adv-x="555" unicode="&#310;" /><glyph d="M39 0 147 614H225L129 71H443L431 0Z" glyph-name="L" horiz-adv-x="504" unicode="L" /><glyph d="M242 668H163L263 785H353ZM39 0 147 614H225L129 71H443L431 0Z" glyph-name="Lacute" horiz-adv-x="504" unicode="&#313;" /><glyph d="M391 450H328L405 614H469ZM39 0 147 614H225L129 71H443L431 0Z" glyph-name="Lcaron" horiz-adv-x="504" unicode="&#317;" /><glyph d="M161 -201 207 -139Q199 -137 193 -133Q187 -129 182.5 -123.5Q178 -118 175.5 -110.5Q173 -103 173 -95Q173 -84 176.5 -75Q180 -66 187 -59Q194 -52 203 -48.5Q212 -45 222 -45Q232 -45 241 -48.5Q250 -52 257 -59Q264 -66 267.5 -75.5Q271 -85 271 -97Q271 -105 269 -112.5Q267 -120 263.5 -127.5Q260 -135 255.5 -142Q251 -149 246 -155L212 -201ZM39 0 147 614H225L129 71H443L431 0Z" glyph-name="Lcommaaccent" horiz-adv-x="504" unicode="&#315;" /><glyph d="M39 0 147 614H225L129 71H443L431 0ZM435 309Q435 299 431 290.5Q427 282 420.5 275.5Q414 269 405.5 265Q397 261 387 261Q377 261 368.5 265Q360 269 353.5 275.5Q347 282 343 290.5Q339 299 339 309Q339 319 343 328Q347 337 353.5 343.5Q360 350 368.5 353.5Q377 357 387 357Q397 357 405.5 353.5Q414 350 420.5 343.5Q427 337 431 328Q435 319 435 309Z" glyph-name="Ldot" horiz-adv-x="504" unicode="&#319;" /><glyph d="M444 0H52L96 249L34 224L47 299L109 322L160 614H238L192 352L339 410L325 336L178 277L142 71H456Z" glyph-name="Lslash" horiz-adv-x="517" unicode="&#321;" /><glyph d="M354 137H350L199 477L116 0H39L147 614H215L371 258L653 614H723L615 0H539L621 471Z" glyph-name="M" horiz-adv-x="723" unicode="M" /><glyph d="M624 614 516 0H457L201 498L114 0H39L147 614H221L464 137L548 614Z" glyph-name="N" horiz-adv-x="623" unicode="N" /><glyph glyph-name="NULL" horiz-adv-x="0" /><glyph d="M429 668H350L450 785H540ZM624 614 516 0H457L201 498L114 0H39L147 614H221L464 137L548 614Z" glyph-name="Nacute" horiz-adv-x="623" unicode="&#323;" /><glyph d="M362 666 291 787H356L403 716L473 787H545L431 666ZM624 614 516 0H457L201 498L114 0H39L147 614H221L464 137L548 614Z" glyph-name="Ncaron" horiz-adv-x="623" unicode="&#327;" /><glyph d="M199 -201 245 -139Q237 -137 231 -133Q225 -129 220.5 -123.5Q216 -118 213.5 -110.5Q211 -103 211 -95Q211 -84 214.5 -75Q218 -66 225 -59Q232 -52 241 -48.5Q250 -45 260 -45Q270 -45 279 -48.5Q288 -52 295 -59Q302 -66 305.5 -75.5Q309 -85 309 -97Q309 -105 307 -112.5Q305 -120 301.5 -127.5Q298 -135 293.5 -142Q289 -149 284 -155L250 -201ZM624 614 516 0H457L201 498L114 0H39L147 614H221L464 137L548 614Z" glyph-name="Ncommaaccent" horiz-adv-x="623" unicode="&#325;" /><glyph d="M496 785H546Q541 758 532.5 736.5Q524 715 512 699.5Q500 684 484 675.5Q468 667 450 667Q435 667 423 674.5Q411 682 397.5 697Q384 712 376.5 718.5Q369 725 358 725Q350 725 343 721Q336 717 330.5 710Q325 703 321 693Q317 683 314 670H264Q269 696 277.5 718Q286 740 298 755.5Q310 771 326 779.5Q342 788 360 788Q375 788 387 780.5Q399 773 413 758Q427 743 434.5 736.5Q442 730 452 730Q460 730 467 734Q474 738 479.5 745Q485 752 489 762Q493 772 496 785ZM624 614 516 0H457L201 498L114 0H39L147 614H221L464 137L548 614Z" glyph-name="Ntilde" horiz-adv-x="623" unicode="&#209;" /><glyph d="M299 -9Q244 -9 198 10.5Q152 30 119 66.5Q86 103 68 154Q50 205 50 265Q50 337 73 402Q96 467 138.5 517Q181 567 238 595Q295 623 361 623Q416 623 461.5 603.5Q507 584 540.5 547.5Q574 511 591.5 460Q609 409 609 349Q609 277 586 212Q563 147 521 97Q479 47 422 19Q365 -9 299 -9ZM299 62Q349 62 391.5 84Q434 106 465 145.5Q496 185 513 237.5Q530 290 530 349Q530 392 518.5 429Q507 466 485 494Q463 522 431.5 537Q400 552 361 552Q311 552 268 530Q225 508 194 468.5Q163 429 146.5 376.5Q130 324 130 265Q130 222 141.5 185Q153 148 175 120Q197 92 228.5 77Q260 62 299 62Z" glyph-name="O" horiz-adv-x="629" unicode="O" /><glyph d="M856 614 844 544H540L505 350H780L768 280H493L456 71H760L748 0H305Q244 0 196 17.5Q148 35 115.5 68.5Q83 102 66.5 150Q50 198 50 258Q50 333 75.5 398Q101 463 148 512Q195 561 260 587.5Q325 614 402 614ZM130 258Q130 214 141.5 179.5Q153 145 176.5 120.5Q200 96 234.5 83Q269 70 315 70H379L462 543H392Q333 543 284.5 522Q236 501 201.5 463Q167 425 148.5 372.5Q130 320 130 258Z" glyph-name="OE" horiz-adv-x="833" unicode="&#338;" /><glyph d="M425 668H346L446 785H536ZM299 -9Q244 -9 198 10.5Q152 30 119 66.5Q86 103 68 154Q50 205 50 265Q50 337 73 402Q96 467 138.5 517Q181 567 238 595Q295 623 361 623Q416 623 461.5 603.5Q507 584 540.5 547.5Q574 511 591.5 460Q609 409 609 349Q609 277 586 212Q563 147 521 97Q479 47 422 19Q365 -9 299 -9ZM299 62Q349 62 391.5 84Q434 106 465 145.5Q496 185 513 237.5Q530 290 530 349Q530 392 518.5 429Q507 466 485 494Q463 522 431.5 537Q400 552 361 552Q311 552 268 530Q225 508 194 468.5Q163 429 146.5 376.5Q130 324 130 265Q130 222 141.5 185Q153 148 175 120Q197 92 228.5 77Q260 62 299 62Z" glyph-name="Oacute" horiz-adv-x="629" unicode="&#211;" /><glyph d="M394 666Q370 666 350 674Q330 682 316.5 697Q303 712 297.5 735Q292 758 297 786H354Q351 770 353 758Q355 746 361.5 738Q368 730 378 726Q388 722 401 722Q414 722 425.5 726Q437 730 446 738Q455 746 461.5 758Q468 770 471 786H528Q523 757 511.5 734.5Q500 712 483 697Q466 682 443.5 674Q421 666 394 666ZM299 -9Q244 -9 198 10.5Q152 30 119 66.5Q86 103 68 154Q50 205 50 265Q50 337 73 402Q96 467 138.5 517Q181 567 238 595Q295 623 361 623Q416 623 461.5 603.5Q507 584 540.5 547.5Q574 511 591.5 460Q609 409 609 349Q609 277 586 212Q563 147 521 97Q479 47 422 19Q365 -9 299 -9ZM299 62Q349 62 391.5 84Q434 106 465 145.5Q496 185 513 237.5Q530 290 530 349Q530 392 518.5 429Q507 466 485 494Q463 522 431.5 537Q400 552 361 552Q311 552 268 530Q225 508 194 468.5Q163 429 146.5 376.5Q130 324 130 265Q130 222 141.5 185Q153 148 175 120Q197 92 228.5 77Q260 62 299 62Z" glyph-name="Obreve" horiz-adv-x="629" unicode="&#334;" /><glyph d="M299 -9Q244 -9 198 10.5Q152 30 119 66.5Q86 103 68 154Q50 205 50 265Q50 337 73 402Q96 467 138.5 517Q181 567 238 595Q295 623 361 623Q416 623 461.5 603.5Q507 584 540.5 547.5Q574 511 591.5 460Q609 409 609 349Q609 277 586 212Q563 147 521 97Q479 47 422 19Q365 -9 299 -9ZM299 62Q349 62 391.5 84Q434 106 465 145.5Q496 185 513 237.5Q530 290 530 349Q530 392 518.5 429Q507 466 485 494Q463 522 431.5 537Q400 552 361 552Q311 552 268 530Q225 508 194 468.5Q163 429 146.5 376.5Q130 324 130 265Q130 222 141.5 185Q153 148 175 120Q197 92 228.5 77Q260 62 299 62ZM444 791 515 669H450L403 740L333 669H261L375 791Z" glyph-name="Ocircumflex" horiz-adv-x="629" unicode="&#212;" /><glyph d="M425 722Q425 732 428.5 740Q432 748 438 754.5Q444 761 452.5 764.5Q461 768 470 768Q480 768 488.5 764.5Q497 761 503.5 754.5Q510 748 513.5 740Q517 732 517 722Q517 712 513.5 704Q510 696 503.5 689.5Q497 683 488.5 679.5Q480 676 470 676Q461 676 452.5 679.5Q444 683 438 689.5Q432 696 428.5 704Q425 712 425 722ZM284 722Q284 732 287.5 740Q291 748 297.5 754.5Q304 761 312.5 764.5Q321 768 331 768Q340 768 348.5 764.5Q357 761 363.5 754.5Q370 748 373.5 740Q377 732 377 722Q377 712 373.5 704Q370 696 363.5 689.5Q357 683 348.5 679.5Q340 676 331 676Q321 676 312.5 679.5Q304 683 297.5 689.5Q291 696 287.5 704Q284 712 284 722ZM299 -9Q244 -9 198 10.5Q152 30 119 66.5Q86 103 68 154Q50 205 50 265Q50 337 73 402Q96 467 138.5 517Q181 567 238 595Q295 623 361 623Q416 623 461.5 603.5Q507 584 540.5 547.5Q574 511 591.5 460Q609 409 609 349Q609 277 586 212Q563 147 521 97Q479 47 422 19Q365 -9 299 -9ZM299 62Q349 62 391.5 84Q434 106 465 145.5Q496 185 513 237.5Q530 290 530 349Q530 392 518.5 429Q507 466 485 494Q463 522 431.5 537Q400 552 361 552Q311 552 268 530Q225 508 194 468.5Q163 429 146.5 376.5Q130 324 130 265Q130 222 141.5 185Q153 148 175 120Q197 92 228.5 77Q260 62 299 62Z" glyph-name="Odieresis" horiz-adv-x="629" unicode="&#214;" /><glyph d="M427 668H356L285 785H367ZM299 -9Q244 -9 198 10.5Q152 30 119 66.5Q86 103 68 154Q50 205 50 265Q50 337 73 402Q96 467 138.5 517Q181 567 238 595Q295 623 361 623Q416 623 461.5 603.5Q507 584 540.5 547.5Q574 511 591.5 460Q609 409 609 349Q609 277 586 212Q563 147 521 97Q479 47 422 19Q365 -9 299 -9ZM299 62Q349 62 391.5 84Q434 106 465 145.5Q496 185 513 237.5Q530 290 530 349Q530 392 518.5 429Q507 466 485 494Q463 522 431.5 537Q400 552 361 552Q311 552 268 530Q225 508 194 468.5Q163 429 146.5 376.5Q130 324 130 265Q130 222 141.5 185Q153 148 175 120Q197 92 228.5 77Q260 62 299 62Z" glyph-name="Ograve" horiz-adv-x="629" unicode="&#210;" /><glyph d="M299 -9Q244 -9 198 10.5Q152 30 119 66.5Q86 103 68 154Q50 205 50 265Q50 337 73 402Q96 467 138.5 517Q181 567 238 595Q295 623 361 623Q416 623 461.5 603.5Q507 584 540.5 547.5Q574 511 591.5 460Q609 409 609 349Q609 277 586 212Q563 147 521 97Q479 47 422 19Q365 -9 299 -9ZM299 62Q349 62 391.5 84Q434 106 465 145.5Q496 185 513 237.5Q530 290 530 349Q530 392 518.5 429Q507 466 485 494Q463 522 431.5 537Q400 552 361 552Q311 552 268 530Q225 508 194 468.5Q163 429 146.5 376.5Q130 324 130 265Q130 222 141.5 185Q153 148 175 120Q197 92 228.5 77Q260 62 299 62ZM483 668H415L502 785H571ZM355 668H287L374 785H444Z" glyph-name="Ohungarumlaut" horiz-adv-x="629" unicode="&#336;" /><glyph d="M284 671 295 732H509L498 671ZM299 -9Q244 -9 198 10.5Q152 30 119 66.5Q86 103 68 154Q50 205 50 265Q50 337 73 402Q96 467 138.5 517Q181 567 238 595Q295 623 361 623Q416 623 461.5 603.5Q507 584 540.5 547.5Q574 511 591.5 460Q609 409 609 349Q609 277 586 212Q563 147 521 97Q479 47 422 19Q365 -9 299 -9ZM299 62Q349 62 391.5 84Q434 106 465 145.5Q496 185 513 237.5Q530 290 530 349Q530 392 518.5 429Q507 466 485 494Q463 522 431.5 537Q400 552 361 552Q311 552 268 530Q225 508 194 468.5Q163 429 146.5 376.5Q130 324 130 265Q130 222 141.5 185Q153 148 175 120Q197 92 228.5 77Q260 62 299 62Z" glyph-name="Omacron" horiz-adv-x="629" unicode="&#332;" /><glyph d="M135 265Q135 248 136.5 232Q138 216 141.5 201Q145 186 150 172.5Q155 159 162 147L475 511Q464 521 452 528.5Q440 536 426.5 541.5Q413 547 397.5 549.5Q382 552 366 552Q316 552 273 530Q230 508 199 468.5Q168 429 151.5 376.5Q135 324 135 265ZM304 62Q354 62 396.5 84Q439 106 470 145.5Q501 185 518 237.5Q535 290 535 349Q535 365 533.5 381Q532 397 528.5 411.5Q525 426 520 439.5Q515 453 509 465L197 101Q208 92 220 84.5Q232 77 245 72Q258 67 273 64.5Q288 62 304 62ZM304 -9Q281 -9 260 -5.5Q239 -2 219 4.5Q199 11 181.5 21Q164 31 148 44L98 -15L52 18L109 85Q96 102 86 122.5Q76 143 69 165.5Q62 188 58.5 213Q55 238 55 265Q55 337 78 402Q101 467 143.5 517Q186 567 243 595Q300 623 366 623Q389 623 410.5 619.5Q432 616 452 609Q472 602 490 591.5Q508 581 524 568L571 623L616 590L562 527Q574 510 584 490Q594 470 600.5 447.5Q607 425 610.5 400Q614 375 614 349Q614 277 591 212Q568 147 526 97Q484 47 427 19Q370 -9 304 -9Z" glyph-name="Oslash" horiz-adv-x="639" unicode="&#216;" /><glyph d="M135 265Q135 248 136.5 232Q138 216 141.5 201Q145 186 150 172.5Q155 159 162 147L475 511Q464 521 452 528.5Q440 536 426.5 541.5Q413 547 397.5 549.5Q382 552 366 552Q316 552 273 530Q230 508 199 468.5Q168 429 151.5 376.5Q135 324 135 265ZM304 62Q354 62 396.5 84Q439 106 470 145.5Q501 185 518 237.5Q535 290 535 349Q535 365 533.5 381Q532 397 528.5 411.5Q525 426 520 439.5Q515 453 509 465L197 101Q208 92 220 84.5Q232 77 245 72Q258 67 273 64.5Q288 62 304 62ZM304 -9Q281 -9 260 -5.5Q239 -2 219 4.5Q199 11 181.5 21Q164 31 148 44L98 -15L52 18L109 85Q96 102 86 122.5Q76 143 69 165.5Q62 188 58.5 213Q55 238 55 265Q55 337 78 402Q101 467 143.5 517Q186 567 243 595Q300 623 366 623Q389 623 410.5 619.5Q432 616 452 609Q472 602 490 591.5Q508 581 524 568L571 623L616 590L562 527Q574 510 584 490Q594 470 600.5 447.5Q607 425 610.5 400Q614 375 614 349Q614 277 591 212Q568 147 526 97Q484 47 427 19Q370 -9 304 -9ZM427 668H348L448 785H538Z" glyph-name="Oslashacute" horiz-adv-x="639" unicode="&#510;" /><glyph d="M493 785H543Q538 758 529.5 736.5Q521 715 509 699.5Q497 684 481 675.5Q465 667 447 667Q432 667 420 674.5Q408 682 394.5 697Q381 712 373.5 718.5Q366 725 355 725Q347 725 340 721Q333 717 327.5 710Q322 703 318 693Q314 683 311 670H261Q266 696 274.5 718Q283 740 295 755.5Q307 771 323 779.5Q339 788 357 788Q372 788 384 780.5Q396 773 410 758Q424 743 431.5 736.5Q439 730 449 730Q457 730 464 734Q471 738 476.5 745Q482 752 486 762Q490 772 493 785ZM299 -9Q244 -9 198 10.5Q152 30 119 66.5Q86 103 68 154Q50 205 50 265Q50 337 73 402Q96 467 138.5 517Q181 567 238 595Q295 623 361 623Q416 623 461.5 603.5Q507 584 540.5 547.5Q574 511 591.5 460Q609 409 609 349Q609 277 586 212Q563 147 521 97Q479 47 422 19Q365 -9 299 -9ZM299 62Q349 62 391.5 84Q434 106 465 145.5Q496 185 513 237.5Q530 290 530 349Q530 392 518.5 429Q507 466 485 494Q463 522 431.5 537Q400 552 361 552Q311 552 268 530Q225 508 194 468.5Q163 429 146.5 376.5Q130 324 130 265Q130 222 141.5 185Q153 148 175 120Q197 92 228.5 77Q260 62 299 62Z" glyph-name="Otilde" horiz-adv-x="629" unicode="&#213;" /><glyph d="M311 246H160L117 0H39L147 614H376Q416 614 448 604Q480 594 502.5 573.5Q525 553 536.5 523.5Q548 494 548 456Q548 407 530 367.5Q512 328 480 301Q448 274 404.5 260Q361 246 311 246ZM213 545 172 316H322Q356 316 383.5 325Q411 334 430 351.5Q449 369 459 394.5Q469 420 469 452Q469 474 462.5 491Q456 508 442.5 520Q429 532 408.5 538.5Q388 545 361 545Z" glyph-name="P" horiz-adv-x="537" unicode="P" /><glyph d="M466 -39 429 22Q414 14 399 8.5Q384 3 367.5 -1Q351 -5 334 -7Q317 -9 300 -9Q245 -9 199 10.5Q153 30 120 67Q87 104 69 154.5Q51 205 51 266Q51 338 74 403Q97 468 138.5 517.5Q180 567 237 595Q294 623 360 623Q415 623 461 603.5Q507 584 540 547Q573 510 591 459.5Q609 409 609 348Q609 305 600.5 263.5Q592 222 575.5 184.5Q559 147 535.5 115Q512 83 483 59L521 -3ZM300 62Q313 62 325 63.5Q337 65 348.5 67.5Q360 70 371.5 74Q383 78 393 83L351 152L406 186L446 120Q466 139 481.5 164Q497 189 508 218.5Q519 248 524.5 280.5Q530 313 530 348Q530 391 518 428.5Q506 466 483.5 493.5Q461 521 429.5 536.5Q398 552 360 552Q310 552 267.5 530Q225 508 194 468.5Q163 429 146.5 377Q130 325 130 266Q130 223 142 185.5Q154 148 176.5 120.5Q199 93 230.5 77.5Q262 62 300 62Z" glyph-name="Q" horiz-adv-x="629" unicode="Q" /><glyph d="M213 545 174 327H320Q353 327 380 335.5Q407 344 426 360.5Q445 377 455 401.5Q465 426 465 457Q465 478 458 494Q451 510 437 521.5Q423 533 402.5 539Q382 545 355 545ZM39 0 147 614H364Q407 614 440.5 604Q474 594 497 574.5Q520 555 532 526Q544 497 544 459Q544 417 530.5 383Q517 349 492 324Q467 299 433 284Q399 269 357 263L491 0H407L276 260H162L117 0Z" glyph-name="R" horiz-adv-x="550" unicode="R" /><glyph d="M213 545 174 327H320Q353 327 380 335.5Q407 344 426 360.5Q445 377 455 401.5Q465 426 465 457Q465 478 458 494Q451 510 437 521.5Q423 533 402.5 539Q382 545 355 545ZM39 0 147 614H364Q407 614 440.5 604Q474 594 497 574.5Q520 555 532 526Q544 497 544 459Q544 417 530.5 383Q517 349 492 324Q467 299 433 284Q399 269 357 263L491 0H407L276 260H162L117 0ZM389 668H310L410 785H500Z" glyph-name="Racute" horiz-adv-x="550" unicode="&#340;" /><glyph d="M322 666 251 787H316L363 716L433 787H505L391 666ZM213 545 174 327H320Q353 327 380 335.5Q407 344 426 360.5Q445 377 455 401.5Q465 426 465 457Q465 478 458 494Q451 510 437 521.5Q423 533 402.5 539Q382 545 355 545ZM39 0 147 614H364Q407 614 440.5 604Q474 594 497 574.5Q520 555 532 526Q544 497 544 459Q544 417 530.5 383Q517 349 492 324Q467 299 433 284Q399 269 357 263L491 0H407L276 260H162L117 0Z" glyph-name="Rcaron" horiz-adv-x="550" unicode="&#344;" /><glyph d="M159 -201 205 -139Q197 -137 191 -133Q185 -129 180.5 -123.5Q176 -118 173.5 -110.5Q171 -103 171 -95Q171 -84 174.5 -75Q178 -66 185 -59Q192 -52 201 -48.5Q210 -45 220 -45Q230 -45 239 -48.5Q248 -52 255 -59Q262 -66 265.5 -75.5Q269 -85 269 -97Q269 -105 267 -112.5Q265 -120 261.5 -127.5Q258 -135 253.5 -142Q249 -149 244 -155L210 -201ZM213 545 174 327H320Q353 327 380 335.5Q407 344 426 360.5Q445 377 455 401.5Q465 426 465 457Q465 478 458 494Q451 510 437 521.5Q423 533 402.5 539Q382 545 355 545ZM39 0 147 614H364Q407 614 440.5 604Q474 594 497 574.5Q520 555 532 526Q544 497 544 459Q544 417 530.5 383Q517 349 492 324Q467 299 433 284Q399 269 357 263L491 0H407L276 260H162L117 0Z" glyph-name="Rcommaaccent" horiz-adv-x="550" unicode="&#342;" /><glyph d="M17 55 31 139Q50 120 70.5 105.5Q91 91 113.5 81Q136 71 160 66Q184 61 210 61Q243 61 270 68Q297 75 317.5 89.5Q338 104 349 125Q360 146 360 174Q360 190 355 202.5Q350 215 339.5 225.5Q329 236 314.5 245Q300 254 279 264L196 300Q172 310 152 322.5Q132 335 116.5 351Q101 367 92 389Q83 411 83 439Q83 484 101.5 518.5Q120 553 151 576.5Q182 600 220.5 611.5Q259 623 299 623Q327 623 353 619Q379 615 401 608Q423 601 442 590.5Q461 580 477 567L463 489Q447 504 429 515.5Q411 527 391 536Q371 545 348 549.5Q325 554 299 554Q271 554 246 547.5Q221 541 201 528Q181 515 170 495Q159 475 159 449Q159 434 164.5 422Q170 410 180 400Q190 390 204 382Q218 374 238 365L328 325Q355 313 375.5 299Q396 285 409.5 268Q423 251 430 230.5Q437 210 437 186Q437 140 419.5 103.5Q402 67 371 42Q340 17 298.5 4Q257 -9 210 -9Q178 -9 148.5 -4Q119 1 94.5 10Q70 19 50.5 30.5Q31 42 17 55Z" glyph-name="S" horiz-adv-x="487" unicode="S" /><glyph d="M17 55 31 139Q50 120 70.5 105.5Q91 91 113.5 81Q136 71 160 66Q184 61 210 61Q243 61 270 68Q297 75 317.5 89.5Q338 104 349 125Q360 146 360 174Q360 190 355 202.5Q350 215 339.5 225.5Q329 236 314.5 245Q300 254 279 264L196 300Q172 310 152 322.5Q132 335 116.5 351Q101 367 92 389Q83 411 83 439Q83 484 101.5 518.5Q120 553 151 576.5Q182 600 220.5 611.5Q259 623 299 623Q327 623 353 619Q379 615 401 608Q423 601 442 590.5Q461 580 477 567L463 489Q447 504 429 515.5Q411 527 391 536Q371 545 348 549.5Q325 554 299 554Q271 554 246 547.5Q221 541 201 528Q181 515 170 495Q159 475 159 449Q159 434 164.5 422Q170 410 180 400Q190 390 204 382Q218 374 238 365L328 325Q355 313 375.5 299Q396 285 409.5 268Q423 251 430 230.5Q437 210 437 186Q437 140 419.5 103.5Q402 67 371 42Q340 17 298.5 4Q257 -9 210 -9Q178 -9 148.5 -4Q119 1 94.5 10Q70 19 50.5 30.5Q31 42 17 55ZM361 668H282L382 785H472Z" glyph-name="Sacute" horiz-adv-x="487" unicode="&#346;" /><glyph d="M17 55 31 139Q50 120 70.5 105.5Q91 91 113.5 81Q136 71 160 66Q184 61 210 61Q243 61 270 68Q297 75 317.5 89.5Q338 104 349 125Q360 146 360 174Q360 190 355 202.5Q350 215 339.5 225.5Q329 236 314.5 245Q300 254 279 264L196 300Q172 310 152 322.5Q132 335 116.5 351Q101 367 92 389Q83 411 83 439Q83 484 101.5 518.5Q120 553 151 576.5Q182 600 220.5 611.5Q259 623 299 623Q327 623 353 619Q379 615 401 608Q423 601 442 590.5Q461 580 477 567L463 489Q447 504 429 515.5Q411 527 391 536Q371 545 348 549.5Q325 554 299 554Q271 554 246 547.5Q221 541 201 528Q181 515 170 495Q159 475 159 449Q159 434 164.5 422Q170 410 180 400Q190 390 204 382Q218 374 238 365L328 325Q355 313 375.5 299Q396 285 409.5 268Q423 251 430 230.5Q437 210 437 186Q437 140 419.5 103.5Q402 67 371 42Q340 17 298.5 4Q257 -9 210 -9Q178 -9 148.5 -4Q119 1 94.5 10Q70 19 50.5 30.5Q31 42 17 55ZM294 666 223 787H288L335 716L405 787H477L363 666Z" glyph-name="Scaron" horiz-adv-x="487" unicode="&#352;" /><glyph d="M17 55 31 139Q50 120 70.5 105.5Q91 91 113.5 81Q136 71 160 66Q184 61 210 61Q243 61 270 68Q297 75 317.5 89.5Q338 104 349 125Q360 146 360 174Q360 190 355 202.5Q350 215 339.5 225.5Q329 236 314.5 245Q300 254 279 264L196 300Q172 310 152 322.5Q132 335 116.5 351Q101 367 92 389Q83 411 83 439Q83 484 101.5 518.5Q120 553 151 576.5Q182 600 220.5 611.5Q259 623 299 623Q327 623 353 619Q379 615 401 608Q423 601 442 590.5Q461 580 477 567L463 489Q447 504 429 515.5Q411 527 391 536Q371 545 348 549.5Q325 554 299 554Q271 554 246 547.5Q221 541 201 528Q181 515 170 495Q159 475 159 449Q159 434 164.5 422Q170 410 180 400Q190 390 204 382Q218 374 238 365L328 325Q355 313 375.5 299Q396 285 409.5 268Q423 251 430 230.5Q437 210 437 186Q437 140 419.5 103.5Q402 67 371 42Q340 17 298.5 4Q257 -9 210 -9Q178 -9 148.5 -4Q119 1 94.5 10Q70 19 50.5 30.5Q31 42 17 55ZM140 -183H65L154 -51H232Z" glyph-name="Scedilla" horiz-adv-x="487" unicode="&#350;" /><glyph d="M17 55 31 139Q50 120 70.5 105.5Q91 91 113.5 81Q136 71 160 66Q184 61 210 61Q243 61 270 68Q297 75 317.5 89.5Q338 104 349 125Q360 146 360 174Q360 190 355 202.5Q350 215 339.5 225.5Q329 236 314.5 245Q300 254 279 264L196 300Q172 310 152 322.5Q132 335 116.5 351Q101 367 92 389Q83 411 83 439Q83 484 101.5 518.5Q120 553 151 576.5Q182 600 220.5 611.5Q259 623 299 623Q327 623 353 619Q379 615 401 608Q423 601 442 590.5Q461 580 477 567L463 489Q447 504 429 515.5Q411 527 391 536Q371 545 348 549.5Q325 554 299 554Q271 554 246 547.5Q221 541 201 528Q181 515 170 495Q159 475 159 449Q159 434 164.5 422Q170 410 180 400Q190 390 204 382Q218 374 238 365L328 325Q355 313 375.5 299Q396 285 409.5 268Q423 251 430 230.5Q437 210 437 186Q437 140 419.5 103.5Q402 67 371 42Q340 17 298.5 4Q257 -9 210 -9Q178 -9 148.5 -4Q119 1 94.5 10Q70 19 50.5 30.5Q31 42 17 55ZM380 791 451 669H386L339 740L269 669H197L311 791Z" glyph-name="Scircumflex" horiz-adv-x="487" unicode="&#348;" /><glyph d="M118 -201 164 -139Q156 -137 150 -133Q144 -129 139.5 -123.5Q135 -118 132.5 -110.5Q130 -103 130 -95Q130 -84 133.5 -75Q137 -66 144 -59Q151 -52 160 -48.5Q169 -45 179 -45Q189 -45 198 -48.5Q207 -52 214 -59Q221 -66 224.5 -75.5Q228 -85 228 -97Q228 -105 226 -112.5Q224 -120 220.5 -127.5Q217 -135 212.5 -142Q208 -149 203 -155L169 -201ZM17 55 31 139Q50 120 70.5 105.5Q91 91 113.5 81Q136 71 160 66Q184 61 210 61Q243 61 270 68Q297 75 317.5 89.5Q338 104 349 125Q360 146 360 174Q360 190 355 202.5Q350 215 339.5 225.5Q329 236 314.5 245Q300 254 279 264L196 300Q172 310 152 322.5Q132 335 116.5 351Q101 367 92 389Q83 411 83 439Q83 484 101.5 518.5Q120 553 151 576.5Q182 600 220.5 611.5Q259 623 299 623Q327 623 353 619Q379 615 401 608Q423 601 442 590.5Q461 580 477 567L463 489Q447 504 429 515.5Q411 527 391 536Q371 545 348 549.5Q325 554 299 554Q271 554 246 547.5Q221 541 201 528Q181 515 170 495Q159 475 159 449Q159 434 164.5 422Q170 410 180 400Q190 390 204 382Q218 374 238 365L328 325Q355 313 375.5 299Q396 285 409.5 268Q423 251 430 230.5Q437 210 437 186Q437 140 419.5 103.5Q402 67 371 42Q340 17 298.5 4Q257 -9 210 -9Q178 -9 148.5 -4Q119 1 94.5 10Q70 19 50.5 30.5Q31 42 17 55Z" glyph-name="Scommaaccent" horiz-adv-x="487" unicode="&#536;" /><glyph d="M87 544 100 614H606L594 544H380L284 0H205L301 544Z" glyph-name="T" horiz-adv-x="567" unicode="T" /><glyph d="M448 284H334L284 0H205L255 284H142L154 351H267L301 544H87L100 614H606L594 544H380L346 351H459Z" glyph-name="Tbar" horiz-adv-x="567" unicode="&#358;" /><glyph d="M331 666 260 787H325L372 716L442 787H514L400 666ZM87 544 100 614H606L594 544H380L284 0H205L301 544Z" glyph-name="Tcaron" horiz-adv-x="567" unicode="&#356;" /><glyph d="M167 -201 213 -139Q205 -137 199 -133Q193 -129 188.5 -123.5Q184 -118 181.5 -110.5Q179 -103 179 -95Q179 -84 182.5 -75Q186 -66 193 -59Q200 -52 209 -48.5Q218 -45 228 -45Q238 -45 247 -48.5Q256 -52 263 -59Q270 -66 273.5 -75.5Q277 -85 277 -97Q277 -105 275 -112.5Q273 -120 269.5 -127.5Q266 -135 261.5 -142Q257 -149 252 -155L218 -201ZM87 544 100 614H606L594 544H380L284 0H205L301 544Z" glyph-name="Tcommaaccent" horiz-adv-x="567" unicode="&#354;" /><glyph d="M291 131H140L117 0H39L147 614H225L205 499H355Q395 499 427.5 489Q460 479 482.5 458.5Q505 438 516.5 408.5Q528 379 528 341Q528 292 510 252.5Q492 213 460 186Q428 159 384.5 145Q341 131 291 131ZM193 430 152 200H302Q336 200 363 209.5Q390 219 409.5 236.5Q429 254 439 279.5Q449 305 449 337Q449 359 442.5 376Q436 393 422.5 405Q409 417 388.5 423.5Q368 430 341 430Z" glyph-name="Thorn" horiz-adv-x="537" unicode="&#222;" /><glyph d="M282 -9Q234 -9 194 3.5Q154 16 125 41Q96 66 80 103Q64 140 64 188Q64 195 64.5 202Q65 209 65.5 217Q66 225 67.5 233.5Q69 242 71 253L134 614H213L149 253Q148 246 147 239Q146 232 145.5 225.5Q145 219 144.5 212.5Q144 206 144 200Q144 166 153.5 140Q163 114 181 96.5Q199 79 224.5 70Q250 61 282 61Q321 61 352.5 72.5Q384 84 408 108Q432 132 448.5 168Q465 204 474 253L537 614H616L551 243Q540 181 516.5 134Q493 87 458 55Q423 23 379 7Q335 -9 282 -9Z" glyph-name="U" horiz-adv-x="607" unicode="U" /><glyph d="M415 668H336L436 785H526ZM282 -9Q234 -9 194 3.5Q154 16 125 41Q96 66 80 103Q64 140 64 188Q64 195 64.5 202Q65 209 65.5 217Q66 225 67.5 233.5Q69 242 71 253L134 614H213L149 253Q148 246 147 239Q146 232 145.5 225.5Q145 219 144.5 212.5Q144 206 144 200Q144 166 153.5 140Q163 114 181 96.5Q199 79 224.5 70Q250 61 282 61Q321 61 352.5 72.5Q384 84 408 108Q432 132 448.5 168Q465 204 474 253L537 614H616L551 243Q540 181 516.5 134Q493 87 458 55Q423 23 379 7Q335 -9 282 -9Z" glyph-name="Uacute" horiz-adv-x="607" unicode="&#218;" /><glyph d="M383 666Q359 666 339 674Q319 682 305.5 697Q292 712 286.5 735Q281 758 286 786H343Q340 770 342 758Q344 746 350.5 738Q357 730 367 726Q377 722 390 722Q403 722 414.5 726Q426 730 435 738Q444 746 450.5 758Q457 770 460 786H517Q512 757 500.5 734.5Q489 712 472 697Q455 682 432.5 674Q410 666 383 666ZM282 -9Q234 -9 194 3.5Q154 16 125 41Q96 66 80 103Q64 140 64 188Q64 195 64.5 202Q65 209 65.5 217Q66 225 67.5 233.5Q69 242 71 253L134 614H213L149 253Q148 246 147 239Q146 232 145.5 225.5Q145 219 144.5 212.5Q144 206 144 200Q144 166 153.5 140Q163 114 181 96.5Q199 79 224.5 70Q250 61 282 61Q321 61 352.5 72.5Q384 84 408 108Q432 132 448.5 168Q465 204 474 253L537 614H616L551 243Q540 181 516.5 134Q493 87 458 55Q423 23 379 7Q335 -9 282 -9Z" glyph-name="Ubreve" horiz-adv-x="607" unicode="&#364;" /><glyph d="M282 -9Q234 -9 194 3.5Q154 16 125 41Q96 66 80 103Q64 140 64 188Q64 195 64.5 202Q65 209 65.5 217Q66 225 67.5 233.5Q69 242 71 253L134 614H213L149 253Q148 246 147 239Q146 232 145.5 225.5Q145 219 144.5 212.5Q144 206 144 200Q144 166 153.5 140Q163 114 181 96.5Q199 79 224.5 70Q250 61 282 61Q321 61 352.5 72.5Q384 84 408 108Q432 132 448.5 168Q465 204 474 253L537 614H616L551 243Q540 181 516.5 134Q493 87 458 55Q423 23 379 7Q335 -9 282 -9ZM434 791 505 669H440L393 740L323 669H251L365 791Z" glyph-name="Ucircumflex" horiz-adv-x="607" unicode="&#219;" /><glyph d="M414 722Q414 732 417.5 740Q421 748 427 754.5Q433 761 441.5 764.5Q450 768 459 768Q469 768 477.5 764.5Q486 761 492.5 754.5Q499 748 502.5 740Q506 732 506 722Q506 712 502.5 704Q499 696 492.5 689.5Q486 683 477.5 679.5Q469 676 459 676Q450 676 441.5 679.5Q433 683 427 689.5Q421 696 417.5 704Q414 712 414 722ZM273 722Q273 732 276.5 740Q280 748 286.5 754.5Q293 761 301.5 764.5Q310 768 320 768Q329 768 337.5 764.5Q346 761 352.5 754.5Q359 748 362.5 740Q366 732 366 722Q366 712 362.5 704Q359 696 352.5 689.5Q346 683 337.5 679.5Q329 676 320 676Q310 676 301.5 679.5Q293 683 286.5 689.5Q280 696 276.5 704Q273 712 273 722ZM282 -9Q234 -9 194 3.5Q154 16 125 41Q96 66 80 103Q64 140 64 188Q64 195 64.5 202Q65 209 65.5 217Q66 225 67.5 233.5Q69 242 71 253L134 614H213L149 253Q148 246 147 239Q146 232 145.5 225.5Q145 219 144.5 212.5Q144 206 144 200Q144 166 153.5 140Q163 114 181 96.5Q199 79 224.5 70Q250 61 282 61Q321 61 352.5 72.5Q384 84 408 108Q432 132 448.5 168Q465 204 474 253L537 614H616L551 243Q540 181 516.5 134Q493 87 458 55Q423 23 379 7Q335 -9 282 -9Z" glyph-name="Udieresis" horiz-adv-x="607" unicode="&#220;" /><glyph d="M417 668H346L275 785H357ZM282 -9Q234 -9 194 3.5Q154 16 125 41Q96 66 80 103Q64 140 64 188Q64 195 64.5 202Q65 209 65.5 217Q66 225 67.5 233.5Q69 242 71 253L134 614H213L149 253Q148 246 147 239Q146 232 145.5 225.5Q145 219 144.5 212.5Q144 206 144 200Q144 166 153.5 140Q163 114 181 96.5Q199 79 224.5 70Q250 61 282 61Q321 61 352.5 72.5Q384 84 408 108Q432 132 448.5 168Q465 204 474 253L537 614H616L551 243Q540 181 516.5 134Q493 87 458 55Q423 23 379 7Q335 -9 282 -9Z" glyph-name="Ugrave" horiz-adv-x="607" unicode="&#217;" /><glyph d="M282 -9Q234 -9 194 3.5Q154 16 125 41Q96 66 80 103Q64 140 64 188Q64 195 64.5 202Q65 209 65.5 217Q66 225 67.5 233.5Q69 242 71 253L134 614H213L149 253Q148 246 147 239Q146 232 145.5 225.5Q145 219 144.5 212.5Q144 206 144 200Q144 166 153.5 140Q163 114 181 96.5Q199 79 224.5 70Q250 61 282 61Q321 61 352.5 72.5Q384 84 408 108Q432 132 448.5 168Q465 204 474 253L537 614H616L551 243Q540 181 516.5 134Q493 87 458 55Q423 23 379 7Q335 -9 282 -9ZM470 668H402L489 785H558ZM342 668H274L361 785H431Z" glyph-name="Uhungarumlaut" horiz-adv-x="607" unicode="&#368;" /><glyph d="M274 671 285 732H499L488 671ZM282 -9Q234 -9 194 3.5Q154 16 125 41Q96 66 80 103Q64 140 64 188Q64 195 64.5 202Q65 209 65.5 217Q66 225 67.5 233.5Q69 242 71 253L134 614H213L149 253Q148 246 147 239Q146 232 145.5 225.5Q145 219 144.5 212.5Q144 206 144 200Q144 166 153.5 140Q163 114 181 96.5Q199 79 224.5 70Q250 61 282 61Q321 61 352.5 72.5Q384 84 408 108Q432 132 448.5 168Q465 204 474 253L537 614H616L551 243Q540 181 516.5 134Q493 87 458 55Q423 23 379 7Q335 -9 282 -9Z" glyph-name="Umacron" horiz-adv-x="607" unicode="&#362;" /><glyph d="M282 -9Q234 -9 194 3.5Q154 16 125 41Q96 66 80 103Q64 140 64 188Q64 195 64.5 202Q65 209 65.5 217Q66 225 67.5 233.5Q69 242 71 253L134 614H213L149 253Q148 246 147 239Q146 232 145.5 225.5Q145 219 144.5 212.5Q144 206 144 200Q144 166 153.5 140Q163 114 181 96.5Q199 79 224.5 70Q250 61 282 61Q321 61 352.5 72.5Q384 84 408 108Q432 132 448.5 168Q465 204 474 253L537 614H616L551 243Q544 202 531.5 169Q519 136 502 110Q485 84 465 63Q445 42 419 21Q396 2 377.5 -16.5Q359 -35 346.5 -52.5Q334 -70 328 -85.5Q322 -101 322 -113Q322 -118 323 -121.5Q324 -125 326.5 -127.5Q329 -130 332.5 -131Q336 -132 340 -132Q345 -132 349.5 -131Q354 -130 358.5 -128Q363 -126 368.5 -123.5Q374 -121 380 -117L371 -167Q365 -171 358.5 -174.5Q352 -178 345.5 -180.5Q339 -183 332 -184.5Q325 -186 317 -186Q303 -186 292.5 -182.5Q282 -179 275 -172Q268 -165 264.5 -155.5Q261 -146 261 -134Q261 -118 266 -102Q271 -86 280 -70.5Q289 -55 301 -39.5Q313 -24 330 -5Q324 -6 318.5 -7Q313 -8 307 -8.5Q301 -9 295 -9Q289 -9 282 -9Z" glyph-name="Uogonek" horiz-adv-x="607" unicode="&#370;" /><glyph d="M282 -9Q234 -9 194 3.5Q154 16 125 41Q96 66 80 103Q64 140 64 188Q64 195 64.5 202Q65 209 65.5 217Q66 225 67.5 233.5Q69 242 71 253L134 614H213L149 253Q148 246 147 239Q146 232 145.5 225.5Q145 219 144.5 212.5Q144 206 144 200Q144 166 153.5 140Q163 114 181 96.5Q199 79 224.5 70Q250 61 282 61Q321 61 352.5 72.5Q384 84 408 108Q432 132 448.5 168Q465 204 474 253L537 614H616L551 243Q540 181 516.5 134Q493 87 458 55Q423 23 379 7Q335 -9 282 -9ZM386 648Q368 648 352.5 654Q337 660 326 671.5Q315 683 308.5 698Q302 713 302 730Q302 748 309 764.5Q316 781 328.5 794Q341 807 357.5 814Q374 821 393 821Q411 821 426.5 814.5Q442 808 453 797Q464 786 470.5 770.5Q477 755 477 738Q477 720 470 704Q463 688 450.5 675Q438 662 421.5 655Q405 648 386 648ZM388 689Q397 689 405.5 692.5Q414 696 420.5 702Q427 708 431 717Q435 726 435 736Q435 745 431.5 753Q428 761 422.5 767Q417 773 409 776.5Q401 780 392 780Q383 780 374 776.5Q365 773 358.5 766.5Q352 760 348 751.5Q344 743 344 732Q344 723 347.5 715Q351 707 357 701.5Q363 696 371 692.5Q379 689 388 689Z" glyph-name="Uring" horiz-adv-x="607" unicode="&#366;" /><glyph d="M482 785H532Q527 758 518.5 736.5Q510 715 498 699.5Q486 684 470 675.5Q454 667 436 667Q421 667 409 674.5Q397 682 383.5 697Q370 712 362.5 718.5Q355 725 344 725Q336 725 329 721Q322 717 316.5 710Q311 703 307 693Q303 683 300 670H250Q255 696 263.5 718Q272 740 284 755.5Q296 771 312 779.5Q328 788 346 788Q361 788 373 780.5Q385 773 399 758Q413 743 420.5 736.5Q428 730 438 730Q446 730 453 734Q460 738 465.5 745Q471 752 475 762Q479 772 482 785ZM282 -9Q234 -9 194 3.5Q154 16 125 41Q96 66 80 103Q64 140 64 188Q64 195 64.5 202Q65 209 65.5 217Q66 225 67.5 233.5Q69 242 71 253L134 614H213L149 253Q148 246 147 239Q146 232 145.5 225.5Q145 219 144.5 212.5Q144 206 144 200Q144 166 153.5 140Q163 114 181 96.5Q199 79 224.5 70Q250 61 282 61Q321 61 352.5 72.5Q384 84 408 108Q432 132 448.5 168Q465 204 474 253L537 614H616L551 243Q540 181 516.5 134Q493 87 458 55Q423 23 379 7Q335 -9 282 -9Z" glyph-name="Utilde" horiz-adv-x="607" unicode="&#360;" /><glyph d="M284 0H210L95 614H174L264 104L559 614H643Z" glyph-name="V" horiz-adv-x="590" unicode="V" /><glyph d="M427 614H490L524 126L746 614H823L541 0H469L432 479L209 0H137L95 614H170L201 126Z" glyph-name="W" horiz-adv-x="771" unicode="W" /><glyph d="M502 668H423L523 785H613ZM427 614H490L524 126L746 614H823L541 0H469L432 479L209 0H137L95 614H170L201 126Z" glyph-name="Wacute" horiz-adv-x="771" unicode="&#7810;" /><glyph d="M427 614H490L524 126L746 614H823L541 0H469L432 479L209 0H137L95 614H170L201 126ZM521 791 592 669H527L480 740L410 669H338L452 791Z" glyph-name="Wcircumflex" horiz-adv-x="771" unicode="&#372;" /><glyph d="M502 722Q502 732 505.5 740Q509 748 515 754.5Q521 761 529.5 764.5Q538 768 547 768Q557 768 565.5 764.5Q574 761 580.5 754.5Q587 748 590.5 740Q594 732 594 722Q594 712 590.5 704Q587 696 580.5 689.5Q574 683 565.5 679.5Q557 676 547 676Q538 676 529.5 679.5Q521 683 515 689.5Q509 696 505.5 704Q502 712 502 722ZM361 722Q361 732 364.5 740Q368 748 374.5 754.5Q381 761 389.5 764.5Q398 768 408 768Q417 768 425.5 764.5Q434 761 440.5 754.5Q447 748 450.5 740Q454 732 454 722Q454 712 450.5 704Q447 696 440.5 689.5Q434 683 425.5 679.5Q417 676 408 676Q398 676 389.5 679.5Q381 683 374.5 689.5Q368 696 364.5 704Q361 712 361 722ZM427 614H490L524 126L746 614H823L541 0H469L432 479L209 0H137L95 614H170L201 126Z" glyph-name="Wdieresis" horiz-adv-x="771" unicode="&#7812;" /><glyph d="M504 668H433L362 785H444ZM427 614H490L524 126L746 614H823L541 0H469L432 479L209 0H137L95 614H170L201 126Z" glyph-name="Wgrave" horiz-adv-x="771" unicode="&#7808;" /><glyph d="M612 614 339 309 496 0H414L287 253L62 0H-28L255 316L104 614H186L308 373L522 614Z" glyph-name="X" horiz-adv-x="559" unicode="X" /><glyph d="M297 324 526 614H613L326 253L281 0H203L248 253L89 614H171Z" glyph-name="Y" horiz-adv-x="557" unicode="Y" /><glyph d="M298 324 527 614H614L327 253L282 0H204L249 253L90 614H172ZM396 668H317L417 785H507Z" glyph-name="Yacute" horiz-adv-x="557" unicode="&#221;" /><glyph d="M298 324 527 614H614L327 253L282 0H204L249 253L90 614H172ZM415 791 486 669H421L374 740L304 669H232L346 791Z" glyph-name="Ycircumflex" horiz-adv-x="557" unicode="&#374;" /><glyph d="M298 324 527 614H614L327 253L282 0H204L249 253L90 614H172ZM395 722Q395 732 398.5 740Q402 748 408 754.5Q414 761 422.5 764.5Q431 768 440 768Q450 768 458.5 764.5Q467 761 473.5 754.5Q480 748 483.5 740Q487 732 487 722Q487 712 483.5 704Q480 696 473.5 689.5Q467 683 458.5 679.5Q450 676 440 676Q431 676 422.5 679.5Q414 683 408 689.5Q402 696 398.5 704Q395 712 395 722ZM254 722Q254 732 257.5 740Q261 748 267.5 754.5Q274 761 282.5 764.5Q291 768 301 768Q310 768 318.5 764.5Q327 761 333.5 754.5Q340 748 343.5 740Q347 732 347 722Q347 712 343.5 704Q340 696 333.5 689.5Q327 683 318.5 679.5Q310 676 301 676Q291 676 282.5 679.5Q274 683 267.5 689.5Q261 696 257.5 704Q254 712 254 722Z" glyph-name="Ydieresis" horiz-adv-x="557" unicode="&#376;" /><glyph d="M298 324 527 614H614L327 253L282 0H204L249 253L90 614H172ZM397 668H326L255 785H337Z" glyph-name="Ygrave" horiz-adv-x="557" unicode="&#7922;" /><glyph d="M462 71 450 0H-13V4L433 544H112L124 614H576V611L131 71Z" glyph-name="Z" horiz-adv-x="529" unicode="Z" /><glyph d="M462 71 450 0H-13V4L433 544H112L124 614H576V611L131 71ZM379 668H300L400 785H490Z" glyph-name="Zacute" horiz-adv-x="529" unicode="&#377;" /><glyph d="M312 666 241 787H306L353 716L423 787H495L381 666ZM462 71 450 0H-13V4L433 544H112L124 614H576V611L131 71Z" glyph-name="Zcaron" horiz-adv-x="529" unicode="&#381;" /><glyph d="M402 721Q402 711 398 702.5Q394 694 387.5 687.5Q381 681 372.5 677Q364 673 354 673Q344 673 335.5 677Q327 681 320.5 687.5Q314 694 310 702.5Q306 711 306 721Q306 731 310 740Q314 749 320.5 755.5Q327 762 335.5 766Q344 770 354 770Q364 770 372.5 766Q381 762 387.5 755.5Q394 749 398 740Q402 731 402 721ZM462 71 450 0H-13V4L433 544H112L124 614H576V611L131 71Z" glyph-name="Zdotaccent" horiz-adv-x="529" unicode="&#379;" /><glyph glyph-name="_229" horiz-adv-x="0" /><glyph d="M297 110 306 156Q303 168 294.5 178Q286 188 272.5 195.5Q259 203 242.5 207Q226 211 208 211Q187 211 166.5 205.5Q146 200 128.5 189Q111 178 101 161.5Q91 145 91 123Q91 107 98.5 94Q106 81 119 72.5Q132 64 149 59.5Q166 55 184 55Q202 55 219.5 59Q237 63 252 70Q267 77 278.5 87.5Q290 98 297 110ZM319 235 330 292Q331 297 331 299.5Q331 302 331.5 305Q332 308 332 311Q332 314 332 316Q332 333 326.5 345.5Q321 358 310 367Q299 376 282.5 380.5Q266 385 244 385Q225 385 206.5 382Q188 379 171 373.5Q154 368 138.5 360.5Q123 353 107 344L120 417Q132 425 148.5 431.5Q165 438 184 443Q203 448 223 450.5Q243 453 263 453Q297 453 324 444.5Q351 436 369.5 420.5Q388 405 397.5 383Q407 361 407 333Q407 329 407 324.5Q407 320 406.5 316Q406 312 405.5 307.5Q405 303 404 299L352 0H279L284 33Q275 25 263 18Q251 11 236 5Q221 -1 203.5 -4.5Q186 -8 168 -8Q137 -8 110 1Q83 10 62.5 26.5Q42 43 30.5 66.5Q19 90 19 119Q19 153 34.5 181.5Q50 210 76.5 230.5Q103 251 137 262Q171 273 208 273Q226 273 243.5 270Q261 267 275.5 261.5Q290 256 301 249Q312 242 319 235Z" glyph-name="a" horiz-adv-x="451" unicode="a" /><glyph d="M297 110 306 156Q303 168 294.5 178Q286 188 272.5 195.5Q259 203 242.5 207Q226 211 208 211Q187 211 166.5 205.5Q146 200 128.5 189Q111 178 101 161.5Q91 145 91 123Q91 107 98.5 94Q106 81 119 72.5Q132 64 149 59.5Q166 55 184 55Q202 55 219.5 59Q237 63 252 70Q267 77 278.5 87.5Q290 98 297 110ZM319 235 330 292Q331 297 331 299.5Q331 302 331.5 305Q332 308 332 311Q332 314 332 316Q332 333 326.5 345.5Q321 358 310 367Q299 376 282.5 380.5Q266 385 244 385Q225 385 206.5 382Q188 379 171 373.5Q154 368 138.5 360.5Q123 353 107 344L120 417Q132 425 148.5 431.5Q165 438 184 443Q203 448 223 450.5Q243 453 263 453Q297 453 324 444.5Q351 436 369.5 420.5Q388 405 397.5 383Q407 361 407 333Q407 329 407 324.5Q407 320 406.5 316Q406 312 405.5 307.5Q405 303 404 299L352 0H279L284 33Q275 25 263 18Q251 11 236 5Q221 -1 203.5 -4.5Q186 -8 168 -8Q137 -8 110 1Q83 10 62.5 26.5Q42 43 30.5 66.5Q19 90 19 119Q19 153 34.5 181.5Q50 210 76.5 230.5Q103 251 137 262Q171 273 208 273Q226 273 243.5 270Q261 267 275.5 261.5Q290 256 301 249Q312 242 319 235ZM316 516H245L348 650H429Z" glyph-name="aacute" horiz-adv-x="451" unicode="&#225;" /><glyph d="M297 110 306 156Q303 168 294.5 178Q286 188 272.5 195.5Q259 203 242.5 207Q226 211 208 211Q187 211 166.5 205.5Q146 200 128.5 189Q111 178 101 161.5Q91 145 91 123Q91 107 98.5 94Q106 81 119 72.5Q132 64 149 59.5Q166 55 184 55Q202 55 219.5 59Q237 63 252 70Q267 77 278.5 87.5Q290 98 297 110ZM319 235 330 292Q331 297 331 299.5Q331 302 331.5 305Q332 308 332 311Q332 314 332 316Q332 333 326.5 345.5Q321 358 310 367Q299 376 282.5 380.5Q266 385 244 385Q225 385 206.5 382Q188 379 171 373.5Q154 368 138.5 360.5Q123 353 107 344L120 417Q132 425 148.5 431.5Q165 438 184 443Q203 448 223 450.5Q243 453 263 453Q297 453 324 444.5Q351 436 369.5 420.5Q388 405 397.5 383Q407 361 407 333Q407 329 407 324.5Q407 320 406.5 316Q406 312 405.5 307.5Q405 303 404 299L352 0H279L284 33Q275 25 263 18Q251 11 236 5Q221 -1 203.5 -4.5Q186 -8 168 -8Q137 -8 110 1Q83 10 62.5 26.5Q42 43 30.5 66.5Q19 90 19 119Q19 153 34.5 181.5Q50 210 76.5 230.5Q103 251 137 262Q171 273 208 273Q226 273 243.5 270Q261 267 275.5 261.5Q290 256 301 249Q312 242 319 235ZM286 500Q262 500 242 508.5Q222 517 208.5 533.5Q195 550 190.5 574Q186 598 191 628H248Q245 611 246.5 597.5Q248 584 253.5 574.5Q259 565 268.5 560Q278 555 292 555Q305 555 316.5 560Q328 565 337 574.5Q346 584 352.5 597.5Q359 611 362 628H419Q413 597 401.5 573Q390 549 372.5 533Q355 517 333 508.5Q311 500 286 500Z" glyph-name="abreve" horiz-adv-x="451" unicode="&#259;" /><glyph d="M297 110 306 156Q303 168 294.5 178Q286 188 272.5 195.5Q259 203 242.5 207Q226 211 208 211Q187 211 166.5 205.5Q146 200 128.5 189Q111 178 101 161.5Q91 145 91 123Q91 107 98.5 94Q106 81 119 72.5Q132 64 149 59.5Q166 55 184 55Q202 55 219.5 59Q237 63 252 70Q267 77 278.5 87.5Q290 98 297 110ZM319 235 330 292Q331 297 331 299.5Q331 302 331.5 305Q332 308 332 311Q332 314 332 316Q332 333 326.5 345.5Q321 358 310 367Q299 376 282.5 380.5Q266 385 244 385Q225 385 206.5 382Q188 379 171 373.5Q154 368 138.5 360.5Q123 353 107 344L120 417Q132 425 148.5 431.5Q165 438 184 443Q203 448 223 450.5Q243 453 263 453Q297 453 324 444.5Q351 436 369.5 420.5Q388 405 397.5 383Q407 361 407 333Q407 329 407 324.5Q407 320 406.5 316Q406 312 405.5 307.5Q405 303 404 299L352 0H279L284 33Q275 25 263 18Q251 11 236 5Q221 -1 203.5 -4.5Q186 -8 168 -8Q137 -8 110 1Q83 10 62.5 26.5Q42 43 30.5 66.5Q19 90 19 119Q19 153 34.5 181.5Q50 210 76.5 230.5Q103 251 137 262Q171 273 208 273Q226 273 243.5 270Q261 267 275.5 261.5Q290 256 301 249Q312 242 319 235ZM338 645 407 509H345L298 597L221 509H153L269 645Z" glyph-name="acircumflex" horiz-adv-x="451" unicode="&#226;" /><glyph d="M230 516H159L262 650H343Z" glyph-name="acute" horiz-adv-x="500" unicode="&#180;" /><glyph d="M235 668H156L256 785H346Z" glyph-name="acute.cap" horiz-adv-x="500" /><glyph d="M297 110 306 156Q303 168 294.5 178Q286 188 272.5 195.5Q259 203 242.5 207Q226 211 208 211Q187 211 166.5 205.5Q146 200 128.5 189Q111 178 101 161.5Q91 145 91 123Q91 107 98.5 94Q106 81 119 72.5Q132 64 149 59.5Q166 55 184 55Q202 55 219.5 59Q237 63 252 70Q267 77 278.5 87.5Q290 98 297 110ZM319 235 330 292Q331 297 331 299.5Q331 302 331.5 305Q332 308 332 311Q332 314 332 316Q332 333 326.5 345.5Q321 358 310 367Q299 376 282.5 380.5Q266 385 244 385Q225 385 206.5 382Q188 379 171 373.5Q154 368 138.5 360.5Q123 353 107 344L120 417Q132 425 148.5 431.5Q165 438 184 443Q203 448 223 450.5Q243 453 263 453Q297 453 324 444.5Q351 436 369.5 420.5Q388 405 397.5 383Q407 361 407 333Q407 329 407 324.5Q407 320 406.5 316Q406 312 405.5 307.5Q405 303 404 299L352 0H279L284 33Q275 25 263 18Q251 11 236 5Q221 -1 203.5 -4.5Q186 -8 168 -8Q137 -8 110 1Q83 10 62.5 26.5Q42 43 30.5 66.5Q19 90 19 119Q19 153 34.5 181.5Q50 210 76.5 230.5Q103 251 137 262Q171 273 208 273Q226 273 243.5 270Q261 267 275.5 261.5Q290 256 301 249Q312 242 319 235ZM321 571Q321 581 324.5 589.5Q328 598 334 604.5Q340 611 348.5 614.5Q357 618 366 618Q376 618 384.5 614.5Q393 611 399.5 604.5Q406 598 409.5 589.5Q413 581 413 571Q413 562 409.5 553.5Q406 545 399.5 538.5Q393 532 384.5 528.5Q376 525 366 525Q357 525 348.5 528.5Q340 532 334 538.5Q328 545 324.5 553.5Q321 562 321 571ZM180 571Q180 581 183.5 589.5Q187 598 193.5 604.5Q200 611 208.5 614.5Q217 618 227 618Q236 618 244.5 614.5Q253 611 259.5 604.5Q266 598 269.5 589.5Q273 581 273 571Q273 562 269.5 553.5Q266 545 259.5 538.5Q253 532 244.5 528.5Q236 525 227 525Q217 525 208.5 528.5Q200 532 193.5 538.5Q187 545 183.5 553.5Q180 562 180 571Z" glyph-name="adieresis" horiz-adv-x="451" unicode="&#228;" /><glyph d="M336 82Q320 62 301 46Q282 30 259.5 17.5Q237 5 210.5 -1.5Q184 -8 155 -8Q125 -8 100 0.5Q75 9 57 24.5Q39 40 29 62.5Q19 85 19 112Q19 149 34.5 178Q50 207 77.5 226.5Q105 246 140.5 256Q176 266 216 266H326Q328 278 329.5 286.5Q331 295 331.5 300.5Q332 306 332.5 309.5Q333 313 333 315Q333 331 327.5 344Q322 357 311 366Q300 375 283 380Q266 385 244 385Q225 385 206.5 382Q188 379 171.5 373.5Q155 368 139 361Q123 354 107 344L120 417Q132 425 148.5 431.5Q165 438 184 443Q203 448 223.5 450.5Q244 453 264 453Q288 453 308 448Q328 443 343 433Q358 423 368.5 408.5Q379 394 385 375Q398 392 415.5 406Q433 420 453 430.5Q473 441 496 447Q519 453 543 453Q580 453 608.5 441.5Q637 430 656.5 408Q676 386 685.5 355Q695 324 695 285Q695 276 694.5 266.5Q694 257 692.5 247Q691 237 689.5 227Q688 217 686 207H381Q381 205 380.5 202.5Q380 200 380 196.5Q380 193 380 190.5Q380 188 380 185Q380 154 389.5 130Q399 106 416 89.5Q433 73 457 64.5Q481 56 509 56Q528 56 545.5 58.5Q563 61 580 66.5Q597 72 613.5 80.5Q630 89 646 101L632 27Q617 17 601 10Q585 3 568 -1Q551 -5 533 -7Q515 -9 497 -9Q467 -9 442 -3Q417 3 397 15Q377 27 361.5 43.5Q346 60 336 82ZM539 389Q512 389 489 379.5Q466 370 447 353.5Q428 337 414.5 314.5Q401 292 393 266H622Q623 269 623.5 272.5Q624 276 624.5 279.5Q625 283 625 286Q625 289 625 292Q625 312 620 329.5Q615 347 604.5 360.5Q594 374 577.5 381.5Q561 389 539 389ZM170 54Q192 54 212 60Q232 66 249 77Q266 88 279.5 103Q293 118 303 136L315 207H212Q190 207 168.5 202.5Q147 198 129.5 187.5Q112 177 101.5 160Q91 143 91 120Q91 105 97 92.5Q103 80 114 71.5Q125 63 139 58.5Q153 54 170 54Z" glyph-name="ae" horiz-adv-x="722" unicode="&#230;" /><glyph d="M452 516H381L484 650H565ZM336 82Q320 62 301 46Q282 30 259.5 17.5Q237 5 210.5 -1.5Q184 -8 155 -8Q125 -8 100 0.5Q75 9 57 24.5Q39 40 29 62.5Q19 85 19 112Q19 149 34.5 178Q50 207 77.5 226.5Q105 246 140.5 256Q176 266 216 266H326Q328 278 329.5 286.5Q331 295 331.5 300.5Q332 306 332.5 309.5Q333 313 333 315Q333 331 327.5 344Q322 357 311 366Q300 375 283 380Q266 385 244 385Q225 385 206.5 382Q188 379 171.5 373.5Q155 368 139 361Q123 354 107 344L120 417Q132 425 148.5 431.5Q165 438 184 443Q203 448 223.5 450.5Q244 453 264 453Q288 453 308 448Q328 443 343 433Q358 423 368.5 408.5Q379 394 385 375Q398 392 415.5 406Q433 420 453 430.5Q473 441 496 447Q519 453 543 453Q580 453 608.5 441.5Q637 430 656.5 408Q676 386 685.5 355Q695 324 695 285Q695 276 694.5 266.5Q694 257 692.5 247Q691 237 689.5 227Q688 217 686 207H381Q381 205 380.5 202.5Q380 200 380 196.5Q380 193 380 190.5Q380 188 380 185Q380 154 389.5 130Q399 106 416 89.5Q433 73 457 64.5Q481 56 509 56Q528 56 545.5 58.5Q563 61 580 66.5Q597 72 613.5 80.5Q630 89 646 101L632 27Q617 17 601 10Q585 3 568 -1Q551 -5 533 -7Q515 -9 497 -9Q467 -9 442 -3Q417 3 397 15Q377 27 361.5 43.5Q346 60 336 82ZM539 389Q512 389 489 379.5Q466 370 447 353.5Q428 337 414.5 314.5Q401 292 393 266H622Q623 269 623.5 272.5Q624 276 624.5 279.5Q625 283 625 286Q625 289 625 292Q625 312 620 329.5Q615 347 604.5 360.5Q594 374 577.5 381.5Q561 389 539 389ZM170 54Q192 54 212 60Q232 66 249 77Q266 88 279.5 103Q293 118 303 136L315 207H212Q190 207 168.5 202.5Q147 198 129.5 187.5Q112 177 101.5 160Q91 143 91 120Q91 105 97 92.5Q103 80 114 71.5Q125 63 139 58.5Q153 54 170 54Z" glyph-name="aeacute" horiz-adv-x="722" unicode="&#509;" /><glyph d="M297 110 306 156Q303 168 294.5 178Q286 188 272.5 195.5Q259 203 242.5 207Q226 211 208 211Q187 211 166.5 205.5Q146 200 128.5 189Q111 178 101 161.5Q91 145 91 123Q91 107 98.5 94Q106 81 119 72.5Q132 64 149 59.5Q166 55 184 55Q202 55 219.5 59Q237 63 252 70Q267 77 278.5 87.5Q290 98 297 110ZM319 235 330 292Q331 297 331 299.5Q331 302 331.5 305Q332 308 332 311Q332 314 332 316Q332 333 326.5 345.5Q321 358 310 367Q299 376 282.5 380.5Q266 385 244 385Q225 385 206.5 382Q188 379 171 373.5Q154 368 138.5 360.5Q123 353 107 344L120 417Q132 425 148.5 431.5Q165 438 184 443Q203 448 223 450.5Q243 453 263 453Q297 453 324 444.5Q351 436 369.5 420.5Q388 405 397.5 383Q407 361 407 333Q407 329 407 324.5Q407 320 406.5 316Q406 312 405.5 307.5Q405 303 404 299L352 0H279L284 33Q275 25 263 18Q251 11 236 5Q221 -1 203.5 -4.5Q186 -8 168 -8Q137 -8 110 1Q83 10 62.5 26.5Q42 43 30.5 66.5Q19 90 19 119Q19 153 34.5 181.5Q50 210 76.5 230.5Q103 251 137 262Q171 273 208 273Q226 273 243.5 270Q261 267 275.5 261.5Q290 256 301 249Q312 242 319 235ZM318 516H253L188 650H261Z" glyph-name="agrave" horiz-adv-x="451" unicode="&#224;" /><glyph d="M297 110 306 156Q303 168 294.5 178Q286 188 272.5 195.5Q259 203 242.5 207Q226 211 208 211Q187 211 166.5 205.5Q146 200 128.5 189Q111 178 101 161.5Q91 145 91 123Q91 107 98.5 94Q106 81 119 72.5Q132 64 149 59.5Q166 55 184 55Q202 55 219.5 59Q237 63 252 70Q267 77 278.5 87.5Q290 98 297 110ZM319 235 330 292Q331 297 331 299.5Q331 302 331.5 305Q332 308 332 311Q332 314 332 316Q332 333 326.5 345.5Q321 358 310 367Q299 376 282.5 380.5Q266 385 244 385Q225 385 206.5 382Q188 379 171 373.5Q154 368 138.5 360.5Q123 353 107 344L120 417Q132 425 148.5 431.5Q165 438 184 443Q203 448 223 450.5Q243 453 263 453Q297 453 324 444.5Q351 436 369.5 420.5Q388 405 397.5 383Q407 361 407 333Q407 329 407 324.5Q407 320 406.5 316Q406 312 405.5 307.5Q405 303 404 299L352 0H279L284 33Q275 25 263 18Q251 11 236 5Q221 -1 203.5 -4.5Q186 -8 168 -8Q137 -8 110 1Q83 10 62.5 26.5Q42 43 30.5 66.5Q19 90 19 119Q19 153 34.5 181.5Q50 210 76.5 230.5Q103 251 137 262Q171 273 208 273Q226 273 243.5 270Q261 267 275.5 261.5Q290 256 301 249Q312 242 319 235ZM181 530 192 591H406L395 530Z" glyph-name="amacron" horiz-adv-x="451" unicode="&#257;" /><glyph d="M211 54Q232 54 252 58Q272 62 290 69Q308 76 324.5 86.5Q341 97 356 111L213 295Q189 289 168 277Q147 265 132 247Q117 229 108.5 206Q100 183 100 158Q100 135 108 115.5Q116 96 131 82.5Q146 69 166.5 61.5Q187 54 211 54ZM442 0 393 63Q374 46 352.5 33Q331 20 308 10.5Q285 1 260.5 -4Q236 -9 211 -9Q168 -9 134 3Q100 15 75.5 37Q51 59 38.5 89.5Q26 120 26 158Q26 191 36.5 220Q47 249 67 273.5Q87 298 114 317Q141 336 174 348Q166 360 159.5 372Q153 384 149 396.5Q145 409 142.5 422.5Q140 436 140 451Q140 489 154.5 521Q169 553 194.5 576Q220 599 253 611Q286 623 323 623Q344 623 363 620Q382 617 399.5 611Q417 605 432 597Q447 589 459 579L445 504Q432 516 419 526Q406 536 390.5 543.5Q375 551 358.5 555Q342 559 323 559Q300 559 280 552Q260 545 245.5 531.5Q231 518 222.5 498.5Q214 479 214 454Q214 441 217.5 428Q221 415 226.5 403.5Q232 392 240 380.5Q248 369 259 355L403 168Q412 182 419.5 197Q427 212 433 228.5Q439 245 444 262.5Q449 280 453 298H523Q519 273 511 249Q503 225 493 202Q483 179 470 157.5Q457 136 442 116L531 0Z" glyph-name="ampersand" horiz-adv-x="569" unicode="&amp;" /><glyph d="M296 0H279L284 33Q275 25 263 18Q251 11 236 5Q221 -1 203.5 -4.5Q186 -8 168 -8Q137 -8 110 1Q83 10 62.5 26.5Q42 43 30.5 66.5Q19 90 19 119Q19 153 34.5 181.5Q50 210 76.5 230.5Q103 251 137 262Q171 273 208 273Q226 273 243.5 270Q261 267 275.5 261.5Q290 256 301 249Q312 242 319 235L330 292Q331 297 331 299.5Q331 302 331.5 305Q332 308 332 311Q332 314 332 316Q332 333 326.5 345.5Q321 358 310 367Q299 376 282.5 380.5Q266 385 244 385Q225 385 206.5 382Q188 379 171 373.5Q154 368 138.5 360.5Q123 353 107 344L120 417Q132 425 148.5 431.5Q165 438 184 443Q203 448 223 450.5Q243 453 263 453Q297 453 324 444.5Q351 436 369.5 420.5Q388 405 397.5 383Q407 361 407 333Q407 329 407 324.5Q407 320 406.5 316Q406 312 405.5 307.5Q405 303 404 299L352 0Q308 -58 300 -70Q292 -82 287.5 -92.5Q283 -103 283 -113Q283 -118 284 -121.5Q285 -125 287.5 -127.5Q290 -130 293.5 -131Q297 -132 301 -132Q306 -132 310.5 -131Q315 -130 319.5 -128Q324 -126 329.5 -123.5Q335 -121 341 -117L332 -167Q326 -171 319.5 -174.5Q313 -178 306.5 -180.5Q300 -183 292.5 -184.5Q285 -186 278 -186Q264 -186 253.5 -182.5Q243 -179 236 -172Q229 -165 225.5 -155.5Q222 -146 222 -134Q222 -117 227.5 -101Q233 -85 243 -70Q253 -55 296 0ZM297 110 306 156Q303 168 294.5 178Q286 188 272.5 195.5Q259 203 242.5 207Q226 211 208 211Q187 211 166.5 205.5Q146 200 128.5 189Q111 178 101 161.5Q91 145 91 123Q91 107 98.5 94Q106 81 119 72.5Q132 64 149 59.5Q166 55 184 55Q202 55 219.5 59Q237 63 252 70Q267 77 278.5 87.5Q290 98 297 110Z" glyph-name="aogonek" horiz-adv-x="451" unicode="&#261;" /><glyph d="M93 308 103 370Q119 381 134 388.5Q149 396 163 401Q177 406 190 408Q203 410 216 410Q238 410 257 405Q276 400 302.5 389.5Q329 379 347.5 374Q366 369 388 369Q401 369 414.5 371.5Q428 374 442.5 379.5Q457 385 472.5 393Q488 401 505 412L494 350Q478 339 462.5 331Q447 323 432.5 318.5Q418 314 404.5 311.5Q391 309 378 309Q356 309 337 314.5Q318 320 291.5 330.5Q265 341 246.5 346Q228 351 206 351Q193 351 180 348.5Q167 346 153 340.5Q139 335 124 327Q109 319 93 308ZM70 184 81 246Q97 257 112 264.5Q127 272 141.5 277Q156 282 169 284Q182 286 195 286Q217 286 236 280.5Q255 275 281.5 264.5Q308 254 326.5 249Q345 244 367 244Q380 244 393 246.5Q406 249 420.5 254Q435 259 450.5 267.5Q466 276 483 287L472 225Q456 214 440.5 206.5Q425 199 410.5 194Q396 189 382.5 187Q369 185 356 185Q334 185 315 190Q296 195 269.5 205.5Q243 216 224.5 221Q206 226 184 226Q172 226 158.5 223.5Q145 221 131 216Q117 211 101.5 203Q86 195 70 184Z" glyph-name="approxequal" horiz-adv-x="551" unicode="&#8776;" /><glyph d="M73 308 83 370Q99 381 114 388.5Q129 396 143 401Q157 406 170 408Q183 410 196 410Q218 410 237 405Q256 400 282.5 389.5Q309 379 327.5 374Q346 369 368 369Q381 369 394.5 371.5Q408 374 422.5 379.5Q437 385 452.5 393Q468 401 485 412L474 350Q458 339 442.5 331Q427 323 412.5 318.5Q398 314 384.5 311.5Q371 309 358 309Q336 309 317 314.5Q298 320 271.5 330.5Q245 341 226.5 346Q208 351 186 351Q173 351 160 348.5Q147 346 133 340.5Q119 335 104 327Q89 319 73 308ZM50 184 61 246Q77 257 92 264.5Q107 272 121.5 277Q136 282 149 284Q162 286 175 286Q197 286 216 280.5Q235 275 261.5 264.5Q288 254 306.5 249Q325 244 347 244Q360 244 373 246.5Q386 249 400.5 254Q415 259 430.5 267.5Q446 276 463 287L452 225Q436 214 420.5 206.5Q405 199 390.5 194Q376 189 362.5 187Q349 185 336 185Q314 185 295 190Q276 195 249.5 205.5Q223 216 204.5 221Q186 226 164 226Q152 226 138.5 223.5Q125 221 111 216Q97 211 81.5 203Q66 195 50 184Z" glyph-name="approxequal.lt" horiz-adv-x="520" /><glyph d="M297 110 306 156Q303 168 294.5 178Q286 188 272.5 195.5Q259 203 242.5 207Q226 211 208 211Q187 211 166.5 205.5Q146 200 128.5 189Q111 178 101 161.5Q91 145 91 123Q91 107 98.5 94Q106 81 119 72.5Q132 64 149 59.5Q166 55 184 55Q202 55 219.5 59Q237 63 252 70Q267 77 278.5 87.5Q290 98 297 110ZM319 235 330 292Q331 297 331 299.5Q331 302 331.5 305Q332 308 332 311Q332 314 332 316Q332 333 326.5 345.5Q321 358 310 367Q299 376 282.5 380.5Q266 385 244 385Q225 385 206.5 382Q188 379 171 373.5Q154 368 138.5 360.5Q123 353 107 344L120 417Q132 425 148.5 431.5Q165 438 184 443Q203 448 223 450.5Q243 453 263 453Q297 453 324 444.5Q351 436 369.5 420.5Q388 405 397.5 383Q407 361 407 333Q407 329 407 324.5Q407 320 406.5 316Q406 312 405.5 307.5Q405 303 404 299L352 0H279L284 33Q275 25 263 18Q251 11 236 5Q221 -1 203.5 -4.5Q186 -8 168 -8Q137 -8 110 1Q83 10 62.5 26.5Q42 43 30.5 66.5Q19 90 19 119Q19 153 34.5 181.5Q50 210 76.5 230.5Q103 251 137 262Q171 273 208 273Q226 273 243.5 270Q261 267 275.5 261.5Q290 256 301 249Q312 242 319 235ZM293 494Q275 494 260 500Q245 506 233.5 517.5Q222 529 216 544Q210 559 210 576Q210 594 217 610Q224 626 236.5 639Q249 652 265.5 659Q282 666 301 666Q319 666 334 660Q349 654 360.5 642.5Q372 631 378 616Q384 601 384 584Q384 566 377 550Q370 534 357.5 521Q345 508 328.5 501Q312 494 293 494ZM295 535Q304 535 312.5 538.5Q321 542 328 548Q335 554 338.5 563Q342 572 342 582Q342 591 338.5 599Q335 607 329.5 613Q324 619 316 622Q308 625 299 625Q290 625 281.5 621.5Q273 618 266 612Q259 606 255.5 597Q252 588 252 578Q252 569 255.5 561Q259 553 264.5 547Q270 541 278 538Q286 535 295 535Z" glyph-name="aring" horiz-adv-x="451" unicode="&#229;" /><glyph d="M348 647H275L348 733H433ZM290 476Q272 476 256.5 481.5Q241 487 230 496.5Q219 506 212.5 519Q206 532 206 547Q206 562 213 576Q220 590 232 601Q244 612 260.5 618Q277 624 296 624Q314 624 329.5 618.5Q345 613 356 603.5Q367 594 373.5 581Q380 568 380 553Q380 538 373 524Q366 510 354 499Q342 488 325.5 482Q309 476 290 476ZM291 514Q300 514 308.5 516.5Q317 519 323.5 524Q330 529 334 536Q338 543 338 552Q338 560 334.5 566Q331 572 325.5 576.5Q320 581 312 583.5Q304 586 295 586Q286 586 277.5 583.5Q269 581 262.5 576Q256 571 252 564Q248 557 248 548Q248 540 251.5 534Q255 528 260.5 523.5Q266 519 274 516.5Q282 514 291 514ZM297 110 306 156Q303 168 294.5 178Q286 188 272.5 195.5Q259 203 242.5 207Q226 211 208 211Q187 211 166.5 205.5Q146 200 128.5 189Q111 178 101 161.5Q91 145 91 123Q91 107 98.5 94Q106 81 119 72.5Q132 64 149 59.5Q166 55 184 55Q202 55 219.5 59Q237 63 252 70Q267 77 278.5 87.5Q290 98 297 110ZM319 235 330 292Q331 297 331 299.5Q331 302 331.5 305Q332 308 332 311Q332 314 332 316Q332 333 326.5 345.5Q321 358 310 367Q299 376 282.5 380.5Q266 385 244 385Q225 385 206.5 382Q188 379 171 373.5Q154 368 138.5 360.5Q123 353 107 344L120 417Q132 425 148.5 431.5Q165 438 184 443Q203 448 223 450.5Q243 453 263 453Q297 453 324 444.5Q351 436 369.5 420.5Q388 405 397.5 383Q407 361 407 333Q407 329 407 324.5Q407 320 406.5 316Q406 312 405.5 307.5Q405 303 404 299L352 0H279L284 33Q275 25 263 18Q251 11 236 5Q221 -1 203.5 -4.5Q186 -8 168 -8Q137 -8 110 1Q83 10 62.5 26.5Q42 43 30.5 66.5Q19 90 19 119Q19 153 34.5 181.5Q50 210 76.5 230.5Q103 251 137 262Q171 273 208 273Q226 273 243.5 270Q261 267 275.5 261.5Q290 256 301 249Q312 242 319 235Z" glyph-name="aringacute" horiz-adv-x="451" unicode="&#507;" /><glyph d="M206 614H280L370 420H296L235 548L129 420H46Z" glyph-name="asciicircum" horiz-adv-x="357" unicode="^" /><glyph d="M336 335H399Q393 305 382.5 281Q372 257 356.5 240Q341 223 321.5 214.5Q302 206 280 206Q259 206 243 214.5Q227 223 208 240.5Q189 258 179 265Q169 272 156 272Q146 272 137 268Q128 264 121 256Q114 248 109.5 236.5Q105 225 102 210H39Q44 240 54.5 263.5Q65 287 80.5 304Q96 321 115.5 329.5Q135 338 158 338Q179 338 194.5 329.5Q210 321 228.5 304Q247 287 257.5 279.5Q268 272 282 272Q292 272 300.5 276Q309 280 316 288.5Q323 297 328 308.5Q333 320 336 335Z" glyph-name="asciitilde" horiz-adv-x="418" unicode="~" /><glyph d="M211 360 167 367 185 471 87 435 72 476 170 512 89 580 117 613 197 547 215 649 259 642 242 539 339 574 355 533 256 497 338 429 309 396 229 463Z" glyph-name="asterisk" horiz-adv-x="332" unicode="*" /><glyph d="M574 381 517 138Q514 125 514.5 115Q515 105 519 98Q523 91 532 87.5Q541 84 555 84Q582 84 606.5 97.5Q631 111 649.5 137.5Q668 164 678.5 201.5Q689 239 689 286Q689 336 670.5 377.5Q652 419 617.5 449Q583 479 536 494.5Q489 510 432 510Q360 510 298.5 484Q237 458 191.5 411Q146 364 121.5 300.5Q97 237 97 163Q97 94 122.5 43.5Q148 -7 191.5 -38Q235 -69 288 -83.5Q341 -98 397 -98Q430 -98 461.5 -94.5Q493 -91 521 -84.5Q549 -78 574.5 -69.5Q600 -61 623 -51L613 -110Q594 -119 570 -127Q546 -135 518 -141Q490 -147 459 -150.5Q428 -154 396 -154Q324 -154 259 -135Q194 -116 143.5 -77Q93 -38 64 22.5Q35 83 35 163Q35 245 64 318.5Q93 392 146.5 447.5Q200 503 273.5 534.5Q347 566 433 566Q504 566 562.5 545.5Q621 525 663 487Q705 449 727.5 397.5Q750 346 750 286Q750 224 732.5 175.5Q715 127 685 94.5Q655 62 618 46Q581 30 542 30Q524 30 508.5 34Q493 38 480.5 45.5Q468 53 458.5 63.5Q449 74 445 88Q437 76 425 65.5Q413 55 399 47Q385 39 369.5 35Q354 31 340 31Q311 31 288 41Q265 51 249 69Q233 87 224.5 111.5Q216 136 216 165Q216 208 230.5 248.5Q245 289 271 321Q297 353 332.5 371.5Q368 390 409 390Q425 390 439.5 386Q454 382 465 375.5Q476 369 484.5 361Q493 353 498 344L508 381ZM452 151 481 275Q478 286 471.5 296Q465 306 456 313Q447 320 435.5 324Q424 328 410 328Q383 328 359.5 314.5Q336 301 319.5 278.5Q303 256 294 228Q285 200 285 171Q285 153 290 139Q295 125 304.5 114.5Q314 104 327 98.5Q340 93 357 93Q372 93 385.5 97.5Q399 102 411 110Q423 118 433 128Q443 138 452 151Z" glyph-name="at" horiz-adv-x="774" unicode="@" /><glyph d="M585 473 528 230Q525 217 525.5 207Q526 197 530 190Q534 183 543 179.5Q552 176 566 176Q593 176 617.5 189.5Q642 203 660.5 229.5Q679 256 689.5 293.5Q700 331 700 378Q700 428 681.5 469.5Q663 511 628.5 541Q594 571 547 586.5Q500 602 443 602Q371 602 309.5 576Q248 550 202.5 503Q157 456 132.5 392.5Q108 329 108 255Q108 186 133.5 135.5Q159 85 202.5 54Q246 23 299 8.5Q352 -6 408 -6Q441 -6 472.5 -2.5Q504 1 532 7.5Q560 14 585.5 22.5Q611 31 634 41L624 -18Q605 -27 581 -35Q557 -43 529 -49Q501 -55 470 -58.5Q439 -62 407 -62Q335 -62 270 -43Q205 -24 154.5 15Q104 54 75 114.5Q46 175 46 255Q46 337 75 410.5Q104 484 157.5 539.5Q211 595 284.5 626.5Q358 658 444 658Q515 658 573.5 637.5Q632 617 674 579Q716 541 738.5 489.5Q761 438 761 378Q761 316 743.5 267.5Q726 219 696 186.5Q666 154 629 138Q592 122 553 122Q535 122 519.5 126Q504 130 491.5 137.5Q479 145 469.5 155.5Q460 166 456 180Q448 168 436 157.5Q424 147 410 139Q396 131 380.5 127Q365 123 351 123Q322 123 299 133Q276 143 260 161Q244 179 235.5 203.5Q227 228 227 257Q227 300 241.5 340.5Q256 381 282 413Q308 445 343.5 463.5Q379 482 420 482Q436 482 450.5 478Q465 474 476 467.5Q487 461 495.5 453Q504 445 509 436L519 473ZM463 243 492 367Q489 378 482.5 388Q476 398 467 405Q458 412 446.5 416Q435 420 421 420Q394 420 370.5 406.5Q347 393 330.5 370.5Q314 348 305 320Q296 292 296 263Q296 245 301 231Q306 217 315.5 206.5Q325 196 338 190.5Q351 185 368 185Q383 185 396.5 189.5Q410 194 422 202Q434 210 444 220Q454 230 463 243Z" glyph-name="at.cap" horiz-adv-x="774" /><glyph d="M297 110 306 156Q303 168 294.5 178Q286 188 272.5 195.5Q259 203 242.5 207Q226 211 208 211Q187 211 166.5 205.5Q146 200 128.5 189Q111 178 101 161.5Q91 145 91 123Q91 107 98.5 94Q106 81 119 72.5Q132 64 149 59.5Q166 55 184 55Q202 55 219.5 59Q237 63 252 70Q267 77 278.5 87.5Q290 98 297 110ZM319 235 330 292Q331 297 331 299.5Q331 302 331.5 305Q332 308 332 311Q332 314 332 316Q332 333 326.5 345.5Q321 358 310 367Q299 376 282.5 380.5Q266 385 244 385Q225 385 206.5 382Q188 379 171 373.5Q154 368 138.5 360.5Q123 353 107 344L120 417Q132 425 148.5 431.5Q165 438 184 443Q203 448 223 450.5Q243 453 263 453Q297 453 324 444.5Q351 436 369.5 420.5Q388 405 397.5 383Q407 361 407 333Q407 329 407 324.5Q407 320 406.5 316Q406 312 405.5 307.5Q405 303 404 299L352 0H279L284 33Q275 25 263 18Q251 11 236 5Q221 -1 203.5 -4.5Q186 -8 168 -8Q137 -8 110 1Q83 10 62.5 26.5Q42 43 30.5 66.5Q19 90 19 119Q19 153 34.5 181.5Q50 210 76.5 230.5Q103 251 137 262Q171 273 208 273Q226 273 243.5 270Q261 267 275.5 261.5Q290 256 301 249Q312 242 319 235ZM387 633H437Q432 606 423.5 584.5Q415 563 403 547.5Q391 532 375 523.5Q359 515 341 515Q326 515 314 522.5Q302 530 288.5 545Q275 560 267.5 566.5Q260 573 249 573Q241 573 234 569Q227 565 221.5 558Q216 551 212 541Q208 531 205 518H155Q160 545 168.5 566.5Q177 588 189 603.5Q201 619 217 627.5Q233 636 251 636Q266 636 278 628.5Q290 621 304 606Q318 591 325.5 584.5Q333 578 343 578Q351 578 358 582Q365 586 370.5 593Q376 600 380 610Q384 620 387 633Z" glyph-name="atilde" horiz-adv-x="451" unicode="&#227;" /><glyph d="M114 53 104 0H29L143 650H218L172 389Q183 402 197.5 413.5Q212 425 229.5 434Q247 443 266 448Q285 453 305 453Q346 453 377 439Q408 425 428.5 399Q449 373 459 338.5Q469 304 469 263Q469 209 452 159.5Q435 110 403.5 72Q372 34 328.5 12.5Q285 -9 234 -9Q212 -9 192.5 -4Q173 1 158 9.5Q143 18 132 29.5Q121 41 114 53ZM158 307 127 132Q133 115 143 101.5Q153 88 166 78.5Q179 69 196 64Q213 59 232 59Q270 59 300 75.5Q330 92 351 120.5Q372 149 382.5 185.5Q393 222 393 263Q393 290 386.5 312Q380 334 366.5 350.5Q353 367 333.5 376Q314 385 289 385Q269 385 250 379.5Q231 374 215 363.5Q199 353 184.5 338.5Q170 324 158 307Z" glyph-name="b" horiz-adv-x="504" unicode="b" /><glyph d="M169 650 288 -84H216L97 650Z" glyph-name="backslash" horiz-adv-x="333" unicode="\" /><glyph d="M170 670 289 -64H217L98 670Z" glyph-name="backslash.cap" horiz-adv-x="333" /><glyph d="M23 -84 152 650H225L96 -84Z" glyph-name="bar" horiz-adv-x="219" unicode="|" /><glyph d="M27 -64 156 670H229L100 -64Z" glyph-name="bar.cap" horiz-adv-x="219" /><glyph d="M173 206 140 21Q139 12 140 5Q141 -2 144.5 -6.5Q148 -11 154 -13.5Q160 -16 169 -16H274L262 -84H158Q133 -84 114 -76Q95 -68 83 -53Q71 -38 67 -17.5Q63 3 67 28L99 211Q101 220 100 227Q99 234 95 238.5Q91 243 85 245.5Q79 248 70 248H24L37 318H83Q92 318 99 320.5Q106 323 111.5 327.5Q117 332 120.5 339Q124 346 125 355L157 538Q161 562 173 583Q185 604 202.5 619Q220 634 241.5 642Q263 650 287 650H391L379 582H274Q265 582 258 579.5Q251 577 246 572.5Q241 568 237 561Q233 554 232 545L199 360Q196 346 191 334.5Q186 323 178.5 313.5Q171 304 162 296.5Q153 289 142 283Q151 277 157.5 269.5Q164 262 168.5 252.5Q173 243 174 231.5Q175 220 173 206Z" glyph-name="braceleft" horiz-adv-x="339" unicode="{" /><glyph d="M177 224 144 39Q143 30 144 23Q145 16 148.5 11.5Q152 7 158 4.5Q164 2 173 2H278L266 -66H162Q137 -66 118 -58Q99 -50 87 -35Q75 -20 71 0.5Q67 21 71 46L103 229Q105 238 104 245Q103 252 99 256.5Q95 261 89 263.5Q83 266 74 266H28L41 336H87Q96 336 103 338.5Q110 341 115.5 345.5Q121 350 124.5 357Q128 364 129 373L161 556Q165 580 177 601Q189 622 206.5 637Q224 652 245.5 660Q267 668 291 668H395L383 600H278Q269 600 262 597.5Q255 595 250 590.5Q245 586 241 579Q237 572 236 563L203 378Q200 364 195 352.5Q190 341 182.5 331.5Q175 322 166 314.5Q157 307 146 301Q155 295 161.5 287.5Q168 280 172.5 270.5Q177 261 178 249.5Q179 238 177 224Z" glyph-name="braceleft.cap" horiz-adv-x="339" /><glyph d="M189 360 222 545Q223 554 222 561Q221 568 217.5 572.5Q214 577 208 579.5Q202 582 193 582H88L100 650H204Q229 650 248 642Q267 634 279 619Q291 604 295 583.5Q299 563 295 538L263 355Q261 346 262 339Q263 332 267 327.5Q271 323 277 320.5Q283 318 292 318H338L325 248H279Q270 248 263 245.5Q256 243 250.5 238.5Q245 234 241.5 227Q238 220 237 211L205 28Q201 4 189 -17Q177 -38 159.5 -53Q142 -68 120.5 -76Q99 -84 75 -84H-29L-17 -16H88Q97 -16 104 -13.5Q111 -11 116 -6.5Q121 -2 125 5Q129 12 130 21L163 206Q166 220 171 231.5Q176 243 183.5 252.5Q191 262 200 269.5Q209 277 220 283Q211 289 204.5 296.5Q198 304 193.5 313.5Q189 323 188 334.5Q187 346 189 360Z" glyph-name="braceright" horiz-adv-x="339" unicode="}" /><glyph d="M194 378 227 563Q228 572 227 579Q226 586 222.5 590.5Q219 595 213 597.5Q207 600 198 600H93L105 668H209Q234 668 253 660Q272 652 284 637Q296 622 300 601.5Q304 581 300 556L268 373Q266 364 267 357Q268 350 272 345.5Q276 341 282 338.5Q288 336 297 336H343L330 266H284Q275 266 268 263.5Q261 261 255.5 256.5Q250 252 246.5 245Q243 238 242 229L210 46Q206 22 194 1Q182 -20 164.5 -35Q147 -50 125.5 -58Q104 -66 80 -66H-24L-12 2H93Q102 2 109 4.5Q116 7 121 11.5Q126 16 130 23Q134 30 135 39L168 224Q171 238 176 249.5Q181 261 188.5 270.5Q196 280 205 287.5Q214 295 225 301Q216 307 209.5 314.5Q203 322 198.5 331.5Q194 341 193 352.5Q192 364 194 378Z" glyph-name="braceright.cap" horiz-adv-x="339" /><glyph d="M207 582 103 -16H248L236 -84H19L148 650H365L353 582Z" glyph-name="bracketleft" horiz-adv-x="313" unicode="[" /><glyph d="M212 600 108 2H253L241 -66H24L153 668H370L358 600Z" glyph-name="bracketleft.cap" horiz-adv-x="313" /><glyph d="M129 -16 233 582H88L100 650H317L188 -84H-29L-17 -16Z" glyph-name="bracketright" horiz-adv-x="313" unicode="]" /><glyph d="M134 3 238 601H93L105 669H322L193 -65H-24L-12 3Z" glyph-name="bracketright.cap" horiz-adv-x="313" /><glyph d="M235 500Q211 500 191 508.5Q171 517 157.5 533.5Q144 550 139.5 574Q135 598 140 628H197Q194 611 195.5 597.5Q197 584 202.5 574.5Q208 565 217.5 560Q227 555 241 555Q254 555 265.5 560Q277 565 286 574.5Q295 584 301.5 597.5Q308 611 311 628H368Q362 597 350.5 573Q339 549 321.5 533Q304 517 282 508.5Q260 500 235 500Z" glyph-name="breve" horiz-adv-x="500" unicode="&#728;" /><glyph d="M236 666Q212 666 192 674Q172 682 158.5 697Q145 712 139.5 735Q134 758 139 786H196Q193 770 195 758Q197 746 203.5 738Q210 730 220 726Q230 722 243 722Q256 722 267.5 726Q279 730 288 738Q297 746 303.5 758Q310 770 313 786H370Q365 757 353.5 734.5Q342 712 325 697Q308 682 285.5 674Q263 666 236 666Z" glyph-name="breve.cap" horiz-adv-x="500" /><glyph d="M314 261Q314 232 303.5 206.5Q293 181 274 163Q255 145 230 135Q205 125 177 125Q149 125 124 135Q99 145 80.5 163Q62 181 51.5 206.5Q41 232 41 261Q41 290 51.5 315.5Q62 341 80.5 359Q99 377 124 387Q149 397 177 397Q205 397 230 387Q255 377 274 359Q293 341 303.5 315.5Q314 290 314 261Z" glyph-name="bullet" horiz-adv-x="343" unicode="&#8226;" /><glyph d="M320 301Q320 272 309.5 246.5Q299 221 280 203Q261 185 236 175Q211 165 183 165Q155 165 130 175Q105 185 86.5 203Q68 221 57.5 246.5Q47 272 47 301Q47 330 57.5 355.5Q68 381 86.5 399Q105 417 130 427Q155 437 183 437Q211 437 236 427Q261 417 280 399Q299 381 309.5 355.5Q320 330 320 301Z" glyph-name="bullet.cap" horiz-adv-x="343" /><glyph d="M349 99 335 22Q325 15 312.5 9Q300 3 286 -1Q272 -5 256.5 -7Q241 -9 225 -9Q182 -9 147 4.5Q112 18 86.5 43.5Q61 69 47.5 106Q34 143 34 188Q34 243 52 291Q70 339 103 375.5Q136 412 181 432.5Q226 453 278 453Q296 453 314 450Q332 447 348.5 441.5Q365 436 379 428Q393 420 403 410L390 334Q379 346 366.5 355.5Q354 365 340 372Q326 379 310.5 382.5Q295 386 278 386Q245 386 214.5 372.5Q184 359 160.5 333Q137 307 123.5 270Q110 233 110 188Q110 159 119 135Q128 111 144 94Q160 77 182.5 67.5Q205 58 232 58Q248 58 263 60.5Q278 63 292.5 68Q307 73 321.5 80.5Q336 88 349 99Z" glyph-name="c" horiz-adv-x="407" unicode="c" /><glyph d="M320 516H249L352 650H433ZM349 99 335 22Q325 15 312.5 9Q300 3 286 -1Q272 -5 256.5 -7Q241 -9 225 -9Q182 -9 147 4.5Q112 18 86.5 43.5Q61 69 47.5 106Q34 143 34 188Q34 243 52 291Q70 339 103 375.5Q136 412 181 432.5Q226 453 278 453Q296 453 314 450Q332 447 348.5 441.5Q365 436 379 428Q393 420 403 410L390 334Q379 346 366.5 355.5Q354 365 340 372Q326 379 310.5 382.5Q295 386 278 386Q245 386 214.5 372.5Q184 359 160.5 333Q137 307 123.5 270Q110 233 110 188Q110 159 119 135Q128 111 144 94Q160 77 182.5 67.5Q205 58 232 58Q248 58 263 60.5Q278 63 292.5 68Q307 73 321.5 80.5Q336 88 349 99Z" glyph-name="cacute" horiz-adv-x="407" unicode="&#263;" /><glyph d="M192 510 123 646H185L232 558L309 646H377L261 510Z" glyph-name="caron" horiz-adv-x="500" unicode="&#711;" /><glyph d="M245 486H182L259 650H323Z" glyph-name="caron.Slovak" horiz-adv-x="500" /><glyph d="M194 666 123 787H188L235 716L305 787H377L263 666Z" glyph-name="caron.cap" horiz-adv-x="500" /><glyph d="M256 510 187 646H249L296 558L373 646H441L325 510ZM349 99 335 22Q325 15 312.5 9Q300 3 286 -1Q272 -5 256.5 -7Q241 -9 225 -9Q182 -9 147 4.5Q112 18 86.5 43.5Q61 69 47.5 106Q34 143 34 188Q34 243 52 291Q70 339 103 375.5Q136 412 181 432.5Q226 453 278 453Q296 453 314 450Q332 447 348.5 441.5Q365 436 379 428Q393 420 403 410L390 334Q379 346 366.5 355.5Q354 365 340 372Q326 379 310.5 382.5Q295 386 278 386Q245 386 214.5 372.5Q184 359 160.5 333Q137 307 123.5 270Q110 233 110 188Q110 159 119 135Q128 111 144 94Q160 77 182.5 67.5Q205 58 232 58Q248 58 263 60.5Q278 63 292.5 68Q307 73 321.5 80.5Q336 88 349 99Z" glyph-name="ccaron" horiz-adv-x="407" unicode="&#269;" /><glyph d="M349 99 335 22Q325 15 312.5 9Q300 3 286 -1Q272 -5 256.5 -7Q241 -9 225 -9Q182 -9 147 4.5Q112 18 86.5 43.5Q61 69 47.5 106Q34 143 34 188Q34 243 52 291Q70 339 103 375.5Q136 412 181 432.5Q226 453 278 453Q296 453 314 450Q332 447 348.5 441.5Q365 436 379 428Q393 420 403 410L390 334Q379 346 366.5 355.5Q354 365 340 372Q326 379 310.5 382.5Q295 386 278 386Q245 386 214.5 372.5Q184 359 160.5 333Q137 307 123.5 270Q110 233 110 188Q110 159 119 135Q128 111 144 94Q160 77 182.5 67.5Q205 58 232 58Q248 58 263 60.5Q278 63 292.5 68Q307 73 321.5 80.5Q336 88 349 99ZM142 -183H67L156 -51H234Z" glyph-name="ccedilla" horiz-adv-x="407" unicode="&#231;" /><glyph d="M343 645 412 509H350L303 597L226 509H158L274 645ZM349 99 335 22Q325 15 312.5 9Q300 3 286 -1Q272 -5 256.5 -7Q241 -9 225 -9Q182 -9 147 4.5Q112 18 86.5 43.5Q61 69 47.5 106Q34 143 34 188Q34 243 52 291Q70 339 103 375.5Q136 412 181 432.5Q226 453 278 453Q296 453 314 450Q332 447 348.5 441.5Q365 436 379 428Q393 420 403 410L390 334Q379 346 366.5 355.5Q354 365 340 372Q326 379 310.5 382.5Q295 386 278 386Q245 386 214.5 372.5Q184 359 160.5 333Q137 307 123.5 270Q110 233 110 188Q110 159 119 135Q128 111 144 94Q160 77 182.5 67.5Q205 58 232 58Q248 58 263 60.5Q278 63 292.5 68Q307 73 321.5 80.5Q336 88 349 99Z" glyph-name="ccircumflex" horiz-adv-x="407" unicode="&#265;" /><glyph d="M349 99 335 22Q325 15 312.5 9Q300 3 286 -1Q272 -5 256.5 -7Q241 -9 225 -9Q182 -9 147 4.5Q112 18 86.5 43.5Q61 69 47.5 106Q34 143 34 188Q34 243 52 291Q70 339 103 375.5Q136 412 181 432.5Q226 453 278 453Q296 453 314 450Q332 447 348.5 441.5Q365 436 379 428Q393 420 403 410L390 334Q379 346 366.5 355.5Q354 365 340 372Q326 379 310.5 382.5Q295 386 278 386Q245 386 214.5 372.5Q184 359 160.5 333Q137 307 123.5 270Q110 233 110 188Q110 159 119 135Q128 111 144 94Q160 77 182.5 67.5Q205 58 232 58Q248 58 263 60.5Q278 63 292.5 68Q307 73 321.5 80.5Q336 88 349 99ZM348 578Q348 568 344 559.5Q340 551 333.5 544.5Q327 538 318.5 534Q310 530 300 530Q290 530 281.5 534Q273 538 266.5 544.5Q260 551 256 559.5Q252 568 252 578Q252 588 256 597Q260 606 266.5 612.5Q273 619 281.5 622.5Q290 626 300 626Q310 626 318.5 622.5Q327 619 333.5 612.5Q340 606 344 597Q348 588 348 578Z" glyph-name="cdotaccent" horiz-adv-x="407" unicode="&#267;" /><glyph d="M239 -183H164L253 -51H331Z" glyph-name="cedilla" horiz-adv-x="500" unicode="&#184;" /><glyph d="M239 -183H164L253 -51H331Z" glyph-name="cedilla.alt" horiz-adv-x="500" /><glyph d="M337 31Q328 24 316.5 18.5Q305 13 291.5 9Q278 5 263.5 2.5Q249 0 234 0L219 -87H151L167 8Q137 16 113 33Q89 50 71.5 74Q54 98 45 129.5Q36 161 36 198Q36 248 51 293Q66 338 94.5 373.5Q123 409 162 432Q201 455 247 461L263 553H332L315 460Q329 458 341.5 454.5Q354 451 365.5 446Q377 441 387.5 434.5Q398 428 406 420L392 344Q381 356 368.5 365.5Q356 375 342 381.5Q328 388 312.5 391.5Q297 395 280 395Q247 395 216.5 381.5Q186 368 162.5 342Q139 316 125.5 279Q112 242 112 198Q112 169 121 145Q130 121 146 103.5Q162 86 184.5 77Q207 68 234 68Q250 68 265 70Q280 72 294.5 77Q309 82 323 89.5Q337 97 350 108Z" glyph-name="cent" horiz-adv-x="405" unicode="&#162;" /><glyph d="M370 31Q361 24 349.5 18.5Q338 13 324.5 9Q311 5 296.5 2.5Q282 0 267 0L252 -87H184L200 8Q170 16 146 33Q122 50 104.5 74Q87 98 78 129.5Q69 161 69 198Q69 248 84 293Q99 338 127.5 373.5Q156 409 195 432Q234 455 280 461L296 553H365L348 460Q362 458 374.5 454.5Q387 451 398.5 446Q410 441 420.5 434.5Q431 428 439 420L425 344Q414 356 401.5 365.5Q389 375 375 381.5Q361 388 345.5 391.5Q330 395 313 395Q280 395 249.5 381.5Q219 368 195.5 342Q172 316 158.5 279Q145 242 145 198Q145 169 154 145Q163 121 179 103.5Q195 86 217.5 77Q240 68 267 68Q283 68 298 70Q313 72 327.5 77Q342 82 356 89.5Q370 97 383 108Z" glyph-name="cent.lt" horiz-adv-x="520" /><glyph d="M308 645 377 509H315L268 597L191 509H123L239 645Z" glyph-name="circumflex" horiz-adv-x="500" unicode="&#710;" /><glyph d="M306 791 377 669H312L265 740L195 669H123L237 791Z" glyph-name="circumflex.cap" horiz-adv-x="500" /><glyph d="M7 49Q7 60 11 70.5Q15 81 22.5 88.5Q30 96 39.5 100Q49 104 60 104Q71 104 80.5 100Q90 96 97.5 88.5Q105 81 109 70.5Q113 60 113 49Q113 38 109 28Q105 18 98 10.5Q91 3 81 -1Q71 -5 60 -5Q49 -5 39 -1Q29 3 22 10.5Q15 18 11 28Q7 38 7 49ZM62 363Q62 374 66 384.5Q70 395 77.5 402.5Q85 410 94.5 414Q104 418 115 418Q126 418 135.5 414Q145 410 152.5 402.5Q160 395 164 384.5Q168 374 168 363Q168 352 164 342Q160 332 153 324.5Q146 317 136 313Q126 309 115 309Q104 309 94 313Q84 317 77 324.5Q70 332 66 342Q62 352 62 363Z" glyph-name="colon" horiz-adv-x="171" unicode=":" /><glyph glyph-name="colon.tab" horiz-adv-x="260" /><glyph d="M-39 -107 43 0Q35 2 28.5 6.5Q22 11 17 17.5Q12 24 9.5 32Q7 40 7 49Q7 60 11 70Q15 80 22 87Q29 94 39 98Q49 102 60 102Q71 102 81 98Q91 94 98 87Q105 80 109 69.5Q113 59 113 46Q113 38 111 29.5Q109 21 105 13Q101 5 96.5 -2.5Q92 -10 86 -17L17 -107Z" glyph-name="comma" horiz-adv-x="171" unicode="," /><glyph d="M11 -107 93 0Q85 2 78.5 6.5Q72 11 67 17.5Q62 24 59.5 32Q57 40 57 49Q57 60 61 70Q65 80 72 87Q79 94 89 98Q99 102 110 102Q121 102 131 98Q141 94 148 87Q155 80 159 69.5Q163 59 163 46Q163 38 161 29.5Q159 21 155 13Q151 5 146.5 -2.5Q142 -10 136 -17L67 -107Z" glyph-name="comma.tab" horiz-adv-x="260" /><glyph d="M197 -201 243 -139Q235 -137 229 -133Q223 -129 218.5 -123.5Q214 -118 211.5 -110.5Q209 -103 209 -95Q209 -84 212.5 -75Q216 -66 223 -59Q230 -52 239 -48.5Q248 -45 258 -45Q268 -45 277 -48.5Q286 -52 293 -59Q300 -66 303.5 -75.5Q307 -85 307 -97Q307 -105 305 -112.5Q303 -120 299.5 -127.5Q296 -135 291.5 -142Q287 -149 282 -155L248 -201Z" glyph-name="commaaccent" horiz-adv-x="500" unicode="&#63171;" /><glyph d="M307 680 258 615Q265 613 271.5 609Q278 605 282.5 599Q287 593 289.5 585.5Q292 578 292 570Q292 559 288 550Q284 541 277.5 534.5Q271 528 262 524.5Q253 521 243 521Q233 521 224 524.5Q215 528 208 535Q201 542 197.5 551.5Q194 561 194 573Q194 581 196 588.5Q198 596 201.5 603Q205 610 209.5 617Q214 624 219 630L256 680Z" glyph-name="commaturn" horiz-adv-x="500" /><glyph d="M687 307Q687 239 662.5 181Q638 123 594 80.5Q550 38 492.5 14.5Q435 -9 371 -9Q306 -9 248.5 14.5Q191 38 147 80.5Q103 123 78.5 181Q54 239 54 307Q54 375 78.5 433Q103 491 147 533.5Q191 576 248.5 599.5Q306 623 371 623Q435 623 492.5 599.5Q550 576 594 533.5Q638 491 662.5 433Q687 375 687 307ZM647 307Q647 366 625.5 417Q604 468 566 505.5Q528 543 477.5 563.5Q427 584 371 584Q315 584 264.5 563.5Q214 543 175.5 505.5Q137 468 115.5 417Q94 366 94 307Q94 248 115.5 197Q137 146 175.5 108.5Q214 71 264.5 50.5Q315 30 371 30Q427 30 477.5 50.5Q528 71 566 108.5Q604 146 625.5 197Q647 248 647 307ZM191 309Q191 354 205 390.5Q219 427 244.5 453.5Q270 480 305 494Q340 508 381 508Q397 508 411 506Q425 504 437.5 500.5Q450 497 461 492Q472 487 482 480V407Q471 416 459.5 422Q448 428 436 432.5Q424 437 411.5 439Q399 441 386 441Q360 441 337.5 431.5Q315 422 299 404.5Q283 387 274 363Q265 339 265 309Q265 279 274 255Q283 231 299 213.5Q315 196 337.5 187Q360 178 386 178Q399 178 411.5 180Q424 182 436 186Q448 190 459.5 196Q471 202 482 211V138Q472 131 461 126Q450 121 437.5 117.5Q425 114 411 112Q397 110 381 110Q340 110 305 124Q270 138 244.5 164.5Q219 191 205 227.5Q191 264 191 309Z" glyph-name="copyright" horiz-adv-x="706" unicode="&#169;" /><glyph d="M346 137 376 312Q370 329 360.5 342.5Q351 356 337.5 365.5Q324 375 307.5 380Q291 385 272 385Q234 385 204 367.5Q174 350 153 320.5Q132 291 121 254.5Q110 218 110 181Q110 154 117 132Q124 110 137.5 93.5Q151 77 170.5 68Q190 59 215 59Q235 59 254 64.5Q273 70 289 80.5Q305 91 319.5 105.5Q334 120 346 137ZM390 391 435 650H511L397 0H321L332 55Q321 42 306.5 30.5Q292 19 274.5 10Q257 1 238 -4Q219 -9 199 -9Q158 -9 127 5Q96 19 75.5 45Q55 71 44.5 105.5Q34 140 34 181Q34 233 51.5 282Q69 331 100.5 370Q132 409 175.5 431Q219 453 270 453Q292 453 311.5 448Q331 443 346 434.5Q361 426 372 414.5Q383 403 390 391Z" glyph-name="d" horiz-adv-x="504" unicode="d" /><glyph d="M335 502H236L200 295H142L178 502H79L89 558H188L204 650H262L246 558H345Z" glyph-name="dagger" horiz-adv-x="317" unicode="&#8224;" /><glyph d="M317 380H217L202 295H144L159 380H59L68 432H168L182 512H82L92 565H191L206 650H264L249 565H350L340 512H240L226 432H326Z" glyph-name="daggerdbl" horiz-adv-x="325" unicode="&#8225;" /><glyph d="M593 486H530L607 650H671ZM346 137 376 312Q370 329 360.5 342.5Q351 356 337.5 365.5Q324 375 307.5 380Q291 385 272 385Q234 385 204 367.5Q174 350 153 320.5Q132 291 121 254.5Q110 218 110 181Q110 154 117 132Q124 110 137.5 93.5Q151 77 170.5 68Q190 59 215 59Q235 59 254 64.5Q273 70 289 80.5Q305 91 319.5 105.5Q334 120 346 137ZM390 391 435 650H511L397 0H321L332 55Q321 42 306.5 30.5Q292 19 274.5 10Q257 1 238 -4Q219 -9 199 -9Q158 -9 127 5Q96 19 75.5 45Q55 71 44.5 105.5Q34 140 34 181Q34 233 51.5 282Q69 331 100.5 370Q132 409 175.5 431Q219 453 270 453Q292 453 311.5 448Q331 443 346 434.5Q361 426 372 414.5Q383 403 390 391Z" glyph-name="dcaron" horiz-adv-x="504" unicode="&#271;" /><glyph d="M346 137 376 312Q370 329 360.5 342.5Q351 356 337.5 365.5Q324 375 307.5 380Q291 385 272 385Q234 385 204 367.5Q174 350 153 320.5Q132 291 121 254.5Q110 218 110 181Q110 154 117 132Q124 110 137.5 93.5Q151 77 170.5 68Q190 59 215 59Q235 59 254 64.5Q273 70 289 80.5Q305 91 319.5 105.5Q334 120 346 137ZM332 55Q321 42 306.5 30.5Q292 19 274.5 10Q257 1 238 -4Q219 -9 199 -9Q158 -9 127 5Q96 19 75.5 45Q55 71 44.5 105.5Q34 140 34 181Q34 233 51.5 282Q69 331 100.5 370Q132 409 175.5 431Q219 453 270 453Q292 453 311.5 448Q331 443 346 434.5Q361 426 372 414.5Q383 403 390 391L411 511H303L312 565H420L435 650H511L496 565H553L543 511H487L397 0H321Z" glyph-name="dcroat" horiz-adv-x="504" unicode="&#273;" /><glyph d="M214 623Q238 623 259 614.5Q280 606 295.5 590.5Q311 575 319.5 554.5Q328 534 328 510Q328 483 317.5 458.5Q307 434 289 415Q271 396 247 385.5Q223 375 196 375Q172 375 151 383.5Q130 392 114.5 408Q99 424 90.5 444.5Q82 465 82 489Q82 516 92.5 540.5Q103 565 121 583.5Q139 602 163 612.5Q187 623 214 623ZM210 568Q196 568 183 562.5Q170 557 160 546.5Q150 536 144 522Q138 508 138 492Q138 479 142.5 468Q147 457 155.5 448.5Q164 440 175.5 435.5Q187 431 200 431Q213 431 226 436.5Q239 442 249.5 452.5Q260 463 266 477Q272 491 272 507Q272 520 267.5 531Q263 542 254.5 550.5Q246 559 234.5 563.5Q223 568 210 568Z" glyph-name="degree" horiz-adv-x="336" unicode="&#176;" /><glyph d="M274 571Q274 581 277.5 589.5Q281 598 287 604.5Q293 611 301.5 614.5Q310 618 319 618Q329 618 337.5 614.5Q346 611 352.5 604.5Q359 598 362.5 589.5Q366 581 366 571Q366 562 362.5 553.5Q359 545 352.5 538.5Q346 532 337.5 528.5Q329 525 319 525Q310 525 301.5 528.5Q293 532 287 538.5Q281 545 277.5 553.5Q274 562 274 571ZM133 571Q133 581 136.5 589.5Q140 598 146.5 604.5Q153 611 161.5 614.5Q170 618 180 618Q189 618 197.5 614.5Q206 611 212.5 604.5Q219 598 222.5 589.5Q226 581 226 571Q226 562 222.5 553.5Q219 545 212.5 538.5Q206 532 197.5 528.5Q189 525 180 525Q170 525 161.5 528.5Q153 532 146.5 538.5Q140 545 136.5 553.5Q133 562 133 571Z" glyph-name="dieresis" horiz-adv-x="500" unicode="&#168;" /><glyph d="M274 722Q274 732 277.5 740Q281 748 287 754.5Q293 761 301.5 764.5Q310 768 319 768Q329 768 337.5 764.5Q346 761 352.5 754.5Q359 748 362.5 740Q366 732 366 722Q366 712 362.5 704Q359 696 352.5 689.5Q346 683 337.5 679.5Q329 676 319 676Q310 676 301.5 679.5Q293 683 287 689.5Q281 696 277.5 704Q274 712 274 722ZM133 722Q133 732 136.5 740Q140 748 146.5 754.5Q153 761 161.5 764.5Q170 768 180 768Q189 768 197.5 764.5Q206 761 212.5 754.5Q219 748 222.5 740Q226 732 226 722Q226 712 222.5 704Q219 696 212.5 689.5Q206 683 197.5 679.5Q189 676 180 676Q170 676 161.5 679.5Q153 683 146.5 689.5Q140 696 136.5 704Q133 712 133 722Z" glyph-name="dieresis.cap" horiz-adv-x="500" /><glyph d="M260 458Q260 468 264 477.5Q268 487 275 494Q282 501 291 505Q300 509 310 509Q320 509 329.5 505Q339 501 346 494Q353 487 357 477.5Q361 468 361 458Q361 448 357 438.5Q353 429 346 422Q339 415 329.5 411Q320 407 310 407Q300 407 291 411Q282 415 275 422Q268 429 264 438.5Q260 448 260 458ZM79 266 90 328H485L474 266ZM204 136Q204 146 208 155.5Q212 165 218.5 172Q225 179 234.5 183Q244 187 254 187Q264 187 273.5 183Q283 179 290 172Q297 165 301 155.5Q305 146 305 136Q305 126 301 116.5Q297 107 290 100Q283 93 273.5 89Q264 85 254 85Q244 85 234.5 89Q225 93 218.5 100Q212 107 208 116.5Q204 126 204 136Z" glyph-name="divide" horiz-adv-x="540" unicode="&#247;" /><glyph d="M245 458Q245 468 249 477.5Q253 487 260 494Q267 501 276 505Q285 509 295 509Q305 509 314.5 505Q324 501 331 494Q338 487 342 477.5Q346 468 346 458Q346 448 342 438.5Q338 429 331 422Q324 415 314.5 411Q305 407 295 407Q285 407 276 411Q267 415 260 422Q253 429 249 438.5Q245 448 245 458ZM64 266 75 328H470L459 266ZM189 136Q189 146 193 155.5Q197 165 203.5 172Q210 179 219.5 183Q229 187 239 187Q249 187 258.5 183Q268 179 275 172Q282 165 286 155.5Q290 146 290 136Q290 126 286 116.5Q282 107 275 100Q268 93 258.5 89Q249 85 239 85Q229 85 219.5 89Q210 93 203.5 100Q197 107 193 116.5Q189 126 189 136Z" glyph-name="divide.lt" horiz-adv-x="520" /><glyph d="M211 -89H142L160 10Q135 13 112.5 18.5Q90 24 71 32Q52 40 37 49.5Q22 59 10 69L24 150Q42 132 62 118.5Q82 105 103.5 96Q125 87 148.5 82Q172 77 197 77Q228 77 254 83.5Q280 90 299.5 103Q319 116 329.5 135.5Q340 155 340 181Q340 196 335 207.5Q330 219 320 228.5Q310 238 296 246Q282 254 262 263L183 298Q160 308 140.5 320Q121 332 106 347.5Q91 363 82 384Q73 405 73 431Q73 471 89 503Q105 535 132.5 556.5Q160 578 194 590.5Q228 603 264 605L281 699H349L333 603Q352 600 369 595Q386 590 401 584Q416 578 429.5 570Q443 562 454 553L440 477Q424 491 407 502Q390 513 370.5 521Q351 529 329 533.5Q307 538 282 538Q255 538 231 532.5Q207 527 188.5 515Q170 503 159.5 484.5Q149 466 149 441Q149 426 154 415Q159 404 168.5 395.5Q178 387 191 379.5Q204 372 224 363L311 325Q337 314 356.5 300.5Q376 287 389 270.5Q402 254 409 235Q416 216 416 193Q416 153 402 121Q388 89 362.5 65.5Q337 42 303 28Q269 14 229 10Z" glyph-name="dollar" horiz-adv-x="455" unicode="$" /><glyph d="M239 -89H171L189 10Q164 13 141.5 18.5Q119 24 99.5 32Q80 40 65 49.5Q50 59 38 69L53 150Q71 132 90.5 118.5Q110 105 131.5 96Q153 87 176.5 82Q200 77 225 77Q256 77 282 83.5Q308 90 327.5 103Q347 116 357.5 135.5Q368 155 368 181Q368 196 363 207.5Q358 219 348.5 228.5Q339 238 325 246Q311 254 291 263L211 298Q188 308 169 320Q150 332 135 347.5Q120 363 111 384Q102 405 102 431Q102 471 118 503Q134 535 161.5 556.5Q189 578 223 590.5Q257 603 293 605L309 699H378L361 603Q380 600 397 595Q414 590 429.5 584Q445 578 458.5 570Q472 562 483 553L468 477Q452 491 435.5 502Q419 513 399.5 521Q380 529 357.5 533.5Q335 538 310 538Q283 538 259 532.5Q235 527 216.5 515Q198 503 187.5 484.5Q177 466 177 441Q177 426 182 415Q187 404 196.5 395.5Q206 387 219 379.5Q232 372 252 363L339 325Q365 314 384.5 300.5Q404 287 417 270.5Q430 254 437 235Q444 216 444 193Q444 153 430 121Q416 89 390.5 65.5Q365 42 331 28Q297 14 257 10Z" glyph-name="dollar.lt" horiz-adv-x="520" /><glyph d="M298 578Q298 568 294 559.5Q290 551 283.5 544.5Q277 538 268.5 534Q260 530 250 530Q240 530 231.5 534Q223 538 216.5 544.5Q210 551 206 559.5Q202 568 202 578Q202 588 206 597Q210 606 216.5 612.5Q223 619 231.5 622.5Q240 626 250 626Q260 626 268.5 622.5Q277 619 283.5 612.5Q290 606 294 597Q298 588 298 578Z" glyph-name="dotaccent" horiz-adv-x="500" unicode="&#729;" /><glyph d="M298 721Q298 711 294 702.5Q290 694 283.5 687.5Q277 681 268.5 677Q260 673 250 673Q240 673 231.5 677Q223 681 216.5 687.5Q210 694 206 702.5Q202 711 202 721Q202 731 206 740Q210 749 216.5 755.5Q223 762 231.5 766Q240 770 250 770Q260 770 268.5 766Q277 762 283.5 755.5Q290 749 294 740Q298 731 298 721Z" glyph-name="dotaccent.cap" horiz-adv-x="500" /><glyph d="M298 -108Q298 -118 294 -126.5Q290 -135 283.5 -141.5Q277 -148 268.5 -152Q260 -156 250 -156Q240 -156 231.5 -152Q223 -148 216.5 -141.5Q210 -135 206 -126.5Q202 -118 202 -108Q202 -98 206 -89Q210 -80 216.5 -73.5Q223 -67 231.5 -63.5Q240 -60 250 -60Q260 -60 268.5 -63.5Q277 -67 283.5 -73.5Q290 -80 294 -89Q298 -98 298 -108Z" glyph-name="dotbelow" horiz-adv-x="500" /><glyph d="M182 444 104 0H29L107 444Z" glyph-name="dotlessi" horiz-adv-x="209" unicode="&#305;" /><glyph d="M-93 -168 -81 -102Q-78 -105 -73.5 -107Q-69 -109 -64 -110.5Q-59 -112 -54 -113Q-49 -114 -43 -114Q-29 -114 -19 -110.5Q-9 -107 -1.5 -99Q6 -91 11.5 -78Q17 -65 20 -46L107 444H182L95 -51Q89 -82 77.5 -106Q66 -130 49 -146Q32 -162 9.5 -170.5Q-13 -179 -41 -179Q-50 -179 -57.5 -178Q-65 -177 -71.5 -175.5Q-78 -174 -83.5 -172Q-89 -170 -93 -168Z" glyph-name="dotlessj" horiz-adv-x="209" unicode="&#567;" /><glyph d="M267 389Q241 389 218 380Q195 371 176 354.5Q157 338 143.5 316Q130 294 121 268H351Q351 271 351.5 274.5Q352 278 352.5 281Q353 284 353 287Q353 290 353 293Q353 313 348 330.5Q343 348 332.5 361Q322 374 305.5 381.5Q289 389 267 389ZM360 27Q346 17 329.5 10Q313 3 296 -1Q279 -5 261 -7Q243 -9 225 -9Q180 -9 144.5 4.5Q109 18 84.5 43.5Q60 69 47 104.5Q34 140 34 183Q34 234 50 282.5Q66 331 96.5 369.5Q127 408 171.5 430.5Q216 453 270 453Q307 453 336 441.5Q365 430 384.5 408Q404 386 413.5 355Q423 324 423 285Q423 276 422.5 267Q422 258 420.5 248.5Q419 239 417.5 229.5Q416 220 414 209H109Q109 206 108.5 203Q108 200 108 197Q108 194 108 191.5Q108 189 108 185Q108 154 117.5 130Q127 106 144 89.5Q161 73 185 64.5Q209 56 237 56Q256 56 273.5 58.5Q291 61 308 66.5Q325 72 341.5 80.5Q358 89 374 101Z" glyph-name="e" horiz-adv-x="450" unicode="e" /><glyph d="M316 516H245L348 650H429ZM267 389Q241 389 218 380Q195 371 176 354.5Q157 338 143.5 316Q130 294 121 268H351Q351 271 351.5 274.5Q352 278 352.5 281Q353 284 353 287Q353 290 353 293Q353 313 348 330.5Q343 348 332.5 361Q322 374 305.5 381.5Q289 389 267 389ZM360 27Q346 17 329.5 10Q313 3 296 -1Q279 -5 261 -7Q243 -9 225 -9Q180 -9 144.5 4.5Q109 18 84.5 43.5Q60 69 47 104.5Q34 140 34 183Q34 234 50 282.5Q66 331 96.5 369.5Q127 408 171.5 430.5Q216 453 270 453Q307 453 336 441.5Q365 430 384.5 408Q404 386 413.5 355Q423 324 423 285Q423 276 422.5 267Q422 258 420.5 248.5Q419 239 417.5 229.5Q416 220 414 209H109Q109 206 108.5 203Q108 200 108 197Q108 194 108 191.5Q108 189 108 185Q108 154 117.5 130Q127 106 144 89.5Q161 73 185 64.5Q209 56 237 56Q256 56 273.5 58.5Q291 61 308 66.5Q325 72 341.5 80.5Q358 89 374 101Z" glyph-name="eacute" horiz-adv-x="450" unicode="&#233;" /><glyph d="M267 389Q241 389 218 380Q195 371 176 354.5Q157 338 143.5 316Q130 294 121 268H351Q351 271 351.5 274.5Q352 278 352.5 281Q353 284 353 287Q353 290 353 293Q353 313 348 330.5Q343 348 332.5 361Q322 374 305.5 381.5Q289 389 267 389ZM360 27Q346 17 329.5 10Q313 3 296 -1Q279 -5 261 -7Q243 -9 225 -9Q180 -9 144.5 4.5Q109 18 84.5 43.5Q60 69 47 104.5Q34 140 34 183Q34 234 50 282.5Q66 331 96.5 369.5Q127 408 171.5 430.5Q216 453 270 453Q307 453 336 441.5Q365 430 384.5 408Q404 386 413.5 355Q423 324 423 285Q423 276 422.5 267Q422 258 420.5 248.5Q419 239 417.5 229.5Q416 220 414 209H109Q109 206 108.5 203Q108 200 108 197Q108 194 108 191.5Q108 189 108 185Q108 154 117.5 130Q127 106 144 89.5Q161 73 185 64.5Q209 56 237 56Q256 56 273.5 58.5Q291 61 308 66.5Q325 72 341.5 80.5Q358 89 374 101ZM285 500Q261 500 241 508.5Q221 517 207.5 533.5Q194 550 189.5 574Q185 598 190 628H247Q244 611 245.5 597.5Q247 584 252.5 574.5Q258 565 267.5 560Q277 555 291 555Q304 555 315.5 560Q327 565 336 574.5Q345 584 351.5 597.5Q358 611 361 628H418Q412 597 400.5 573Q389 549 371.5 533Q354 517 332 508.5Q310 500 285 500Z" glyph-name="ebreve" horiz-adv-x="450" unicode="&#277;" /><glyph d="M252 510 183 646H245L292 558L369 646H437L321 510ZM267 389Q241 389 218 380Q195 371 176 354.5Q157 338 143.5 316Q130 294 121 268H351Q351 271 351.5 274.5Q352 278 352.5 281Q353 284 353 287Q353 290 353 293Q353 313 348 330.5Q343 348 332.5 361Q322 374 305.5 381.5Q289 389 267 389ZM360 27Q346 17 329.5 10Q313 3 296 -1Q279 -5 261 -7Q243 -9 225 -9Q180 -9 144.5 4.5Q109 18 84.5 43.5Q60 69 47 104.5Q34 140 34 183Q34 234 50 282.5Q66 331 96.5 369.5Q127 408 171.5 430.5Q216 453 270 453Q307 453 336 441.5Q365 430 384.5 408Q404 386 413.5 355Q423 324 423 285Q423 276 422.5 267Q422 258 420.5 248.5Q419 239 417.5 229.5Q416 220 414 209H109Q109 206 108.5 203Q108 200 108 197Q108 194 108 191.5Q108 189 108 185Q108 154 117.5 130Q127 106 144 89.5Q161 73 185 64.5Q209 56 237 56Q256 56 273.5 58.5Q291 61 308 66.5Q325 72 341.5 80.5Q358 89 374 101Z" glyph-name="ecaron" horiz-adv-x="450" unicode="&#283;" /><glyph d="M339 645 408 509H346L299 597L222 509H154L270 645ZM267 389Q241 389 218 380Q195 371 176 354.5Q157 338 143.5 316Q130 294 121 268H351Q351 271 351.5 274.5Q352 278 352.5 281Q353 284 353 287Q353 290 353 293Q353 313 348 330.5Q343 348 332.5 361Q322 374 305.5 381.5Q289 389 267 389ZM360 27Q346 17 329.5 10Q313 3 296 -1Q279 -5 261 -7Q243 -9 225 -9Q180 -9 144.5 4.5Q109 18 84.5 43.5Q60 69 47 104.5Q34 140 34 183Q34 234 50 282.5Q66 331 96.5 369.5Q127 408 171.5 430.5Q216 453 270 453Q307 453 336 441.5Q365 430 384.5 408Q404 386 413.5 355Q423 324 423 285Q423 276 422.5 267Q422 258 420.5 248.5Q419 239 417.5 229.5Q416 220 414 209H109Q109 206 108.5 203Q108 200 108 197Q108 194 108 191.5Q108 189 108 185Q108 154 117.5 130Q127 106 144 89.5Q161 73 185 64.5Q209 56 237 56Q256 56 273.5 58.5Q291 61 308 66.5Q325 72 341.5 80.5Q358 89 374 101Z" glyph-name="ecircumflex" horiz-adv-x="450" unicode="&#234;" /><glyph d="M321 571Q321 581 324.5 589.5Q328 598 334 604.5Q340 611 348.5 614.5Q357 618 366 618Q376 618 384.5 614.5Q393 611 399.5 604.5Q406 598 409.5 589.5Q413 581 413 571Q413 562 409.5 553.5Q406 545 399.5 538.5Q393 532 384.5 528.5Q376 525 366 525Q357 525 348.5 528.5Q340 532 334 538.5Q328 545 324.5 553.5Q321 562 321 571ZM180 571Q180 581 183.5 589.5Q187 598 193.5 604.5Q200 611 208.5 614.5Q217 618 227 618Q236 618 244.5 614.5Q253 611 259.5 604.5Q266 598 269.5 589.5Q273 581 273 571Q273 562 269.5 553.5Q266 545 259.5 538.5Q253 532 244.5 528.5Q236 525 227 525Q217 525 208.5 528.5Q200 532 193.5 538.5Q187 545 183.5 553.5Q180 562 180 571ZM267 389Q241 389 218 380Q195 371 176 354.5Q157 338 143.5 316Q130 294 121 268H351Q351 271 351.5 274.5Q352 278 352.5 281Q353 284 353 287Q353 290 353 293Q353 313 348 330.5Q343 348 332.5 361Q322 374 305.5 381.5Q289 389 267 389ZM360 27Q346 17 329.5 10Q313 3 296 -1Q279 -5 261 -7Q243 -9 225 -9Q180 -9 144.5 4.5Q109 18 84.5 43.5Q60 69 47 104.5Q34 140 34 183Q34 234 50 282.5Q66 331 96.5 369.5Q127 408 171.5 430.5Q216 453 270 453Q307 453 336 441.5Q365 430 384.5 408Q404 386 413.5 355Q423 324 423 285Q423 276 422.5 267Q422 258 420.5 248.5Q419 239 417.5 229.5Q416 220 414 209H109Q109 206 108.5 203Q108 200 108 197Q108 194 108 191.5Q108 189 108 185Q108 154 117.5 130Q127 106 144 89.5Q161 73 185 64.5Q209 56 237 56Q256 56 273.5 58.5Q291 61 308 66.5Q325 72 341.5 80.5Q358 89 374 101Z" glyph-name="edieresis" horiz-adv-x="450" unicode="&#235;" /><glyph d="M267 389Q241 389 218 380Q195 371 176 354.5Q157 338 143.5 316Q130 294 121 268H351Q351 271 351.5 274.5Q352 278 352.5 281Q353 284 353 287Q353 290 353 293Q353 313 348 330.5Q343 348 332.5 361Q322 374 305.5 381.5Q289 389 267 389ZM360 27Q346 17 329.5 10Q313 3 296 -1Q279 -5 261 -7Q243 -9 225 -9Q180 -9 144.5 4.5Q109 18 84.5 43.5Q60 69 47 104.5Q34 140 34 183Q34 234 50 282.5Q66 331 96.5 369.5Q127 408 171.5 430.5Q216 453 270 453Q307 453 336 441.5Q365 430 384.5 408Q404 386 413.5 355Q423 324 423 285Q423 276 422.5 267Q422 258 420.5 248.5Q419 239 417.5 229.5Q416 220 414 209H109Q109 206 108.5 203Q108 200 108 197Q108 194 108 191.5Q108 189 108 185Q108 154 117.5 130Q127 106 144 89.5Q161 73 185 64.5Q209 56 237 56Q256 56 273.5 58.5Q291 61 308 66.5Q325 72 341.5 80.5Q358 89 374 101ZM345 578Q345 568 341 559.5Q337 551 330.5 544.5Q324 538 315.5 534Q307 530 297 530Q287 530 278.5 534Q270 538 263.5 544.5Q257 551 253 559.5Q249 568 249 578Q249 588 253 597Q257 606 263.5 612.5Q270 619 278.5 622.5Q287 626 297 626Q307 626 315.5 622.5Q324 619 330.5 612.5Q337 606 341 597Q345 588 345 578Z" glyph-name="edotaccent" horiz-adv-x="450" unicode="&#279;" /><glyph d="M267 389Q241 389 218 380Q195 371 176 354.5Q157 338 143.5 316Q130 294 121 268H351Q351 271 351.5 274.5Q352 278 352.5 281Q353 284 353 287Q353 290 353 293Q353 313 348 330.5Q343 348 332.5 361Q322 374 305.5 381.5Q289 389 267 389ZM360 27Q346 17 329.5 10Q313 3 296 -1Q279 -5 261 -7Q243 -9 225 -9Q180 -9 144.5 4.5Q109 18 84.5 43.5Q60 69 47 104.5Q34 140 34 183Q34 234 50 282.5Q66 331 96.5 369.5Q127 408 171.5 430.5Q216 453 270 453Q307 453 336 441.5Q365 430 384.5 408Q404 386 413.5 355Q423 324 423 285Q423 276 422.5 267Q422 258 420.5 248.5Q419 239 417.5 229.5Q416 220 414 209H109Q109 206 108.5 203Q108 200 108 197Q108 194 108 191.5Q108 189 108 185Q108 154 117.5 130Q127 106 144 89.5Q161 73 185 64.5Q209 56 237 56Q256 56 273.5 58.5Q291 61 308 66.5Q325 72 341.5 80.5Q358 89 374 101ZM318 516H253L188 650H261Z" glyph-name="egrave" horiz-adv-x="450" unicode="&#232;" /><glyph d="M225 -9Q188 -9 152.5 1Q117 11 88.5 31.5Q60 52 43.5 83Q27 114 27 154Q27 188 39 218Q51 248 72 271Q93 294 120 309Q147 324 177 329Q160 337 146.5 348.5Q133 360 123 375.5Q113 391 107.5 409.5Q102 428 102 449Q102 486 117 518Q132 550 159.5 573.5Q187 597 223.5 610Q260 623 301 623Q338 623 370.5 613Q403 603 427.5 583.5Q452 564 466 536.5Q480 509 480 474Q480 445 470.5 419.5Q461 394 443.5 373.5Q426 353 403.5 338.5Q381 324 355 317Q376 308 393.5 295Q411 282 423.5 265Q436 248 443 226.5Q450 205 450 181Q450 137 431.5 101.5Q413 66 381 41.5Q349 17 309 4Q269 -9 225 -9ZM403 470Q403 490 395 506.5Q387 523 373 535Q359 547 340.5 553Q322 559 301 559Q275 559 252.5 550.5Q230 542 213 527Q196 512 186.5 491Q177 470 177 445Q177 425 185 408Q193 391 207 379.5Q221 368 239.5 361.5Q258 355 279 355Q305 355 327.5 363.5Q350 372 367 387.5Q384 403 393.5 424Q403 445 403 470ZM104 160Q104 137 113.5 117.5Q123 98 139.5 84Q156 70 178.5 62.5Q201 55 227 55Q257 55 284 64Q311 73 331 90.5Q351 108 362.5 132Q374 156 374 185Q374 209 365 228.5Q356 248 339 262Q322 276 299 283.5Q276 291 249 291Q220 291 193.5 281.5Q167 272 147 254.5Q127 237 115.5 213Q104 189 104 160Z" glyph-name="eight" horiz-adv-x="487" unicode="8" /><glyph d="M234 -9Q197 -9 161.5 1Q126 11 97.5 32Q69 53 52.5 83.5Q36 114 36 154Q36 188 48 218Q60 248 81.5 271Q103 294 130 309Q157 324 187 329Q170 337 156.5 348.5Q143 360 133 375.5Q123 391 117.5 409.5Q112 428 112 449Q112 486 127 518Q142 550 169.5 573.5Q197 597 233.5 610Q270 623 311 623Q348 623 380.5 613Q413 603 437.5 583.5Q462 564 476 536.5Q490 509 490 474Q490 445 480.5 419.5Q471 394 453.5 373.5Q436 353 413.5 338.5Q391 324 365 317Q386 308 403.5 295Q421 282 433.5 265Q446 248 453 226.5Q460 205 460 181Q460 137 441.5 101.5Q423 66 391 41.5Q359 17 318.5 4Q278 -9 234 -9ZM413 470Q413 490 405 506.5Q397 523 383 535Q369 547 350.5 553Q332 559 311 559Q285 559 262.5 550.5Q240 542 223 527Q206 512 196.5 491Q187 470 187 445Q187 425 195 408Q203 391 217 379.5Q231 368 249.5 361.5Q268 355 289 355Q315 355 337.5 363.5Q360 372 377 387.5Q394 403 403.5 424Q413 445 413 470ZM114 160Q114 137 123.5 117.5Q133 98 149.5 84Q166 70 188.5 62.5Q211 55 237 55Q267 55 294 64Q321 73 341 90.5Q361 108 372.5 132Q384 156 384 185Q384 209 374.5 228.5Q365 248 348 262Q331 276 308.5 283.5Q286 291 259 291Q229 291 202.5 281.5Q176 272 156 254.5Q136 237 125 213Q114 189 114 160Z" glyph-name="eight.lt" horiz-adv-x="520" /><glyph d="M150 -4Q129 -4 108.5 1.5Q88 7 71.5 18Q55 29 45.5 46.5Q36 64 36 86Q36 103 42 118Q48 133 58 145Q68 157 81 165Q94 173 109 176Q101 180 94 186.5Q87 193 82.5 201.5Q78 210 75.5 219.5Q73 229 73 239Q73 261 82 279.5Q91 298 107 311Q123 324 144 331Q165 338 188 338Q209 338 227.5 332.5Q246 327 260.5 316Q275 305 283 289Q291 273 291 253Q291 238 286.5 225Q282 212 273.5 200.5Q265 189 253.5 181Q242 173 229 168Q239 163 247.5 156.5Q256 150 262.5 141Q269 132 272.5 121.5Q276 111 276 99Q276 75 265.5 55.5Q255 36 237.5 23Q220 10 197 3Q174 -4 150 -4ZM232 248Q232 257 228.5 264.5Q225 272 218.5 277.5Q212 283 203.5 286Q195 289 186 289Q174 289 164 285.5Q154 282 146.5 275.5Q139 269 135 259.5Q131 250 131 239Q131 230 134.5 222.5Q138 215 144 209.5Q150 204 158.5 201.5Q167 199 176 199Q188 199 198 202.5Q208 206 216 212.5Q224 219 228 228Q232 237 232 248ZM97 92Q97 82 101 73Q105 64 112.5 58Q120 52 129.5 48.5Q139 45 151 45Q164 45 175.5 49Q187 53 196 60.5Q205 68 210 78.5Q215 89 215 101Q215 111 211 119.5Q207 128 199.5 134.5Q192 141 182.5 144Q173 147 161 147Q148 147 136.5 143Q125 139 116 131.5Q107 124 102 114Q97 104 97 92Z" glyph-name="eightinferior" horiz-adv-x="345" unicode="&#8328;" /><glyph d="M390 49Q390 60 394 70.5Q398 81 405.5 88.5Q413 96 422.5 100Q432 104 443 104Q454 104 463.5 100Q473 96 480.5 88.5Q488 81 492 70.5Q496 60 496 49Q496 38 492 28Q488 18 481 10.5Q474 3 464 -1Q454 -5 443 -5Q432 -5 422 -1Q412 3 405 10.5Q398 18 394 28Q390 38 390 49ZM198 49Q198 60 202 70.5Q206 81 213.5 88.5Q221 96 230.5 100Q240 104 251 104Q262 104 272 100Q282 96 289.5 88.5Q297 81 301 70.5Q305 60 305 49Q305 38 301 28Q297 18 289.5 10.5Q282 3 272 -1Q262 -5 251 -5Q240 -5 230.5 -1Q221 3 213.5 10.5Q206 18 202 28Q198 38 198 49ZM7 49Q7 60 11 70.5Q15 81 22.5 88.5Q30 96 39.5 100Q49 104 60 104Q71 104 80.5 100Q90 96 97.5 88.5Q105 81 109 70.5Q113 60 113 49Q113 38 109 28Q105 18 98 10.5Q91 3 81 -1Q71 -5 60 -5Q49 -5 39 -1Q29 3 22 10.5Q15 18 11 28Q7 38 7 49Z" glyph-name="ellipsis" horiz-adv-x="554" unicode="&#8230;" /><glyph d="M267 389Q241 389 218 380Q195 371 176 354.5Q157 338 143.5 316Q130 294 121 268H351Q351 271 351.5 274.5Q352 278 352.5 281Q353 284 353 287Q353 290 353 293Q353 313 348 330.5Q343 348 332.5 361Q322 374 305.5 381.5Q289 389 267 389ZM360 27Q346 17 329.5 10Q313 3 296 -1Q279 -5 261 -7Q243 -9 225 -9Q180 -9 144.5 4.5Q109 18 84.5 43.5Q60 69 47 104.5Q34 140 34 183Q34 234 50 282.5Q66 331 96.5 369.5Q127 408 171.5 430.5Q216 453 270 453Q307 453 336 441.5Q365 430 384.5 408Q404 386 413.5 355Q423 324 423 285Q423 276 422.5 267Q422 258 420.5 248.5Q419 239 417.5 229.5Q416 220 414 209H109Q109 206 108.5 203Q108 200 108 197Q108 194 108 191.5Q108 189 108 185Q108 154 117.5 130Q127 106 144 89.5Q161 73 185 64.5Q209 56 237 56Q256 56 273.5 58.5Q291 61 308 66.5Q325 72 341.5 80.5Q358 89 374 101ZM181 530 192 591H406L395 530Z" glyph-name="emacron" horiz-adv-x="450" unicode="&#275;" /><glyph d="M43 231 53 292H819L809 231Z" glyph-name="emdash" horiz-adv-x="846" unicode="&#8212;" /><glyph d="M50 271 60 332H826L816 271Z" glyph-name="emdash.cap" horiz-adv-x="846" /><glyph d="M43 231 53 292H448L438 231Z" glyph-name="endash" horiz-adv-x="475" unicode="&#8211;" /><glyph d="M50 271 60 332H455L445 271Z" glyph-name="endash.cap" horiz-adv-x="475" /><glyph d="M194 -168 205 -102Q208 -105 212.5 -107Q217 -109 222 -110.5Q227 -112 232.5 -113Q238 -114 244 -114Q257 -114 267.5 -110.5Q278 -107 285.5 -99Q293 -91 298.5 -78Q304 -65 307 -46L364 279Q365 283 365.5 287Q366 291 366.5 294.5Q367 298 367 301.5Q367 305 367 308Q367 325 362 339Q357 353 347.5 363Q338 373 322.5 378.5Q307 384 287 384Q267 384 248 377.5Q229 371 211.5 359.5Q194 348 180 333Q166 318 157 300L104 0H29L107 444H182L172 387Q184 401 199 412.5Q214 424 232 433.5Q250 443 271 448Q292 453 314 453Q345 453 369.5 443.5Q394 434 411 417Q428 400 436.5 376.5Q445 353 445 325Q445 321 445 317Q445 313 444.5 308.5Q444 304 443.5 300Q443 296 442 291L381 -51Q376 -82 364.5 -106Q353 -130 336 -146Q319 -162 296 -170.5Q273 -179 245 -179Q236 -179 228.5 -178Q221 -177 215 -175.5Q209 -174 203.5 -172Q198 -170 194 -168Z" glyph-name="eng" horiz-adv-x="489" unicode="&#331;" /><glyph d="M414 209H109Q109 207 108.5 203.5Q108 200 108 197Q108 194 108 191Q108 188 108 185Q108 154 117.5 130Q127 106 144 89.5Q161 73 185 64.5Q209 56 237 56Q256 56 273.5 58.5Q291 61 308 66.5Q325 72 341.5 80.5Q358 89 374 101L360 27Q352 21 347 18Q342 15 337.5 12Q333 9 329 5Q325 1 320 -3Q306 -16 293.5 -30Q281 -44 272 -59Q263 -74 258 -88Q253 -102 253 -113Q253 -118 254 -121.5Q255 -125 257.5 -127.5Q260 -130 263 -131Q266 -132 271 -132Q276 -132 280.5 -131Q285 -130 289.5 -128.5Q294 -127 299 -124Q304 -121 311 -117L302 -167Q295 -171 288.5 -174.5Q282 -178 275.5 -180.5Q269 -183 262 -184.5Q255 -186 247 -186Q233 -186 222.5 -182.5Q212 -179 205 -172Q198 -165 194.5 -155.5Q191 -146 191 -134Q191 -118 196 -102Q201 -86 209.5 -70Q218 -54 230.5 -38.5Q243 -23 258 -7Q256 -8 251.5 -8.5Q247 -9 242 -9Q237 -9 233 -9Q229 -9 225 -9Q180 -9 144.5 4.5Q109 18 84.5 43.5Q60 69 47 104.5Q34 140 34 183Q34 234 50 282.5Q66 331 96.5 369.5Q127 408 171.5 430.5Q216 453 270 453Q307 453 336 441.5Q365 430 384.5 408Q404 386 413.5 355Q423 324 423 285Q423 276 422.5 267Q422 258 420.5 248.5Q419 239 417.5 229.5Q416 220 414 209ZM267 389Q241 389 217.5 380Q194 371 175.5 354.5Q157 338 143 316Q129 294 121 268H351Q351 271 351.5 274.5Q352 278 352.5 281Q353 284 353 287Q353 290 353 293Q353 313 348 330.5Q343 348 332.5 361Q322 374 305.5 381.5Q289 389 267 389Z" glyph-name="eogonek" horiz-adv-x="450" unicode="&#281;" /><glyph d="M98 337 108 397H502L492 337ZM73 199 83 257H478L468 199Z" glyph-name="equal" horiz-adv-x="551" unicode="=" /><glyph d="M77 337 87 397H481L471 337ZM52 199 62 257H457L447 199Z" glyph-name="equal.lt" horiz-adv-x="520" /><glyph d="M217 -9Q174 -9 140 5Q106 19 82.5 44.5Q59 70 46.5 105.5Q34 141 34 184Q34 241 51.5 290.5Q69 340 100 376.5Q131 413 171 433Q211 453 256 453Q271 453 285.5 450.5Q300 448 313 443Q326 438 337 430Q348 422 355 412H359Q356 424 350 438Q344 452 336.5 467Q329 482 319 497.5Q309 513 297 529L197 496L180 541L265 569Q256 579 247 589Q238 599 228 608.5Q218 618 207 627.5Q196 637 185 646V650H272Q280 644 288 637Q296 630 303.5 622.5Q311 615 318.5 607.5Q326 600 333 592L417 620L432 574L363 551Q383 521 398 488Q413 455 423.5 420.5Q434 386 439 351Q444 316 444 282Q444 217 426.5 163Q409 109 377.5 70.5Q346 32 305 11.5Q264 -9 217 -9ZM217 57Q249 57 277 72Q305 87 325.5 114Q346 141 357 178.5Q368 216 368 260Q368 289 360.5 312.5Q353 336 339.5 352.5Q326 369 306 378Q286 387 261 387Q229 387 201.5 372Q174 357 153.5 330Q133 303 121.5 265.5Q110 228 110 184Q110 155 117.5 131.5Q125 108 138.5 91.5Q152 75 172 66Q192 57 217 57Z" glyph-name="eth" horiz-adv-x="478" unicode="&#240;" /><glyph d="M74 193 132 614H222L128 193ZM25 49Q25 60 29 70.5Q33 81 40.5 88.5Q48 96 57.5 100Q67 104 78 104Q89 104 99 100Q109 96 116.5 88.5Q124 81 128 70.5Q132 60 132 49Q132 38 128 28Q124 18 116.5 10.5Q109 3 99 -1Q89 -5 78 -5Q67 -5 57.5 -1Q48 3 40.5 10.5Q33 18 29 28Q25 38 25 49Z" glyph-name="exclam" horiz-adv-x="203" unicode="!" /><glyph d="M209 469Q209 458 205 447.5Q201 437 193.5 429.5Q186 422 176.5 418Q167 414 156 414Q145 414 135 418Q125 422 117.5 429.5Q110 437 106 447.5Q102 458 102 469Q102 480 106 490Q110 500 117.5 507.5Q125 515 135 519Q145 523 156 523Q167 523 176.5 519Q186 515 193.5 507.5Q201 500 205 490Q209 480 209 469ZM160 325 102 -96H12L106 325Z" glyph-name="exclamdown" horiz-adv-x="209" unicode="&#161;" /><glyph d="M217 565Q217 554 213 543.5Q209 533 201.5 525.5Q194 518 184.5 514Q175 510 164 510Q153 510 143 514Q133 518 125.5 525.5Q118 533 114 543.5Q110 554 110 565Q110 576 114 586Q118 596 125.5 603.5Q133 611 143 615Q153 619 164 619Q175 619 184.5 615Q194 611 201.5 603.5Q209 596 213 586Q217 576 217 565ZM168 421 110 0H20L114 421Z" glyph-name="exclamdown.cap" horiz-adv-x="203" /><glyph d="M365 649 353 582Q348 585 343 587Q338 589 333 590.5Q328 592 322 592.5Q316 593 310 593Q293 593 278 588Q263 583 251.5 572.5Q240 562 232.5 547Q225 532 221 512L209 444H310L298 380H198L131 0H57L123 380H49L60 444H135L148 518Q154 551 168.5 577Q183 603 204 621.5Q225 640 251 649.5Q277 659 307 659Q316 659 324 658.5Q332 658 339 656.5Q346 655 352.5 653.5Q359 652 365 649Z" glyph-name="f" horiz-adv-x="289" unicode="f" /><glyph d="M626 649 614 582Q609 585 604 587Q599 589 594 590.5Q589 592 583 592.5Q577 593 571 593Q554 593 539 588Q524 583 512.5 572.5Q501 562 493 547Q485 532 482 512L470 444H571L559 380H459L392 0H318L384 380H198L131 0H57L123 380H49L60 444H135L147 512Q153 545 167.5 571Q182 597 203 615.5Q224 634 250 643.5Q276 653 306 653Q315 653 323 652.5Q331 652 338 650.5Q345 649 351.5 647.5Q358 646 364 643L352 576Q347 579 342 581Q337 583 332 584.5Q327 586 321 586.5Q315 587 309 587Q292 587 277 582Q262 577 250.5 566.5Q239 556 231.5 541Q224 526 220 506L209 444H396L409 518Q415 551 429 577Q443 603 464.5 621.5Q486 640 512 649.5Q538 659 568 659Q576 659 584 658.5Q592 658 599.5 656.5Q607 655 613.5 653.5Q620 652 626 649Z" glyph-name="f_f" horiz-adv-x="550" unicode="&#64256;" /><glyph d="M506 578Q506 568 502 559.5Q498 551 491.5 544.5Q485 538 476 534Q467 530 457 530Q447 530 438.5 534Q430 538 423.5 544.5Q417 551 413 559.5Q409 568 409 578Q409 588 413 597Q417 606 423.5 612.5Q430 619 438.5 622.5Q447 626 457 626Q467 626 476 622.5Q485 619 491.5 612.5Q498 606 502 597Q506 588 506 578ZM471 444 393 0H318L396 444ZM365 649 353 582Q348 585 343 587Q338 589 333 590.5Q328 592 322 592.5Q316 593 310 593Q293 593 278 588Q263 583 251.5 572.5Q240 562 232.5 547Q225 532 221 512L209 444H310L298 380H198L131 0H57L123 380H49L60 444H135L148 518Q154 551 168.5 577Q183 603 204 621.5Q225 640 251 649.5Q277 659 307 659Q316 659 324 658.5Q332 658 339 656.5Q346 655 352.5 653.5Q359 652 365 649Z" glyph-name="fi" horiz-adv-x="498" unicode="&#64257;" /><glyph d="M413 215Q413 169 394.5 128Q376 87 343 56Q310 25 266 8Q222 -9 173 -9Q145 -9 120.5 -5.5Q96 -2 75.5 5Q55 12 38 21Q21 30 8 42L23 124Q36 108 52.5 96Q69 84 88 75.5Q107 67 128.5 63Q150 59 173 59Q205 59 235 69.5Q265 80 288.5 99.5Q312 119 325.5 147Q339 175 339 209Q339 235 330 255.5Q321 276 304 290Q287 304 263.5 311Q240 318 211 318Q190 318 172.5 316Q155 314 139 310.5Q123 307 108 301.5Q93 296 75 289L133 614H455L442 544H185L155 375Q162 377 170.5 379Q179 381 188.5 382.5Q198 384 208.5 384.5Q219 385 229 385Q269 385 302.5 374Q336 363 361 341Q386 319 399.5 287Q413 255 413 215Z" glyph-name="five" horiz-adv-x="444" unicode="5" /><glyph d="M445 215Q445 169 426.5 128Q408 87 374 56Q340 25 295.5 8Q251 -9 200 -9Q171 -9 146 -5.5Q121 -2 100 5Q79 12 62 21Q45 30 32 42L47 124Q61 108 77.5 96Q94 84 113.5 75.5Q133 67 154.5 63Q176 59 200 59Q233 59 264 69.5Q295 80 319.5 99.5Q344 119 358 147Q372 175 372 209Q372 235 362.5 255.5Q353 276 335 290Q317 304 292.5 311Q268 318 239 318Q218 318 200 316Q182 314 166 310.5Q150 307 134.5 302Q119 297 100 289L159 614H488L476 544H211L180 373Q187 375 196 377.5Q205 380 215.5 381.5Q226 383 236.5 384Q247 385 257 385Q298 385 332.5 374Q367 363 392.5 341Q418 319 431.5 287Q445 255 445 215Z" glyph-name="five.lt" horiz-adv-x="520" /><glyph d="M276 400Q276 373 265.5 350Q255 327 236.5 310.5Q218 294 193 285Q168 276 140 276Q124 276 110 278Q96 280 84.5 284Q73 288 63.5 293Q54 298 47 304L57 365Q64 356 73 349.5Q82 343 93 338.5Q104 334 116 332Q128 330 141 330Q156 330 169.5 334Q183 338 194 346Q205 354 211 366Q217 378 217 393Q217 405 212.5 414Q208 423 200 429.5Q192 436 180.5 439Q169 442 155 442Q145 442 135 441Q125 440 115.5 438.5Q106 437 97.5 434Q89 431 80 428L113 614H298L288 558H154L143 490Q147 491 150.5 492Q154 493 158 493.5Q162 494 166 494.5Q170 495 174 495Q197 495 216 488.5Q235 482 248.5 470Q262 458 269 440Q276 422 276 400Z" glyph-name="fivesuperior" horiz-adv-x="272" unicode="&#8309;" /><glyph d="M507 650 393 0H318L432 650ZM365 649 353 582Q348 585 343 587Q338 589 333 590.5Q328 592 322 592.5Q316 593 310 593Q293 593 278 588Q263 583 251.5 572.5Q240 562 232.5 547Q225 532 221 512L209 444H310L298 380H198L131 0H57L123 380H49L60 444H135L148 518Q154 551 168.5 577Q183 603 204 621.5Q225 640 251 649.5Q277 659 307 659Q316 659 324 658.5Q332 658 339 656.5Q346 655 352.5 653.5Q359 652 365 649Z" glyph-name="fl" horiz-adv-x="498" unicode="&#64258;" /><glyph d="M-21 -177Q-32 -177 -42 -176Q-52 -175 -60 -173.5Q-68 -172 -75 -170Q-82 -168 -88 -165L-76 -97Q-70 -100 -63.5 -103Q-57 -106 -50.5 -107.5Q-44 -109 -36.5 -110Q-29 -111 -21 -111Q-5 -111 7 -106.5Q19 -102 28.5 -92.5Q38 -83 45 -68.5Q52 -54 59 -33L154 281H75L87 344H173L215 485Q225 518 241 544Q257 570 278.5 587.5Q300 605 325.5 614Q351 623 380 623Q391 623 400.5 622.5Q410 622 418.5 620.5Q427 619 434 616.5Q441 614 447 611L435 543Q428 547 422 549.5Q416 552 409.5 553.5Q403 555 395.5 556Q388 557 380 557Q363 557 349.5 552.5Q336 548 325 538.5Q314 529 305.5 514.5Q297 500 291 479L250 344H341L330 281H231L134 -39Q124 -72 109 -98Q94 -124 75 -141.5Q56 -159 32 -168Q8 -177 -21 -177Z" glyph-name="florin" horiz-adv-x="402" unicode="&#402;" /><glyph d="M59 -177Q48 -177 38 -176Q28 -175 20 -173.5Q12 -172 5 -170Q-2 -168 -8 -165L4 -97Q10 -100 16.5 -103Q23 -106 29.5 -107.5Q36 -109 43.5 -110Q51 -111 59 -111Q75 -111 87 -106.5Q99 -102 108.5 -92.5Q118 -83 125 -68.5Q132 -54 139 -33L234 281H155L167 344H253L295 485Q305 518 321 544Q337 570 358.5 587.5Q380 605 405.5 614Q431 623 460 623Q471 623 480.5 622.5Q490 622 498.5 620.5Q507 619 514 616.5Q521 614 527 611L515 543Q508 547 502 549.5Q496 552 489.5 553.5Q483 555 475.5 556Q468 557 460 557Q443 557 429.5 552.5Q416 548 405 538.5Q394 529 385.5 514.5Q377 500 371 479L330 344H421L410 281H311L214 -39Q204 -72 189 -98Q174 -124 155 -141.5Q136 -159 112 -168Q88 -177 59 -177Z" glyph-name="florin.lt" horiz-adv-x="520" /><glyph d="M392 614 133 205H313L339 353H413L386 205H488L477 139H375L351 0H277L301 139H12V143L310 614Z" glyph-name="four" horiz-adv-x="508" unicode="4" /><glyph d="M392 614 133 205H313L339 353H413L386 205H488L477 139H375L351 0H277L301 139H12V143L310 614Z" glyph-name="four.lt" horiz-adv-x="520" /><glyph d="M265 333 132 123H209L220 190H276L265 123H312L302 70H255L243 0H187L199 70H36V72L202 333Z" glyph-name="fourinferior" horiz-adv-x="342" unicode="&#8324;" /><glyph d="M416 614 -119 0H-188L347 614Z" glyph-name="fraction" horiz-adv-x="210" unicode="&#8260;" /><glyph d="M347 144 377 314Q372 330 362 343.5Q352 357 338.5 366.5Q325 376 308 381Q291 386 272 386Q234 386 204 369Q174 352 153 323.5Q132 295 121 259.5Q110 224 110 187Q110 160 117 138Q124 116 137.5 100Q151 84 171.5 75.5Q192 67 217 67Q237 67 255.5 72.5Q274 78 290 88.5Q306 99 320.5 113Q335 127 347 144ZM326 28 333 63Q322 50 307.5 38.5Q293 27 275.5 18Q258 9 239 4Q220 -1 200 -1Q159 -1 128 13Q97 27 76 52.5Q55 78 44.5 112.5Q34 147 34 187Q34 238 51.5 286Q69 334 100.5 371.5Q132 409 175.5 431Q219 453 270 453Q292 453 311.5 448Q331 443 346 434Q361 425 372 414.5Q383 404 390 392L399 444H475L401 27Q392 -24 371 -63Q350 -102 319 -128Q288 -154 249 -167Q210 -180 165 -180Q142 -180 119.5 -176.5Q97 -173 77 -167Q57 -161 40.5 -153Q24 -145 13 -135L27 -57Q41 -72 57.5 -82.5Q74 -93 91.5 -99.5Q109 -106 127.5 -109Q146 -112 165 -112Q197 -112 223.5 -103.5Q250 -95 271 -77.5Q292 -60 306 -33.5Q320 -7 326 28Z" glyph-name="g" horiz-adv-x="499" unicode="g" /><glyph d="M347 144 377 314Q372 330 362 343.5Q352 357 338.5 366.5Q325 376 308 381Q291 386 272 386Q234 386 204 369Q174 352 153 323.5Q132 295 121 259.5Q110 224 110 187Q110 160 117 138Q124 116 137.5 100Q151 84 171.5 75.5Q192 67 217 67Q237 67 255.5 72.5Q274 78 290 88.5Q306 99 320.5 113Q335 127 347 144ZM326 28 333 63Q322 50 307.5 38.5Q293 27 275.5 18Q258 9 239 4Q220 -1 200 -1Q159 -1 128 13Q97 27 76 52.5Q55 78 44.5 112.5Q34 147 34 187Q34 238 51.5 286Q69 334 100.5 371.5Q132 409 175.5 431Q219 453 270 453Q292 453 311.5 448Q331 443 346 434Q361 425 372 414.5Q383 404 390 392L399 444H475L401 27Q392 -24 371 -63Q350 -102 319 -128Q288 -154 249 -167Q210 -180 165 -180Q142 -180 119.5 -176.5Q97 -173 77 -167Q57 -161 40.5 -153Q24 -145 13 -135L27 -57Q41 -72 57.5 -82.5Q74 -93 91.5 -99.5Q109 -106 127.5 -109Q146 -112 165 -112Q197 -112 223.5 -103.5Q250 -95 271 -77.5Q292 -60 306 -33.5Q320 -7 326 28ZM310 500Q286 500 266 508.5Q246 517 232.5 533.5Q219 550 214.5 574Q210 598 215 628H272Q269 611 270.5 597.5Q272 584 277.5 574.5Q283 565 292.5 560Q302 555 316 555Q329 555 340.5 560Q352 565 361 574.5Q370 584 376.5 597.5Q383 611 386 628H443Q437 597 425.5 573Q414 549 396.5 533Q379 517 357 508.5Q335 500 310 500Z" glyph-name="gbreve" horiz-adv-x="499" unicode="&#287;" /><glyph d="M364 645 433 509H371L324 597L247 509H179L295 645ZM347 144 377 314Q372 330 362 343.5Q352 357 338.5 366.5Q325 376 308 381Q291 386 272 386Q234 386 204 369Q174 352 153 323.5Q132 295 121 259.5Q110 224 110 187Q110 160 117 138Q124 116 137.5 100Q151 84 171.5 75.5Q192 67 217 67Q237 67 255.5 72.5Q274 78 290 88.5Q306 99 320.5 113Q335 127 347 144ZM326 28 333 63Q322 50 307.5 38.5Q293 27 275.5 18Q258 9 239 4Q220 -1 200 -1Q159 -1 128 13Q97 27 76 52.5Q55 78 44.5 112.5Q34 147 34 187Q34 238 51.5 286Q69 334 100.5 371.5Q132 409 175.5 431Q219 453 270 453Q292 453 311.5 448Q331 443 346 434Q361 425 372 414.5Q383 404 390 392L399 444H475L401 27Q392 -24 371 -63Q350 -102 319 -128Q288 -154 249 -167Q210 -180 165 -180Q142 -180 119.5 -176.5Q97 -173 77 -167Q57 -161 40.5 -153Q24 -145 13 -135L27 -57Q41 -72 57.5 -82.5Q74 -93 91.5 -99.5Q109 -106 127.5 -109Q146 -112 165 -112Q197 -112 223.5 -103.5Q250 -95 271 -77.5Q292 -60 306 -33.5Q320 -7 326 28Z" glyph-name="gcircumflex" horiz-adv-x="499" unicode="&#285;" /><glyph d="M383 680 334 615Q341 613 347.5 609Q354 605 358.5 599Q363 593 365.5 585.5Q368 578 368 570Q368 559 364 550Q360 541 353.5 534.5Q347 528 338 524.5Q329 521 319 521Q309 521 300 524.5Q291 528 284 535Q277 542 273.5 551.5Q270 561 270 573Q270 581 272 588.5Q274 596 277.5 603Q281 610 285.5 617Q290 624 295 630L332 680ZM347 144 377 314Q372 330 362 343.5Q352 357 338.5 366.5Q325 376 308 381Q291 386 272 386Q234 386 204 369Q174 352 153 323.5Q132 295 121 259.5Q110 224 110 187Q110 160 117 138Q124 116 137.5 100Q151 84 171.5 75.5Q192 67 217 67Q237 67 255.5 72.5Q274 78 290 88.5Q306 99 320.5 113Q335 127 347 144ZM326 28 333 63Q322 50 307.5 38.5Q293 27 275.5 18Q258 9 239 4Q220 -1 200 -1Q159 -1 128 13Q97 27 76 52.5Q55 78 44.5 112.5Q34 147 34 187Q34 238 51.5 286Q69 334 100.5 371.5Q132 409 175.5 431Q219 453 270 453Q292 453 311.5 448Q331 443 346 434Q361 425 372 414.5Q383 404 390 392L399 444H475L401 27Q392 -24 371 -63Q350 -102 319 -128Q288 -154 249 -167Q210 -180 165 -180Q142 -180 119.5 -176.5Q97 -173 77 -167Q57 -161 40.5 -153Q24 -145 13 -135L27 -57Q41 -72 57.5 -82.5Q74 -93 91.5 -99.5Q109 -106 127.5 -109Q146 -112 165 -112Q197 -112 223.5 -103.5Q250 -95 271 -77.5Q292 -60 306 -33.5Q320 -7 326 28Z" glyph-name="gcommaaccent" horiz-adv-x="499" unicode="&#291;" /><glyph d="M347 144 377 314Q372 330 362 343.5Q352 357 338.5 366.5Q325 376 308 381Q291 386 272 386Q234 386 204 369Q174 352 153 323.5Q132 295 121 259.5Q110 224 110 187Q110 160 117 138Q124 116 137.5 100Q151 84 171.5 75.5Q192 67 217 67Q237 67 255.5 72.5Q274 78 290 88.5Q306 99 320.5 113Q335 127 347 144ZM326 28 333 63Q322 50 307.5 38.5Q293 27 275.5 18Q258 9 239 4Q220 -1 200 -1Q159 -1 128 13Q97 27 76 52.5Q55 78 44.5 112.5Q34 147 34 187Q34 238 51.5 286Q69 334 100.5 371.5Q132 409 175.5 431Q219 453 270 453Q292 453 311.5 448Q331 443 346 434Q361 425 372 414.5Q383 404 390 392L399 444H475L401 27Q392 -24 371 -63Q350 -102 319 -128Q288 -154 249 -167Q210 -180 165 -180Q142 -180 119.5 -176.5Q97 -173 77 -167Q57 -161 40.5 -153Q24 -145 13 -135L27 -57Q41 -72 57.5 -82.5Q74 -93 91.5 -99.5Q109 -106 127.5 -109Q146 -112 165 -112Q197 -112 223.5 -103.5Q250 -95 271 -77.5Q292 -60 306 -33.5Q320 -7 326 28ZM369 578Q369 568 365 559.5Q361 551 354.5 544.5Q348 538 339.5 534Q331 530 321 530Q311 530 302.5 534Q294 538 287.5 544.5Q281 551 277 559.5Q273 568 273 578Q273 588 277 597Q281 606 287.5 612.5Q294 619 302.5 622.5Q311 626 321 626Q331 626 339.5 622.5Q348 619 354.5 612.5Q361 606 365 597Q369 588 369 578Z" glyph-name="gdotaccent" horiz-adv-x="499" unicode="&#289;" /><glyph d="M29 0 120 518Q126 551 140.5 577.5Q155 604 176.5 622Q198 640 224 649.5Q250 659 279 659Q289 659 298 658.5Q307 658 314.5 656.5Q322 655 328.5 652.5Q335 650 341 647L329 579Q324 583 318 585.5Q312 588 306 589.5Q300 591 293.5 592Q287 593 280 593Q263 593 249 588Q235 583 223.5 572.5Q212 562 204 547Q196 532 193 512L181 444H509V440L335 227Q357 215 375 200Q393 185 406.5 165.5Q420 146 427.5 122Q435 98 435 70Q435 10 410.5 -37Q386 -84 342.5 -115.5Q299 -147 241.5 -163Q184 -179 118 -179L130 -112Q177 -112 219 -101Q261 -90 293 -68Q325 -46 343.5 -12.5Q362 21 362 65Q362 90 353.5 111Q345 132 329.5 148.5Q314 165 291.5 178Q269 191 241 201V205L384 380H170L103 0Z" glyph-name="germandbls" horiz-adv-x="500" unicode="&#223;" /><glyph d="M318 516H253L188 650H261Z" glyph-name="grave" horiz-adv-x="500" unicode="`" /><glyph d="M323 668H252L181 785H263Z" glyph-name="grave.cap" horiz-adv-x="500" /><glyph d="M380 334 367 256 44 105 57 178 315 298 99 416 111 485Z" glyph-name="greater" horiz-adv-x="423" unicode="&gt;" /><glyph d="M434 334 421 256 98 105 111 178 369 298 153 416 165 485Z" glyph-name="greater.lt" horiz-adv-x="520" /><glyph d="M391 383 378 308 59 187 73 258 318 348 104 439 115 503ZM350 153 340 91H43L54 153Z" glyph-name="greaterequal" horiz-adv-x="427" unicode="&#8805;" /><glyph d="M441 383 428 308 109 187 123 258 368 348 154 439 165 503ZM400 153 390 91H93L104 153Z" glyph-name="greaterequal.lt" horiz-adv-x="520" /><glyph d="M306 74H237L171 222L289 370H364L242 218ZM160 74H92L26 222L144 370H219L97 218Z" glyph-name="guillemotleft" horiz-adv-x="357" unicode="&#171;" /><glyph d="M329 157H260L194 305L312 453H387L265 301ZM183 157H115L49 305L167 453H242L120 301Z" glyph-name="guillemotleft.cap" horiz-adv-x="357" /><glyph d="M63 370H132L198 222L80 74H5L127 226ZM209 370H277L343 222L225 74H150L272 226Z" glyph-name="guillemotright" horiz-adv-x="357" unicode="&#187;" /><glyph d="M77 453H146L212 305L94 157H19L141 309ZM223 453H291L357 305L239 157H164L286 309Z" glyph-name="guillemotright.cap" horiz-adv-x="357" /><glyph d="M164 74H92L26 222L144 370H222L100 218Z" glyph-name="guilsinglleft" horiz-adv-x="215" unicode="&#8249;" /><glyph d="M187 157H115L49 305L167 453H245L123 301Z" glyph-name="guilsinglleft.cap" horiz-adv-x="215" /><glyph d="M63 370H135L201 222L83 74H5L127 226Z" glyph-name="guilsinglright" horiz-adv-x="215" unicode="&#8250;" /><glyph d="M77 453H149L215 305L97 157H19L141 309Z" glyph-name="guilsinglright.cap" horiz-adv-x="215" /><glyph d="M314 453Q345 453 369.5 443.5Q394 434 411 417Q428 400 436.5 376.5Q445 353 445 325Q445 321 445 317Q445 313 444.5 308.5Q444 304 443.5 300Q443 296 442 291L391 0H315L364 279Q365 283 365.5 287Q366 291 366.5 294.5Q367 298 367 301.5Q367 305 367 308Q367 325 362 339Q357 353 347.5 363Q338 373 322.5 378.5Q307 384 287 384Q267 384 248 377.5Q229 371 211.5 359.5Q194 348 180 333Q166 318 157 300L104 0H29L143 650H218L172 387Q184 401 199 412.5Q214 424 232 433.5Q250 443 271 448Q292 453 314 453Z" glyph-name="h" horiz-adv-x="489" unicode="h" /><glyph d="M157 300 104 0H29L119 511H62L71 565H128L143 650H218L203 565H311L302 511H194L172 387Q184 401 199 412.5Q214 424 232 433.5Q250 443 271 448Q292 453 314 453Q345 453 369.5 443.5Q394 434 411 417Q428 400 436.5 376.5Q445 353 445 325Q445 321 445 317Q445 313 444.5 308.5Q444 304 443.5 300Q443 296 442 291L391 0H315L364 279Q365 283 365.5 287Q366 291 366.5 294.5Q367 298 367 301.5Q367 305 367 308Q367 325 362 339Q357 353 347.5 363Q338 373 322.5 378.5Q307 384 287 384Q267 384 248 377.5Q229 371 211.5 359.5Q194 348 180 333Q166 318 157 300Z" glyph-name="hbar" horiz-adv-x="489" unicode="&#295;" /><glyph d="M314 453Q345 453 369.5 443.5Q394 434 411 417Q428 400 436.5 376.5Q445 353 445 325Q445 321 445 317Q445 313 444.5 308.5Q444 304 443.5 300Q443 296 442 291L391 0H315L364 279Q365 283 365.5 287Q366 291 366.5 294.5Q367 298 367 301.5Q367 305 367 308Q367 325 362 339Q357 353 347.5 363Q338 373 322.5 378.5Q307 384 287 384Q267 384 248 377.5Q229 371 211.5 359.5Q194 348 180 333Q166 318 157 300L104 0H29L143 650H218L172 387Q184 401 199 412.5Q214 424 232 433.5Q250 443 271 448Q292 453 314 453ZM351 798 422 676H357L310 747L240 676H168L282 798Z" glyph-name="hcircumflex" horiz-adv-x="489" unicode="&#293;" /><glyph d="M298 516H234L324 650H390ZM175 516H110L200 650H266Z" glyph-name="hungarumlaut" horiz-adv-x="500" unicode="&#733;" /><glyph d="M304 668H236L323 785H392ZM176 668H108L195 785H265Z" glyph-name="hungarumlaut.cap" horiz-adv-x="500" /><glyph d="M43 226 55 296H296L284 226Z" glyph-name="hyphen" horiz-adv-x="321" unicode="-" /><glyph d="M50 266 62 336H303L291 266Z" glyph-name="hyphen.cap" horiz-adv-x="321" /><glyph d="M217 578Q217 568 213 559.5Q209 551 202.5 544.5Q196 538 187 534Q178 530 168 530Q158 530 149.5 534Q141 538 134.5 544.5Q128 551 124 559.5Q120 568 120 578Q120 588 124 597Q128 606 134.5 612.5Q141 619 149.5 622.5Q158 626 168 626Q178 626 187 622.5Q196 619 202.5 612.5Q209 606 213 597Q217 588 217 578ZM182 444 104 0H29L107 444Z" glyph-name="i" horiz-adv-x="209" unicode="i" /><glyph d="M188 516H117L220 650H301ZM182 444 104 0H29L107 444Z" glyph-name="iacute" horiz-adv-x="209" unicode="&#237;" /><glyph d="M156 500Q133 500 115.5 508.5Q98 517 87 533.5Q76 550 72.5 574Q69 598 75 628H129Q126 611 126.5 597.5Q127 584 131 574.5Q135 565 142.5 560Q150 555 162 555Q174 555 184 560Q194 565 201 574.5Q208 584 213.5 597.5Q219 611 222 628H278Q272 597 261 573Q250 549 234 533Q218 517 198.5 508.5Q179 500 156 500ZM182 444 104 0H29L107 444Z" glyph-name="ibreve" horiz-adv-x="209" unicode="&#301;" /><glyph d="M213 645 263 509H202L171 594L112 509H46L144 645ZM182 444 104 0H29L107 444Z" glyph-name="icircumflex" horiz-adv-x="209" unicode="&#238;" /><glyph d="M184 571Q184 581 187.5 589.5Q191 598 197.5 604.5Q204 611 212 614.5Q220 618 230 618Q239 618 247.5 614.5Q256 611 262.5 604.5Q269 598 272.5 589.5Q276 581 276 571Q276 562 272.5 553.5Q269 545 262.5 538.5Q256 532 247.5 528.5Q239 525 230 525Q220 525 212 528.5Q204 532 197.5 538.5Q191 545 187.5 553.5Q184 562 184 571ZM60 571Q60 581 63.5 589.5Q67 598 73.5 604.5Q80 611 88 614.5Q96 618 106 618Q116 618 124 614.5Q132 611 138.5 604.5Q145 598 148.5 589.5Q152 581 152 571Q152 562 148.5 553.5Q145 545 138.5 538.5Q132 532 124 528.5Q116 525 106 525Q96 525 88 528.5Q80 532 73.5 538.5Q67 545 63.5 553.5Q60 562 60 571ZM182 444 104 0H29L107 444Z" glyph-name="idieresis" horiz-adv-x="209" unicode="&#239;" /><glyph d="M182 444 104 0H29L107 444ZM217 578Q217 568 213 559.5Q209 551 202.5 544.5Q196 538 187.5 534Q179 530 169 530Q159 530 150.5 534Q142 538 135.5 544.5Q129 551 125 559.5Q121 568 121 578Q121 588 125 597Q129 606 135.5 612.5Q142 619 150.5 622.5Q159 626 169 626Q179 626 187.5 622.5Q196 619 202.5 612.5Q209 606 213 597Q217 588 217 578Z" glyph-name="idotaccent" horiz-adv-x="209" /><glyph d="M182 444 104 0H29L107 444ZM190 516H125L60 650H133Z" glyph-name="igrave" horiz-adv-x="209" unicode="&#236;" /><glyph d="M217 578Q217 568 213 559.5Q209 551 202.5 544.5Q196 538 187 534Q178 530 168 530Q158 530 149.5 534Q141 538 134.5 544.5Q128 551 124 559.5Q120 568 120 578Q120 588 124 597Q128 606 134.5 612.5Q141 619 149.5 622.5Q158 626 168 626Q178 626 187 622.5Q196 619 202.5 612.5Q209 606 213 597Q217 588 217 578ZM182 444 104 0H29L107 444ZM426 578Q426 568 422 559.5Q418 551 411.5 544.5Q405 538 396 534Q387 530 377 530Q367 530 358.5 534Q350 538 343.5 544.5Q337 551 333 559.5Q329 568 329 578Q329 588 333 597Q337 606 343.5 612.5Q350 619 358.5 622.5Q367 626 377 626Q387 626 396 622.5Q405 619 411.5 612.5Q418 606 422 597Q426 588 426 578ZM116 -168 128 -102Q131 -105 135.5 -107Q140 -109 145 -110.5Q150 -112 155 -113Q160 -114 166 -114Q180 -114 190 -110.5Q200 -107 207.5 -99Q215 -91 220.5 -78Q226 -65 229 -46L316 444H391L304 -51Q298 -82 286.5 -106Q275 -130 258 -146Q241 -162 218.5 -170.5Q196 -179 168 -179Q159 -179 151.5 -178Q144 -177 137.5 -175.5Q131 -174 125.5 -172Q120 -170 116 -168Z" glyph-name="ij" horiz-adv-x="417" unicode="&#307;" /><glyph d="M70 530 81 591H259L249 530ZM182 444 104 0H29L107 444Z" glyph-name="imacron" horiz-adv-x="209" unicode="&#299;" /><glyph d="M217 578Q217 568 213 559.5Q209 551 202.5 544.5Q196 538 187 534Q178 530 168 530Q158 530 149.5 534Q141 538 134.5 544.5Q128 551 124 559.5Q120 568 120 578Q120 588 124 597Q128 606 134.5 612.5Q141 619 149.5 622.5Q158 626 168 626Q178 626 187 622.5Q196 619 202.5 612.5Q209 606 213 597Q217 588 217 578ZM29 0 107 444H182L104 0Q100 -5 80 -32Q60 -59 52 -70.5Q44 -82 40 -92.5Q36 -103 36 -113Q36 -118 37 -121.5Q38 -125 40.5 -127.5Q43 -130 46.5 -131Q50 -132 54 -132Q59 -132 63.5 -131Q68 -130 72.5 -128.5Q77 -127 82 -124Q87 -121 94 -117L85 -167Q79 -171 72.5 -174.5Q66 -178 59.5 -180.5Q53 -183 45.5 -184.5Q38 -186 31 -186Q17 -186 6.5 -182.5Q-4 -179 -11.5 -172Q-19 -165 -22.5 -155.5Q-26 -146 -26 -134Q-26 -117 -20 -101Q-14 -85 -4.5 -70Q5 -55 48 0Z" glyph-name="iogonek" horiz-adv-x="209" unicode="&#303;" /><glyph d="M238 633H288Q284 606 275.5 584.5Q267 563 256 547.5Q245 532 231.5 523.5Q218 515 203 515Q190 515 180.5 522.5Q171 530 161 544.5Q151 559 146 565Q141 571 133 571Q126 571 120.5 567.5Q115 564 111 557.5Q107 551 103.5 541Q100 531 97 518H47Q52 545 60 566.5Q68 588 79 603.5Q90 619 103.5 627.5Q117 636 132 636Q145 636 154.5 628.5Q164 621 174.5 606Q185 591 190 585.5Q195 580 202 580Q208 580 213.5 583.5Q219 587 223.5 593.5Q228 600 231.5 610Q235 620 238 633ZM182 444 104 0H29L107 444Z" glyph-name="itilde" horiz-adv-x="209" unicode="&#297;" /><glyph d="M217 578Q217 568 213 559.5Q209 551 202.5 544.5Q196 538 187 534Q178 530 168 530Q158 530 149.5 534Q141 538 134.5 544.5Q128 551 124 559.5Q120 568 120 578Q120 588 124 597Q128 606 134.5 612.5Q141 619 149.5 622.5Q158 626 168 626Q178 626 187 622.5Q196 619 202.5 612.5Q209 606 213 597Q217 588 217 578ZM-93 -168 -81 -102Q-78 -105 -73.5 -107Q-69 -109 -64 -110.5Q-59 -112 -54 -113Q-49 -114 -43 -114Q-29 -114 -19 -110.5Q-9 -107 -1.5 -99Q6 -91 11.5 -78Q17 -65 20 -46L107 444H182L95 -51Q89 -82 77.5 -106Q66 -130 49 -146Q32 -162 9.5 -170.5Q-13 -179 -41 -179Q-50 -179 -57.5 -178Q-65 -177 -71.5 -175.5Q-78 -174 -83.5 -172Q-89 -170 -93 -168Z" glyph-name="j" horiz-adv-x="209" unicode="j" /><glyph d="M213 645 263 509H202L171 594L112 509H46L144 645ZM-93 -168 -81 -102Q-78 -105 -73.5 -107Q-69 -109 -64 -110.5Q-59 -112 -54 -113Q-49 -114 -43 -114Q-29 -114 -19 -110.5Q-9 -107 -1.5 -99Q6 -91 11.5 -78Q17 -65 20 -46L107 444H182L95 -51Q89 -82 77.5 -106Q66 -130 49 -146Q32 -162 9.5 -170.5Q-13 -179 -41 -179Q-50 -179 -57.5 -178Q-65 -177 -71.5 -175.5Q-78 -174 -83.5 -172Q-89 -170 -93 -168Z" glyph-name="jcircumflex" horiz-adv-x="209" unicode="&#309;" /><glyph d="M317 0 143 222 104 0H29L143 650H218L149 257L376 444H478L220 234L404 0Z" glyph-name="k" horiz-adv-x="447" unicode="k" /><glyph d="M118 -201 164 -139Q156 -137 150 -133Q144 -129 139.5 -123.5Q135 -118 132.5 -110.5Q130 -103 130 -95Q130 -84 133.5 -75Q137 -66 144 -59Q151 -52 160 -48.5Q169 -45 179 -45Q189 -45 198 -48.5Q207 -52 214 -59Q221 -66 224.5 -75.5Q228 -85 228 -97Q228 -105 226 -112.5Q224 -120 220.5 -127.5Q217 -135 212.5 -142Q208 -149 203 -155L169 -201ZM317 0 143 222 104 0H29L143 650H218L149 257L376 444H478L220 234L404 0Z" glyph-name="kcommaaccent" horiz-adv-x="447" unicode="&#311;" /><glyph d="M317 0 143 222 104 0H29L107 444H182L149 257L376 444H478L220 234L404 0Z" glyph-name="kgreenlandic" horiz-adv-x="447" unicode="&#312;" /><glyph d="M218 650 104 0H29L143 650Z" glyph-name="l" horiz-adv-x="209" unicode="l" /><glyph d="M228 683H149L249 800H339ZM218 650 104 0H29L143 650Z" glyph-name="lacute" horiz-adv-x="209" unicode="&#314;" /><glyph d="M299 486H236L313 650H377ZM218 650 104 0H29L143 650Z" glyph-name="lcaron" horiz-adv-x="209" unicode="&#318;" /><glyph d="M-12 -201 34 -139Q26 -137 20 -133Q14 -129 9.5 -123.5Q5 -118 2.5 -110.5Q0 -103 0 -95Q0 -84 3.5 -75Q7 -66 14 -59Q21 -52 30 -48.5Q39 -45 49 -45Q59 -45 68 -48.5Q77 -52 84 -59Q91 -66 94.5 -75.5Q98 -85 98 -97Q98 -105 96 -112.5Q94 -120 90.5 -127.5Q87 -135 82.5 -142Q78 -149 73 -155L39 -201ZM218 650 104 0H29L143 650Z" glyph-name="lcommaaccent" horiz-adv-x="209" unicode="&#316;" /><glyph d="M218 650 104 0H29L143 650ZM339 325Q339 315 335 306.5Q331 298 324.5 291.5Q318 285 309.5 281Q301 277 291 277Q281 277 272.5 281Q264 285 257.5 291.5Q251 298 247 306.5Q243 315 243 325Q243 335 247 344Q251 353 257.5 359.5Q264 366 272.5 369.5Q281 373 291 373Q301 373 309.5 369.5Q318 366 324.5 359.5Q331 353 335 344Q339 335 339 325Z" glyph-name="ldot" horiz-adv-x="337" unicode="&#320;" /><glyph d="M67 256 80 334 403 485 390 411 131 292 348 174 336 105Z" glyph-name="less" horiz-adv-x="423" unicode="&lt;" /><glyph d="M98 256 111 334 434 485 421 411 162 292 379 174 367 105Z" glyph-name="less.lt" horiz-adv-x="520" /><glyph d="M77 308 90 382 408 503 395 432 150 342 364 252 353 187ZM39 91 49 153H346L335 91Z" glyph-name="lessequal" horiz-adv-x="427" unicode="&#8804;" /><glyph d="M120 308 133 382 451 503 438 432 193 342 407 252 396 187ZM82 91 92 153H389L378 91Z" glyph-name="lessequal.lt" horiz-adv-x="520" /><glyph d="M123 0H48L103 314L39 280L50 347L115 382L162 650H237L196 415L266 453L255 386L184 348Z" glyph-name="lslash" horiz-adv-x="246" unicode="&#322;" /><glyph d="M409 382Q422 397 437.5 410Q453 423 471 432.5Q489 442 509 447.5Q529 453 550 453Q581 453 604 443.5Q627 434 642.5 417.5Q658 401 665.5 378.5Q673 356 673 329Q673 324 673 319.5Q673 315 672.5 310.5Q672 306 671.5 301Q671 296 670 292L619 0H543L591 275Q592 281 593 286Q594 291 594.5 295.5Q595 300 595 304Q595 308 595 312Q595 329 591 342Q587 355 579 364.5Q571 374 558 379Q545 384 528 384Q510 384 493 377.5Q476 371 461.5 359.5Q447 348 435 333Q423 318 414 301L362 0H286L334 275Q335 279 335.5 286Q336 293 336.5 297Q337 301 337.5 304.5Q338 308 338 312Q338 329 334 342Q330 355 322 364.5Q314 374 301 379Q288 384 271 384Q253 384 236 377.5Q219 371 204.5 359.5Q190 348 178 333Q166 318 157 301L104 0H29L107 444H182L172 387Q184 401 197 413Q210 425 226 434Q242 443 261 448Q280 453 301 453Q321 453 339 447.5Q357 442 371 432.5Q385 423 394.5 410Q404 397 409 382Z" glyph-name="m" horiz-adv-x="717" unicode="m" /><glyph d="M137 530 148 591H362L351 530Z" glyph-name="macron" horiz-adv-x="500" unicode="&#175;" /><glyph d="M137 671 148 732H362L351 671Z" glyph-name="macron.cap" horiz-adv-x="500" /><glyph d="M79 266 90 328H485L474 266Z" glyph-name="minus" horiz-adv-x="540" unicode="&#8722;" /><glyph d="M63 266 74 328H469L458 266Z" glyph-name="minus.lt" horiz-adv-x="520" /><glyph d="M207 296 106 417 153 457 252 335 396 458 431 416 288 293 388 172 341 131 240 253 97 130 62 174Z" glyph-name="multiply" horiz-adv-x="470" unicode="&#215;" /><glyph d="M226 296 125 417 172 457 271 335 415 458 450 416 307 293 407 172 360 131 259 253 116 130 81 174Z" glyph-name="multiply.lt" horiz-adv-x="520" /><glyph d="M29 0 107 444H182L172 387Q184 401 199 412.5Q214 424 232 433.5Q250 443 271 448Q292 453 314 453Q345 453 369.5 443.5Q394 434 411 417Q428 400 436.5 376.5Q445 353 445 325Q445 321 445 317Q445 313 444.5 308.5Q444 304 443.5 300Q443 296 442 291L391 0H315L364 279Q365 283 365.5 287Q366 291 366.5 294.5Q367 298 367 301.5Q367 305 367 308Q367 325 362 339Q357 353 347.5 363Q338 373 322.5 378.5Q307 384 287 384Q267 384 248 377.5Q229 371 211.5 359.5Q194 348 180 333Q166 318 157 300L104 0Z" glyph-name="n" horiz-adv-x="489" unicode="n" /><glyph d="M332 516H261L364 650H445ZM29 0 107 444H182L172 387Q184 401 199 412.5Q214 424 232 433.5Q250 443 271 448Q292 453 314 453Q345 453 369.5 443.5Q394 434 411 417Q428 400 436.5 376.5Q445 353 445 325Q445 321 445 317Q445 313 444.5 308.5Q444 304 443.5 300Q443 296 442 291L391 0H315L364 279Q365 283 365.5 287Q366 291 366.5 294.5Q367 298 367 301.5Q367 305 367 308Q367 325 362 339Q357 353 347.5 363Q338 373 322.5 378.5Q307 384 287 384Q267 384 248 377.5Q229 371 211.5 359.5Q194 348 180 333Q166 318 157 300L104 0Z" glyph-name="nacute" horiz-adv-x="489" unicode="&#324;" /><glyph d="M268 510 199 646H261L308 558L385 646H453L337 510ZM29 0 107 444H182L172 387Q184 401 199 412.5Q214 424 232 433.5Q250 443 271 448Q292 453 314 453Q345 453 369.5 443.5Q394 434 411 417Q428 400 436.5 376.5Q445 353 445 325Q445 321 445 317Q445 313 444.5 308.5Q444 304 443.5 300Q443 296 442 291L391 0H315L364 279Q365 283 365.5 287Q366 291 366.5 294.5Q367 298 367 301.5Q367 305 367 308Q367 325 362 339Q357 353 347.5 363Q338 373 322.5 378.5Q307 384 287 384Q267 384 248 377.5Q229 371 211.5 359.5Q194 348 180 333Q166 318 157 300L104 0Z" glyph-name="ncaron" horiz-adv-x="489" unicode="&#328;" /><glyph d="M133 -201 179 -139Q171 -137 165 -133Q159 -129 154.5 -123.5Q150 -118 147.5 -110.5Q145 -103 145 -95Q145 -84 148.5 -75Q152 -66 159 -59Q166 -52 175 -48.5Q184 -45 194 -45Q204 -45 213 -48.5Q222 -52 229 -59Q236 -66 239.5 -75.5Q243 -85 243 -97Q243 -105 241 -112.5Q239 -120 235.5 -127.5Q232 -135 227.5 -142Q223 -149 218 -155L184 -201ZM29 0 107 444H182L172 387Q184 401 199 412.5Q214 424 232 433.5Q250 443 271 448Q292 453 314 453Q345 453 369.5 443.5Q394 434 411 417Q428 400 436.5 376.5Q445 353 445 325Q445 321 445 317Q445 313 444.5 308.5Q444 304 443.5 300Q443 296 442 291L391 0H315L364 279Q365 283 365.5 287Q366 291 366.5 294.5Q367 298 367 301.5Q367 305 367 308Q367 325 362 339Q357 353 347.5 363Q338 373 322.5 378.5Q307 384 287 384Q267 384 248 377.5Q229 371 211.5 359.5Q194 348 180 333Q166 318 157 300L104 0Z" glyph-name="ncommaaccent" horiz-adv-x="489" unicode="&#326;" /><glyph d="M280 623Q322 623 358 608.5Q394 594 420.5 568Q447 542 461.5 507Q476 472 476 432Q476 406 471 382Q466 358 455.5 333Q445 308 427.5 281.5Q410 255 384 224L199 0H111L295 219Q290 216 284 214Q278 212 271 210.5Q264 209 257.5 208Q251 207 244 207Q204 207 169 221.5Q134 236 109 261.5Q84 287 70 321.5Q56 356 56 395Q56 445 73.5 487Q91 529 122 559.5Q153 590 194 606.5Q235 623 280 623ZM280 556Q249 556 221.5 544.5Q194 533 172.5 511.5Q151 490 139 461.5Q127 433 127 400Q127 373 136.5 349.5Q146 326 162.5 309Q179 292 202 282.5Q225 273 252 273Q283 273 310.5 284.5Q338 296 359 317Q380 338 392 366Q404 394 404 427Q404 454 394.5 478Q385 502 368.5 519.5Q352 537 329 546.5Q306 556 280 556Z" glyph-name="nine" horiz-adv-x="482" unicode="9" /><glyph d="M290 623Q332 623 368 608.5Q404 594 430.5 568Q457 542 471.5 507Q486 472 486 432Q486 406 481 382Q476 358 465.5 333Q455 308 437.5 281.5Q420 255 394 224L209 0H121L305 219Q300 216 294 214Q288 212 281 210.5Q274 209 267.5 208Q261 207 254 207Q214 207 179 221.5Q144 236 119 261.5Q94 287 80 321.5Q66 356 66 395Q66 445 83.5 487Q101 529 132 559.5Q163 590 204 606.5Q245 623 290 623ZM290 556Q259 556 231.5 544.5Q204 533 182.5 511.5Q161 490 149 461.5Q137 433 137 400Q137 373 146.5 349.5Q156 326 172.5 309Q189 292 212 282.5Q235 273 262 273Q293 273 320.5 284.5Q348 296 369 317Q390 338 402 366Q414 394 414 427Q414 454 404.5 478Q395 502 378.5 519.5Q362 537 339 546.5Q316 556 290 556Z" glyph-name="nine.lt" horiz-adv-x="520" /><glyph glyph-name="nonmarkingreturn" horiz-adv-x="221" unicode="" /><glyph d="M468 199H228L145 107H86L169 199H73L83 256H221L295 338H98L108 395H346L430 488H490L406 395H502L492 338H354L280 256H478Z" glyph-name="notequal" horiz-adv-x="551" unicode="&#8800;" /><glyph d="M447 199H207L124 107H65L148 199H52L62 256H200L274 338H77L87 395H325L409 488H469L385 395H481L471 338H333L259 256H457Z" glyph-name="notequal.lt" horiz-adv-x="520" /><glyph d="M29 0 107 444H182L172 387Q184 401 199 412.5Q214 424 232 433.5Q250 443 271 448Q292 453 314 453Q345 453 369.5 443.5Q394 434 411 417Q428 400 436.5 376.5Q445 353 445 325Q445 321 445 317Q445 313 444.5 308.5Q444 304 443.5 300Q443 296 442 291L391 0H315L364 279Q365 283 365.5 287Q366 291 366.5 294.5Q367 298 367 301.5Q367 305 367 308Q367 325 362 339Q357 353 347.5 363Q338 373 322.5 378.5Q307 384 287 384Q267 384 248 377.5Q229 371 211.5 359.5Q194 348 180 333Q166 318 157 300L104 0ZM404 633H454Q449 606 440.5 584.5Q432 563 420 547.5Q408 532 392 523.5Q376 515 358 515Q343 515 331 522.5Q319 530 305.5 545Q292 560 284.5 566.5Q277 573 266 573Q258 573 251 569Q244 565 238.5 558Q233 551 229 541Q225 531 222 518H172Q177 545 185.5 566.5Q194 588 206 603.5Q218 619 234 627.5Q250 636 268 636Q283 636 295 628.5Q307 621 321 606Q335 591 342.5 584.5Q350 578 360 578Q368 578 375 582Q382 586 387.5 593Q393 600 397 610Q401 620 404 633Z" glyph-name="ntilde" horiz-adv-x="489" unicode="&#241;" /><glyph d="M356 235 399 379H264L221 235ZM284 0 338 176H203L149 0H83L136 176H45L58 235H154L198 379H87L98 438H216L269 614H336L282 438H417L471 614H537L484 438H574L562 379H466L422 235H533L521 176H404L351 0Z" glyph-name="numbersign" horiz-adv-x="589" unicode="#" /><glyph d="M217 -9Q174 -9 140 5Q106 19 82.5 44.5Q59 70 46.5 105.5Q34 141 34 184Q34 241 51.5 290.5Q69 340 100.5 376.5Q132 413 173.5 433Q215 453 262 453Q304 453 338 439Q372 425 396 399.5Q420 374 432 338.5Q444 303 444 260Q444 203 426.5 153.5Q409 104 377.5 67.5Q346 31 304.5 11Q263 -9 217 -9ZM217 57Q249 57 277 72Q305 87 325.5 114Q346 141 357 178.5Q368 216 368 260Q368 289 360.5 312.5Q353 336 339.5 352.5Q326 369 306 378Q286 387 261 387Q229 387 201.5 372Q174 357 153.5 330Q133 303 121.5 265.5Q110 228 110 184Q110 155 117.5 131.5Q125 108 138.5 91.5Q152 75 172 66Q192 57 217 57Z" glyph-name="o" horiz-adv-x="478" unicode="o" /><glyph d="M319 516H248L351 650H432ZM217 -9Q174 -9 140 5Q106 19 82.5 44.5Q59 70 46.5 105.5Q34 141 34 184Q34 241 51.5 290.5Q69 340 100.5 376.5Q132 413 173.5 433Q215 453 262 453Q304 453 338 439Q372 425 396 399.5Q420 374 432 338.5Q444 303 444 260Q444 203 426.5 153.5Q409 104 377.5 67.5Q346 31 304.5 11Q263 -9 217 -9ZM217 57Q249 57 277 72Q305 87 325.5 114Q346 141 357 178.5Q368 216 368 260Q368 289 360.5 312.5Q353 336 339.5 352.5Q326 369 306 378Q286 387 261 387Q229 387 201.5 372Q174 357 153.5 330Q133 303 121.5 265.5Q110 228 110 184Q110 155 117.5 131.5Q125 108 138.5 91.5Q152 75 172 66Q192 57 217 57Z" glyph-name="oacute" horiz-adv-x="478" unicode="&#243;" /><glyph d="M217 -9Q174 -9 140 5Q106 19 82.5 44.5Q59 70 46.5 105.5Q34 141 34 184Q34 241 51.5 290.5Q69 340 100.5 376.5Q132 413 173.5 433Q215 453 262 453Q304 453 338 439Q372 425 396 399.5Q420 374 432 338.5Q444 303 444 260Q444 203 426.5 153.5Q409 104 377.5 67.5Q346 31 304.5 11Q263 -9 217 -9ZM217 57Q249 57 277 72Q305 87 325.5 114Q346 141 357 178.5Q368 216 368 260Q368 289 360.5 312.5Q353 336 339.5 352.5Q326 369 306 378Q286 387 261 387Q229 387 201.5 372Q174 357 153.5 330Q133 303 121.5 265.5Q110 228 110 184Q110 155 117.5 131.5Q125 108 138.5 91.5Q152 75 172 66Q192 57 217 57ZM288 500Q264 500 244 508.5Q224 517 210.5 533.5Q197 550 192.5 574Q188 598 193 628H250Q247 611 248.5 597.5Q250 584 255.5 574.5Q261 565 270.5 560Q280 555 294 555Q307 555 318.5 560Q330 565 339 574.5Q348 584 354.5 597.5Q361 611 364 628H421Q415 597 403.5 573Q392 549 374.5 533Q357 517 335 508.5Q313 500 288 500Z" glyph-name="obreve" horiz-adv-x="478" unicode="&#335;" /><glyph d="M342 645 411 509H349L302 597L225 509H157L273 645ZM217 -9Q174 -9 140 5Q106 19 82.5 44.5Q59 70 46.5 105.5Q34 141 34 184Q34 241 51.5 290.5Q69 340 100.5 376.5Q132 413 173.5 433Q215 453 262 453Q304 453 338 439Q372 425 396 399.5Q420 374 432 338.5Q444 303 444 260Q444 203 426.5 153.5Q409 104 377.5 67.5Q346 31 304.5 11Q263 -9 217 -9ZM217 57Q249 57 277 72Q305 87 325.5 114Q346 141 357 178.5Q368 216 368 260Q368 289 360.5 312.5Q353 336 339.5 352.5Q326 369 306 378Q286 387 261 387Q229 387 201.5 372Q174 357 153.5 330Q133 303 121.5 265.5Q110 228 110 184Q110 155 117.5 131.5Q125 108 138.5 91.5Q152 75 172 66Q192 57 217 57Z" glyph-name="ocircumflex" horiz-adv-x="478" unicode="&#244;" /><glyph d="M323 571Q323 581 326.5 589.5Q330 598 336 604.5Q342 611 350.5 614.5Q359 618 368 618Q378 618 386.5 614.5Q395 611 401.5 604.5Q408 598 411.5 589.5Q415 581 415 571Q415 562 411.5 553.5Q408 545 401.5 538.5Q395 532 386.5 528.5Q378 525 368 525Q359 525 350.5 528.5Q342 532 336 538.5Q330 545 326.5 553.5Q323 562 323 571ZM182 571Q182 581 185.5 589.5Q189 598 195.5 604.5Q202 611 210.5 614.5Q219 618 229 618Q238 618 246.5 614.5Q255 611 261.5 604.5Q268 598 271.5 589.5Q275 581 275 571Q275 562 271.5 553.5Q268 545 261.5 538.5Q255 532 246.5 528.5Q238 525 229 525Q219 525 210.5 528.5Q202 532 195.5 538.5Q189 545 185.5 553.5Q182 562 182 571ZM217 -9Q174 -9 140 5Q106 19 82.5 44.5Q59 70 46.5 105.5Q34 141 34 184Q34 241 51.5 290.5Q69 340 100.5 376.5Q132 413 173.5 433Q215 453 262 453Q304 453 338 439Q372 425 396 399.5Q420 374 432 338.5Q444 303 444 260Q444 203 426.5 153.5Q409 104 377.5 67.5Q346 31 304.5 11Q263 -9 217 -9ZM217 57Q249 57 277 72Q305 87 325.5 114Q346 141 357 178.5Q368 216 368 260Q368 289 360.5 312.5Q353 336 339.5 352.5Q326 369 306 378Q286 387 261 387Q229 387 201.5 372Q174 357 153.5 330Q133 303 121.5 265.5Q110 228 110 184Q110 155 117.5 131.5Q125 108 138.5 91.5Q152 75 172 66Q192 57 217 57Z" glyph-name="odieresis" horiz-adv-x="478" unicode="&#246;" /><glyph d="M262 453Q289 453 313 446Q337 439 357 426.5Q377 414 392 396.5Q407 379 417 357Q432 378 450.5 395.5Q469 413 491 426Q513 439 538.5 446Q564 453 592 453Q629 453 658 441.5Q687 430 706.5 408Q726 386 735.5 355Q745 324 745 285Q745 276 744.5 266.5Q744 257 743 247.5Q742 238 740 228.5Q738 219 736 209H431Q431 207 430.5 203.5Q430 200 430 197Q430 194 430 191Q430 188 430 185Q430 154 439.5 130Q449 106 466.5 89.5Q484 73 507.5 64.5Q531 56 560 56Q579 56 596.5 58.5Q614 61 630.5 66.5Q647 72 663.5 80.5Q680 89 696 101L682 27Q668 17 651.5 10Q635 3 618 -1Q601 -5 583 -7Q565 -9 547 -9Q518 -9 493 -2.5Q468 4 447.5 16.5Q427 29 411.5 46Q396 63 385 85Q370 64 351.5 46.5Q333 29 311 16.5Q289 4 265.5 -2.5Q242 -9 217 -9Q174 -9 140 5Q106 19 82.5 44.5Q59 70 46.5 105.5Q34 141 34 184Q34 241 51.5 290.5Q69 340 100.5 376.5Q132 413 173.5 433Q215 453 262 453ZM589 389Q563 389 540 380Q517 371 498 354.5Q479 338 465.5 316Q452 294 443 268H673Q673 271 673.5 274.5Q674 278 674.5 281Q675 284 675 287Q675 290 675 293Q675 313 670 330.5Q665 348 654.5 361Q644 374 627.5 381.5Q611 389 589 389ZM217 57Q249 57 277 72Q305 87 325.5 114Q346 141 357 178.5Q368 216 368 260Q368 289 360.5 312.5Q353 336 339.5 352.5Q326 369 306 378Q286 387 261 387Q229 387 201.5 372Q174 357 153.5 330Q133 303 121.5 265.5Q110 228 110 184Q110 155 117.5 131.5Q125 108 138.5 91.5Q152 75 172 66Q192 57 217 57Z" glyph-name="oe" horiz-adv-x="772" unicode="&#339;" /><glyph d="M261 4H317Q307 -9 288.5 -33.5Q270 -58 262 -70Q254 -82 249.5 -92.5Q245 -103 245 -113Q245 -118 246 -121.5Q247 -125 249.5 -127.5Q252 -130 255.5 -131Q259 -132 263 -132Q268 -132 272.5 -131Q277 -130 281.5 -128Q286 -126 291.5 -123.5Q297 -121 303 -117L294 -167Q288 -171 281.5 -174.5Q275 -178 268.5 -180.5Q262 -183 255 -184.5Q248 -186 240 -186Q226 -186 215.5 -182.5Q205 -179 198 -172Q191 -165 187.5 -155.5Q184 -146 184 -134Q184 -117 190 -100.5Q196 -84 206 -68.5Q216 -53 261 4Z" glyph-name="ogonek" horiz-adv-x="500" unicode="&#731;" /><glyph d="M217 -9Q174 -9 140 5Q106 19 82.5 44.5Q59 70 46.5 105.5Q34 141 34 184Q34 241 51.5 290.5Q69 340 100.5 376.5Q132 413 173.5 433Q215 453 262 453Q304 453 338 439Q372 425 396 399.5Q420 374 432 338.5Q444 303 444 260Q444 203 426.5 153.5Q409 104 377.5 67.5Q346 31 304.5 11Q263 -9 217 -9ZM217 57Q249 57 277 72Q305 87 325.5 114Q346 141 357 178.5Q368 216 368 260Q368 289 360.5 312.5Q353 336 339.5 352.5Q326 369 306 378Q286 387 261 387Q229 387 201.5 372Q174 357 153.5 330Q133 303 121.5 265.5Q110 228 110 184Q110 155 117.5 131.5Q125 108 138.5 91.5Q152 75 172 66Q192 57 217 57ZM320 516H255L190 650H263Z" glyph-name="ograve" horiz-adv-x="478" unicode="&#242;" /><glyph d="M374 516H310L400 650H466ZM251 516H186L276 650H342ZM217 -9Q174 -9 140 5Q106 19 82.5 44.5Q59 70 46.5 105.5Q34 141 34 184Q34 241 51.5 290.5Q69 340 100.5 376.5Q132 413 173.5 433Q215 453 262 453Q304 453 338 439Q372 425 396 399.5Q420 374 432 338.5Q444 303 444 260Q444 203 426.5 153.5Q409 104 377.5 67.5Q346 31 304.5 11Q263 -9 217 -9ZM217 57Q249 57 277 72Q305 87 325.5 114Q346 141 357 178.5Q368 216 368 260Q368 289 360.5 312.5Q353 336 339.5 352.5Q326 369 306 378Q286 387 261 387Q229 387 201.5 372Q174 357 153.5 330Q133 303 121.5 265.5Q110 228 110 184Q110 155 117.5 131.5Q125 108 138.5 91.5Q152 75 172 66Q192 57 217 57Z" glyph-name="ohungarumlaut" horiz-adv-x="478" unicode="&#337;" /><glyph d="M184 530 195 591H409L398 530ZM217 -9Q174 -9 140 5Q106 19 82.5 44.5Q59 70 46.5 105.5Q34 141 34 184Q34 241 51.5 290.5Q69 340 100.5 376.5Q132 413 173.5 433Q215 453 262 453Q304 453 338 439Q372 425 396 399.5Q420 374 432 338.5Q444 303 444 260Q444 203 426.5 153.5Q409 104 377.5 67.5Q346 31 304.5 11Q263 -9 217 -9ZM217 57Q249 57 277 72Q305 87 325.5 114Q346 141 357 178.5Q368 216 368 260Q368 289 360.5 312.5Q353 336 339.5 352.5Q326 369 306 378Q286 387 261 387Q229 387 201.5 372Q174 357 153.5 330Q133 303 121.5 265.5Q110 228 110 184Q110 155 117.5 131.5Q125 108 138.5 91.5Q152 75 172 66Q192 57 217 57Z" glyph-name="omacron" horiz-adv-x="478" unicode="&#333;" /><glyph d="M316 615 208 0H132L223 519L57 442L71 522L269 615Z" glyph-name="one" horiz-adv-x="325" unicode="1" /><glyph d="M34 0 46 70H221L300 520L112 431L127 512L347 615H393L298 70H452L440 0Z" glyph-name="one.lt" horiz-adv-x="520" /><glyph d="M257 615 199 282H136L181 541L94 501L106 565L215 615ZM636 614 101 0H32L567 614ZM482 56H601L591 0H361V2L485 132Q524 171 534.5 184.5Q545 198 552 213Q559 228 559 243Q559 251 556.5 258Q554 265 548.5 270Q543 275 535 277.5Q527 280 516 280Q503 280 488.5 276Q474 272 460 265Q446 258 433.5 250Q421 242 410 234L422 298Q433 306 445.5 313.5Q458 321 472.5 326.5Q487 332 503 335Q519 338 535 338Q556 338 572.5 332Q589 326 600.5 315Q612 304 618 289.5Q624 275 624 257Q624 238 617.5 219.5Q611 201 599.5 184Q588 167 575 152Q562 137 542 116Z" glyph-name="onehalf" horiz-adv-x="682" unicode="&#189;" /><glyph d="M257 615 199 282H136L181 541L94 501L106 565L215 615ZM637 614 102 0H33L568 614ZM553 333 420 123H497L508 190H564L553 123H600L590 70H543L531 0H475L487 70H324V72L490 333Z" glyph-name="onequarter" horiz-adv-x="667" unicode="&#188;" /><glyph d="M235 615 177 282H114L159 541L72 501L84 565L193 615Z" glyph-name="onesuperior" horiz-adv-x="232" unicode="&#185;" /><glyph d="M235 397 239 424Q237 431 232 436.5Q227 442 220 446Q213 450 203.5 452.5Q194 455 183 455Q171 455 159.5 452Q148 449 138.5 443Q129 437 123 427.5Q117 418 117 405Q117 396 121 388.5Q125 381 132.5 376Q140 371 149.5 368.5Q159 366 170 366Q180 366 189.5 368.5Q199 371 208 375Q217 379 224 384.5Q231 390 235 397ZM249 480 255 510Q255 512 255.5 514Q256 516 256 517.5Q256 519 256 520.5Q256 522 256 524Q256 534 252.5 541.5Q249 549 241.5 554.5Q234 560 224 562.5Q214 565 200 565Q187 565 175 563.5Q163 562 151.5 558.5Q140 555 129.5 550.5Q119 546 109 540L120 600Q129 605 140.5 609.5Q152 614 165 617.5Q178 621 191.5 622.5Q205 624 219 624Q244 624 263 618.5Q282 613 295.5 602Q309 591 316 574.5Q323 558 323 538Q323 535 323 532Q323 529 322.5 525.5Q322 522 322 519.5Q322 517 321 512L287 321H222L225 342Q220 337 212 332.5Q204 328 194.5 324Q185 320 174 318Q163 316 151 316Q130 316 112 322Q94 328 80.5 339Q67 350 59.5 366Q52 382 52 401Q52 424 62 443.5Q72 463 89.5 476.5Q107 490 129.5 497Q152 504 176 504Q188 504 199 502Q210 500 220 496.5Q230 493 237 488.5Q244 484 249 480Z" glyph-name="ordfeminine" horiz-adv-x="308" unicode="&#170;" /><glyph d="M190 314Q161 314 137.5 323.5Q114 333 97.5 350Q81 367 72 391.5Q63 416 63 446Q63 484 75 517Q87 550 108.5 574Q130 598 158.5 611Q187 624 219 624Q248 624 271.5 614.5Q295 605 312 588Q329 571 338 546.5Q347 522 347 493Q347 455 335 422Q323 389 301.5 364.5Q280 340 251 327Q222 314 190 314ZM192 373Q211 373 226.5 382Q242 391 253.5 407Q265 423 271.5 445Q278 467 278 493Q278 509 274 522.5Q270 536 262 545.5Q254 555 243 560.5Q232 566 218 566Q200 566 184 557Q168 548 156.5 531.5Q145 515 138.5 493Q132 471 132 445Q132 429 136 416Q140 403 147.5 393Q155 383 166.5 378Q178 373 192 373Z" glyph-name="ordmasculine" horiz-adv-x="325" unicode="&#186;" /><glyph d="M112 184Q112 174 113 164.5Q114 155 115.5 146Q117 137 120 129Q123 121 126 113L335 367Q329 372 321.5 376Q314 380 305 383Q296 386 286.5 387.5Q277 389 266 389Q234 389 206 374Q178 359 156.5 331Q135 303 123.5 265.5Q112 228 112 184ZM222 55Q254 55 282.5 70Q311 85 332 113Q353 141 364.5 178.5Q376 216 376 260Q376 269 375.5 278Q375 287 373.5 295.5Q372 304 369.5 311.5Q367 319 364 326L156 75Q162 70 169.5 66.5Q177 63 185.5 60.5Q194 58 203 56.5Q212 55 222 55ZM222 -9Q206 -9 190.5 -7Q175 -5 161.5 -1Q148 3 136 8.5Q124 14 113 22L66 -34L28 -5L78 55Q68 67 61 81.5Q54 96 49 112.5Q44 129 41.5 146.5Q39 164 39 184Q39 241 56.5 290.5Q74 340 105.5 376.5Q137 413 178.5 433Q220 453 267 453Q284 453 299.5 451Q315 449 329 444.5Q343 440 355.5 433.5Q368 427 379 419L425 475L464 446L413 385Q422 373 428.5 359Q435 345 439.5 329Q444 313 446.5 296Q449 279 449 260Q449 203 431.5 153.5Q414 104 382.5 67.5Q351 31 309.5 11Q268 -9 222 -9Z" glyph-name="oslash" horiz-adv-x="488" unicode="&#248;" /><glyph d="M112 184Q112 174 113 164.5Q114 155 115.5 146Q117 137 120 129Q123 121 126 113L335 367Q329 372 321.5 376Q314 380 305 383Q296 386 286.5 387.5Q277 389 266 389Q234 389 206 374Q178 359 156.5 331Q135 303 123.5 265.5Q112 228 112 184ZM222 55Q254 55 282.5 70Q311 85 332 113Q353 141 364.5 178.5Q376 216 376 260Q376 269 375.5 278Q375 287 373.5 295.5Q372 304 369.5 311.5Q367 319 364 326L156 75Q162 70 169.5 66.5Q177 63 185.5 60.5Q194 58 203 56.5Q212 55 222 55ZM222 -9Q206 -9 190.5 -7Q175 -5 161.5 -1Q148 3 136 8.5Q124 14 113 22L66 -34L28 -5L78 55Q68 67 61 81.5Q54 96 49 112.5Q44 129 41.5 146.5Q39 164 39 184Q39 241 56.5 290.5Q74 340 105.5 376.5Q137 413 178.5 433Q220 453 267 453Q284 453 299.5 451Q315 449 329 444.5Q343 440 355.5 433.5Q368 427 379 419L425 475L464 446L413 385Q422 373 428.5 359Q435 345 439.5 329Q444 313 446.5 296Q449 279 449 260Q449 203 431.5 153.5Q414 104 382.5 67.5Q351 31 309.5 11Q268 -9 222 -9ZM322 516H251L354 650H435Z" glyph-name="oslashacute" horiz-adv-x="488" unicode="&#511;" /><glyph d="M217 -9Q174 -9 140 5Q106 19 82.5 44.5Q59 70 46.5 105.5Q34 141 34 184Q34 241 51.5 290.5Q69 340 100.5 376.5Q132 413 173.5 433Q215 453 262 453Q304 453 338 439Q372 425 396 399.5Q420 374 432 338.5Q444 303 444 260Q444 203 426.5 153.5Q409 104 377.5 67.5Q346 31 304.5 11Q263 -9 217 -9ZM217 57Q249 57 277 72Q305 87 325.5 114Q346 141 357 178.5Q368 216 368 260Q368 289 360.5 312.5Q353 336 339.5 352.5Q326 369 306 378Q286 387 261 387Q229 387 201.5 372Q174 357 153.5 330Q133 303 121.5 265.5Q110 228 110 184Q110 155 117.5 131.5Q125 108 138.5 91.5Q152 75 172 66Q192 57 217 57ZM391 633H441Q436 606 427.5 584.5Q419 563 407 547.5Q395 532 379 523.5Q363 515 345 515Q330 515 318 522.5Q306 530 292.5 545Q279 560 271.5 566.5Q264 573 253 573Q245 573 238 569Q231 565 225.5 558Q220 551 216 541Q212 531 209 518H159Q164 545 172.5 566.5Q181 588 193 603.5Q205 619 221 627.5Q237 636 255 636Q270 636 282 628.5Q294 621 308 606Q322 591 329.5 584.5Q337 578 347 578Q355 578 362 582Q369 586 374.5 593Q380 600 384 610Q388 620 391 633Z" glyph-name="otilde" horiz-adv-x="478" unicode="&#245;" /><glyph d="M158 307 127 132Q133 115 143 101.5Q153 88 166 78.5Q179 69 196 64Q213 59 232 59Q270 59 300 75.5Q330 92 351 120.5Q372 149 382.5 185.5Q393 222 393 263Q393 290 386.5 312Q380 334 366.5 350.5Q353 367 333.5 376Q314 385 289 385Q269 385 250 379.5Q231 374 215 363.5Q199 353 184.5 338.5Q170 324 158 307ZM114 53 74 -170H-1L107 444H182L172 389Q183 402 197.5 413.5Q212 425 229.5 434Q247 443 266 448Q285 453 305 453Q346 453 377 439Q408 425 428.5 399Q449 373 459 338.5Q469 304 469 263Q469 209 452 159.5Q435 110 403.5 72Q372 34 328.5 12.5Q285 -9 234 -9Q212 -9 192.5 -4Q173 1 158 9.5Q143 18 132 29.5Q121 41 114 53Z" glyph-name="p" horiz-adv-x="504" unicode="p" /><glyph d="M170 -90 239 301Q204 301 171.5 309.5Q139 318 113.5 335.5Q88 353 73 378.5Q58 404 58 437Q58 483 79.5 517Q101 551 136.5 572.5Q172 594 215 604Q258 614 302 614H357L233 -90ZM302 -90 426 614H489L365 -90Z" glyph-name="paragraph" horiz-adv-x="489" unicode="&#182;" /><glyph d="M32 216Q32 294 55.5 363.5Q79 433 123.5 490Q168 547 231 587.5Q294 628 372 650L358 569Q305 554 259 521.5Q213 489 179 442.5Q145 396 126.5 338Q108 280 108 216Q108 173 118.5 137Q129 101 148.5 72.5Q168 44 195.5 25Q223 6 258 -4L243 -84Q194 -69 155 -42Q116 -15 88.5 23Q61 61 46.5 110Q32 159 32 216Z" glyph-name="parenleft" horiz-adv-x="321" unicode="(" /><glyph d="M37 235Q37 313 60.5 382.5Q84 452 128.5 509Q173 566 236 606.5Q299 647 377 669L363 588Q310 573 264 540.5Q218 508 184 461.5Q150 415 131.5 357Q113 299 113 235Q113 192 123.5 156Q134 120 153.5 91.5Q173 63 200.5 44Q228 25 263 15L248 -65Q199 -50 160 -23Q121 4 93.5 42Q66 80 51.5 129Q37 178 37 235Z" glyph-name="parenleft.cap" horiz-adv-x="321" /><glyph d="M312 350Q312 272 288.5 202.5Q265 133 220.5 76Q176 19 113 -21.5Q50 -62 -28 -84L-14 -3Q39 12 85 44.5Q131 77 165 123.5Q199 170 217.5 228Q236 286 236 350Q236 393 225.5 429Q215 465 195.5 493.5Q176 522 148.5 541Q121 560 86 570L101 650Q150 635 189 608Q228 581 255.5 543Q283 505 297.5 456Q312 407 312 350Z" glyph-name="parenright" horiz-adv-x="321" unicode=")" /><glyph d="M317 370Q317 292 293.5 222.5Q270 153 225.5 96Q181 39 118 -1.5Q55 -42 -23 -64L-9 17Q44 32 90 64.5Q136 97 170 143.5Q204 190 222.5 248Q241 306 241 370Q241 413 230.5 449Q220 485 200.5 513.5Q181 542 153.5 561Q126 580 91 590L106 670Q155 655 194 628Q233 601 260.5 563Q288 525 302.5 476Q317 427 317 370Z" glyph-name="parenright.cap" horiz-adv-x="321" /><glyph d="M205 623Q232 623 255 613.5Q278 604 295.5 586.5Q313 569 322.5 546Q332 523 332 497Q332 470 322 445Q312 420 293 400Q274 380 248.5 368.5Q223 357 194 357Q168 357 144.5 366.5Q121 376 103.5 393.5Q86 411 76.5 434.5Q67 458 67 484Q67 511 77 536Q87 561 106 580.5Q125 600 150.5 611.5Q176 623 205 623ZM54 0 541 614H608L121 0ZM197 417Q212 417 225.5 423Q239 429 250 439.5Q261 450 267 464.5Q273 479 273 495Q273 509 267.5 521.5Q262 534 252 543.5Q242 553 229 558.5Q216 564 202 564Q188 564 174 558Q160 552 149.5 541.5Q139 531 133 516.5Q127 502 127 486Q127 472 132.5 459.5Q138 447 147.5 437.5Q157 428 170 422.5Q183 417 197 417ZM457 -9Q430 -9 407 0.5Q384 10 366.5 27.5Q349 45 339.5 68Q330 91 330 117Q330 144 340 169Q350 194 369 214Q388 234 413.5 245.5Q439 257 468 257Q495 257 518 247.5Q541 238 558.5 220.5Q576 203 585.5 179.5Q595 156 595 130Q595 103 585 78Q575 53 556 33.5Q537 14 511.5 2.5Q486 -9 457 -9ZM465 197Q450 197 436.5 191Q423 185 412 174.5Q401 164 395 149.5Q389 135 389 119Q389 105 394.5 92.5Q400 80 410 70.5Q420 61 433 55.5Q446 50 460 50Q475 50 488.5 56Q502 62 512.5 72.5Q523 83 529 97.5Q535 112 535 128Q535 142 529.5 154.5Q524 167 514.5 176.5Q505 186 492 191.5Q479 197 465 197Z" glyph-name="percent" horiz-adv-x="649" unicode="%" /><glyph d="M176 623Q200 623 221.5 614Q243 605 259 589Q275 573 283.5 552Q292 531 292 507Q292 482 282.5 459.5Q273 437 256 419Q239 401 216 390.5Q193 380 166 380Q142 380 120.5 389Q99 398 83 414Q67 430 58.5 451Q50 472 50 496Q50 521 59.5 543.5Q69 566 86 584Q103 602 126 612.5Q149 623 176 623ZM535 614 64 0H-3L467 614ZM168 433Q182 433 194.5 438.5Q207 444 217.5 454Q228 464 233.5 477Q239 490 239 505Q239 518 234 530Q229 542 220 551Q211 560 199 565Q187 570 174 570Q160 570 147.5 564.5Q135 559 124.5 549Q114 539 108.5 526Q103 513 103 498Q103 485 108 473Q113 461 122 452Q131 443 143 438Q155 433 168 433ZM355 -9Q331 -9 310 0Q289 9 273 25Q257 41 248 62Q239 83 239 107Q239 132 248.5 154.5Q258 177 275 195Q292 213 315 223.5Q338 234 365 234Q389 234 410.5 225Q432 216 448 200Q464 184 473 163Q482 142 482 118Q482 93 472.5 70.5Q463 48 445.5 30Q428 12 405 1.5Q382 -9 355 -9ZM363 181Q349 181 336.5 175.5Q324 170 313.5 160Q303 150 297.5 137Q292 124 292 109Q292 96 297 84Q302 72 311 63Q320 54 332 49Q344 44 358 44Q372 44 384.5 49.5Q397 55 407 65Q417 75 422.5 88Q428 101 428 116Q428 129 423 141Q418 153 409 162Q400 171 388 176Q376 181 363 181Z" glyph-name="percent.lt" horiz-adv-x="520" /><glyph d="M7 49Q7 60 11 70.5Q15 81 22.5 88.5Q30 96 39.5 100Q49 104 60 104Q71 104 80.5 100Q90 96 97.5 88.5Q105 81 109 70.5Q113 60 113 49Q113 38 109 28Q105 18 98 10.5Q91 3 81 -1Q71 -5 60 -5Q49 -5 39 -1Q29 3 22 10.5Q15 18 11 28Q7 38 7 49Z" glyph-name="period" horiz-adv-x="171" unicode="." /><glyph d="M43 49Q43 60 47 70.5Q51 81 58.5 88.5Q66 96 75.5 100Q85 104 96 104Q107 104 116.5 100Q126 96 133.5 88.5Q141 81 145 70.5Q149 60 149 49Q149 38 145 28Q141 18 134 10.5Q127 3 117 -1Q107 -5 96 -5Q85 -5 75 -1Q65 3 58 10.5Q51 18 47 28Q43 38 43 49Z" glyph-name="period.tab" horiz-adv-x="260" /><glyph d="M37 262Q37 273 41 283.5Q45 294 52.5 301.5Q60 309 69.5 313Q79 317 90 317Q101 317 110.5 313Q120 309 127.5 301.5Q135 294 139 283.5Q143 273 143 262Q143 251 139 241Q135 231 128 223.5Q121 216 111 212Q101 208 90 208Q79 208 69 212Q59 216 52 223.5Q45 231 41 241Q37 251 37 262Z" glyph-name="periodcentered" horiz-adv-x="176" unicode="&#183;" /><glyph d="M49 302Q49 313 53 323.5Q57 334 64.5 341.5Q72 349 81.5 353Q91 357 102 357Q113 357 122.5 353Q132 349 139.5 341.5Q147 334 151 323.5Q155 313 155 302Q155 291 151 281Q147 271 140 263.5Q133 256 123 252Q113 248 102 248Q91 248 81 252Q71 256 64 263.5Q57 271 53 281Q49 291 49 302Z" glyph-name="periodcentered.cap" horiz-adv-x="176" /><glyph d="M205 623Q232 623 255 613.5Q278 604 295.5 586.5Q313 569 322.5 546Q332 523 332 497Q332 470 322 445Q312 420 293 400Q274 380 248.5 368.5Q223 357 194 357Q168 357 144.5 366.5Q121 376 103.5 393.5Q86 411 76.5 434.5Q67 458 67 484Q67 511 77 536Q87 561 106 580.5Q125 600 150.5 611.5Q176 623 205 623ZM54 0 541 614H608L121 0ZM197 417Q212 417 225.5 423Q239 429 250 439.5Q261 450 267 464.5Q273 479 273 495Q273 509 267.5 521.5Q262 534 252 543.5Q242 553 229 558.5Q216 564 202 564Q188 564 174 558Q160 552 149.5 541.5Q139 531 133 516.5Q127 502 127 486Q127 472 132.5 459.5Q138 447 147.5 437.5Q157 428 170 422.5Q183 417 197 417ZM750 -9Q724 -9 701 0.5Q678 10 660.5 27.5Q643 45 633.5 68Q624 91 624 117Q624 144 634 169Q644 194 663 214Q682 234 707.5 245.5Q733 257 762 257Q788 257 811.5 247.5Q835 238 852.5 220.5Q870 203 879.5 179.5Q889 156 889 130Q889 103 878.5 78Q868 53 849 33.5Q830 14 804.5 2.5Q779 -9 750 -9ZM457 -9Q430 -9 407 0.5Q384 10 366.5 27.5Q349 45 339.5 68Q330 91 330 117Q330 144 340 169Q350 194 369 214Q388 234 413.5 245.5Q439 257 468 257Q495 257 518 247.5Q541 238 558.5 220.5Q576 203 585.5 179.5Q595 156 595 130Q595 103 585 78Q575 53 556 33.5Q537 14 511.5 2.5Q486 -9 457 -9ZM759 197Q744 197 730.5 191Q717 185 706 174.5Q695 164 689 149.5Q683 135 683 119Q683 105 688.5 92.5Q694 80 703.5 70.5Q713 61 726 55.5Q739 50 753 50Q768 50 781.5 56Q795 62 806 72.5Q817 83 823 97.5Q829 112 829 128Q829 142 823.5 154.5Q818 167 808.5 176.5Q799 186 786 191.5Q773 197 759 197ZM465 197Q450 197 436.5 191Q423 185 412 174.5Q401 164 395 149.5Q389 135 389 119Q389 105 394.5 92.5Q400 80 410 70.5Q420 61 433 55.5Q446 50 460 50Q475 50 488.5 56Q502 62 512.5 72.5Q523 83 529 97.5Q535 112 535 128Q535 142 529.5 154.5Q524 167 514.5 176.5Q505 186 492 191.5Q479 197 465 197Z" glyph-name="perthousand" horiz-adv-x="929" unicode="&#8240;" /><glyph d="M190 623Q214 623 235.5 614Q257 605 273 589Q289 573 297.5 552Q306 531 306 507Q306 482 296.5 459.5Q287 437 270 419Q253 401 230 390.5Q207 380 180 380Q156 380 134.5 389Q113 398 97 414Q81 430 72.5 451Q64 472 64 496Q64 521 73.5 543.5Q83 566 100 584Q117 602 140 612.5Q163 623 190 623ZM549 614 78 0H10L481 614ZM182 433Q196 433 208.5 438.5Q221 444 231.5 454Q242 464 247.5 477Q253 490 253 505Q253 518 248 530Q243 542 234 551Q225 560 213 565Q201 570 188 570Q174 570 161.5 564.5Q149 559 138.5 549Q128 539 122.5 526Q117 513 117 498Q117 485 122 473Q127 461 136 452Q145 443 157 438Q169 433 182 433ZM643 -9Q619 -9 597.5 0Q576 9 560 25Q544 41 535 62Q526 83 526 107Q526 132 535.5 154.5Q545 177 562 195Q579 213 602.5 223.5Q626 234 653 234Q677 234 698 225Q719 216 735 200Q751 184 760 163Q769 142 769 118Q769 93 759.5 70.5Q750 48 733 30Q716 12 692.5 1.5Q669 -9 643 -9ZM369 -9Q345 -9 323.5 0Q302 9 286 25Q270 41 261.5 62Q253 83 253 107Q253 132 262.5 154.5Q272 177 289 195Q306 213 329 223.5Q352 234 379 234Q403 234 424.5 225Q446 216 462 200Q478 184 486.5 163Q495 142 495 118Q495 93 485.5 70.5Q476 48 459 30Q442 12 419 1.5Q396 -9 369 -9ZM650 181Q636 181 623.5 175.5Q611 170 601 160Q591 150 585.5 137Q580 124 580 109Q580 96 585 84Q590 72 599 63Q608 54 620 49Q632 44 645 44Q659 44 671.5 49.5Q684 55 694 65Q704 75 709.5 88Q715 101 715 116Q715 129 710 141Q705 153 696 162Q687 171 675.5 176Q664 181 650 181ZM377 181Q363 181 350.5 175.5Q338 170 327.5 160Q317 150 311.5 137Q306 124 306 109Q306 96 311 84Q316 72 325 63Q334 54 346 49Q358 44 371 44Q385 44 397.5 49.5Q410 55 420.5 65Q431 75 436.5 88Q442 101 442 116Q442 129 437 141Q432 153 423 162Q414 171 402 176Q390 181 377 181Z" glyph-name="perthousand.lt" horiz-adv-x="800" /><glyph d="M474 266H308L279 100H216L245 266H79L90 328H256L285 494H348L319 328H485Z" glyph-name="plus" horiz-adv-x="540" unicode="+" /><glyph d="M458 266H292L263 100H200L229 266H63L74 328H240L269 494H332L303 328H469Z" glyph-name="plus.lt" horiz-adv-x="520" /><glyph d="M484 327H320L297 198H236L259 327H95L106 389H270L293 518H354L331 389H495ZM53 88 63 150H452L442 88Z" glyph-name="plusminus" horiz-adv-x="544" unicode="&#177;" /><glyph d="M477 327H313L290 198H229L252 327H88L99 389H263L286 518H347L324 389H488ZM46 88 56 150H445L435 88Z" glyph-name="plusminus.lt" horiz-adv-x="520" /><glyph d="M687 307Q687 239 662.5 181Q638 123 594 80.5Q550 38 492.5 14.5Q435 -9 371 -9Q306 -9 248.5 14.5Q191 38 147 80.5Q103 123 78.5 181Q54 239 54 307Q54 375 78.5 433Q103 491 147 533.5Q191 576 248.5 599.5Q306 623 371 623Q435 623 492.5 599.5Q550 576 594 533.5Q638 491 662.5 433Q687 375 687 307ZM647 307Q647 366 625.5 417Q604 468 566 505.5Q528 543 477.5 563.5Q427 584 371 584Q315 584 264.5 563.5Q214 543 175.5 505.5Q137 468 115.5 417Q94 366 94 307Q94 248 115.5 197Q137 146 175.5 108.5Q214 71 264.5 50.5Q315 30 371 30Q427 30 477.5 50.5Q528 71 566 108.5Q604 146 625.5 197Q647 248 647 307ZM406 254H324V124H254V493H406Q435 493 459 485Q483 477 499.5 462Q516 447 525 425Q534 403 534 374Q534 345 525 322.5Q516 300 499.5 285Q483 270 459 262Q435 254 406 254ZM402 316Q418 316 430 320Q442 324 450 331.5Q458 339 462 349.5Q466 360 466 374Q466 387 462 398Q458 409 450 416.5Q442 424 430 428Q418 432 402 432H324V316Z" glyph-name="published" horiz-adv-x="706" /><glyph d="M390 391 399 444H475L367 -170H291L332 55Q321 42 306.5 30.5Q292 19 274.5 10Q257 1 238 -4Q219 -9 199 -9Q158 -9 127 5Q96 19 75.5 45Q55 71 44.5 105.5Q34 140 34 181Q34 233 51.5 282Q69 331 100.5 370Q132 409 175.5 431Q219 453 270 453Q292 453 311.5 448Q331 443 346 434.5Q361 426 372 414.5Q383 403 390 391ZM346 137 376 312Q370 329 360.5 342.5Q351 356 337.5 365.5Q324 375 307.5 380Q291 385 272 385Q234 385 204 367.5Q174 350 153 320.5Q132 291 121 254.5Q110 218 110 181Q110 154 117 132Q124 110 137.5 93.5Q151 77 170.5 68Q190 59 215 59Q235 59 254 64.5Q273 70 289 80.5Q305 91 319.5 105.5Q334 120 346 137Z" glyph-name="q" horiz-adv-x="501" unicode="q" /><glyph d="M244 319Q303 372 319 390Q335 408 345.5 429.5Q356 451 356 475Q356 493 350.5 507Q345 521 333 531Q321 541 303.5 546Q286 551 263 551Q236 551 209.5 544Q183 537 158.5 524.5Q134 512 111.5 496Q89 480 69 462L83 545Q102 562 124.5 576Q147 590 172 600.5Q197 611 223.5 617Q250 623 276 623Q313 623 342.5 613.5Q372 604 392.5 585.5Q413 567 423.5 541Q434 515 434 482Q434 450 423 421.5Q412 393 394 369.5Q376 346 356.5 328Q337 310 302 279Q286 265 275.5 253.5Q265 242 258 232Q251 222 247 213Q243 204 241 193H165Q170 212 176 228Q182 244 191.5 258.5Q201 273 213.5 287.5Q226 302 244 319ZM123 49Q123 60 127 70.5Q131 81 138.5 88.5Q146 96 155.5 100Q165 104 176 104Q187 104 197 100Q207 96 214.5 88.5Q222 81 226 70.5Q230 60 230 49Q230 38 226 28Q222 18 214.5 10.5Q207 3 197 -1Q187 -5 176 -5Q165 -5 155.5 -1Q146 3 138.5 10.5Q131 18 127 28Q123 38 123 49Z" glyph-name="question" horiz-adv-x="414" unicode="?" /><glyph d="M316 469Q316 458 312 447.5Q308 437 300.5 429.5Q293 422 283.5 418Q274 414 263 414Q252 414 242 418Q232 422 224.5 429.5Q217 437 213 447.5Q209 458 209 469Q209 480 213 490Q217 500 224.5 507.5Q232 515 242 519Q252 523 263 523Q274 523 283.5 519Q293 515 300.5 507.5Q308 500 312 490Q316 480 316 469ZM195 199Q136 146 120 128Q104 110 93.5 88.5Q83 67 83 43Q83 25 88.5 11Q94 -3 106 -13Q118 -23 135.5 -28Q153 -33 176 -33Q203 -33 229.5 -26Q256 -19 280.5 -6.5Q305 6 327.5 22Q350 38 370 56L356 -27Q337 -44 314.5 -58Q292 -72 267 -82.5Q242 -93 215.5 -99Q189 -105 163 -105Q126 -105 96.5 -95.5Q67 -86 46.5 -67.5Q26 -49 15.5 -23Q5 3 5 36Q5 68 16 96.5Q27 125 45 148.5Q63 172 82.5 190Q102 208 137 239Q153 253 163.5 264.5Q174 276 181 286Q188 296 192 305Q196 314 198 325H274Q269 306 263 290Q257 274 247.5 259.5Q238 245 225.5 230.5Q213 216 195 199Z" glyph-name="questiondown" horiz-adv-x="414" unicode="&#191;" /><glyph d="M323 565Q323 554 319 543.5Q315 533 307.5 525.5Q300 518 290.5 514Q281 510 270 510Q259 510 249 514Q239 518 231.5 525.5Q224 533 220 543.5Q216 554 216 565Q216 576 220 586Q224 596 231.5 603.5Q239 611 249 615Q259 619 270 619Q281 619 290.5 615Q300 611 307.5 603.5Q315 596 319 586Q323 576 323 565ZM202 295Q143 242 127 224Q111 206 100.5 184.5Q90 163 90 139Q90 121 95.5 107Q101 93 113 83Q125 73 142.5 68Q160 63 183 63Q210 63 236.5 70Q263 77 287.5 89.5Q312 102 334.5 118Q357 134 377 152L363 69Q344 52 321.5 38Q299 24 274 13.5Q249 3 222.5 -3Q196 -9 170 -9Q133 -9 103.5 0.5Q74 10 53.5 28.5Q33 47 22.5 73Q12 99 12 132Q12 164 23 192.5Q34 221 52 244.5Q70 268 89.5 286Q109 304 144 335Q160 349 170.5 360.5Q181 372 188 382Q195 392 199 401Q203 410 205 421H281Q276 402 270 386Q264 370 254.5 355.5Q245 341 232.5 326.5Q220 312 202 295Z" glyph-name="questiondown.cap" horiz-adv-x="414" /><glyph d="M187 395 226 614H292L253 395ZM68 395 107 614H173L134 395Z" glyph-name="quotedbl" horiz-adv-x="265" unicode="&quot;" /><glyph d="M-32 -103 48 1Q40 3 33 7.5Q26 12 21 18.5Q16 25 13.5 33Q11 41 11 50Q11 61 15 71Q19 81 26 88Q33 95 43 99Q53 103 64 103Q75 103 85 99Q95 95 102.5 88Q110 81 114 70.5Q118 60 118 47Q118 39 116 30.5Q114 22 110 14Q106 6 101.5 -1.5Q97 -9 91 -16L23 -103ZM121 -103 201 1Q193 3 186 7.5Q179 12 174 18.5Q169 25 166.5 33Q164 41 164 50Q164 61 168 71Q172 81 179 88Q186 95 196 99Q206 103 217 103Q228 103 238 99Q248 95 255.5 88Q263 81 267 70.5Q271 60 271 47Q271 39 269 30.5Q267 22 263 14Q259 6 254.5 -1.5Q250 -9 244 -16L176 -103Z" glyph-name="quotedblbase" horiz-adv-x="321" unicode="&#8222;" /><glyph d="M220 614 140 510Q148 508 155 503.5Q162 499 167 492.5Q172 486 174.5 478Q177 470 177 461Q177 450 173 440Q169 430 162 423Q155 416 145 412Q135 408 124 408Q113 408 103 412Q93 416 85.5 423Q78 430 74 440.5Q70 451 70 464Q70 472 72 480.5Q74 489 78 497Q82 505 86.5 512.5Q91 520 97 527L165 614ZM373 614 293 510Q301 508 308 503.5Q315 499 320 492.5Q325 486 327.5 478Q330 470 330 461Q330 450 326 440Q322 430 315 423Q308 416 298 412Q288 408 277 408Q266 408 256 412Q246 416 238.5 423Q231 430 227 440.5Q223 451 223 464Q223 472 225 480.5Q227 489 231 497Q235 505 239.5 512.5Q244 520 250 527L318 614Z" glyph-name="quotedblleft" horiz-adv-x="321" unicode="&#8220;" /><glyph d="M52 417 132 521Q124 523 117 527.5Q110 532 105 538.5Q100 545 97.5 553Q95 561 95 570Q95 581 99 591Q103 601 110 608Q117 615 127 619Q137 623 148 623Q159 623 169 619Q179 615 186.5 608Q194 601 198 590.5Q202 580 202 567Q202 559 200 550.5Q198 542 194 534Q190 526 185.5 518.5Q181 511 175 504L107 417ZM205 417 285 521Q277 523 270 527.5Q263 532 258 538.5Q253 545 250.5 553Q248 561 248 570Q248 581 252 591Q256 601 263 608Q270 615 280 619Q290 623 301 623Q312 623 322 619Q332 615 339.5 608Q347 601 351 590.5Q355 580 355 567Q355 559 353 550.5Q351 542 347 534Q343 526 338.5 518.5Q334 511 328 504L260 417Z" glyph-name="quotedblright" horiz-adv-x="321" unicode="&#8221;" /><glyph d="M220 614 140 510Q148 508 155 503.5Q162 499 167 492.5Q172 486 174.5 478Q177 470 177 461Q177 450 173 440Q169 430 162 423Q155 416 145 412Q135 408 124 408Q113 408 103 412Q93 416 85.5 423Q78 430 74 440.5Q70 451 70 464Q70 472 72 480.5Q74 489 78 497Q82 505 86.5 512.5Q91 520 97 527L165 614Z" glyph-name="quoteleft" horiz-adv-x="168" unicode="&#8216;" /><glyph d="M52 417 132 521Q124 523 117 527.5Q110 532 105 538.5Q100 545 97.5 553Q95 561 95 570Q95 581 99 591Q103 601 110 608Q117 615 127 619Q137 623 148 623Q159 623 169 619Q179 615 186.5 608Q194 601 198 590.5Q202 580 202 567Q202 559 200 550.5Q198 542 194 534Q190 526 185.5 518.5Q181 511 175 504L107 417Z" glyph-name="quoteright" horiz-adv-x="168" unicode="&#8217;" /><glyph d="M-32 -103 48 1Q40 3 33 7.5Q26 12 21 18.5Q16 25 13.5 33Q11 41 11 50Q11 61 15 71Q19 81 26 88Q33 95 43 99Q53 103 64 103Q75 103 85 99Q95 95 102.5 88Q110 81 114 70.5Q118 60 118 47Q118 39 116 30.5Q114 22 110 14Q106 6 101.5 -1.5Q97 -9 91 -16L23 -103Z" glyph-name="quotesinglbase" horiz-adv-x="161" unicode="&#8218;" /><glyph d="M68 395 107 614H176L136 395Z" glyph-name="quotesingle" horiz-adv-x="148" unicode="'" /><glyph d="M336 446 322 369Q318 372 312.5 374Q307 376 301 377.5Q295 379 288 380Q281 381 274 381Q256 381 239 375.5Q222 370 206.5 359Q191 348 178.5 332.5Q166 317 157 298L104 0H29L107 444H182L172 386Q181 400 194.5 412.5Q208 425 224 434Q240 443 258 448Q276 453 294 453Q301 453 307.5 452.5Q314 452 319.5 451Q325 450 329 449Q333 448 336 446Z" glyph-name="r" horiz-adv-x="321" unicode="r" /><glyph d="M263 516H192L295 650H376ZM336 446 322 369Q318 372 312.5 374Q307 376 301 377.5Q295 379 288 380Q281 381 274 381Q256 381 239 375.5Q222 370 206.5 359Q191 348 178.5 332.5Q166 317 157 298L104 0H29L107 444H182L172 386Q181 400 194.5 412.5Q208 425 224 434Q240 443 258 448Q276 453 294 453Q301 453 307.5 452.5Q314 452 319.5 451Q325 450 329 449Q333 448 336 446Z" glyph-name="racute" horiz-adv-x="321" unicode="&#341;" /><glyph d="M199 510 130 646H192L239 558L316 646H384L268 510ZM336 446 322 369Q318 372 312.5 374Q307 376 301 377.5Q295 379 288 380Q281 381 274 381Q256 381 239 375.5Q222 370 206.5 359Q191 348 178.5 332.5Q166 317 157 298L104 0H29L107 444H182L172 386Q181 400 194.5 412.5Q208 425 224 434Q240 443 258 448Q276 453 294 453Q301 453 307.5 452.5Q314 452 319.5 451Q325 450 329 449Q333 448 336 446Z" glyph-name="rcaron" horiz-adv-x="321" unicode="&#345;" /><glyph d="M-10 -201 36 -139Q28 -137 22 -133Q16 -129 11.5 -123.5Q7 -118 4.5 -110.5Q2 -103 2 -95Q2 -84 5.5 -75Q9 -66 16 -59Q23 -52 32 -48.5Q41 -45 51 -45Q61 -45 70 -48.5Q79 -52 86 -59Q93 -66 96.5 -75.5Q100 -85 100 -97Q100 -105 98 -112.5Q96 -120 92.5 -127.5Q89 -135 84.5 -142Q80 -149 75 -155L41 -201ZM336 446 322 369Q318 372 312.5 374Q307 376 301 377.5Q295 379 288 380Q281 381 274 381Q256 381 239 375.5Q222 370 206.5 359Q191 348 178.5 332.5Q166 317 157 298L104 0H29L107 444H182L172 386Q181 400 194.5 412.5Q208 425 224 434Q240 443 258 448Q276 453 294 453Q301 453 307.5 452.5Q314 452 319.5 451Q325 450 329 449Q333 448 336 446Z" glyph-name="rcommaaccent" horiz-adv-x="321" unicode="&#343;" /><glyph d="M420 440Q420 401 406 367.5Q392 334 367 309Q342 284 309 270.5Q276 257 239 257Q202 257 169 270.5Q136 284 111 309Q86 334 72 367.5Q58 401 58 440Q58 479 72 512.5Q86 546 111 571Q136 596 169 609.5Q202 623 239 623Q276 623 309 609.5Q342 596 367 571Q392 546 406 512.5Q420 479 420 440ZM390 440Q390 473 378.5 501.5Q367 530 346 550.5Q325 571 297.5 582.5Q270 594 239 594Q208 594 180.5 582.5Q153 571 132.5 550.5Q112 530 100.5 501.5Q89 473 89 440Q89 407 100.5 379Q112 351 132.5 330.5Q153 310 180.5 298.5Q208 287 239 287Q270 287 297.5 298.5Q325 310 346 330.5Q367 351 378.5 379Q390 407 390 440ZM251 449Q258 449 263.5 451Q269 453 272.5 456.5Q276 460 278 465Q280 470 280 475Q280 481 278 485.5Q276 490 272.5 494Q269 498 263.5 500Q258 502 251 502H211V449ZM236 414H211V346H169V538H253Q268 538 280.5 534Q293 530 302 521.5Q311 513 316 501.5Q321 490 321 475Q321 464 318 454.5Q315 445 309.5 438Q304 431 296.5 426Q289 421 279 418L328 346H281Z" glyph-name="registered" horiz-adv-x="412" unicode="&#174;" /><glyph d="M245 494Q227 494 212 500Q197 506 185.5 517.5Q174 529 168 544Q162 559 162 576Q162 594 169 610Q176 626 188.5 639Q201 652 217.5 659Q234 666 253 666Q271 666 286 660Q301 654 312.5 642.5Q324 631 330 616Q336 601 336 584Q336 566 329 550Q322 534 309.5 521Q297 508 280.5 501Q264 494 245 494ZM247 535Q256 535 264.5 538.5Q273 542 280 548Q287 554 290.5 563Q294 572 294 582Q294 591 290.5 599Q287 607 281.5 613Q276 619 268 622Q260 625 251 625Q242 625 233.5 621.5Q225 618 218 612Q211 606 207.5 597Q204 588 204 578Q204 569 207.5 561Q211 553 216.5 547Q222 541 230 538Q238 535 247 535Z" glyph-name="ring" horiz-adv-x="500" unicode="&#730;" /><glyph d="M246 648Q228 648 212.5 654Q197 660 186 671.5Q175 683 168.5 698Q162 713 162 730Q162 748 169 764.5Q176 781 188.5 794Q201 807 217.5 814Q234 821 253 821Q271 821 286.5 814.5Q302 808 313 797Q324 786 330.5 770.5Q337 755 337 738Q337 720 330 704Q323 688 310.5 675Q298 662 281.5 655Q265 648 246 648ZM248 689Q257 689 265.5 692.5Q274 696 280.5 702Q287 708 291 717Q295 726 295 736Q295 745 291.5 753Q288 761 282.5 767Q277 773 269 776.5Q261 780 252 780Q243 780 234 776.5Q225 773 218.5 766.5Q212 760 208 751.5Q204 743 204 732Q204 723 207.5 715Q211 707 217 701.5Q223 696 231 692.5Q239 689 248 689Z" glyph-name="ring.cap" horiz-adv-x="500" /><glyph d="M14 41 28 119Q41 104 56.5 92.5Q72 81 90 72.5Q108 64 127.5 59.5Q147 55 167 55Q186 55 203.5 59Q221 63 235 71.5Q249 80 257 94Q265 108 265 126Q265 136 261 144Q257 152 250 158.5Q243 165 233 170.5Q223 176 211 181L154 204Q132 212 115 222Q98 232 86 244Q74 256 67.5 272.5Q61 289 61 310Q61 342 74 368.5Q87 395 110 414Q133 433 164 443Q195 453 230 453Q251 453 270 450Q289 447 306 441.5Q323 436 338 428Q353 420 366 409L353 334Q341 346 327.5 356Q314 366 298.5 373.5Q283 381 265.5 385Q248 389 230 389Q211 389 194 384.5Q177 380 164 371.5Q151 363 143.5 350Q136 337 136 321Q136 311 139.5 303Q143 295 150 288.5Q157 282 167.5 276.5Q178 271 192 265L256 241Q277 233 292.5 223.5Q308 214 319 201Q330 188 335.5 172.5Q341 157 341 138Q341 105 327.5 78Q314 51 289.5 31.5Q265 12 233 1.5Q201 -9 166 -9Q143 -9 121.5 -5.5Q100 -2 80 4.5Q60 11 43.5 20Q27 29 14 41Z" glyph-name="s" horiz-adv-x="394" unicode="s" /><glyph d="M292 516H221L324 650H405ZM14 41 28 119Q41 104 56.5 92.5Q72 81 90 72.5Q108 64 127.5 59.5Q147 55 167 55Q186 55 203.5 59Q221 63 235 71.5Q249 80 257 94Q265 108 265 126Q265 136 261 144Q257 152 250 158.5Q243 165 233 170.5Q223 176 211 181L154 204Q132 212 115 222Q98 232 86 244Q74 256 67.5 272.5Q61 289 61 310Q61 342 74 368.5Q87 395 110 414Q133 433 164 443Q195 453 230 453Q251 453 270 450Q289 447 306 441.5Q323 436 338 428Q353 420 366 409L353 334Q341 346 327.5 356Q314 366 298.5 373.5Q283 381 265.5 385Q248 389 230 389Q211 389 194 384.5Q177 380 164 371.5Q151 363 143.5 350Q136 337 136 321Q136 311 139.5 303Q143 295 150 288.5Q157 282 167.5 276.5Q178 271 192 265L256 241Q277 233 292.5 223.5Q308 214 319 201Q330 188 335.5 172.5Q341 157 341 138Q341 105 327.5 78Q314 51 289.5 31.5Q265 12 233 1.5Q201 -9 166 -9Q143 -9 121.5 -5.5Q100 -2 80 4.5Q60 11 43.5 20Q27 29 14 41Z" glyph-name="sacute" horiz-adv-x="394" unicode="&#347;" /><glyph d="M228 510 159 646H221L268 558L345 646H413L297 510ZM14 41 28 119Q41 104 56.5 92.5Q72 81 90 72.5Q108 64 127.5 59.5Q147 55 167 55Q186 55 203.5 59Q221 63 235 71.5Q249 80 257 94Q265 108 265 126Q265 136 261 144Q257 152 250 158.5Q243 165 233 170.5Q223 176 211 181L154 204Q132 212 115 222Q98 232 86 244Q74 256 67.5 272.5Q61 289 61 310Q61 342 74 368.5Q87 395 110 414Q133 433 164 443Q195 453 230 453Q251 453 270 450Q289 447 306 441.5Q323 436 338 428Q353 420 366 409L353 334Q341 346 327.5 356Q314 366 298.5 373.5Q283 381 265.5 385Q248 389 230 389Q211 389 194 384.5Q177 380 164 371.5Q151 363 143.5 350Q136 337 136 321Q136 311 139.5 303Q143 295 150 288.5Q157 282 167.5 276.5Q178 271 192 265L256 241Q277 233 292.5 223.5Q308 214 319 201Q330 188 335.5 172.5Q341 157 341 138Q341 105 327.5 78Q314 51 289.5 31.5Q265 12 233 1.5Q201 -9 166 -9Q143 -9 121.5 -5.5Q100 -2 80 4.5Q60 11 43.5 20Q27 29 14 41Z" glyph-name="scaron" horiz-adv-x="394" unicode="&#353;" /></font>
</defs>
</svg>
