<?xml version="1.0" standalone="no"?><!DOCTYPE svg PUBLIC "-//W3C//DTD SVG 1.1//EN" "http://www.w3.org/Graphics/SVG/1.1/DTD/svg11.dtd" ><svg version="1.1" xmlns="http://www.w3.org/2000/svg"><defs><font horiz-adv-x="0" id="font"><font-face ascent="750" bbox="-180 -183 885 893" cap-height="614" descent="-250" font-family="Copyright Klim Type Foundry" font-stretch="normal" font-style="normal" font-weight="300" units-per-em="1000" x-height="444" /><missing-glyph horiz-adv-x="608" /><glyph d="M363 548 187 248H423ZM472 0 432 203H161L42 0H-12L350 614H398L522 0Z" glyph-name="A" horiz-adv-x="579" unicode="A" /><glyph d="M507 573 245 248H450ZM406 0 442 203H209L45 0H-12L481 614H885L876 567H556L516 339H805L797 293H508L465 47H785L777 0Z" glyph-name="AE" horiz-adv-x="867" unicode="&#198;" /><glyph d="M705 665H652L755 782H814ZM507 573 245 248H450ZM406 0 442 203H209L45 0H-12L481 614H885L876 567H556L516 339H805L797 293H508L465 47H785L777 0Z" glyph-name="AEacute" horiz-adv-x="867" unicode="&#508;" /><glyph d="M363 548 187 248H423ZM472 0 432 203H161L42 0H-12L350 614H398L522 0ZM406 665H353L456 782H515Z" glyph-name="Aacute" horiz-adv-x="579" unicode="&#193;" /><glyph d="M363 548 187 248H423ZM472 0 432 203H161L42 0H-12L350 614H398L522 0ZM385 664Q344 664 317 694Q290 724 300 781H340Q333 743 347 722.5Q361 702 389 702Q416 702 437.5 722.5Q459 743 466 781H505Q495 724 463 694Q431 664 385 664Z" glyph-name="Abreve" horiz-adv-x="579" unicode="&#258;" /><glyph d="M363 548 187 248H423ZM472 0 432 203H161L42 0H-12L350 614H398L522 0ZM423 786 494 667H450L397 751L316 667H266L379 786Z" glyph-name="Acircumflex" horiz-adv-x="579" unicode="&#194;" /><glyph d="M363 548 187 248H423ZM472 0 432 203H161L42 0H-12L350 614H398L522 0ZM421 715Q421 729 430.5 738.5Q440 748 453 748Q466 748 476 738.5Q486 729 486 715Q486 702 476 692Q466 682 453 682Q440 682 430.5 692Q421 702 421 715ZM296 715Q296 729 305.5 738.5Q315 748 329 748Q342 748 351.5 738.5Q361 729 361 715Q361 702 351.5 692Q342 682 329 682Q315 682 305.5 692Q296 702 296 715Z" glyph-name="Adieresis" horiz-adv-x="579" unicode="&#196;" /><glyph d="M363 548 187 248H423ZM472 0 432 203H161L42 0H-12L350 614H398L522 0ZM407 665H360L293 782H345Z" glyph-name="Agrave" horiz-adv-x="579" unicode="&#192;" /><glyph d="M363 548 187 248H423ZM472 0 432 203H161L42 0H-12L350 614H398L522 0ZM279 670 286 712H488L481 670Z" glyph-name="Amacron" horiz-adv-x="579" unicode="&#256;" /><glyph d="M350 614H398L522 0Q484 -54 467.5 -79Q451 -104 451 -126Q451 -136 456.5 -140.5Q462 -145 470 -145Q480 -145 489.5 -141.5Q499 -138 510 -131L504 -167Q493 -174 482 -178Q471 -182 458 -182Q436 -182 423 -170Q410 -158 410 -134Q410 -103 430.5 -73Q451 -43 482 0H472L432 203H161L42 0H-12ZM363 548 187 248H423Z" glyph-name="Aogonek" horiz-adv-x="579" unicode="&#260;" /><glyph d="M363 548 187 248H423ZM472 0 432 203H161L42 0H-12L350 614H398L522 0ZM388 648Q355 648 332.5 670Q310 692 310 724Q310 758 334 783.5Q358 809 395 809Q428 809 450.5 787Q473 765 473 732Q473 698 448.5 673Q424 648 388 648ZM389 679Q409 679 425 693.5Q441 708 441 730Q441 750 427 764Q413 778 393 778Q374 778 358 763Q342 748 342 726Q342 707 356 693Q370 679 389 679Z" glyph-name="Aring" horiz-adv-x="579" unicode="&#197;" /><glyph d="M437 809H386L460 893H515ZM387 640Q354 640 331.5 659.5Q309 679 309 707Q309 736 333.5 758.5Q358 781 394 781Q427 781 449.5 761.5Q472 742 472 714Q472 685 448 662.5Q424 640 387 640ZM389 670Q408 670 424 681.5Q440 693 440 713Q440 729 426 740Q412 751 392 751Q373 751 357 739.5Q341 728 341 709Q341 692 355 681Q369 670 389 670ZM363 548 187 248H423ZM472 0 432 203H161L42 0H-12L350 614H398L522 0Z" glyph-name="Aringacute" horiz-adv-x="579" unicode="&#506;" /><glyph d="M363 548 187 248H423ZM472 0 432 203H161L42 0H-12L350 614H398L522 0ZM489 770H525Q516 722 494 693.5Q472 665 439 665Q403 665 385.5 697.5Q368 730 343 730Q325 730 312.5 713Q300 696 295 668H259Q267 715 289.5 744Q312 773 345 773Q382 773 398.5 740.5Q415 708 441 708Q459 708 471.5 725Q484 742 489 770Z" glyph-name="Atilde" horiz-adv-x="579" unicode="&#195;" /><glyph d="M384 316Q429 307 456 273.5Q483 240 483 193Q483 101 416.5 50.5Q350 0 251 0H45L153 614H341Q425 614 468 578.5Q511 543 511 478Q511 406 470 367Q429 328 384 316ZM154 338H292Q367 338 414 372Q461 406 461 474Q461 521 428.5 544.5Q396 568 332 568H194ZM146 294 103 46H263Q341 46 386.5 86.5Q432 127 432 193Q432 239 400.5 266.5Q369 294 306 294Z" glyph-name="B" horiz-adv-x="523" unicode="B" /><glyph d="M461 92 450 33Q419 13 381 2Q343 -9 297 -9Q189 -9 121 66Q53 141 53 262Q53 410 144 516.5Q235 623 375 623Q432 623 474 606Q516 589 544 564L534 509Q501 543 461.5 559Q422 575 375 575Q259 575 182 484.5Q105 394 105 262Q105 163 158.5 101Q212 39 297 39Q343 39 382.5 51.5Q422 64 461 92Z" glyph-name="C" horiz-adv-x="535" unicode="C" /><glyph d="M461 92 450 33Q419 13 381 2Q343 -9 297 -9Q189 -9 121 66Q53 141 53 262Q53 410 144 516.5Q235 623 375 623Q432 623 474 606Q516 589 544 564L534 509Q501 543 461.5 559Q422 575 375 575Q259 575 182 484.5Q105 394 105 262Q105 163 158.5 101Q212 39 297 39Q343 39 382.5 51.5Q422 64 461 92ZM419 665H366L469 782H528Z" glyph-name="Cacute" horiz-adv-x="535" unicode="&#262;" /><glyph d="M461 92 450 33Q419 13 381 2Q343 -9 297 -9Q189 -9 121 66Q53 141 53 262Q53 410 144 516.5Q235 623 375 623Q432 623 474 606Q516 589 544 564L534 509Q501 543 461.5 559Q422 575 375 575Q259 575 182 484.5Q105 394 105 262Q105 163 158.5 101Q212 39 297 39Q343 39 382.5 51.5Q422 64 461 92ZM374 660 303 779H347L400 696L481 779H531L418 660Z" glyph-name="Ccaron" horiz-adv-x="535" unicode="&#268;" /><glyph d="M461 92 450 33Q419 13 381 2Q343 -9 297 -9Q189 -9 121 66Q53 141 53 262Q53 410 144 516.5Q235 623 375 623Q432 623 474 606Q516 589 544 564L534 509Q501 543 461.5 559Q422 575 375 575Q259 575 182 484.5Q105 394 105 262Q105 163 158.5 101Q212 39 297 39Q343 39 382.5 51.5Q422 64 461 92ZM216 -175H167L249 -48H299Z" glyph-name="Ccedilla" horiz-adv-x="535" unicode="&#199;" /><glyph d="M461 92 450 33Q419 13 381 2Q343 -9 297 -9Q189 -9 121 66Q53 141 53 262Q53 410 144 516.5Q235 623 375 623Q432 623 474 606Q516 589 544 564L534 509Q501 543 461.5 559Q422 575 375 575Q259 575 182 484.5Q105 394 105 262Q105 163 158.5 101Q212 39 297 39Q343 39 382.5 51.5Q422 64 461 92ZM436 786 507 667H463L410 751L329 667H279L392 786Z" glyph-name="Ccircumflex" horiz-adv-x="535" unicode="&#264;" /><glyph d="M439 714Q439 700 429 690Q419 680 405 680Q391 680 381 690Q371 700 371 714Q371 728 381 738Q391 748 405 748Q419 748 429 738Q439 728 439 714ZM461 92 450 33Q419 13 381 2Q343 -9 297 -9Q189 -9 121 66Q53 141 53 262Q53 410 144 516.5Q235 623 375 623Q432 623 474 606Q516 589 544 564L534 509Q501 543 461.5 559Q422 575 375 575Q259 575 182 484.5Q105 394 105 262Q105 163 158.5 101Q212 39 297 39Q343 39 382.5 51.5Q422 64 461 92Z" glyph-name="Cdotaccent" horiz-adv-x="535" unicode="&#266;" /><glyph d="M45 0 153 614H333Q453 614 518.5 544.5Q584 475 584 359Q584 202 481.5 101Q379 0 230 0ZM104 47H238Q364 47 448 134.5Q532 222 532 359Q532 455 479 511Q426 567 327 567H195Z" glyph-name="D" horiz-adv-x="606" unicode="D" /><glyph d="M336 660 265 779H309L362 696L443 779H493L380 660ZM45 0 153 614H333Q453 614 518.5 544.5Q584 475 584 359Q584 202 481.5 101Q379 0 230 0ZM104 47H238Q364 47 448 134.5Q532 222 532 359Q532 455 479 511Q426 567 327 567H195Z" glyph-name="Dcaron" horiz-adv-x="606" unicode="&#270;" /><glyph d="M243 0H58L110 295H50L58 340H118L166 614H346Q466 614 531.5 544.5Q597 475 597 359Q597 202 494.5 101Q392 0 243 0ZM117 47H251Q377 47 461 134.5Q545 222 545 359Q545 455 492 511Q439 567 340 567H208L168 340H297L290 295H160Z" glyph-name="Dcroat" horiz-adv-x="618" unicode="&#272;" /><glyph d="M153 614H533L525 567H194L154 339H454L446 293H146L103 47H433L425 0H45Z" glyph-name="E" horiz-adv-x="515" unicode="E" /><glyph d="M380 665H327L430 782H489ZM153 614H533L525 567H194L154 339H454L446 293H146L103 47H433L425 0H45Z" glyph-name="Eacute" horiz-adv-x="515" unicode="&#201;" /><glyph d="M361 664Q320 664 293 694Q266 724 276 781H316Q309 743 323 722.5Q337 702 365 702Q392 702 413.5 722.5Q435 743 442 781H481Q471 724 439 694Q407 664 361 664ZM153 614H533L525 567H194L154 339H454L446 293H146L103 47H433L425 0H45Z" glyph-name="Ebreve" horiz-adv-x="515" unicode="&#276;" /><glyph d="M336 660 265 779H309L362 696L443 779H493L380 660ZM153 614H533L525 567H194L154 339H454L446 293H146L103 47H433L425 0H45Z" glyph-name="Ecaron" horiz-adv-x="515" unicode="&#282;" /><glyph d="M153 614H533L525 567H194L154 339H454L446 293H146L103 47H433L425 0H45ZM398 786 469 667H425L372 751L291 667H241L354 786Z" glyph-name="Ecircumflex" horiz-adv-x="515" unicode="&#202;" /><glyph d="M396 715Q396 729 405.5 738.5Q415 748 428 748Q441 748 451 738.5Q461 729 461 715Q461 702 451 692Q441 682 428 682Q415 682 405.5 692Q396 702 396 715ZM271 715Q271 729 280.5 738.5Q290 748 304 748Q317 748 326.5 738.5Q336 729 336 715Q336 702 326.5 692Q317 682 304 682Q290 682 280.5 692Q271 702 271 715ZM153 614H533L525 567H194L154 339H454L446 293H146L103 47H433L425 0H45Z" glyph-name="Edieresis" horiz-adv-x="515" unicode="&#203;" /><glyph d="M400 714Q400 700 390 690Q380 680 366 680Q352 680 342 690Q332 700 332 714Q332 728 342 738Q352 748 366 748Q380 748 390 738Q400 728 400 714ZM153 614H533L525 567H194L154 339H454L446 293H146L103 47H433L425 0H45Z" glyph-name="Edotaccent" horiz-adv-x="515" unicode="&#278;" /><glyph d="M382 665H335L268 782H320ZM153 614H533L525 567H194L154 339H454L446 293H146L103 47H433L425 0H45Z" glyph-name="Egrave" horiz-adv-x="515" unicode="&#200;" /><glyph d="M258 670 265 712H467L460 670ZM153 614H533L525 567H194L154 339H454L446 293H146L103 47H433L425 0H45Z" glyph-name="Emacron" horiz-adv-x="515" unicode="&#274;" /><glyph d="M457 23 188 540 94 0H45L153 614H201L470 95L562 614H611L505 14Q487 -91 440 -137Q393 -183 316 -183Q278 -183 248.5 -170Q219 -157 203 -144L212 -93Q235 -114 262 -124.5Q289 -135 318 -135Q381 -135 411.5 -97.5Q442 -60 457 23Z" glyph-name="Eng" horiz-adv-x="616" unicode="&#330;" /><glyph d="M153 614H533L525 567H194L154 339H454L446 293H146L103 47H433L425 0H387Q349 -53 333 -78Q317 -104 317 -126Q317 -136 322 -140.5Q327 -145 336 -145Q346 -145 355.5 -141.5Q365 -138 376 -131L369 -167Q359 -174 348 -178Q337 -182 324 -182Q302 -182 288.5 -170Q275 -158 275 -134Q275 -103 296 -72Q317 -42 347 0H45Z" glyph-name="Eogonek" horiz-adv-x="515" unicode="&#280;" /><glyph d="M243 0H58L110 295H50L58 340H118L166 614H346Q466 614 531.5 544.5Q597 475 597 359Q597 202 494.5 101Q392 0 243 0ZM117 47H251Q377 47 461 134.5Q545 222 545 359Q545 455 492 511Q439 567 340 567H208L168 340H297L290 295H160Z" glyph-name="Eth" horiz-adv-x="618" unicode="&#208;" /><glyph d="M436 33Q408 12 372 1.5Q336 -9 293 -9Q203 -9 148.5 54Q94 117 90 225H26L33 266H91Q92 286 94 305Q96 324 100 343H47L54 384H110Q141 488 214 555.5Q287 623 384 623Q435 623 471.5 607.5Q508 592 531 568L521 512Q493 546 459 561Q425 576 383 576Q306 576 247.5 523Q189 470 161 384H388L372 343H150Q146 325 143.5 305.5Q141 286 140 266H347L330 225H139Q143 138 184 88Q225 38 294 38Q340 38 374.5 49Q409 60 447 91Z" glyph-name="Euro" horiz-adv-x="497" unicode="&#8364;" /><glyph d="M440 33Q412 12 376 1.5Q340 -9 297 -9Q207 -9 152.5 54Q98 117 94 225H30L37 266H95Q96 286 98 305Q100 324 104 343H51L58 384H114Q145 488 218 555.5Q291 623 388 623Q439 623 475.5 607.5Q512 592 535 568L525 512Q497 546 463 561Q429 576 387 576Q310 576 251.5 523Q193 470 165 384H392L376 343H154Q150 325 148 305.5Q146 286 145 266H350L334 225H144Q148 138 188.5 88Q229 38 298 38Q344 38 378.5 49Q413 60 451 91Z" glyph-name="Euro.lt" horiz-adv-x="520" /><glyph d="M96 0H45L153 614H508L500 567H195L154 333H443L434 287H146Z" glyph-name="F" horiz-adv-x="473" unicode="F" /><glyph d="M302 -9Q189 -9 121 67Q53 143 53 262Q53 409 144 516Q235 623 375 623Q439 623 486 603.5Q533 584 563 559L553 504Q520 537 474.5 556Q429 575 375 575Q259 575 182 485Q105 395 105 262Q105 163 158.5 100.5Q212 38 302 38Q343 38 382.5 48Q422 58 462 88L494 268H340L347 311H549L507 68Q459 23 405.5 7Q352 -9 302 -9Z" glyph-name="G" horiz-adv-x="587" unicode="G" /><glyph d="M405 664Q364 664 337 694Q310 724 320 781H360Q353 743 367 722.5Q381 702 409 702Q436 702 457.5 722.5Q479 743 486 781H525Q515 724 483 694Q451 664 405 664ZM302 -9Q189 -9 121 67Q53 143 53 262Q53 409 144 516Q235 623 375 623Q439 623 486 603.5Q533 584 563 559L553 504Q520 537 474.5 556Q429 575 375 575Q259 575 182 485Q105 395 105 262Q105 163 158.5 100.5Q212 38 302 38Q343 38 382.5 48Q422 58 462 88L494 268H340L347 311H549L507 68Q459 23 405.5 7Q352 -9 302 -9Z" glyph-name="Gbreve" horiz-adv-x="587" unicode="&#286;" /><glyph d="M302 -9Q189 -9 121 67Q53 143 53 262Q53 409 144 516Q235 623 375 623Q439 623 486 603.5Q533 584 563 559L553 504Q520 537 474.5 556Q429 575 375 575Q259 575 182 485Q105 395 105 262Q105 163 158.5 100.5Q212 38 302 38Q343 38 382.5 48Q422 58 462 88L494 268H340L347 311H549L507 68Q459 23 405.5 7Q352 -9 302 -9ZM442 786 513 667H469L416 751L335 667H285L398 786Z" glyph-name="Gcircumflex" horiz-adv-x="587" unicode="&#284;" /><glyph d="M212 -183 260 -116Q249 -114 241.5 -105Q234 -96 234 -83Q234 -67 244.5 -57Q255 -47 270 -47Q285 -47 295.5 -57.5Q306 -68 306 -84Q306 -96 301 -106Q296 -116 289 -125L248 -183ZM302 -9Q189 -9 121 67Q53 143 53 262Q53 409 144 516Q235 623 375 623Q439 623 486 603.5Q533 584 563 559L553 504Q520 537 474.5 556Q429 575 375 575Q259 575 182 485Q105 395 105 262Q105 163 158.5 100.5Q212 38 302 38Q343 38 382.5 48Q422 58 462 88L494 268H340L347 311H549L507 68Q459 23 405.5 7Q352 -9 302 -9Z" glyph-name="Gcommaaccent" horiz-adv-x="587" unicode="&#290;" /><glyph d="M445 714Q445 700 435 690Q425 680 411 680Q397 680 387 690Q377 700 377 714Q377 728 387 738Q397 748 411 748Q425 748 435 738Q445 728 445 714ZM302 -9Q189 -9 121 67Q53 143 53 262Q53 409 144 516Q235 623 375 623Q439 623 486 603.5Q533 584 563 559L553 504Q520 537 474.5 556Q429 575 375 575Q259 575 182 485Q105 395 105 262Q105 163 158.5 100.5Q212 38 302 38Q343 38 382.5 48Q422 58 462 88L494 268H340L347 311H549L507 68Q459 23 405.5 7Q352 -9 302 -9Z" glyph-name="Gdotaccent" horiz-adv-x="587" unicode="&#288;" /><glyph d="M593 614H644L536 0H485L537 293H147L96 0H45L153 614H204L155 340H545Z" glyph-name="H" horiz-adv-x="649" unicode="H" /><glyph d="M165 327H555L575 438H185ZM158 282 108 0H57L134 438H75L83 482H142L165 614H216L193 482H583L606 614H657L634 482H693L685 438H626L549 0H498L547 282Z" glyph-name="Hbar" horiz-adv-x="675" unicode="&#294;" /><glyph d="M593 614H644L536 0H485L537 293H147L96 0H45L153 614H204L155 340H545ZM448 786 519 667H475L422 751L341 667H291L404 786Z" glyph-name="Hcircumflex" horiz-adv-x="649" unicode="&#292;" /><glyph d="M204 614 96 0H45L153 614Z" glyph-name="I" horiz-adv-x="209" unicode="I" /><glyph d="M204 614 96 0H45L153 614ZM174 33 184 86Q209 64 237.5 51.5Q266 39 298 39Q356 39 388 72.5Q420 106 435 189L510 614H561L485 188Q467 83 419.5 37Q372 -9 294 -9Q254 -9 222 5Q190 19 174 33Z" glyph-name="IJ" horiz-adv-x="556" unicode="&#306;" /><glyph d="M204 614 96 0H45L153 614ZM210 665H157L260 782H319Z" glyph-name="Iacute" horiz-adv-x="209" unicode="&#205;" /><glyph d="M204 614 96 0H45L153 614ZM190 664Q149 664 122 694Q95 724 105 781H145Q138 743 152 722.5Q166 702 194 702Q221 702 242.5 722.5Q264 743 271 781H310Q300 724 268 694Q236 664 190 664Z" glyph-name="Ibreve" horiz-adv-x="209" unicode="&#300;" /><glyph d="M204 614 96 0H45L153 614ZM228 786 299 667H255L202 751L121 667H71L184 786Z" glyph-name="Icircumflex" horiz-adv-x="209" unicode="&#206;" /><glyph d="M204 614 96 0H45L153 614ZM226 715Q226 729 235.5 738.5Q245 748 258 748Q271 748 281 738.5Q291 729 291 715Q291 702 281 692Q271 682 258 682Q245 682 235.5 692Q226 702 226 715ZM101 715Q101 729 110.5 738.5Q120 748 134 748Q147 748 156.5 738.5Q166 729 166 715Q166 702 156.5 692Q147 682 134 682Q120 682 110.5 692Q101 702 101 715Z" glyph-name="Idieresis" horiz-adv-x="209" unicode="&#207;" /><glyph d="M204 614 96 0H45L153 614ZM230 714Q230 700 220 690Q210 680 196 680Q182 680 172 690Q162 700 162 714Q162 728 172 738Q182 748 196 748Q210 748 220 738Q230 728 230 714Z" glyph-name="Idotaccent" horiz-adv-x="209" unicode="&#304;" /><glyph d="M204 614 96 0H45L153 614ZM211 665H164L97 782H149Z" glyph-name="Igrave" horiz-adv-x="209" unicode="&#204;" /><glyph d="M204 614 96 0H45L153 614ZM87 670 94 712H296L289 670Z" glyph-name="Imacron" horiz-adv-x="209" unicode="&#298;" /><glyph d="M204 614 96 0Q58 -54 41.5 -79Q25 -104 25 -126Q25 -136 30 -140.5Q35 -145 44 -145Q54 -145 63.5 -141.5Q73 -138 84 -131L77 -167Q67 -174 56 -178Q45 -182 32 -182Q10 -182 -3.5 -170Q-17 -158 -17 -134Q-17 -103 3.5 -73Q24 -43 55 0H45L153 614Z" glyph-name="Iogonek" horiz-adv-x="209" unicode="&#302;" /><glyph d="M204 614 96 0H45L153 614ZM294 770H330Q321 722 299 693.5Q277 665 244 665Q208 665 190.5 697.5Q173 730 148 730Q130 730 117.5 713Q105 696 100 668H64Q72 715 94.5 744Q117 773 150 773Q187 773 203.5 740.5Q220 708 246 708Q264 708 276.5 725Q289 742 294 770Z" glyph-name="Itilde" horiz-adv-x="209" unicode="&#296;" /><glyph d="M-5 33 5 86Q30 64 58.5 51.5Q87 39 119 39Q177 39 209 72.5Q241 106 256 189L331 614H382L306 188Q288 83 240.5 37Q193 -9 115 -9Q75 -9 43 5Q11 19 -5 33Z" glyph-name="J" horiz-adv-x="377" unicode="J" /><glyph d="M-5 33 5 86Q30 64 58.5 51.5Q87 39 119 39Q177 39 209 72.5Q241 106 256 189L331 614H382L306 188Q288 83 240.5 37Q193 -9 115 -9Q75 -9 43 5Q11 19 -5 33ZM407 786 478 667H434L381 751L300 667H250L363 786Z" glyph-name="Jcircumflex" horiz-adv-x="377" unicode="&#308;" /><glyph d="M204 614 154 334 510 614H581L198 314L482 0H418L148 297L96 0H45L153 614Z" glyph-name="K" horiz-adv-x="535" unicode="K" /><glyph d="M164 -183 212 -116Q201 -114 193.5 -105Q186 -96 186 -83Q186 -67 196.5 -57Q207 -47 222 -47Q237 -47 247.5 -57.5Q258 -68 258 -84Q258 -96 253 -106Q248 -116 241 -125L200 -183ZM204 614 154 334 510 614H581L198 314L482 0H418L148 297L96 0H45L153 614Z" glyph-name="Kcommaaccent" horiz-adv-x="535" unicode="&#310;" /><glyph d="M45 0 153 614H204L104 47H437L429 0Z" glyph-name="L" horiz-adv-x="503" unicode="L" /><glyph d="M220 665H167L270 782H329ZM45 0 153 614H204L104 47H437L429 0Z" glyph-name="Lacute" horiz-adv-x="503" unicode="&#313;" /><glyph d="M389 454H347L425 614H468ZM45 0 153 614H204L104 47H437L429 0Z" glyph-name="Lcaron" horiz-adv-x="503" unicode="&#317;" /><glyph d="M172 -183 220 -116Q209 -114 201.5 -105Q194 -96 194 -83Q194 -67 204.5 -57Q215 -47 230 -47Q245 -47 255.5 -57.5Q266 -68 266 -84Q266 -96 261 -106Q256 -116 249 -125L208 -183ZM45 0 153 614H204L104 47H437L429 0Z" glyph-name="Lcommaaccent" horiz-adv-x="503" unicode="&#315;" /><glyph d="M45 0 153 614H204L104 47H437L429 0ZM418 308Q418 294 408 284Q398 274 384 274Q370 274 360 284Q350 294 350 308Q350 321 360 331.5Q370 342 384 342Q398 342 408 331.5Q418 321 418 308Z" glyph-name="Ldot" horiz-adv-x="503" unicode="&#319;" /><glyph d="M442 0H58L106 270L41 246L50 295L114 319L166 614H217L168 337L321 395L312 346L160 288L117 47H450Z" glyph-name="Lslash" horiz-adv-x="515" unicode="&#321;" /><glyph d="M354 141H351L186 521L94 0H45L153 614H195L365 223L675 614H719L611 0H561L651 515Z" glyph-name="M" horiz-adv-x="724" unicode="M" /><glyph d="M611 614 503 0H469L188 540L94 0H45L153 614H201L470 95L562 614Z" glyph-name="N" horiz-adv-x="616" unicode="N" /><glyph glyph-name="NULL" horiz-adv-x="0" /><glyph d="M413 665H360L463 782H522ZM611 614 503 0H469L188 540L94 0H45L153 614H201L470 95L562 614Z" glyph-name="Nacute" horiz-adv-x="616" unicode="&#323;" /><glyph d="M369 660 298 779H342L395 696L476 779H526L413 660ZM611 614 503 0H469L188 540L94 0H45L153 614H201L470 95L562 614Z" glyph-name="Ncaron" horiz-adv-x="616" unicode="&#327;" /><glyph d="M201 -183 249 -116Q238 -114 230.5 -105Q223 -96 223 -83Q223 -67 233.5 -57Q244 -47 259 -47Q274 -47 284.5 -57.5Q295 -68 295 -84Q295 -96 290 -106Q285 -116 278 -125L237 -183ZM611 614 503 0H469L188 540L94 0H45L153 614H201L470 95L562 614Z" glyph-name="Ncommaaccent" horiz-adv-x="616" unicode="&#325;" /><glyph d="M498 770H534Q525 722 503 693.5Q481 665 448 665Q412 665 394.5 697.5Q377 730 352 730Q334 730 321.5 713Q309 696 304 668H268Q276 715 298.5 744Q321 773 354 773Q391 773 407.5 740.5Q424 708 450 708Q468 708 480.5 725Q493 742 498 770ZM611 614 503 0H469L188 540L94 0H45L153 614H201L470 95L562 614Z" glyph-name="Ntilde" horiz-adv-x="616" unicode="&#209;" /><glyph d="M290 -9Q186 -9 119 65.5Q52 140 52 261Q52 397 136 510Q220 623 360 623Q464 623 531.5 548.5Q599 474 599 353Q599 217 515 104Q431 -9 290 -9ZM290 39Q408 39 477.5 135Q547 231 547 353Q547 448 496.5 511.5Q446 575 360 575Q243 575 173.5 479Q104 383 104 261Q104 166 154 102.5Q204 39 290 39Z" glyph-name="O" horiz-adv-x="620" unicode="O" /><glyph d="M857 614 848 567H528L488 339H778L770 293H480L437 47H757L749 0H303Q183 0 117.5 69.5Q52 139 52 255Q52 412 154.5 513Q257 614 406 614ZM104 255Q104 159 157 103Q210 47 309 47H387L478 567H398Q272 567 188 479.5Q104 392 104 255Z" glyph-name="OE" horiz-adv-x="839" unicode="&#338;" /><glyph d="M410 665H357L460 782H519ZM290 -9Q186 -9 119 65.5Q52 140 52 261Q52 397 136 510Q220 623 360 623Q464 623 531.5 548.5Q599 474 599 353Q599 217 515 104Q431 -9 290 -9ZM290 39Q408 39 477.5 135Q547 231 547 353Q547 448 496.5 511.5Q446 575 360 575Q243 575 173.5 479Q104 383 104 261Q104 166 154 102.5Q204 39 290 39Z" glyph-name="Oacute" horiz-adv-x="620" unicode="&#211;" /><glyph d="M391 664Q350 664 323 694Q296 724 306 781H346Q339 743 353 722.5Q367 702 395 702Q422 702 443.5 722.5Q465 743 472 781H511Q501 724 469 694Q437 664 391 664ZM290 -9Q186 -9 119 65.5Q52 140 52 261Q52 397 136 510Q220 623 360 623Q464 623 531.5 548.5Q599 474 599 353Q599 217 515 104Q431 -9 290 -9ZM290 39Q408 39 477.5 135Q547 231 547 353Q547 448 496.5 511.5Q446 575 360 575Q243 575 173.5 479Q104 383 104 261Q104 166 154 102.5Q204 39 290 39Z" glyph-name="Obreve" horiz-adv-x="620" unicode="&#334;" /><glyph d="M290 -9Q186 -9 119 65.5Q52 140 52 261Q52 397 136 510Q220 623 360 623Q464 623 531.5 548.5Q599 474 599 353Q599 217 515 104Q431 -9 290 -9ZM290 39Q408 39 477.5 135Q547 231 547 353Q547 448 496.5 511.5Q446 575 360 575Q243 575 173.5 479Q104 383 104 261Q104 166 154 102.5Q204 39 290 39ZM428 786 499 667H455L402 751L321 667H271L384 786Z" glyph-name="Ocircumflex" horiz-adv-x="620" unicode="&#212;" /><glyph d="M426 715Q426 729 435.5 738.5Q445 748 458 748Q471 748 481 738.5Q491 729 491 715Q491 702 481 692Q471 682 458 682Q445 682 435.5 692Q426 702 426 715ZM301 715Q301 729 310.5 738.5Q320 748 334 748Q347 748 356.5 738.5Q366 729 366 715Q366 702 356.5 692Q347 682 334 682Q320 682 310.5 692Q301 702 301 715ZM290 -9Q186 -9 119 65.5Q52 140 52 261Q52 397 136 510Q220 623 360 623Q464 623 531.5 548.5Q599 474 599 353Q599 217 515 104Q431 -9 290 -9ZM290 39Q408 39 477.5 135Q547 231 547 353Q547 448 496.5 511.5Q446 575 360 575Q243 575 173.5 479Q104 383 104 261Q104 166 154 102.5Q204 39 290 39Z" glyph-name="Odieresis" horiz-adv-x="620" unicode="&#214;" /><glyph d="M412 665H365L298 782H350ZM290 -9Q186 -9 119 65.5Q52 140 52 261Q52 397 136 510Q220 623 360 623Q464 623 531.5 548.5Q599 474 599 353Q599 217 515 104Q431 -9 290 -9ZM290 39Q408 39 477.5 135Q547 231 547 353Q547 448 496.5 511.5Q446 575 360 575Q243 575 173.5 479Q104 383 104 261Q104 166 154 102.5Q204 39 290 39Z" glyph-name="Ograve" horiz-adv-x="620" unicode="&#210;" /><glyph d="M290 -9Q186 -9 119 65.5Q52 140 52 261Q52 397 136 510Q220 623 360 623Q464 623 531.5 548.5Q599 474 599 353Q599 217 515 104Q431 -9 290 -9ZM290 39Q408 39 477.5 135Q547 231 547 353Q547 448 496.5 511.5Q446 575 360 575Q243 575 173.5 479Q104 383 104 261Q104 166 154 102.5Q204 39 290 39ZM464 665H416L511 782H559ZM350 665H303L397 782H445Z" glyph-name="Ohungarumlaut" horiz-adv-x="620" unicode="&#336;" /><glyph d="M288 670 295 712H497L490 670ZM290 -9Q186 -9 119 65.5Q52 140 52 261Q52 397 136 510Q220 623 360 623Q464 623 531.5 548.5Q599 474 599 353Q599 217 515 104Q431 -9 290 -9ZM290 39Q408 39 477.5 135Q547 231 547 353Q547 448 496.5 511.5Q446 575 360 575Q243 575 173.5 479Q104 383 104 261Q104 166 154 102.5Q204 39 290 39Z" glyph-name="Omacron" horiz-adv-x="620" unicode="&#332;" /><glyph d="M109 261Q109 219 118.5 183Q128 147 146 119L495 521Q471 546 438 560.5Q405 575 365 575Q248 575 178.5 479Q109 383 109 261ZM295 39Q413 39 482.5 135Q552 231 552 353Q552 392 543.5 426.5Q535 461 519 489L171 87Q195 65 226 52Q257 39 295 39ZM295 -9Q249 -9 209.5 6.5Q170 22 139 50L81 -17L49 7L112 80Q86 114 71.5 160.5Q57 207 57 261Q57 397 141 510Q225 623 365 623Q414 623 455 606Q496 589 527 558L579 618L610 594L553 528Q577 494 590.5 449.5Q604 405 604 353Q604 217 520 104Q436 -9 295 -9Z" glyph-name="Oslash" horiz-adv-x="630" unicode="&#216;" /><glyph d="M109 261Q109 219 118.5 183Q128 147 146 119L495 521Q471 546 438 560.5Q405 575 365 575Q248 575 178.5 479Q109 383 109 261ZM295 39Q413 39 482.5 135Q552 231 552 353Q552 392 543.5 426.5Q535 461 519 489L171 87Q195 65 226 52Q257 39 295 39ZM295 -9Q249 -9 209.5 6.5Q170 22 139 50L81 -17L49 7L112 80Q86 114 71.5 160.5Q57 207 57 261Q57 397 141 510Q225 623 365 623Q414 623 455 606Q496 589 527 558L579 618L610 594L553 528Q577 494 590.5 449.5Q604 405 604 353Q604 217 520 104Q436 -9 295 -9ZM414 665H361L464 782H523Z" glyph-name="Oslashacute" horiz-adv-x="630" unicode="&#510;" /><glyph d="M494 770H530Q521 722 499 693.5Q477 665 444 665Q408 665 390.5 697.5Q373 730 348 730Q330 730 317.5 713Q305 696 300 668H264Q272 715 294.5 744Q317 773 350 773Q387 773 403.5 740.5Q420 708 446 708Q464 708 476.5 725Q489 742 494 770ZM290 -9Q186 -9 119 65.5Q52 140 52 261Q52 397 136 510Q220 623 360 623Q464 623 531.5 548.5Q599 474 599 353Q599 217 515 104Q431 -9 290 -9ZM290 39Q408 39 477.5 135Q547 231 547 353Q547 448 496.5 511.5Q446 575 360 575Q243 575 173.5 479Q104 383 104 261Q104 166 154 102.5Q204 39 290 39Z" glyph-name="Otilde" horiz-adv-x="620" unicode="&#213;" /><glyph d="M313 265H142L96 0H45L153 614H373Q451 614 495 576Q539 538 539 466Q539 368 474.5 316.5Q410 265 313 265ZM196 568 150 312H320Q396 312 442 351.5Q488 391 488 464Q488 513 456.5 540.5Q425 568 363 568Z" glyph-name="P" horiz-adv-x="529" unicode="P" /><glyph d="M466 -31 431 28Q401 10 366.5 0.5Q332 -9 293 -9Q189 -9 121 66.5Q53 142 53 264Q53 400 135.5 511.5Q218 623 358 623Q462 623 530.5 547.5Q599 472 599 350Q599 263 564.5 183.5Q530 104 468 53L504 -7ZM293 39Q325 39 353.5 47Q382 55 407 69L364 141L402 164L443 95Q493 138 520 206.5Q547 275 547 350Q547 447 495 511Q443 575 358 575Q240 575 172.5 479Q105 383 105 264Q105 167 157 103Q209 39 293 39Z" glyph-name="Q" horiz-adv-x="620" unicode="Q" /><glyph d="M195 568 151 316H315Q392 316 437 355.5Q482 395 482 466Q482 515 448.5 541.5Q415 568 353 568ZM45 0 153 614H361Q440 614 486.5 576.5Q533 539 533 467Q533 382 480 332Q427 282 345 273L482 0H428L293 271H143L96 0Z" glyph-name="R" horiz-adv-x="545" unicode="R" /><glyph d="M195 568 151 316H315Q392 316 437 355.5Q482 395 482 466Q482 515 448.5 541.5Q415 568 353 568ZM45 0 153 614H361Q440 614 486.5 576.5Q533 539 533 467Q533 382 480 332Q427 282 345 273L482 0H428L293 271H143L96 0ZM375 665H322L425 782H484Z" glyph-name="Racute" horiz-adv-x="545" unicode="&#340;" /><glyph d="M330 660 259 779H303L356 696L437 779H487L374 660ZM195 568 151 316H315Q392 316 437 355.5Q482 395 482 466Q482 515 448.5 541.5Q415 568 353 568ZM45 0 153 614H361Q440 614 486.5 576.5Q533 539 533 467Q533 382 480 332Q427 282 345 273L482 0H428L293 271H143L96 0Z" glyph-name="Rcaron" horiz-adv-x="545" unicode="&#344;" /><glyph d="M162 -183 210 -116Q199 -114 191.5 -105Q184 -96 184 -83Q184 -67 194.5 -57Q205 -47 220 -47Q235 -47 245.5 -57.5Q256 -68 256 -84Q256 -96 251 -106Q246 -116 239 -125L198 -183ZM195 568 151 316H315Q392 316 437 355.5Q482 395 482 466Q482 515 448.5 541.5Q415 568 353 568ZM45 0 153 614H361Q440 614 486.5 576.5Q533 539 533 467Q533 382 480 332Q427 282 345 273L482 0H428L293 271H143L96 0Z" glyph-name="Rcommaaccent" horiz-adv-x="545" unicode="&#342;" /><glyph d="M16 56 27 113Q64 73 107 55.5Q150 38 201 38Q275 38 322.5 74.5Q370 111 370 173Q370 209 347.5 231Q325 253 279 274L195 313Q157 330 121.5 360Q86 390 86 446Q86 536 153.5 579.5Q221 623 296 623Q347 623 390.5 608.5Q434 594 463 569L453 514Q423 543 384 559.5Q345 576 296 576Q234 576 185 545Q136 514 136 450Q136 415 161 394Q186 373 226 354L314 313Q366 288 393 256Q420 224 420 178Q420 91 355.5 41Q291 -9 201 -9Q137 -9 89.5 10.5Q42 30 16 56Z" glyph-name="S" horiz-adv-x="474" unicode="S" /><glyph d="M16 56 27 113Q64 73 107 55.5Q150 38 201 38Q275 38 322.5 74.5Q370 111 370 173Q370 209 347.5 231Q325 253 279 274L195 313Q157 330 121.5 360Q86 390 86 446Q86 536 153.5 579.5Q221 623 296 623Q347 623 390.5 608.5Q434 594 463 569L453 514Q423 543 384 559.5Q345 576 296 576Q234 576 185 545Q136 514 136 450Q136 415 161 394Q186 373 226 354L314 313Q366 288 393 256Q420 224 420 178Q420 91 355.5 41Q291 -9 201 -9Q137 -9 89.5 10.5Q42 30 16 56ZM343 665H290L393 782H452Z" glyph-name="Sacute" horiz-adv-x="474" unicode="&#346;" /><glyph d="M16 56 27 113Q64 73 107 55.5Q150 38 201 38Q275 38 322.5 74.5Q370 111 370 173Q370 209 347.5 231Q325 253 279 274L195 313Q157 330 121.5 360Q86 390 86 446Q86 536 153.5 579.5Q221 623 296 623Q347 623 390.5 608.5Q434 594 463 569L453 514Q423 543 384 559.5Q345 576 296 576Q234 576 185 545Q136 514 136 450Q136 415 161 394Q186 373 226 354L314 313Q366 288 393 256Q420 224 420 178Q420 91 355.5 41Q291 -9 201 -9Q137 -9 89.5 10.5Q42 30 16 56ZM299 660 228 779H272L325 696L406 779H456L343 660Z" glyph-name="Scaron" horiz-adv-x="474" unicode="&#352;" /><glyph d="M16 56 27 113Q64 73 107 55.5Q150 38 201 38Q275 38 322.5 74.5Q370 111 370 173Q370 209 347.5 231Q325 253 279 274L195 313Q157 330 121.5 360Q86 390 86 446Q86 536 153.5 579.5Q221 623 296 623Q347 623 390.5 608.5Q434 594 463 569L453 514Q423 543 384 559.5Q345 576 296 576Q234 576 185 545Q136 514 136 450Q136 415 161 394Q186 373 226 354L314 313Q366 288 393 256Q420 224 420 178Q420 91 355.5 41Q291 -9 201 -9Q137 -9 89.5 10.5Q42 30 16 56ZM136 -175H87L169 -48H219Z" glyph-name="Scedilla" horiz-adv-x="474" unicode="&#350;" /><glyph d="M16 56 27 113Q64 73 107 55.5Q150 38 201 38Q275 38 322.5 74.5Q370 111 370 173Q370 209 347.5 231Q325 253 279 274L195 313Q157 330 121.5 360Q86 390 86 446Q86 536 153.5 579.5Q221 623 296 623Q347 623 390.5 608.5Q434 594 463 569L453 514Q423 543 384 559.5Q345 576 296 576Q234 576 185 545Q136 514 136 450Q136 415 161 394Q186 373 226 354L314 313Q366 288 393 256Q420 224 420 178Q420 91 355.5 41Q291 -9 201 -9Q137 -9 89.5 10.5Q42 30 16 56ZM361 786 432 667H388L335 751L254 667H204L317 786Z" glyph-name="Scircumflex" horiz-adv-x="474" unicode="&#348;" /><glyph d="M125 -183 173 -116Q162 -114 154.5 -105Q147 -96 147 -83Q147 -67 157.5 -57Q168 -47 183 -47Q198 -47 208.5 -57.5Q219 -68 219 -84Q219 -96 214 -106Q209 -116 202 -125L161 -183ZM16 56 27 113Q64 73 107 55.5Q150 38 201 38Q275 38 322.5 74.5Q370 111 370 173Q370 209 347.5 231Q325 253 279 274L195 313Q157 330 121.5 360Q86 390 86 446Q86 536 153.5 579.5Q221 623 296 623Q347 623 390.5 608.5Q434 594 463 569L453 514Q423 543 384 559.5Q345 576 296 576Q234 576 185 545Q136 514 136 450Q136 415 161 394Q186 373 226 354L314 313Q366 288 393 256Q420 224 420 178Q420 91 355.5 41Q291 -9 201 -9Q137 -9 89.5 10.5Q42 30 16 56Z" glyph-name="Scommaaccent" horiz-adv-x="474" unicode="&#536;" /><glyph d="M92 567 100 614H601L592 567H367L268 0H217L316 567Z" glyph-name="T" horiz-adv-x="562" unicode="T" /><glyph d="M438 295H320L268 0H217L269 295H153L160 340H276L316 567H92L100 614H601L592 567H367L327 340H446Z" glyph-name="Tbar" horiz-adv-x="562" unicode="&#358;" /><glyph d="M339 660 268 779H312L365 696L446 779H496L383 660ZM92 567 100 614H601L592 567H367L268 0H217L316 567Z" glyph-name="Tcaron" horiz-adv-x="562" unicode="&#356;" /><glyph d="M170 -183 218 -116Q207 -114 199.5 -105Q192 -96 192 -83Q192 -67 202.5 -57Q213 -47 228 -47Q243 -47 253.5 -57.5Q264 -68 264 -84Q264 -96 259 -106Q254 -116 247 -125L206 -183ZM92 567 100 614H601L592 567H367L268 0H217L316 567Z" glyph-name="Tcommaaccent" horiz-adv-x="562" unicode="&#354;" /><glyph d="M291 140H120L96 0H45L153 614H203L182 489H351Q429 489 473 451Q517 413 517 341Q517 243 452.5 191.5Q388 140 291 140ZM174 443 128 187H298Q374 187 420 226.5Q466 266 466 339Q466 388 435 415.5Q404 443 341 443Z" glyph-name="Thorn" horiz-adv-x="529" unicode="&#222;" /><glyph d="M279 -9Q189 -9 128.5 41.5Q68 92 68 188Q68 201 69.5 215Q71 229 73 246L138 614H189L125 249Q123 235 121.5 221.5Q120 208 120 195Q120 116 165 77Q210 38 279 38Q362 38 418 90Q474 142 493 249L557 614H608L543 242Q521 117 450.5 54Q380 -9 279 -9Z" glyph-name="U" horiz-adv-x="605" unicode="U" /><glyph d="M402 665H349L452 782H511ZM279 -9Q189 -9 128.5 41.5Q68 92 68 188Q68 201 69.5 215Q71 229 73 246L138 614H189L125 249Q123 235 121.5 221.5Q120 208 120 195Q120 116 165 77Q210 38 279 38Q362 38 418 90Q474 142 493 249L557 614H608L543 242Q521 117 450.5 54Q380 -9 279 -9Z" glyph-name="Uacute" horiz-adv-x="605" unicode="&#218;" /><glyph d="M383 664Q342 664 315 694Q288 724 298 781H338Q331 743 345 722.5Q359 702 387 702Q414 702 435.5 722.5Q457 743 464 781H503Q493 724 461 694Q429 664 383 664ZM279 -9Q189 -9 128.5 41.5Q68 92 68 188Q68 201 69.5 215Q71 229 73 246L138 614H189L125 249Q123 235 121.5 221.5Q120 208 120 195Q120 116 165 77Q210 38 279 38Q362 38 418 90Q474 142 493 249L557 614H608L543 242Q521 117 450.5 54Q380 -9 279 -9Z" glyph-name="Ubreve" horiz-adv-x="605" unicode="&#364;" /><glyph d="M279 -9Q189 -9 128.5 41.5Q68 92 68 188Q68 201 69.5 215Q71 229 73 246L138 614H189L125 249Q123 235 121.5 221.5Q120 208 120 195Q120 116 165 77Q210 38 279 38Q362 38 418 90Q474 142 493 249L557 614H608L543 242Q521 117 450.5 54Q380 -9 279 -9ZM420 786 491 667H447L394 751L313 667H263L376 786Z" glyph-name="Ucircumflex" horiz-adv-x="605" unicode="&#219;" /><glyph d="M418 715Q418 729 427.5 738.5Q437 748 450 748Q463 748 473 738.5Q483 729 483 715Q483 702 473 692Q463 682 450 682Q437 682 427.5 692Q418 702 418 715ZM293 715Q293 729 302.5 738.5Q312 748 326 748Q339 748 348.5 738.5Q358 729 358 715Q358 702 348.5 692Q339 682 326 682Q312 682 302.5 692Q293 702 293 715ZM279 -9Q189 -9 128.5 41.5Q68 92 68 188Q68 201 69.5 215Q71 229 73 246L138 614H189L125 249Q123 235 121.5 221.5Q120 208 120 195Q120 116 165 77Q210 38 279 38Q362 38 418 90Q474 142 493 249L557 614H608L543 242Q521 117 450.5 54Q380 -9 279 -9Z" glyph-name="Udieresis" horiz-adv-x="605" unicode="&#220;" /><glyph d="M404 665H357L290 782H342ZM279 -9Q189 -9 128.5 41.5Q68 92 68 188Q68 201 69.5 215Q71 229 73 246L138 614H189L125 249Q123 235 121.5 221.5Q120 208 120 195Q120 116 165 77Q210 38 279 38Q362 38 418 90Q474 142 493 249L557 614H608L543 242Q521 117 450.5 54Q380 -9 279 -9Z" glyph-name="Ugrave" horiz-adv-x="605" unicode="&#217;" /><glyph d="M279 -9Q189 -9 128.5 41.5Q68 92 68 188Q68 201 69.5 215Q71 229 73 246L138 614H189L125 249Q123 235 121.5 221.5Q120 208 120 195Q120 116 165 77Q210 38 279 38Q362 38 418 90Q474 142 493 249L557 614H608L543 242Q521 117 450.5 54Q380 -9 279 -9ZM449 665H401L496 782H544ZM335 665H288L382 782H430Z" glyph-name="Uhungarumlaut" horiz-adv-x="605" unicode="&#368;" /><glyph d="M280 670 287 712H489L482 670ZM279 -9Q189 -9 128.5 41.5Q68 92 68 188Q68 201 69.5 215Q71 229 73 246L138 614H189L125 249Q123 235 121.5 221.5Q120 208 120 195Q120 116 165 77Q210 38 279 38Q362 38 418 90Q474 142 493 249L557 614H608L543 242Q521 117 450.5 54Q380 -9 279 -9Z" glyph-name="Umacron" horiz-adv-x="605" unicode="&#362;" /><glyph d="M279 -9Q189 -9 128.5 41.5Q68 92 68 188Q68 201 69.5 215Q71 229 73 246L138 614H189L125 249Q123 235 121.5 221.5Q120 208 120 195Q120 116 165 77Q210 38 279 38Q362 38 418 90Q474 142 493 249L557 614H608L543 242Q527 156 492.5 108Q458 60 407 17Q362 -20 337 -58.5Q312 -97 312 -126Q312 -136 317 -140.5Q322 -145 331 -145Q341 -145 350.5 -141.5Q360 -138 371 -131L364 -167Q354 -174 343 -178Q332 -182 319 -182Q297 -182 283.5 -170Q270 -158 270 -134Q270 -104 288.5 -72Q307 -40 340 -1Q326 -5 310.5 -7Q295 -9 279 -9Z" glyph-name="Uogonek" horiz-adv-x="605" unicode="&#370;" /><glyph d="M279 -9Q189 -9 128.5 41.5Q68 92 68 188Q68 201 69.5 215Q71 229 73 246L138 614H189L125 249Q123 235 121.5 221.5Q120 208 120 195Q120 116 165 77Q210 38 279 38Q362 38 418 90Q474 142 493 249L557 614H608L543 242Q521 117 450.5 54Q380 -9 279 -9ZM383 648Q350 648 327.5 670Q305 692 305 724Q305 758 329 783.5Q353 809 390 809Q423 809 445.5 787Q468 765 468 732Q468 698 443.5 673Q419 648 383 648ZM384 679Q404 679 420 693.5Q436 708 436 730Q436 750 422 764Q408 778 388 778Q369 778 353 763Q337 748 337 726Q337 707 351 693Q365 679 384 679Z" glyph-name="Uring" horiz-adv-x="605" unicode="&#366;" /><glyph d="M486 770H522Q513 722 491 693.5Q469 665 436 665Q400 665 382.5 697.5Q365 730 340 730Q322 730 309.5 713Q297 696 292 668H256Q264 715 286.5 744Q309 773 342 773Q379 773 395.5 740.5Q412 708 438 708Q456 708 468.5 725Q481 742 486 770ZM279 -9Q189 -9 128.5 41.5Q68 92 68 188Q68 201 69.5 215Q71 229 73 246L138 614H189L125 249Q123 235 121.5 221.5Q120 208 120 195Q120 116 165 77Q210 38 279 38Q362 38 418 90Q474 142 493 249L557 614H608L543 242Q521 117 450.5 54Q380 -9 279 -9Z" glyph-name="Utilde" horiz-adv-x="605" unicode="&#360;" /><glyph d="M262 0H216L97 614H148L251 71L574 614H628Z" glyph-name="V" horiz-adv-x="577" unicode="V" /><glyph d="M433 614H475L516 86L761 614H812L525 0H479L436 523L191 0H145L97 614H146L186 86Z" glyph-name="W" horiz-adv-x="760" unicode="W" /><glyph d="M486 665H433L536 782H595ZM433 614H475L516 86L761 614H812L525 0H479L436 523L191 0H145L97 614H146L186 86Z" glyph-name="Wacute" horiz-adv-x="760" unicode="&#7810;" /><glyph d="M433 614H475L516 86L761 614H812L525 0H479L436 523L191 0H145L97 614H146L186 86ZM503 786 574 667H530L477 751L396 667H346L459 786Z" glyph-name="Wcircumflex" horiz-adv-x="760" unicode="&#372;" /><glyph d="M501 715Q501 729 510.5 738.5Q520 748 533 748Q546 748 556 738.5Q566 729 566 715Q566 702 556 692Q546 682 533 682Q520 682 510.5 692Q501 702 501 715ZM376 715Q376 729 385.5 738.5Q395 748 409 748Q422 748 431.5 738.5Q441 729 441 715Q441 702 431.5 692Q422 682 409 682Q395 682 385.5 692Q376 702 376 715ZM433 614H475L516 86L761 614H812L525 0H479L436 523L191 0H145L97 614H146L186 86Z" glyph-name="Wdieresis" horiz-adv-x="760" unicode="&#7812;" /><glyph d="M486 665H439L372 782H424ZM433 614H475L516 86L761 614H812L525 0H479L436 523L191 0H145L97 614H146L186 86Z" glyph-name="Wgrave" horiz-adv-x="760" unicode="&#7808;" /><glyph d="M589 614 317 310 474 0H420L283 272L40 0H-20L262 315L110 614H163L296 353L529 614Z" glyph-name="X" horiz-adv-x="545" unicode="X" /><glyph d="M283 309 530 614H587L302 262L256 0H205L251 262L89 614H143Z" glyph-name="Y" horiz-adv-x="535" unicode="Y" /><glyph d="M286 309 533 614H590L305 262L259 0H208L254 262L92 614H146ZM374 665H321L424 782H483Z" glyph-name="Yacute" horiz-adv-x="535" unicode="&#221;" /><glyph d="M286 309 533 614H590L305 262L259 0H208L254 262L92 614H146ZM391 786 462 667H418L365 751L284 667H234L347 786Z" glyph-name="Ycircumflex" horiz-adv-x="535" unicode="&#374;" /><glyph d="M286 309 533 614H590L305 262L259 0H208L254 262L92 614H146ZM390 715Q390 729 399.5 738.5Q409 748 422 748Q435 748 445 738.5Q455 729 455 715Q455 702 445 692Q435 682 422 682Q409 682 399.5 692Q390 702 390 715ZM265 715Q265 729 274.5 738.5Q284 748 298 748Q311 748 320.5 738.5Q330 729 330 715Q330 702 320.5 692Q311 682 298 682Q284 682 274.5 692Q265 702 265 715Z" glyph-name="Ydieresis" horiz-adv-x="535" unicode="&#376;" /><glyph d="M286 309 533 614H590L305 262L259 0H208L254 262L92 614H146ZM374 665H327L260 782H312Z" glyph-name="Ygrave" horiz-adv-x="535" unicode="&#7922;" /><glyph d="M447 47 439 0H-14V4L471 567H116L125 614H567V610L82 47Z" glyph-name="Z" horiz-adv-x="517" unicode="Z" /><glyph d="M447 47 439 0H-14V4L471 567H116L125 614H567V610L82 47ZM362 665H309L412 782H471Z" glyph-name="Zacute" horiz-adv-x="517" unicode="&#377;" /><glyph d="M317 660 246 779H290L343 696L424 779H474L361 660ZM447 47 439 0H-14V4L471 567H116L125 614H567V610L82 47Z" glyph-name="Zcaron" horiz-adv-x="517" unicode="&#381;" /><glyph d="M382 714Q382 700 372 690Q362 680 348 680Q334 680 324 690Q314 700 314 714Q314 728 324 738Q334 748 348 748Q362 748 372 738Q382 728 382 714ZM447 47 439 0H-14V4L471 567H116L125 614H567V610L82 47Z" glyph-name="Zdotaccent" horiz-adv-x="517" unicode="&#379;" /><glyph glyph-name="_229" horiz-adv-x="0" /><glyph d="M301 101 311 158Q304 185 272 204.5Q240 224 197 224Q151 224 108.5 198.5Q66 173 66 119Q66 80 97 57.5Q128 35 171 35Q214 35 249.5 54Q285 73 301 101ZM321 215 337 306Q338 313 338.5 319Q339 325 339 330Q339 366 315.5 387Q292 408 248 408Q208 408 173.5 396.5Q139 385 108 366L117 416Q142 432 179 442.5Q216 453 256 453Q319 453 353.5 422Q388 391 388 339Q388 332 387 323Q386 314 385 308L332 0H283L290 42Q271 23 237 8Q203 -7 164 -7Q102 -7 60 28Q18 63 18 118Q18 186 73 226Q128 266 197 266Q242 266 274.5 249Q307 232 321 215Z" glyph-name="a" horiz-adv-x="436" unicode="a" /><glyph d="M301 101 311 158Q304 185 272 204.5Q240 224 197 224Q151 224 108.5 198.5Q66 173 66 119Q66 80 97 57.5Q128 35 171 35Q214 35 249.5 54Q285 73 301 101ZM321 215 337 306Q338 313 338.5 319Q339 325 339 330Q339 366 315.5 387Q292 408 248 408Q208 408 173.5 396.5Q139 385 108 366L117 416Q142 432 179 442.5Q216 453 256 453Q319 453 353.5 422Q388 391 388 339Q388 332 387 323Q386 314 385 308L332 0H283L290 42Q271 23 237 8Q203 -7 164 -7Q102 -7 60 28Q18 63 18 118Q18 186 73 226Q128 266 197 266Q242 266 274.5 249Q307 232 321 215ZM301 520H251L357 650H410Z" glyph-name="aacute" horiz-adv-x="436" unicode="&#225;" /><glyph d="M301 101 311 158Q304 185 272 204.5Q240 224 197 224Q151 224 108.5 198.5Q66 173 66 119Q66 80 97 57.5Q128 35 171 35Q214 35 249.5 54Q285 73 301 101ZM321 215 337 306Q338 313 338.5 319Q339 325 339 330Q339 366 315.5 387Q292 408 248 408Q208 408 173.5 396.5Q139 385 108 366L117 416Q142 432 179 442.5Q216 453 256 453Q319 453 353.5 422Q388 391 388 339Q388 332 387 323Q386 314 385 308L332 0H283L290 42Q271 23 237 8Q203 -7 164 -7Q102 -7 60 28Q18 63 18 118Q18 186 73 226Q128 266 197 266Q242 266 274.5 249Q307 232 321 215ZM279 506Q238 506 211.5 537Q185 568 195 626H235Q228 587 241 565Q254 543 282 543Q310 543 331 565Q352 587 359 626H399Q388 568 355.5 537Q323 506 279 506Z" glyph-name="abreve" horiz-adv-x="436" unicode="&#259;" /><glyph d="M301 101 311 158Q304 185 272 204.5Q240 224 197 224Q151 224 108.5 198.5Q66 173 66 119Q66 80 97 57.5Q128 35 171 35Q214 35 249.5 54Q285 73 301 101ZM321 215 337 306Q338 313 338.5 319Q339 325 339 330Q339 366 315.5 387Q292 408 248 408Q208 408 173.5 396.5Q139 385 108 366L117 416Q142 432 179 442.5Q216 453 256 453Q319 453 353.5 422Q388 391 388 339Q388 332 387 323Q386 314 385 308L332 0H283L290 42Q271 23 237 8Q203 -7 164 -7Q102 -7 60 28Q18 63 18 118Q18 186 73 226Q128 266 197 266Q242 266 274.5 249Q307 232 321 215ZM316 644 385 513H342L291 610L205 513H157L272 644Z" glyph-name="acircumflex" horiz-adv-x="436" unicode="&#226;" /><glyph d="M221 520H171L277 650H330Z" glyph-name="acute" horiz-adv-x="500" unicode="&#180;" /><glyph d="M223 665H170L273 782H332Z" glyph-name="acute.cap" horiz-adv-x="500" /><glyph d="M301 101 311 158Q304 185 272 204.5Q240 224 197 224Q151 224 108.5 198.5Q66 173 66 119Q66 80 97 57.5Q128 35 171 35Q214 35 249.5 54Q285 73 301 101ZM321 215 337 306Q338 313 338.5 319Q339 325 339 330Q339 366 315.5 387Q292 408 248 408Q208 408 173.5 396.5Q139 385 108 366L117 416Q142 432 179 442.5Q216 453 256 453Q319 453 353.5 422Q388 391 388 339Q388 332 387 323Q386 314 385 308L332 0H283L290 42Q271 23 237 8Q203 -7 164 -7Q102 -7 60 28Q18 63 18 118Q18 186 73 226Q128 266 197 266Q242 266 274.5 249Q307 232 321 215ZM319 571Q319 584 328.5 593.5Q338 603 351 603Q364 603 374 593.5Q384 584 384 571Q384 557 374 547.5Q364 538 351 538Q338 538 328.5 547.5Q319 557 319 571ZM194 571Q194 584 203.5 593.5Q213 603 227 603Q240 603 249.5 593.5Q259 584 259 571Q259 557 249.5 547.5Q240 538 227 538Q213 538 203.5 547.5Q194 557 194 571Z" glyph-name="adieresis" horiz-adv-x="436" unicode="&#228;" /><glyph d="M333 103Q305 59 258 25.5Q211 -8 147 -8Q89 -8 53.5 25Q18 58 18 111Q18 183 74.5 220.5Q131 258 209 258H330Q336 296 338 310.5Q340 325 340 329Q340 365 317 386.5Q294 408 249 408Q209 408 174.5 396.5Q140 385 109 366L118 416Q143 432 180 442.5Q217 453 257 453Q308 453 339.5 429Q371 405 377 359Q403 399 447 426Q491 453 543 453Q617 453 654 407.5Q691 362 691 287Q691 271 689 253Q687 235 684 217H366Q365 209 364.5 199Q364 189 364 181Q364 112 401.5 73Q439 34 500 34Q537 34 570.5 45Q604 56 635 79L625 27Q597 8 563.5 -0.5Q530 -9 495 -9Q431 -9 390 21.5Q349 52 333 103ZM542 409Q478 409 434 364.5Q390 320 374 258H641Q642 266 643 274.5Q644 283 644 291Q644 337 620.5 373Q597 409 542 409ZM153 34Q208 34 248 65Q288 96 309 138L323 217H208Q154 217 109.5 194Q65 171 65 114Q65 77 90 55.5Q115 34 153 34Z" glyph-name="ae" horiz-adv-x="720" unicode="&#230;" /><glyph d="M434 520H384L490 650H543ZM333 103Q305 59 258 25.5Q211 -8 147 -8Q89 -8 53.5 25Q18 58 18 111Q18 183 74.5 220.5Q131 258 209 258H330Q336 296 338 310.5Q340 325 340 329Q340 365 317 386.5Q294 408 249 408Q209 408 174.5 396.5Q140 385 109 366L118 416Q143 432 180 442.5Q217 453 257 453Q308 453 339.5 429Q371 405 377 359Q403 399 447 426Q491 453 543 453Q617 453 654 407.5Q691 362 691 287Q691 271 689 253Q687 235 684 217H366Q365 209 364.5 199Q364 189 364 181Q364 112 401.5 73Q439 34 500 34Q537 34 570.5 45Q604 56 635 79L625 27Q597 8 563.5 -0.5Q530 -9 495 -9Q431 -9 390 21.5Q349 52 333 103ZM542 409Q478 409 434 364.5Q390 320 374 258H641Q642 266 643 274.5Q644 283 644 291Q644 337 620.5 373Q597 409 542 409ZM153 34Q208 34 248 65Q288 96 309 138L323 217H208Q154 217 109.5 194Q65 171 65 114Q65 77 90 55.5Q115 34 153 34Z" glyph-name="aeacute" horiz-adv-x="720" unicode="&#509;" /><glyph d="M301 101 311 158Q304 185 272 204.5Q240 224 197 224Q151 224 108.5 198.5Q66 173 66 119Q66 80 97 57.5Q128 35 171 35Q214 35 249.5 54Q285 73 301 101ZM321 215 337 306Q338 313 338.5 319Q339 325 339 330Q339 366 315.5 387Q292 408 248 408Q208 408 173.5 396.5Q139 385 108 366L117 416Q142 432 179 442.5Q216 453 256 453Q319 453 353.5 422Q388 391 388 339Q388 332 387 323Q386 314 385 308L332 0H283L290 42Q271 23 237 8Q203 -7 164 -7Q102 -7 60 28Q18 63 18 118Q18 186 73 226Q128 266 197 266Q242 266 274.5 249Q307 232 321 215ZM302 520H258L194 650H242Z" glyph-name="agrave" horiz-adv-x="436" unicode="&#224;" /><glyph d="M301 101 311 158Q304 185 272 204.5Q240 224 197 224Q151 224 108.5 198.5Q66 173 66 119Q66 80 97 57.5Q128 35 171 35Q214 35 249.5 54Q285 73 301 101ZM321 215 337 306Q338 313 338.5 319Q339 325 339 330Q339 366 315.5 387Q292 408 248 408Q208 408 173.5 396.5Q139 385 108 366L117 416Q142 432 179 442.5Q216 453 256 453Q319 453 353.5 422Q388 391 388 339Q388 332 387 323Q386 314 385 308L332 0H283L290 42Q271 23 237 8Q203 -7 164 -7Q102 -7 60 28Q18 63 18 118Q18 186 73 226Q128 266 197 266Q242 266 274.5 249Q307 232 321 215ZM181 537 189 578H390L383 537Z" glyph-name="amacron" horiz-adv-x="436" unicode="&#257;" /><glyph d="M207 34Q257 34 299 52.5Q341 71 374 103L206 314Q152 301 115 257Q78 213 78 156Q78 102 115 68Q152 34 207 34ZM456 0 400 71Q361 34 312 12.5Q263 -9 207 -9Q128 -9 78.5 36.5Q29 82 29 156Q29 224 72 275.5Q115 327 179 349Q161 374 150.5 399.5Q140 425 140 456Q140 533 193 578Q246 623 316 623Q354 623 388.5 610.5Q423 598 447 579L437 527Q414 549 383.5 564Q353 579 316 579Q265 579 227 547.5Q189 516 189 458Q189 425 205 398Q221 371 244 342L405 139Q428 172 444.5 212Q461 252 468 296L515 295Q506 243 484.5 194Q463 145 432 105L515 0Z" glyph-name="ampersand" horiz-adv-x="561" unicode="&amp;" /><glyph d="M292 0H283L290 42Q271 23 237 8Q203 -7 164 -7Q102 -7 60 28Q18 63 18 118Q18 186 73 226Q128 266 197 266Q242 266 274.5 249Q307 232 321 215L337 306Q338 313 338.5 319Q339 325 339 330Q339 366 315.5 387Q292 408 248 408Q208 408 173.5 396.5Q139 385 108 366L117 416Q142 432 179 442.5Q216 453 256 453Q319 453 353.5 422Q388 391 388 339Q388 332 387 323Q386 314 385 308L332 0Q294 -54 277 -79Q260 -104 260 -126Q260 -136 265.5 -140.5Q271 -145 280 -145Q290 -145 299.5 -141.5Q309 -138 320 -131L313 -167Q303 -174 291.5 -178Q280 -182 267 -182Q246 -182 232.5 -170Q219 -158 219 -134Q219 -103 240 -73Q261 -43 292 0ZM301 101 311 158Q304 185 272 204.5Q240 224 197 224Q151 224 108.5 198.5Q66 173 66 119Q66 80 97 57.5Q128 35 171 35Q214 35 249.5 54Q285 73 301 101Z" glyph-name="aogonek" horiz-adv-x="436" unicode="&#261;" /><glyph d="M88 304 96 351Q127 376 154 385.5Q181 395 203 395Q252 395 285.5 371.5Q319 348 365 348Q388 348 416.5 359.5Q445 371 476 396L468 349Q437 324 408.5 314.5Q380 305 358 305Q310 305 276 328.5Q242 352 196 352Q173 352 146 340.5Q119 329 88 304ZM68 195 76 242Q107 267 134.5 276.5Q162 286 184 286Q233 286 266.5 262Q300 238 346 238Q369 238 397 249.5Q425 261 457 287L449 240Q417 215 389 205.5Q361 196 338 196Q290 196 256.5 219.5Q223 243 176 243Q154 243 126.5 231.5Q99 220 68 195Z" glyph-name="approxequal" horiz-adv-x="521" unicode="&#8776;" /><glyph d="M79 304 87 351Q118 376 144.5 385.5Q171 395 194 395Q242 395 276 371.5Q310 348 356 348Q378 348 406.5 359.5Q435 371 467 396L458 349Q427 324 399 314.5Q371 305 348 305Q301 305 267 328.5Q233 352 187 352Q164 352 137 340.5Q110 329 79 304ZM59 195 67 242Q98 267 125 276.5Q152 286 175 286Q223 286 257 262Q291 238 337 238Q359 238 387 249.5Q415 261 447 287L440 240Q408 215 379.5 205.5Q351 196 328 196Q281 196 247 219.5Q213 243 167 243Q144 243 117 231.5Q90 220 59 195Z" glyph-name="approxequal.lt" horiz-adv-x="520" /><glyph d="M301 101 311 158Q304 185 272 204.5Q240 224 197 224Q151 224 108.5 198.5Q66 173 66 119Q66 80 97 57.5Q128 35 171 35Q214 35 249.5 54Q285 73 301 101ZM321 215 337 306Q338 313 338.5 319Q339 325 339 330Q339 366 315.5 387Q292 408 248 408Q208 408 173.5 396.5Q139 385 108 366L117 416Q142 432 179 442.5Q216 453 256 453Q319 453 353.5 422Q388 391 388 339Q388 332 387 323Q386 314 385 308L332 0H283L290 42Q271 23 237 8Q203 -7 164 -7Q102 -7 60 28Q18 63 18 118Q18 186 73 226Q128 266 197 266Q242 266 274.5 249Q307 232 321 215ZM287 499Q253 499 231 521.5Q209 544 209 576Q209 610 233 635.5Q257 661 293 661Q327 661 349 638.5Q371 616 371 584Q371 550 347 524.5Q323 499 287 499ZM288 531Q308 531 323.5 545.5Q339 560 339 582Q339 602 325 615.5Q311 629 292 629Q272 629 256.5 614.5Q241 600 241 578Q241 558 255 544.5Q269 531 288 531Z" glyph-name="aring" horiz-adv-x="436" unicode="&#229;" /><glyph d="M331 648H280L354 732H410ZM282 480Q248 480 226 499Q204 518 204 546Q204 576 228 598Q252 620 288 620Q322 620 344 601Q366 582 366 554Q366 524 342 502Q318 480 282 480ZM283 509Q302 509 318 520.5Q334 532 334 552Q334 569 320 580Q306 591 287 591Q267 591 251.5 579.5Q236 568 236 548Q236 531 250 520Q264 509 283 509ZM301 101 311 158Q304 185 272 204.5Q240 224 197 224Q151 224 108.5 198.5Q66 173 66 119Q66 80 97 57.5Q128 35 171 35Q214 35 249.5 54Q285 73 301 101ZM321 215 337 306Q338 313 338.5 319Q339 325 339 330Q339 366 315.5 387Q292 408 248 408Q208 408 173.5 396.5Q139 385 108 366L117 416Q142 432 179 442.5Q216 453 256 453Q319 453 353.5 422Q388 391 388 339Q388 332 387 323Q386 314 385 308L332 0H283L290 42Q271 23 237 8Q203 -7 164 -7Q102 -7 60 28Q18 63 18 118Q18 186 73 226Q128 266 197 266Q242 266 274.5 249Q307 232 321 215Z" glyph-name="aringacute" horiz-adv-x="436" unicode="&#507;" /><glyph d="M200 614H242L325 433H274L215 562L109 433H53Z" glyph-name="asciicircum" horiz-adv-x="321" unicode="^" /><glyph d="M339 329H384Q374 277 346 246Q318 215 275 215Q227 215 203 251Q179 287 145 287Q121 287 105 268.5Q89 250 83 219H38Q48 270 76 301Q104 332 147 332Q195 332 218.5 296.5Q242 261 278 261Q301 261 317 279.5Q333 298 339 329Z" glyph-name="asciitilde" horiz-adv-x="406" unicode="~" /><glyph d="M203 376 171 382 189 488 89 451 78 481 179 518 96 588 117 611 199 543 217 649 250 643 231 537 332 574 343 544 242 507 325 437 304 413 222 482Z" glyph-name="asterisk" horiz-adv-x="315" unicode="*" /><glyph d="M561 380 500 125Q494 98 502.5 81.5Q511 65 545 65Q606 65 653.5 121.5Q701 178 701 285Q701 389 626.5 455Q552 521 432 521Q278 521 179 415Q80 309 80 159Q80 14 178 -50.5Q276 -115 393 -115Q458 -115 513.5 -101.5Q569 -88 608 -70L603 -111Q565 -128 510 -141Q455 -154 392 -154Q255 -154 146 -79Q37 -4 37 159Q37 322 148 442Q259 562 432 562Q573 562 658 483Q743 404 743 285Q743 156 678 91Q613 26 538 26Q503 26 479 42.5Q455 59 451 88Q432 65 401.5 47Q371 29 338 29Q279 29 248.5 66.5Q218 104 218 161Q218 245 272 316.5Q326 388 411 388Q448 388 471.5 370Q495 352 505 331L517 380ZM459 140 492 279Q483 307 462 326.5Q441 346 411 346Q343 346 303 286Q263 226 263 163Q263 120 286 95Q309 70 347 70Q381 70 409 90.5Q437 111 459 140Z" glyph-name="at" horiz-adv-x="774" unicode="@" /><glyph d="M574 472 513 217Q507 190 515.5 173.5Q524 157 558 157Q619 157 666.5 213.5Q714 270 714 377Q714 481 639.5 547Q565 613 445 613Q291 613 192 507Q93 401 93 251Q93 106 191 41.5Q289 -23 406 -23Q471 -23 526.5 -9.5Q582 4 621 22L616 -19Q578 -36 523 -49Q468 -62 405 -62Q268 -62 159 13Q50 88 50 251Q50 414 161 534Q272 654 445 654Q586 654 671 575Q756 496 756 377Q756 248 691 183Q626 118 551 118Q516 118 492 134.5Q468 151 464 180Q445 157 414.5 139Q384 121 351 121Q292 121 261.5 158.5Q231 196 231 253Q231 337 285 408.5Q339 480 424 480Q461 480 484.5 462Q508 444 518 423L530 472ZM472 232 505 371Q496 399 475 418.5Q454 438 424 438Q356 438 316 378Q276 318 276 255Q276 212 299 187Q322 162 360 162Q394 162 422 182.5Q450 203 472 232Z" glyph-name="at.cap" horiz-adv-x="774" /><glyph d="M301 101 311 158Q304 185 272 204.5Q240 224 197 224Q151 224 108.5 198.5Q66 173 66 119Q66 80 97 57.5Q128 35 171 35Q214 35 249.5 54Q285 73 301 101ZM321 215 337 306Q338 313 338.5 319Q339 325 339 330Q339 366 315.5 387Q292 408 248 408Q208 408 173.5 396.5Q139 385 108 366L117 416Q142 432 179 442.5Q216 453 256 453Q319 453 353.5 422Q388 391 388 339Q388 332 387 323Q386 314 385 308L332 0H283L290 42Q271 23 237 8Q203 -7 164 -7Q102 -7 60 28Q18 63 18 118Q18 186 73 226Q128 266 197 266Q242 266 274.5 249Q307 232 321 215ZM384 625H420Q411 578 389 549Q367 520 334 520Q298 520 280.5 552.5Q263 585 238 585Q220 585 207.5 568Q195 551 190 523H154Q162 570 184.5 599Q207 628 240 628Q277 628 293.5 595.5Q310 563 336 563Q354 563 366.5 580Q379 597 384 625Z" glyph-name="atilde" horiz-adv-x="436" unicode="&#227;" /><glyph d="M94 68 82 0H33L147 650H196L148 376Q172 406 210.5 429.5Q249 453 294 453Q377 453 416 399Q455 345 455 267Q455 162 392 76.5Q329 -9 224 -9Q175 -9 141 15Q107 39 94 68ZM138 317 104 125Q119 82 150 59.5Q181 37 223 37Q313 37 359 111Q405 185 405 267Q405 329 375.5 368Q346 407 287 407Q243 407 205.5 383.5Q168 360 138 317Z" glyph-name="b" horiz-adv-x="493" unicode="b" /><glyph d="M139 650 258 -84H211L92 650Z" glyph-name="backslash" horiz-adv-x="306" unicode="\" /><glyph d="M140 670 259 -64H212L93 670Z" glyph-name="backslash.cap" horiz-adv-x="306" /><glyph d="M29 -84 158 650H205L76 -84Z" glyph-name="bar" horiz-adv-x="205" unicode="|" /><glyph d="M33 -64 162 670H209L80 -64Z" glyph-name="bar.cap" horiz-adv-x="205" /><glyph d="M151 213 115 6Q111 -17 120 -28Q129 -39 149 -39H262L254 -84H142Q102 -84 81.5 -58Q61 -32 68 9L104 215Q108 237 99.5 248.5Q91 260 70 260H28L36 306H78Q99 306 111.5 317.5Q124 329 128 351L164 557Q171 598 201 624Q231 650 271 650H383L375 605H262Q242 605 229 594Q216 583 212 560L176 353Q172 328 157.5 310Q143 292 123 282Q139 272 147 254.5Q155 237 151 213Z" glyph-name="braceleft" horiz-adv-x="334" unicode="{" /><glyph d="M154 229 118 22Q114 0 123 -11.5Q132 -23 152 -23H265L257 -68H145Q105 -68 84.5 -42Q64 -16 71 25L107 232Q111 254 102.5 265.5Q94 277 73 277H31L39 322H81Q102 322 114.5 333.5Q127 345 131 367L167 573Q174 615 204 640.5Q234 666 274 666H386L378 621H265Q245 621 232 610Q219 599 215 576L179 369Q175 344 160.5 326.5Q146 309 127 299Q143 288 150.5 271Q158 254 154 229Z" glyph-name="braceleft.cap" horiz-adv-x="334" /><glyph d="M203 353 239 560Q243 583 234 594Q225 605 205 605H92L100 650H212Q252 650 272.5 624Q293 598 286 557L250 351Q246 329 254.5 317.5Q263 306 284 306H326L318 260H276Q255 260 242.5 248.5Q230 237 226 215L190 9Q183 -32 153 -58Q123 -84 83 -84H-29L-21 -39H92Q112 -39 125 -28Q138 -17 142 6L178 213Q182 238 196.5 256Q211 274 231 284Q215 294 207 311.5Q199 329 203 353Z" glyph-name="braceright" horiz-adv-x="334" unicode="}" /><glyph d="M206 369 242 576Q246 599 237 610Q228 621 208 621H95L103 666H215Q255 666 275.5 640.5Q296 615 289 573L253 367Q249 345 257.5 333.5Q266 322 288 322H330L321 277H279Q258 277 245.5 265.5Q233 254 229 232L193 25Q186 -16 156 -42Q126 -68 86 -68H-26L-18 -23H95Q115 -23 128 -11.5Q141 0 145 22L181 229Q185 254 200 272Q215 290 234 300Q218 311 210 328Q202 345 206 369Z" glyph-name="braceright.cap" horiz-adv-x="334" /><glyph d="M194 605 81 -39H239L231 -84H26L155 650H360L352 605Z" glyph-name="bracketleft" horiz-adv-x="311" unicode="[" /><glyph d="M197 621 84 -23H242L234 -68H29L158 666H363L355 621Z" glyph-name="bracketleft.cap" horiz-adv-x="311" /><glyph d="M138 -39 251 605H93L101 650H306L177 -84H-28L-20 -39Z" glyph-name="bracketright" horiz-adv-x="311" unicode="]" /><glyph d="M141 -23 254 621H95L103 666H309L180 -68H-26L-18 -23Z" glyph-name="bracketright.cap" horiz-adv-x="311" /><glyph d="M241 506Q200 506 173.5 537Q147 568 157 626H197Q190 587 203 565Q216 543 244 543Q272 543 293 565Q314 587 321 626H361Q350 568 317.5 537Q285 506 241 506Z" glyph-name="breve" horiz-adv-x="500" unicode="&#728;" /><glyph d="M241 664Q200 664 173 694Q146 724 156 781H196Q189 743 203 722.5Q217 702 245 702Q272 702 293.5 722.5Q315 743 322 781H361Q351 724 319 694Q287 664 241 664Z" glyph-name="breve.cap" horiz-adv-x="500" /><glyph d="M299 260Q299 204 262 168Q225 132 171 132Q117 132 80 168Q43 204 43 260Q43 316 80 352Q117 388 171 388Q225 388 262 352Q299 316 299 260Z" glyph-name="bullet" horiz-adv-x="332" unicode="&#8226;" /><glyph d="M308 300Q308 244 270.5 208Q233 172 179 172Q126 172 88.5 208Q51 244 51 300Q51 356 88.5 392Q126 428 179 428Q233 428 270.5 392Q308 356 308 300Z" glyph-name="bullet.cap" horiz-adv-x="332" /><glyph d="M338 76 329 22Q307 8 277.5 -0.5Q248 -9 217 -9Q135 -9 86.5 43Q38 95 38 182Q38 299 108 376Q178 453 278 453Q312 453 344.5 442.5Q377 432 397 411L388 360Q366 384 339 396Q312 408 278 408Q206 408 146.5 348Q87 288 87 182Q87 117 123 76.5Q159 36 221 36Q252 36 281 45.5Q310 55 338 76Z" glyph-name="c" horiz-adv-x="403" unicode="c" /><glyph d="M315 520H265L371 650H424ZM338 76 329 22Q307 8 277.5 -0.5Q248 -9 217 -9Q135 -9 86.5 43Q38 95 38 182Q38 299 108 376Q178 453 278 453Q312 453 344.5 442.5Q377 432 397 411L388 360Q366 384 339 396Q312 408 278 408Q206 408 146.5 348Q87 288 87 182Q87 117 123 76.5Q159 36 221 36Q252 36 281 45.5Q310 55 338 76Z" glyph-name="cacute" horiz-adv-x="403" unicode="&#263;" /><glyph d="M205 515 136 645H179L230 549L316 645H364L249 515Z" glyph-name="caron" horiz-adv-x="500" unicode="&#711;" /><glyph d="M232 490H190L268 650H311Z" glyph-name="caron.Slovak" horiz-adv-x="500" /><glyph d="M207 660 136 779H180L233 696L314 779H364L251 660Z" glyph-name="caron.cap" horiz-adv-x="500" /><glyph d="M273 515 204 645H247L298 549L384 645H432L317 515ZM338 76 329 22Q307 8 277.5 -0.5Q248 -9 217 -9Q135 -9 86.5 43Q38 95 38 182Q38 299 108 376Q178 453 278 453Q312 453 344.5 442.5Q377 432 397 411L388 360Q366 384 339 396Q312 408 278 408Q206 408 146.5 348Q87 288 87 182Q87 117 123 76.5Q159 36 221 36Q252 36 281 45.5Q310 55 338 76Z" glyph-name="ccaron" horiz-adv-x="403" unicode="&#269;" /><glyph d="M338 76 329 22Q307 8 277.5 -0.5Q248 -9 217 -9Q135 -9 86.5 43Q38 95 38 182Q38 299 108 376Q178 453 278 453Q312 453 344.5 442.5Q377 432 397 411L388 360Q366 384 339 396Q312 408 278 408Q206 408 146.5 348Q87 288 87 182Q87 117 123 76.5Q159 36 221 36Q252 36 281 45.5Q310 55 338 76ZM139 -175H90L172 -48H222Z" glyph-name="ccedilla" horiz-adv-x="403" unicode="&#231;" /><glyph d="M334 644 403 513H360L309 610L223 513H175L290 644ZM338 76 329 22Q307 8 277.5 -0.5Q248 -9 217 -9Q135 -9 86.5 43Q38 95 38 182Q38 299 108 376Q178 453 278 453Q312 453 344.5 442.5Q377 432 397 411L388 360Q366 384 339 396Q312 408 278 408Q206 408 146.5 348Q87 288 87 182Q87 117 123 76.5Q159 36 221 36Q252 36 281 45.5Q310 55 338 76Z" glyph-name="ccircumflex" horiz-adv-x="403" unicode="&#265;" /><glyph d="M338 76 329 22Q307 8 277.5 -0.5Q248 -9 217 -9Q135 -9 86.5 43Q38 95 38 182Q38 299 108 376Q178 453 278 453Q312 453 344.5 442.5Q377 432 397 411L388 360Q366 384 339 396Q312 408 278 408Q206 408 146.5 348Q87 288 87 182Q87 117 123 76.5Q159 36 221 36Q252 36 281 45.5Q310 55 338 76ZM338 579Q338 565 328 555Q318 545 304 545Q290 545 280 555Q270 565 270 579Q270 592 280 602.5Q290 613 304 613Q318 613 328 602.5Q338 592 338 579Z" glyph-name="cdotaccent" horiz-adv-x="403" unicode="&#267;" /><glyph d="M231 -175H182L264 -48H314Z" glyph-name="cedilla" horiz-adv-x="500" unicode="&#184;" /><glyph d="M231 -175H182L264 -48H314Z" glyph-name="cedilla.alt" horiz-adv-x="500" /><glyph d="M221 1H219L204 -84H159L175 6Q113 19 77.5 67.5Q42 116 42 191Q42 301 103.5 375.5Q165 450 255 460L271 553H316L300 461Q330 459 357 448.5Q384 438 402 420L392 369Q370 393 343 405Q316 417 282 417Q210 417 151 357Q92 297 92 191Q92 127 128 86Q164 45 225 45Q256 45 285 54Q314 63 342 84L333 32Q311 17 281.5 9Q252 1 221 1Z" glyph-name="cent" horiz-adv-x="402" unicode="&#162;" /><glyph d="M256 1H254L239 -84H194L210 6Q148 19 112.5 67.5Q77 116 77 191Q77 301 138.5 375.5Q200 450 290 460L306 553H351L336 461Q365 459 392.5 448.5Q420 438 437 420L428 369Q406 393 378.5 405Q351 417 317 417Q245 417 186 357Q127 297 127 191Q127 127 163 86Q199 45 260 45Q291 45 320 54Q349 63 377 84L368 32Q346 17 316.5 9Q287 1 256 1Z" glyph-name="cent.lt" horiz-adv-x="520" /><glyph d="M295 644 364 513H321L270 610L184 513H136L251 644Z" glyph-name="circumflex" horiz-adv-x="500" unicode="&#710;" /><glyph d="M293 786 364 667H320L267 751L186 667H136L249 786Z" glyph-name="circumflex.cap" horiz-adv-x="500" /><glyph d="M4 35Q4 51 15 62.5Q26 74 41 74Q57 74 68 62.5Q79 51 79 35Q79 19 68 8Q57 -3 41 -3Q26 -3 15 8Q4 19 4 35ZM62 364Q62 380 73 391.5Q84 403 99 403Q115 403 126 391.5Q137 380 137 364Q137 348 126 337Q115 326 99 326Q84 326 73 337Q62 348 62 364Z" glyph-name="colon" horiz-adv-x="141" unicode=":" /><glyph d="M52 35Q52 51 63 62.5Q74 74 90 74Q105 74 116 62.5Q127 51 127 35Q127 19 116 8Q105 -3 90 -3Q74 -3 63 8Q52 19 52 35ZM110 364Q110 380 121 391.5Q132 403 148 403Q163 403 174 391.5Q185 380 185 364Q185 348 174 337Q163 326 148 326Q132 326 121 337Q110 348 110 364Z" glyph-name="colon.tab" horiz-adv-x="260" /><glyph d="M-43 -101 30 1Q19 3 11.5 12.5Q4 22 4 35Q4 51 14.5 62Q25 73 41 73Q57 73 68 62Q79 51 79 34Q79 21 73.5 10.5Q68 0 61 -9L-5 -101Z" glyph-name="comma" horiz-adv-x="141" unicode="," /><glyph d="M12 -101 85 1Q73 3 65.5 12.5Q58 22 58 35Q58 51 69 62Q80 73 96 73Q112 73 122.5 62Q133 51 133 34Q133 21 127.5 10.5Q122 0 115 -9L50 -101Z" glyph-name="comma.tab" horiz-adv-x="260" /><glyph d="M208 -183 256 -116Q245 -114 237.5 -105Q230 -96 230 -83Q230 -67 240.5 -57Q251 -47 266 -47Q281 -47 291.5 -57.5Q302 -68 302 -84Q302 -96 297 -106Q292 -116 285 -125L244 -183Z" glyph-name="commaaccent" horiz-adv-x="500" unicode="&#63171;" /><glyph d="M302 663 253 594Q264 592 271.5 583Q279 574 279 561Q279 546 268.5 535.5Q258 525 243 525Q228 525 217.5 535.5Q207 546 207 562Q207 574 212 584Q217 594 224 604L266 663Z" glyph-name="commaturn" horiz-adv-x="500" /><glyph d="M688 307Q688 170 595 80.5Q502 -9 373 -9Q243 -9 150 80.5Q57 170 57 307Q57 444 150 533.5Q243 623 373 623Q502 623 595 533.5Q688 444 688 307ZM656 307Q656 430 572.5 510.5Q489 591 373 591Q257 591 173 510.5Q89 430 89 307Q89 184 173 103.5Q257 23 373 23Q489 23 572.5 103.5Q656 184 656 307ZM197 309Q197 400 249 454Q301 508 379 508Q413 508 438 499.5Q463 491 482 477V426Q460 445 435 454Q410 463 382 463Q323 463 284.5 421.5Q246 380 246 309Q246 239 284.5 197Q323 155 382 155Q410 155 435 164Q460 173 482 192V141Q463 127 438 118.5Q413 110 379 110Q301 110 249 164Q197 218 197 309Z" glyph-name="copyright" horiz-adv-x="708" unicode="&#169;" /><glyph d="M355 127 389 319Q374 362 343 384.5Q312 407 270 407Q180 407 134 332Q88 257 88 177Q88 115 117.5 76Q147 37 206 37Q250 37 287.5 60.5Q325 84 355 127ZM399 376 447 650H496L382 0H333L345 68Q321 38 282.5 14.5Q244 -9 199 -9Q116 -9 77 45Q38 99 38 177Q38 280 101 366.5Q164 453 269 453Q318 453 352 429Q386 405 399 376Z" glyph-name="d" horiz-adv-x="493" unicode="d" /><glyph d="M321 519H222L187 315H146L182 519H83L90 558H189L205 650H245L229 558H328Z" glyph-name="dagger" horiz-adv-x="300" unicode="&#8224;" /><glyph d="M302 405H203L187 315H147L163 405H63L70 443H170L183 522H84L91 560H190L206 650H246L230 560H330L323 522H223L210 443H309Z" glyph-name="daggerdbl" horiz-adv-x="304" unicode="&#8225;" /><glyph d="M558 490H516L594 650H637ZM355 127 389 319Q374 362 343 384.5Q312 407 270 407Q180 407 134 332Q88 257 88 177Q88 115 117.5 76Q147 37 206 37Q250 37 287.5 60.5Q325 84 355 127ZM399 376 447 650H496L382 0H333L345 68Q321 38 282.5 14.5Q244 -9 199 -9Q116 -9 77 45Q38 99 38 177Q38 280 101 366.5Q164 453 269 453Q318 453 352 429Q386 405 399 376Z" glyph-name="dcaron" horiz-adv-x="493" unicode="&#271;" /><glyph d="M355 127 389 319Q374 362 343 384.5Q312 407 270 407Q180 407 134 332Q88 257 88 177Q88 115 117.5 76Q147 37 206 37Q250 37 287.5 60.5Q325 84 355 127ZM345 68Q321 38 282.5 14.5Q244 -9 199 -9Q116 -9 77 45Q38 99 38 177Q38 280 101 366.5Q164 453 269 453Q318 453 352 429Q386 405 399 376L424 520H308L315 557H431L447 650H496L480 557H533L526 520H473L382 0H333Z" glyph-name="dcroat" horiz-adv-x="493" unicode="&#273;" /><glyph d="M203 623Q247 623 277.5 593Q308 563 308 518Q308 467 273 430.5Q238 394 188 394Q143 394 113 424Q83 454 83 499Q83 550 117.5 586.5Q152 623 203 623ZM199 583Q170 583 146.5 560Q123 537 123 500Q123 472 142.5 453Q162 434 191 434Q220 434 243.5 457Q267 480 267 517Q267 545 247.5 564Q228 583 199 583Z" glyph-name="degree" horiz-adv-x="316" unicode="&#176;" /><glyph d="M280 571Q280 584 289.5 593.5Q299 603 312 603Q325 603 335 593.5Q345 584 345 571Q345 557 335 547.5Q325 538 312 538Q299 538 289.5 547.5Q280 557 280 571ZM155 571Q155 584 164.5 593.5Q174 603 188 603Q201 603 210.5 593.5Q220 584 220 571Q220 557 210.5 547.5Q201 538 188 538Q174 538 164.5 547.5Q155 557 155 571Z" glyph-name="dieresis" horiz-adv-x="500" unicode="&#168;" /><glyph d="M280 715Q280 729 289.5 738.5Q299 748 312 748Q325 748 335 738.5Q345 729 345 715Q345 702 335 692Q325 682 312 682Q299 682 289.5 692Q280 702 280 715ZM155 715Q155 729 164.5 738.5Q174 748 188 748Q201 748 210.5 738.5Q220 729 220 715Q220 702 210.5 692Q201 682 188 682Q174 682 164.5 692Q155 702 155 715Z" glyph-name="dieresis.cap" horiz-adv-x="500" /><glyph d="M258 447Q258 463 269 474Q280 485 295 485Q309 485 320 474Q331 463 331 447Q331 432 320 421.5Q309 411 295 411Q280 411 269 421.5Q258 432 258 447ZM79 273 86 316H458L451 273ZM206 142Q206 157 216.5 168Q227 179 242 179Q257 179 267.5 168Q278 157 278 142Q278 126 267.5 115.5Q257 105 242 105Q227 105 216.5 115.5Q206 126 206 142Z" glyph-name="divide" horiz-adv-x="514" unicode="&#247;" /><glyph d="M253 447Q253 463 263.5 474Q274 485 289 485Q303 485 314 474Q325 463 325 447Q325 432 314 421.5Q303 411 289 411Q274 411 263.5 421.5Q253 432 253 447ZM73 273 81 316H452L445 273ZM200 142Q200 157 210.5 168Q221 179 236 179Q251 179 261.5 168Q272 157 272 142Q272 126 261.5 115.5Q251 105 236 105Q221 105 210.5 115.5Q200 126 200 142Z" glyph-name="divide.lt" horiz-adv-x="520" /><glyph d="M189 -85H144L162 14Q111 17 71.5 34Q32 51 10 73L20 128Q55 91 96 75Q137 59 184 59Q254 59 298 92Q342 125 342 182Q342 215 321 235Q300 255 258 275L179 311Q143 327 109 356Q75 385 75 436Q75 518 135.5 558.5Q196 599 265 601L282 695H327L310 599Q347 595 378 582.5Q409 570 431 551L421 498Q393 526 356.5 540.5Q320 555 274 555Q216 555 170.5 528Q125 501 125 441Q125 408 147.5 388.5Q170 369 208 352L291 314Q340 291 365.5 260.5Q391 230 391 187Q391 112 337.5 66Q284 20 207 14Z" glyph-name="dollar" horiz-adv-x="438" unicode="$" /><glyph d="M229 -85H184L202 14Q150 17 111 34Q72 51 50 73L60 128Q95 91 135.5 75Q176 59 224 59Q293 59 337 92Q381 125 381 182Q381 215 360.5 235Q340 255 297 275L219 311Q182 327 148.5 356Q115 385 115 436Q115 518 175.5 558.5Q236 599 305 601L322 695H367L350 599Q387 595 418 582.5Q449 570 471 551L461 498Q433 526 396.5 540.5Q360 555 314 555Q256 555 210 528Q164 501 164 441Q164 408 187 388.5Q210 369 248 352L330 314Q380 291 405.5 260.5Q431 230 431 187Q431 112 377.5 66Q324 20 247 14Z" glyph-name="dollar.lt" horiz-adv-x="520" /><glyph d="M284 579Q284 565 274 555Q264 545 250 545Q236 545 226 555Q216 565 216 579Q216 592 226 602.5Q236 613 250 613Q264 613 274 602.5Q284 592 284 579Z" glyph-name="dotaccent" horiz-adv-x="500" unicode="&#729;" /><glyph d="M284 714Q284 700 274 690Q264 680 250 680Q236 680 226 690Q216 700 216 714Q216 728 226 738Q236 748 250 748Q264 748 274 738Q284 728 284 714Z" glyph-name="dotaccent.cap" horiz-adv-x="500" /><glyph d="M284 -112Q284 -125 274 -135.5Q264 -146 250 -146Q236 -146 226 -135.5Q216 -125 216 -112Q216 -98 226 -87.5Q236 -77 250 -77Q264 -77 274 -87.5Q284 -98 284 -112Z" glyph-name="dotbelow" horiz-adv-x="500" /><glyph d="M160 444 82 0H33L111 444Z" glyph-name="dotlessi" horiz-adv-x="192" unicode="&#305;" /><glyph d="M-86 -173 -78 -128Q-74 -131 -67 -133Q-60 -135 -52 -135Q-23 -135 -4.5 -119Q14 -103 22 -59L111 444H160L71 -64Q61 -121 29.5 -150Q-2 -179 -52 -179Q-65 -179 -73 -177Q-81 -175 -86 -173Z" glyph-name="dotlessj" horiz-adv-x="192" unicode="&#567;" /><glyph d="M266 409Q203 409 159 365.5Q115 322 97 259H365Q366 267 367 275.5Q368 284 368 291Q368 338 344.5 373.5Q321 409 266 409ZM349 27Q321 8 287.5 -0.5Q254 -9 219 -9Q132 -9 85 43Q38 95 38 181Q38 278 97.5 365.5Q157 453 267 453Q341 453 378 407.5Q415 362 415 287Q415 271 413 253.5Q411 236 408 218H89Q88 209 87.5 199.5Q87 190 87 181Q87 112 125 73Q163 34 224 34Q261 34 294.5 45Q328 56 359 79Z" glyph-name="e" horiz-adv-x="444" unicode="e" /><glyph d="M305 520H255L361 650H414ZM266 409Q203 409 159 365.5Q115 322 97 259H365Q366 267 367 275.5Q368 284 368 291Q368 338 344.5 373.5Q321 409 266 409ZM349 27Q321 8 287.5 -0.5Q254 -9 219 -9Q132 -9 85 43Q38 95 38 181Q38 278 97.5 365.5Q157 453 267 453Q341 453 378 407.5Q415 362 415 287Q415 271 413 253.5Q411 236 408 218H89Q88 209 87.5 199.5Q87 190 87 181Q87 112 125 73Q163 34 224 34Q261 34 294.5 45Q328 56 359 79Z" glyph-name="eacute" horiz-adv-x="444" unicode="&#233;" /><glyph d="M266 409Q203 409 159 365.5Q115 322 97 259H365Q366 267 367 275.5Q368 284 368 291Q368 338 344.5 373.5Q321 409 266 409ZM349 27Q321 8 287.5 -0.5Q254 -9 219 -9Q132 -9 85 43Q38 95 38 181Q38 278 97.5 365.5Q157 453 267 453Q341 453 378 407.5Q415 362 415 287Q415 271 413 253.5Q411 236 408 218H89Q88 209 87.5 199.5Q87 190 87 181Q87 112 125 73Q163 34 224 34Q261 34 294.5 45Q328 56 359 79ZM283 506Q242 506 215.5 537Q189 568 199 626H239Q232 587 245 565Q258 543 286 543Q314 543 335 565Q356 587 363 626H403Q392 568 359.5 537Q327 506 283 506Z" glyph-name="ebreve" horiz-adv-x="444" unicode="&#277;" /><glyph d="M262 515 193 645H236L287 549L373 645H421L306 515ZM266 409Q203 409 159 365.5Q115 322 97 259H365Q366 267 367 275.5Q368 284 368 291Q368 338 344.5 373.5Q321 409 266 409ZM349 27Q321 8 287.5 -0.5Q254 -9 219 -9Q132 -9 85 43Q38 95 38 181Q38 278 97.5 365.5Q157 453 267 453Q341 453 378 407.5Q415 362 415 287Q415 271 413 253.5Q411 236 408 218H89Q88 209 87.5 199.5Q87 190 87 181Q87 112 125 73Q163 34 224 34Q261 34 294.5 45Q328 56 359 79Z" glyph-name="ecaron" horiz-adv-x="444" unicode="&#283;" /><glyph d="M324 644 393 513H350L299 610L213 513H165L280 644ZM266 409Q203 409 159 365.5Q115 322 97 259H365Q366 267 367 275.5Q368 284 368 291Q368 338 344.5 373.5Q321 409 266 409ZM349 27Q321 8 287.5 -0.5Q254 -9 219 -9Q132 -9 85 43Q38 95 38 181Q38 278 97.5 365.5Q157 453 267 453Q341 453 378 407.5Q415 362 415 287Q415 271 413 253.5Q411 236 408 218H89Q88 209 87.5 199.5Q87 190 87 181Q87 112 125 73Q163 34 224 34Q261 34 294.5 45Q328 56 359 79Z" glyph-name="ecircumflex" horiz-adv-x="444" unicode="&#234;" /><glyph d="M323 571Q323 584 332.5 593.5Q342 603 355 603Q368 603 378 593.5Q388 584 388 571Q388 557 378 547.5Q368 538 355 538Q342 538 332.5 547.5Q323 557 323 571ZM198 571Q198 584 207.5 593.5Q217 603 231 603Q244 603 253.5 593.5Q263 584 263 571Q263 557 253.5 547.5Q244 538 231 538Q217 538 207.5 547.5Q198 557 198 571ZM266 409Q203 409 159 365.5Q115 322 97 259H365Q366 267 367 275.5Q368 284 368 291Q368 338 344.5 373.5Q321 409 266 409ZM349 27Q321 8 287.5 -0.5Q254 -9 219 -9Q132 -9 85 43Q38 95 38 181Q38 278 97.5 365.5Q157 453 267 453Q341 453 378 407.5Q415 362 415 287Q415 271 413 253.5Q411 236 408 218H89Q88 209 87.5 199.5Q87 190 87 181Q87 112 125 73Q163 34 224 34Q261 34 294.5 45Q328 56 359 79Z" glyph-name="edieresis" horiz-adv-x="444" unicode="&#235;" /><glyph d="M266 409Q203 409 159 365.5Q115 322 97 259H365Q366 267 367 275.5Q368 284 368 291Q368 338 344.5 373.5Q321 409 266 409ZM349 27Q321 8 287.5 -0.5Q254 -9 219 -9Q132 -9 85 43Q38 95 38 181Q38 278 97.5 365.5Q157 453 267 453Q341 453 378 407.5Q415 362 415 287Q415 271 413 253.5Q411 236 408 218H89Q88 209 87.5 199.5Q87 190 87 181Q87 112 125 73Q163 34 224 34Q261 34 294.5 45Q328 56 359 79ZM328 579Q328 565 318 555Q308 545 294 545Q280 545 270 555Q260 565 260 579Q260 592 270 602.5Q280 613 294 613Q308 613 318 602.5Q328 592 328 579Z" glyph-name="edotaccent" horiz-adv-x="444" unicode="&#279;" /><glyph d="M266 409Q203 409 159 365.5Q115 322 97 259H365Q366 267 367 275.5Q368 284 368 291Q368 338 344.5 373.5Q321 409 266 409ZM349 27Q321 8 287.5 -0.5Q254 -9 219 -9Q132 -9 85 43Q38 95 38 181Q38 278 97.5 365.5Q157 453 267 453Q341 453 378 407.5Q415 362 415 287Q415 271 413 253.5Q411 236 408 218H89Q88 209 87.5 199.5Q87 190 87 181Q87 112 125 73Q163 34 224 34Q261 34 294.5 45Q328 56 359 79ZM306 520H262L198 650H246Z" glyph-name="egrave" horiz-adv-x="444" unicode="&#232;" /><glyph d="M221 -9Q149 -9 88 31.5Q27 72 27 153Q27 220 73.5 270Q120 320 186 333Q151 349 129 380Q107 411 107 453Q107 522 162.5 572.5Q218 623 302 623Q371 623 422 585Q473 547 473 478Q473 423 435.5 380Q398 337 343 321Q389 303 417.5 266Q446 229 446 180Q446 97 378.5 44Q311 -9 221 -9ZM423 476Q423 524 387 551.5Q351 579 302 579Q239 579 197.5 541Q156 503 156 451Q156 403 193 375.5Q230 348 278 348Q341 348 382 386.5Q423 425 423 476ZM78 156Q78 102 120.5 68.5Q163 35 222 35Q295 35 345.5 77Q396 119 396 182Q396 239 352.5 272Q309 305 247 305Q177 305 127.5 262Q78 219 78 156Z" glyph-name="eight" horiz-adv-x="481" unicode="8" /><glyph d="M232 -9Q161 -9 100 31.5Q39 72 39 153Q39 220 85.5 270Q132 320 198 333Q163 349 141 380Q119 411 119 453Q119 522 174.5 572.5Q230 623 313 623Q382 623 433.5 585Q485 547 485 478Q485 423 447 380Q409 337 354 321Q401 303 429 266Q457 229 457 180Q457 97 389.5 44Q322 -9 232 -9ZM435 476Q435 524 399 551.5Q363 579 313 579Q251 579 209.5 541Q168 503 168 451Q168 403 204.5 375.5Q241 348 289 348Q352 348 393.5 386.5Q435 425 435 476ZM90 156Q90 102 132.5 68.5Q175 35 233 35Q306 35 356.5 77Q407 119 407 182Q407 239 364 272Q321 305 259 305Q189 305 139.5 262Q90 219 90 156Z" glyph-name="eight.lt" horiz-adv-x="520" /><glyph d="M325 35Q325 51 336 62.5Q347 74 363 74Q378 74 389 62.5Q400 51 400 35Q400 19 389 8Q378 -3 363 -3Q347 -3 336 8Q325 19 325 35ZM164 35Q164 51 175 62.5Q186 74 202 74Q218 74 229 62.5Q240 51 240 35Q240 19 229 8Q218 -3 202 -3Q186 -3 175 8Q164 19 164 35ZM4 35Q4 51 15 62.5Q26 74 41 74Q57 74 68 62.5Q79 51 79 35Q79 19 68 8Q57 -3 41 -3Q26 -3 15 8Q4 19 4 35Z" glyph-name="ellipsis" horiz-adv-x="462" unicode="&#8230;" /><glyph d="M266 409Q203 409 159 365.5Q115 322 97 259H365Q366 267 367 275.5Q368 284 368 291Q368 338 344.5 373.5Q321 409 266 409ZM349 27Q321 8 287.5 -0.5Q254 -9 219 -9Q132 -9 85 43Q38 95 38 181Q38 278 97.5 365.5Q157 453 267 453Q341 453 378 407.5Q415 362 415 287Q415 271 413 253.5Q411 236 408 218H89Q88 209 87.5 199.5Q87 190 87 181Q87 112 125 73Q163 34 224 34Q261 34 294.5 45Q328 56 359 79ZM185 537 193 578H394L387 537Z" glyph-name="emacron" horiz-adv-x="444" unicode="&#275;" /><glyph d="M43 239 50 280H816L809 239Z" glyph-name="emdash" horiz-adv-x="846" unicode="&#8212;" /><glyph d="M52 279 59 320H825L818 279Z" glyph-name="emdash.cap" horiz-adv-x="846" /><glyph d="M43 239 50 280H445L438 239Z" glyph-name="endash" horiz-adv-x="475" unicode="&#8211;" /><glyph d="M52 279 59 320H454L447 279Z" glyph-name="endash.cap" horiz-adv-x="475" /><glyph d="M211 -173 218 -128Q223 -131 230 -133Q237 -135 244 -135Q274 -135 292.5 -119Q311 -103 318 -59L379 287Q380 295 381 303Q382 311 382 318Q382 358 360 382.5Q338 407 291 407Q242 407 200.5 378.5Q159 350 137 311L82 0H33L111 444H160L148 372Q173 404 213.5 428.5Q254 453 303 453Q366 453 399.5 418Q433 383 433 328Q433 320 432 311.5Q431 303 430 294L367 -64Q357 -121 326 -150Q295 -179 245 -179Q232 -179 224 -177Q216 -175 211 -173Z" glyph-name="eng" horiz-adv-x="483" unicode="&#331;" /><glyph d="M408 218H89Q88 210 87.5 199.5Q87 189 87 181Q87 112 125 73Q163 34 224 34Q261 34 294.5 45Q328 56 359 79L349 27Q337 20 329.5 14.5Q322 9 312 0Q281 -29 260.5 -63Q240 -97 240 -126Q240 -136 245.5 -140.5Q251 -145 259 -145Q269 -145 278.5 -141.5Q288 -138 299 -131L293 -167Q282 -174 271 -178Q260 -182 247 -182Q225 -182 212 -170Q199 -158 199 -134Q199 -105 217.5 -70.5Q236 -36 267 -3Q258 -6 242.5 -7.5Q227 -9 219 -9Q132 -9 85 43Q38 95 38 181Q38 278 97.5 365.5Q157 453 267 453Q341 453 378 407.5Q415 362 415 287Q415 271 413 253.5Q411 236 408 218ZM266 409Q202 409 158 365Q114 321 97 259H365Q366 267 367 275.5Q368 284 368 291Q368 338 344.5 373.5Q321 409 266 409Z" glyph-name="eogonek" horiz-adv-x="444" unicode="&#281;" /><glyph d="M94 338 101 380H473L466 338ZM71 210 79 252H451L444 210Z" glyph-name="equal" horiz-adv-x="521" unicode="=" /><glyph d="M84 338 91 380H464L456 338ZM62 210 69 252H441L434 210Z" glyph-name="equal.lt" horiz-adv-x="520" /><glyph d="M211 -9Q130 -9 84 43.5Q38 96 38 181Q38 300 102.5 376.5Q167 453 258 453Q289 453 320.5 441Q352 429 368 401H370Q360 430 341.5 465.5Q323 501 294 538L185 502L173 535L270 567Q252 587 230.5 607Q209 627 184 646V650H242Q262 635 281 618Q300 601 316 582L399 609L410 576L339 553Q383 493 408 420Q433 347 433 272Q433 147 368.5 69Q304 -9 211 -9ZM211 35Q283 35 333 98Q383 161 383 263Q383 329 350 369Q317 409 260 409Q188 409 138 346Q88 283 88 181Q88 115 121 75Q154 35 211 35Z" glyph-name="eth" horiz-adv-x="471" unicode="&#240;" /><glyph d="M83 192 149 614H205L120 192ZM36 35Q36 51 47 62.5Q58 74 74 74Q89 74 100 62.5Q111 51 111 35Q111 19 100 8Q89 -3 74 -3Q58 -3 47 8Q36 19 36 35Z" glyph-name="exclam" horiz-adv-x="206" unicode="!" /><glyph d="M202 483Q202 467 191 455.5Q180 444 164 444Q149 444 138 455.5Q127 467 127 483Q127 499 138 510Q149 521 164 521Q180 521 191 510Q202 499 202 483ZM155 326 89 -96H33L118 326Z" glyph-name="exclamdown" horiz-adv-x="209" unicode="&#161;" /><glyph d="M210 579Q210 563 199 551.5Q188 540 172 540Q157 540 146 551.5Q135 563 135 579Q135 595 146 606Q157 617 172 617Q188 617 199 606Q210 595 210 579ZM163 422 97 0H41L126 422Z" glyph-name="exclamdown.cap" horiz-adv-x="206" /><glyph d="M345 650 337 605Q327 609 317 611.5Q307 614 295 614Q258 614 231 589.5Q204 565 196 519L183 444H287L279 401H175L105 0H56L126 401H54L62 444H134L148 524Q158 584 198 621.5Q238 659 293 659Q308 659 321.5 656.5Q335 654 345 650Z" glyph-name="f" horiz-adv-x="258" unicode="f" /><glyph d="M580 650 572 605Q563 609 552.5 611.5Q542 614 530 614Q493 614 466 589.5Q439 565 431 519L418 444H522L514 401H410L340 0H291L361 401H175L105 0H56L126 401H54L62 444H134L147 518Q157 578 197 615.5Q237 653 292 653Q307 653 320.5 650.5Q334 648 344 644L336 599Q326 603 316 605.5Q306 608 294 608Q257 608 230 583.5Q203 559 195 513L183 444H369L383 524Q394 584 433.5 621.5Q473 659 529 659Q543 659 556.5 656.5Q570 654 580 650Z" glyph-name="f_f" horiz-adv-x="494" unicode="&#64256;" /><glyph d="M451 579Q451 565 441 555Q431 545 417 545Q403 545 393 555Q383 565 383 579Q383 592 393 602.5Q403 613 417 613Q431 613 441 602.5Q451 592 451 579ZM418 444 340 0H291L369 444ZM345 650 337 605Q327 609 317 611.5Q307 614 295 614Q258 614 231 589.5Q204 565 196 519L183 444H287L279 401H175L105 0H56L126 401H54L62 444H134L148 524Q158 584 198 621.5Q238 659 293 659Q308 659 321.5 656.5Q335 654 345 650Z" glyph-name="fi" horiz-adv-x="450" unicode="&#64257;" /><glyph d="M403 213Q403 123 335 57Q267 -9 171 -9Q115 -9 74 7Q33 23 7 45L18 102Q45 69 85 53Q125 37 171 37Q243 37 299 85.5Q355 134 355 211Q355 268 316 300Q277 332 217 332Q170 332 140.5 323Q111 314 80 302L136 614H444L436 567H170L135 362Q151 368 175 372.5Q199 377 224 377Q302 377 352.5 333.5Q403 290 403 213Z" glyph-name="five" horiz-adv-x="435" unicode="5" /><glyph d="M439 213Q439 123 369.5 57Q300 -9 201 -9Q144 -9 102.5 7.5Q61 24 35 46L45 102Q73 69 113.5 53Q154 37 201 37Q276 37 333.5 85.5Q391 134 391 211Q391 268 350.5 300Q310 332 248 332Q201 332 170.5 323Q140 314 109 302L166 614H482L473 567H200L163 362Q179 367 205 372Q231 377 256 377Q336 377 387.5 333.5Q439 290 439 213Z" glyph-name="five.lt" horiz-adv-x="520" /><glyph d="M454 650 340 0H291L405 650ZM345 650 337 605Q327 609 317 611.5Q307 614 295 614Q258 614 231 589.5Q204 565 196 519L183 444H287L279 401H175L105 0H56L126 401H54L62 444H134L148 524Q158 584 198 621.5Q238 659 293 659Q308 659 321.5 656.5Q335 654 345 650Z" glyph-name="fl" horiz-adv-x="450" unicode="&#64258;" /><glyph d="M-31 -173Q-51 -173 -66 -169.5Q-81 -166 -93 -161L-87 -115Q-74 -122 -60.5 -125.5Q-47 -129 -31 -129Q4 -129 23 -107.5Q42 -86 56 -40L158 295H77L85 337H171L219 494Q237 554 274.5 588.5Q312 623 363 623Q383 623 398 619.5Q413 616 425 611L419 565Q406 572 392.5 575.5Q379 579 363 579Q328 579 304.5 557.5Q281 536 268 490L221 337H316L308 295H209L105 -45Q87 -105 54 -139Q21 -173 -31 -173Z" glyph-name="florin" horiz-adv-x="378" unicode="&#402;" /><glyph d="M61 -173Q42 -173 26.5 -169.5Q11 -166 -1 -161L6 -115Q19 -122 32 -125.5Q45 -129 61 -129Q97 -129 116 -107.5Q135 -86 148 -40L250 295H169L177 337H263L311 494Q329 554 366.5 588.5Q404 623 455 623Q475 623 490.5 619.5Q506 616 518 611L511 565Q498 572 484.5 575.5Q471 579 455 579Q420 579 397 557.5Q374 536 360 490L313 337H408L401 295H301L197 -45Q179 -105 146 -139Q113 -173 61 -173Z" glyph-name="florin.lt" horiz-adv-x="520" /><glyph d="M365 614 101 196H318L345 348H394L367 196H480L473 150H359L333 0H284L310 150H21V154L311 614Z" glyph-name="four" horiz-adv-x="500" unicode="4" /><glyph d="M368 614 104 196H321L348 348H397L370 196H484L476 150H362L336 0H287L313 150H24V154L314 614Z" glyph-name="four.lt" horiz-adv-x="520" /><glyph d="M392 614 -133 0H-180L344 614Z" glyph-name="fraction" horiz-adv-x="204" unicode="&#8260;" /><glyph d="M357 136 389 320Q375 361 343.5 384Q312 407 270 407Q180 407 134 334Q88 261 88 183Q88 123 119 84.5Q150 46 209 46Q253 46 290 70.5Q327 95 357 136ZM338 28 347 76Q323 48 285 24.5Q247 1 202 1Q119 1 78.5 53.5Q38 106 38 183Q38 284 101 368.5Q164 453 269 453Q319 453 352.5 428.5Q386 404 399 376L411 444H460L387 29Q368 -75 307 -127Q246 -179 161 -179Q116 -179 76.5 -165.5Q37 -152 16 -133L25 -80Q53 -110 90 -122Q127 -134 161 -134Q228 -134 275.5 -95Q323 -56 338 28Z" glyph-name="g" horiz-adv-x="488" unicode="g" /><glyph d="M357 136 389 320Q375 361 343.5 384Q312 407 270 407Q180 407 134 334Q88 261 88 183Q88 123 119 84.5Q150 46 209 46Q253 46 290 70.5Q327 95 357 136ZM338 28 347 76Q323 48 285 24.5Q247 1 202 1Q119 1 78.5 53.5Q38 106 38 183Q38 284 101 368.5Q164 453 269 453Q319 453 352.5 428.5Q386 404 399 376L411 444H460L387 29Q368 -75 307 -127Q246 -179 161 -179Q116 -179 76.5 -165.5Q37 -152 16 -133L25 -80Q53 -110 90 -122Q127 -134 161 -134Q228 -134 275.5 -95Q323 -56 338 28ZM305 506Q264 506 237.5 537Q211 568 221 626H261Q254 587 267 565Q280 543 308 543Q336 543 357 565Q378 587 385 626H425Q414 568 381.5 537Q349 506 305 506Z" glyph-name="gbreve" horiz-adv-x="488" unicode="&#287;" /><glyph d="M345 644 414 513H371L320 610L234 513H186L301 644ZM357 136 389 320Q375 361 343.5 384Q312 407 270 407Q180 407 134 334Q88 261 88 183Q88 123 119 84.5Q150 46 209 46Q253 46 290 70.5Q327 95 357 136ZM338 28 347 76Q323 48 285 24.5Q247 1 202 1Q119 1 78.5 53.5Q38 106 38 183Q38 284 101 368.5Q164 453 269 453Q319 453 352.5 428.5Q386 404 399 376L411 444H460L387 29Q368 -75 307 -127Q246 -179 161 -179Q116 -179 76.5 -165.5Q37 -152 16 -133L25 -80Q53 -110 90 -122Q127 -134 161 -134Q228 -134 275.5 -95Q323 -56 338 28Z" glyph-name="gcircumflex" horiz-adv-x="488" unicode="&#285;" /><glyph d="M366 663 317 594Q328 592 335.5 583Q343 574 343 561Q343 546 332.5 535.5Q322 525 307 525Q292 525 281.5 535.5Q271 546 271 562Q271 574 276 584Q281 594 288 604L330 663ZM357 136 389 320Q375 361 343.5 384Q312 407 270 407Q180 407 134 334Q88 261 88 183Q88 123 119 84.5Q150 46 209 46Q253 46 290 70.5Q327 95 357 136ZM338 28 347 76Q323 48 285 24.5Q247 1 202 1Q119 1 78.5 53.5Q38 106 38 183Q38 284 101 368.5Q164 453 269 453Q319 453 352.5 428.5Q386 404 399 376L411 444H460L387 29Q368 -75 307 -127Q246 -179 161 -179Q116 -179 76.5 -165.5Q37 -152 16 -133L25 -80Q53 -110 90 -122Q127 -134 161 -134Q228 -134 275.5 -95Q323 -56 338 28Z" glyph-name="gcommaaccent" horiz-adv-x="488" unicode="&#291;" /><glyph d="M357 136 389 320Q375 361 343.5 384Q312 407 270 407Q180 407 134 334Q88 261 88 183Q88 123 119 84.5Q150 46 209 46Q253 46 290 70.5Q327 95 357 136ZM338 28 347 76Q323 48 285 24.5Q247 1 202 1Q119 1 78.5 53.5Q38 106 38 183Q38 284 101 368.5Q164 453 269 453Q319 453 352.5 428.5Q386 404 399 376L411 444H460L387 29Q368 -75 307 -127Q246 -179 161 -179Q116 -179 76.5 -165.5Q37 -152 16 -133L25 -80Q53 -110 90 -122Q127 -134 161 -134Q228 -134 275.5 -95Q323 -56 338 28ZM349 579Q349 565 339 555Q329 545 315 545Q301 545 291 555Q281 565 281 579Q281 592 291 602.5Q301 613 315 613Q329 613 339 602.5Q349 592 349 579Z" glyph-name="gdotaccent" horiz-adv-x="488" unicode="&#289;" /><glyph d="M33 0 125 524Q136 587 176.5 623Q217 659 270 659Q289 659 304 656Q319 653 331 647L323 601Q311 608 298.5 611.5Q286 615 271 615Q234 615 207 590.5Q180 566 173 519L160 444H493V440L295 226Q347 204 382 164Q417 124 417 63Q417 -58 324 -118.5Q231 -179 108 -179L116 -135Q212 -134 290 -87.5Q368 -41 368 61Q368 116 330.5 151.5Q293 187 230 209V213L404 401H152L82 0Z" glyph-name="germandbls" horiz-adv-x="484" unicode="&#223;" /><glyph d="M336 369Q361 365 383 353Q405 341 421.5 321Q438 301 447 274Q456 247 456 214Q456 164 438.5 123Q421 82 390.5 53Q360 24 321.5 8.5Q283 -7 241 -7Q226 -7 212 -5.5Q198 -4 186 -1Q174 2 163.5 6.5Q153 11 144 16L153 64Q162 57 172.5 52Q183 47 194 44Q205 41 216.5 39.5Q228 38 241 38Q276 38 306 50Q336 62 359 85Q382 108 395 141Q408 174 408 215Q408 246 398 270Q388 294 369 311Q350 328 323 336.5Q296 345 261 345H218L226 389H269Q297 389 323 399Q349 409 369 427Q389 445 400 469.5Q411 494 411 522Q411 542 405 559Q399 576 386.5 588.5Q374 601 355.5 608Q337 615 313 615Q282 615 256.5 604Q231 593 212 573.5Q193 554 181 527Q169 500 163 467L82 0H33L114 467Q121 508 138 543Q155 578 180.5 604Q206 630 240 644.5Q274 659 314 659Q349 659 377 649Q405 639 423 621Q441 603 450.5 579Q460 555 460 527Q460 496 449.5 470Q439 444 421.5 424Q404 404 382 390Q360 376 336 369Z" glyph-name="germandbls.alt" horiz-adv-x="501" /><glyph d="M306 520H262L198 650H246Z" glyph-name="grave" horiz-adv-x="500" unicode="`" /><glyph d="M308 665H261L194 782H246Z" glyph-name="grave.cap" horiz-adv-x="500" /><glyph d="M355 316 347 269 46 119 55 170 309 295 99 420 107 466Z" glyph-name="greater" horiz-adv-x="397" unicode="&gt;" /><glyph d="M417 316 409 269 108 119 117 170 371 295 161 420 169 466Z" glyph-name="greater.lt" horiz-adv-x="520" /><glyph d="M363 354 355 309 60 193 69 242 309 333 100 426 109 469ZM328 154 321 111H46L53 154Z" glyph-name="greaterequal" horiz-adv-x="399" unicode="&#8805;" /><glyph d="M421 354 413 309 118 193 127 242 367 333 158 426 167 469ZM386 154 379 111H104L111 154Z" glyph-name="greaterequal.lt" horiz-adv-x="520" /><glyph d="M268 86H222L154 222L270 358H322L203 218ZM145 86H98L31 222L146 358H199L80 218Z" glyph-name="guillemotleft" horiz-adv-x="314" unicode="&#171;" /><glyph d="M289 173H243L175 309L291 445H343L224 306ZM166 173H119L52 309L167 445H220L101 306Z" glyph-name="guillemotleft.cap" horiz-adv-x="314" /><glyph d="M57 358H103L171 222L55 86H3L122 226ZM180 358H227L294 222L179 86H126L245 226Z" glyph-name="guillemotright" horiz-adv-x="314" unicode="&#187;" /><glyph d="M74 445H121L188 309L73 173H20L139 313ZM198 445H244L312 309L196 173H144L263 313Z" glyph-name="guillemotright.cap" horiz-adv-x="314" /><glyph d="M146 86H98L31 222L146 358H200L81 218Z" glyph-name="guilsinglleft" horiz-adv-x="192" unicode="&#8249;" /><glyph d="M167 173H119L52 309L167 445H221L102 306Z" glyph-name="guilsinglleft.cap" horiz-adv-x="192" /><glyph d="M57 358H105L172 222L57 86H3L122 226Z" glyph-name="guilsinglright" horiz-adv-x="192" unicode="&#8250;" /><glyph d="M74 445H122L190 309L74 173H20L139 313Z" glyph-name="guilsinglright.cap" horiz-adv-x="192" /><glyph d="M303 453Q366 453 399.5 418Q433 383 433 328Q433 320 432 311.5Q431 303 430 294L379 0H330L379 287Q380 295 381 303Q382 311 382 318Q382 358 360 382.5Q338 407 291 407Q242 407 200.5 378.5Q159 350 137 311L82 0H33L147 650H196L147 372Q172 404 213 428.5Q254 453 303 453Z" glyph-name="h" horiz-adv-x="483" unicode="h" /><glyph d="M137 311 82 0H33L124 520H71L78 557H131L147 650H196L180 557H296L289 520H173L147 372Q172 404 213 428.5Q254 453 303 453Q366 453 399.5 418Q433 383 433 328Q433 320 432 311.5Q431 303 430 294L379 0H330L379 287Q380 295 381 303Q382 311 382 318Q382 358 360 382.5Q338 407 291 407Q242 407 200.5 378.5Q159 350 137 311Z" glyph-name="hbar" horiz-adv-x="483" unicode="&#295;" /><glyph d="M303 453Q366 453 399.5 418Q433 383 433 328Q433 320 432 311.5Q431 303 430 294L379 0H330L379 287Q380 295 381 303Q382 311 382 318Q382 358 360 382.5Q338 407 291 407Q242 407 200.5 378.5Q159 350 137 311L82 0H33L147 650H196L147 372Q172 404 213 428.5Q254 453 303 453ZM334 795 405 676H361L308 760L227 676H177L290 795Z" glyph-name="hcircumflex" horiz-adv-x="483" unicode="&#293;" /><glyph d="M280 520H234L331 650H377ZM169 520H123L219 650H266Z" glyph-name="hungarumlaut" horiz-adv-x="500" unicode="&#733;" /><glyph d="M284 665H236L331 782H379ZM170 665H123L217 782H265Z" glyph-name="hungarumlaut.cap" horiz-adv-x="500" /><glyph d="M43 237 51 283H292L284 237Z" glyph-name="hyphen" horiz-adv-x="321" unicode="-" /><glyph d="M52 277 60 323H301L293 277Z" glyph-name="hyphen.cap" horiz-adv-x="321" /><glyph d="M193 579Q193 565 183 555Q173 545 159 545Q145 545 135 555Q125 565 125 579Q125 592 135 602.5Q145 613 159 613Q173 613 183 602.5Q193 592 193 579ZM160 444 82 0H33L111 444Z" glyph-name="i" horiz-adv-x="192" unicode="i" /><glyph d="M171 520H121L227 650H280ZM160 444 82 0H33L111 444Z" glyph-name="iacute" horiz-adv-x="192" unicode="&#237;" /><glyph d="M148 506Q108 506 87 537Q66 568 77 626H115Q108 587 117.5 565Q127 543 152 543Q176 543 193.5 565Q211 587 218 626H257Q247 568 217 537Q187 506 148 506ZM160 444 82 0H33L111 444Z" glyph-name="ibreve" horiz-adv-x="192" unicode="&#301;" /><glyph d="M191 644 240 513H198L164 607L97 513H51L147 644ZM160 444 82 0H33L111 444Z" glyph-name="icircumflex" horiz-adv-x="192" unicode="&#238;" /><glyph d="M178 571Q178 584 188 593.5Q198 603 211 603Q224 603 234 593.5Q244 584 244 571Q244 557 234 547.5Q224 538 211 538Q198 538 188 547.5Q178 557 178 571ZM71 571Q71 584 81 593.5Q91 603 104 603Q118 603 127.5 593.5Q137 584 137 571Q137 557 127.5 547.5Q118 538 104 538Q91 538 81 547.5Q71 557 71 571ZM160 444 82 0H33L111 444Z" glyph-name="idieresis" horiz-adv-x="192" unicode="&#239;" /><glyph d="M160 444 82 0H33L111 444ZM194 579Q194 565 184 555Q174 545 160 545Q146 545 136 555Q126 565 126 579Q126 592 136 602.5Q146 613 160 613Q174 613 184 602.5Q194 592 194 579Z" glyph-name="idotaccent" horiz-adv-x="192" /><glyph d="M160 444 82 0H33L111 444ZM172 520H128L64 650H112Z" glyph-name="igrave" horiz-adv-x="192" unicode="&#236;" /><glyph d="M193 579Q193 565 183 555Q173 545 159 545Q145 545 135 555Q125 565 125 579Q125 592 135 602.5Q145 613 159 613Q173 613 183 602.5Q193 592 193 579ZM160 444 82 0H33L111 444ZM385 579Q385 565 375 555Q365 545 351 545Q337 545 327 555Q317 565 317 579Q317 592 327 602.5Q337 613 351 613Q365 613 375 602.5Q385 592 385 579ZM106 -173 114 -128Q118 -131 125 -133Q132 -135 140 -135Q169 -135 187.5 -119Q206 -103 214 -59L303 444H352L263 -64Q253 -121 221.5 -150Q190 -179 140 -179Q127 -179 119 -177Q111 -175 106 -173Z" glyph-name="ij" horiz-adv-x="384" unicode="&#307;" /><glyph d="M72 537 79 578H237L230 537ZM160 444 82 0H33L111 444Z" glyph-name="imacron" horiz-adv-x="192" unicode="&#299;" /><glyph d="M193 579Q193 565 183 555Q173 545 159 545Q145 545 135 555Q125 565 125 579Q125 592 135 602.5Q145 613 159 613Q173 613 183 602.5Q193 592 193 579ZM33 0 111 444H160L82 0Q44 -54 27.5 -79Q11 -104 11 -126Q11 -136 16.5 -140.5Q22 -145 30 -145Q40 -145 49.5 -141.5Q59 -138 70 -131L64 -167Q53 -174 42 -178Q31 -182 18 -182Q-4 -182 -17 -170Q-30 -158 -30 -134Q-30 -103 -9.5 -73Q11 -43 42 0Z" glyph-name="iogonek" horiz-adv-x="192" unicode="&#303;" /><glyph d="M231 625H267Q259 578 239.5 549Q220 520 194 520Q164 520 153.5 552Q143 584 124 584Q111 584 102 567.5Q93 551 88 523H52Q60 570 79.5 599Q99 628 124 628Q155 628 165.5 596Q176 564 194 564Q207 564 216.5 580.5Q226 597 231 625ZM160 444 82 0H33L111 444Z" glyph-name="itilde" horiz-adv-x="192" unicode="&#297;" /><glyph d="M193 579Q193 565 183 555Q173 545 159 545Q145 545 135 555Q125 565 125 579Q125 592 135 602.5Q145 613 159 613Q173 613 183 602.5Q193 592 193 579ZM-86 -173 -78 -128Q-74 -131 -67 -133Q-60 -135 -52 -135Q-23 -135 -4.5 -119Q14 -103 22 -59L111 444H160L71 -64Q61 -121 29.5 -150Q-2 -179 -52 -179Q-65 -179 -73 -177Q-81 -175 -86 -173Z" glyph-name="j" horiz-adv-x="192" unicode="j" /><glyph d="M191 644 240 513H198L164 607L97 513H51L147 644ZM-86 -173 -78 -128Q-74 -131 -67 -133Q-60 -135 -52 -135Q-23 -135 -4.5 -119Q14 -103 22 -59L111 444H160L71 -64Q61 -121 29.5 -150Q-2 -179 -52 -179Q-65 -179 -73 -177Q-81 -175 -86 -173Z" glyph-name="jcircumflex" horiz-adv-x="192" unicode="&#309;" /><glyph d="M319 0 122 228 82 0H33L147 650H196L126 251L382 444H451L175 236L377 0Z" glyph-name="k" horiz-adv-x="426" unicode="k" /><glyph d="M112 -183 160 -116Q149 -114 141.5 -105Q134 -96 134 -83Q134 -67 144.5 -57Q155 -47 170 -47Q185 -47 195.5 -57.5Q206 -68 206 -84Q206 -96 201 -106Q196 -116 189 -125L148 -183ZM319 0 122 228 82 0H33L147 650H196L126 251L382 444H451L175 236L377 0Z" glyph-name="kcommaaccent" horiz-adv-x="426" unicode="&#311;" /><glyph d="M319 0 122 228 82 0H33L111 444H160L126 251L382 444H451L175 236L377 0Z" glyph-name="kgreenlandic" horiz-adv-x="426" unicode="&#312;" /><glyph d="M196 650 82 0H33L147 650Z" glyph-name="l" horiz-adv-x="192" unicode="l" /><glyph d="M206 684H153L256 801H315ZM196 650 82 0H33L147 650Z" glyph-name="lacute" horiz-adv-x="192" unicode="&#314;" /><glyph d="M258 490H216L294 650H337ZM196 650 82 0H33L147 650Z" glyph-name="lcaron" horiz-adv-x="192" unicode="&#318;" /><glyph d="M-15 -183 33 -116Q22 -114 14.5 -105Q7 -96 7 -83Q7 -67 17.5 -57Q28 -47 43 -47Q58 -47 68.5 -57.5Q79 -68 79 -84Q79 -96 74 -106Q69 -116 62 -125L21 -183ZM196 650 82 0H33L147 650Z" glyph-name="lcommaaccent" horiz-adv-x="192" unicode="&#316;" /><glyph d="M196 650 82 0H33L147 650ZM298 325Q298 311 288 301Q278 291 264 291Q250 291 240 301Q230 311 230 325Q230 338 240 348.5Q250 359 264 359Q278 359 288 348.5Q298 338 298 325Z" glyph-name="ldot" horiz-adv-x="294" unicode="&#320;" /><glyph d="M65 269 73 316 374 466 365 415 111 290 321 166 313 119Z" glyph-name="less" horiz-adv-x="397" unicode="&lt;" /><glyph d="M108 269 116 316 417 466 408 415 154 290 364 166 356 119Z" glyph-name="less.lt" horiz-adv-x="520" /><glyph d="M72 308 79 354 375 469 366 421 126 329 334 236 326 193ZM37 111 45 154H320L312 111Z" glyph-name="lessequal" horiz-adv-x="399" unicode="&#8804;" /><glyph d="M128 308 136 354 431 469 422 421 182 329 391 236 382 193ZM93 111 101 154H376L368 111Z" glyph-name="lessequal.lt" horiz-adv-x="520" /><glyph d="M101 0H52L110 333L44 293L52 341L119 382L166 650H215L173 409L246 453L238 405L164 360Z" glyph-name="lslash" horiz-adv-x="231" unicode="&#322;" /><glyph d="M397 369Q425 404 463 428.5Q501 453 547 453Q606 453 634.5 419Q663 385 663 334Q663 325 661.5 315Q660 305 659 295L608 0H559L608 286Q610 296 611 305.5Q612 315 612 324Q612 361 594 384Q576 407 536 407Q490 407 455 377.5Q420 348 400 311L345 0H296L345 286Q347 296 348 305.5Q349 315 349 324Q349 361 331 384Q313 407 273 407Q227 407 192.5 377.5Q158 348 137 311L82 0H33L111 444H160L148 374Q171 405 206 429Q241 453 288 453Q334 453 362 429.5Q390 406 397 369Z" glyph-name="m" horiz-adv-x="713" unicode="m" /><glyph d="M145 537 153 578H354L347 537Z" glyph-name="macron" horiz-adv-x="500" unicode="&#175;" /><glyph d="M145 670 152 712H354L347 670Z" glyph-name="macron.cap" horiz-adv-x="500" /><glyph d="M79 273 86 316H458L451 273Z" glyph-name="minus" horiz-adv-x="514" unicode="&#8722;" /><glyph d="M73 273 81 316H452L445 273Z" glyph-name="minus.lt" horiz-adv-x="520" /><glyph d="M206 293 105 415 137 442 236 320 379 443 403 414 261 291 360 170 328 142 229 263 87 142 62 171Z" glyph-name="multiply" horiz-adv-x="442" unicode="&#215;" /><glyph d="M235 293 135 415 167 442 266 320 408 443 433 414 291 291 390 170 358 142 258 263 116 142 92 171Z" glyph-name="multiply.lt" horiz-adv-x="520" /><glyph d="M33 0 111 444H160L148 372Q173 404 213.5 428.5Q254 453 303 453Q366 453 399.5 418Q433 383 433 328Q433 320 432 311.5Q431 303 430 294L379 0H330L379 287Q380 295 381 303Q382 311 382 318Q382 358 360 382.5Q338 407 291 407Q242 407 200.5 378.5Q159 350 137 311L82 0Z" glyph-name="n" horiz-adv-x="483" unicode="n" /><glyph d="M318 520H268L374 650H427ZM33 0 111 444H160L148 372Q173 404 213.5 428.5Q254 453 303 453Q366 453 399.5 418Q433 383 433 328Q433 320 432 311.5Q431 303 430 294L379 0H330L379 287Q380 295 381 303Q382 311 382 318Q382 358 360 382.5Q338 407 291 407Q242 407 200.5 378.5Q159 350 137 311L82 0Z" glyph-name="nacute" horiz-adv-x="483" unicode="&#324;" /><glyph d="M275 515 206 645H249L300 549L386 645H434L319 515ZM33 0 111 444H160L148 372Q173 404 213.5 428.5Q254 453 303 453Q366 453 399.5 418Q433 383 433 328Q433 320 432 311.5Q431 303 430 294L379 0H330L379 287Q380 295 381 303Q382 311 382 318Q382 358 360 382.5Q338 407 291 407Q242 407 200.5 378.5Q159 350 137 311L82 0Z" glyph-name="ncaron" horiz-adv-x="483" unicode="&#328;" /><glyph d="M132 -183 180 -116Q169 -114 161.5 -105Q154 -96 154 -83Q154 -67 164.5 -57Q175 -47 190 -47Q205 -47 215.5 -57.5Q226 -68 226 -84Q226 -96 221 -106Q216 -116 209 -125L168 -183ZM33 0 111 444H160L148 372Q173 404 213.5 428.5Q254 453 303 453Q366 453 399.5 418Q433 383 433 328Q433 320 432 311.5Q431 303 430 294L379 0H330L379 287Q380 295 381 303Q382 311 382 318Q382 358 360 382.5Q338 407 291 407Q242 407 200.5 378.5Q159 350 137 311L82 0Z" glyph-name="ncommaaccent" horiz-adv-x="483" unicode="&#326;" /><glyph d="M281 623Q363 623 418 568.5Q473 514 473 433Q473 390 457 348Q441 306 398 252L193 0H135L324 232Q310 223 290.5 217.5Q271 212 251 212Q167 212 114.5 266.5Q62 321 62 399Q62 495 128 559Q194 623 281 623ZM281 577Q214 577 162 526.5Q110 476 110 401Q110 339 151 297.5Q192 256 254 256Q322 256 373.5 306Q425 356 425 431Q425 493 384.5 535Q344 577 281 577Z" glyph-name="nine" horiz-adv-x="479" unicode="9" /><glyph d="M290 623Q372 623 427 568.5Q482 514 482 433Q482 390 466 348Q450 306 407 252L202 0H144L333 232Q319 223 299.5 217.5Q280 212 260 212Q176 212 123.5 266.5Q71 321 71 399Q71 495 137 559Q203 623 290 623ZM290 577Q223 577 171 526.5Q119 476 119 401Q119 339 160 297.5Q201 256 263 256Q331 256 382.5 306Q434 356 434 431Q434 493 393.5 535Q353 577 290 577Z" glyph-name="nine.lt" horiz-adv-x="520" /><glyph glyph-name="nonmarkingreturn" horiz-adv-x="221" unicode="" /><glyph d="M444 211H216L130 121H85L171 211H71L79 252H210L291 338H94L101 379H330L415 468H460L375 379H473L466 338H336L255 252H451Z" glyph-name="notequal" horiz-adv-x="521" unicode="&#8800;" /><glyph d="M434 211H206L121 121H76L161 211H62L69 252H200L282 338H84L91 379H321L405 468H450L366 379H464L456 338H327L245 252H441Z" glyph-name="notequal.lt" horiz-adv-x="520" /><glyph d="M33 0 111 444H160L148 372Q173 404 213.5 428.5Q254 453 303 453Q366 453 399.5 418Q433 383 433 328Q433 320 432 311.5Q431 303 430 294L379 0H330L379 287Q380 295 381 303Q382 311 382 318Q382 358 360 382.5Q338 407 291 407Q242 407 200.5 378.5Q159 350 137 311L82 0ZM404 625H440Q431 578 409 549Q387 520 354 520Q318 520 300.5 552.5Q283 585 258 585Q240 585 227.5 568Q215 551 210 523H174Q182 570 204.5 599Q227 628 260 628Q297 628 313.5 595.5Q330 563 356 563Q374 563 386.5 580Q399 597 404 625Z" glyph-name="ntilde" horiz-adv-x="483" unicode="&#241;" /><glyph d="M341 231 388 383H245L198 231ZM271 0 329 191H186L128 0H85L143 191H46L54 231H155L201 383H86L94 423H213L271 614H315L257 423H400L458 614H501L443 423H540L531 383H431L385 231H500L492 191H373L315 0Z" glyph-name="numbersign" horiz-adv-x="554" unicode="#" /><glyph d="M211 -9Q130 -9 84 43.5Q38 96 38 181Q38 300 102.5 376.5Q167 453 260 453Q341 453 387 400.5Q433 348 433 263Q433 144 368.5 67.5Q304 -9 211 -9ZM211 35Q283 35 333 98Q383 161 383 263Q383 329 350 369Q317 409 260 409Q188 409 138 346Q88 283 88 181Q88 115 121 75Q154 35 211 35Z" glyph-name="o" horiz-adv-x="471" unicode="o" /><glyph d="M309 520H259L365 650H418ZM211 -9Q130 -9 84 43.5Q38 96 38 181Q38 300 102.5 376.5Q167 453 260 453Q341 453 387 400.5Q433 348 433 263Q433 144 368.5 67.5Q304 -9 211 -9ZM211 35Q283 35 333 98Q383 161 383 263Q383 329 350 369Q317 409 260 409Q188 409 138 346Q88 283 88 181Q88 115 121 75Q154 35 211 35Z" glyph-name="oacute" horiz-adv-x="471" unicode="&#243;" /><glyph d="M211 -9Q130 -9 84 43.5Q38 96 38 181Q38 300 102.5 376.5Q167 453 260 453Q341 453 387 400.5Q433 348 433 263Q433 144 368.5 67.5Q304 -9 211 -9ZM211 35Q283 35 333 98Q383 161 383 263Q383 329 350 369Q317 409 260 409Q188 409 138 346Q88 283 88 181Q88 115 121 75Q154 35 211 35ZM287 506Q246 506 219.5 537Q193 568 203 626H243Q236 587 249 565Q262 543 290 543Q318 543 339 565Q360 587 367 626H407Q396 568 363.5 537Q331 506 287 506Z" glyph-name="obreve" horiz-adv-x="471" unicode="&#335;" /><glyph d="M327 644 396 513H353L302 610L216 513H168L283 644ZM211 -9Q130 -9 84 43.5Q38 96 38 181Q38 300 102.5 376.5Q167 453 260 453Q341 453 387 400.5Q433 348 433 263Q433 144 368.5 67.5Q304 -9 211 -9ZM211 35Q283 35 333 98Q383 161 383 263Q383 329 350 369Q317 409 260 409Q188 409 138 346Q88 283 88 181Q88 115 121 75Q154 35 211 35Z" glyph-name="ocircumflex" horiz-adv-x="471" unicode="&#244;" /><glyph d="M326 571Q326 584 335.5 593.5Q345 603 358 603Q371 603 381 593.5Q391 584 391 571Q391 557 381 547.5Q371 538 358 538Q345 538 335.5 547.5Q326 557 326 571ZM201 571Q201 584 210.5 593.5Q220 603 234 603Q247 603 256.5 593.5Q266 584 266 571Q266 557 256.5 547.5Q247 538 234 538Q220 538 210.5 547.5Q201 557 201 571ZM211 -9Q130 -9 84 43.5Q38 96 38 181Q38 300 102.5 376.5Q167 453 260 453Q341 453 387 400.5Q433 348 433 263Q433 144 368.5 67.5Q304 -9 211 -9ZM211 35Q283 35 333 98Q383 161 383 263Q383 329 350 369Q317 409 260 409Q188 409 138 346Q88 283 88 181Q88 115 121 75Q154 35 211 35Z" glyph-name="odieresis" horiz-adv-x="471" unicode="&#246;" /><glyph d="M260 453Q320 453 361 420Q402 387 418 335Q446 384 492.5 418.5Q539 453 603 453Q677 453 713.5 407.5Q750 362 750 287Q750 271 748.5 253.5Q747 236 743 218H425Q424 210 423 199.5Q422 189 422 181Q422 112 460 73Q498 34 559 34Q596 34 629.5 45Q663 56 694 79L684 27Q656 8 622.5 -0.5Q589 -9 554 -9Q491 -9 448.5 22.5Q406 54 389 105Q361 54 314 22.5Q267 -9 211 -9Q130 -9 84 43.5Q38 96 38 181Q38 300 102.5 376.5Q167 453 260 453ZM601 409Q538 409 493.5 365Q449 321 433 259H701Q702 267 702.5 275.5Q703 284 703 291Q703 338 679.5 373.5Q656 409 601 409ZM211 35Q283 35 333 98Q383 161 383 263Q383 329 350 369Q317 409 260 409Q188 409 138 346Q88 283 88 181Q88 115 121 75Q154 35 211 35Z" glyph-name="oe" horiz-adv-x="780" unicode="&#339;" /><glyph d="M268 4H308Q268 -52 251.5 -78Q235 -104 235 -126Q235 -136 240 -140.5Q245 -145 254 -145Q264 -145 273.5 -141.5Q283 -138 294 -131L287 -167Q277 -174 266 -178Q255 -182 242 -182Q220 -182 206.5 -170Q193 -158 193 -134Q193 -103 214.5 -72Q236 -41 268 4Z" glyph-name="ogonek" horiz-adv-x="500" unicode="&#731;" /><glyph d="M211 -9Q130 -9 84 43.5Q38 96 38 181Q38 300 102.5 376.5Q167 453 260 453Q341 453 387 400.5Q433 348 433 263Q433 144 368.5 67.5Q304 -9 211 -9ZM211 35Q283 35 333 98Q383 161 383 263Q383 329 350 369Q317 409 260 409Q188 409 138 346Q88 283 88 181Q88 115 121 75Q154 35 211 35ZM310 520H266L202 650H250Z" glyph-name="ograve" horiz-adv-x="471" unicode="&#242;" /><glyph d="M357 520H311L408 650H454ZM246 520H200L296 650H343ZM211 -9Q130 -9 84 43.5Q38 96 38 181Q38 300 102.5 376.5Q167 453 260 453Q341 453 387 400.5Q433 348 433 263Q433 144 368.5 67.5Q304 -9 211 -9ZM211 35Q283 35 333 98Q383 161 383 263Q383 329 350 369Q317 409 260 409Q188 409 138 346Q88 283 88 181Q88 115 121 75Q154 35 211 35Z" glyph-name="ohungarumlaut" horiz-adv-x="471" unicode="&#337;" /><glyph d="M189 537 197 578H398L391 537ZM211 -9Q130 -9 84 43.5Q38 96 38 181Q38 300 102.5 376.5Q167 453 260 453Q341 453 387 400.5Q433 348 433 263Q433 144 368.5 67.5Q304 -9 211 -9ZM211 35Q283 35 333 98Q383 161 383 263Q383 329 350 369Q317 409 260 409Q188 409 138 346Q88 283 88 181Q88 115 121 75Q154 35 211 35Z" glyph-name="omacron" horiz-adv-x="471" unicode="&#333;" /><glyph d="M305 615 197 0H146L243 552L68 470L77 524L273 615Z" glyph-name="one" horiz-adv-x="321" unicode="1" /><glyph d="M34 0 42 47H230L319 553L120 459L130 512L349 615H380L280 47H443L435 0Z" glyph-name="one.lt" horiz-adv-x="520" /><glyph d="M244 615 185 285H143L192 564L98 520L106 565L217 615ZM607 614 83 0H35L560 614ZM429 39H567L560 0H344V2L469 129Q493 152 521.5 182.5Q550 213 550 249Q550 269 537.5 282Q525 295 498 295Q470 295 442.5 280Q415 265 395 248L403 294Q423 311 450.5 323Q478 335 509 335Q550 335 572 313Q594 291 594 257Q594 215 566.5 181Q539 147 505 114Z" glyph-name="onehalf" horiz-adv-x="653" unicode="&#189;" /><glyph d="M244 615 185 285H143L192 564L98 520L106 565L217 615ZM607 614 83 0H35L560 614ZM519 330 381 112H479L492 188H532L519 112H573L566 75H512L499 0H460L472 75H313L314 78L475 330Z" glyph-name="onequarter" horiz-adv-x="643" unicode="&#188;" /><glyph d="M215 615 157 285H113L162 563L72 521L80 566L187 615Z" glyph-name="onesuperior" horiz-adv-x="221" unicode="&#185;" /><glyph d="M235 391 241 425Q237 441 218 452.5Q199 464 172 464Q145 464 119 449Q93 434 93 402Q93 379 112.5 365.5Q132 352 157 352Q182 352 204 363Q226 374 235 391ZM249 469 259 519Q259 523 259.5 527Q260 531 260 535Q260 557 244.5 569.5Q229 582 200 582Q174 582 151 574.5Q128 567 109 556L116 598Q134 608 159 615Q184 622 211 622Q256 622 280.5 601Q305 580 305 543Q305 538 304 531.5Q303 525 303 520L268 321H224L228 346Q216 335 194 325.5Q172 316 147 316Q106 316 78 339Q50 362 50 400Q50 446 86.5 473Q123 500 170 500Q198 500 219 489.5Q240 479 249 469Z" glyph-name="ordfeminine" horiz-adv-x="289" unicode="&#170;" /><glyph d="M181 315Q127 315 94.5 350.5Q62 386 62 443Q62 521 106 571.5Q150 622 213 622Q268 622 300 587Q332 552 332 495Q332 416 288 365.5Q244 315 181 315ZM183 355Q226 355 256 394Q286 433 286 495Q286 535 266 559Q246 583 212 583Q168 583 138.5 544Q109 505 109 443Q109 403 128.5 379Q148 355 183 355Z" glyph-name="ordmasculine" horiz-adv-x="311" unicode="&#186;" /><glyph d="M92 181Q92 154 97.5 131Q103 108 113 91L351 376Q336 392 314.5 400.5Q293 409 265 409Q193 409 142.5 346Q92 283 92 181ZM216 35Q288 35 338.5 98Q389 161 389 263Q389 288 384.5 309Q380 330 372 347L135 63Q150 50 170.5 42.5Q191 35 216 35ZM216 -9Q182 -9 154.5 0.5Q127 10 106 27L58 -30L30 -9L81 53Q62 77 52.5 109.5Q43 142 43 181Q43 300 107.5 376.5Q172 453 265 453Q301 453 330 442Q359 431 381 412L429 470L457 450L404 386Q420 362 429 331Q438 300 438 263Q438 144 373.5 67.5Q309 -9 216 -9Z" glyph-name="oslash" horiz-adv-x="481" unicode="&#248;" /><glyph d="M92 181Q92 154 97.5 131Q103 108 113 91L351 376Q336 392 314.5 400.5Q293 409 265 409Q193 409 142.5 346Q92 283 92 181ZM216 35Q288 35 338.5 98Q389 161 389 263Q389 288 384.5 309Q380 330 372 347L135 63Q150 50 170.5 42.5Q191 35 216 35ZM216 -9Q182 -9 154.5 0.5Q127 10 106 27L58 -30L30 -9L81 53Q62 77 52.5 109.5Q43 142 43 181Q43 300 107.5 376.5Q172 453 265 453Q301 453 330 442Q359 431 381 412L429 470L457 450L404 386Q420 362 429 331Q438 300 438 263Q438 144 373.5 67.5Q309 -9 216 -9ZM315 520H265L371 650H424Z" glyph-name="oslashacute" horiz-adv-x="481" unicode="&#511;" /><glyph d="M211 -9Q130 -9 84 43.5Q38 96 38 181Q38 300 102.5 376.5Q167 453 260 453Q341 453 387 400.5Q433 348 433 263Q433 144 368.5 67.5Q304 -9 211 -9ZM211 35Q283 35 333 98Q383 161 383 263Q383 329 350 369Q317 409 260 409Q188 409 138 346Q88 283 88 181Q88 115 121 75Q154 35 211 35ZM394 625H430Q421 578 399 549Q377 520 344 520Q308 520 290.5 552.5Q273 585 248 585Q230 585 217.5 568Q205 551 200 523H164Q172 570 194.5 599Q217 628 250 628Q287 628 303.5 595.5Q320 563 346 563Q364 563 376.5 580Q389 597 394 625Z" glyph-name="otilde" horiz-adv-x="471" unicode="&#245;" /><glyph d="M138 317 104 125Q119 82 150 59.5Q181 37 223 37Q313 37 359 111Q405 185 405 267Q405 329 375.5 368Q346 407 287 407Q243 407 205.5 383.5Q168 360 138 317ZM94 68 52 -170H3L111 444H160L148 376Q172 406 210.5 429.5Q249 453 294 453Q377 453 416 399Q455 345 455 267Q455 162 392 76.5Q329 -9 224 -9Q175 -9 141 15Q107 39 94 68Z" glyph-name="p" horiz-adv-x="493" unicode="p" /><glyph d="M163 -90 238 339Q174 339 119.5 369.5Q65 400 65 460Q65 544 140 579Q215 614 291 614H330L206 -90ZM274 -90 398 614H441L317 -90Z" glyph-name="paragraph" horiz-adv-x="446" unicode="&#182;" /><glyph d="M36 212Q36 371 128.5 489Q221 607 376 650L367 599Q241 558 163 456.5Q85 355 85 212Q85 116 130.5 53Q176 -10 256 -34L247 -84Q148 -56 92 21.5Q36 99 36 212Z" glyph-name="parenleft" horiz-adv-x="325" unicode="(" /><glyph d="M39 229Q39 388 131.5 505.5Q224 623 379 666L371 616Q244 575 166.5 473.5Q89 372 89 229Q89 132 134 69Q179 6 259 -18L250 -68Q151 -40 95 38Q39 116 39 229Z" glyph-name="parenleft.cap" horiz-adv-x="325" /><glyph d="M312 354Q312 195 219.5 77Q127 -41 -28 -84L-19 -33Q107 8 185 109.5Q263 211 263 354Q263 450 217.5 513Q172 576 92 600L101 650Q200 622 256 544.5Q312 467 312 354Z" glyph-name="parenright" horiz-adv-x="325" unicode=")" /><glyph d="M315 370Q315 211 223 93.5Q131 -24 -25 -68L-16 -17Q110 24 188 125.5Q266 227 266 370Q266 467 220.5 530Q175 593 95 616L104 666Q203 638 259 560.5Q315 483 315 370Z" glyph-name="parenright.cap" horiz-adv-x="325" /><glyph d="M196 623Q247 623 282.5 587.5Q318 552 318 501Q318 451 281 410Q244 369 188 369Q137 369 101 404Q65 439 65 490Q65 541 102.5 582Q140 623 196 623ZM43 0 538 614H585L90 0ZM189 411Q223 411 249.5 437Q276 463 276 500Q276 533 252 556.5Q228 580 194 580Q160 580 134 554Q108 528 108 491Q108 458 131.5 434.5Q155 411 189 411ZM433 -9Q382 -9 346 26.5Q310 62 310 113Q310 163 347 204Q384 245 441 245Q492 245 527.5 210Q563 175 563 124Q563 73 526 32Q489 -9 433 -9ZM439 203Q405 203 379 177Q353 151 353 114Q353 81 376.5 57.5Q400 34 434 34Q468 34 494.5 60Q521 86 521 123Q521 156 497 179.5Q473 203 439 203Z" glyph-name="percent" horiz-adv-x="620" unicode="%" /><glyph d="M176 623Q225 623 259.5 588.5Q294 554 294 505Q294 457 258 417.5Q222 378 168 378Q119 378 84.5 412Q50 446 50 495Q50 544 86 583.5Q122 623 176 623ZM518 614 58 0H11L471 614ZM170 418Q203 418 228.5 443Q254 468 254 505Q254 536 231 559.5Q208 583 174 583Q141 583 115.5 558Q90 533 90 496Q90 464 113.5 441Q137 418 170 418ZM353 -9Q304 -9 269.5 25.5Q235 60 235 109Q235 157 271 196.5Q307 236 361 236Q410 236 444.5 202Q479 168 479 119Q479 70 443 30.5Q407 -9 353 -9ZM359 196Q326 196 300.5 171Q275 146 275 109Q275 78 298.5 54.5Q322 31 355 31Q388 31 413.5 56Q439 81 439 118Q439 150 416 173Q393 196 359 196Z" glyph-name="percent.lt" horiz-adv-x="520" /><glyph d="M4 35Q4 51 15 62.5Q26 74 41 74Q57 74 68 62.5Q79 51 79 35Q79 19 68 8Q57 -3 41 -3Q26 -3 15 8Q4 19 4 35Z" glyph-name="period" horiz-adv-x="141" unicode="." /><glyph d="M52 35Q52 51 63 62.5Q74 74 90 74Q105 74 116 62.5Q127 51 127 35Q127 19 116 8Q105 -3 90 -3Q74 -3 63 8Q52 19 52 35Z" glyph-name="period.tab" horiz-adv-x="260" /><glyph d="M38 261Q38 277 49 288.5Q60 300 75 300Q91 300 102 288.5Q113 277 113 261Q113 245 102 234Q91 223 75 223Q60 223 49 234Q38 245 38 261Z" glyph-name="periodcentered" horiz-adv-x="151" unicode="&#183;" /><glyph d="M52 301Q52 317 63 328.5Q74 340 89 340Q105 340 116 328.5Q127 317 127 301Q127 285 116 274Q105 263 89 263Q74 263 63 274Q52 285 52 301Z" glyph-name="periodcentered.cap" horiz-adv-x="151" /><glyph d="M196 623Q247 623 282.5 587.5Q318 552 318 501Q318 451 281 410Q244 369 188 369Q137 369 101 404Q65 439 65 490Q65 541 102.5 582Q140 623 196 623ZM43 0 538 614H585L90 0ZM189 411Q223 411 249.5 437Q276 463 276 500Q276 533 252 556.5Q228 580 194 580Q160 580 134 554Q108 528 108 491Q108 458 131.5 434.5Q155 411 189 411ZM718 -9Q667 -9 631.5 26.5Q596 62 596 113Q596 163 633 204Q670 245 727 245Q778 245 813.5 210Q849 175 849 124Q849 73 812 32Q775 -9 718 -9ZM433 -9Q382 -9 346 26.5Q310 62 310 113Q310 163 347 204Q384 245 441 245Q492 245 527.5 210Q563 175 563 124Q563 73 526 32Q489 -9 433 -9ZM725 203Q691 203 664.5 177Q638 151 638 114Q638 81 662 57.5Q686 34 720 34Q754 34 780 60Q806 86 806 123Q806 156 782.5 179.5Q759 203 725 203ZM439 203Q405 203 379 177Q353 151 353 114Q353 81 376.5 57.5Q400 34 434 34Q468 34 494.5 60Q521 86 521 123Q521 156 497 179.5Q473 203 439 203Z" glyph-name="perthousand" horiz-adv-x="884" unicode="&#8240;" /><glyph d="M188 623Q237 623 271.5 588.5Q306 554 306 505Q306 457 270 417.5Q234 378 180 378Q131 378 96.5 412Q62 446 62 495Q62 544 98 583.5Q134 623 188 623ZM530 614 70 0H23L483 614ZM182 418Q215 418 240.5 443Q266 468 266 505Q266 536 242.5 559.5Q219 583 186 583Q153 583 127.5 558Q102 533 102 496Q102 464 125 441Q148 418 182 418ZM641 -9Q592 -9 557.5 25.5Q523 60 523 109Q523 157 559 196.5Q595 236 649 236Q698 236 732.5 202Q767 168 767 119Q767 70 731 30.5Q695 -9 641 -9ZM365 -9Q316 -9 281.5 25.5Q247 60 247 109Q247 157 283 196.5Q319 236 373 236Q422 236 456.5 202Q491 168 491 119Q491 70 455 30.5Q419 -9 365 -9ZM647 196Q614 196 588.5 171Q563 146 563 109Q563 78 586 54.5Q609 31 643 31Q676 31 701.5 56Q727 81 727 118Q727 150 703.5 173Q680 196 647 196ZM371 196Q338 196 312.5 171Q287 146 287 109Q287 78 310 54.5Q333 31 367 31Q400 31 425.5 56Q451 81 451 118Q451 150 427.5 173Q404 196 371 196Z" glyph-name="perthousand.lt" horiz-adv-x="800" /><glyph d="M451 273H286L257 109H214L243 273H79L86 316H250L279 480H322L293 316H458Z" glyph-name="plus" horiz-adv-x="514" unicode="+" /><glyph d="M445 273H281L252 109H209L238 273H73L81 316H245L274 480H317L288 316H452Z" glyph-name="plus.lt" horiz-adv-x="520" /><glyph d="M460 327H296L274 201H231L254 327H90L98 369H261L284 495H326L304 369H467ZM51 104 59 147H428L420 104Z" glyph-name="plusminus" horiz-adv-x="516" unicode="&#177;" /><glyph d="M463 327H300L277 201H235L257 327H94L101 369H265L287 495H330L307 369H470ZM54 104 62 147H431L424 104Z" glyph-name="plusminus.lt" horiz-adv-x="520" /><glyph d="M688 307Q688 170 595 80.5Q502 -9 373 -9Q243 -9 150 80.5Q57 170 57 307Q57 444 150 533.5Q243 623 373 623Q502 623 595 533.5Q688 444 688 307ZM656 307Q656 430 572.5 510.5Q489 591 373 591Q257 591 173 510.5Q89 430 89 307Q89 184 173 103.5Q257 23 373 23Q489 23 572.5 103.5Q656 184 656 307ZM407 270H312V124H266V493H407Q463 493 495.5 464.5Q528 436 528 382Q528 328 495.5 299Q463 270 407 270ZM405 313Q443 313 463 331.5Q483 350 483 382Q483 413 463 432Q443 451 405 451H312V313Z" glyph-name="published" horiz-adv-x="708" /><glyph d="M399 376 411 444H460L352 -170H303L345 68Q321 38 282.5 14.5Q244 -9 199 -9Q116 -9 77 45Q38 99 38 177Q38 280 101 366.5Q164 453 269 453Q318 453 352 429Q386 405 399 376ZM355 127 389 319Q374 362 343 384.5Q312 407 270 407Q180 407 134 332Q88 257 88 177Q88 115 117.5 76Q147 37 206 37Q250 37 287.5 60.5Q325 84 355 127Z" glyph-name="q" horiz-adv-x="492" unicode="q" /><glyph d="M255 307Q292 342 334.5 384.5Q377 427 377 484Q377 526 349.5 550.5Q322 575 270 575Q214 575 163.5 547Q113 519 75 483L85 541Q119 574 170.5 598.5Q222 623 275 623Q347 623 387 586.5Q427 550 427 487Q427 416 382 370Q337 324 290 278Q263 253 250.5 235.5Q238 218 232 193H183Q191 227 207.5 252.5Q224 278 255 307ZM138 35Q138 51 149 62.5Q160 74 176 74Q191 74 202 62.5Q213 51 213 35Q213 19 202 8Q191 -3 176 -3Q160 -3 149 8Q138 19 138 35Z" glyph-name="question" horiz-adv-x="414" unicode="?" /><glyph d="M304 483Q304 467 293 455.5Q282 444 266 444Q251 444 240 455.5Q229 467 229 483Q229 499 240 510Q251 521 266 521Q282 521 293 510Q304 499 304 483ZM187 211Q150 176 107.5 133.5Q65 91 65 34Q65 -8 92.5 -32.5Q120 -57 172 -57Q228 -57 278.5 -29Q329 -1 367 35L357 -23Q323 -56 271.5 -80.5Q220 -105 167 -105Q95 -105 55 -68.5Q15 -32 15 31Q15 102 60 148Q105 194 152 240Q179 265 191.5 282.5Q204 300 210 325H259Q251 291 234.5 265.5Q218 240 187 211Z" glyph-name="questiondown" horiz-adv-x="414" unicode="&#191;" /><glyph d="M307 579Q307 563 296 551.5Q285 540 269 540Q254 540 243 551.5Q232 563 232 579Q232 595 243 606Q254 617 269 617Q285 617 296 606Q307 595 307 579ZM190 307Q153 272 110.5 229.5Q68 187 68 130Q68 88 95.5 63.5Q123 39 175 39Q231 39 281.5 67Q332 95 370 131L360 73Q326 40 274.5 15.5Q223 -9 170 -9Q98 -9 58 27.5Q18 64 18 127Q18 198 63 244Q108 290 155 336Q182 361 194.5 378.5Q207 396 213 421H262Q254 387 237.5 361.5Q221 336 190 307Z" glyph-name="questiondown.cap" horiz-adv-x="415" /><glyph d="M169 418 204 614H249L214 418ZM73 418 108 614H153L118 418Z" glyph-name="quotedbl" horiz-adv-x="221" unicode="&quot;" /><glyph d="M92 -98 162 0Q150 3 142.5 12.5Q135 22 135 35Q135 51 146 62Q157 73 173 73Q189 73 199.5 62Q210 51 210 33Q210 21 205 10.5Q200 0 193 -10L130 -98ZM-31 -98 39 0Q27 3 19.5 12.5Q12 22 12 35Q12 51 23 62Q34 73 50 73Q66 73 76.5 62Q87 51 87 33Q87 21 82 10.5Q77 0 70 -10L7 -98Z" glyph-name="quotedblbase" horiz-adv-x="264" unicode="&#8222;" /><glyph d="M192 614 122 516Q134 513 141.5 503.5Q149 494 149 481Q149 465 138 454Q127 443 111 443Q95 443 84.5 454Q74 465 74 483Q74 495 79 505.5Q84 516 91 526L154 614ZM315 614 245 516Q257 513 264.5 503.5Q272 494 272 481Q272 465 261 454Q250 443 234 443Q218 443 207.5 454Q197 465 197 483Q197 495 202 505.5Q207 516 214 526L277 614Z" glyph-name="quotedblleft" horiz-adv-x="264" unicode="&#8220;" /><glyph d="M180 452 250 550Q238 553 230.5 562.5Q223 572 223 585Q223 601 234 612Q245 623 261 623Q277 623 287.5 612Q298 601 298 583Q298 571 293 560.5Q288 550 281 540L218 452ZM57 452 127 550Q115 553 107.5 562.5Q100 572 100 585Q100 601 111 612Q122 623 138 623Q154 623 164.5 612Q175 601 175 583Q175 571 170 560.5Q165 550 158 540L95 452Z" glyph-name="quotedblright" horiz-adv-x="264" unicode="&#8221;" /><glyph d="M192 614 122 516Q134 513 141.5 503.5Q149 494 149 481Q149 465 138 454Q127 443 111 443Q95 443 84.5 454Q74 465 74 483Q74 495 79 505.5Q84 516 91 526L154 614Z" glyph-name="quoteleft" horiz-adv-x="141" unicode="&#8216;" /><glyph d="M57 452 127 550Q115 553 107.5 562.5Q100 572 100 585Q100 601 111 612Q122 623 138 623Q154 623 164.5 612Q175 601 175 583Q175 571 170 560.5Q165 550 158 540L95 452Z" glyph-name="quoteright" horiz-adv-x="141" unicode="&#8217;" /><glyph d="M-31 -98 39 0Q27 3 19.5 12.5Q12 22 12 35Q12 51 23 62Q34 73 50 73Q66 73 76.5 62Q87 51 87 33Q87 21 82 10.5Q77 0 70 -10L7 -98Z" glyph-name="quotesinglbase" horiz-adv-x="126" unicode="&#8218;" /><glyph d="M73 418 108 614H154L119 418Z" glyph-name="quotesingle" horiz-adv-x="126" unicode="'" /><glyph d="M319 447 311 398Q303 402 293 404Q283 406 271 406Q231 406 195 379.5Q159 353 137 310L82 0H33L111 444H160L148 373Q169 406 205 429.5Q241 453 282 453Q295 453 304 451Q313 449 319 447Z" glyph-name="r" horiz-adv-x="301" unicode="r" /><glyph d="M249 520H199L305 650H358ZM319 447 311 398Q303 402 293 404Q283 406 271 406Q231 406 195 379.5Q159 353 137 310L82 0H33L111 444H160L148 373Q169 406 205 429.5Q241 453 282 453Q295 453 304 451Q313 449 319 447Z" glyph-name="racute" horiz-adv-x="301" unicode="&#341;" /><glyph d="M206 515 137 645H180L231 549L317 645H365L250 515ZM319 447 311 398Q303 402 293 404Q283 406 271 406Q231 406 195 379.5Q159 353 137 310L82 0H33L111 444H160L148 373Q169 406 205 429.5Q241 453 282 453Q295 453 304 451Q313 449 319 447Z" glyph-name="rcaron" horiz-adv-x="301" unicode="&#345;" /><glyph d="M-14 -183 34 -116Q23 -114 15.5 -105Q8 -96 8 -83Q8 -67 18.5 -57Q29 -47 44 -47Q59 -47 69.5 -57.5Q80 -68 80 -84Q80 -96 75 -106Q70 -116 63 -125L22 -183ZM319 447 311 398Q303 402 293 404Q283 406 271 406Q231 406 195 379.5Q159 353 137 310L82 0H33L111 444H160L148 373Q169 406 205 429.5Q241 453 282 453Q295 453 304 451Q313 449 319 447Z" glyph-name="rcommaaccent" horiz-adv-x="301" unicode="&#343;" /><glyph d="M423 440Q423 361 369.5 309Q316 257 242 257Q168 257 114.5 309Q61 361 61 440Q61 519 114.5 571Q168 623 242 623Q316 623 369.5 571Q423 519 423 440ZM395 440Q395 507 350 551Q305 595 242 595Q179 595 134 551Q89 507 89 440Q89 372 134 328Q179 284 242 284Q305 284 350 328Q395 372 395 440ZM255 450Q270 450 278.5 458.5Q287 467 287 479Q287 491 278.5 499.5Q270 508 255 508H209V450ZM238 420H209V346H175V538H253Q284 538 302 522.5Q320 507 320 479Q320 456 307 441Q294 426 274 422L327 346H289Z" glyph-name="registered" horiz-adv-x="418" unicode="&#174;" /><glyph d="M246 499Q212 499 190 521.5Q168 544 168 576Q168 610 192 635.5Q216 661 252 661Q286 661 308 638.5Q330 616 330 584Q330 550 306 524.5Q282 499 246 499ZM247 531Q267 531 282.5 545.5Q298 560 298 582Q298 602 284 615.5Q270 629 251 629Q231 629 215.5 614.5Q200 600 200 578Q200 558 214 544.5Q228 531 247 531Z" glyph-name="ring" horiz-adv-x="500" unicode="&#730;" /><glyph d="M246 648Q213 648 190.5 670Q168 692 168 724Q168 758 192 783.5Q216 809 253 809Q286 809 308.5 787Q331 765 331 732Q331 698 306.5 673Q282 648 246 648ZM247 679Q267 679 283 693.5Q299 708 299 730Q299 750 285 764Q271 778 251 778Q232 778 216 763Q200 748 200 726Q200 707 214 693Q228 679 247 679Z" glyph-name="ring.cap" horiz-adv-x="500" /><glyph d="M13 41 23 95Q48 68 83.5 51.5Q119 35 159 35Q205 35 240.5 56.5Q276 78 276 126Q276 148 260.5 163.5Q245 179 217 190L147 219Q110 235 86 257.5Q62 280 62 320Q62 378 108 415.5Q154 453 220 453Q260 453 293 440.5Q326 428 353 406L344 355Q320 379 288.5 394Q257 409 220 409Q177 409 144.5 387Q112 365 112 325Q112 300 128.5 285.5Q145 271 175 259L249 229Q285 215 305 190.5Q325 166 325 131Q325 69 276.5 30Q228 -9 159 -9Q112 -9 73.5 6.5Q35 22 13 41Z" glyph-name="s" horiz-adv-x="381" unicode="s" /><glyph d="M270 520H220L326 650H379ZM13 41 23 95Q48 68 83.5 51.5Q119 35 159 35Q205 35 240.5 56.5Q276 78 276 126Q276 148 260.5 163.5Q245 179 217 190L147 219Q110 235 86 257.5Q62 280 62 320Q62 378 108 415.5Q154 453 220 453Q260 453 293 440.5Q326 428 353 406L344 355Q320 379 288.5 394Q257 409 220 409Q177 409 144.5 387Q112 365 112 325Q112 300 128.5 285.5Q145 271 175 259L249 229Q285 215 305 190.5Q325 166 325 131Q325 69 276.5 30Q228 -9 159 -9Q112 -9 73.5 6.5Q35 22 13 41Z" glyph-name="sacute" horiz-adv-x="381" unicode="&#347;" /><glyph d="M228 515 159 645H202L253 549L339 645H387L272 515ZM13 41 23 95Q48 68 83.5 51.5Q119 35 159 35Q205 35 240.5 56.5Q276 78 276 126Q276 148 260.5 163.5Q245 179 217 190L147 219Q110 235 86 257.5Q62 280 62 320Q62 378 108 415.5Q154 453 220 453Q260 453 293 440.5Q326 428 353 406L344 355Q320 379 288.5 394Q257 409 220 409Q177 409 144.5 387Q112 365 112 325Q112 300 128.5 285.5Q145 271 175 259L249 229Q285 215 305 190.5Q325 166 325 131Q325 69 276.5 30Q228 -9 159 -9Q112 -9 73.5 6.5Q35 22 13 41Z" glyph-name="scaron" horiz-adv-x="381" unicode="&#353;" /><glyph d="M13 41 23 95Q48 68 83.5 51.5Q119 35 159 35Q205 35 240.5 56.5Q276 78 276 126Q276 148 260.5 163.5Q245 179 217 190L147 219Q110 235 86 257.5Q62 280 62 320Q62 378 108 415.5Q154 453 220 453Q260 453 293 440.5Q326 428 353 406L344 355Q320 379 288.5 394Q257 409 220 409Q177 409 144.5 387Q112 365 112 325Q112 300 128.5 285.5Q145 271 175 259L249 229Q285 215 305 190.5Q325 166 325 131Q325 69 276.5 30Q228 -9 159 -9Q112 -9 73.5 6.5Q35 22 13 41ZM86 -175H37L119 -48H169Z" glyph-name="scedilla" horiz-adv-x="381" unicode="&#351;" /><glyph d="M289 644 358 513H315L264 610L178 513H130L245 644ZM13 41 23 95Q48 68 83.5 51.5Q119 35 159 35Q205 35 240.5 56.5Q276 78 276 126Q276 148 260.5 163.5Q245 179 217 190L147 219Q110 235 86 257.5Q62 280 62 320Q62 378 108 415.5Q154 453 220 453Q260 453 293 440.5Q326 428 353 406L344 355Q320 379 288.5 394Q257 409 220 409Q177 409 144.5 387Q112 365 112 325Q112 300 128.5 285.5Q145 271 175 259L249 229Q285 215 305 190.5Q325 166 325 131Q325 69 276.5 30Q228 -9 159 -9Q112 -9 73.5 6.5Q35 22 13 41Z" glyph-name="scircumflex" horiz-adv-x="381" unicode="&#349;" /><glyph d="M77 -183 125 -116Q114 -114 106.5 -105Q99 -96 99 -83Q99 -67 109.5 -57Q120 -47 135 -47Q150 -47 160.5 -57.5Q171 -68 171 -84Q171 -96 166 -106Q161 -116 154 -125L113 -183ZM13 41 23 95Q48 68 83.5 51.5Q119 35 159 35Q205 35 240.5 56.5Q276 78 276 126Q276 148 260.5 163.5Q245 179 217 190L147 219Q110 235 86 257.5Q62 280 62 320Q62 378 108 415.5Q154 453 220 453Q260 453 293 440.5Q326 428 353 406L344 355Q320 379 288.5 394Q257 409 220 409Q177 409 144.5 387Q112 365 112 325Q112 300 128.5 285.5Q145 271 175 259L249 229Q285 215 305 190.5Q325 166 325 131Q325 69 276.5 30Q228 -9 159 -9Q112 -9 73.5 6.5Q35 22 13 41Z" glyph-name="scommaaccent" horiz-adv-x="381" unicode="&#537;" /><glyph d="M317 280 163 399Q138 392 114.5 369.5Q91 347 91 311Q91 288 107.5 271Q124 254 146 237L300 117Q325 125 349 147Q373 169 373 205Q373 229 356 246Q339 263 317 280ZM140 432Q134 442 130.5 454Q127 466 127 482Q127 546 176.5 584.5Q226 623 289 623Q331 623 364 611Q397 599 421 580L412 529Q388 551 359 565Q330 579 289 579Q246 579 211 555.5Q176 532 176 485Q176 463 188 447Q200 431 225 412L346 319Q376 296 398 272Q420 248 420 210Q420 167 392 134Q364 101 323 85Q329 75 332.5 63Q336 51 336 35Q336 -29 286.5 -67.5Q237 -106 174 -106Q133 -106 99.5 -94.5Q66 -83 43 -64L52 -12Q75 -34 104 -48.5Q133 -63 174 -63Q218 -63 252.5 -39Q287 -15 287 31Q287 54 275 70Q263 86 238 105L117 198Q87 221 65.5 245Q44 269 44 307Q44 350 72 383Q100 416 140 432Z" glyph-name="section" horiz-adv-x="448" unicode="&#167;" /><glyph d="M-43 -101 30 1Q19 3 11.5 12.5Q4 22 4 35Q4 51 14.5 62Q25 73 41 73Q57 73 68 62Q79 51 79 34Q79 21 73.5 10.5Q68 0 61 -9L-5 -101ZM62 364Q62 380 73 391.5Q84 403 99 403Q115 403 126 391.5Q137 380 137 364Q137 348 126 337Q115 326 99 326Q84 326 73 337Q62 348 62 364Z" glyph-name="semicolon" horiz-adv-x="141" unicode=";" /><glyph d="M12 -101 85 1Q73 3 65.5 12.5Q58 22 58 35Q58 51 69 62Q80 73 96 73Q112 73 122.5 62Q133 51 133 34Q133 21 127.5 10.5Q122 0 115 -9L50 -101ZM110 364Q110 380 121 391.5Q132 403 148 403Q163 403 174 391.5Q185 380 185 364Q185 348 174 337Q163 326 148 326Q132 326 121 337Q110 348 110 364Z" glyph-name="semicolon.tab" horiz-adv-x="260" /><glyph d="M495 610 109 0H54L413 567H83L92 614H495Z" glyph-name="seven" horiz-adv-x="438" unicode="7" /><glyph d="M528 610 143 0H88L447 567H95L104 614H528Z" glyph-name="seven.lt" horiz-adv-x="520" /><glyph d="M232 -9Q150 -9 95 45.5Q40 100 40 181Q40 224 56 266Q72 308 115 362L320 614H378L189 382Q203 391 222.5 396.5Q242 402 262 402Q346 402 398.5 347.5Q451 293 451 215Q451 119 385 55Q319 -9 232 -9ZM232 37Q299 37 351 87.5Q403 138 403 213Q403 275 362 316.5Q321 358 259 358Q191 358 139.5 308Q88 258 88 183Q88 121 128.5 79Q169 37 232 37Z" glyph-name="six" horiz-adv-x="479" unicode="6" /><glyph d="M240 -9Q158 -9 103 45.5Q48 100 48 181Q48 224 64.5 266Q81 308 124 362L328 614H387L197 382Q212 391 231.5 396.5Q251 402 271 402Q354 402 406.5 347.5Q459 293 459 215Q459 119 393 55Q327 -9 240 -9ZM240 37Q308 37 359.5 87.5Q411 138 411 213Q411 275 370.5 316.5Q330 358 267 358Q200 358 148 308Q96 258 96 183Q96 121 137 79Q178 37 240 37Z" glyph-name="six.lt" horiz-adv-x="520" /><glyph d="M-48 -84 328 650H379L2 -84Z" glyph-name="slash" horiz-adv-x="306" unicode="/" /><glyph d="M-40 -64 336 670H389L12 -64Z" glyph-name="slash.cap" horiz-adv-x="306" /><glyph glyph-name="space" horiz-adv-x="221" unicode=" " /><glyph glyph-name="space.tab" horiz-adv-x="260" /><glyph d="M407 45 400 0H-7L1 45H66Q79 62 89.5 82.5Q100 103 106 136L131 281H42L49 323H139L154 409Q171 508 228 565.5Q285 623 373 623Q410 623 440.5 615Q471 607 487 594L479 546Q460 559 433.5 568Q407 577 373 577Q299 577 257 531Q215 485 202 407L187 323H356L349 281H180L154 136Q150 110 138.5 85Q127 60 114 45Z" glyph-name="sterling" horiz-adv-x="457" unicode="&#163;" /><glyph d="M437 45 429 0H23L30 45H95Q109 62 119 82.5Q129 103 135 136L160 281H72L79 323H168L183 409Q201 508 258 565.5Q315 623 402 623Q440 623 470 615Q500 607 516 594L509 546Q490 559 463 568Q436 577 402 577Q328 577 286.5 531Q245 485 232 407L217 323H386L378 281H210L184 136Q180 110 168.5 85Q157 60 144 45Z" glyph-name="sterling.lt" horiz-adv-x="520" /><glyph d="M197 401 127 0H78L148 401H53L61 444H156L176 558H226L205 444H310L303 401Z" glyph-name="t" horiz-adv-x="292" unicode="t" /><glyph d="M253 241H169L127 0H78L120 241H45L52 282H127L148 401H53L61 444H156L176 558H226L205 444H310L303 401H197L176 282H260Z" glyph-name="tbar" horiz-adv-x="292" unicode="&#359;" /><glyph d="M307 500H265L343 660H386ZM197 401 127 0H78L148 401H53L61 444H156L176 558H226L205 444H310L303 401Z" glyph-name="tcaron" horiz-adv-x="292" unicode="&#357;" /><glyph d="M31 -183 79 -116Q68 -114 60.5 -105Q53 -96 53 -83Q53 -67 63.5 -57Q74 -47 89 -47Q104 -47 114.5 -57.5Q125 -68 125 -84Q125 -96 120 -106Q115 -116 108 -125L67 -183ZM197 401 127 0H78L148 401H53L61 444H156L176 558H226L205 444H310L303 401Z" glyph-name="tcommaaccent" horiz-adv-x="292" unicode="&#355;" /><glyph d="M138 317 104 125Q119 82 150 59.5Q181 37 223 37Q313 37 359 111Q405 185 405 267Q405 329 375.5 368Q346 407 287 407Q243 407 205.5 383.5Q168 360 138 317ZM94 68 52 -170H3L147 650H196L148 376Q172 406 210.5 429.5Q249 453 294 453Q377 453 416 399Q455 345 455 267Q455 162 392 76.5Q329 -9 224 -9Q175 -9 141 15Q107 39 94 68Z" glyph-name="thorn" horiz-adv-x="493" unicode="&#254;" /><glyph d="M97 567 105 614H466V610L246 368Q311 362 354.5 320Q398 278 398 209Q398 119 330 55Q262 -9 169 -9Q112 -9 71 7.5Q30 24 5 46L15 103Q42 70 83 53.5Q124 37 169 37Q241 37 295.5 84.5Q350 132 350 209Q350 267 306 300.5Q262 334 193 334Q187 334 179.5 334Q172 334 165 333V337L373 567Z" glyph-name="three" horiz-adv-x="436" unicode="3" /><glyph d="M122 567 131 614H503V610L274 368Q340 362 386.5 320Q433 278 433 210Q433 120 362.5 56Q292 -8 196 -8Q138 -8 96 8.5Q54 25 28 47L38 104Q66 71 108 54.5Q150 38 196 38Q271 38 328 85Q385 132 385 210Q385 267 339 300.5Q293 334 221 334Q214 334 206.5 334Q199 334 192 333V337L410 567Z" glyph-name="three.lt" horiz-adv-x="520" /><glyph d="M635 614 110 0H63L587 614ZM113 575 120 614H320V612L211 481Q242 476 262.5 453.5Q283 431 283 396Q283 346 245.5 312.5Q208 279 156 279Q124 279 102 288Q80 297 65 309L73 353Q88 336 110 326.5Q132 317 156 317Q190 317 216 338Q242 359 242 396Q242 424 219.5 440Q197 456 163 456H149V458L248 575ZM546 330 407 112H506L519 188H558L545 112H600L593 75H539L526 0H486L499 75H340L341 78L502 330Z" glyph-name="threequarters" horiz-adv-x="670" unicode="&#190;" /><glyph d="M94 575 101 614H301V612L192 481Q223 476 244 453.5Q265 431 265 396Q265 346 227 312.5Q189 279 137 279Q106 279 83.5 288Q61 297 47 309L55 353Q69 336 91.5 326.5Q114 317 137 317Q171 317 197 338Q223 359 223 396Q223 424 201 440Q179 456 144 456H131V458L230 575Z" glyph-name="threesuperior" horiz-adv-x="279" unicode="&#179;" /><glyph d="M347 625H383Q374 578 352 549Q330 520 297 520Q261 520 243.5 552.5Q226 585 201 585Q183 585 170.5 568Q158 551 153 523H117Q125 570 147.5 599Q170 628 203 628Q240 628 256.5 595.5Q273 563 299 563Q317 563 329.5 580Q342 597 347 625Z" glyph-name="tilde" horiz-adv-x="500" unicode="&#732;" /><glyph d="M347 770H383Q374 722 352 693.5Q330 665 297 665Q261 665 243.5 697.5Q226 730 201 730Q183 730 170.5 713Q158 696 153 668H117Q125 715 147.5 744Q170 773 203 773Q240 773 256.5 740.5Q273 708 299 708Q317 708 329.5 725Q342 742 347 770Z" glyph-name="tilde.cap" horiz-adv-x="500" /><glyph d="M73 581 78 614H289L283 581H198L158 360H119L159 581ZM422 420H418L360 547L326 360H288L333 614H368L429 478L538 614H574L529 360H490L524 547Z" glyph-name="trademark" horiz-adv-x="559" unicode="&#8482;" /><glyph d="M89 47H379L371 0H-17V4L223 237Q270 283 326.5 342Q383 401 383 476Q383 520 356 547.5Q329 575 272 575Q220 575 170.5 549Q121 523 83 489L93 547Q129 579 179 601Q229 623 282 623Q357 623 395 583.5Q433 544 433 481Q433 400 378.5 337Q324 274 259 211Z" glyph-name="two" horiz-adv-x="437" unicode="2" /><glyph d="M107 47H425L417 0H1V4L247 237Q296 283 354 342Q412 401 412 476Q412 520 384 547.5Q356 575 297 575Q244 575 193.5 549Q143 523 104 489L114 547Q151 579 202 601Q253 623 307 623Q384 623 423 583.5Q462 544 462 481Q462 400 405 337Q348 274 282 211Z" glyph-name="two.lt" horiz-adv-x="520" /><glyph d="M121 324H259L252 285H36V287L161 414Q185 437 213 467Q241 497 241 533Q241 553 228.5 566Q216 579 189 579Q161 579 134 564Q107 549 86 533L95 579Q114 596 142 608Q170 620 201 620Q242 620 264 598Q286 576 286 542Q286 499 258 465.5Q230 432 197 398Z" glyph-name="twosuperior" horiz-adv-x="282" unicode="&#178;" /><glyph d="M447 444 369 0H320L332 71Q307 40 266.5 15.5Q226 -9 177 -9Q115 -9 82 25.5Q49 60 49 115Q49 123 50 132Q51 141 52 150L103 444H153L102 156Q101 148 100 139Q99 130 99 123Q99 84 120.5 60Q142 36 188 36Q237 36 279 65Q321 94 343 133L398 444Z" glyph-name="u" horiz-adv-x="481" unicode="u" /><glyph d="M309 520H259L365 650H418ZM447 444 369 0H320L332 71Q307 40 266.5 15.5Q226 -9 177 -9Q115 -9 82 25.5Q49 60 49 115Q49 123 50 132Q51 141 52 150L103 444H153L102 156Q101 148 100 139Q99 130 99 123Q99 84 120.5 60Q142 36 188 36Q237 36 279 65Q321 94 343 133L398 444Z" glyph-name="uacute" horiz-adv-x="481" unicode="&#250;" /><glyph d="M447 444 369 0H320L332 71Q307 40 266.5 15.5Q226 -9 177 -9Q115 -9 82 25.5Q49 60 49 115Q49 123 50 132Q51 141 52 150L103 444H153L102 156Q101 148 100 139Q99 130 99 123Q99 84 120.5 60Q142 36 188 36Q237 36 279 65Q321 94 343 133L398 444ZM287 506Q246 506 219.5 537Q193 568 203 626H243Q236 587 249 565Q262 543 290 543Q318 543 339 565Q360 587 367 626H407Q396 568 363.5 537Q331 506 287 506Z" glyph-name="ubreve" horiz-adv-x="481" unicode="&#365;" /><glyph d="M328 644 397 513H354L303 610L217 513H169L284 644ZM447 444 369 0H320L332 71Q307 40 266.5 15.5Q226 -9 177 -9Q115 -9 82 25.5Q49 60 49 115Q49 123 50 132Q51 141 52 150L103 444H153L102 156Q101 148 100 139Q99 130 99 123Q99 84 120.5 60Q142 36 188 36Q237 36 279 65Q321 94 343 133L398 444Z" glyph-name="ucircumflex" horiz-adv-x="481" unicode="&#251;" /><glyph d="M327 571Q327 584 336.5 593.5Q346 603 359 603Q372 603 382 593.5Q392 584 392 571Q392 557 382 547.5Q372 538 359 538Q346 538 336.5 547.5Q327 557 327 571ZM202 571Q202 584 211.5 593.5Q221 603 235 603Q248 603 257.5 593.5Q267 584 267 571Q267 557 257.5 547.5Q248 538 235 538Q221 538 211.5 547.5Q202 557 202 571ZM447 444 369 0H320L332 71Q307 40 266.5 15.5Q226 -9 177 -9Q115 -9 82 25.5Q49 60 49 115Q49 123 50 132Q51 141 52 150L103 444H153L102 156Q101 148 100 139Q99 130 99 123Q99 84 120.5 60Q142 36 188 36Q237 36 279 65Q321 94 343 133L398 444Z" glyph-name="udieresis" horiz-adv-x="481" unicode="&#252;" /><glyph d="M447 444 369 0H320L332 71Q307 40 266.5 15.5Q226 -9 177 -9Q115 -9 82 25.5Q49 60 49 115Q49 123 50 132Q51 141 52 150L103 444H153L102 156Q101 148 100 139Q99 130 99 123Q99 84 120.5 60Q142 36 188 36Q237 36 279 65Q321 94 343 133L398 444ZM311 520H267L203 650H251Z" glyph-name="ugrave" horiz-adv-x="481" unicode="&#249;" /><glyph d="M447 444 369 0H320L332 71Q307 40 266.5 15.5Q226 -9 177 -9Q115 -9 82 25.5Q49 60 49 115Q49 123 50 132Q51 141 52 150L103 444H153L102 156Q101 148 100 139Q99 130 99 123Q99 84 120.5 60Q142 36 188 36Q237 36 279 65Q321 94 343 133L398 444ZM359 520H313L410 650H456ZM248 520H202L298 650H345Z" glyph-name="uhungarumlaut" horiz-adv-x="481" unicode="&#369;" /><glyph d="M447 444 369 0H320L332 71Q307 40 266.5 15.5Q226 -9 177 -9Q115 -9 82 25.5Q49 60 49 115Q49 123 50 132Q51 141 52 150L103 444H153L102 156Q101 148 100 139Q99 130 99 123Q99 84 120.5 60Q142 36 188 36Q237 36 279 65Q321 94 343 133L398 444ZM190 537 198 578H399L392 537Z" glyph-name="umacron" horiz-adv-x="481" unicode="&#363;" /><glyph d="M-24 -87 -16 -42H296L288 -87Z" glyph-name="underscore" horiz-adv-x="352" unicode="_" /><glyph d="M244 615 185 285H143L192 564L98 520L106 565L217 615ZM607 614 83 0H35L560 614ZM418 291 425 330H625V328L516 197Q547 192 568 169.5Q589 147 589 112Q589 62 551 28.5Q513 -5 461 -5Q430 -5 407.5 4Q385 13 371 24L379 69Q393 52 415.5 42.5Q438 33 461 33Q495 33 521 54Q547 75 547 112Q547 140 525 156Q503 172 468 172H455V174L554 291Z" glyph-name="uni2153" horiz-adv-x="665" unicode="&#8531;" /><glyph d="M142 324H280L272 285H56V287L181 414Q205 437 233.5 467Q262 497 262 533Q262 554 249.5 566.5Q237 579 210 579Q182 579 154.5 564Q127 549 107 533L115 579Q135 596 163 608Q191 620 221 620Q262 620 284 598Q306 576 306 542Q306 500 278.5 466Q251 432 217 398ZM661 614 136 0H89L613 614ZM472 291 479 330H679V328L570 197Q601 192 621.5 169.5Q642 147 642 112Q642 62 604.5 28.5Q567 -5 515 -5Q484 -5 461.5 4Q439 13 424 24L432 69Q447 52 469 42.5Q491 33 515 33Q549 33 575 54Q601 75 601 112Q601 140 579 156Q557 172 522 172H508V174L607 291Z" glyph-name="uni2154" horiz-adv-x="719" unicode="&#8532;" /><glyph d="M241 615 183 285H140L190 564L96 520L103 565L214 615ZM605 614 80 0H32L557 614ZM465 -5Q425 -5 390.5 16.5Q356 38 356 84Q356 119 380 144.5Q404 170 436 177Q418 186 407 202.5Q396 219 396 241Q396 281 428 308Q460 335 506 335Q544 335 573 313.5Q602 292 602 254Q602 224 583 201Q564 178 536 170Q558 160 572.5 141.5Q587 123 587 97Q587 50 549.5 22.5Q512 -5 465 -5ZM561 251Q561 273 544 286.5Q527 300 505 300Q476 300 457 282.5Q438 265 438 239Q438 217 454.5 204.5Q471 192 493 192Q522 192 541.5 209Q561 226 561 251ZM399 87Q399 62 418 46.5Q437 31 465 31Q498 31 521.5 50Q545 69 545 99Q545 125 525 140.5Q505 156 477 156Q445 156 422 136.5Q399 117 399 87Z" glyph-name="uni215B" horiz-adv-x="660" unicode="&#8539;" /><glyph d="M634 614 109 0H62L586 614ZM113 575 120 614H320V612L211 481Q242 476 262.5 453.5Q283 431 283 396Q283 346 245.5 312.5Q208 279 156 279Q124 279 102 288Q80 297 65 309L73 353Q88 336 110 326.5Q132 317 156 317Q190 317 216 338Q242 359 242 396Q242 424 219.5 440Q197 456 163 456H149V458L248 575ZM491 -5Q452 -5 417.5 16.5Q383 38 383 84Q383 119 406.5 144.5Q430 170 463 177Q445 186 434 202.5Q423 219 423 241Q423 281 454.5 308Q486 335 532 335Q571 335 600 313.5Q629 292 629 254Q629 224 610 201Q591 178 563 170Q585 160 599.5 141.5Q614 123 614 97Q614 50 576.5 22.5Q539 -5 491 -5ZM587 251Q587 273 570.5 286.5Q554 300 531 300Q503 300 483.5 282.5Q464 265 464 239Q464 217 481 204.5Q498 192 520 192Q549 192 568 209Q587 226 587 251ZM426 87Q426 62 445 46.5Q464 31 492 31Q525 31 548 50Q571 69 571 99Q571 125 551.5 140.5Q532 156 504 156Q472 156 449 136.5Q426 117 426 87Z" glyph-name="uni215C" horiz-adv-x="687" unicode="&#8540;" /><glyph d="M636 614 111 0H63L588 614ZM285 400Q285 349 247 314Q209 279 155 279Q124 279 101.5 287.5Q79 296 66 308L74 352Q88 335 109.5 326Q131 317 156 317Q190 317 217 338Q244 359 244 396Q244 424 225 438.5Q206 453 176 453Q153 453 135.5 449Q118 445 102 438L133 614H307L300 575H162L147 485Q154 487 165 489Q176 491 187 491Q230 491 257.5 467Q285 443 285 400ZM493 -5Q453 -5 419 16.5Q385 38 385 84Q385 119 408.5 144.5Q432 170 464 177Q446 186 435.5 202.5Q425 219 425 241Q425 281 456.5 308Q488 335 534 335Q573 335 602 313.5Q631 292 631 254Q631 224 611.5 201Q592 178 565 170Q587 160 601.5 141.5Q616 123 616 97Q616 50 578.5 22.5Q541 -5 493 -5ZM589 251Q589 273 572.5 286.5Q556 300 533 300Q505 300 485.5 282.5Q466 265 466 239Q466 217 482.5 204.5Q499 192 521 192Q550 192 569.5 209Q589 226 589 251ZM427 87Q427 62 446.5 46.5Q466 31 493 31Q527 31 550 50Q573 69 573 99Q573 125 553.5 140.5Q534 156 506 156Q474 156 450.5 136.5Q427 117 427 87Z" glyph-name="uni215D" horiz-adv-x="689" unicode="&#8541;" /><glyph d="M339 612 132 284H87L271 575H107L114 614H340ZM588 614 64 0H16L541 614ZM446 -5Q406 -5 371.5 16.5Q337 38 337 84Q337 119 361 144.5Q385 170 417 177Q399 186 388.5 202.5Q378 219 378 241Q378 281 409.5 308Q441 335 487 335Q525 335 554 313.5Q583 292 583 254Q583 224 564 201Q545 178 517 170Q539 160 553.5 141.5Q568 123 568 97Q568 50 530.5 22.5Q493 -5 446 -5ZM542 251Q542 273 525 286.5Q508 300 486 300Q457 300 438 282.5Q419 265 419 239Q419 217 435.5 204.5Q452 192 474 192Q503 192 522.5 209Q542 226 542 251ZM380 87Q380 62 399.5 46.5Q419 31 446 31Q480 31 503 50Q526 69 526 99Q526 125 506.5 140.5Q487 156 459 156Q427 156 403.5 136.5Q380 117 380 87Z" glyph-name="uni215E" horiz-adv-x="641" unicode="&#8542;" /><glyph d="M320 0 332 71Q307 40 266.5 15.5Q226 -9 177 -9Q115 -9 82 25.5Q49 60 49 115Q49 123 50 132Q51 141 52 150L103 444H153L102 156Q101 148 100 139Q99 130 99 123Q99 84 120.5 60Q142 36 188 36Q237 36 279 65Q321 94 343 133L398 444H447L369 0Q331 -54 314.5 -79Q298 -104 298 -126Q298 -136 303.5 -140.5Q309 -145 317 -145Q328 -145 337 -141.5Q346 -138 357 -131L351 -167Q340 -174 329 -178Q318 -182 305 -182Q283 -182 270 -170Q257 -158 257 -134Q257 -103 277.5 -73Q298 -43 329 0Z" glyph-name="uogonek" horiz-adv-x="481" unicode="&#371;" /><glyph d="M296 499Q262 499 240 521.5Q218 544 218 576Q218 610 242 635.5Q266 661 302 661Q336 661 358 638.5Q380 616 380 584Q380 550 356 524.5Q332 499 296 499ZM297 531Q317 531 332.5 545.5Q348 560 348 582Q348 602 334 615.5Q320 629 301 629Q281 629 265.5 614.5Q250 600 250 578Q250 558 264 544.5Q278 531 297 531ZM447 444 369 0H320L332 71Q307 40 266.5 15.5Q226 -9 177 -9Q115 -9 82 25.5Q49 60 49 115Q49 123 50 132Q51 141 52 150L103 444H153L102 156Q101 148 100 139Q99 130 99 123Q99 84 120.5 60Q142 36 188 36Q237 36 279 65Q321 94 343 133L398 444Z" glyph-name="uring" horiz-adv-x="481" unicode="&#367;" /><glyph d="M447 444 369 0H320L332 71Q307 40 266.5 15.5Q226 -9 177 -9Q115 -9 82 25.5Q49 60 49 115Q49 123 50 132Q51 141 52 150L103 444H153L102 156Q101 148 100 139Q99 130 99 123Q99 84 120.5 60Q142 36 188 36Q237 36 279 65Q321 94 343 133L398 444ZM394 625H430Q421 578 399 549Q377 520 344 520Q308 520 290.5 552.5Q273 585 248 585Q230 585 217.5 568Q205 551 200 523H164Q172 570 194.5 599Q217 628 250 628Q287 628 303.5 595.5Q320 563 346 563Q364 563 376.5 580Q389 597 394 625Z" glyph-name="utilde" horiz-adv-x="481" unicode="&#361;" /><glyph d="M186 0H143L57 444H107L177 68L401 444H454Z" glyph-name="v" horiz-adv-x="432" unicode="v" /><glyph d="M360 444 390 78 575 444H625L398 0H356L324 367L141 0H98L57 444H103L138 78L320 444Z" glyph-name="w" horiz-adv-x="604" unicode="w" /><glyph d="M375 520H325L431 650H484ZM360 444 390 78 575 444H625L398 0H356L324 367L141 0H98L57 444H103L138 78L320 444Z" glyph-name="wacute" horiz-adv-x="604" unicode="&#7811;" /><glyph d="M393 644 462 513H419L368 610L282 513H234L349 644ZM360 444 390 78 575 444H625L398 0H356L324 367L141 0H98L57 444H103L138 78L320 444Z" glyph-name="wcircumflex" horiz-adv-x="604" unicode="&#373;" /><glyph d="M393 571Q393 584 402.5 593.5Q412 603 425 603Q438 603 448 593.5Q458 584 458 571Q458 557 448 547.5Q438 538 425 538Q412 538 402.5 547.5Q393 557 393 571ZM268 571Q268 584 277.5 593.5Q287 603 301 603Q314 603 323.5 593.5Q333 584 333 571Q333 557 323.5 547.5Q314 538 301 538Q287 538 277.5 547.5Q268 557 268 571ZM360 444 390 78 575 444H625L398 0H356L324 367L141 0H98L57 444H103L138 78L320 444Z" glyph-name="wdieresis" horiz-adv-x="604" unicode="&#7813;" /><glyph d="M360 444 390 78 575 444H625L398 0H356L324 367L141 0H98L57 444H103L138 78L320 444ZM376 520H332L268 650H316Z" glyph-name="wgrave" horiz-adv-x="604" unicode="&#7809;" /><glyph d="M445 444 244 225 364 0H313L212 191L38 0H-19L191 228L77 444H128L224 262L389 444Z" glyph-name="x" horiz-adv-x="431" unicode="x" /><glyph d="M84 -170H33L141 10L57 444H107L177 69L400 444H454Z" glyph-name="y" horiz-adv-x="432" unicode="y" /><glyph d="M84 -170H33L141 10L57 444H107L177 69L400 444H454ZM283 520H233L339 650H392Z" glyph-name="yacute" horiz-adv-x="432" unicode="&#253;" /><glyph d="M84 -170H33L141 10L57 444H107L177 69L400 444H454ZM301 644 370 513H327L276 610L190 513H142L257 644Z" glyph-name="ycircumflex" horiz-adv-x="432" unicode="&#375;" /><glyph d="M84 -170H33L141 10L57 444H107L177 69L400 444H454ZM301 571Q301 584 310.5 593.5Q320 603 333 603Q346 603 356 593.5Q366 584 366 571Q366 557 356 547.5Q346 538 333 538Q320 538 310.5 547.5Q301 557 301 571ZM176 571Q176 584 185.5 593.5Q195 603 209 603Q222 603 231.5 593.5Q241 584 241 571Q241 557 231.5 547.5Q222 538 209 538Q195 538 185.5 547.5Q176 557 176 571Z" glyph-name="ydieresis" horiz-adv-x="432" unicode="&#255;" /><glyph d="M427 144H270L245 0H195L220 144H62L69 185H227L241 262H83L90 303H235L99 614H151L274 326L500 614H557L310 303H455L448 262H290L276 185H434Z" glyph-name="yen" horiz-adv-x="516" unicode="&#165;" /><glyph d="M412 144H254L229 0H180L205 144H47L54 185H211L225 262H68L75 303H219L86 614H137L259 325L483 614H539L295 303H439L433 262H275L261 185H419Z" glyph-name="yen.lt" horiz-adv-x="520" /><glyph d="M84 -170H33L141 10L57 444H107L177 69L400 444H454ZM284 520H240L176 650H224Z" glyph-name="ygrave" horiz-adv-x="432" unicode="&#7923;" /><glyph d="M339 43 332 0H-10V4L338 401H88L96 444H427V440L79 43Z" glyph-name="z" horiz-adv-x="416" unicode="z" /><glyph d="M295 520H245L351 650H404ZM339 43 332 0H-10V4L338 401H88L96 444H427V440L79 43Z" glyph-name="zacute" horiz-adv-x="416" unicode="&#378;" /><glyph d="M252 515 183 645H226L277 549L363 645H411L296 515ZM339 43 332 0H-10V4L338 401H88L96 444H427V440L79 43Z" glyph-name="zcaron" horiz-adv-x="416" unicode="&#382;" /><glyph d="M339 43 332 0H-10V4L338 401H88L96 444H427V440L79 43ZM318 579Q318 565 308 555Q298 545 284 545Q270 545 260 555Q250 565 250 579Q250 592 260 602.5Q270 613 284 613Q298 613 308 602.5Q318 592 318 579Z" glyph-name="zdotaccent" horiz-adv-x="416" unicode="&#380;" /><glyph d="M245 -9Q157 -9 106 56Q55 121 55 230Q55 387 132 505Q209 623 325 623Q412 623 463 558Q514 493 514 384Q514 227 437.5 109Q361 -9 245 -9ZM244 38Q341 38 402.5 144Q464 250 464 384Q464 471 427.5 523.5Q391 576 325 576Q228 576 166.5 470Q105 364 105 230Q105 143 141.5 90.5Q178 38 244 38Z" glyph-name="zero" horiz-adv-x="535" unicode="0" /><glyph d="M230 -9Q142 -9 91.5 56Q41 121 41 230Q41 387 117.5 505Q194 623 310 623Q398 623 448.5 558Q499 493 499 384Q499 227 422.5 109Q346 -9 230 -9ZM229 38Q326 38 387.5 144Q449 250 449 384Q449 471 413 523.5Q377 576 311 576Q214 576 152.5 470Q91 364 91 230Q91 143 127 90.5Q163 38 229 38Z" glyph-name="zero.lt" horiz-adv-x="520" /></font>
</defs>
</svg>
