<?xml version="1.0" standalone="no"?><!DOCTYPE svg PUBLIC "-//W3C//DTD SVG 1.1//EN" "http://www.w3.org/Graphics/SVG/1.1/DTD/svg11.dtd" ><svg version="1.1" xmlns="http://www.w3.org/2000/svg"><defs><font horiz-adv-x="0" id="font"><font-face ascent="750" bbox="-175 -180 879 892" cap-height="614" descent="-250" font-family="Copyright Klim Type Foundry" font-stretch="normal" font-style="normal" font-weight="300" units-per-em="1000" x-height="444" /><missing-glyph horiz-adv-x="608" /><glyph d="M364 571 169 244H430ZM479 0 436 215H151L23 0H-11L357 614H385L509 0Z" glyph-name="A" horiz-adv-x="567" unicode="A" /><glyph d="M511 587 227 244H451ZM408 0 446 215H203L25 0H-11L496 614H879L873 584H541L497 331H797L792 302H492L444 30H776L771 0Z" glyph-name="AE" horiz-adv-x="865" unicode="&#198;" /><glyph d="M511 587 227 244H451ZM408 0 446 215H203L25 0H-11L496 614H879L873 584H541L497 331H797L792 302H492L444 30H776L771 0ZM696 663H661L767 780H802Z" glyph-name="AEacute" horiz-adv-x="865" unicode="&#508;" /><glyph d="M364 571 169 244H430ZM479 0 436 215H151L23 0H-11L357 614H385L509 0ZM395 663H360L466 780H501Z" glyph-name="Aacute" horiz-adv-x="567" unicode="&#193;" /><glyph d="M364 571 169 244H430ZM479 0 436 215H151L23 0H-11L357 614H385L509 0ZM383 663Q346 663 322 692.5Q298 722 308 777H335Q327 734 342 711Q357 688 385 688Q413 688 436 711Q459 734 467 777H494Q484 722 453.5 692.5Q423 663 383 663Z" glyph-name="Abreve" horiz-adv-x="567" unicode="&#258;" /><glyph d="M364 571 169 244H430ZM479 0 436 215H151L23 0H-11L357 614H385L509 0ZM412 783 482 666H453L396 758L307 666H274L386 783Z" glyph-name="Acircumflex" horiz-adv-x="567" unicode="&#194;" /><glyph d="M364 571 169 244H430ZM479 0 436 215H151L23 0H-11L357 614H385L509 0ZM422 710Q422 720 428.5 726.5Q435 733 445 733Q455 733 461.5 726.5Q468 720 468 710Q468 700 461.5 693.5Q455 687 445 687Q435 687 428.5 693.5Q422 700 422 710ZM308 710Q308 720 314.5 726.5Q321 733 331 733Q341 733 347.5 726.5Q354 720 354 710Q354 700 347.5 693.5Q341 687 331 687Q321 687 314.5 693.5Q308 700 308 710Z" glyph-name="Adieresis" horiz-adv-x="567" unicode="&#196;" /><glyph d="M364 571 169 244H430ZM479 0 436 215H151L23 0H-11L357 614H385L509 0ZM396 663H366L302 780H332Z" glyph-name="Agrave" horiz-adv-x="567" unicode="&#192;" /><glyph d="M364 571 169 244H430ZM479 0 436 215H151L23 0H-11L357 614H385L509 0ZM280 670 284 697H477L473 670Z" glyph-name="Amacron" horiz-adv-x="567" unicode="&#256;" /><glyph d="M357 614H385L509 0Q467 -60 451.5 -86.5Q436 -113 436 -135Q436 -145 441.5 -150Q447 -155 456 -155Q467 -155 476.5 -151.5Q486 -148 496 -141L491 -166Q481 -173 472 -176Q463 -179 452 -179Q435 -179 422 -168.5Q409 -158 409 -135Q409 -107 428 -77Q447 -47 480 0H479L436 215H151L23 0H-11ZM364 571 169 244H430Z" glyph-name="Aogonek" horiz-adv-x="567" unicode="&#260;" /><glyph d="M364 571 169 244H430ZM479 0 436 215H151L23 0H-11L357 614H385L509 0ZM383 647Q352 647 330.5 668Q309 689 309 720Q309 752 332 776.5Q355 801 389 801Q420 801 441.5 780Q463 759 463 728Q463 696 440 671.5Q417 647 383 647ZM384 672Q405 672 421.5 687.5Q438 703 438 726Q438 747 423.5 761.5Q409 776 388 776Q367 776 350.5 760.5Q334 745 334 722Q334 701 348.5 686.5Q363 672 384 672Z" glyph-name="Aring" horiz-adv-x="567" unicode="&#197;" /><glyph d="M428 810H393L467 892H502ZM385 643Q354 643 332.5 661.5Q311 680 311 707Q311 735 334 757Q357 779 391 779Q422 779 443.5 760.5Q465 742 465 715Q465 687 442 665Q419 643 385 643ZM386 667Q407 667 423.5 679.5Q440 692 440 713Q440 731 425.5 743Q411 755 390 755Q369 755 352.5 742.5Q336 730 336 709Q336 691 350.5 679Q365 667 386 667ZM364 571 169 244H430ZM479 0 436 215H151L23 0H-11L357 614H385L509 0Z" glyph-name="Aringacute" horiz-adv-x="567" unicode="&#506;" /><glyph d="M364 571 169 244H430ZM479 0 436 215H151L23 0H-11L357 614H385L509 0ZM490 759H516Q508 716 488 690Q468 664 437 664Q400 664 383 699Q366 734 338 734Q319 734 306 715.5Q293 697 288 667H262Q269 710 289.5 736Q310 762 341 762Q378 762 395 727Q412 692 440 692Q459 692 472 710.5Q485 729 490 759Z" glyph-name="Atilde" horiz-adv-x="567" unicode="&#195;" /><glyph d="M366 317Q414 310 443.5 275.5Q473 241 473 192Q473 102 408 51Q343 0 245 0H49L157 614H336Q419 614 460.5 579Q502 544 502 481Q502 405 457 366.5Q412 328 366 317ZM138 331H285Q368 331 419.5 368.5Q471 406 471 481Q471 532 435 558Q399 584 330 584H182ZM133 303 85 30H256Q342 30 392 75Q442 120 442 192Q442 242 407.5 272.5Q373 303 304 303Z" glyph-name="B" horiz-adv-x="513" unicode="B" /><glyph d="M454 73 447 35Q415 14 376 3Q337 -8 290 -8Q186 -8 120 67Q54 142 54 262Q54 406 141.5 514Q229 622 372 622Q430 622 471 604.5Q512 587 540 562L534 527Q501 560 461 576Q421 592 372 592Q249 592 167.5 495.5Q86 399 86 262Q86 155 143 88.5Q200 22 290 22Q335 22 374.5 33.5Q414 45 454 73Z" glyph-name="C" horiz-adv-x="531" unicode="C" /><glyph d="M454 73 447 35Q415 14 376 3Q337 -8 290 -8Q186 -8 120 67Q54 142 54 262Q54 406 141.5 514Q229 622 372 622Q430 622 471 604.5Q512 587 540 562L534 527Q501 560 461 576Q421 592 372 592Q249 592 167.5 495.5Q86 399 86 262Q86 155 143 88.5Q200 22 290 22Q335 22 374.5 33.5Q414 45 454 73ZM409 663H374L480 780H515Z" glyph-name="Cacute" horiz-adv-x="531" unicode="&#262;" /><glyph d="M454 73 447 35Q415 14 376 3Q337 -8 290 -8Q186 -8 120 67Q54 142 54 262Q54 406 141.5 514Q229 622 372 622Q430 622 471 604.5Q512 587 540 562L534 527Q501 560 461 576Q421 592 372 592Q249 592 167.5 495.5Q86 399 86 262Q86 155 143 88.5Q200 22 290 22Q335 22 374.5 33.5Q414 45 454 73ZM379 656 309 773H338L395 681L484 773H517L405 656Z" glyph-name="Ccaron" horiz-adv-x="531" unicode="&#268;" /><glyph d="M454 73 447 35Q415 14 376 3Q337 -8 290 -8Q186 -8 120 67Q54 142 54 262Q54 406 141.5 514Q229 622 372 622Q430 622 471 604.5Q512 587 540 562L534 527Q501 560 461 576Q421 592 372 592Q249 592 167.5 495.5Q86 399 86 262Q86 155 143 88.5Q200 22 290 22Q335 22 374.5 33.5Q414 45 454 73ZM210 -170H179L255 -46H286Z" glyph-name="Ccedilla" horiz-adv-x="531" unicode="&#199;" /><glyph d="M454 73 447 35Q415 14 376 3Q337 -8 290 -8Q186 -8 120 67Q54 142 54 262Q54 406 141.5 514Q229 622 372 622Q430 622 471 604.5Q512 587 540 562L534 527Q501 560 461 576Q421 592 372 592Q249 592 167.5 495.5Q86 399 86 262Q86 155 143 88.5Q200 22 290 22Q335 22 374.5 33.5Q414 45 454 73ZM425 783 495 666H466L409 758L320 666H287L399 783Z" glyph-name="Ccircumflex" horiz-adv-x="531" unicode="&#264;" /><glyph d="M454 73 447 35Q415 14 376 3Q337 -8 290 -8Q186 -8 120 67Q54 142 54 262Q54 406 141.5 514Q229 622 372 622Q430 622 471 604.5Q512 587 540 562L534 527Q501 560 461 576Q421 592 372 592Q249 592 167.5 495.5Q86 399 86 262Q86 155 143 88.5Q200 22 290 22Q335 22 374.5 33.5Q414 45 454 73ZM425 709Q425 699 418.5 692Q412 685 402 685Q392 685 385.5 692Q379 699 379 709Q379 719 385.5 726Q392 733 402 733Q412 733 418.5 726Q425 719 425 709Z" glyph-name="Cdotaccent" horiz-adv-x="531" unicode="&#266;" /><glyph d="M49 0 157 614H333Q451 614 516 544Q581 474 581 361Q581 199 475.5 99.5Q370 0 225 0ZM85 30H232Q363 30 456 122.5Q549 215 549 361Q549 462 491.5 523Q434 584 329 584H182Z" glyph-name="D" horiz-adv-x="604" unicode="D" /><glyph d="M49 0 157 614H333Q451 614 516 544Q581 474 581 361Q581 199 475.5 99.5Q370 0 225 0ZM85 30H232Q363 30 456 122.5Q549 215 549 361Q549 462 491.5 523Q434 584 329 584H182ZM342 656 272 773H301L358 681L447 773H480L368 656Z" glyph-name="Dcaron" horiz-adv-x="604" unicode="&#270;" /><glyph d="M237 0H61L114 304H54L59 332H119L169 614H345Q463 614 528 544Q593 474 593 361Q593 199 487.5 99.5Q382 0 237 0ZM97 30H244Q375 30 468 122.5Q561 215 561 361Q561 462 503.5 523Q446 584 341 584H194L150 332H285L280 304H145Z" glyph-name="Dcroat" horiz-adv-x="616" unicode="&#272;" /><glyph d="M157 614H530L524 584H182L138 331H448L443 302H133L85 30H427L422 0H49Z" glyph-name="E" horiz-adv-x="516" unicode="E" /><glyph d="M157 614H530L524 584H182L138 331H448L443 302H133L85 30H427L422 0H49ZM375 663H340L446 780H481Z" glyph-name="Eacute" horiz-adv-x="516" unicode="&#201;" /><glyph d="M157 614H530L524 584H182L138 331H448L443 302H133L85 30H427L422 0H49ZM363 663Q326 663 302 692.5Q278 722 288 777H315Q307 734 322 711Q337 688 365 688Q393 688 416 711Q439 734 447 777H474Q464 722 433.5 692.5Q403 663 363 663Z" glyph-name="Ebreve" horiz-adv-x="516" unicode="&#276;" /><glyph d="M157 614H530L524 584H182L138 331H448L443 302H133L85 30H427L422 0H49ZM346 656 276 773H305L362 681L451 773H484L372 656Z" glyph-name="Ecaron" horiz-adv-x="516" unicode="&#282;" /><glyph d="M157 614H530L524 584H182L138 331H448L443 302H133L85 30H427L422 0H49ZM392 783 462 666H433L376 758L287 666H254L366 783Z" glyph-name="Ecircumflex" horiz-adv-x="516" unicode="&#202;" /><glyph d="M157 614H530L524 584H182L138 331H448L443 302H133L85 30H427L422 0H49ZM402 710Q402 720 408.5 726.5Q415 733 425 733Q435 733 441.5 726.5Q448 720 448 710Q448 700 441.5 693.5Q435 687 425 687Q415 687 408.5 693.5Q402 700 402 710ZM288 710Q288 720 294.5 726.5Q301 733 311 733Q321 733 327.5 726.5Q334 720 334 710Q334 700 327.5 693.5Q321 687 311 687Q301 687 294.5 693.5Q288 700 288 710Z" glyph-name="Edieresis" horiz-adv-x="516" unicode="&#203;" /><glyph d="M157 614H530L524 584H182L138 331H448L443 302H133L85 30H427L422 0H49ZM391 709Q391 699 384.5 692Q378 685 368 685Q358 685 351.5 692Q345 699 345 709Q345 719 351.5 726Q358 733 368 733Q378 733 384.5 726Q391 719 391 709Z" glyph-name="Edotaccent" horiz-adv-x="516" unicode="&#278;" /><glyph d="M157 614H530L524 584H182L138 331H448L443 302H133L85 30H427L422 0H49ZM376 663H346L282 780H312Z" glyph-name="Egrave" horiz-adv-x="516" unicode="&#200;" /><glyph d="M157 614H530L524 584H182L138 331H448L443 302H133L85 30H427L422 0H49ZM265 670 269 697H462L458 670Z" glyph-name="Emacron" horiz-adv-x="516" unicode="&#274;" /><glyph d="M467 19 179 570 79 0H49L157 614H187L475 65L572 614H602L495 7Q477 -94 434 -137Q391 -180 319 -180Q278 -180 246 -165.5Q214 -151 199 -136L205 -102Q230 -126 259 -138Q288 -150 319 -150Q387 -150 419 -110Q451 -70 467 19Z" glyph-name="Eng" horiz-adv-x="611" unicode="&#330;" /><glyph d="M157 614H530L524 584H182L138 331H448L443 302H133L85 30H427L422 0H385Q343 -59 328 -86Q312 -113 312 -135Q312 -145 317.5 -150Q323 -155 332 -155Q343 -155 352.5 -151.5Q362 -148 372 -141L367 -166Q357 -173 348 -176Q339 -179 328 -179Q311 -179 298 -168.5Q285 -158 285 -135Q285 -107 304 -76Q323 -47 356 0H49Z" glyph-name="Eogonek" horiz-adv-x="516" unicode="&#280;" /><glyph d="M237 0H61L114 304H54L59 332H119L169 614H345Q463 614 528 544Q593 474 593 361Q593 199 487.5 99.5Q382 0 237 0ZM97 30H244Q375 30 468 122.5Q561 215 561 361Q561 462 503.5 523Q446 584 341 584H194L150 332H285L280 304H145Z" glyph-name="Eth" horiz-adv-x="616" unicode="&#208;" /><glyph d="M435 39Q404 15 367 3.5Q330 -8 284 -8Q197 -8 144.5 56.5Q92 121 92 234V236H28L33 263H93Q94 285 96.5 305.5Q99 326 103 346H48L52 373H110Q138 481 209.5 551.5Q281 622 382 622Q435 622 470.5 606Q506 590 528 565L521 528Q493 563 459 577.5Q425 592 382 592Q297 592 233 532Q169 472 141 373H379L368 346H134Q130 327 127.5 306Q125 285 124 263H340L328 236H123V234Q123 136 166 79Q209 22 284 22Q330 22 366 33.5Q402 45 442 77Z" glyph-name="Euro" horiz-adv-x="498" unicode="&#8364;" /><glyph d="M440 39Q409 15 372 3.5Q335 -8 289 -8Q202 -8 149.5 56.5Q97 121 97 234V236H33L38 263H98Q99 285 101.5 305.5Q104 326 108 346H53L57 373H115Q143 481 214.5 551.5Q286 622 387 622Q440 622 475.5 606Q511 590 533 565L526 528Q498 563 464 577.5Q430 592 387 592Q302 592 238 532Q174 472 146 373H384L373 346H139Q135 327 132.5 306Q130 285 129 263H345L333 236H128V234Q128 136 171 79Q214 22 289 22Q335 22 371 33.5Q407 45 447 77Z" glyph-name="Euro.lt" horiz-adv-x="520" /><glyph d="M80 0H49L157 614H499L493 584H182L138 330H434L429 301H133Z" glyph-name="F" horiz-adv-x="465" unicode="F" /><glyph d="M300 -8Q189 -8 121.5 67Q54 142 54 262Q54 406 141.5 514Q229 622 372 622Q438 622 485 600.5Q532 579 560 554L554 519Q521 552 475 572Q429 592 372 592Q249 592 167.5 495.5Q86 399 86 262Q86 155 144 88.5Q202 22 300 22Q341 22 384.5 32.5Q428 43 471 77L507 278H338L343 305H541L499 65Q450 20 397.5 6Q345 -8 300 -8Z" glyph-name="G" horiz-adv-x="582" unicode="G" /><glyph d="M300 -8Q189 -8 121.5 67Q54 142 54 262Q54 406 141.5 514Q229 622 372 622Q438 622 485 600.5Q532 579 560 554L554 519Q521 552 475 572Q429 592 372 592Q249 592 167.5 495.5Q86 399 86 262Q86 155 144 88.5Q202 22 300 22Q341 22 384.5 32.5Q428 43 471 77L507 278H338L343 305H541L499 65Q450 20 397.5 6Q345 -8 300 -8ZM402 663Q365 663 341 692.5Q317 722 327 777H354Q346 734 361 711Q376 688 404 688Q432 688 455 711Q478 734 486 777H513Q503 722 472.5 692.5Q442 663 402 663Z" glyph-name="Gbreve" horiz-adv-x="582" unicode="&#286;" /><glyph d="M300 -8Q189 -8 121.5 67Q54 142 54 262Q54 406 141.5 514Q229 622 372 622Q438 622 485 600.5Q532 579 560 554L554 519Q521 552 475 572Q429 592 372 592Q249 592 167.5 495.5Q86 399 86 262Q86 155 144 88.5Q202 22 300 22Q341 22 384.5 32.5Q428 43 471 77L507 278H338L343 305H541L499 65Q450 20 397.5 6Q345 -8 300 -8ZM431 783 501 666H472L415 758L326 666H293L405 783Z" glyph-name="Gcircumflex" horiz-adv-x="582" unicode="&#284;" /><glyph d="M300 -8Q189 -8 121.5 67Q54 142 54 262Q54 406 141.5 514Q229 622 372 622Q438 622 485 600.5Q532 579 560 554L554 519Q521 552 475 572Q429 592 372 592Q249 592 167.5 495.5Q86 399 86 262Q86 155 144 88.5Q202 22 300 22Q341 22 384.5 32.5Q428 43 471 77L507 278H338L343 305H541L499 65Q450 20 397.5 6Q345 -8 300 -8ZM215 -170 263 -99Q255 -98 249.5 -91.5Q244 -85 244 -75Q244 -64 251.5 -56Q259 -48 270 -48Q281 -48 288.5 -56Q296 -64 296 -75Q296 -84 292.5 -90.5Q289 -97 285 -104L240 -170Z" glyph-name="Gcommaaccent" horiz-adv-x="582" unicode="&#290;" /><glyph d="M300 -8Q189 -8 121.5 67Q54 142 54 262Q54 406 141.5 514Q229 622 372 622Q438 622 485 600.5Q532 579 560 554L554 519Q521 552 475 572Q429 592 372 592Q249 592 167.5 495.5Q86 399 86 262Q86 155 144 88.5Q202 22 300 22Q341 22 384.5 32.5Q428 43 471 77L507 278H338L343 305H541L499 65Q450 20 397.5 6Q345 -8 300 -8ZM431 709Q431 699 424.5 692Q418 685 408 685Q398 685 391.5 692Q385 699 385 709Q385 719 391.5 726Q398 733 408 733Q418 733 424.5 726Q431 719 431 709Z" glyph-name="Gdotaccent" horiz-adv-x="582" unicode="&#288;" /><glyph d="M608 614H639L531 0H500L553 302H133L80 0H49L157 614H188L138 332H558Z" glyph-name="H" horiz-adv-x="648" unicode="H" /><glyph d="M150 332H570L590 444H170ZM145 302 92 0H61L139 444H79L84 472H144L169 614H200L175 472H595L620 614H651L626 472H687L682 444H621L543 0H512L565 302Z" glyph-name="Hbar" horiz-adv-x="672" unicode="&#294;" /><glyph d="M608 614H639L531 0H500L553 302H133L80 0H49L157 614H188L138 332H558ZM439 783 509 666H480L423 758L334 666H301L413 783Z" glyph-name="Hcircumflex" horiz-adv-x="648" unicode="&#292;" /><glyph d="M188 614 80 0H49L157 614Z" glyph-name="I" horiz-adv-x="197" unicode="I" /><glyph d="M188 614 80 0H49L157 614ZM161 36 167 70Q192 46 221 34Q250 22 281 22Q342 22 376 56Q410 90 426 179L503 614H534L457 179Q439 78 396 35Q353 -8 281 -8Q240 -8 208 6.5Q176 21 161 36Z" glyph-name="IJ" horiz-adv-x="534" unicode="&#306;" /><glyph d="M188 614 80 0H49L157 614ZM196 663H161L267 780H302Z" glyph-name="Iacute" horiz-adv-x="197" unicode="&#205;" /><glyph d="M188 614 80 0H49L157 614ZM184 663Q147 663 123 692.5Q99 722 109 777H136Q128 734 143 711Q158 688 186 688Q214 688 237 711Q260 734 268 777H295Q285 722 254.5 692.5Q224 663 184 663Z" glyph-name="Ibreve" horiz-adv-x="197" unicode="&#300;" /><glyph d="M188 614 80 0H49L157 614ZM213 783 283 666H254L197 758L108 666H75L187 783Z" glyph-name="Icircumflex" horiz-adv-x="197" unicode="&#206;" /><glyph d="M188 614 80 0H49L157 614ZM223 710Q223 720 229.5 726.5Q236 733 246 733Q256 733 262.5 726.5Q269 720 269 710Q269 700 262.5 693.5Q256 687 246 687Q236 687 229.5 693.5Q223 700 223 710ZM109 710Q109 720 115.5 726.5Q122 733 132 733Q142 733 148.5 726.5Q155 720 155 710Q155 700 148.5 693.5Q142 687 132 687Q122 687 115.5 693.5Q109 700 109 710Z" glyph-name="Idieresis" horiz-adv-x="197" unicode="&#207;" /><glyph d="M188 614 80 0H49L157 614ZM212 709Q212 699 205.5 692Q199 685 189 685Q179 685 172.5 692Q166 699 166 709Q166 719 172.5 726Q179 733 189 733Q199 733 205.5 726Q212 719 212 709Z" glyph-name="Idotaccent" horiz-adv-x="197" unicode="&#304;" /><glyph d="M188 614 80 0H49L157 614ZM197 663H167L103 780H133Z" glyph-name="Igrave" horiz-adv-x="197" unicode="&#204;" /><glyph d="M188 614 80 0H49L157 614ZM86 670 90 697H283L279 670Z" glyph-name="Imacron" horiz-adv-x="197" unicode="&#298;" /><glyph d="M188 614 80 0Q38 -60 22.5 -86.5Q7 -113 7 -135Q7 -145 12.5 -150Q18 -155 27 -155Q38 -155 47.5 -151.5Q57 -148 67 -141L62 -166Q52 -173 43 -176Q34 -179 23 -179Q6 -179 -7 -168.5Q-20 -158 -20 -135Q-20 -107 -1 -77Q18 -47 51 0H49L157 614Z" glyph-name="Iogonek" horiz-adv-x="197" unicode="&#302;" /><glyph d="M188 614 80 0H49L157 614ZM291 759H317Q309 716 289 690Q269 664 238 664Q201 664 184 699Q167 734 139 734Q120 734 107 715.5Q94 697 89 667H63Q70 710 90.5 736Q111 762 142 762Q179 762 196 727Q213 692 241 692Q260 692 273 710.5Q286 729 291 759Z" glyph-name="Itilde" horiz-adv-x="197" unicode="&#296;" /><glyph d="M-6 36 0 70Q25 46 54 34Q83 22 114 22Q175 22 209 56Q243 90 259 179L336 614H367L290 179Q272 78 229 35Q186 -8 114 -8Q73 -8 41 6.5Q9 21 -6 36Z" glyph-name="J" horiz-adv-x="367" unicode="J" /><glyph d="M-6 36 0 70Q25 46 54 34Q83 22 114 22Q175 22 209 56Q243 90 259 179L336 614H367L290 179Q272 78 229 35Q186 -8 114 -8Q73 -8 41 6.5Q9 21 -6 36ZM394 783 464 666H435L378 758L289 666H256L368 783Z" glyph-name="Jcircumflex" horiz-adv-x="367" unicode="&#308;" /><glyph d="M188 614 138 329 520 614H566L163 315L466 0H425L133 303L80 0H49L157 614Z" glyph-name="K" horiz-adv-x="520" unicode="K" /><glyph d="M188 614 138 329 520 614H566L163 315L466 0H425L133 303L80 0H49L157 614ZM165 -170 213 -99Q205 -98 199.5 -91.5Q194 -85 194 -75Q194 -64 201.5 -56Q209 -48 220 -48Q231 -48 238.5 -56Q246 -64 246 -75Q246 -84 242.5 -90.5Q239 -97 235 -104L190 -170Z" glyph-name="Kcommaaccent" horiz-adv-x="520" unicode="&#310;" /><glyph d="M49 0 157 614H188L85 30H433L428 0Z" glyph-name="L" horiz-adv-x="502" unicode="L" /><glyph d="M49 0 157 614H188L85 30H433L428 0ZM204 663H169L275 780H310Z" glyph-name="Lacute" horiz-adv-x="502" unicode="&#313;" /><glyph d="M49 0 157 614H188L85 30H433L428 0ZM387 457H359L439 614H467Z" glyph-name="Lcaron" horiz-adv-x="502" unicode="&#317;" /><glyph d="M49 0 157 614H188L85 30H433L428 0ZM182 -170 230 -99Q222 -98 216.5 -91.5Q211 -85 211 -75Q211 -64 218.5 -56Q226 -48 237 -48Q248 -48 255.5 -56Q263 -64 263 -75Q263 -84 259.5 -90.5Q256 -97 252 -104L207 -170Z" glyph-name="Lcommaaccent" horiz-adv-x="502" unicode="&#315;" /><glyph d="M49 0 157 614H188L85 30H433L428 0ZM405 307Q405 297 398.5 290Q392 283 382 283Q372 283 365.5 290Q359 297 359 307Q359 317 365.5 324Q372 331 382 331Q392 331 398.5 324Q405 317 405 307Z" glyph-name="Ldot" horiz-adv-x="502" unicode="&#319;" /><glyph d="M440 0H61L111 285L46 262L52 292L116 315L169 614H200L149 326L308 384L302 354L144 296L97 30H445Z" glyph-name="Lslash" horiz-adv-x="514" unicode="&#321;" /><glyph d="M355 145H352L176 553L79 0H49L157 614H181L361 197L690 614H715L607 0H577L673 547Z" glyph-name="M" horiz-adv-x="724" unicode="M" /><glyph d="M602 614 494 0H477L179 570L79 0H49L157 614H187L475 65L572 614Z" glyph-name="N" horiz-adv-x="611" unicode="N" /><glyph glyph-name="NULL" horiz-adv-x="0" /><glyph d="M602 614 494 0H477L179 570L79 0H49L157 614H187L475 65L572 614ZM403 663H368L474 780H509Z" glyph-name="Nacute" horiz-adv-x="611" unicode="&#323;" /><glyph d="M602 614 494 0H477L179 570L79 0H49L157 614H187L475 65L572 614ZM374 656 304 773H333L390 681L479 773H512L400 656Z" glyph-name="Ncaron" horiz-adv-x="611" unicode="&#327;" /><glyph d="M602 614 494 0H477L179 570L79 0H49L157 614H187L475 65L572 614ZM203 -170 251 -99Q243 -98 237.5 -91.5Q232 -85 232 -75Q232 -64 239.5 -56Q247 -48 258 -48Q269 -48 276.5 -56Q284 -64 284 -75Q284 -84 280.5 -90.5Q277 -97 273 -104L228 -170Z" glyph-name="Ncommaaccent" horiz-adv-x="611" unicode="&#325;" /><glyph d="M602 614 494 0H477L179 570L79 0H49L157 614H187L475 65L572 614ZM498 759H524Q516 716 496 690Q476 664 445 664Q408 664 391 699Q374 734 346 734Q327 734 314 715.5Q301 697 296 667H270Q277 710 297.5 736Q318 762 349 762Q386 762 403 727Q420 692 448 692Q467 692 480 710.5Q493 729 498 759Z" glyph-name="Ntilde" horiz-adv-x="611" unicode="&#209;" /><glyph d="M284 -8Q185 -8 119 65Q53 138 53 258Q53 389 133.5 505.5Q214 622 360 622Q459 622 525 549Q591 476 591 356Q591 225 510.5 108.5Q430 -8 284 -8ZM284 22Q413 22 486 127Q559 232 559 356Q559 457 505 524.5Q451 592 360 592Q231 592 158 487Q85 382 85 258Q85 157 139 89.5Q193 22 284 22Z" glyph-name="O" horiz-adv-x="614" unicode="O" /><glyph d="M858 614 852 584H520L476 331H776L771 302H471L423 30H755L750 0H301Q183 0 118 70Q53 140 53 253Q53 415 158.5 514.5Q264 614 409 614ZM85 253Q85 152 142.5 91Q200 30 305 30H393L490 584H402Q271 584 178 491.5Q85 399 85 253Z" glyph-name="OE" horiz-adv-x="844" unicode="&#338;" /><glyph d="M284 -8Q185 -8 119 65Q53 138 53 258Q53 389 133.5 505.5Q214 622 360 622Q459 622 525 549Q591 476 591 356Q591 225 510.5 108.5Q430 -8 284 -8ZM284 22Q413 22 486 127Q559 232 559 356Q559 457 505 524.5Q451 592 360 592Q231 592 158 487Q85 382 85 258Q85 157 139 89.5Q193 22 284 22ZM400 663H365L471 780H506Z" glyph-name="Oacute" horiz-adv-x="614" unicode="&#211;" /><glyph d="M284 -8Q185 -8 119 65Q53 138 53 258Q53 389 133.5 505.5Q214 622 360 622Q459 622 525 549Q591 476 591 356Q591 225 510.5 108.5Q430 -8 284 -8ZM284 22Q413 22 486 127Q559 232 559 356Q559 457 505 524.5Q451 592 360 592Q231 592 158 487Q85 382 85 258Q85 157 139 89.5Q193 22 284 22ZM388 663Q351 663 327 692.5Q303 722 313 777H340Q332 734 347 711Q362 688 390 688Q418 688 441 711Q464 734 472 777H499Q489 722 458.5 692.5Q428 663 388 663Z" glyph-name="Obreve" horiz-adv-x="614" unicode="&#334;" /><glyph d="M284 -8Q185 -8 119 65Q53 138 53 258Q53 389 133.5 505.5Q214 622 360 622Q459 622 525 549Q591 476 591 356Q591 225 510.5 108.5Q430 -8 284 -8ZM284 22Q413 22 486 127Q559 232 559 356Q559 457 505 524.5Q451 592 360 592Q231 592 158 487Q85 382 85 258Q85 157 139 89.5Q193 22 284 22ZM417 783 487 666H458L401 758L312 666H279L391 783Z" glyph-name="Ocircumflex" horiz-adv-x="614" unicode="&#212;" /><glyph d="M284 -8Q185 -8 119 65Q53 138 53 258Q53 389 133.5 505.5Q214 622 360 622Q459 622 525 549Q591 476 591 356Q591 225 510.5 108.5Q430 -8 284 -8ZM284 22Q413 22 486 127Q559 232 559 356Q559 457 505 524.5Q451 592 360 592Q231 592 158 487Q85 382 85 258Q85 157 139 89.5Q193 22 284 22ZM427 710Q427 720 433.5 726.5Q440 733 450 733Q460 733 466.5 726.5Q473 720 473 710Q473 700 466.5 693.5Q460 687 450 687Q440 687 433.5 693.5Q427 700 427 710ZM313 710Q313 720 319.5 726.5Q326 733 336 733Q346 733 352.5 726.5Q359 720 359 710Q359 700 352.5 693.5Q346 687 336 687Q326 687 319.5 693.5Q313 700 313 710Z" glyph-name="Odieresis" horiz-adv-x="614" unicode="&#214;" /><glyph d="M284 -8Q185 -8 119 65Q53 138 53 258Q53 389 133.5 505.5Q214 622 360 622Q459 622 525 549Q591 476 591 356Q591 225 510.5 108.5Q430 -8 284 -8ZM284 22Q413 22 486 127Q559 232 559 356Q559 457 505 524.5Q451 592 360 592Q231 592 158 487Q85 382 85 258Q85 157 139 89.5Q193 22 284 22ZM401 663H371L307 780H337Z" glyph-name="Ograve" horiz-adv-x="614" unicode="&#210;" /><glyph d="M284 -8Q185 -8 119 65Q53 138 53 258Q53 389 133.5 505.5Q214 622 360 622Q459 622 525 549Q591 476 591 356Q591 225 510.5 108.5Q430 -8 284 -8ZM284 22Q413 22 486 127Q559 232 559 356Q559 457 505 524.5Q451 592 360 592Q231 592 158 487Q85 382 85 258Q85 157 139 89.5Q193 22 284 22ZM449 663H416L516 780H549ZM346 663H313L413 780H446Z" glyph-name="Ohungarumlaut" horiz-adv-x="614" unicode="&#336;" /><glyph d="M284 -8Q185 -8 119 65Q53 138 53 258Q53 389 133.5 505.5Q214 622 360 622Q459 622 525 549Q591 476 591 356Q591 225 510.5 108.5Q430 -8 284 -8ZM284 22Q413 22 486 127Q559 232 559 356Q559 457 505 524.5Q451 592 360 592Q231 592 158 487Q85 382 85 258Q85 157 139 89.5Q193 22 284 22ZM290 670 294 697H487L483 670Z" glyph-name="Omacron" horiz-adv-x="614" unicode="&#332;" /><glyph d="M90 258Q90 211 101.5 171Q113 131 134 100L509 528Q484 558 447.5 575Q411 592 365 592Q236 592 163 487Q90 382 90 258ZM289 22Q418 22 491 127Q564 232 564 356Q564 399 554.5 437Q545 475 526 505L153 78Q178 51 212.5 36.5Q247 22 289 22ZM289 -8Q243 -8 203 8.5Q163 25 133 55L69 -18L47 0L114 77Q88 111 73 157Q58 203 58 258Q58 389 138.5 505.5Q219 622 365 622Q414 622 456 603.5Q498 585 529 551L584 614L606 596L547 528Q570 495 583 451Q596 407 596 356Q596 225 515.5 108.5Q435 -8 289 -8Z" glyph-name="Oslash" horiz-adv-x="624" unicode="&#216;" /><glyph d="M90 258Q90 211 101.5 171Q113 131 134 100L509 528Q484 558 447.5 575Q411 592 365 592Q236 592 163 487Q90 382 90 258ZM289 22Q418 22 491 127Q564 232 564 356Q564 399 554.5 437Q545 475 526 505L153 78Q178 51 212.5 36.5Q247 22 289 22ZM289 -8Q243 -8 203 8.5Q163 25 133 55L69 -18L47 0L114 77Q88 111 73 157Q58 203 58 258Q58 389 138.5 505.5Q219 622 365 622Q414 622 456 603.5Q498 585 529 551L584 614L606 596L547 528Q570 495 583 451Q596 407 596 356Q596 225 515.5 108.5Q435 -8 289 -8ZM405 663H370L476 780H511Z" glyph-name="Oslashacute" horiz-adv-x="624" unicode="&#510;" /><glyph d="M284 -8Q185 -8 119 65Q53 138 53 258Q53 389 133.5 505.5Q214 622 360 622Q459 622 525 549Q591 476 591 356Q591 225 510.5 108.5Q430 -8 284 -8ZM284 22Q413 22 486 127Q559 232 559 356Q559 457 505 524.5Q451 592 360 592Q231 592 158 487Q85 382 85 258Q85 157 139 89.5Q193 22 284 22ZM495 759H521Q513 716 493 690Q473 664 442 664Q405 664 388 699Q371 734 343 734Q324 734 311 715.5Q298 697 293 667H267Q274 710 294.5 736Q315 762 346 762Q383 762 400 727Q417 692 445 692Q464 692 477 710.5Q490 729 495 759Z" glyph-name="Otilde" horiz-adv-x="614" unicode="&#213;" /><glyph d="M314 279H129L80 0H49L157 614H371Q447 614 490 578Q533 542 533 473Q533 378 471 328.5Q409 279 314 279ZM183 584 134 309H318Q401 309 451.5 350.5Q502 392 502 473Q502 526 467 555Q432 584 364 584Z" glyph-name="P" horiz-adv-x="523" unicode="P" /><glyph d="M467 -25 433 33Q402 14 365.5 3Q329 -8 288 -8Q189 -8 121.5 66.5Q54 141 54 263Q54 393 133.5 507.5Q213 622 357 622Q456 622 523.5 547.5Q591 473 591 351Q591 266 556 183.5Q521 101 456 50L491 -10ZM288 22Q325 22 357.5 32Q390 42 418 59L374 134L398 148L441 75Q498 122 528.5 197.5Q559 273 559 351Q559 456 503 524Q447 592 357 592Q227 592 156.5 487.5Q86 383 86 263Q86 158 142 90Q198 22 288 22Z" glyph-name="Q" horiz-adv-x="614" unicode="Q" /><glyph d="M182 584 134 309H311Q395 309 445 352Q495 395 495 472Q495 526 457 555Q419 584 351 584ZM49 0 157 614H359Q433 614 479.5 577.5Q526 541 526 472Q526 387 472.5 337.5Q419 288 337 281L475 0H443L304 280H129L80 0Z" glyph-name="R" horiz-adv-x="541" unicode="R" /><glyph d="M182 584 134 309H311Q395 309 445 352Q495 395 495 472Q495 526 457 555Q419 584 351 584ZM49 0 157 614H359Q433 614 479.5 577.5Q526 541 526 472Q526 387 472.5 337.5Q419 288 337 281L475 0H443L304 280H129L80 0ZM365 663H330L436 780H471Z" glyph-name="Racute" horiz-adv-x="541" unicode="&#340;" /><glyph d="M182 584 134 309H311Q395 309 445 352Q495 395 495 472Q495 526 457 555Q419 584 351 584ZM49 0 157 614H359Q433 614 479.5 577.5Q526 541 526 472Q526 387 472.5 337.5Q419 288 337 281L475 0H443L304 280H129L80 0ZM336 656 266 773H295L352 681L441 773H474L362 656Z" glyph-name="Rcaron" horiz-adv-x="541" unicode="&#344;" /><glyph d="M182 584 134 309H311Q395 309 445 352Q495 395 495 472Q495 526 457 555Q419 584 351 584ZM49 0 157 614H359Q433 614 479.5 577.5Q526 541 526 472Q526 387 472.5 337.5Q419 288 337 281L475 0H443L304 280H129L80 0ZM165 -170 213 -99Q205 -98 199.5 -91.5Q194 -85 194 -75Q194 -64 201.5 -56Q209 -48 220 -48Q231 -48 238.5 -56Q246 -64 246 -75Q246 -84 242.5 -90.5Q239 -97 235 -104L190 -170Z" glyph-name="Rcommaaccent" horiz-adv-x="541" unicode="&#342;" /><glyph d="M16 57 23 95Q60 53 102.5 37.5Q145 22 194 22Q276 22 326.5 64Q377 106 377 173Q377 210 353 234Q329 258 279 282L195 322Q160 338 124 367.5Q88 397 88 451Q88 539 154.5 580.5Q221 622 294 622Q340 622 382.5 608.5Q425 595 453 570L446 533Q417 563 379 577.5Q341 592 294 592Q226 592 172.5 557.5Q119 523 119 451Q119 414 146.5 390Q174 366 217 346L303 305Q356 280 382 248.5Q408 217 408 173Q408 92 345.5 42Q283 -8 194 -8Q132 -8 86.5 10.5Q41 29 16 57Z" glyph-name="S" horiz-adv-x="464" unicode="S" /><glyph d="M16 57 23 95Q60 53 102.5 37.5Q145 22 194 22Q276 22 326.5 64Q377 106 377 173Q377 210 353 234Q329 258 279 282L195 322Q160 338 124 367.5Q88 397 88 451Q88 539 154.5 580.5Q221 622 294 622Q340 622 382.5 608.5Q425 595 453 570L446 533Q417 563 379 577.5Q341 592 294 592Q226 592 172.5 557.5Q119 523 119 451Q119 414 146.5 390Q174 366 217 346L303 305Q356 280 382 248.5Q408 217 408 173Q408 92 345.5 42Q283 -8 194 -8Q132 -8 86.5 10.5Q41 29 16 57ZM331 663H296L402 780H437Z" glyph-name="Sacute" horiz-adv-x="464" unicode="&#346;" /><glyph d="M16 57 23 95Q60 53 102.5 37.5Q145 22 194 22Q276 22 326.5 64Q377 106 377 173Q377 210 353 234Q329 258 279 282L195 322Q160 338 124 367.5Q88 397 88 451Q88 539 154.5 580.5Q221 622 294 622Q340 622 382.5 608.5Q425 595 453 570L446 533Q417 563 379 577.5Q341 592 294 592Q226 592 172.5 557.5Q119 523 119 451Q119 414 146.5 390Q174 366 217 346L303 305Q356 280 382 248.5Q408 217 408 173Q408 92 345.5 42Q283 -8 194 -8Q132 -8 86.5 10.5Q41 29 16 57ZM302 656 232 773H261L318 681L407 773H440L328 656Z" glyph-name="Scaron" horiz-adv-x="464" unicode="&#352;" /><glyph d="M16 57 23 95Q60 53 102.5 37.5Q145 22 194 22Q276 22 326.5 64Q377 106 377 173Q377 210 353 234Q329 258 279 282L195 322Q160 338 124 367.5Q88 397 88 451Q88 539 154.5 580.5Q221 622 294 622Q340 622 382.5 608.5Q425 595 453 570L446 533Q417 563 379 577.5Q341 592 294 592Q226 592 172.5 557.5Q119 523 119 451Q119 414 146.5 390Q174 366 217 346L303 305Q356 280 382 248.5Q408 217 408 173Q408 92 345.5 42Q283 -8 194 -8Q132 -8 86.5 10.5Q41 29 16 57ZM133 -170H102L178 -46H209Z" glyph-name="Scedilla" horiz-adv-x="464" unicode="&#350;" /><glyph d="M16 57 23 95Q60 53 102.5 37.5Q145 22 194 22Q276 22 326.5 64Q377 106 377 173Q377 210 353 234Q329 258 279 282L195 322Q160 338 124 367.5Q88 397 88 451Q88 539 154.5 580.5Q221 622 294 622Q340 622 382.5 608.5Q425 595 453 570L446 533Q417 563 379 577.5Q341 592 294 592Q226 592 172.5 557.5Q119 523 119 451Q119 414 146.5 390Q174 366 217 346L303 305Q356 280 382 248.5Q408 217 408 173Q408 92 345.5 42Q283 -8 194 -8Q132 -8 86.5 10.5Q41 29 16 57ZM348 783 418 666H389L332 758L243 666H210L322 783Z" glyph-name="Scircumflex" horiz-adv-x="464" unicode="&#348;" /><glyph d="M16 57 23 95Q60 53 102.5 37.5Q145 22 194 22Q276 22 326.5 64Q377 106 377 173Q377 210 353 234Q329 258 279 282L195 322Q160 338 124 367.5Q88 397 88 451Q88 539 154.5 580.5Q221 622 294 622Q340 622 382.5 608.5Q425 595 453 570L446 533Q417 563 379 577.5Q341 592 294 592Q226 592 172.5 557.5Q119 523 119 451Q119 414 146.5 390Q174 366 217 346L303 305Q356 280 382 248.5Q408 217 408 173Q408 92 345.5 42Q283 -8 194 -8Q132 -8 86.5 10.5Q41 29 16 57ZM131 -170 179 -99Q171 -98 165.5 -91.5Q160 -85 160 -75Q160 -64 167.5 -56Q175 -48 186 -48Q197 -48 204.5 -56Q212 -64 212 -75Q212 -84 208.5 -90.5Q205 -97 201 -104L156 -170Z" glyph-name="Scommaaccent" horiz-adv-x="464" unicode="&#536;" /><glyph d="M95 584 101 614H597L591 584H358L256 0H225L327 584Z" glyph-name="T" horiz-adv-x="558" unicode="T" /><glyph d="M431 304H309L256 0H225L278 304H160L165 332H283L327 584H95L101 614H597L591 584H358L314 332H436Z" glyph-name="Tbar" horiz-adv-x="558" unicode="&#358;" /><glyph d="M95 584 101 614H597L591 584H358L256 0H225L327 584ZM345 656 275 773H304L361 681L450 773H483L371 656Z" glyph-name="Tcaron" horiz-adv-x="558" unicode="&#356;" /><glyph d="M95 584 101 614H597L591 584H358L256 0H225L327 584ZM174 -170 222 -99Q214 -98 208.5 -91.5Q203 -85 203 -75Q203 -64 210.5 -56Q218 -48 229 -48Q240 -48 247.5 -56Q255 -64 255 -75Q255 -84 251.5 -90.5Q248 -97 244 -104L199 -170Z" glyph-name="Tcommaaccent" horiz-adv-x="558" unicode="&#354;" /><glyph d="M291 147H106L80 0H49L157 614H188L165 482H348Q424 482 467 446Q510 410 510 341Q510 246 448 196.5Q386 147 291 147ZM160 452 111 177H295Q378 177 428.5 218.5Q479 260 479 341Q479 394 444 423Q409 452 341 452Z" glyph-name="Thorn" horiz-adv-x="523" unicode="&#222;" /><glyph d="M277 -8Q190 -8 130 41.5Q70 91 70 187Q70 200 71.5 213.5Q73 227 75 241L141 614H172L107 246Q105 232 103.5 218.5Q102 205 102 192Q102 105 153.5 63Q205 21 277 21Q364 21 425.5 76.5Q487 132 507 246L572 614H603L537 241Q515 115 445 53.5Q375 -8 277 -8Z" glyph-name="U" horiz-adv-x="604" unicode="U" /><glyph d="M277 -8Q190 -8 130 41.5Q70 91 70 187Q70 200 71.5 213.5Q73 227 75 241L141 614H172L107 246Q105 232 103.5 218.5Q102 205 102 192Q102 105 153.5 63Q205 21 277 21Q364 21 425.5 76.5Q487 132 507 246L572 614H603L537 241Q515 115 445 53.5Q375 -8 277 -8ZM394 663H359L465 780H500Z" glyph-name="Uacute" horiz-adv-x="604" unicode="&#218;" /><glyph d="M277 -8Q190 -8 130 41.5Q70 91 70 187Q70 200 71.5 213.5Q73 227 75 241L141 614H172L107 246Q105 232 103.5 218.5Q102 205 102 192Q102 105 153.5 63Q205 21 277 21Q364 21 425.5 76.5Q487 132 507 246L572 614H603L537 241Q515 115 445 53.5Q375 -8 277 -8ZM382 663Q345 663 321 692.5Q297 722 307 777H334Q326 734 341 711Q356 688 384 688Q412 688 435 711Q458 734 466 777H493Q483 722 452.5 692.5Q422 663 382 663Z" glyph-name="Ubreve" horiz-adv-x="604" unicode="&#364;" /><glyph d="M277 -8Q190 -8 130 41.5Q70 91 70 187Q70 200 71.5 213.5Q73 227 75 241L141 614H172L107 246Q105 232 103.5 218.5Q102 205 102 192Q102 105 153.5 63Q205 21 277 21Q364 21 425.5 76.5Q487 132 507 246L572 614H603L537 241Q515 115 445 53.5Q375 -8 277 -8ZM411 783 481 666H452L395 758L306 666H273L385 783Z" glyph-name="Ucircumflex" horiz-adv-x="604" unicode="&#219;" /><glyph d="M277 -8Q190 -8 130 41.5Q70 91 70 187Q70 200 71.5 213.5Q73 227 75 241L141 614H172L107 246Q105 232 103.5 218.5Q102 205 102 192Q102 105 153.5 63Q205 21 277 21Q364 21 425.5 76.5Q487 132 507 246L572 614H603L537 241Q515 115 445 53.5Q375 -8 277 -8ZM421 710Q421 720 427.5 726.5Q434 733 444 733Q454 733 460.5 726.5Q467 720 467 710Q467 700 460.5 693.5Q454 687 444 687Q434 687 427.5 693.5Q421 700 421 710ZM307 710Q307 720 313.5 726.5Q320 733 330 733Q340 733 346.5 726.5Q353 720 353 710Q353 700 346.5 693.5Q340 687 330 687Q320 687 313.5 693.5Q307 700 307 710Z" glyph-name="Udieresis" horiz-adv-x="604" unicode="&#220;" /><glyph d="M277 -8Q190 -8 130 41.5Q70 91 70 187Q70 200 71.5 213.5Q73 227 75 241L141 614H172L107 246Q105 232 103.5 218.5Q102 205 102 192Q102 105 153.5 63Q205 21 277 21Q364 21 425.5 76.5Q487 132 507 246L572 614H603L537 241Q515 115 445 53.5Q375 -8 277 -8ZM395 663H365L301 780H331Z" glyph-name="Ugrave" horiz-adv-x="604" unicode="&#217;" /><glyph d="M277 -8Q190 -8 130 41.5Q70 91 70 187Q70 200 71.5 213.5Q73 227 75 241L141 614H172L107 246Q105 232 103.5 218.5Q102 205 102 192Q102 105 153.5 63Q205 21 277 21Q364 21 425.5 76.5Q487 132 507 246L572 614H603L537 241Q515 115 445 53.5Q375 -8 277 -8ZM434 663H401L501 780H534ZM331 663H298L398 780H431Z" glyph-name="Uhungarumlaut" horiz-adv-x="604" unicode="&#368;" /><glyph d="M277 -8Q190 -8 130 41.5Q70 91 70 187Q70 200 71.5 213.5Q73 227 75 241L141 614H172L107 246Q105 232 103.5 218.5Q102 205 102 192Q102 105 153.5 63Q205 21 277 21Q364 21 425.5 76.5Q487 132 507 246L572 614H603L537 241Q515 115 445 53.5Q375 -8 277 -8ZM284 670 288 697H481L477 670Z" glyph-name="Umacron" horiz-adv-x="604" unicode="&#362;" /><glyph d="M277 -8Q190 -8 130 41.5Q70 91 70 187Q70 200 71.5 213.5Q73 227 75 241L141 614H172L107 246Q105 232 103.5 218.5Q102 205 102 192Q102 105 153.5 63Q205 21 277 21Q364 21 425.5 76.5Q487 132 507 246L572 614H603L537 241Q521 154 487 107Q453 60 399 15Q356 -21 330 -61.5Q304 -102 304 -135Q304 -145 309.5 -150Q315 -155 324 -155Q335 -155 344.5 -151.5Q354 -148 364 -141L359 -166Q349 -173 340 -176Q331 -179 320 -179Q303 -179 290 -168.5Q277 -158 277 -135Q277 -107 294.5 -74Q312 -41 348 1Q332 -3 314 -5.5Q296 -8 277 -8Z" glyph-name="Uogonek" horiz-adv-x="604" unicode="&#370;" /><glyph d="M277 -8Q190 -8 130 41.5Q70 91 70 187Q70 200 71.5 213.5Q73 227 75 241L141 614H172L107 246Q105 232 103.5 218.5Q102 205 102 192Q102 105 153.5 63Q205 21 277 21Q364 21 425.5 76.5Q487 132 507 246L572 614H603L537 241Q515 115 445 53.5Q375 -8 277 -8ZM381 647Q350 647 328.5 668Q307 689 307 720Q307 752 330 776.5Q353 801 387 801Q418 801 439.5 780Q461 759 461 728Q461 696 438 671.5Q415 647 381 647ZM382 672Q403 672 419.5 687.5Q436 703 436 726Q436 747 421.5 761.5Q407 776 386 776Q365 776 348.5 760.5Q332 745 332 722Q332 701 346.5 686.5Q361 672 382 672Z" glyph-name="Uring" horiz-adv-x="604" unicode="&#366;" /><glyph d="M277 -8Q190 -8 130 41.5Q70 91 70 187Q70 200 71.5 213.5Q73 227 75 241L141 614H172L107 246Q105 232 103.5 218.5Q102 205 102 192Q102 105 153.5 63Q205 21 277 21Q364 21 425.5 76.5Q487 132 507 246L572 614H603L537 241Q515 115 445 53.5Q375 -8 277 -8ZM488 759H514Q506 716 486 690Q466 664 435 664Q398 664 381 699Q364 734 336 734Q317 734 304 715.5Q291 697 286 667H260Q267 710 287.5 736Q308 762 339 762Q376 762 393 727Q410 692 438 692Q457 692 470 710.5Q483 729 488 759Z" glyph-name="Utilde" horiz-adv-x="604" unicode="&#360;" /><glyph d="M246 0H220L98 614H129L241 47L584 614H617Z" glyph-name="V" horiz-adv-x="567" unicode="V" /><glyph d="M437 614H463L510 57L772 614H803L514 0H487L439 555L178 0H151L98 614H128L175 57Z" glyph-name="W" horiz-adv-x="753" unicode="W" /><glyph d="M437 614H463L510 57L772 614H803L514 0H487L439 555L178 0H151L98 614H128L175 57ZM474 663H439L545 780H580Z" glyph-name="Wacute" horiz-adv-x="753" unicode="&#7810;" /><glyph d="M437 614H463L510 57L772 614H803L514 0H487L439 555L178 0H151L98 614H128L175 57ZM490 783 560 666H531L474 758L385 666H352L464 783Z" glyph-name="Wcircumflex" horiz-adv-x="753" unicode="&#372;" /><glyph d="M437 614H463L510 57L772 614H803L514 0H487L439 555L178 0H151L98 614H128L175 57ZM500 710Q500 720 506.5 726.5Q513 733 523 733Q533 733 539.5 726.5Q546 720 546 710Q546 700 539.5 693.5Q533 687 523 687Q513 687 506.5 693.5Q500 700 500 710ZM386 710Q386 720 392.5 726.5Q399 733 409 733Q419 733 425.5 726.5Q432 720 432 710Q432 700 425.5 693.5Q419 687 409 687Q399 687 392.5 693.5Q386 700 386 710Z" glyph-name="Wdieresis" horiz-adv-x="753" unicode="&#7812;" /><glyph d="M437 614H463L510 57L772 614H803L514 0H487L439 555L178 0H151L98 614H128L175 57ZM474 663H444L380 780H410Z" glyph-name="Wgrave" horiz-adv-x="753" unicode="&#7808;" /><glyph d="M572 614 301 310 458 0H425L280 286L24 0H-14L267 314L114 614H147L288 338L534 614Z" glyph-name="X" horiz-adv-x="534" unicode="X" /><glyph d="M272 297 533 614H569L284 268L237 0H206L253 268L90 614H123Z" glyph-name="Y" horiz-adv-x="519" unicode="Y" /><glyph d="M276 297 537 614H573L288 268L241 0H210L257 268L94 614H127ZM359 663H324L430 780H465Z" glyph-name="Yacute" horiz-adv-x="519" unicode="&#221;" /><glyph d="M276 297 537 614H573L288 268L241 0H210L257 268L94 614H127ZM375 783 445 666H416L359 758L270 666H237L349 783Z" glyph-name="Ycircumflex" horiz-adv-x="519" unicode="&#374;" /><glyph d="M276 297 537 614H573L288 268L241 0H210L257 268L94 614H127ZM385 710Q385 720 391.5 726.5Q398 733 408 733Q418 733 424.5 726.5Q431 720 431 710Q431 700 424.5 693.5Q418 687 408 687Q398 687 391.5 693.5Q385 700 385 710ZM271 710Q271 720 277.5 726.5Q284 733 294 733Q304 733 310.5 726.5Q317 720 317 710Q317 700 310.5 693.5Q304 687 294 687Q284 687 277.5 693.5Q271 700 271 710Z" glyph-name="Ydieresis" horiz-adv-x="519" unicode="&#376;" /><glyph d="M276 297 537 614H573L288 268L241 0H210L257 268L94 614H127ZM359 663H329L265 780H295Z" glyph-name="Ygrave" horiz-adv-x="519" unicode="&#7922;" /><glyph d="M437 30 432 0H-15V4L499 584H119L125 614H560V610L47 30Z" glyph-name="Z" horiz-adv-x="509" unicode="Z" /><glyph d="M437 30 432 0H-15V4L499 584H119L125 614H560V610L47 30ZM350 663H315L421 780H456Z" glyph-name="Zacute" horiz-adv-x="509" unicode="&#377;" /><glyph d="M437 30 432 0H-15V4L499 584H119L125 614H560V610L47 30ZM321 656 251 773H280L337 681L426 773H459L347 656Z" glyph-name="Zcaron" horiz-adv-x="509" unicode="&#381;" /><glyph d="M437 30 432 0H-15V4L499 584H119L125 614H560V610L47 30ZM366 709Q366 699 359.5 692Q353 685 343 685Q333 685 326.5 692Q320 699 320 709Q320 719 326.5 726Q333 733 343 733Q353 733 359.5 726Q366 719 366 709Z" glyph-name="Zdotaccent" horiz-adv-x="509" unicode="&#379;" /><glyph glyph-name="_229" horiz-adv-x="0" /><glyph d="M303 95 315 159Q307 188 272 210.5Q237 233 188 233Q139 233 93 204.5Q47 176 47 117Q47 74 81 47.5Q115 21 162 21Q210 21 248.5 42.5Q287 64 303 95ZM322 201 342 317Q343 323 343.5 329Q344 335 344 340Q344 378 320 401Q296 424 251 424Q210 424 175 412.5Q140 401 109 382L115 416Q140 431 176 441.5Q212 452 251 452Q309 452 342 422.5Q375 393 375 343Q375 336 374 327Q373 318 372 314L317 0H287L295 48Q274 26 237.5 9.5Q201 -7 162 -7Q99 -7 58 28.5Q17 64 17 117Q17 183 69.5 222Q122 261 188 261Q238 261 273 240.5Q308 220 322 201Z" glyph-name="a" horiz-adv-x="426" unicode="a" /><glyph d="M303 95 315 159Q307 188 272 210.5Q237 233 188 233Q139 233 93 204.5Q47 176 47 117Q47 74 81 47.5Q115 21 162 21Q210 21 248.5 42.5Q287 64 303 95ZM322 201 342 317Q343 323 343.5 329Q344 335 344 340Q344 378 320 401Q296 424 251 424Q210 424 175 412.5Q140 401 109 382L115 416Q140 431 176 441.5Q212 452 251 452Q309 452 342 422.5Q375 393 375 343Q375 336 374 327Q373 318 372 314L317 0H287L295 48Q274 26 237.5 9.5Q201 -7 162 -7Q99 -7 58 28.5Q17 64 17 117Q17 183 69.5 222Q122 261 188 261Q238 261 273 240.5Q308 220 322 201ZM289 523H255L362 650H396Z" glyph-name="aacute" horiz-adv-x="426" unicode="&#225;" /><glyph d="M303 95 315 159Q307 188 272 210.5Q237 233 188 233Q139 233 93 204.5Q47 176 47 117Q47 74 81 47.5Q115 21 162 21Q210 21 248.5 42.5Q287 64 303 95ZM322 201 342 317Q343 323 343.5 329Q344 335 344 340Q344 378 320 401Q296 424 251 424Q210 424 175 412.5Q140 401 109 382L115 416Q140 431 176 441.5Q212 452 251 452Q309 452 342 422.5Q375 393 375 343Q375 336 374 327Q373 318 372 314L317 0H287L295 48Q274 26 237.5 9.5Q201 -7 162 -7Q99 -7 58 28.5Q17 64 17 117Q17 183 69.5 222Q122 261 188 261Q238 261 273 240.5Q308 220 322 201ZM273 510Q236 510 212 539.5Q188 569 198 624H225Q217 581 232 558Q247 535 275 535Q303 535 326 558Q349 581 357 624H384Q374 569 343.5 539.5Q313 510 273 510Z" glyph-name="abreve" horiz-adv-x="426" unicode="&#259;" /><glyph d="M303 95 315 159Q307 188 272 210.5Q237 233 188 233Q139 233 93 204.5Q47 176 47 117Q47 74 81 47.5Q115 21 162 21Q210 21 248.5 42.5Q287 64 303 95ZM322 201 342 317Q343 323 343.5 329Q344 335 344 340Q344 378 320 401Q296 424 251 424Q210 424 175 412.5Q140 401 109 382L115 416Q140 431 176 441.5Q212 452 251 452Q309 452 342 422.5Q375 393 375 343Q375 336 374 327Q373 318 372 314L317 0H287L295 48Q274 26 237.5 9.5Q201 -7 162 -7Q99 -7 58 28.5Q17 64 17 117Q17 183 69.5 222Q122 261 188 261Q238 261 273 240.5Q308 220 322 201ZM300 643 368 516H339L285 619L193 516H160L274 643Z" glyph-name="acircumflex" horiz-adv-x="426" unicode="&#226;" /><glyph d="M214 523H180L287 650H321Z" glyph-name="acute" horiz-adv-x="500" unicode="&#180;" /><glyph d="M215 663H180L286 780H321Z" glyph-name="acute.cap" horiz-adv-x="500" /><glyph d="M303 95 315 159Q307 188 272 210.5Q237 233 188 233Q139 233 93 204.5Q47 176 47 117Q47 74 81 47.5Q115 21 162 21Q210 21 248.5 42.5Q287 64 303 95ZM322 201 342 317Q343 323 343.5 329Q344 335 344 340Q344 378 320 401Q296 424 251 424Q210 424 175 412.5Q140 401 109 382L115 416Q140 431 176 441.5Q212 452 251 452Q309 452 342 422.5Q375 393 375 343Q375 336 374 327Q373 318 372 314L317 0H287L295 48Q274 26 237.5 9.5Q201 -7 162 -7Q99 -7 58 28.5Q17 64 17 117Q17 183 69.5 222Q122 261 188 261Q238 261 273 240.5Q308 220 322 201ZM317 570Q317 580 323.5 586.5Q330 593 340 593Q350 593 356.5 586.5Q363 580 363 570Q363 560 356.5 553.5Q350 547 340 547Q330 547 323.5 553.5Q317 560 317 570ZM203 570Q203 580 209.5 586.5Q216 593 226 593Q236 593 242.5 586.5Q249 580 249 570Q249 560 242.5 553.5Q236 547 226 547Q216 547 209.5 553.5Q203 560 203 570Z" glyph-name="adieresis" horiz-adv-x="426" unicode="&#228;" /><glyph d="M331 119Q306 70 257 31.5Q208 -7 141 -7Q84 -7 50.5 26Q17 59 17 110Q17 181 71 216.5Q125 252 204 252H333Q340 300 342.5 317.5Q345 335 345 340Q345 378 321 401Q297 424 252 424Q211 424 176 412.5Q141 401 110 382L116 416Q141 431 177 441.5Q213 452 252 452Q304 452 336.5 425Q369 398 372 347Q397 392 443 422Q489 452 544 452Q617 452 652.5 407.5Q688 363 688 288Q688 273 686.5 257Q685 241 682 225H355Q354 214 353 202Q352 190 352 179Q352 104 390 61.5Q428 19 493 19Q530 19 563 30Q596 41 627 64L620 28Q593 9 560.5 0.5Q528 -8 493 -8Q427 -8 385.5 26.5Q344 61 331 119ZM544 424Q473 424 425 373Q377 322 360 252H655Q656 262 657 271Q658 280 658 290Q658 342 632.5 383Q607 424 544 424ZM141 20Q203 20 247 56.5Q291 93 313 139L328 225H205Q142 225 94 199Q46 173 46 110Q46 70 72.5 45Q99 20 141 20Z" glyph-name="ae" horiz-adv-x="719" unicode="&#230;" /><glyph d="M331 119Q306 70 257 31.5Q208 -7 141 -7Q84 -7 50.5 26Q17 59 17 110Q17 181 71 216.5Q125 252 204 252H333Q340 300 342.5 317.5Q345 335 345 340Q345 378 321 401Q297 424 252 424Q211 424 176 412.5Q141 401 110 382L116 416Q141 431 177 441.5Q213 452 252 452Q304 452 336.5 425Q369 398 372 347Q397 392 443 422Q489 452 544 452Q617 452 652.5 407.5Q688 363 688 288Q688 273 686.5 257Q685 241 682 225H355Q354 214 353 202Q352 190 352 179Q352 104 390 61.5Q428 19 493 19Q530 19 563 30Q596 41 627 64L620 28Q593 9 560.5 0.5Q528 -8 493 -8Q427 -8 385.5 26.5Q344 61 331 119ZM544 424Q473 424 425 373Q377 322 360 252H655Q656 262 657 271Q658 280 658 290Q658 342 632.5 383Q607 424 544 424ZM141 20Q203 20 247 56.5Q291 93 313 139L328 225H205Q142 225 94 199Q46 173 46 110Q46 70 72.5 45Q99 20 141 20ZM420 523H386L493 650H527Z" glyph-name="aeacute" horiz-adv-x="719" unicode="&#509;" /><glyph d="M303 95 315 159Q307 188 272 210.5Q237 233 188 233Q139 233 93 204.5Q47 176 47 117Q47 74 81 47.5Q115 21 162 21Q210 21 248.5 42.5Q287 64 303 95ZM322 201 342 317Q343 323 343.5 329Q344 335 344 340Q344 378 320 401Q296 424 251 424Q210 424 175 412.5Q140 401 109 382L115 416Q140 431 176 441.5Q212 452 251 452Q309 452 342 422.5Q375 393 375 343Q375 336 374 327Q373 318 372 314L317 0H287L295 48Q274 26 237.5 9.5Q201 -7 162 -7Q99 -7 58 28.5Q17 64 17 117Q17 183 69.5 222Q122 261 188 261Q238 261 273 240.5Q308 220 322 201ZM291 523H262L199 650H228Z" glyph-name="agrave" horiz-adv-x="426" unicode="&#224;" /><glyph d="M303 95 315 159Q307 188 272 210.5Q237 233 188 233Q139 233 93 204.5Q47 176 47 117Q47 74 81 47.5Q115 21 162 21Q210 21 248.5 42.5Q287 64 303 95ZM322 201 342 317Q343 323 343.5 329Q344 335 344 340Q344 378 320 401Q296 424 251 424Q210 424 175 412.5Q140 401 109 382L115 416Q140 431 176 441.5Q212 452 251 452Q309 452 342 422.5Q375 393 375 343Q375 336 374 327Q373 318 372 314L317 0H287L295 48Q274 26 237.5 9.5Q201 -7 162 -7Q99 -7 58 28.5Q17 64 17 117Q17 183 69.5 222Q122 261 188 261Q238 261 273 240.5Q308 220 322 201ZM181 542 186 569H379L374 542Z" glyph-name="amacron" horiz-adv-x="426" unicode="&#257;" /><glyph d="M204 20Q260 20 306.5 40.5Q353 61 388 98L205 322Q205 322 204.5 323Q204 324 200 328Q142 313 102 265Q62 217 62 154Q62 95 102.5 57.5Q143 20 204 20ZM467 0 404 77Q366 38 315.5 15Q265 -8 205 -8Q130 -8 80.5 37Q31 82 31 154Q31 224 75 277.5Q119 331 182 351Q163 376 151.5 402.5Q140 429 140 460Q140 537 192 579.5Q244 622 311 622Q347 622 381.5 609.5Q416 597 439 578L432 544Q409 565 378.5 579.5Q348 594 311 594Q256 594 213.5 560Q171 526 171 460Q171 424 189 394.5Q207 365 233 333L406 119Q434 154 453 199Q472 244 480 294L510 293Q501 239 479 188.5Q457 138 424 98L503 0Z" glyph-name="ampersand" horiz-adv-x="555" unicode="&amp;" /><glyph d="M289 0H287L295 48Q274 26 237.5 9.5Q201 -7 162 -7Q99 -7 58 28.5Q17 64 17 117Q17 183 69.5 222Q122 261 188 261Q238 261 273 240.5Q308 220 322 201L342 317Q343 323 343.5 329Q344 335 344 340Q344 378 320 401Q296 424 251 424Q210 424 175 412.5Q140 401 109 382L115 416Q140 431 176 441.5Q212 452 251 452Q309 452 342 422.5Q375 393 375 343Q375 336 374 327Q373 318 372 314L317 0Q275 -60 259.5 -86.5Q244 -113 244 -135Q244 -145 249.5 -150Q255 -155 264 -155Q275 -155 284.5 -151.5Q294 -148 304 -141L299 -166Q289 -173 280 -176Q271 -179 260 -179Q243 -179 230 -168.5Q217 -158 217 -135Q217 -107 236.5 -77Q256 -47 289 0ZM303 95 315 159Q307 188 272 210.5Q237 233 188 233Q139 233 93 204.5Q47 176 47 117Q47 74 81 47.5Q115 21 162 21Q210 21 248.5 42.5Q287 64 303 95Z" glyph-name="aogonek" horiz-adv-x="426" unicode="&#261;" /><glyph d="M85 301 91 337Q121 363 146.5 373Q172 383 194 383Q240 383 272.5 357.5Q305 332 348 332Q370 332 397 344Q424 356 455 384L449 348Q418 321 391.5 311.5Q365 302 343 302Q297 302 265 327.5Q233 353 189 353Q167 353 141 340Q115 327 85 301ZM67 203 73 239Q103 265 129 275Q155 285 177 285Q223 285 255.5 259.5Q288 234 331 234Q353 234 380 246Q407 258 438 286L432 250Q401 223 374 213.5Q347 204 325 204Q279 204 247 229.5Q215 255 171 255Q149 255 123 242Q97 229 67 203Z" glyph-name="approxequal" horiz-adv-x="500" unicode="&#8776;" /><glyph d="M84 301 90 337Q120 363 145.5 373Q171 383 193 383Q239 383 271.5 357.5Q304 332 347 332Q369 332 396 344Q423 356 454 384L448 348Q417 321 390.5 311.5Q364 302 342 302Q296 302 264 327.5Q232 353 188 353Q166 353 140 340Q114 327 84 301ZM66 203 72 239Q102 265 128 275Q154 285 176 285Q222 285 254.5 259.5Q287 234 330 234Q352 234 379 246Q406 258 437 286L431 250Q400 223 373 213.5Q346 204 324 204Q278 204 246 229.5Q214 255 170 255Q148 255 122 242Q96 229 66 203Z" glyph-name="approxequal.lt" horiz-adv-x="520" /><glyph d="M303 95 315 159Q307 188 272 210.5Q237 233 188 233Q139 233 93 204.5Q47 176 47 117Q47 74 81 47.5Q115 21 162 21Q210 21 248.5 42.5Q287 64 303 95ZM322 201 342 317Q343 323 343.5 329Q344 335 344 340Q344 378 320 401Q296 424 251 424Q210 424 175 412.5Q140 401 109 382L115 416Q140 431 176 441.5Q212 452 251 452Q309 452 342 422.5Q375 393 375 343Q375 336 374 327Q373 318 372 314L317 0H287L295 48Q274 26 237.5 9.5Q201 -7 162 -7Q99 -7 58 28.5Q17 64 17 117Q17 183 69.5 222Q122 261 188 261Q238 261 273 240.5Q308 220 322 201ZM282 503Q251 503 229.5 524Q208 545 208 576Q208 608 231 632.5Q254 657 288 657Q319 657 340.5 636Q362 615 362 584Q362 552 339 527.5Q316 503 282 503ZM283 528Q304 528 320.5 543.5Q337 559 337 582Q337 603 322.5 617.5Q308 632 287 632Q266 632 249.5 616.5Q233 601 233 578Q233 557 247.5 542.5Q262 528 283 528Z" glyph-name="aring" horiz-adv-x="426" unicode="&#229;" /><glyph d="M319 649H284L358 731H393ZM276 482Q245 482 223.5 500.5Q202 519 202 546Q202 574 225 596Q248 618 282 618Q313 618 334.5 599.5Q356 581 356 554Q356 526 333 504Q310 482 276 482ZM277 506Q298 506 314.5 518.5Q331 531 331 552Q331 570 316.5 582Q302 594 281 594Q260 594 243.5 581.5Q227 569 227 548Q227 530 241.5 518Q256 506 277 506ZM303 95 315 159Q307 188 272 210.5Q237 233 188 233Q139 233 93 204.5Q47 176 47 117Q47 74 81 47.5Q115 21 162 21Q210 21 248.5 42.5Q287 64 303 95ZM322 201 342 317Q343 323 343.5 329Q344 335 344 340Q344 378 320 401Q296 424 251 424Q210 424 175 412.5Q140 401 109 382L115 416Q140 431 176 441.5Q212 452 251 452Q309 452 342 422.5Q375 393 375 343Q375 336 374 327Q373 318 372 314L317 0H287L295 48Q274 26 237.5 9.5Q201 -7 162 -7Q99 -7 58 28.5Q17 64 17 117Q17 183 69.5 222Q122 261 188 261Q238 261 273 240.5Q308 220 322 201Z" glyph-name="aringacute" horiz-adv-x="426" unicode="&#507;" /><glyph d="M195 614H215L292 443H259L200 573L95 443H58Z" glyph-name="asciicircum" horiz-adv-x="294" unicode="^" /><glyph d="M341 324H373Q365 278 338.5 250Q312 222 272 222Q223 222 198.5 259.5Q174 297 137 297Q111 297 93.5 277Q76 257 70 226H38Q46 272 73 300Q100 328 140 328Q189 328 212.5 290Q236 252 275 252Q301 252 318 272Q335 292 341 324Z" glyph-name="asciitilde" horiz-adv-x="397" unicode="~" /><glyph d="M198 388 174 392 193 500 90 463 82 484 186 522 101 593 116 610 200 540 219 648 243 644 224 536 327 573 335 552 231 514 316 443 301 426 217 496Z" glyph-name="asterisk" horiz-adv-x="302" unicode="*" /><glyph d="M552 379 488 115Q481 87 490.5 69Q500 51 537 51Q603 51 656 110.5Q709 170 709 284Q709 390 632.5 460Q556 530 431 530Q272 530 169.5 418.5Q67 307 67 156Q67 10 166 -58.5Q265 -127 390 -127Q452 -127 507 -113.5Q562 -100 598 -83L595 -112Q558 -128 504 -141Q450 -154 389 -154Q253 -154 145.5 -80Q38 -6 38 156Q38 319 149 438.5Q260 558 432 558Q571 558 654.5 479.5Q738 401 738 284Q738 155 673.5 89.5Q609 24 535 24Q501 24 478.5 41Q456 58 455 89Q435 66 403.5 46.5Q372 27 337 27Q277 27 248 64Q219 101 219 157Q219 240 272.5 313Q326 386 412 386Q451 386 475.5 365.5Q500 345 510 322L524 379ZM464 133 499 282Q489 315 466.5 337Q444 359 411 359Q336 359 291.5 292Q247 225 247 157Q247 108 272.5 81Q298 54 339 54Q377 54 408 76.5Q439 99 464 133Z" glyph-name="at" horiz-adv-x="774" unicode="@" /><glyph d="M566 471 502 207Q495 179 504.5 161Q514 143 551 143Q617 143 670 202.5Q723 262 723 376Q723 482 646.5 552Q570 622 445 622Q286 622 183.5 510.5Q81 399 81 248Q81 102 180 33.5Q279 -35 404 -35Q466 -35 521 -21.5Q576 -8 612 9L609 -20Q572 -36 518 -49Q464 -62 403 -62Q267 -62 159.5 12Q52 86 52 248Q52 411 163 530.5Q274 650 446 650Q585 650 668.5 571.5Q752 493 752 376Q752 247 687.5 181.5Q623 116 549 116Q515 116 492.5 133Q470 150 469 181Q449 158 417.5 138.5Q386 119 351 119Q291 119 262 156Q233 193 233 249Q233 332 286.5 405Q340 478 426 478Q465 478 489.5 457.5Q514 437 524 414L538 471ZM478 225 513 374Q503 407 480.5 429Q458 451 425 451Q350 451 305.5 384Q261 317 261 249Q261 200 286.5 173Q312 146 353 146Q391 146 422 168.5Q453 191 478 225Z" glyph-name="at.cap" horiz-adv-x="774" /><glyph d="M303 95 315 159Q307 188 272 210.5Q237 233 188 233Q139 233 93 204.5Q47 176 47 117Q47 74 81 47.5Q115 21 162 21Q210 21 248.5 42.5Q287 64 303 95ZM322 201 342 317Q343 323 343.5 329Q344 335 344 340Q344 378 320 401Q296 424 251 424Q210 424 175 412.5Q140 401 109 382L115 416Q140 431 176 441.5Q212 452 251 452Q309 452 342 422.5Q375 393 375 343Q375 336 374 327Q373 318 372 314L317 0H287L295 48Q274 26 237.5 9.5Q201 -7 162 -7Q99 -7 58 28.5Q17 64 17 117Q17 183 69.5 222Q122 261 188 261Q238 261 273 240.5Q308 220 322 201ZM381 619H407Q399 576 379 550Q359 524 328 524Q291 524 274 559Q257 594 229 594Q210 594 197 575.5Q184 557 179 527H153Q160 570 180.5 596Q201 622 232 622Q269 622 286 587Q303 552 331 552Q350 552 363 570.5Q376 589 381 619Z" glyph-name="atilde" horiz-adv-x="426" unicode="&#227;" /><glyph d="M80 79 66 0H36L150 650H180L130 367Q156 400 197 426Q238 452 286 452Q369 452 406.5 399Q444 346 444 270Q444 168 383.5 80Q323 -8 216 -8Q165 -8 129.5 19Q94 46 80 79ZM123 324 87 120Q104 71 138 46Q172 21 216 21Q315 21 364 103.5Q413 186 413 270Q413 338 381.5 380.5Q350 423 286 423Q240 423 198.5 398Q157 373 123 324Z" glyph-name="b" horiz-adv-x="485" unicode="b" /><glyph d="M118 650 237 -84H208L89 650Z" glyph-name="backslash" horiz-adv-x="287" unicode="\" /><glyph d="M119 670 238 -64H209L90 670Z" glyph-name="backslash.cap" horiz-adv-x="287" /><glyph d="M33 -84 162 650H191L62 -84Z" glyph-name="bar" horiz-adv-x="195" unicode="|" /><glyph d="M37 -64 166 670H195L66 -64Z" glyph-name="bar.cap" horiz-adv-x="195" /><glyph d="M136 218 97 -5Q93 -31 103 -43.5Q113 -56 135 -56H253L248 -84H130Q97 -84 79.5 -62Q62 -40 68 -5L107 218Q111 243 102 256Q93 269 69 269H30L35 297H74Q98 297 112 310Q126 323 130 348L169 571Q175 606 200.5 628Q226 650 259 650H377L372 622H254Q232 622 217 609.5Q202 597 198 571L159 348Q155 326 142 309Q129 292 110 282Q125 272 132.5 255.5Q140 239 136 218Z" glyph-name="braceleft" horiz-adv-x="330" unicode="{" /><glyph d="M138 233 99 10Q95 -16 105 -28.5Q115 -41 137 -41H255L250 -69H132Q99 -69 81.5 -47Q64 -25 70 10L109 233Q113 258 104 271Q95 284 71 284H32L37 312H76Q100 312 114 325Q128 338 132 363L171 586Q177 621 202.5 643Q228 665 261 665H379L374 637H256Q234 637 219 624.5Q204 612 200 586L161 363Q157 341 144 324Q131 307 112 297Q127 287 134.5 270.5Q142 254 138 233Z" glyph-name="braceleft.cap" horiz-adv-x="330" /><glyph d="M212 348 251 571Q255 597 245 609.5Q235 622 213 622H95L100 650H218Q251 650 268.5 628Q286 606 280 571L241 348Q237 323 246 310Q255 297 279 297H318L313 269H274Q250 269 236 256Q222 243 218 218L179 -5Q173 -40 147.5 -62Q122 -84 89 -84H-29L-24 -56H94Q116 -56 131 -43.5Q146 -31 150 -5L189 218Q193 240 206 257Q219 274 238 284Q223 294 215.5 310.5Q208 327 212 348Z" glyph-name="braceright" horiz-adv-x="330" unicode="}" /><glyph d="M214 363 253 586Q257 612 247 624.5Q237 637 215 637H97L102 665H220Q253 665 270.5 643Q288 621 282 586L243 363Q239 338 248 325Q257 312 281 312H320L315 284H276Q252 284 238 271Q224 258 220 233L181 10Q175 -25 149.5 -47Q124 -69 91 -69H-27L-22 -41H96Q118 -41 133 -28.5Q148 -16 152 10L191 233Q195 255 208 272Q221 289 240 299Q225 309 217.5 325.5Q210 342 214 363Z" glyph-name="braceright.cap" horiz-adv-x="330" /><glyph d="M184 622 65 -56H233L228 -84H31L160 650H357L352 622Z" glyph-name="bracketleft" horiz-adv-x="310" unicode="[" /><glyph d="M186 637 67 -41H235L230 -69H33L162 665H359L354 637Z" glyph-name="bracketleft.cap" horiz-adv-x="310" /><glyph d="M144 -56 263 622H95L100 650H297L168 -84H-29L-24 -56Z" glyph-name="bracketright" horiz-adv-x="310" unicode="]" /><glyph d="M146 -41 265 637H97L102 665H299L170 -69H-27L-22 -41Z" glyph-name="bracketright.cap" horiz-adv-x="310" /><glyph d="M241 510Q204 510 180 539.5Q156 569 166 624H193Q185 581 200 558Q215 535 243 535Q271 535 294 558Q317 581 325 624H352Q342 569 311.5 539.5Q281 510 241 510Z" glyph-name="breve" horiz-adv-x="500" unicode="&#728;" /><glyph d="M241 663Q204 663 180 692.5Q156 722 166 777H193Q185 734 200 711Q215 688 243 688Q271 688 294 711Q317 734 325 777H352Q342 722 311.5 692.5Q281 663 241 663Z" glyph-name="breve.cap" horiz-adv-x="500" /><glyph d="M289 259Q289 206 253 171.5Q217 137 166 137Q115 137 79.5 171.5Q44 206 44 259Q44 312 79.5 346.5Q115 381 166 381Q217 381 253 346.5Q289 312 289 259Z" glyph-name="bullet" horiz-adv-x="325" unicode="&#8226;" /><glyph d="M299 299Q299 246 263 211.5Q227 177 176 177Q125 177 89.5 211.5Q54 246 54 299Q54 352 89.5 386.5Q125 421 176 421Q227 421 263 386.5Q299 352 299 299Z" glyph-name="bullet.cap" horiz-adv-x="325" /><glyph d="M331 59 324 23Q302 8 272 0Q242 -8 211 -8Q131 -8 85.5 42.5Q40 93 40 177Q40 301 110.5 376.5Q181 452 277 452Q311 452 342.5 442Q374 432 393 411L387 378Q364 403 337.5 413.5Q311 424 277 424Q202 424 136.5 359Q71 294 71 177Q71 108 108.5 64Q146 20 212 20Q243 20 273 30Q303 40 331 59Z" glyph-name="c" horiz-adv-x="400" unicode="c" /><glyph d="M331 59 324 23Q302 8 272 0Q242 -8 211 -8Q131 -8 85.5 42.5Q40 93 40 177Q40 301 110.5 376.5Q181 452 277 452Q311 452 342.5 442Q374 432 393 411L387 378Q364 403 337.5 413.5Q311 424 277 424Q202 424 136.5 359Q71 294 71 177Q71 108 108.5 64Q146 20 212 20Q243 20 273 30Q303 40 331 59ZM311 523H277L384 650H418Z" glyph-name="cacute" horiz-adv-x="400" unicode="&#263;" /><glyph d="M214 518 146 645H175L229 542L321 645H354L240 518Z" glyph-name="caron" horiz-adv-x="500" unicode="&#711;" /><glyph d="M223 493H195L275 650H303Z" glyph-name="caron.Slovak" horiz-adv-x="500" /><glyph d="M216 656 146 773H175L232 681L321 773H354L242 656Z" glyph-name="caron.cap" horiz-adv-x="500" /><glyph d="M331 59 324 23Q302 8 272 0Q242 -8 211 -8Q131 -8 85.5 42.5Q40 93 40 177Q40 301 110.5 376.5Q181 452 277 452Q311 452 342.5 442Q374 432 393 411L387 378Q364 403 337.5 413.5Q311 424 277 424Q202 424 136.5 359Q71 294 71 177Q71 108 108.5 64Q146 20 212 20Q243 20 273 30Q303 40 331 59ZM284 518 216 645H245L299 542L391 645H424L310 518Z" glyph-name="ccaron" horiz-adv-x="400" unicode="&#269;" /><glyph d="M331 59 324 23Q302 8 272 0Q242 -8 211 -8Q131 -8 85.5 42.5Q40 93 40 177Q40 301 110.5 376.5Q181 452 277 452Q311 452 342.5 442Q374 432 393 411L387 378Q364 403 337.5 413.5Q311 424 277 424Q202 424 136.5 359Q71 294 71 177Q71 108 108.5 64Q146 20 212 20Q243 20 273 30Q303 40 331 59ZM138 -170H107L183 -46H214Z" glyph-name="ccedilla" horiz-adv-x="400" unicode="&#231;" /><glyph d="M331 59 324 23Q302 8 272 0Q242 -8 211 -8Q131 -8 85.5 42.5Q40 93 40 177Q40 301 110.5 376.5Q181 452 277 452Q311 452 342.5 442Q374 432 393 411L387 378Q364 403 337.5 413.5Q311 424 277 424Q202 424 136.5 359Q71 294 71 177Q71 108 108.5 64Q146 20 212 20Q243 20 273 30Q303 40 331 59ZM327 643 395 516H366L312 619L220 516H187L301 643Z" glyph-name="ccircumflex" horiz-adv-x="400" unicode="&#265;" /><glyph d="M331 59 324 23Q302 8 272 0Q242 -8 211 -8Q131 -8 85.5 42.5Q40 93 40 177Q40 301 110.5 376.5Q181 452 277 452Q311 452 342.5 442Q374 432 393 411L387 378Q364 403 337.5 413.5Q311 424 277 424Q202 424 136.5 359Q71 294 71 177Q71 108 108.5 64Q146 20 212 20Q243 20 273 30Q303 40 331 59ZM329 579Q329 569 322.5 562Q316 555 306 555Q296 555 289.5 562Q283 569 283 579Q283 589 289.5 596Q296 603 306 603Q316 603 322.5 596Q329 589 329 579Z" glyph-name="cdotaccent" horiz-adv-x="400" unicode="&#267;" /><glyph d="M226 -170H195L271 -46H302Z" glyph-name="cedilla" horiz-adv-x="500" unicode="&#184;" /><glyph d="M226 -170H195L271 -46H302Z" glyph-name="cedilla.alt" horiz-adv-x="500" /><glyph d="M217 1Q215 1 212.5 1Q210 1 207 1L193 -82H165L180 4Q117 15 81.5 63.5Q46 112 46 186Q46 302 109.5 376.5Q173 451 261 460L277 554H305L289 461Q321 460 350.5 450Q380 440 399 420L393 387Q370 412 343.5 422.5Q317 433 283 433Q208 433 142.5 368Q77 303 77 186Q77 117 114.5 73Q152 29 218 29Q249 29 278.5 38Q308 47 336 66L330 32Q308 17 278 9Q248 1 217 1Z" glyph-name="cent" horiz-adv-x="400" unicode="&#162;" /><glyph d="M254 1Q252 1 249.5 1Q247 1 244 1L230 -82H202L217 4Q154 15 118.5 63.5Q83 112 83 186Q83 302 146.5 376.5Q210 451 298 460L314 554H342L326 461Q358 460 387.5 450Q417 440 436 420L430 387Q407 412 380.5 422.5Q354 433 320 433Q245 433 179.5 368Q114 303 114 186Q114 117 151.5 73Q189 29 255 29Q286 29 315.5 38Q345 47 373 66L367 32Q345 17 315 9Q285 1 254 1Z" glyph-name="cent.lt" horiz-adv-x="520" /><glyph d="M286 643 354 516H325L271 619L179 516H146L260 643Z" glyph-name="circumflex" horiz-adv-x="500" unicode="&#710;" /><glyph d="M284 783 354 666H325L268 758L179 666H146L258 783Z" glyph-name="circumflex.cap" horiz-adv-x="500" /><glyph d="M2 25Q2 36 10 44Q18 52 28 52Q38 52 46 44Q54 36 54 25Q54 14 46 6Q38 -2 28 -2Q18 -2 10 6Q2 14 2 25ZM62 365Q62 376 70 384Q78 392 88 392Q98 392 106 384Q114 376 114 365Q114 354 106 346Q98 338 88 338Q78 338 70 346Q62 354 62 365Z" glyph-name="colon" horiz-adv-x="118" unicode=":" /><glyph d="M59 25Q59 36 67 44Q75 52 85 52Q95 52 103 44Q111 36 111 25Q111 14 103 6Q95 -2 85 -2Q75 -2 67 6Q59 14 59 25ZM119 365Q119 376 127 384Q135 392 145 392Q155 392 163 384Q171 376 171 365Q171 354 163 346Q155 338 145 338Q135 338 127 346Q119 354 119 365Z" glyph-name="colon.tab" horiz-adv-x="260" /><glyph d="M-45 -97 21 1Q13 2 7.5 8.5Q2 15 2 25Q2 36 9.5 44Q17 52 28 52Q39 52 46.5 44Q54 36 54 25Q54 16 50.5 9.5Q47 3 43 -4L-20 -97Z" glyph-name="comma" horiz-adv-x="118" unicode="," /><glyph d="M12 -97 78 1Q70 2 64.5 8.5Q59 15 59 25Q59 36 66.5 44Q74 52 85 52Q96 52 103.5 44Q111 36 111 25Q111 16 107.5 9.5Q104 3 100 -4L37 -97Z" glyph-name="comma.tab" horiz-adv-x="260" /><glyph d="M217 -170 265 -99Q257 -98 251.5 -91.5Q246 -85 246 -75Q246 -64 253.5 -56Q261 -48 272 -48Q283 -48 290.5 -56Q298 -64 298 -75Q298 -84 294.5 -90.5Q291 -97 287 -104L242 -170Z" glyph-name="commaaccent" horiz-adv-x="500" unicode="&#63171;" /><glyph d="M298 650 250 579Q258 578 263.5 571.5Q269 565 269 555Q269 544 261.5 536Q254 528 243 528Q232 528 224.5 536Q217 544 217 555Q217 564 220.5 570.5Q224 577 228 584L273 650Z" glyph-name="commaturn" horiz-adv-x="500" /><glyph d="M689 307Q689 170 596 81Q503 -8 374 -8Q245 -8 152 81Q59 170 59 307Q59 444 152 533Q245 622 374 622Q503 622 596 533Q689 444 689 307ZM663 307Q663 432 578 514Q493 596 374 596Q255 596 170 514Q85 432 85 307Q85 182 170 100Q255 18 374 18Q493 18 578 100Q663 182 663 307ZM202 309Q202 401 253 454.5Q304 508 377 508Q412 508 438 499Q464 490 483 475V440Q459 461 433.5 470Q408 479 378 479Q316 479 274.5 433Q233 387 233 309Q233 231 274.5 185Q316 139 378 139Q408 139 433.5 148Q459 157 483 178V143Q464 128 438 119Q412 110 377 110Q304 110 253 163.5Q202 217 202 309Z" glyph-name="copyright" horiz-adv-x="710" unicode="&#169;" /><glyph d="M362 120 398 324Q381 373 347 398Q313 423 269 423Q170 423 121 340.5Q72 258 72 174Q72 106 103.5 63.5Q135 21 199 21Q245 21 286.5 46Q328 71 362 120ZM405 365 455 650H485L371 0H341L355 77Q329 44 288 18Q247 -8 199 -8Q116 -8 78.5 45Q41 98 41 174Q41 276 101.5 364Q162 452 269 452Q320 452 355.5 425Q391 398 405 365Z" glyph-name="d" horiz-adv-x="485" unicode="d" /><glyph d="M311 532H212L177 330H149L184 532H85L90 558H189L205 650H233L217 558H316Z" glyph-name="dagger" horiz-adv-x="288" unicode="&#8224;" /><glyph d="M292 424H193L177 330H149L165 424H66L71 450H170L184 530H85L90 556H189L205 650H233L217 556H316L311 530H212L198 450H297Z" glyph-name="daggerdbl" horiz-adv-x="288" unicode="&#8225;" /><glyph d="M362 120 398 324Q381 373 347 398Q313 423 269 423Q170 423 121 340.5Q72 258 72 174Q72 106 103.5 63.5Q135 21 199 21Q245 21 286.5 46Q328 71 362 120ZM405 365 455 650H485L371 0H341L355 77Q329 44 288 18Q247 -8 199 -8Q116 -8 78.5 45Q41 98 41 174Q41 276 101.5 364Q162 452 269 452Q320 452 355.5 425Q391 398 405 365ZM534 493H506L586 650H614Z" glyph-name="dcaron" horiz-adv-x="485" unicode="&#271;" /><glyph d="M362 120 398 324Q381 373 347 398Q313 423 269 423Q170 423 121 340.5Q72 258 72 174Q72 106 103.5 63.5Q135 21 199 21Q245 21 286.5 46Q328 71 362 120ZM355 77Q329 44 288 18Q247 -8 199 -8Q116 -8 78.5 45Q41 98 41 174Q41 276 101.5 364Q162 452 269 452Q320 452 355.5 425Q391 398 405 365L433 527H312L317 552H438L455 650H485L468 552H518L513 527H463L371 0H341Z" glyph-name="dcroat" horiz-adv-x="485" unicode="&#273;" /><glyph d="M194 622Q236 622 264.5 594Q293 566 293 524Q293 476 261.5 442Q230 408 182 408Q140 408 111.5 436Q83 464 83 506Q83 554 114.5 588Q146 622 194 622ZM192 594Q161 594 136.5 569.5Q112 545 112 506Q112 475 132.5 455.5Q153 436 184 436Q215 436 239.5 460.5Q264 485 264 524Q264 555 243.5 574.5Q223 594 192 594Z" glyph-name="degree" horiz-adv-x="302" unicode="&#176;" /><glyph d="M284 570Q284 580 290.5 586.5Q297 593 307 593Q317 593 323.5 586.5Q330 580 330 570Q330 560 323.5 553.5Q317 547 307 547Q297 547 290.5 553.5Q284 560 284 570ZM170 570Q170 580 176.5 586.5Q183 593 193 593Q203 593 209.5 586.5Q216 580 216 570Q216 560 209.5 553.5Q203 547 193 547Q183 547 176.5 553.5Q170 560 170 570Z" glyph-name="dieresis" horiz-adv-x="500" unicode="&#168;" /><glyph d="M284 710Q284 720 290.5 726.5Q297 733 307 733Q317 733 323.5 726.5Q330 720 330 710Q330 700 323.5 693.5Q317 687 307 687Q297 687 290.5 693.5Q284 700 284 710ZM170 710Q170 720 176.5 726.5Q183 733 193 733Q203 733 209.5 726.5Q216 720 216 710Q216 700 209.5 693.5Q203 687 193 687Q183 687 176.5 693.5Q170 700 170 710Z" glyph-name="dieresis.cap" horiz-adv-x="500" /><glyph d="M257 440Q257 451 265 459Q273 467 283 467Q293 467 301 459Q309 451 309 440Q309 429 301 421Q293 413 283 413Q273 413 265 421Q257 429 257 440ZM79 278 84 307H439L434 278ZM207 146Q207 157 215 165Q223 173 233 173Q243 173 251 165Q259 157 259 146Q259 135 251 127Q243 119 233 119Q223 119 215 127Q207 135 207 146Z" glyph-name="divide" horiz-adv-x="495" unicode="&#247;" /><glyph d="M258 440Q258 451 266 459Q274 467 284 467Q294 467 302 459Q310 451 310 440Q310 429 302 421Q294 413 284 413Q274 413 266 421Q258 429 258 440ZM80 278 85 307H440L435 278ZM208 146Q208 157 216 165Q224 173 234 173Q244 173 252 165Q260 157 260 146Q260 135 252 127Q244 119 234 119Q224 119 216 127Q208 135 208 146Z" glyph-name="divide.lt" horiz-adv-x="520" /><glyph d="M174 -82H146L164 16Q111 18 72 35Q33 52 11 76L17 113Q52 74 90.5 60Q129 46 175 46Q251 46 297 83.5Q343 121 343 183Q343 217 321.5 239Q300 261 254 283L176 320Q144 335 110.5 362.5Q77 390 77 440Q77 521 138.5 559.5Q200 598 266 598L283 692H311L294 597Q330 593 361.5 581Q393 569 415 550L408 514Q381 542 346 555Q311 568 268 568Q205 568 156 537Q107 506 107 440Q107 406 132 384Q157 362 197 343L276 305Q325 282 349 253Q373 224 373 183Q373 112 320.5 66.5Q268 21 192 17Z" glyph-name="dollar" horiz-adv-x="425" unicode="$" /><glyph d="M222 -82H194L212 16Q159 18 120 35Q81 52 59 76L65 113Q100 74 138.5 60Q177 46 223 46Q299 46 345 83.5Q391 121 391 183Q391 217 369.5 239Q348 261 302 283L224 320Q192 335 158.5 362.5Q125 390 125 440Q125 521 186.5 559.5Q248 598 314 598L331 692H359L342 597Q378 593 409.5 581Q441 569 463 550L456 514Q429 542 394 555Q359 568 316 568Q253 568 204 537Q155 506 155 440Q155 406 180 384Q205 362 245 343L324 305Q373 282 397 253Q421 224 421 183Q421 112 368.5 66.5Q316 21 240 17Z" glyph-name="dollar.lt" horiz-adv-x="520" /><glyph d="M273 579Q273 569 266.5 562Q260 555 250 555Q240 555 233.5 562Q227 569 227 579Q227 589 233.5 596Q240 603 250 603Q260 603 266.5 596Q273 589 273 579Z" glyph-name="dotaccent" horiz-adv-x="500" unicode="&#729;" /><glyph d="M273 709Q273 699 266.5 692Q260 685 250 685Q240 685 233.5 692Q227 699 227 709Q227 719 233.5 726Q240 733 250 733Q260 733 266.5 726Q273 719 273 709Z" glyph-name="dotaccent.cap" horiz-adv-x="500" /><glyph d="M273 -114Q273 -124 266.5 -131Q260 -138 250 -138Q240 -138 233.5 -131Q227 -124 227 -114Q227 -104 233.5 -97Q240 -90 250 -90Q260 -90 266.5 -97Q273 -104 273 -114Z" glyph-name="dotbelow" horiz-adv-x="500" /><glyph d="M144 444 66 0H36L114 444Z" glyph-name="dotlessi" horiz-adv-x="180" unicode="&#305;" /><glyph d="M-81 -176 -76 -148Q-73 -149 -68.5 -149.5Q-64 -150 -59 -150Q-28 -150 -7 -134Q14 -118 23 -69L114 444H144L53 -73Q43 -127 15 -152.5Q-13 -178 -59 -178Q-68 -178 -73 -177.5Q-78 -177 -81 -176Z" glyph-name="dotlessj" horiz-adv-x="180" unicode="&#567;" /><glyph d="M265 424Q194 424 146 373Q98 322 81 252H376Q377 262 378 271Q379 280 379 290Q379 342 353.5 383Q328 424 265 424ZM341 28Q314 9 281.5 0.5Q249 -8 214 -8Q131 -8 86 43Q41 94 41 179Q41 274 98.5 363Q156 452 265 452Q338 452 373.5 407.5Q409 363 409 288Q409 273 407.5 257Q406 241 403 225H75Q74 214 73 202Q72 190 72 179Q72 104 110.5 61.5Q149 19 214 19Q251 19 284 30Q317 41 348 64Z" glyph-name="e" horiz-adv-x="440" unicode="e" /><glyph d="M265 424Q194 424 146 373Q98 322 81 252H376Q377 262 378 271Q379 280 379 290Q379 342 353.5 383Q328 424 265 424ZM341 28Q314 9 281.5 0.5Q249 -8 214 -8Q131 -8 86 43Q41 94 41 179Q41 274 98.5 363Q156 452 265 452Q338 452 373.5 407.5Q409 363 409 288Q409 273 407.5 257Q406 241 403 225H75Q74 214 73 202Q72 190 72 179Q72 104 110.5 61.5Q149 19 214 19Q251 19 284 30Q317 41 348 64ZM297 523H263L370 650H404Z" glyph-name="eacute" horiz-adv-x="440" unicode="&#233;" /><glyph d="M265 424Q194 424 146 373Q98 322 81 252H376Q377 262 378 271Q379 280 379 290Q379 342 353.5 383Q328 424 265 424ZM341 28Q314 9 281.5 0.5Q249 -8 214 -8Q131 -8 86 43Q41 94 41 179Q41 274 98.5 363Q156 452 265 452Q338 452 373.5 407.5Q409 363 409 288Q409 273 407.5 257Q406 241 403 225H75Q74 214 73 202Q72 190 72 179Q72 104 110.5 61.5Q149 19 214 19Q251 19 284 30Q317 41 348 64ZM281 510Q244 510 220 539.5Q196 569 206 624H233Q225 581 240 558Q255 535 283 535Q311 535 334 558Q357 581 365 624H392Q382 569 351.5 539.5Q321 510 281 510Z" glyph-name="ebreve" horiz-adv-x="440" unicode="&#277;" /><glyph d="M265 424Q194 424 146 373Q98 322 81 252H376Q377 262 378 271Q379 280 379 290Q379 342 353.5 383Q328 424 265 424ZM341 28Q314 9 281.5 0.5Q249 -8 214 -8Q131 -8 86 43Q41 94 41 179Q41 274 98.5 363Q156 452 265 452Q338 452 373.5 407.5Q409 363 409 288Q409 273 407.5 257Q406 241 403 225H75Q74 214 73 202Q72 190 72 179Q72 104 110.5 61.5Q149 19 214 19Q251 19 284 30Q317 41 348 64ZM269 518 201 645H230L284 542L376 645H409L295 518Z" glyph-name="ecaron" horiz-adv-x="440" unicode="&#283;" /><glyph d="M265 424Q194 424 146 373Q98 322 81 252H376Q377 262 378 271Q379 280 379 290Q379 342 353.5 383Q328 424 265 424ZM341 28Q314 9 281.5 0.5Q249 -8 214 -8Q131 -8 86 43Q41 94 41 179Q41 274 98.5 363Q156 452 265 452Q338 452 373.5 407.5Q409 363 409 288Q409 273 407.5 257Q406 241 403 225H75Q74 214 73 202Q72 190 72 179Q72 104 110.5 61.5Q149 19 214 19Q251 19 284 30Q317 41 348 64ZM313 643 381 516H352L298 619L206 516H173L287 643Z" glyph-name="ecircumflex" horiz-adv-x="440" unicode="&#234;" /><glyph d="M265 424Q194 424 146 373Q98 322 81 252H376Q377 262 378 271Q379 280 379 290Q379 342 353.5 383Q328 424 265 424ZM341 28Q314 9 281.5 0.5Q249 -8 214 -8Q131 -8 86 43Q41 94 41 179Q41 274 98.5 363Q156 452 265 452Q338 452 373.5 407.5Q409 363 409 288Q409 273 407.5 257Q406 241 403 225H75Q74 214 73 202Q72 190 72 179Q72 104 110.5 61.5Q149 19 214 19Q251 19 284 30Q317 41 348 64ZM324 570Q324 580 330.5 586.5Q337 593 347 593Q357 593 363.5 586.5Q370 580 370 570Q370 560 363.5 553.5Q357 547 347 547Q337 547 330.5 553.5Q324 560 324 570ZM210 570Q210 580 216.5 586.5Q223 593 233 593Q243 593 249.5 586.5Q256 580 256 570Q256 560 249.5 553.5Q243 547 233 547Q223 547 216.5 553.5Q210 560 210 570Z" glyph-name="edieresis" horiz-adv-x="440" unicode="&#235;" /><glyph d="M265 424Q194 424 146 373Q98 322 81 252H376Q377 262 378 271Q379 280 379 290Q379 342 353.5 383Q328 424 265 424ZM341 28Q314 9 281.5 0.5Q249 -8 214 -8Q131 -8 86 43Q41 94 41 179Q41 274 98.5 363Q156 452 265 452Q338 452 373.5 407.5Q409 363 409 288Q409 273 407.5 257Q406 241 403 225H75Q74 214 73 202Q72 190 72 179Q72 104 110.5 61.5Q149 19 214 19Q251 19 284 30Q317 41 348 64ZM315 579Q315 569 308.5 562Q302 555 292 555Q282 555 275.5 562Q269 569 269 579Q269 589 275.5 596Q282 603 292 603Q302 603 308.5 596Q315 589 315 579Z" glyph-name="edotaccent" horiz-adv-x="440" unicode="&#279;" /><glyph d="M265 424Q194 424 146 373Q98 322 81 252H376Q377 262 378 271Q379 280 379 290Q379 342 353.5 383Q328 424 265 424ZM341 28Q314 9 281.5 0.5Q249 -8 214 -8Q131 -8 86 43Q41 94 41 179Q41 274 98.5 363Q156 452 265 452Q338 452 373.5 407.5Q409 363 409 288Q409 273 407.5 257Q406 241 403 225H75Q74 214 73 202Q72 190 72 179Q72 104 110.5 61.5Q149 19 214 19Q251 19 284 30Q317 41 348 64ZM299 523H270L207 650H236Z" glyph-name="egrave" horiz-adv-x="440" unicode="&#232;" /><glyph d="M218 -8Q147 -8 87.5 32Q28 72 28 153Q28 218 74.5 269Q121 320 193 335Q156 351 133.5 383Q111 415 111 456Q111 521 164.5 571.5Q218 622 302 622Q368 622 418 585Q468 548 468 480Q468 428 430 384.5Q392 341 334 325Q384 306 413 267.5Q442 229 442 179Q442 101 376 46.5Q310 -8 218 -8ZM438 480Q438 534 397.5 564Q357 594 302 594Q232 594 186.5 552Q141 510 141 456Q141 403 182.5 373Q224 343 277 343Q348 343 393 385.5Q438 428 438 480ZM59 153Q59 94 107 57Q155 20 218 20Q300 20 355.5 67Q411 114 411 180Q411 243 362.5 279.5Q314 316 246 316Q168 316 113.5 267.5Q59 219 59 153Z" glyph-name="eight" horiz-adv-x="477" unicode="8" /><glyph d="M231 -8Q160 -8 100.5 32Q41 72 41 153Q41 218 87.5 269Q134 320 206 335Q169 351 146.5 383Q124 415 124 456Q124 521 177.5 571.5Q231 622 315 622Q381 622 431 585Q481 548 481 480Q481 428 443 384.5Q405 341 347 325Q397 306 426 267.5Q455 229 455 179Q455 101 389 46.5Q323 -8 231 -8ZM451 480Q451 534 410.5 564Q370 594 315 594Q245 594 199.5 552Q154 510 154 456Q154 403 195.5 373Q237 343 290 343Q361 343 406 385.5Q451 428 451 480ZM72 153Q72 94 120 57Q168 20 231 20Q313 20 368.5 67Q424 114 424 180Q424 243 375.5 279.5Q327 316 259 316Q181 316 126.5 267.5Q72 219 72 153Z" glyph-name="eight.lt" horiz-adv-x="520" /><glyph d="M278 25Q278 36 286 44Q294 52 304 52Q314 52 322 44Q330 36 330 25Q330 14 322 6Q314 -2 304 -2Q294 -2 286 6Q278 14 278 25ZM140 25Q140 36 148 44Q156 52 166 52Q176 52 184 44Q192 36 192 25Q192 14 184 6Q176 -2 166 -2Q156 -2 148 6Q140 14 140 25ZM2 25Q2 36 10 44Q18 52 28 52Q38 52 46 44Q54 36 54 25Q54 14 46 6Q38 -2 28 -2Q18 -2 10 6Q2 14 2 25Z" glyph-name="ellipsis" horiz-adv-x="394" unicode="&#8230;" /><glyph d="M265 424Q194 424 146 373Q98 322 81 252H376Q377 262 378 271Q379 280 379 290Q379 342 353.5 383Q328 424 265 424ZM341 28Q314 9 281.5 0.5Q249 -8 214 -8Q131 -8 86 43Q41 94 41 179Q41 274 98.5 363Q156 452 265 452Q338 452 373.5 407.5Q409 363 409 288Q409 273 407.5 257Q406 241 403 225H75Q74 214 73 202Q72 190 72 179Q72 104 110.5 61.5Q149 19 214 19Q251 19 284 30Q317 41 348 64ZM189 542 194 569H387L382 542Z" glyph-name="emacron" horiz-adv-x="440" unicode="&#275;" /><glyph d="M44 245 48 272H814L810 245Z" glyph-name="emdash" horiz-adv-x="846" unicode="&#8212;" /><glyph d="M54 285 58 312H824L820 285Z" glyph-name="emdash.cap" horiz-adv-x="846" /><glyph d="M44 245 48 272H443L439 245Z" glyph-name="endash" horiz-adv-x="475" unicode="&#8211;" /><glyph d="M54 285 58 312H453L449 285Z" glyph-name="endash.cap" horiz-adv-x="475" /><glyph d="M223 -176 228 -148Q231 -149 235.5 -149.5Q240 -150 245 -150Q276 -150 297 -134Q318 -118 327 -69L391 292Q392 301 393 309Q394 317 394 325Q394 368 370 395.5Q346 423 295 423Q240 423 194 391.5Q148 360 122 318L66 0H36L114 444H144L130 362Q158 398 201.5 425Q245 452 295 452Q358 452 391.5 418.5Q425 385 425 330Q425 322 424 313.5Q423 305 422 296L357 -73Q347 -127 319 -152.5Q291 -178 245 -178Q236 -178 231 -177.5Q226 -177 223 -176Z" glyph-name="eng" horiz-adv-x="479" unicode="&#331;" /><glyph d="M403 225H75Q74 214 73 202Q72 190 72 179Q72 104 110.5 61.5Q149 19 214 19Q251 19 284 30Q317 41 348 64L341 28Q330 21 323 16Q316 11 306 2Q273 -29 252 -65Q231 -101 231 -135Q231 -145 236.5 -150Q242 -155 251 -155Q262 -155 271.5 -151.5Q281 -148 291 -141L286 -166Q276 -173 267 -176Q258 -179 247 -179Q230 -179 217 -168.5Q204 -158 204 -135Q204 -107 222 -71Q240 -35 274 -1Q261 -5 243 -6.5Q225 -8 214 -8Q131 -8 86 43Q41 94 41 179Q41 274 98.5 363Q156 452 265 452Q338 452 373.5 407.5Q409 363 409 288Q409 273 407.5 257Q406 241 403 225ZM265 424Q194 424 145.5 373Q97 322 80 252H376Q377 262 378 271Q379 280 379 290Q379 342 353.5 383Q328 424 265 424Z" glyph-name="eogonek" horiz-adv-x="440" unicode="&#281;" /><glyph d="M91 339 96 368H452L447 339ZM70 219 75 248H431L426 219Z" glyph-name="equal" horiz-adv-x="500" unicode="=" /><glyph d="M90 339 95 368H451L446 339ZM69 219 74 248H430L425 219Z" glyph-name="equal.lt" horiz-adv-x="520" /><glyph d="M207 -8Q130 -8 85.5 43.5Q41 95 41 179Q41 299 104 375.5Q167 452 259 452Q292 452 326.5 438.5Q361 425 377 393H379Q366 427 345.5 465.5Q325 504 292 544L177 506L168 530L274 565Q255 585 232.5 606Q210 627 183 646V650H220Q242 634 263 615Q284 596 303 575L386 602L394 578L321 554Q369 494 397 420Q425 346 425 265Q425 145 362 68.5Q299 -8 207 -8ZM207 20Q285 20 339.5 87Q394 154 394 265Q394 337 357.5 380.5Q321 424 259 424Q181 424 126.5 357Q72 290 72 179Q72 107 108.5 63.5Q145 20 207 20Z" glyph-name="eth" horiz-adv-x="466" unicode="&#240;" /><glyph d="M90 192 161 614H193L114 192ZM44 25Q44 36 52 44Q60 52 70 52Q80 52 88 44Q96 36 96 25Q96 14 88 6Q80 -2 70 -2Q60 -2 52 6Q44 14 44 25Z" glyph-name="exclam" horiz-adv-x="208" unicode="!" /><glyph d="M197 493Q197 482 189 474Q181 466 171 466Q161 466 153 474Q145 482 145 493Q145 504 153 512Q161 520 171 520Q181 520 189 512Q197 504 197 493ZM151 326 80 -96H48L127 326Z" glyph-name="exclamdown" horiz-adv-x="208" unicode="&#161;" /><glyph d="M205 589Q205 578 197 570Q189 562 179 562Q169 562 161 570Q153 578 153 589Q153 600 161 608Q169 616 179 616Q189 616 197 608Q205 600 205 589ZM159 422 88 0H56L135 422Z" glyph-name="exclamdown.cap" horiz-adv-x="208" /><glyph d="M330 651 325 622Q315 626 305.5 628Q296 630 283 630Q244 630 215 602.5Q186 575 177 524L163 444H270L265 416H158L85 0H55L128 416H58L63 444H133L148 528Q158 585 194 621.5Q230 658 283 658Q296 658 308 656.5Q320 655 330 651Z" glyph-name="f" horiz-adv-x="236" unicode="f" /><glyph d="M547 651 542 622Q532 626 522.5 628Q513 630 500 630Q461 630 432 602.5Q403 575 394 524L380 444H487L482 416H375L302 0H272L345 416H158L85 0H55L128 416H58L63 444H133L147 522Q157 579 193 615.5Q229 652 282 652Q295 652 307 650.5Q319 649 329 645L324 616Q314 620 304.5 622Q295 624 282 624Q243 624 214 596.5Q185 569 176 518L163 444H350L365 528Q375 585 411 621.5Q447 658 500 658Q513 658 525 656.5Q537 655 547 651Z" glyph-name="f_f" horiz-adv-x="453" unicode="&#64256;" /><glyph d="M330 651 325 622Q315 626 305.5 628Q296 630 283 630Q244 630 215 602.5Q186 575 177 524L163 444H270L265 416H158L85 0H55L128 416H58L63 444H133L148 528Q158 585 194 621.5Q230 658 283 658Q296 658 308 656.5Q320 655 330 651ZM411 579Q411 569 404.5 562Q398 555 388 555Q378 555 371.5 562Q365 569 365 579Q365 589 371.5 596Q378 603 388 603Q398 603 404.5 596Q411 589 411 579ZM380 444 302 0H272L350 444Z" glyph-name="fi" horiz-adv-x="416" unicode="&#64257;" /><glyph d="M396 212Q396 124 329.5 58Q263 -8 169 -8Q115 -8 73.5 8.5Q32 25 7 47L14 86Q41 53 82 37Q123 21 169 21Q247 21 306.5 76Q366 131 366 212Q366 272 325 307Q284 342 221 342Q172 342 142 332.5Q112 323 84 311L138 614H437L431 584H160L120 353Q137 360 164.5 365.5Q192 371 221 371Q297 371 346.5 328Q396 285 396 212Z" glyph-name="five" horiz-adv-x="429" unicode="5" /><glyph d="M435 212Q435 124 366.5 58Q298 -8 202 -8Q146 -8 104.5 9.5Q63 27 37 49L43 86Q71 53 113 37Q155 21 202 21Q283 21 344 76Q405 131 405 212Q405 272 362.5 307Q320 342 255 342Q205 342 174.5 332.5Q144 323 115 311L171 614H477L471 584H192L151 353Q169 360 197.5 365.5Q226 371 255 371Q333 371 384 328Q435 285 435 212Z" glyph-name="five.lt" horiz-adv-x="520" /><glyph d="M330 651 325 622Q315 626 305.5 628Q296 630 283 630Q244 630 215 602.5Q186 575 177 524L163 444H270L265 416H158L85 0H55L128 416H58L63 444H133L148 528Q158 585 194 621.5Q230 658 283 658Q296 658 308 656.5Q320 655 330 651ZM416 650 302 0H272L386 650Z" glyph-name="fl" horiz-adv-x="416" unicode="&#64258;" /><glyph d="M-38 -170Q-56 -170 -70.5 -167Q-85 -164 -97 -158L-94 -128Q-81 -135 -67.5 -138.5Q-54 -142 -38 -142Q-1 -142 19 -118Q39 -94 54 -45L161 306H78L83 332H169L221 501Q238 556 270.5 589Q303 622 351 622Q369 622 383.5 619Q398 616 410 610L407 580Q394 587 380.5 590.5Q367 594 351 594Q314 594 290 570Q266 546 251 497L201 332H298L293 306H193L84 -49Q67 -104 38.5 -137Q10 -170 -38 -170Z" glyph-name="florin" horiz-adv-x="360" unicode="&#402;" /><glyph d="M63 -170Q45 -170 30.5 -167Q16 -164 4 -158L7 -128Q20 -135 33.5 -138.5Q47 -142 63 -142Q100 -142 120 -118Q140 -94 155 -45L262 306H179L184 332H270L322 501Q339 556 371.5 589Q404 622 452 622Q470 622 484.5 619Q499 616 511 610L508 580Q495 587 481.5 590.5Q468 594 452 594Q415 594 391 570Q367 546 352 497L302 332H399L394 306H294L185 -49Q168 -104 139.5 -137Q111 -170 63 -170Z" glyph-name="florin.lt" horiz-adv-x="520" /><glyph d="M346 614 78 189H322L349 344H380L353 189H475L470 159H348L320 0H289L317 159H27V163L312 614Z" glyph-name="four" horiz-adv-x="494" unicode="4" /><glyph d="M350 614 82 189H327L354 344H385L358 189H480L475 159H353L325 0H294L322 159H32V163L317 614Z" glyph-name="four.lt" horiz-adv-x="520" /><glyph d="M374 614 -143 0H-175L342 614Z" glyph-name="fraction" horiz-adv-x="199" unicode="&#8260;" /><glyph d="M364 131 398 324Q381 372 347 397.5Q313 423 269 423Q170 423 121 343Q72 263 72 180Q72 114 105.5 72.5Q139 31 203 31Q249 31 289.5 57.5Q330 84 364 131ZM346 27 357 86Q331 54 291 28Q251 2 203 2Q120 2 80.5 53.5Q41 105 41 180Q41 280 101.5 366Q162 452 269 452Q321 452 356 424.5Q391 397 405 365L419 444H449L376 30Q357 -75 298.5 -127Q240 -179 159 -179Q114 -179 75.5 -164.5Q37 -150 18 -131L24 -97Q51 -126 88 -138Q125 -150 159 -150Q228 -150 279 -107.5Q330 -65 346 27Z" glyph-name="g" horiz-adv-x="479" unicode="g" /><glyph d="M364 131 398 324Q381 372 347 397.5Q313 423 269 423Q170 423 121 343Q72 263 72 180Q72 114 105.5 72.5Q139 31 203 31Q249 31 289.5 57.5Q330 84 364 131ZM346 27 357 86Q331 54 291 28Q251 2 203 2Q120 2 80.5 53.5Q41 105 41 180Q41 280 101.5 366Q162 452 269 452Q321 452 356 424.5Q391 397 405 365L419 444H449L376 30Q357 -75 298.5 -127Q240 -179 159 -179Q114 -179 75.5 -164.5Q37 -150 18 -131L24 -97Q51 -126 88 -138Q125 -150 159 -150Q228 -150 279 -107.5Q330 -65 346 27ZM300 510Q263 510 239 539.5Q215 569 225 624H252Q244 581 259 558Q274 535 302 535Q330 535 353 558Q376 581 384 624H411Q401 569 370.5 539.5Q340 510 300 510Z" glyph-name="gbreve" horiz-adv-x="479" unicode="&#287;" /><glyph d="M364 131 398 324Q381 372 347 397.5Q313 423 269 423Q170 423 121 343Q72 263 72 180Q72 114 105.5 72.5Q139 31 203 31Q249 31 289.5 57.5Q330 84 364 131ZM346 27 357 86Q331 54 291 28Q251 2 203 2Q120 2 80.5 53.5Q41 105 41 180Q41 280 101.5 366Q162 452 269 452Q321 452 356 424.5Q391 397 405 365L419 444H449L376 30Q357 -75 298.5 -127Q240 -179 159 -179Q114 -179 75.5 -164.5Q37 -150 18 -131L24 -97Q51 -126 88 -138Q125 -150 159 -150Q228 -150 279 -107.5Q330 -65 346 27ZM332 643 400 516H371L317 619L225 516H192L306 643Z" glyph-name="gcircumflex" horiz-adv-x="479" unicode="&#285;" /><glyph d="M364 131 398 324Q381 372 347 397.5Q313 423 269 423Q170 423 121 343Q72 263 72 180Q72 114 105.5 72.5Q139 31 203 31Q249 31 289.5 57.5Q330 84 364 131ZM346 27 357 86Q331 54 291 28Q251 2 203 2Q120 2 80.5 53.5Q41 105 41 180Q41 280 101.5 366Q162 452 269 452Q321 452 356 424.5Q391 397 405 365L419 444H449L376 30Q357 -75 298.5 -127Q240 -179 159 -179Q114 -179 75.5 -164.5Q37 -150 18 -131L24 -97Q51 -126 88 -138Q125 -150 159 -150Q228 -150 279 -107.5Q330 -65 346 27ZM354 650 306 579Q314 578 319.5 571.5Q325 565 325 555Q325 544 317.5 536Q310 528 299 528Q288 528 280.5 536Q273 544 273 555Q273 564 276.5 570.5Q280 577 284 584L329 650Z" glyph-name="gcommaaccent" horiz-adv-x="479" unicode="&#291;" /><glyph d="M364 131 398 324Q381 372 347 397.5Q313 423 269 423Q170 423 121 343Q72 263 72 180Q72 114 105.5 72.5Q139 31 203 31Q249 31 289.5 57.5Q330 84 364 131ZM346 27 357 86Q331 54 291 28Q251 2 203 2Q120 2 80.5 53.5Q41 105 41 180Q41 280 101.5 366Q162 452 269 452Q321 452 356 424.5Q391 397 405 365L419 444H449L376 30Q357 -75 298.5 -127Q240 -179 159 -179Q114 -179 75.5 -164.5Q37 -150 18 -131L24 -97Q51 -126 88 -138Q125 -150 159 -150Q228 -150 279 -107.5Q330 -65 346 27ZM334 579Q334 569 327.5 562Q321 555 311 555Q301 555 294.5 562Q288 569 288 579Q288 589 294.5 596Q301 603 311 603Q321 603 327.5 596Q334 589 334 579Z" glyph-name="gdotaccent" horiz-adv-x="479" unicode="&#289;" /><glyph d="M36 0 129 528Q139 589 176.5 623.5Q214 658 264 658Q281 658 296.5 655Q312 652 323 646L318 616Q306 623 293 626.5Q280 630 264 630Q225 630 196 603Q167 576 158 524L144 444H481V440L266 226Q326 203 365 162Q404 121 404 58Q404 -62 312 -120.5Q220 -179 101 -179L106 -151Q204 -151 288.5 -101.5Q373 -52 373 59Q373 117 332 153.5Q291 190 222 215V219L419 416H139L66 0Z" glyph-name="germandbls" horiz-adv-x="473" unicode="&#223;" /><glyph d="M313 370Q340 367 364 356Q388 345 406.5 325Q425 305 435 276.5Q445 248 445 212Q445 163 428 122Q411 81 381.5 52Q352 23 314.5 7.5Q277 -8 236 -8Q220 -8 205 -6Q190 -4 177 -0.5Q164 3 153 8.5Q142 14 133 20L139 52Q150 43 161 36.5Q172 30 184 26.5Q196 23 209 21.5Q222 20 236 20Q272 20 304.5 33Q337 46 361.5 71Q386 96 400 132Q414 168 414 213Q414 247 403.5 274Q393 301 372.5 319Q352 337 323 346.5Q294 356 257 356H213L218 384H262Q292 384 320 395.5Q348 407 369.5 427Q391 447 403.5 473.5Q416 500 416 529Q416 551 409.5 569Q403 587 389.5 601Q376 615 355.5 622.5Q335 630 309 630Q276 630 248.5 618.5Q221 607 201 585.5Q181 564 167.5 534.5Q154 505 148 469L66 0H36L118 470Q125 510 140.5 544Q156 578 180.5 603.5Q205 629 237.5 643.5Q270 658 309 658Q343 658 369 648.5Q395 639 412.5 621Q430 603 438.5 580Q447 557 447 530Q447 499 435.5 472.5Q424 446 405 425.5Q386 405 362 391Q338 377 313 370Z" glyph-name="germandbls.alt" horiz-adv-x="494" /><glyph d="M298 523H269L206 650H235Z" glyph-name="grave" horiz-adv-x="500" unicode="`" /><glyph d="M298 663H268L204 780H234Z" glyph-name="grave.cap" horiz-adv-x="500" /><glyph d="M337 303 333 279 48 130 54 164 305 293 100 422 105 452Z" glyph-name="greater" horiz-adv-x="379" unicode="&gt;" /><glyph d="M404 303 400 279 115 130 121 164 372 293 167 422 172 452Z" glyph-name="greater.lt" horiz-adv-x="520" /><glyph d="M343 333 339 309 60 197 66 230 302 323 98 417 104 445ZM312 155 307 126H48L53 155Z" glyph-name="greaterequal" horiz-adv-x="379" unicode="&#8805;" /><glyph d="M407 333 403 309 124 197 130 230 366 323 162 417 168 445ZM376 155 371 126H112L117 155Z" glyph-name="greaterequal.lt" horiz-adv-x="520" /><glyph d="M241 94H211L142 222L256 350H292L175 219ZM133 94H103L34 222L148 350H184L67 219Z" glyph-name="guillemotleft" horiz-adv-x="283" unicode="&#171;" /><glyph d="M261 184H231L162 312L276 440H312L195 309ZM153 184H123L54 312L168 440H204L87 309Z" glyph-name="guillemotleft.cap" horiz-adv-x="283" /><glyph d="M52 350H82L151 222L37 94H1L118 225ZM160 350H190L259 222L145 94H109L226 225Z" glyph-name="guillemotright" horiz-adv-x="283" unicode="&#187;" /><glyph d="M72 440H102L171 312L57 184H21L138 315ZM180 440H210L279 312L165 184H129L246 315Z" glyph-name="guillemotright.cap" horiz-adv-x="283" /><glyph d="M133 94H103L34 222L148 350H184L67 219Z" glyph-name="guilsinglleft" horiz-adv-x="175" unicode="&#8249;" /><glyph d="M153 184H123L54 312L168 440H204L87 309Z" glyph-name="guilsinglleft.cap" horiz-adv-x="175" /><glyph d="M52 350H82L151 222L37 94H1L118 225Z" glyph-name="guilsinglright" horiz-adv-x="175" unicode="&#8250;" /><glyph d="M72 440H102L171 312L57 184H21L138 315Z" glyph-name="guilsinglright.cap" horiz-adv-x="175" /><glyph d="M295 452Q358 452 391.5 418.5Q425 385 425 330Q425 322 424 313.5Q423 305 422 296L370 0H340L391 292Q392 301 393 309Q394 317 394 325Q394 368 370 395.5Q346 423 295 423Q240 423 194 391.5Q148 360 122 318L66 0H36L150 650H180L129 362Q157 398 201 425Q245 452 295 452Z" glyph-name="h" horiz-adv-x="479" unicode="h" /><glyph d="M122 318 66 0H36L128 527H78L83 552H133L150 650H180L163 552H284L279 527H158L129 362Q157 398 201 425Q245 452 295 452Q358 452 391.5 418.5Q425 385 425 330Q425 322 424 313.5Q423 305 422 296L370 0H340L391 292Q392 301 393 309Q394 317 394 325Q394 368 370 395.5Q346 423 295 423Q240 423 194 391.5Q148 360 122 318Z" glyph-name="hbar" horiz-adv-x="479" unicode="&#295;" /><glyph d="M295 452Q358 452 391.5 418.5Q425 385 425 330Q425 322 424 313.5Q423 305 422 296L370 0H340L391 292Q392 301 393 309Q394 317 394 325Q394 368 370 395.5Q346 423 295 423Q240 423 194 391.5Q148 360 122 318L66 0H36L150 650H180L129 362Q157 398 201 425Q245 452 295 452ZM322 793 392 676H363L306 768L217 676H184L296 793Z" glyph-name="hcircumflex" horiz-adv-x="479" unicode="&#293;" /><glyph d="M267 523H235L336 650H368ZM164 523H132L233 650H265Z" glyph-name="hungarumlaut" horiz-adv-x="500" unicode="&#733;" /><glyph d="M269 663H236L336 780H369ZM166 663H133L233 780H266Z" glyph-name="hungarumlaut.cap" horiz-adv-x="500" /><glyph d="M44 244 49 273H290L285 244Z" glyph-name="hyphen" horiz-adv-x="321" unicode="-" /><glyph d="M54 284 59 313H300L295 284Z" glyph-name="hyphen.cap" horiz-adv-x="321" /><glyph d="M175 579Q175 569 168.5 562Q162 555 152 555Q142 555 135.5 562Q129 569 129 579Q129 589 135.5 596Q142 603 152 603Q162 603 168.5 596Q175 589 175 579ZM144 444 66 0H36L114 444Z" glyph-name="i" horiz-adv-x="180" unicode="i" /><glyph d="M144 444 66 0H36L114 444ZM158 523H124L231 650H265Z" glyph-name="iacute" horiz-adv-x="180" unicode="&#237;" /><glyph d="M142 510Q107 510 87.5 539.5Q68 569 78 624H104Q96 581 107.5 558Q119 535 144 535Q169 535 188.5 558Q208 581 216 624H242Q232 569 204.5 539.5Q177 510 142 510ZM144 444 66 0H36L114 444Z" glyph-name="ibreve" horiz-adv-x="180" unicode="&#301;" /><glyph d="M175 643 223 516H195L159 616L87 516H55L149 643ZM144 444 66 0H36L114 444Z" glyph-name="icircumflex" horiz-adv-x="180" unicode="&#238;" /><glyph d="M174 570Q174 580 180.5 586.5Q187 593 197 593Q207 593 213.5 586.5Q220 580 220 570Q220 560 213.5 553.5Q207 547 197 547Q187 547 180.5 553.5Q174 560 174 570ZM80 570Q80 580 86.5 586.5Q93 593 103 593Q113 593 119.5 586.5Q126 580 126 570Q126 560 119.5 553.5Q113 547 103 547Q93 547 86.5 553.5Q80 560 80 570ZM144 444 66 0H36L114 444Z" glyph-name="idieresis" horiz-adv-x="180" unicode="&#239;" /><glyph d="M144 444 66 0H36L114 444ZM176 579Q176 569 169.5 562Q163 555 153 555Q143 555 136.5 562Q130 569 130 579Q130 589 136.5 596Q143 603 153 603Q163 603 169.5 596Q176 589 176 579Z" glyph-name="idotaccent" horiz-adv-x="180" /><glyph d="M144 444 66 0H36L114 444ZM160 523H131L68 650H97Z" glyph-name="igrave" horiz-adv-x="180" unicode="&#236;" /><glyph d="M175 579Q175 569 168.5 562Q162 555 152 555Q142 555 135.5 562Q129 569 129 579Q129 589 135.5 596Q142 603 152 603Q162 603 168.5 596Q175 589 175 579ZM144 444 66 0H36L114 444ZM355 579Q355 569 348.5 562Q342 555 332 555Q322 555 315.5 562Q309 569 309 579Q309 589 315.5 596Q322 603 332 603Q342 603 348.5 596Q355 589 355 579ZM99 -176 104 -148Q107 -149 111.5 -149.5Q116 -150 121 -150Q152 -150 173 -134Q194 -118 203 -69L294 444H324L233 -73Q223 -127 195 -152.5Q167 -178 121 -178Q112 -178 107 -177.5Q102 -177 99 -176Z" glyph-name="ij" horiz-adv-x="360" unicode="&#307;" /><glyph d="M73 542 78 569H221L216 542ZM144 444 66 0H36L114 444Z" glyph-name="imacron" horiz-adv-x="180" unicode="&#299;" /><glyph d="M175 579Q175 569 168.5 562Q162 555 152 555Q142 555 135.5 562Q129 569 129 579Q129 589 135.5 596Q142 603 152 603Q162 603 168.5 596Q175 589 175 579ZM36 0 114 444H144L66 0Q24 -60 8.5 -86.5Q-7 -113 -7 -135Q-7 -145 -1.5 -150Q4 -155 13 -155Q24 -155 33.5 -151.5Q43 -148 53 -141L48 -166Q38 -173 29 -176Q20 -179 9 -179Q-8 -179 -21 -168.5Q-34 -158 -34 -135Q-34 -107 -14.5 -77Q5 -47 38 0Z" glyph-name="iogonek" horiz-adv-x="180" unicode="&#303;" /><glyph d="M226 619H252Q244 576 227 550Q210 524 188 524Q157 524 147 559Q137 594 118 594Q105 594 95.5 575.5Q86 557 81 527H55Q62 570 79.5 596Q97 622 119 622Q150 622 160 587Q170 552 189 552Q202 552 211.5 570.5Q221 589 226 619ZM144 444 66 0H36L114 444Z" glyph-name="itilde" horiz-adv-x="180" unicode="&#297;" /><glyph d="M175 579Q175 569 168.5 562Q162 555 152 555Q142 555 135.5 562Q129 569 129 579Q129 589 135.5 596Q142 603 152 603Q162 603 168.5 596Q175 589 175 579ZM-81 -176 -76 -148Q-73 -149 -68.5 -149.5Q-64 -150 -59 -150Q-28 -150 -7 -134Q14 -118 23 -69L114 444H144L53 -73Q43 -127 15 -152.5Q-13 -178 -59 -178Q-68 -178 -73 -177.5Q-78 -177 -81 -176Z" glyph-name="j" horiz-adv-x="180" unicode="j" /><glyph d="M175 643 223 516H195L159 616L87 516H55L149 643ZM-81 -176 -76 -148Q-73 -149 -68.5 -149.5Q-64 -150 -59 -150Q-28 -150 -7 -134Q14 -118 23 -69L114 444H144L53 -73Q43 -127 15 -152.5Q-13 -178 -59 -178Q-68 -178 -73 -177.5Q-78 -177 -81 -176Z" glyph-name="jcircumflex" horiz-adv-x="180" unicode="&#309;" /><glyph d="M320 0 107 233 66 0H36L150 650H180L109 247L386 444H431L142 237L357 0Z" glyph-name="k" horiz-adv-x="411" unicode="k" /><glyph d="M320 0 107 233 66 0H36L150 650H180L109 247L386 444H431L142 237L357 0ZM108 -170 156 -99Q148 -98 142.5 -91.5Q137 -85 137 -75Q137 -64 144.5 -56Q152 -48 163 -48Q174 -48 181.5 -56Q189 -64 189 -75Q189 -84 185.5 -90.5Q182 -97 178 -104L133 -170Z" glyph-name="kcommaaccent" horiz-adv-x="411" unicode="&#311;" /><glyph d="M320 0 107 233 66 0H36L114 444H144L109 247L386 444H431L142 237L357 0Z" glyph-name="kgreenlandic" horiz-adv-x="411" unicode="&#312;" /><glyph d="M180 650 66 0H36L150 650Z" glyph-name="l" horiz-adv-x="180" unicode="l" /><glyph d="M180 650 66 0H36L150 650ZM191 686H156L262 803H297Z" glyph-name="lacute" horiz-adv-x="180" unicode="&#314;" /><glyph d="M180 650 66 0H36L150 650ZM229 493H201L281 650H309Z" glyph-name="lcaron" horiz-adv-x="180" unicode="&#318;" /><glyph d="M180 650 66 0H36L150 650ZM-17 -170 31 -99Q23 -98 17.5 -91.5Q12 -85 12 -75Q12 -64 19.5 -56Q27 -48 38 -48Q49 -48 56.5 -56Q64 -64 64 -75Q64 -84 60.5 -90.5Q57 -97 53 -104L8 -170Z" glyph-name="lcommaaccent" horiz-adv-x="180" unicode="&#316;" /><glyph d="M180 650 66 0H36L150 650ZM268 325Q268 315 261.5 308Q255 301 245 301Q235 301 228.5 308Q222 315 222 325Q222 335 228.5 342Q235 349 245 349Q255 349 261.5 342Q268 335 268 325Z" glyph-name="ldot" horiz-adv-x="263" unicode="&#320;" /><glyph d="M64 279 68 303 353 452 347 418 96 289 301 160 296 130Z" glyph-name="less" horiz-adv-x="379" unicode="&lt;" /><glyph d="M115 279 119 303 404 452 398 418 147 289 352 160 347 130Z" glyph-name="less.lt" horiz-adv-x="520" /><glyph d="M68 309 72 333 351 445 345 412 109 319 313 225 307 197ZM36 126 41 155H300L295 126Z" glyph-name="lessequal" horiz-adv-x="379" unicode="&#8804;" /><glyph d="M134 309 138 333 417 445 411 412 175 319 379 225 373 197ZM102 126 107 155H366L361 126Z" glyph-name="lessequal.lt" horiz-adv-x="520" /><glyph d="M86 0H56L117 349L48 303L53 337L123 384L170 650H200L157 403L231 452L226 418L151 369Z" glyph-name="lslash" horiz-adv-x="220" unicode="&#322;" /><glyph d="M388 359Q419 399 457.5 425.5Q496 452 545 452Q601 452 628.5 420.5Q656 389 656 338Q656 328 654.5 317.5Q653 307 652 297L600 0H570L621 293Q622 303 623.5 313Q625 323 625 333Q625 373 605 398Q585 423 541 423Q489 423 450.5 390.5Q412 358 389 319L333 0H303L354 293Q355 303 356.5 313Q358 323 358 333Q358 373 338 398Q318 423 274 423Q222 423 183.5 390.5Q145 358 122 319L66 0H36L114 444H144L130 364Q155 399 192 425.5Q229 452 278 452Q328 452 355.5 426.5Q383 401 388 359Z" glyph-name="m" horiz-adv-x="709" unicode="m" /><glyph d="M151 542 156 569H349L344 542Z" glyph-name="macron" horiz-adv-x="500" unicode="&#175;" /><glyph d="M151 670 155 697H348L344 670Z" glyph-name="macron.cap" horiz-adv-x="500" /><glyph d="M79 278 84 307H439L434 278Z" glyph-name="minus" horiz-adv-x="495" unicode="&#8722;" /><glyph d="M80 278 85 307H440L435 278Z" glyph-name="minus.lt" horiz-adv-x="520" /><glyph d="M205 291 105 413 126 431 225 309 366 431 383 412 242 290 340 168 319 150 220 271 79 150 62 169Z" glyph-name="multiply" horiz-adv-x="422" unicode="&#215;" /><glyph d="M242 291 142 413 163 431 262 309 403 431 420 412 279 290 377 168 356 150 257 271 116 150 99 169Z" glyph-name="multiply.lt" horiz-adv-x="520" /><glyph d="M36 0 114 444H144L130 362Q158 398 201.5 425Q245 452 295 452Q358 452 391.5 418.5Q425 385 425 330Q425 322 424 313.5Q423 305 422 296L370 0H340L391 292Q392 301 393 309Q394 317 394 325Q394 368 370 395.5Q346 423 295 423Q240 423 194 391.5Q148 360 122 318L66 0Z" glyph-name="n" horiz-adv-x="479" unicode="n" /><glyph d="M36 0 114 444H144L130 362Q158 398 201.5 425Q245 452 295 452Q358 452 391.5 418.5Q425 385 425 330Q425 322 424 313.5Q423 305 422 296L370 0H340L391 292Q392 301 393 309Q394 317 394 325Q394 368 370 395.5Q346 423 295 423Q240 423 194 391.5Q148 360 122 318L66 0ZM307 523H273L380 650H414Z" glyph-name="nacute" horiz-adv-x="479" unicode="&#324;" /><glyph d="M36 0 114 444H144L130 362Q158 398 201.5 425Q245 452 295 452Q358 452 391.5 418.5Q425 385 425 330Q425 322 424 313.5Q423 305 422 296L370 0H340L391 292Q392 301 393 309Q394 317 394 325Q394 368 370 395.5Q346 423 295 423Q240 423 194 391.5Q148 360 122 318L66 0ZM280 518 212 645H241L295 542L387 645H420L306 518Z" glyph-name="ncaron" horiz-adv-x="479" unicode="&#328;" /><glyph d="M36 0 114 444H144L130 362Q158 398 201.5 425Q245 452 295 452Q358 452 391.5 418.5Q425 385 425 330Q425 322 424 313.5Q423 305 422 296L370 0H340L391 292Q392 301 393 309Q394 317 394 325Q394 368 370 395.5Q346 423 295 423Q240 423 194 391.5Q148 360 122 318L66 0ZM133 -170 181 -99Q173 -98 167.5 -91.5Q162 -85 162 -75Q162 -64 169.5 -56Q177 -48 188 -48Q199 -48 206.5 -56Q214 -64 214 -75Q214 -84 210.5 -90.5Q207 -97 203 -104L158 -170Z" glyph-name="ncommaaccent" horiz-adv-x="479" unicode="&#326;" /><glyph d="M282 622Q361 622 416 569Q471 516 471 434Q471 397 458 359Q445 321 407 273L188 0H152L345 241Q327 230 303.5 222.5Q280 215 255 215Q171 215 118.5 269Q66 323 66 401Q66 494 131.5 558Q197 622 282 622ZM282 593Q210 593 153.5 538Q97 483 97 401Q97 335 141.5 289.5Q186 244 255 244Q327 244 383.5 298Q440 352 440 434Q440 500 395.5 546.5Q351 593 282 593Z" glyph-name="nine" horiz-adv-x="477" unicode="9" /><glyph d="M290 622Q369 622 424 569Q479 516 479 434Q479 397 466 359Q453 321 415 273L196 0H160L353 241Q335 230 311.5 222.5Q288 215 263 215Q179 215 126.5 269Q74 323 74 401Q74 494 139.5 558Q205 622 290 622ZM290 593Q218 593 161.5 538Q105 483 105 401Q105 335 149.5 289.5Q194 244 263 244Q335 244 391.5 298Q448 352 448 434Q448 500 403.5 546.5Q359 593 290 593Z" glyph-name="nine.lt" horiz-adv-x="520" /><glyph glyph-name="nonmarkingreturn" horiz-adv-x="221" unicode="" /><glyph d="M426 220H207L120 132H85L172 220H70L75 248H200L289 339H91L96 367H317L403 454H438L352 367H452L447 339H324L235 248H431Z" glyph-name="notequal" horiz-adv-x="500" unicode="&#8800;" /><glyph d="M425 220H206L119 132H84L171 220H69L74 248H199L288 339H90L95 367H316L402 454H437L351 367H451L446 339H323L234 248H430Z" glyph-name="notequal.lt" horiz-adv-x="520" /><glyph d="M36 0 114 444H144L130 362Q158 398 201.5 425Q245 452 295 452Q358 452 391.5 418.5Q425 385 425 330Q425 322 424 313.5Q423 305 422 296L370 0H340L391 292Q392 301 393 309Q394 317 394 325Q394 368 370 395.5Q346 423 295 423Q240 423 194 391.5Q148 360 122 318L66 0ZM403 619H429Q421 576 401 550Q381 524 350 524Q313 524 296 559Q279 594 251 594Q232 594 219 575.5Q206 557 201 527H175Q182 570 202.5 596Q223 622 254 622Q291 622 308 587Q325 552 353 552Q372 552 385 570.5Q398 589 403 619Z" glyph-name="ntilde" horiz-adv-x="479" unicode="&#241;" /><glyph d="M330 228 379 386H231L182 228ZM261 0 323 202H175L113 0H86L147 202H46L52 228H155L203 386H85L90 412H211L272 614H300L238 412H386L448 614H475L414 412H515L509 386H406L358 228H476L471 202H350L289 0Z" glyph-name="numbersign" horiz-adv-x="529" unicode="#" /><glyph d="M207 -8Q130 -8 85.5 43.5Q41 95 41 179Q41 299 104 375.5Q167 452 259 452Q336 452 380.5 400.5Q425 349 425 265Q425 145 362 68.5Q299 -8 207 -8ZM207 20Q285 20 339.5 87Q394 154 394 265Q394 337 357.5 380.5Q321 424 259 424Q181 424 126.5 357Q72 290 72 179Q72 107 108.5 63.5Q145 20 207 20Z" glyph-name="o" horiz-adv-x="466" unicode="o" /><glyph d="M207 -8Q130 -8 85.5 43.5Q41 95 41 179Q41 299 104 375.5Q167 452 259 452Q336 452 380.5 400.5Q425 349 425 265Q425 145 362 68.5Q299 -8 207 -8ZM207 20Q285 20 339.5 87Q394 154 394 265Q394 337 357.5 380.5Q321 424 259 424Q181 424 126.5 357Q72 290 72 179Q72 107 108.5 63.5Q145 20 207 20ZM301 523H267L374 650H408Z" glyph-name="oacute" horiz-adv-x="466" unicode="&#243;" /><glyph d="M207 -8Q130 -8 85.5 43.5Q41 95 41 179Q41 299 104 375.5Q167 452 259 452Q336 452 380.5 400.5Q425 349 425 265Q425 145 362 68.5Q299 -8 207 -8ZM207 20Q285 20 339.5 87Q394 154 394 265Q394 337 357.5 380.5Q321 424 259 424Q181 424 126.5 357Q72 290 72 179Q72 107 108.5 63.5Q145 20 207 20ZM285 510Q248 510 224 539.5Q200 569 210 624H237Q229 581 244 558Q259 535 287 535Q315 535 338 558Q361 581 369 624H396Q386 569 355.5 539.5Q325 510 285 510Z" glyph-name="obreve" horiz-adv-x="466" unicode="&#335;" /><glyph d="M207 -8Q130 -8 85.5 43.5Q41 95 41 179Q41 299 104 375.5Q167 452 259 452Q336 452 380.5 400.5Q425 349 425 265Q425 145 362 68.5Q299 -8 207 -8ZM207 20Q285 20 339.5 87Q394 154 394 265Q394 337 357.5 380.5Q321 424 259 424Q181 424 126.5 357Q72 290 72 179Q72 107 108.5 63.5Q145 20 207 20ZM317 643 385 516H356L302 619L210 516H177L291 643Z" glyph-name="ocircumflex" horiz-adv-x="466" unicode="&#244;" /><glyph d="M207 -8Q130 -8 85.5 43.5Q41 95 41 179Q41 299 104 375.5Q167 452 259 452Q336 452 380.5 400.5Q425 349 425 265Q425 145 362 68.5Q299 -8 207 -8ZM207 20Q285 20 339.5 87Q394 154 394 265Q394 337 357.5 380.5Q321 424 259 424Q181 424 126.5 357Q72 290 72 179Q72 107 108.5 63.5Q145 20 207 20ZM328 570Q328 580 334.5 586.5Q341 593 351 593Q361 593 367.5 586.5Q374 580 374 570Q374 560 367.5 553.5Q361 547 351 547Q341 547 334.5 553.5Q328 560 328 570ZM214 570Q214 580 220.5 586.5Q227 593 237 593Q247 593 253.5 586.5Q260 580 260 570Q260 560 253.5 553.5Q247 547 237 547Q227 547 220.5 553.5Q214 560 214 570Z" glyph-name="odieresis" horiz-adv-x="466" unicode="&#246;" /><glyph d="M259 452Q322 452 363.5 415.5Q405 379 419 319Q446 373 494 412.5Q542 452 610 452Q683 452 718.5 407.5Q754 363 754 288Q754 273 752.5 257Q751 241 748 225H420Q419 214 418 202Q417 190 417 179Q417 104 455.5 61.5Q494 19 559 19Q596 19 629 30Q662 41 693 64L686 28Q659 9 626.5 0.5Q594 -8 559 -8Q492 -8 449.5 27Q407 62 393 120Q365 63 316 27.5Q267 -8 207 -8Q130 -8 85.5 43.5Q41 95 41 179Q41 299 104 375.5Q167 452 259 452ZM610 424Q539 424 490.5 373Q442 322 425 252H721Q722 262 723 271Q724 280 724 290Q724 342 698.5 383Q673 424 610 424ZM207 20Q285 20 339.5 87Q394 154 394 265Q394 337 357.5 380.5Q321 424 259 424Q181 424 126.5 357Q72 290 72 179Q72 107 108.5 63.5Q145 20 207 20Z" glyph-name="oe" horiz-adv-x="785" unicode="&#339;" /><glyph d="M273 3H302Q259 -59 243 -86Q227 -113 227 -135Q227 -145 232.5 -150Q238 -155 247 -155Q258 -155 267.5 -151.5Q277 -148 287 -141L282 -166Q272 -173 263 -176Q254 -179 243 -179Q226 -179 213 -168.5Q200 -158 200 -135Q200 -107 219.5 -76.5Q239 -46 273 3Z" glyph-name="ogonek" horiz-adv-x="500" unicode="&#731;" /><glyph d="M207 -8Q130 -8 85.5 43.5Q41 95 41 179Q41 299 104 375.5Q167 452 259 452Q336 452 380.5 400.5Q425 349 425 265Q425 145 362 68.5Q299 -8 207 -8ZM207 20Q285 20 339.5 87Q394 154 394 265Q394 337 357.5 380.5Q321 424 259 424Q181 424 126.5 357Q72 290 72 179Q72 107 108.5 63.5Q145 20 207 20ZM303 523H274L211 650H240Z" glyph-name="ograve" horiz-adv-x="466" unicode="&#242;" /><glyph d="M207 -8Q130 -8 85.5 43.5Q41 95 41 179Q41 299 104 375.5Q167 452 259 452Q336 452 380.5 400.5Q425 349 425 265Q425 145 362 68.5Q299 -8 207 -8ZM207 20Q285 20 339.5 87Q394 154 394 265Q394 337 357.5 380.5Q321 424 259 424Q181 424 126.5 357Q72 290 72 179Q72 107 108.5 63.5Q145 20 207 20ZM345 523H313L414 650H446ZM242 523H210L311 650H343Z" glyph-name="ohungarumlaut" horiz-adv-x="466" unicode="&#337;" /><glyph d="M207 -8Q130 -8 85.5 43.5Q41 95 41 179Q41 299 104 375.5Q167 452 259 452Q336 452 380.5 400.5Q425 349 425 265Q425 145 362 68.5Q299 -8 207 -8ZM207 20Q285 20 339.5 87Q394 154 394 265Q394 337 357.5 380.5Q321 424 259 424Q181 424 126.5 357Q72 290 72 179Q72 107 108.5 63.5Q145 20 207 20ZM193 542 198 569H391L386 542Z" glyph-name="omacron" horiz-adv-x="466" unicode="&#333;" /><glyph d="M296 616 188 0H157L258 576L76 490L82 525L276 616Z" glyph-name="one" horiz-adv-x="318" unicode="1" /><glyph d="M34 0 39 30H236L332 577L126 479L132 513L350 616H370L267 30H436L431 0Z" glyph-name="one.lt" horiz-adv-x="520" /><glyph d="M234 616 176 287H147L199 580L106 536L111 567L216 616ZM586 614 69 0H37L554 614ZM391 27H543L538 0H331V2L458 127Q483 151 513 182Q543 213 543 253Q543 276 529 290.5Q515 305 485 305Q457 305 430.5 291Q404 277 383 259L389 292Q408 309 435 321Q462 333 491 333Q531 333 551.5 312Q572 291 572 257Q572 214 543 180Q514 146 479 112Z" glyph-name="onehalf" horiz-adv-x="632" unicode="&#189;" /><glyph d="M234 616 176 287H147L199 580L106 536L111 567L216 616ZM586 614 69 0H37L554 614ZM494 328 352 105H466L480 186H508L494 105H554L549 79H489L476 0H448L461 79H306L307 82L465 328Z" glyph-name="onequarter" horiz-adv-x="626" unicode="&#188;" /><glyph d="M200 616 142 287H113L164 579L71 536L77 567L182 616Z" glyph-name="onesuperior" horiz-adv-x="212" unicode="&#185;" /><glyph d="M236 387 243 426Q239 444 217 457.5Q195 471 165 471Q134 471 105 454Q76 437 76 400Q76 373 97.5 357.5Q119 342 148 342Q177 342 201.5 355Q226 368 236 387ZM249 461 261 526Q261 530 261.5 534Q262 538 262 542Q262 566 246.5 580Q231 594 201 594Q174 594 151 586.5Q128 579 108 567L113 597Q130 607 154.5 614Q179 621 205 621Q246 621 269 601Q292 581 292 547Q292 542 291 536Q290 530 290 526L254 321H225L230 350Q217 337 193.5 326.5Q170 316 145 316Q103 316 75.5 339Q48 362 48 399Q48 444 83.5 470.5Q119 497 165 497Q196 497 218 485Q240 473 249 461Z" glyph-name="ordfeminine" horiz-adv-x="276" unicode="&#170;" /><glyph d="M175 315Q123 315 92.5 349.5Q62 384 62 441Q62 520 104.5 570.5Q147 621 209 621Q261 621 291.5 586.5Q322 552 322 496Q322 417 279.5 366Q237 315 175 315ZM176 342Q225 342 258.5 384.5Q292 427 292 496Q292 541 269.5 568Q247 595 208 595Q159 595 125.5 552.5Q92 510 92 441Q92 396 114.5 369Q137 342 176 342Z" glyph-name="ordmasculine" horiz-adv-x="300" unicode="&#186;" /><glyph d="M77 179Q77 148 83.5 121Q90 94 103 74L362 384Q345 403 320 413.5Q295 424 264 424Q186 424 131.5 357Q77 290 77 179ZM212 20Q290 20 344.5 87Q399 154 399 265Q399 294 393.5 318.5Q388 343 377 362L120 54Q136 38 159.5 29Q183 20 212 20ZM212 -8Q178 -8 150 2.5Q122 13 101 32L52 -27L31 -12L84 51Q65 75 55.5 107.5Q46 140 46 179Q46 299 109 375.5Q172 452 264 452Q300 452 329.5 440Q359 428 380 406L431 467L452 452L397 386Q413 363 421.5 332Q430 301 430 265Q430 145 367 68.5Q304 -8 212 -8Z" glyph-name="oslash" horiz-adv-x="476" unicode="&#248;" /><glyph d="M77 179Q77 148 83.5 121Q90 94 103 74L362 384Q345 403 320 413.5Q295 424 264 424Q186 424 131.5 357Q77 290 77 179ZM212 20Q290 20 344.5 87Q399 154 399 265Q399 294 393.5 318.5Q388 343 377 362L120 54Q136 38 159.5 29Q183 20 212 20ZM212 -8Q178 -8 150 2.5Q122 13 101 32L52 -27L31 -12L84 51Q65 75 55.5 107.5Q46 140 46 179Q46 299 109 375.5Q172 452 264 452Q300 452 329.5 440Q359 428 380 406L431 467L452 452L397 386Q413 363 421.5 332Q430 301 430 265Q430 145 367 68.5Q304 -8 212 -8ZM309 523H275L382 650H416Z" glyph-name="oslashacute" horiz-adv-x="476" unicode="&#511;" /><glyph d="M207 -8Q130 -8 85.5 43.5Q41 95 41 179Q41 299 104 375.5Q167 452 259 452Q336 452 380.5 400.5Q425 349 425 265Q425 145 362 68.5Q299 -8 207 -8ZM207 20Q285 20 339.5 87Q394 154 394 265Q394 337 357.5 380.5Q321 424 259 424Q181 424 126.5 357Q72 290 72 179Q72 107 108.5 63.5Q145 20 207 20ZM396 619H422Q414 576 394 550Q374 524 343 524Q306 524 289 559Q272 594 244 594Q225 594 212 575.5Q199 557 194 527H168Q175 570 195.5 596Q216 622 247 622Q284 622 301 587Q318 552 346 552Q365 552 378 570.5Q391 589 396 619Z" glyph-name="otilde" horiz-adv-x="466" unicode="&#245;" /><glyph d="M123 324 87 120Q104 71 138 46Q172 21 216 21Q315 21 364 103.5Q413 186 413 270Q413 338 381.5 380.5Q350 423 286 423Q240 423 198.5 398Q157 373 123 324ZM80 79 36 -170H6L114 444H144L130 367Q156 400 197 426Q238 452 286 452Q369 452 406.5 399Q444 346 444 270Q444 168 383.5 80Q323 -8 216 -8Q165 -8 129.5 19Q94 46 80 79Z" glyph-name="p" horiz-adv-x="485" unicode="p" /><glyph d="M158 -90 238 366Q176 366 123 394Q70 422 70 477Q70 552 141 583Q212 614 282 614H311L187 -90ZM253 -90 377 614H406L282 -90Z" glyph-name="paragraph" horiz-adv-x="415" unicode="&#182;" /><glyph d="M39 210Q39 371 132 488.5Q225 606 379 650L374 621Q233 572 151 466.5Q69 361 69 210Q69 106 118 38.5Q167 -29 255 -56L250 -84Q149 -56 94 22Q39 100 39 210Z" glyph-name="parenleft" horiz-adv-x="328" unicode="(" /><glyph d="M41 225Q41 386 134 503.5Q227 621 381 665L376 636Q235 587 153 481.5Q71 376 71 225Q71 121 120 53.5Q169 -14 257 -41L252 -69Q151 -41 96 37Q41 115 41 225Z" glyph-name="parenleft.cap" horiz-adv-x="328" /><glyph d="M312 356Q312 195 219 77.5Q126 -40 -28 -84L-23 -55Q118 -6 200 99.5Q282 205 282 356Q282 460 233 527.5Q184 595 96 622L101 650Q202 622 257 544Q312 466 312 356Z" glyph-name="parenright" horiz-adv-x="328" unicode=")" /><glyph d="M314 371Q314 210 221 92.5Q128 -25 -26 -69L-21 -40Q120 9 202 114.5Q284 220 284 371Q284 475 235 542.5Q186 610 98 637L103 665Q204 637 259 559Q314 481 314 371Z" glyph-name="parenright.cap" horiz-adv-x="328" /><glyph d="M189 622Q239 622 273.5 587.5Q308 553 308 504Q308 456 272.5 416.5Q237 377 183 377Q133 377 98.5 411.5Q64 446 64 495Q64 543 99.5 582.5Q135 622 189 622ZM36 0 536 614H568L68 0ZM184 407Q221 407 249.5 435.5Q278 464 278 504Q278 540 251.5 566Q225 592 188 592Q151 592 122.5 563.5Q94 535 94 495Q94 459 120.5 433Q147 407 184 407ZM415 -8Q365 -8 330.5 26.5Q296 61 296 110Q296 158 331.5 197.5Q367 237 421 237Q471 237 505.5 202.5Q540 168 540 119Q540 71 504.5 31.5Q469 -8 415 -8ZM420 207Q383 207 354.5 178.5Q326 150 326 110Q326 74 352.5 48Q379 22 416 22Q453 22 481.5 50.5Q510 79 510 119Q510 155 483.5 181Q457 207 420 207Z" glyph-name="percent" horiz-adv-x="599" unicode="%" /><glyph d="M176 622Q226 622 260.5 587.5Q295 553 295 504Q295 456 259.5 416.5Q224 377 170 377Q120 377 85.5 411.5Q51 446 51 495Q51 543 86.5 582.5Q122 622 176 622ZM506 614 54 0H22L474 614ZM171 407Q208 407 236.5 435.5Q265 464 265 504Q265 540 238.5 566Q212 592 175 592Q138 592 109.5 563.5Q81 535 81 495Q81 459 107.5 433Q134 407 171 407ZM352 -8Q302 -8 267.5 26.5Q233 61 233 110Q233 158 268.5 197.5Q304 237 358 237Q408 237 442.5 202.5Q477 168 477 119Q477 71 441.5 31.5Q406 -8 352 -8ZM357 207Q320 207 291.5 178.5Q263 150 263 110Q263 74 289.5 48Q316 22 353 22Q390 22 418.5 50.5Q447 79 447 119Q447 155 420.5 181Q394 207 357 207Z" glyph-name="percent.lt" horiz-adv-x="520" /><glyph d="M2 25Q2 36 10 44Q18 52 28 52Q38 52 46 44Q54 36 54 25Q54 14 46 6Q38 -2 28 -2Q18 -2 10 6Q2 14 2 25Z" glyph-name="period" horiz-adv-x="118" unicode="." /><glyph d="M59 25Q59 36 67 44Q75 52 85 52Q95 52 103 44Q111 36 111 25Q111 14 103 6Q95 -2 85 -2Q75 -2 67 6Q59 14 59 25Z" glyph-name="period.tab" horiz-adv-x="260" /><glyph d="M39 260Q39 271 47 279Q55 287 65 287Q75 287 83 279Q91 271 91 260Q91 249 83 241Q75 233 65 233Q55 233 47 241Q39 249 39 260Z" glyph-name="periodcentered" horiz-adv-x="132" unicode="&#183;" /><glyph d="M55 300Q55 311 63 319Q71 327 81 327Q91 327 99 319Q107 311 107 300Q107 289 99 281Q91 273 81 273Q71 273 63 281Q55 289 55 300Z" glyph-name="periodcentered.cap" horiz-adv-x="132" /><glyph d="M189 622Q239 622 273.5 587.5Q308 553 308 504Q308 456 272.5 416.5Q237 377 183 377Q133 377 98.5 411.5Q64 446 64 495Q64 543 99.5 582.5Q135 622 189 622ZM36 0 536 614H568L68 0ZM184 407Q221 407 249.5 435.5Q278 464 278 504Q278 540 251.5 566Q225 592 188 592Q151 592 122.5 563.5Q94 535 94 495Q94 459 120.5 433Q147 407 184 407ZM695 -8Q645 -8 610.5 26.5Q576 61 576 110Q576 158 611.5 197.5Q647 237 701 237Q751 237 785.5 202.5Q820 168 820 119Q820 71 784.5 31.5Q749 -8 695 -8ZM415 -8Q365 -8 330.5 26.5Q296 61 296 110Q296 158 331.5 197.5Q367 237 421 237Q471 237 505.5 202.5Q540 168 540 119Q540 71 504.5 31.5Q469 -8 415 -8ZM700 207Q663 207 634.5 178.5Q606 150 606 110Q606 74 632.5 48Q659 22 696 22Q733 22 761.5 50.5Q790 79 790 119Q790 155 763.5 181Q737 207 700 207ZM420 207Q383 207 354.5 178.5Q326 150 326 110Q326 74 352.5 48Q379 22 416 22Q453 22 481.5 50.5Q510 79 510 119Q510 155 483.5 181Q457 207 420 207Z" glyph-name="perthousand" horiz-adv-x="851" unicode="&#8240;" /><glyph d="M186 622Q236 622 270.5 587.5Q305 553 305 504Q305 456 269.5 416.5Q234 377 180 377Q130 377 95.5 411.5Q61 446 61 495Q61 543 96.5 582.5Q132 622 186 622ZM516 614 64 0H32L484 614ZM181 407Q218 407 246.5 435.5Q275 464 275 504Q275 540 248.5 566Q222 592 185 592Q148 592 119.5 563.5Q91 535 91 495Q91 459 117.5 433Q144 407 181 407ZM640 -8Q590 -8 555.5 26.5Q521 61 521 110Q521 158 556.5 197.5Q592 237 646 237Q696 237 730.5 202.5Q765 168 765 119Q765 71 729.5 31.5Q694 -8 640 -8ZM362 -8Q312 -8 277.5 26.5Q243 61 243 110Q243 158 278.5 197.5Q314 237 368 237Q418 237 452.5 202.5Q487 168 487 119Q487 71 451.5 31.5Q416 -8 362 -8ZM645 207Q608 207 579.5 178.5Q551 150 551 110Q551 74 577.5 48Q604 22 641 22Q678 22 706.5 50.5Q735 79 735 119Q735 155 708.5 181Q682 207 645 207ZM367 207Q330 207 301.5 178.5Q273 150 273 110Q273 74 299.5 48Q326 22 363 22Q400 22 428.5 50.5Q457 79 457 119Q457 155 430.5 181Q404 207 367 207Z" glyph-name="perthousand.lt" horiz-adv-x="800" /><glyph d="M434 278H270L242 115H213L241 278H79L84 307H247L275 470H304L276 307H439Z" glyph-name="plus" horiz-adv-x="495" unicode="+" /><glyph d="M435 278H271L243 115H214L242 278H80L85 307H248L276 470H305L277 307H440Z" glyph-name="plus.lt" horiz-adv-x="520" /><glyph d="M442 326H279L257 203H228L250 326H87L92 355H255L277 478H306L284 355H447ZM50 116 55 145H410L405 116Z" glyph-name="plusminus" horiz-adv-x="495" unicode="&#177;" /><glyph d="M453 326H290L268 203H239L261 326H98L103 355H266L288 478H317L295 355H458ZM61 116 66 145H421L416 116Z" glyph-name="plusminus.lt" horiz-adv-x="520" /><glyph d="M689 307Q689 170 596 81Q503 -8 374 -8Q245 -8 152 81Q59 170 59 307Q59 444 152 533Q245 622 374 622Q503 622 596 533Q689 444 689 307ZM663 307Q663 432 578 514Q493 596 374 596Q255 596 170 514Q85 432 85 307Q85 182 170 100Q255 18 374 18Q493 18 578 100Q663 182 663 307ZM407 282H304V124H274V493H407Q461 493 492.5 466Q524 439 524 388Q524 336 492.5 309Q461 282 407 282ZM407 311Q450 311 472.5 331Q495 351 495 388Q495 424 472.5 444.5Q450 465 407 465H304V311Z" glyph-name="published" horiz-adv-x="710" /><glyph d="M405 365 419 444H449L341 -170H311L355 77Q329 44 288 18Q247 -8 199 -8Q116 -8 78.5 45Q41 98 41 174Q41 276 101.5 364Q162 452 269 452Q320 452 355.5 425Q391 398 405 365ZM362 120 398 324Q381 373 347 398Q313 423 269 423Q170 423 121 340.5Q72 258 72 174Q72 106 103.5 63.5Q135 21 199 21Q245 21 286.5 46Q328 71 362 120Z" glyph-name="q" horiz-adv-x="485" unicode="q" /><glyph d="M264 299Q304 337 348 382Q392 427 392 490Q392 537 362 565Q332 593 275 593Q219 593 168.5 564Q118 535 79 498L86 538Q120 571 170.5 596.5Q221 622 275 622Q344 622 383 587Q422 552 422 490Q422 417 375 371Q328 325 281 278Q259 256 245.5 238.5Q232 221 225 193H196Q203 224 219.5 248Q236 272 264 299ZM149 25Q149 36 157 44Q165 52 175 52Q185 52 193 44Q201 36 201 25Q201 14 193 6Q185 -2 175 -2Q165 -2 157 6Q149 14 149 25Z" glyph-name="question" horiz-adv-x="414" unicode="?" /><glyph d="M295 493Q295 482 287 474Q279 466 269 466Q259 466 251 474Q243 482 243 493Q243 504 251 512Q259 520 269 520Q279 520 287 512Q295 504 295 493ZM180 219Q140 181 96 136Q52 91 52 28Q52 -19 82 -47Q112 -75 169 -75Q225 -75 275.5 -46Q326 -17 365 20L358 -20Q324 -53 273.5 -78.5Q223 -104 169 -104Q100 -104 61 -69Q22 -34 22 28Q22 101 69 147Q116 193 163 240Q185 262 198.5 279.5Q212 297 219 325H248Q241 294 224.5 270Q208 246 180 219Z" glyph-name="questiondown" horiz-adv-x="414" unicode="&#191;" /><glyph d="M296 589Q296 578 288 570Q280 562 270 562Q260 562 252 570Q244 578 244 589Q244 600 252 608Q260 616 270 616Q280 616 288 608Q296 600 296 589ZM181 315Q141 277 97 232Q53 187 53 124Q53 77 83 49Q113 21 170 21Q226 21 276.5 50Q327 79 366 116L359 76Q325 43 274.5 17.5Q224 -8 170 -8Q101 -8 62 27Q23 62 23 124Q23 197 70 243Q117 289 164 336Q186 358 199.5 375.5Q213 393 220 421H249Q242 390 225.5 366Q209 342 181 315Z" glyph-name="questiondown.cap" horiz-adv-x="415" /><glyph d="M156 434 188 614H218L186 434ZM77 434 109 614H139L107 434Z" glyph-name="quotedbl" horiz-adv-x="189" unicode="&quot;" /><glyph d="M70 -94 133 0Q125 1 119.5 7.5Q114 14 114 24Q114 35 121.5 43Q129 51 140 51Q151 51 158.5 43Q166 35 166 24Q166 15 162.5 8.5Q159 2 155 -5L95 -94ZM-31 -94 32 0Q24 1 18.5 7.5Q13 14 13 24Q13 35 20.5 43Q28 51 39 51Q50 51 57.5 43Q65 35 65 24Q65 15 61.5 8.5Q58 2 54 -5L-6 -94Z" glyph-name="quotedblbase" horiz-adv-x="222" unicode="&#8222;" /><glyph d="M172 614 109 520Q117 519 122.5 512.5Q128 506 128 496Q128 485 120.5 477Q113 469 102 469Q91 469 83.5 477Q76 485 76 496Q76 505 79.5 511.5Q83 518 87 525L147 614ZM273 614 210 520Q218 519 223.5 512.5Q229 506 229 496Q229 485 221.5 477Q214 469 203 469Q192 469 184.5 477Q177 485 177 496Q177 505 180.5 511.5Q184 518 188 525L248 614Z" glyph-name="quotedblleft" horiz-adv-x="222" unicode="&#8220;" /><glyph d="M161 477 224 571Q216 572 210.5 578.5Q205 585 205 595Q205 606 212.5 614Q220 622 231 622Q242 622 249.5 614Q257 606 257 595Q257 586 253.5 579.5Q250 573 246 566L186 477ZM60 477 123 571Q115 572 109.5 578.5Q104 585 104 595Q104 606 111.5 614Q119 622 130 622Q141 622 148.5 614Q156 606 156 595Q156 586 152.5 579.5Q149 573 145 566L85 477Z" glyph-name="quotedblright" horiz-adv-x="222" unicode="&#8221;" /><glyph d="M172 614 109 520Q117 519 122.5 512.5Q128 506 128 496Q128 485 120.5 477Q113 469 102 469Q91 469 83.5 477Q76 485 76 496Q76 505 79.5 511.5Q83 518 87 525L147 614Z" glyph-name="quoteleft" horiz-adv-x="121" unicode="&#8216;" /><glyph d="M60 477 123 571Q115 572 109.5 578.5Q104 585 104 595Q104 606 111.5 614Q119 622 130 622Q141 622 148.5 614Q156 606 156 595Q156 586 152.5 579.5Q149 573 145 566L85 477Z" glyph-name="quoteright" horiz-adv-x="121" unicode="&#8217;" /><glyph d="M-31 -94 32 0Q24 1 18.5 7.5Q13 14 13 24Q13 35 20.5 43Q28 51 39 51Q50 51 57.5 43Q65 35 65 24Q65 15 61.5 8.5Q58 2 54 -5L-6 -94Z" glyph-name="quotesinglbase" horiz-adv-x="101" unicode="&#8218;" /><glyph d="M77 434 109 614H139L107 434Z" glyph-name="quotesingle" horiz-adv-x="110" unicode="'" /><glyph d="M307 447 302 419Q295 421 287 422.5Q279 424 269 424Q225 424 186.5 394Q148 364 122 319L66 0H36L114 444H144L130 363Q152 400 190.5 426Q229 452 274 452Q285 452 292.5 450.5Q300 449 307 447Z" glyph-name="r" horiz-adv-x="286" unicode="r" /><glyph d="M307 447 302 419Q295 421 287 422.5Q279 424 269 424Q225 424 186.5 394Q148 364 122 319L66 0H36L114 444H144L130 363Q152 400 190.5 426Q229 452 274 452Q285 452 292.5 450.5Q300 449 307 447ZM238 523H204L311 650H345Z" glyph-name="racute" horiz-adv-x="286" unicode="&#341;" /><glyph d="M307 447 302 419Q295 421 287 422.5Q279 424 269 424Q225 424 186.5 394Q148 364 122 319L66 0H36L114 444H144L130 363Q152 400 190.5 426Q229 452 274 452Q285 452 292.5 450.5Q300 449 307 447ZM211 518 143 645H172L226 542L318 645H351L237 518Z" glyph-name="rcaron" horiz-adv-x="286" unicode="&#345;" /><glyph d="M307 447 302 419Q295 421 287 422.5Q279 424 269 424Q225 424 186.5 394Q148 364 122 319L66 0H36L114 444H144L130 363Q152 400 190.5 426Q229 452 274 452Q285 452 292.5 450.5Q300 449 307 447ZM-15 -170 33 -99Q25 -98 19.5 -91.5Q14 -85 14 -75Q14 -64 21.5 -56Q29 -48 40 -48Q51 -48 58.5 -56Q66 -64 66 -75Q66 -84 62.5 -90.5Q59 -97 55 -104L10 -170Z" glyph-name="rcommaaccent" horiz-adv-x="286" unicode="&#343;" /><glyph d="M425 439Q425 360 371.5 308Q318 256 244 256Q170 256 116.5 308Q63 360 63 439Q63 518 116.5 570Q170 622 244 622Q318 622 371.5 570Q425 518 425 439ZM399 439Q399 507 353 551.5Q307 596 244 596Q181 596 135 551.5Q89 507 89 439Q89 371 135 326.5Q181 282 244 282Q307 282 353 326.5Q399 371 399 439ZM257 450Q273 450 282.5 459Q292 468 292 481Q292 494 282.5 503Q273 512 257 512H207V450ZM240 424H207V346H180V538H254Q283 538 301 523Q319 508 319 481Q319 458 305.5 443.5Q292 429 270 425L326 346H294Z" glyph-name="registered" horiz-adv-x="422" unicode="&#174;" /><glyph d="M246 503Q215 503 193.5 524Q172 545 172 576Q172 608 195 632.5Q218 657 252 657Q283 657 304.5 636Q326 615 326 584Q326 552 303 527.5Q280 503 246 503ZM247 528Q268 528 284.5 543.5Q301 559 301 582Q301 603 286.5 617.5Q272 632 251 632Q230 632 213.5 616.5Q197 601 197 578Q197 557 211.5 542.5Q226 528 247 528Z" glyph-name="ring" horiz-adv-x="500" unicode="&#730;" /><glyph d="M246 647Q215 647 193.5 668Q172 689 172 720Q172 752 195 776.5Q218 801 252 801Q283 801 304.5 780Q326 759 326 728Q326 696 303 671.5Q280 647 246 647ZM247 672Q268 672 284.5 687.5Q301 703 301 726Q301 747 286.5 761.5Q272 776 251 776Q230 776 213.5 760.5Q197 745 197 722Q197 701 211.5 686.5Q226 672 247 672Z" glyph-name="ring.cap" horiz-adv-x="500" /><glyph d="M12 42 19 77Q43 52 78.5 36Q114 20 154 20Q205 20 244 46Q283 72 283 126Q283 149 267 166.5Q251 184 221 197L142 231Q108 246 85.5 267Q63 288 63 327Q63 381 106 416.5Q149 452 212 452Q250 452 283 440Q316 428 344 404L338 370Q313 395 281.5 409.5Q250 424 212 424Q165 424 129.5 397.5Q94 371 94 327Q94 299 112.5 283.5Q131 268 163 255L244 220Q277 206 295.5 183Q314 160 314 126Q314 67 268.5 29.5Q223 -8 154 -8Q106 -8 68.5 9Q31 26 12 42Z" glyph-name="s" horiz-adv-x="371" unicode="s" /><glyph d="M12 42 19 77Q43 52 78.5 36Q114 20 154 20Q205 20 244 46Q283 72 283 126Q283 149 267 166.5Q251 184 221 197L142 231Q108 246 85.5 267Q63 288 63 327Q63 381 106 416.5Q149 452 212 452Q250 452 283 440Q316 428 344 404L338 370Q313 395 281.5 409.5Q250 424 212 424Q165 424 129.5 397.5Q94 371 94 327Q94 299 112.5 283.5Q131 268 163 255L244 220Q277 206 295.5 183Q314 160 314 126Q314 67 268.5 29.5Q223 -8 154 -8Q106 -8 68.5 9Q31 26 12 42ZM254 523H220L327 650H361Z" glyph-name="sacute" horiz-adv-x="371" unicode="&#347;" /><glyph d="M12 42 19 77Q43 52 78.5 36Q114 20 154 20Q205 20 244 46Q283 72 283 126Q283 149 267 166.5Q251 184 221 197L142 231Q108 246 85.5 267Q63 288 63 327Q63 381 106 416.5Q149 452 212 452Q250 452 283 440Q316 428 344 404L338 370Q313 395 281.5 409.5Q250 424 212 424Q165 424 129.5 397.5Q94 371 94 327Q94 299 112.5 283.5Q131 268 163 255L244 220Q277 206 295.5 183Q314 160 314 126Q314 67 268.5 29.5Q223 -8 154 -8Q106 -8 68.5 9Q31 26 12 42ZM227 518 159 645H188L242 542L334 645H367L253 518Z" glyph-name="scaron" horiz-adv-x="371" unicode="&#353;" /><glyph d="M12 42 19 77Q43 52 78.5 36Q114 20 154 20Q205 20 244 46Q283 72 283 126Q283 149 267 166.5Q251 184 221 197L142 231Q108 246 85.5 267Q63 288 63 327Q63 381 106 416.5Q149 452 212 452Q250 452 283 440Q316 428 344 404L338 370Q313 395 281.5 409.5Q250 424 212 424Q165 424 129.5 397.5Q94 371 94 327Q94 299 112.5 283.5Q131 268 163 255L244 220Q277 206 295.5 183Q314 160 314 126Q314 67 268.5 29.5Q223 -8 154 -8Q106 -8 68.5 9Q31 26 12 42ZM81 -170H50L126 -46H157Z" glyph-name="scedilla" horiz-adv-x="371" unicode="&#351;" /><glyph d="M12 42 19 77Q43 52 78.5 36Q114 20 154 20Q205 20 244 46Q283 72 283 126Q283 149 267 166.5Q251 184 221 197L142 231Q108 246 85.5 267Q63 288 63 327Q63 381 106 416.5Q149 452 212 452Q250 452 283 440Q316 428 344 404L338 370Q313 395 281.5 409.5Q250 424 212 424Q165 424 129.5 397.5Q94 371 94 327Q94 299 112.5 283.5Q131 268 163 255L244 220Q277 206 295.5 183Q314 160 314 126Q314 67 268.5 29.5Q223 -8 154 -8Q106 -8 68.5 9Q31 26 12 42ZM270 643 338 516H309L255 619L163 516H130L244 643Z" glyph-name="scircumflex" horiz-adv-x="371" unicode="&#349;" /><glyph d="M12 42 19 77Q43 52 78.5 36Q114 20 154 20Q205 20 244 46Q283 72 283 126Q283 149 267 166.5Q251 184 221 197L142 231Q108 246 85.5 267Q63 288 63 327Q63 381 106 416.5Q149 452 212 452Q250 452 283 440Q316 428 344 404L338 370Q313 395 281.5 409.5Q250 424 212 424Q165 424 129.5 397.5Q94 371 94 327Q94 299 112.5 283.5Q131 268 163 255L244 220Q277 206 295.5 183Q314 160 314 126Q314 67 268.5 29.5Q223 -8 154 -8Q106 -8 68.5 9Q31 26 12 42ZM79 -170 127 -99Q119 -98 113.5 -91.5Q108 -85 108 -75Q108 -64 115.5 -56Q123 -48 134 -48Q145 -48 152.5 -56Q160 -64 160 -75Q160 -84 156.5 -90.5Q153 -97 149 -104L104 -170Z" glyph-name="scommaaccent" horiz-adv-x="371" unicode="&#537;" /><glyph d="M322 281 159 409Q132 400 105.5 375Q79 350 79 311Q79 286 95.5 269Q112 252 136 233L299 105Q326 114 352.5 139Q379 164 379 203Q379 228 362.5 245Q346 262 322 281ZM145 431Q138 442 134 455Q130 468 130 484Q130 550 179.5 586Q229 622 287 622Q325 622 358.5 611Q392 600 414 581L408 546Q385 567 357 580.5Q329 594 287 594Q240 594 200.5 566.5Q161 539 161 485Q161 460 173.5 444Q186 428 212 407L342 305Q370 283 390 260.5Q410 238 410 203Q410 160 381.5 128Q353 96 313 83Q320 72 324 59Q328 46 328 30Q328 -36 278.5 -72Q229 -108 171 -108Q133 -108 99.5 -97Q66 -86 44 -67L50 -32Q73 -53 101 -66.5Q129 -80 171 -80Q218 -80 257.5 -52.5Q297 -25 297 29Q297 54 284.5 70Q272 86 246 107L116 209Q88 231 68 253.5Q48 276 48 311Q48 354 76.5 386Q105 418 145 431Z" glyph-name="section" horiz-adv-x="442" unicode="&#167;" /><glyph d="M-45 -97 21 1Q13 2 7.5 8.5Q2 15 2 25Q2 36 9.5 44Q17 52 28 52Q39 52 46.5 44Q54 36 54 25Q54 16 50.5 9.5Q47 3 43 -4L-20 -97ZM62 365Q62 376 70 384Q78 392 88 392Q98 392 106 384Q114 376 114 365Q114 354 106 346Q98 338 88 338Q78 338 70 346Q62 354 62 365Z" glyph-name="semicolon" horiz-adv-x="118" unicode=";" /><glyph d="M12 -97 78 1Q70 2 64.5 8.5Q59 15 59 25Q59 36 66.5 44Q74 52 85 52Q96 52 103.5 44Q111 36 111 25Q111 16 107.5 9.5Q104 3 100 -4L37 -97ZM119 365Q119 376 127 384Q135 392 145 392Q155 392 163 384Q171 376 171 365Q171 354 163 346Q155 338 145 338Q135 338 127 346Q119 354 119 365Z" glyph-name="semicolon.tab" horiz-adv-x="260" /><glyph d="M486 610 101 0H66L436 584H86L92 614H486Z" glyph-name="seven" horiz-adv-x="433" unicode="7" /><glyph d="M522 610 137 0H102L472 584H100L106 614H522Z" glyph-name="seven.lt" horiz-adv-x="520" /><glyph d="M231 -8Q152 -8 97 45Q42 98 42 180Q42 217 55 255Q68 293 106 341L325 614H361L168 373Q186 384 209.5 391.5Q233 399 258 399Q342 399 394.5 345Q447 291 447 213Q447 120 381.5 56Q316 -8 231 -8ZM231 21Q303 21 359.5 76Q416 131 416 213Q416 279 371.5 324.5Q327 370 258 370Q186 370 129.5 316Q73 262 73 180Q73 114 117.5 67.5Q162 21 231 21Z" glyph-name="six" horiz-adv-x="477" unicode="6" /><glyph d="M237 -8Q158 -8 103 45Q48 98 48 180Q48 217 61 255Q74 293 112 341L331 614H367L174 373Q192 384 215.5 391.5Q239 399 264 399Q348 399 400.5 345Q453 291 453 213Q453 120 387.5 56Q322 -8 237 -8ZM237 21Q309 21 365.5 76Q422 131 422 213Q422 279 377.5 324.5Q333 370 264 370Q192 370 135.5 316Q79 262 79 180Q79 114 123.5 67.5Q168 21 237 21Z" glyph-name="six.lt" horiz-adv-x="520" /><glyph d="M-48 -84 328 650H359L-18 -84Z" glyph-name="slash" horiz-adv-x="287" unicode="/" /><glyph d="M-38 -64 338 670H369L-8 -64Z" glyph-name="slash.cap" horiz-adv-x="287" /><glyph glyph-name="space" horiz-adv-x="221" unicode=" " /><glyph glyph-name="space.tab" horiz-adv-x="260" /><glyph d="M401 30 396 0H-8L-3 30H65Q79 48 90 68Q101 88 107 121L136 288H42L47 316H141L157 408Q174 507 228 564.5Q282 622 371 622Q407 622 437 614Q467 606 483 593L478 562Q459 575 432 584Q405 593 371 593Q290 593 246 542.5Q202 492 188 409L172 316H351L346 288H167L137 121Q133 95 121 70Q109 45 96 30Z" glyph-name="sterling" horiz-adv-x="453" unicode="&#163;" /><glyph d="M433 30 428 0H24L29 30H97Q111 48 122 68Q133 88 139 121L168 288H74L79 316H173L189 408Q206 507 260 564.5Q314 622 403 622Q439 622 469 614Q499 606 515 593L510 562Q491 575 464 584Q437 593 403 593Q322 593 278 542.5Q234 492 220 409L204 316H383L378 288H199L169 121Q165 95 153 70Q141 45 128 30Z" glyph-name="sterling.lt" horiz-adv-x="520" /><glyph d="M181 416 108 0H78L151 416H54L59 444H156L176 556H206L186 444H293L288 416Z" glyph-name="t" horiz-adv-x="274" unicode="t" /><glyph d="M237 257H153L108 0H78L123 257H44L49 284H128L151 416H54L59 444H156L176 556H206L186 444H293L288 416H181L158 284H242Z" glyph-name="tbar" horiz-adv-x="274" unicode="&#359;" /><glyph d="M181 416 108 0H78L151 416H54L59 444H156L176 556H206L186 444H293L288 416ZM275 503H247L327 660H355Z" glyph-name="tcaron" horiz-adv-x="274" unicode="&#357;" /><glyph d="M181 416 108 0H78L151 416H54L59 444H156L176 556H206L186 444H293L288 416ZM25 -170 73 -99Q65 -98 59.5 -91.5Q54 -85 54 -75Q54 -64 61.5 -56Q69 -48 80 -48Q91 -48 98.5 -56Q106 -64 106 -75Q106 -84 102.5 -90.5Q99 -97 95 -104L50 -170Z" glyph-name="tcommaaccent" horiz-adv-x="274" unicode="&#355;" /><glyph d="M123 324 87 120Q104 71 138 46Q172 21 216 21Q315 21 364 103.5Q413 186 413 270Q413 338 381.5 380.5Q350 423 286 423Q240 423 198.5 398Q157 373 123 324ZM80 79 36 -170H6L150 650H180L130 367Q156 400 197 426Q238 452 286 452Q369 452 406.5 399Q444 346 444 270Q444 168 383.5 80Q323 -8 216 -8Q165 -8 129.5 19Q94 46 80 79Z" glyph-name="thorn" horiz-adv-x="485" unicode="&#254;" /><glyph d="M99 584 105 614H465V610L229 370Q299 369 347.5 326.5Q396 284 396 212Q396 124 329.5 58Q263 -8 169 -8Q115 -8 73.5 8.5Q32 25 7 47L14 86Q41 53 82 37Q123 21 169 21Q247 21 306.5 76Q366 131 366 212Q366 275 321.5 310Q277 345 205 345Q197 345 188 344.5Q179 344 170 343V347L399 584Z" glyph-name="three" horiz-adv-x="435" unicode="3" /><glyph d="M123 584 129 614H501V610L254 370Q326 369 378 326.5Q430 284 430 213Q430 125 361 59Q292 -7 195 -7Q139 -7 96.5 9.5Q54 26 28 48L35 87Q63 54 105.5 38Q148 22 195 22Q276 22 338 77Q400 132 400 213Q400 275 353 310Q306 345 232 345Q223 345 214 344.5Q205 344 196 343V347L436 584Z" glyph-name="three.lt" horiz-adv-x="520" /><glyph d="M617 614 100 0H68L585 614ZM116 587 121 614H314V612L198 482Q232 479 255 456.5Q278 434 278 397Q278 348 241.5 314.5Q205 281 155 281Q124 281 102.5 290Q81 299 67 311L73 343Q87 326 109 317Q131 308 155 308Q192 308 221 332.5Q250 357 250 397Q250 428 226.5 445.5Q203 463 166 463H152V465L261 587ZM524 328 382 105H496L510 186H538L524 105H584L579 79H519L506 0H478L491 79H336L337 82L495 328Z" glyph-name="threequarters" horiz-adv-x="656" unicode="&#190;" /><glyph d="M95 587 100 614H293V612L177 482Q211 479 234 456.5Q257 434 257 397Q257 348 220.5 314.5Q184 281 134 281Q103 281 81.5 290Q60 299 46 311L52 343Q66 326 88 317Q110 308 134 308Q171 308 200 332.5Q229 357 229 397Q229 428 205.5 445.5Q182 463 145 463H131V465L240 587Z" glyph-name="threesuperior" horiz-adv-x="273" unicode="&#179;" /><glyph d="M351 619H377Q369 576 349 550Q329 524 298 524Q261 524 244 559Q227 594 199 594Q180 594 167 575.5Q154 557 149 527H123Q130 570 150.5 596Q171 622 202 622Q239 622 256 587Q273 552 301 552Q320 552 333 570.5Q346 589 351 619Z" glyph-name="tilde" horiz-adv-x="500" unicode="&#732;" /><glyph d="M351 759H377Q369 716 349 690Q329 664 298 664Q261 664 244 699Q227 734 199 734Q180 734 167 715.5Q154 697 149 667H123Q130 710 150.5 736Q171 762 202 762Q239 762 256 727Q273 692 301 692Q320 692 333 710.5Q346 729 351 759Z" glyph-name="tilde.cap" horiz-adv-x="500" /><glyph d="M72 590 76 614H282L278 590H189L148 360H120L161 590ZM415 422H411L349 562L313 360H285L330 614H356L420 466L537 614H562L517 360H489L525 562Z" glyph-name="trademark" horiz-adv-x="551" unicode="&#8482;" /><glyph d="M55 30H371L366 0H-14V4L234 239Q285 287 342 346.5Q399 406 399 483Q399 532 370 562.5Q341 593 278 593Q226 593 176.5 567Q127 541 89 507L96 546Q131 577 180 599.5Q229 622 283 622Q356 622 392.5 584Q429 546 429 483Q429 402 374 341.5Q319 281 250 215Z" glyph-name="two" horiz-adv-x="435" unicode="2" /><glyph d="M75 30H421L416 0H7V4L261 239Q313 287 372 346.5Q431 406 431 483Q431 532 401 562.5Q371 593 306 593Q253 593 202.5 567Q152 541 113 507L120 546Q156 577 206.5 599.5Q257 622 311 622Q386 622 423.5 584Q461 546 461 483Q461 402 403 341.5Q345 281 275 215Z" glyph-name="two.lt" horiz-adv-x="520" /><glyph d="M95 314H247L242 287H35V289L162 414Q187 438 217 469Q247 500 247 540Q247 563 233 577.5Q219 592 189 592Q161 592 134.5 578Q108 564 87 546L93 579Q112 596 139 608Q166 620 195 620Q235 620 255.5 599Q276 578 276 544Q276 500 246.5 466.5Q217 433 183 399Z" glyph-name="twosuperior" horiz-adv-x="274" unicode="&#178;" /><glyph d="M439 444 361 0H331L345 82Q317 46 273.5 19Q230 -8 180 -8Q118 -8 85 25Q52 58 52 113Q52 121 53 130Q54 139 55 148L107 444H137L86 152Q85 143 84 134Q83 125 83 117Q83 74 106 47.5Q129 21 180 21Q235 21 281 52.5Q327 84 353 126L409 444Z" glyph-name="u" horiz-adv-x="477" unicode="u" /><glyph d="M439 444 361 0H331L345 82Q317 46 273.5 19Q230 -8 180 -8Q118 -8 85 25Q52 58 52 113Q52 121 53 130Q54 139 55 148L107 444H137L86 152Q85 143 84 134Q83 125 83 117Q83 74 106 47.5Q129 21 180 21Q235 21 281 52.5Q327 84 353 126L409 444ZM300 523H266L373 650H407Z" glyph-name="uacute" horiz-adv-x="477" unicode="&#250;" /><glyph d="M439 444 361 0H331L345 82Q317 46 273.5 19Q230 -8 180 -8Q118 -8 85 25Q52 58 52 113Q52 121 53 130Q54 139 55 148L107 444H137L86 152Q85 143 84 134Q83 125 83 117Q83 74 106 47.5Q129 21 180 21Q235 21 281 52.5Q327 84 353 126L409 444ZM284 510Q247 510 223 539.5Q199 569 209 624H236Q228 581 243 558Q258 535 286 535Q314 535 337 558Q360 581 368 624H395Q385 569 354.5 539.5Q324 510 284 510Z" glyph-name="ubreve" horiz-adv-x="477" unicode="&#365;" /><glyph d="M439 444 361 0H331L345 82Q317 46 273.5 19Q230 -8 180 -8Q118 -8 85 25Q52 58 52 113Q52 121 53 130Q54 139 55 148L107 444H137L86 152Q85 143 84 134Q83 125 83 117Q83 74 106 47.5Q129 21 180 21Q235 21 281 52.5Q327 84 353 126L409 444ZM316 643 384 516H355L301 619L209 516H176L290 643Z" glyph-name="ucircumflex" horiz-adv-x="477" unicode="&#251;" /><glyph d="M439 444 361 0H331L345 82Q317 46 273.5 19Q230 -8 180 -8Q118 -8 85 25Q52 58 52 113Q52 121 53 130Q54 139 55 148L107 444H137L86 152Q85 143 84 134Q83 125 83 117Q83 74 106 47.5Q129 21 180 21Q235 21 281 52.5Q327 84 353 126L409 444ZM328 570Q328 580 334.5 586.5Q341 593 351 593Q361 593 367.5 586.5Q374 580 374 570Q374 560 367.5 553.5Q361 547 351 547Q341 547 334.5 553.5Q328 560 328 570ZM214 570Q214 580 220.5 586.5Q227 593 237 593Q247 593 253.5 586.5Q260 580 260 570Q260 560 253.5 553.5Q247 547 237 547Q227 547 220.5 553.5Q214 560 214 570Z" glyph-name="udieresis" horiz-adv-x="477" unicode="&#252;" /><glyph d="M439 444 361 0H331L345 82Q317 46 273.5 19Q230 -8 180 -8Q118 -8 85 25Q52 58 52 113Q52 121 53 130Q54 139 55 148L107 444H137L86 152Q85 143 84 134Q83 125 83 117Q83 74 106 47.5Q129 21 180 21Q235 21 281 52.5Q327 84 353 126L409 444ZM302 523H273L210 650H239Z" glyph-name="ugrave" horiz-adv-x="477" unicode="&#249;" /><glyph d="M439 444 361 0H331L345 82Q317 46 273.5 19Q230 -8 180 -8Q118 -8 85 25Q52 58 52 113Q52 121 53 130Q54 139 55 148L107 444H137L86 152Q85 143 84 134Q83 125 83 117Q83 74 106 47.5Q129 21 180 21Q235 21 281 52.5Q327 84 353 126L409 444ZM345 523H313L414 650H446ZM242 523H210L311 650H343Z" glyph-name="uhungarumlaut" horiz-adv-x="477" unicode="&#369;" /><glyph d="M439 444 361 0H331L345 82Q317 46 273.5 19Q230 -8 180 -8Q118 -8 85 25Q52 58 52 113Q52 121 53 130Q54 139 55 148L107 444H137L86 152Q85 143 84 134Q83 125 83 117Q83 74 106 47.5Q129 21 180 21Q235 21 281 52.5Q327 84 353 126L409 444ZM192 542 197 569H390L385 542Z" glyph-name="umacron" horiz-adv-x="477" unicode="&#363;" /><glyph d="M-20 -71 -15 -42H286L281 -71Z" glyph-name="underscore" horiz-adv-x="341" unicode="_" /><glyph d="M234 616 176 287H147L199 580L106 536L111 567L216 616ZM586 614 69 0H37L554 614ZM405 301 410 328H603V326L487 196Q521 193 544 170.5Q567 148 567 111Q567 62 530.5 28.5Q494 -5 444 -5Q413 -5 391.5 4Q370 13 356 25L362 57Q376 40 398 31Q420 22 444 22Q481 22 510 46.5Q539 71 539 111Q539 142 515.5 159.5Q492 177 455 177H441V179L550 301Z" glyph-name="uni2153" horiz-adv-x="645" unicode="&#8531;" /><glyph d="M116 312H268L263 285H56V287L183 412Q208 436 238 467Q268 498 268 538Q268 561 254 575.5Q240 590 210 590Q182 590 155.5 576Q129 562 108 544L114 577Q133 594 160 606Q187 618 216 618Q256 618 276.5 597Q297 576 297 542Q297 499 268 465Q239 431 204 397ZM635 614 118 0H86L603 614ZM454 301 459 328H652V326L536 196Q570 193 593 170.5Q616 148 616 111Q616 62 579.5 28.5Q543 -5 493 -5Q462 -5 440.5 4Q419 13 405 25L411 57Q425 40 447 31Q469 22 493 22Q530 22 559 46.5Q588 71 588 111Q588 142 564.5 159.5Q541 177 504 177H490V179L599 301Z" glyph-name="uni2154" horiz-adv-x="694" unicode="&#8532;" /><glyph d="M234 616 176 287H147L199 580L106 536L111 567L216 616ZM586 614 69 0H37L554 614ZM445 -5Q407 -5 374 16.5Q341 38 341 82Q341 118 366 144Q391 170 425 177Q406 186 394.5 203Q383 220 383 242Q383 279 413 306Q443 333 488 333Q525 333 552.5 312.5Q580 292 580 255Q580 225 559.5 202Q539 179 511 171Q535 161 550 142Q565 123 565 96Q565 51 528.5 23Q492 -5 445 -5ZM551 253Q551 278 532 293Q513 308 488 308Q455 308 433.5 288Q412 268 412 240Q412 215 431 201Q450 187 475 187Q508 187 529.5 206.5Q551 226 551 253ZM370 84Q370 56 392 38Q414 20 445 20Q483 20 509.5 42Q536 64 536 97Q536 127 513.5 144.5Q491 162 459 162Q422 162 396 139.5Q370 117 370 84Z" glyph-name="uni215B" horiz-adv-x="638" unicode="&#8539;" /><glyph d="M616 614 99 0H67L584 614ZM116 587 121 614H314V612L198 482Q232 479 255 456.5Q278 434 278 397Q278 348 241.5 314.5Q205 281 155 281Q124 281 102.5 290Q81 299 67 311L73 343Q87 326 109 317Q131 308 155 308Q192 308 221 332.5Q250 357 250 397Q250 428 226.5 445.5Q203 463 166 463H152V465L261 587ZM475 -5Q437 -5 404 16.5Q371 38 371 82Q371 118 396 144Q421 170 455 177Q436 186 424.5 203Q413 220 413 242Q413 279 443 306Q473 333 518 333Q555 333 582.5 312.5Q610 292 610 255Q610 225 589.5 202Q569 179 541 171Q565 161 580 142Q595 123 595 96Q595 51 558.5 23Q522 -5 475 -5ZM581 253Q581 278 562 293Q543 308 518 308Q485 308 463.5 288Q442 268 442 240Q442 215 461 201Q480 187 505 187Q538 187 559.5 206.5Q581 226 581 253ZM400 84Q400 56 422 38Q444 20 475 20Q513 20 539.5 42Q566 64 566 97Q566 127 543.5 144.5Q521 162 489 162Q452 162 426 139.5Q400 117 400 84Z" glyph-name="uni215C" horiz-adv-x="668" unicode="&#8540;" /><glyph d="M616 614 99 0H67L584 614ZM279 400Q279 351 242.5 316Q206 281 154 281Q124 281 102 289.5Q80 298 67 310L73 342Q87 325 108 316.5Q129 308 154 308Q192 308 221.5 333Q251 358 251 398Q251 429 230.5 445.5Q210 462 178 462Q153 462 137 457.5Q121 453 105 446L135 614H301L296 587H155L137 481Q145 483 157.5 485.5Q170 488 183 488Q225 488 252 465Q279 442 279 400ZM475 -5Q437 -5 404 16.5Q371 38 371 82Q371 118 396 144Q421 170 455 177Q436 186 424.5 203Q413 220 413 242Q413 279 443 306Q473 333 518 333Q555 333 582.5 312.5Q610 292 610 255Q610 225 589.5 202Q569 179 541 171Q565 161 580 142Q595 123 595 96Q595 51 558.5 23Q522 -5 475 -5ZM581 253Q581 278 562 293Q543 308 518 308Q485 308 463.5 288Q442 268 442 240Q442 215 461 201Q480 187 505 187Q538 187 559.5 206.5Q581 226 581 253ZM400 84Q400 56 422 38Q444 20 475 20Q513 20 539.5 42Q566 64 566 97Q566 127 543.5 144.5Q521 162 489 162Q452 162 426 139.5Q400 117 400 84Z" glyph-name="uni215D" horiz-adv-x="668" unicode="&#8541;" /><glyph d="M329 612 123 286H93L284 587H109L114 614H330ZM566 614 49 0H17L534 614ZM425 -5Q387 -5 354 16.5Q321 38 321 82Q321 118 346 144Q371 170 405 177Q386 186 374.5 203Q363 220 363 242Q363 279 393 306Q423 333 468 333Q505 333 532.5 312.5Q560 292 560 255Q560 225 539.5 202Q519 179 491 171Q515 161 530 142Q545 123 545 96Q545 51 508.5 23Q472 -5 425 -5ZM531 253Q531 278 512 293Q493 308 468 308Q435 308 413.5 288Q392 268 392 240Q392 215 411 201Q430 187 455 187Q488 187 509.5 206.5Q531 226 531 253ZM350 84Q350 56 372 38Q394 20 425 20Q463 20 489.5 42Q516 64 516 97Q516 127 493.5 144.5Q471 162 439 162Q402 162 376 139.5Q350 117 350 84Z" glyph-name="uni215E" horiz-adv-x="618" unicode="&#8542;" /><glyph d="M331 0 345 82Q317 46 273.5 19Q230 -8 180 -8Q118 -8 85 25Q52 58 52 113Q52 121 53 130Q54 139 55 148L107 444H137L86 152Q85 143 84 134Q83 125 83 117Q83 74 106 47.5Q129 21 180 21Q235 21 281 52.5Q327 84 353 126L409 444H439L361 0Q319 -60 303.5 -86.5Q288 -113 288 -135Q288 -145 293.5 -150Q299 -155 308 -155Q319 -155 328.5 -151.5Q338 -148 348 -141L343 -166Q333 -173 324 -176Q315 -179 304 -179Q287 -179 274 -168.5Q261 -158 261 -135Q261 -107 280.5 -77Q300 -47 333 0Z" glyph-name="uogonek" horiz-adv-x="477" unicode="&#371;" /><glyph d="M439 444 361 0H331L345 82Q317 46 273.5 19Q230 -8 180 -8Q118 -8 85 25Q52 58 52 113Q52 121 53 130Q54 139 55 148L107 444H137L86 152Q85 143 84 134Q83 125 83 117Q83 74 106 47.5Q129 21 180 21Q235 21 281 52.5Q327 84 353 126L409 444ZM293 503Q262 503 240.5 524Q219 545 219 576Q219 608 242 632.5Q265 657 299 657Q330 657 351.5 636Q373 615 373 584Q373 552 350 527.5Q327 503 293 503ZM294 528Q315 528 331.5 543.5Q348 559 348 582Q348 603 333.5 617.5Q319 632 298 632Q277 632 260.5 616.5Q244 601 244 578Q244 557 258.5 542.5Q273 528 294 528Z" glyph-name="uring" horiz-adv-x="477" unicode="&#367;" /><glyph d="M439 444 361 0H331L345 82Q317 46 273.5 19Q230 -8 180 -8Q118 -8 85 25Q52 58 52 113Q52 121 53 130Q54 139 55 148L107 444H137L86 152Q85 143 84 134Q83 125 83 117Q83 74 106 47.5Q129 21 180 21Q235 21 281 52.5Q327 84 353 126L409 444ZM395 619H421Q413 576 393 550Q373 524 342 524Q305 524 288 559Q271 594 243 594Q224 594 211 575.5Q198 557 193 527H167Q174 570 194.5 596Q215 622 246 622Q283 622 300 587Q317 552 345 552Q364 552 377 570.5Q390 589 395 619Z" glyph-name="utilde" horiz-adv-x="477" unicode="&#361;" /><glyph d="M169 0H149L57 444H88L167 48L405 444H437Z" glyph-name="v" horiz-adv-x="416" unicode="v" /><glyph d="M342 444 380 59 577 444H607L380 0H359L321 389L123 0H102L57 444H85L125 59L320 444Z" glyph-name="w" horiz-adv-x="586" unicode="w" /><glyph d="M342 444 380 59 577 444H607L380 0H359L321 389L123 0H102L57 444H85L125 59L320 444ZM360 523H326L433 650H467Z" glyph-name="wacute" horiz-adv-x="586" unicode="&#7811;" /><glyph d="M342 444 380 59 577 444H607L380 0H359L321 389L123 0H102L57 444H85L125 59L320 444ZM376 643 444 516H415L361 619L269 516H236L350 643Z" glyph-name="wcircumflex" horiz-adv-x="586" unicode="&#373;" /><glyph d="M342 444 380 59 577 444H607L380 0H359L321 389L123 0H102L57 444H85L125 59L320 444ZM388 570Q388 580 394.5 586.5Q401 593 411 593Q421 593 427.5 586.5Q434 580 434 570Q434 560 427.5 553.5Q421 547 411 547Q401 547 394.5 553.5Q388 560 388 570ZM274 570Q274 580 280.5 586.5Q287 593 297 593Q307 593 313.5 586.5Q320 580 320 570Q320 560 313.5 553.5Q307 547 297 547Q287 547 280.5 553.5Q274 560 274 570Z" glyph-name="wdieresis" horiz-adv-x="586" unicode="&#7813;" /><glyph d="M342 444 380 59 577 444H607L380 0H359L321 389L123 0H102L57 444H85L125 59L320 444ZM363 523H334L271 650H300Z" glyph-name="wgrave" horiz-adv-x="586" unicode="&#7809;" /><glyph d="M430 444 228 224 348 0H317L208 203L23 0H-13L195 227L80 444H111L215 248L394 444Z" glyph-name="x" horiz-adv-x="418" unicode="x" /><glyph d="M67 -170H35L146 14L57 444H88L167 50L404 444H437Z" glyph-name="y" horiz-adv-x="416" unicode="y" /><glyph d="M67 -170H35L146 14L57 444H88L167 50L404 444H437ZM270 523H236L343 650H377Z" glyph-name="yacute" horiz-adv-x="416" unicode="&#253;" /><glyph d="M67 -170H35L146 14L57 444H88L167 50L404 444H437ZM286 643 354 516H325L271 619L179 516H146L260 643Z" glyph-name="ycircumflex" horiz-adv-x="416" unicode="&#375;" /><glyph d="M67 -170H35L146 14L57 444H88L167 50L404 444H437ZM298 570Q298 580 304.5 586.5Q311 593 321 593Q331 593 337.5 586.5Q344 580 344 570Q344 560 337.5 553.5Q331 547 321 547Q311 547 304.5 553.5Q298 560 298 570ZM184 570Q184 580 190.5 586.5Q197 593 207 593Q217 593 223.5 586.5Q230 580 230 570Q230 560 223.5 553.5Q217 547 207 547Q197 547 190.5 553.5Q184 560 184 570Z" glyph-name="ydieresis" horiz-adv-x="416" unicode="&#255;" /><glyph d="M410 151H253L227 0H196L222 151H65L70 178H227L241 261H85L89 288H246L100 614H132L264 316L502 614H539L277 288H434L430 261H272L258 178H415Z" glyph-name="yen" horiz-adv-x="503" unicode="&#165;" /><glyph d="M399 151H242L216 0H185L211 151H54L59 178H216L230 261H74L78 288H235L89 614H121L253 316L491 614H528L266 288H423L419 261H261L247 178H404Z" glyph-name="yen.lt" horiz-adv-x="520" /><glyph d="M67 -170H35L146 14L57 444H88L167 50L404 444H437ZM272 523H243L180 650H209Z" glyph-name="ygrave" horiz-adv-x="416" unicode="&#7923;" /><glyph d="M327 28 323 0H-11V4L363 416H94L99 444H421V440L48 28Z" glyph-name="z" horiz-adv-x="411" unicode="z" /><glyph d="M327 28 323 0H-11V4L363 416H94L99 444H421V440L48 28ZM291 523H257L364 650H398Z" glyph-name="zacute" horiz-adv-x="411" unicode="&#378;" /><glyph d="M327 28 323 0H-11V4L363 416H94L99 444H421V440L48 28ZM263 518 195 645H224L278 542L370 645H403L289 518Z" glyph-name="zcaron" horiz-adv-x="411" unicode="&#382;" /><glyph d="M327 28 323 0H-11V4L363 416H94L99 444H421V440L48 28ZM309 579Q309 569 302.5 562Q296 555 286 555Q276 555 269.5 562Q263 569 263 579Q263 589 269.5 596Q276 603 286 603Q296 603 302.5 596Q309 589 309 579Z" glyph-name="zdotaccent" horiz-adv-x="411" unicode="&#380;" /><glyph d="M244 -8Q159 -8 108.5 56.5Q58 121 58 231Q58 386 134 504Q210 622 326 622Q411 622 461.5 557.5Q512 493 512 383Q512 228 436 110Q360 -8 244 -8ZM243 21Q344 21 412.5 130Q481 239 481 383Q481 479 440 536Q399 593 327 593Q226 593 157.5 484Q89 375 89 231Q89 135 130 78Q171 21 243 21Z" glyph-name="zero" horiz-adv-x="534" unicode="0" /><glyph d="M229 -8Q144 -8 93.5 56.5Q43 121 43 231Q43 386 119 504Q195 622 311 622Q396 622 446.5 557.5Q497 493 497 383Q497 228 421 110Q345 -8 229 -8ZM228 21Q329 21 397.5 130Q466 239 466 383Q466 479 425 536Q384 593 312 593Q211 593 142.5 484Q74 375 74 231Q74 135 115 78Q156 21 228 21Z" glyph-name="zero.lt" horiz-adv-x="520" /></font>
</defs>
</svg>
