<?xml version="1.0" standalone="no"?><!DOCTYPE svg PUBLIC "-//W3C//DTD SVG 1.1//EN" "http://www.w3.org/Graphics/SVG/1.1/DTD/svg11.dtd" ><svg version="1.1" xmlns="http://www.w3.org/2000/svg"><defs><font horiz-adv-x="0" id="font"><font-face ascent="750" bbox="-160 -217 942 894" cap-height="614" descent="-250" font-family="Copyright Klim Type Foundry" font-stretch="normal" font-style="normal" font-weight="500" units-per-em="1000" x-height="444" /><missing-glyph horiz-adv-x="608" /><glyph d="M305 487 221 260H389ZM486 0 423 170H188L125 0H20L256 614H356L592 0Z" glyph-name="A" horiz-adv-x="612" unicode="A" /><glyph d="M439 533 280 260H439ZM439 0V170H227L128 0H20L375 614H820V522H541V360H792V269H541V93H820V0Z" glyph-name="AE" horiz-adv-x="865" unicode="&#198;" /><glyph d="M620 671H522L599 788H715ZM439 533 280 260H439ZM439 0V170H227L128 0H20L375 614H820V522H541V360H792V269H541V93H820V0Z" glyph-name="AEacute" horiz-adv-x="865" unicode="&#508;" /><glyph d="M305 487 221 260H389ZM486 0 423 170H188L125 0H20L256 614H356L592 0ZM348 671H250L327 788H443Z" glyph-name="Aacute" horiz-adv-x="612" unicode="&#193;" /><glyph d="M305 487 221 260H389ZM486 0 423 170H188L125 0H20L256 614H356L592 0ZM306 667Q277 667 253.5 675Q230 683 213.5 699Q197 715 188 738Q179 761 179 791H252Q252 778 256 768.5Q260 759 267 752.5Q274 746 284 743Q294 740 306 740Q319 740 329 743Q339 746 346 752.5Q353 759 357 768.5Q361 778 361 791H434Q434 761 425 738Q416 715 399.5 699Q383 683 359 675Q335 667 306 667Z" glyph-name="Abreve" horiz-adv-x="612" unicode="&#258;" /><glyph d="M305 487 221 260H389ZM486 0 423 170H188L125 0H20L256 614H356L592 0ZM352 795 446 671H357L306 731L255 671H166L260 795Z" glyph-name="Acircumflex" horiz-adv-x="612" unicode="&#194;" /><glyph d="M305 487 221 260H389ZM486 0 423 170H188L125 0H20L256 614H356L592 0ZM325 728Q325 740 329.5 751Q334 762 342 770Q350 778 360.5 782.5Q371 787 383 787Q395 787 405.5 782.5Q416 778 424.5 770Q433 762 437.5 751Q442 740 442 728Q442 716 437.5 705.5Q433 695 424.5 687Q416 679 405.5 674.5Q395 670 383 670Q371 670 360.5 674.5Q350 679 342 687Q334 695 329.5 705.5Q325 716 325 728ZM171 728Q171 741 175.5 751.5Q180 762 188 770Q196 778 207 782.5Q218 787 230 787Q242 787 252.5 782.5Q263 778 271 770Q279 762 283.5 751Q288 740 288 728Q288 716 283.5 705.5Q279 695 271 687Q263 679 252.5 674.5Q242 670 230 670Q218 670 207 674.5Q196 679 188 687Q180 695 175.5 705.5Q171 716 171 728Z" glyph-name="Adieresis" horiz-adv-x="612" unicode="&#196;" /><glyph d="M305 487 221 260H389ZM486 0 423 170H188L125 0H20L256 614H356L592 0ZM359 671H261L166 788H282Z" glyph-name="Agrave" horiz-adv-x="612" unicode="&#192;" /><glyph d="M305 487 221 260H389ZM486 0 423 170H188L125 0H20L256 614H356L592 0ZM194 671V750H419V671Z" glyph-name="Amacron" horiz-adv-x="612" unicode="&#256;" /><glyph d="M256 614H356L592 0Q544 -76 551 -65Q558 -54 553 -63.5Q548 -73 545.5 -80.5Q543 -88 543 -97Q543 -102 544.5 -106.5Q546 -111 548.5 -114Q551 -117 555 -118.5Q559 -120 564 -120Q568 -120 572.5 -119Q577 -118 581 -116Q585 -114 589.5 -111.5Q594 -109 601 -104V-168Q595 -173 588 -177Q581 -181 574 -184Q567 -187 559 -188.5Q551 -190 542 -190Q523 -190 508.5 -184.5Q494 -179 485 -169.5Q476 -160 471.5 -147Q467 -134 467 -118Q467 -103 471 -88.5Q475 -74 482.5 -60.5Q490 -47 493.5 -42Q497 -37 521 0H486L423 170H188L125 0H20ZM305 487 221 260H389Z" glyph-name="Aogonek" horiz-adv-x="612" unicode="&#260;" /><glyph d="M305 487 221 260H389ZM486 0 423 170H188L125 0H20L256 614H356L592 0ZM399 740Q399 721 392 704Q385 687 372 675Q359 663 342 656Q325 649 306 649Q287 649 270 656Q253 663 240 675Q227 687 220 704Q213 721 213 740Q213 759 220 776Q227 793 240 805Q253 817 270 824Q287 831 306 831Q325 831 342 824Q359 817 372 805Q385 793 392 776Q399 759 399 740ZM348 740Q348 749 344.5 756.5Q341 764 335.5 770Q330 776 322.5 779Q315 782 306 782Q297 782 289.5 779Q282 776 276.5 770Q271 764 267.5 756.5Q264 749 264 740Q264 731 267.5 723.5Q271 716 276.5 710Q282 704 289.5 701Q297 698 306 698Q315 698 322.5 701Q330 704 335.5 710Q341 716 344.5 723.5Q348 731 348 740Z" glyph-name="Aring" horiz-adv-x="612" unicode="&#197;" /><glyph d="M361 806H263L316 894H432ZM398 710Q398 694 391 680Q384 666 371 655.5Q358 645 341 639Q324 633 305 633Q286 633 269 639Q252 645 239 655.5Q226 666 219 680Q212 694 212 710Q212 726 219 740Q226 754 239 764.5Q252 775 269 781Q286 787 305 787Q324 787 341 781Q358 775 371 764.5Q384 754 391 740Q398 726 398 710ZM347 710Q347 717 344 723Q341 729 335 733.5Q329 738 321.5 740Q314 742 305 742Q296 742 288.5 740Q281 738 275 733.5Q269 729 266 723Q263 717 263 710Q263 703 266 697Q269 691 275 686.5Q281 682 288.5 680Q296 678 305 678Q314 678 321.5 680Q329 682 335 686.5Q341 691 344 697Q347 703 347 710ZM305 487 221 260H389ZM486 0 423 170H188L125 0H20L256 614H356L592 0Z" glyph-name="Aringacute" horiz-adv-x="612" unicode="&#506;" /><glyph d="M305 487 221 260H389ZM486 0 423 170H188L125 0H20L256 614H356L592 0ZM389 797H449Q449 768 443.5 743.5Q438 719 428 702Q418 685 402 675.5Q386 666 366 666Q350 666 336.5 672.5Q323 679 305 691Q287 703 277 708.5Q267 714 255 714Q247 714 241 711.5Q235 709 231.5 703.5Q228 698 225.5 689.5Q223 681 223 669H163Q163 698 168.5 722.5Q174 747 184 764Q194 781 210 790.5Q226 800 246 800Q262 800 275.5 794Q289 788 307 775.5Q325 763 335 757.5Q345 752 357 752Q365 752 370.5 754.5Q376 757 380 762.5Q384 768 386.5 776.5Q389 785 389 797Z" glyph-name="Atilde" horiz-adv-x="612" unicode="&#195;" /><glyph d="M411 317Q433 310 451 296Q469 282 482.5 263.5Q496 245 503.5 222.5Q511 200 511 176Q511 133 496.5 100Q482 67 455 45Q428 23 389.5 11.5Q351 0 303 0H68V614H283Q331 614 369.5 603.5Q408 593 435 571.5Q462 550 476.5 519Q491 488 491 447Q491 423 485 401.5Q479 380 468 363.5Q457 347 442.5 335Q428 323 411 317ZM169 356H282Q309 356 329 361Q349 366 363 376.5Q377 387 384 403Q391 419 391 441Q391 463 384 478.5Q377 494 363 504Q349 514 329 519Q309 524 282 524H169ZM169 270V90H301Q327 90 347 96Q367 102 381 114Q395 126 402 142.5Q409 159 409 180Q409 201 402 217.5Q395 234 381 246Q367 258 347 264Q327 270 301 270Z" glyph-name="B" horiz-adv-x="551" unicode="B" /><glyph d="M35 307Q35 377 57 435.5Q79 494 119 536.5Q159 579 213.5 601.5Q268 624 332 624Q358 624 381 620.5Q404 617 424 610Q444 603 462 593.5Q480 584 495 571V463Q476 480 457.5 493Q439 506 419 514.5Q399 523 378 527Q357 531 333 531Q290 531 254 515Q218 499 192.5 469Q167 439 153.5 397.5Q140 356 140 307Q140 258 153.5 217Q167 176 192.5 146Q218 116 254 100Q290 84 333 84Q357 84 378 88Q399 92 419 100Q439 108 458 121Q477 134 495 151V43Q480 30 462 20.5Q444 11 424 4Q404 -3 381 -6.5Q358 -10 332 -10Q268 -10 213.5 12.5Q159 35 119 77.5Q79 120 57 178.5Q35 237 35 307Z" glyph-name="C" horiz-adv-x="545" unicode="C" /><glyph d="M35 307Q35 377 57 435.5Q79 494 119 536.5Q159 579 213.5 601.5Q268 624 332 624Q358 624 381 620.5Q404 617 424 610Q444 603 462 593.5Q480 584 495 571V463Q476 480 457.5 493Q439 506 419 514.5Q399 523 378 527Q357 531 333 531Q290 531 254 515Q218 499 192.5 469Q167 439 153.5 397.5Q140 356 140 307Q140 258 153.5 217Q167 176 192.5 146Q218 116 254 100Q290 84 333 84Q357 84 378 88Q399 92 419 100Q439 108 458 121Q477 134 495 151V43Q480 30 462 20.5Q444 11 424 4Q404 -3 381 -6.5Q358 -10 332 -10Q268 -10 213.5 12.5Q159 35 119 77.5Q79 120 57 178.5Q35 237 35 307ZM373 671H275L352 788H468Z" glyph-name="Cacute" horiz-adv-x="545" unicode="&#262;" /><glyph d="M35 307Q35 377 57 435.5Q79 494 119 536.5Q159 579 213.5 601.5Q268 624 332 624Q358 624 381 620.5Q404 617 424 610Q444 603 462 593.5Q480 584 495 571V463Q476 480 457.5 493Q439 506 419 514.5Q399 523 378 527Q357 531 333 531Q290 531 254 515Q218 499 192.5 469Q167 439 153.5 397.5Q140 356 140 307Q140 258 153.5 217Q167 176 192.5 146Q218 116 254 100Q290 84 333 84Q357 84 378 88Q399 92 419 100Q439 108 458 121Q477 134 495 151V43Q480 30 462 20.5Q444 11 424 4Q404 -3 381 -6.5Q358 -10 332 -10Q268 -10 213.5 12.5Q159 35 119 77.5Q79 120 57 178.5Q35 237 35 307ZM285 671 191 795H280L331 735L382 795H471L377 671Z" glyph-name="Ccaron" horiz-adv-x="545" unicode="&#268;" /><glyph d="M35 307Q35 377 57 435.5Q79 494 119 536.5Q159 579 213.5 601.5Q268 624 332 624Q358 624 381 620.5Q404 617 424 610Q444 603 462 593.5Q480 584 495 571V463Q476 480 457.5 493Q439 506 419 514.5Q399 523 378 527Q357 531 333 531Q290 531 254 515Q218 499 192.5 469Q167 439 153.5 397.5Q140 356 140 307Q140 258 153.5 217Q167 176 192.5 146Q218 116 254 100Q290 84 333 84Q357 84 378 88Q399 92 419 100Q439 108 458 121Q477 134 495 151V43Q480 30 462 20.5Q444 11 424 4Q404 -3 381 -6.5Q358 -10 332 -10Q268 -10 213.5 12.5Q159 35 119 77.5Q79 120 57 178.5Q35 237 35 307ZM309 -190H216L287 -53H386Z" glyph-name="Ccedilla" horiz-adv-x="545" unicode="&#199;" /><glyph d="M35 307Q35 377 57 435.5Q79 494 119 536.5Q159 579 213.5 601.5Q268 624 332 624Q358 624 381 620.5Q404 617 424 610Q444 603 462 593.5Q480 584 495 571V463Q476 480 457.5 493Q439 506 419 514.5Q399 523 378 527Q357 531 333 531Q290 531 254 515Q218 499 192.5 469Q167 439 153.5 397.5Q140 356 140 307Q140 258 153.5 217Q167 176 192.5 146Q218 116 254 100Q290 84 333 84Q357 84 378 88Q399 92 419 100Q439 108 458 121Q477 134 495 151V43Q480 30 462 20.5Q444 11 424 4Q404 -3 381 -6.5Q358 -10 332 -10Q268 -10 213.5 12.5Q159 35 119 77.5Q79 120 57 178.5Q35 237 35 307ZM377 795 471 671H382L331 731L280 671H191L285 795Z" glyph-name="Ccircumflex" horiz-adv-x="545" unicode="&#264;" /><glyph d="M388 728Q388 716 383 704.5Q378 693 369.5 684.5Q361 676 349.5 671.5Q338 667 326 667Q314 667 302.5 671.5Q291 676 282.5 684.5Q274 693 269 704.5Q264 716 264 728Q264 740 269 751.5Q274 763 282.5 771.5Q291 780 302.5 784.5Q314 789 326 789Q338 789 349.5 784.5Q361 780 369.5 771.5Q378 763 383 751.5Q388 740 388 728ZM35 307Q35 377 57 435.5Q79 494 119 536.5Q159 579 213.5 601.5Q268 624 332 624Q358 624 381 620.5Q404 617 424 610Q444 603 462 593.5Q480 584 495 571V463Q476 480 457.5 493Q439 506 419 514.5Q399 523 378 527Q357 531 333 531Q290 531 254 515Q218 499 192.5 469Q167 439 153.5 397.5Q140 356 140 307Q140 258 153.5 217Q167 176 192.5 146Q218 116 254 100Q290 84 333 84Q357 84 378 88Q399 92 419 100Q439 108 458 121Q477 134 495 151V43Q480 30 462 20.5Q444 11 424 4Q404 -3 381 -6.5Q358 -10 332 -10Q268 -10 213.5 12.5Q159 35 119 77.5Q79 120 57 178.5Q35 237 35 307Z" glyph-name="Cdotaccent" horiz-adv-x="545" unicode="&#266;" /><glyph d="M68 0V614H275Q342 614 397.5 592.5Q453 571 492 530.5Q531 490 552 433Q573 376 573 307Q573 238 552 181Q531 124 492 83.5Q453 43 397.5 21.5Q342 0 275 0ZM172 93H271Q319 93 356 108Q393 123 418 151Q443 179 456 218.5Q469 258 469 307Q469 357 456 396.5Q443 436 418 464Q393 492 356 507Q319 522 271 522H172Z" glyph-name="D" horiz-adv-x="608" unicode="D" /><glyph d="M236 671 142 795H231L282 735L333 795H422L328 671ZM68 0V614H275Q342 614 397.5 592.5Q453 571 492 530.5Q531 490 552 433Q573 376 573 307Q573 238 552 181Q531 124 492 83.5Q453 43 397.5 21.5Q342 0 275 0ZM172 93H271Q319 93 356 108Q393 123 418 151Q443 179 456 218.5Q469 258 469 307Q469 357 456 396.5Q443 436 418 464Q393 492 356 507Q319 522 271 522H172Z" glyph-name="Dcaron" horiz-adv-x="608" unicode="&#270;" /><glyph d="M292 0H85V273H30V361H85V614H292Q359 614 414.5 592.5Q470 571 509 530.5Q548 490 569 433Q590 376 590 307Q590 238 569 181Q548 124 509 83.5Q470 43 414.5 21.5Q359 0 292 0ZM189 93H288Q336 93 373 108Q410 123 435 151Q460 179 473 218.5Q486 258 486 307Q486 357 473 396.5Q460 436 435 464Q410 492 373 507Q336 522 288 522H189V361H305V273H189Z" glyph-name="Dcroat" horiz-adv-x="625" unicode="&#272;" /><glyph d="M68 614H469V522H170V360H441V269H170V93H469V0H68Z" glyph-name="E" horiz-adv-x="514" unicode="E" /><glyph d="M314 671H216L293 788H409ZM68 614H469V522H170V360H441V269H170V93H469V0H68Z" glyph-name="Eacute" horiz-adv-x="514" unicode="&#201;" /><glyph d="M272 667Q243 667 219.5 675Q196 683 179.5 699Q163 715 154 738Q145 761 145 791H218Q218 778 222 768.5Q226 759 233 752.5Q240 746 250 743Q260 740 272 740Q285 740 295 743Q305 746 312 752.5Q319 759 323 768.5Q327 778 327 791H400Q400 761 391 738Q382 715 365.5 699Q349 683 325 675Q301 667 272 667ZM68 614H469V522H170V360H441V269H170V93H469V0H68Z" glyph-name="Ebreve" horiz-adv-x="514" unicode="&#276;" /><glyph d="M226 671 132 795H221L272 735L323 795H412L318 671ZM68 614H469V522H170V360H441V269H170V93H469V0H68Z" glyph-name="Ecaron" horiz-adv-x="514" unicode="&#282;" /><glyph d="M68 614H469V522H170V360H441V269H170V93H469V0H68ZM318 795 412 671H323L272 731L221 671H132L226 795Z" glyph-name="Ecircumflex" horiz-adv-x="514" unicode="&#202;" /><glyph d="M291 728Q291 740 295.5 751Q300 762 308 770Q316 778 326.5 782.5Q337 787 349 787Q361 787 371.5 782.5Q382 778 390.5 770Q399 762 403.5 751Q408 740 408 728Q408 716 403.5 705.5Q399 695 390.5 687Q382 679 371.5 674.5Q361 670 349 670Q337 670 326.5 674.5Q316 679 308 687Q300 695 295.5 705.5Q291 716 291 728ZM137 728Q137 741 141.5 751.5Q146 762 154 770Q162 778 173 782.5Q184 787 196 787Q208 787 218.5 782.5Q229 778 237 770Q245 762 249.5 751Q254 740 254 728Q254 716 249.5 705.5Q245 695 237 687Q229 679 218.5 674.5Q208 670 196 670Q184 670 173 674.5Q162 679 154 687Q146 695 141.5 705.5Q137 716 137 728ZM68 614H469V522H170V360H441V269H170V93H469V0H68Z" glyph-name="Edieresis" horiz-adv-x="514" unicode="&#203;" /><glyph d="M334 728Q334 716 329 704.5Q324 693 315.5 684.5Q307 676 295.5 671.5Q284 667 272 667Q260 667 248.5 671.5Q237 676 228.5 684.5Q220 693 215 704.5Q210 716 210 728Q210 740 215 751.5Q220 763 228.5 771.5Q237 780 248.5 784.5Q260 789 272 789Q284 789 295.5 784.5Q307 780 315.5 771.5Q324 763 329 751.5Q334 740 334 728ZM68 614H469V522H170V360H441V269H170V93H469V0H68Z" glyph-name="Edotaccent" horiz-adv-x="514" unicode="&#278;" /><glyph d="M325 671H227L132 788H248ZM68 614H469V522H170V360H441V269H170V93H469V0H68Z" glyph-name="Egrave" horiz-adv-x="514" unicode="&#200;" /><glyph d="M160 671V750H385V671ZM68 614H469V522H170V360H441V269H170V93H469V0H68Z" glyph-name="Emacron" horiz-adv-x="514" unicode="&#274;" /><glyph d="M271 -169V-67Q282 -74 293 -79Q304 -84 315.5 -87.5Q327 -91 339.5 -93Q352 -95 366 -95Q391 -95 409 -88.5Q427 -82 438.5 -67Q450 -52 456 -28.5Q462 -5 462 29L168 447V0H68V614H166L462 188V614H562V32Q562 -25 550 -67Q538 -109 514 -136.5Q490 -164 454.5 -177Q419 -190 372 -190Q358 -190 344 -188.5Q330 -187 317.5 -184Q305 -181 293.5 -177Q282 -173 271 -169Z" glyph-name="Eng" horiz-adv-x="630" unicode="&#330;" /><glyph d="M68 614H469V522H170V360H441V269H170V93H469V0H435Q402 -53 402.5 -51.5Q403 -50 397 -60.5Q391 -71 388.5 -79.5Q386 -88 386 -97Q386 -102 387.5 -106.5Q389 -111 391.5 -114Q394 -117 398 -118.5Q402 -120 407 -120Q411 -120 415.5 -119Q420 -118 424 -116Q428 -114 432.5 -111.5Q437 -109 444 -104V-168Q438 -173 431 -177Q424 -181 417 -184Q410 -187 402 -188.5Q394 -190 385 -190Q366 -190 351.5 -184.5Q337 -179 328 -169.5Q319 -160 314.5 -147Q310 -134 310 -118Q310 -103 314.5 -88Q319 -73 326 -59Q333 -45 363 0H68Z" glyph-name="Eogonek" horiz-adv-x="514" unicode="&#280;" /><glyph d="M292 0H85V273H30V361H85V614H292Q359 614 414.5 592.5Q470 571 509 530.5Q548 490 569 433Q590 376 590 307Q590 238 569 181Q548 124 509 83.5Q470 43 414.5 21.5Q359 0 292 0ZM189 93H288Q336 93 373 108Q410 123 435 151Q460 179 473 218.5Q486 258 486 307Q486 357 473 396.5Q460 436 435 464Q410 492 373 507Q336 522 288 522H189V361H305V273H189Z" glyph-name="Eth" horiz-adv-x="625" unicode="&#208;" /><glyph d="M466 17Q454 11 440.5 6Q427 1 412.5 -2.5Q398 -6 382.5 -8Q367 -10 350 -10Q303 -10 261 4.5Q219 19 184 46Q149 73 123.5 111Q98 149 84 196H20V273H70Q70 277 69.5 281Q69 285 69 289Q69 293 69 297Q69 301 69 307Q69 312 69 315.5Q69 319 69 322.5Q69 326 69.5 329.5Q70 333 70 336H20V413H83Q96 461 121.5 500Q147 539 182 567Q217 595 259.5 609.5Q302 624 350 624Q367 624 382.5 622Q398 620 412.5 616.5Q427 613 440.5 608Q454 603 466 597V496Q453 505 439.5 512Q426 519 411.5 523.5Q397 528 382 530.5Q367 533 351 533Q323 533 298 524.5Q273 516 252 500.5Q231 485 215 463Q199 441 188 413H374L359 336H170Q170 333 169.5 329.5Q169 326 169 322.5Q169 319 169 315.5Q169 312 169 307Q169 303 169 298.5Q169 294 169.5 290Q170 286 170.5 282.5Q171 279 171 273H350L335 196H190Q201 169 217 148Q233 127 254 112Q275 97 299.5 89Q324 81 351 81Q367 81 382 83.5Q397 86 411.5 90.5Q426 95 439.5 102Q453 109 466 118Z" glyph-name="Euro" horiz-adv-x="496" unicode="&#8364;" /><glyph d="M483 17Q471 11 457.5 6Q444 1 429.5 -2.5Q415 -6 399.5 -8Q384 -10 367 -10Q320 -10 278 4.5Q236 19 201 46Q166 73 140.5 111Q115 149 101 196H37V273H87Q87 277 86.5 281Q86 285 86 289Q86 293 86 297Q86 301 86 307Q86 312 86 315.5Q86 319 86 322.5Q86 326 86.5 329.5Q87 333 87 336H37V413H100Q113 461 138.5 500Q164 539 199 567Q234 595 276.5 609.5Q319 624 367 624Q384 624 399.5 622Q415 620 429.5 616.5Q444 613 457.5 608Q471 603 483 597V496Q470 505 456.5 512Q443 519 428.5 523.5Q414 528 399 530.5Q384 533 368 533Q340 533 315 524.5Q290 516 269 500.5Q248 485 232 463Q216 441 205 413H391L376 336H187Q187 333 186.5 329.5Q186 326 186 322.5Q186 319 186 315.5Q186 312 186 307Q186 303 186 298.5Q186 294 186.5 290Q187 286 187.5 282.5Q188 279 188 273H367L352 196H207Q218 169 234 148Q250 127 271 112Q292 97 316.5 89Q341 81 368 81Q384 81 399 83.5Q414 86 428.5 90.5Q443 95 456.5 102Q470 109 483 118Z" glyph-name="Euro.lt" horiz-adv-x="520" /><glyph d="M172 0H68V614H460V522H172V340H441V249H172Z" glyph-name="F" horiz-adv-x="495" unicode="F" /><glyph d="M332 82Q350 82 366.5 84.5Q383 87 398 92Q413 97 427 104.5Q441 112 453 122V240H337V327H549V81Q527 58 501.5 40.5Q476 23 447.5 12Q419 1 389.5 -4.5Q360 -10 330 -10Q263 -10 208 13Q153 36 114.5 78.5Q76 121 55.5 179Q35 237 35 307Q35 376 58 434.5Q81 493 122.5 535.5Q164 578 220.5 601Q277 624 342 624Q368 624 392.5 620.5Q417 617 439 610Q461 603 480.5 593Q500 583 516 571V463Q496 480 476 493Q456 506 434.5 514.5Q413 523 390 527Q367 531 342 531Q298 531 260.5 515Q223 499 196 469Q169 439 154.5 397.5Q140 356 140 307Q140 258 153 216.5Q166 175 191 145Q216 115 251.5 98.5Q287 82 332 82Z" glyph-name="G" horiz-adv-x="599" unicode="G" /><glyph d="M338 667Q309 667 285.5 675Q262 683 245.5 699Q229 715 220 738Q211 761 211 791H284Q284 778 288 768.5Q292 759 299 752.5Q306 746 316 743Q326 740 338 740Q351 740 361 743Q371 746 378 752.5Q385 759 389 768.5Q393 778 393 791H466Q466 761 457 738Q448 715 431.5 699Q415 683 391 675Q367 667 338 667ZM332 82Q350 82 366.5 84.5Q383 87 398 92Q413 97 427 104.5Q441 112 453 122V240H337V327H549V81Q527 58 501.5 40.5Q476 23 447.5 12Q419 1 389.5 -4.5Q360 -10 330 -10Q263 -10 208 13Q153 36 114.5 78.5Q76 121 55.5 179Q35 237 35 307Q35 376 58 434.5Q81 493 122.5 535.5Q164 578 220.5 601Q277 624 342 624Q368 624 392.5 620.5Q417 617 439 610Q461 603 480.5 593Q500 583 516 571V463Q496 480 476 493Q456 506 434.5 514.5Q413 523 390 527Q367 531 342 531Q298 531 260.5 515Q223 499 196 469Q169 439 154.5 397.5Q140 356 140 307Q140 258 153 216.5Q166 175 191 145Q216 115 251.5 98.5Q287 82 332 82Z" glyph-name="Gbreve" horiz-adv-x="599" unicode="&#286;" /><glyph d="M332 82Q350 82 366.5 84.5Q383 87 398 92Q413 97 427 104.5Q441 112 453 122V240H337V327H549V81Q527 58 501.5 40.5Q476 23 447.5 12Q419 1 389.5 -4.5Q360 -10 330 -10Q263 -10 208 13Q153 36 114.5 78.5Q76 121 55.5 179Q35 237 35 307Q35 376 58 434.5Q81 493 122.5 535.5Q164 578 220.5 601Q277 624 342 624Q368 624 392.5 620.5Q417 617 439 610Q461 603 480.5 593Q500 583 516 571V463Q496 480 476 493Q456 506 434.5 514.5Q413 523 390 527Q367 531 342 531Q298 531 260.5 515Q223 499 196 469Q169 439 154.5 397.5Q140 356 140 307Q140 258 153 216.5Q166 175 191 145Q216 115 251.5 98.5Q287 82 332 82ZM384 795 478 671H389L338 731L287 671H198L292 795Z" glyph-name="Gcircumflex" horiz-adv-x="599" unicode="&#284;" /><glyph d="M285 -217 327 -157Q316 -156 306.5 -151Q297 -146 290.5 -139Q284 -132 280 -122.5Q276 -113 276 -102Q276 -90 281 -79Q286 -68 294.5 -60Q303 -52 314.5 -48Q326 -44 339 -44Q352 -44 363 -48.5Q374 -53 382.5 -61Q391 -69 395.5 -80.5Q400 -92 400 -106Q400 -116 397.5 -125Q395 -134 391.5 -143Q388 -152 383 -160Q378 -168 372 -177L345 -217ZM332 82Q350 82 366.5 84.5Q383 87 398 92Q413 97 427 104.5Q441 112 453 122V240H337V327H549V81Q527 58 501.5 40.5Q476 23 447.5 12Q419 1 389.5 -4.5Q360 -10 330 -10Q263 -10 208 13Q153 36 114.5 78.5Q76 121 55.5 179Q35 237 35 307Q35 376 58 434.5Q81 493 122.5 535.5Q164 578 220.5 601Q277 624 342 624Q368 624 392.5 620.5Q417 617 439 610Q461 603 480.5 593Q500 583 516 571V463Q496 480 476 493Q456 506 434.5 514.5Q413 523 390 527Q367 531 342 531Q298 531 260.5 515Q223 499 196 469Q169 439 154.5 397.5Q140 356 140 307Q140 258 153 216.5Q166 175 191 145Q216 115 251.5 98.5Q287 82 332 82Z" glyph-name="Gcommaaccent" horiz-adv-x="599" unicode="&#290;" /><glyph d="M395 728Q395 716 390 704.5Q385 693 376.5 684.5Q368 676 356.5 671.5Q345 667 333 667Q321 667 309.5 671.5Q298 676 289.5 684.5Q281 693 276 704.5Q271 716 271 728Q271 740 276 751.5Q281 763 289.5 771.5Q298 780 309.5 784.5Q321 789 333 789Q345 789 356.5 784.5Q368 780 376.5 771.5Q385 763 390 751.5Q395 740 395 728ZM332 82Q350 82 366.5 84.5Q383 87 398 92Q413 97 427 104.5Q441 112 453 122V240H337V327H549V81Q527 58 501.5 40.5Q476 23 447.5 12Q419 1 389.5 -4.5Q360 -10 330 -10Q263 -10 208 13Q153 36 114.5 78.5Q76 121 55.5 179Q35 237 35 307Q35 376 58 434.5Q81 493 122.5 535.5Q164 578 220.5 601Q277 624 342 624Q368 624 392.5 620.5Q417 617 439 610Q461 603 480.5 593Q500 583 516 571V463Q496 480 476 493Q456 506 434.5 514.5Q413 523 390 527Q367 531 342 531Q298 531 260.5 515Q223 499 196 469Q169 439 154.5 397.5Q140 356 140 307Q140 258 153 216.5Q166 175 191 145Q216 115 251.5 98.5Q287 82 332 82Z" glyph-name="Gdotaccent" horiz-adv-x="599" unicode="&#288;" /><glyph d="M481 614H585V0H481V269H172V0H68V614H172V361H481Z" glyph-name="H" horiz-adv-x="653" unicode="H" /><glyph d="M187 315H496V423H187ZM187 229V0H83V423H30V509H83V614H187V509H496V614H600V509H653V423H600V0H496V229Z" glyph-name="Hbar" horiz-adv-x="683" unicode="&#294;" /><glyph d="M481 614H585V0H481V269H172V0H68V614H172V361H481ZM372 795 466 671H377L326 731L275 671H186L280 795Z" glyph-name="Hcircumflex" horiz-adv-x="653" unicode="&#292;" /><glyph d="M172 614V0H68V614Z" glyph-name="I" horiz-adv-x="240" unicode="I" /><glyph d="M172 614V0H68V614ZM240 24V129Q257 118 270.5 110.5Q284 103 298.5 97Q313 91 329 88Q345 85 362 85Q387 85 404.5 92.5Q422 100 433 116Q444 132 449 157Q454 182 454 217V614H558V212Q558 154 546 112.5Q534 71 509.5 43.5Q485 16 449 3Q413 -10 364 -10Q346 -10 328.5 -7Q311 -4 294.5 1Q278 6 264.5 12Q251 18 240 24Z" glyph-name="IJ" horiz-adv-x="614" unicode="&#306;" /><glyph d="M172 614V0H68V614ZM162 671H64L141 788H257Z" glyph-name="Iacute" horiz-adv-x="240" unicode="&#205;" /><glyph d="M172 614V0H68V614ZM120 667Q91 667 67.5 675Q44 683 27.5 699Q11 715 2 738Q-7 761 -7 791H66Q66 778 70 768.5Q74 759 81 752.5Q88 746 98 743Q108 740 120 740Q133 740 143 743Q153 746 160 752.5Q167 759 171 768.5Q175 778 175 791H248Q248 761 239 738Q230 715 213.5 699Q197 683 173 675Q149 667 120 667Z" glyph-name="Ibreve" horiz-adv-x="240" unicode="&#300;" /><glyph d="M172 614V0H68V614ZM166 795 260 671H171L120 731L69 671H-20L74 795Z" glyph-name="Icircumflex" horiz-adv-x="240" unicode="&#206;" /><glyph d="M172 614V0H68V614ZM139 728Q139 740 143.5 751Q148 762 156 770Q164 778 174.5 782.5Q185 787 197 787Q209 787 219.5 782.5Q230 778 238.5 770Q247 762 251.5 751Q256 740 256 728Q256 716 251.5 705.5Q247 695 238.5 687Q230 679 219.5 674.5Q209 670 197 670Q185 670 174.5 674.5Q164 679 156 687Q148 695 143.5 705.5Q139 716 139 728ZM-15 728Q-15 741 -10.5 751.5Q-6 762 2 770Q10 778 21 782.5Q32 787 44 787Q56 787 66.5 782.5Q77 778 85 770Q93 762 97.5 751Q102 740 102 728Q102 716 97.5 705.5Q93 695 85 687Q77 679 66.5 674.5Q56 670 44 670Q32 670 21 674.5Q10 679 2 687Q-6 695 -10.5 705.5Q-15 716 -15 728Z" glyph-name="Idieresis" horiz-adv-x="240" unicode="&#207;" /><glyph d="M172 614V0H68V614ZM182 728Q182 716 177 704.5Q172 693 163.5 684.5Q155 676 143.5 671.5Q132 667 120 667Q108 667 96.5 671.5Q85 676 76.5 684.5Q68 693 63 704.5Q58 716 58 728Q58 740 63 751.5Q68 763 76.5 771.5Q85 780 96.5 784.5Q108 789 120 789Q132 789 143.5 784.5Q155 780 163.5 771.5Q172 763 177 751.5Q182 740 182 728Z" glyph-name="Idotaccent" horiz-adv-x="240" unicode="&#304;" /><glyph d="M172 614V0H68V614ZM173 671H75L-20 788H96Z" glyph-name="Igrave" horiz-adv-x="240" unicode="&#204;" /><glyph d="M172 614V0H68V614ZM8 671V750H233V671Z" glyph-name="Imacron" horiz-adv-x="240" unicode="&#298;" /><glyph d="M172 614V0Q124 -76 131 -65Q138 -54 133 -63.5Q128 -73 125.5 -80.5Q123 -88 123 -97Q123 -102 124.5 -106.5Q126 -111 128.5 -114Q131 -117 135 -118.5Q139 -120 144 -120Q148 -120 152.5 -119Q157 -118 161 -116Q165 -114 169.5 -111.5Q174 -109 181 -104V-168Q175 -173 168 -177Q161 -181 154 -184Q147 -187 139 -188.5Q131 -190 122 -190Q103 -190 88.5 -184.5Q74 -179 65 -169.5Q56 -160 51.5 -147Q47 -134 47 -118Q47 -103 51 -88.5Q55 -74 62.5 -60.5Q70 -47 73.5 -42Q77 -37 101 0H68V614Z" glyph-name="Iogonek" horiz-adv-x="240" unicode="&#302;" /><glyph d="M172 614V0H68V614ZM203 797H263Q263 768 257.5 743.5Q252 719 242 702Q232 685 216 675.5Q200 666 180 666Q164 666 150.5 672.5Q137 679 119 691Q101 703 91 708.5Q81 714 69 714Q61 714 55 711.5Q49 709 45.5 703.5Q42 698 39.5 689.5Q37 681 37 669H-23Q-23 698 -17.5 722.5Q-12 747 -2 764Q8 781 24 790.5Q40 800 60 800Q76 800 89.5 794Q103 788 121 775.5Q139 763 149 757.5Q159 752 171 752Q179 752 184.5 754.5Q190 757 194 762.5Q198 768 200.5 776.5Q203 785 203 797Z" glyph-name="Itilde" horiz-adv-x="240" unicode="&#296;" /><glyph d="M30 24V129Q47 118 60.5 110.5Q74 103 88.5 97Q103 91 119 88Q135 85 152 85Q177 85 194.5 92.5Q212 100 223 116Q234 132 239 157Q244 182 244 217V614H348V212Q348 154 336 112.5Q324 71 299.5 43.5Q275 16 239 3Q203 -10 154 -10Q136 -10 118.5 -7Q101 -4 84.5 1Q68 6 54.5 12Q41 18 30 24Z" glyph-name="J" horiz-adv-x="404" unicode="J" /><glyph d="M30 24V129Q47 118 60.5 110.5Q74 103 88.5 97Q103 91 119 88Q135 85 152 85Q177 85 194.5 92.5Q212 100 223 116Q234 132 239 157Q244 182 244 217V614H348V212Q348 154 336 112.5Q324 71 299.5 43.5Q275 16 239 3Q203 -10 154 -10Q136 -10 118.5 -7Q101 -4 84.5 1Q68 6 54.5 12Q41 18 30 24ZM343 795 437 671H348L297 731L246 671H157L251 795Z" glyph-name="Jcircumflex" horiz-adv-x="404" unicode="&#308;" /><glyph d="M172 614V347L418 614H547L270 320L556 0H424L172 281V0H68V614Z" glyph-name="K" horiz-adv-x="571" unicode="K" /><glyph d="M219 -217 261 -157Q250 -156 240.5 -151Q231 -146 224.5 -139Q218 -132 214 -122.5Q210 -113 210 -102Q210 -90 215 -79Q220 -68 228.5 -60Q237 -52 248.5 -48Q260 -44 273 -44Q286 -44 297 -48.5Q308 -53 316.5 -61Q325 -69 329.5 -80.5Q334 -92 334 -106Q334 -116 331.5 -125Q329 -134 325.5 -143Q322 -152 317 -160Q312 -168 306 -177L279 -217ZM172 614V347L418 614H547L270 320L556 0H424L172 281V0H68V614Z" glyph-name="Kcommaaccent" horiz-adv-x="571" unicode="&#310;" /><glyph d="M68 0V614H172V93H467V0Z" glyph-name="L" horiz-adv-x="505" unicode="L" /><glyph d="M173 671H75L152 788H268ZM68 0V614H172V93H467V0Z" glyph-name="Lacute" horiz-adv-x="505" unicode="&#313;" /><glyph d="M339 447H261L295 614H373ZM68 0V614H172V93H467V0Z" glyph-name="Lcaron" horiz-adv-x="505" unicode="&#317;" /><glyph d="M226 -217 268 -157Q257 -156 247.5 -151Q238 -146 231.5 -139Q225 -132 221 -122.5Q217 -113 217 -102Q217 -90 222 -79Q227 -68 235.5 -60Q244 -52 255.5 -48Q267 -44 280 -44Q293 -44 304 -48.5Q315 -53 323.5 -61Q332 -69 336.5 -80.5Q341 -92 341 -106Q341 -116 338.5 -125Q336 -134 332.5 -143Q329 -152 324 -160Q319 -168 313 -177L286 -217ZM68 0V614H172V93H467V0Z" glyph-name="Lcommaaccent" horiz-adv-x="505" unicode="&#315;" /><glyph d="M68 0V614H172V93H467V0ZM429 307Q429 295 424 283.5Q419 272 410.5 263.5Q402 255 390.5 250.5Q379 246 367 246Q355 246 343.5 250.5Q332 255 323.5 263.5Q315 272 310 283.5Q305 295 305 307Q305 319 310 330.5Q315 342 323.5 350.5Q332 359 343.5 363.5Q355 368 367 368Q379 368 390.5 363.5Q402 359 410.5 350.5Q419 342 424 330.5Q429 319 429 307Z" glyph-name="Ldot" horiz-adv-x="505" unicode="&#319;" /><glyph d="M493 0H94V234L30 207V302L94 329V614H198V367L349 430V335L198 273V93H493Z" glyph-name="Lslash" horiz-adv-x="531" unicode="&#321;" /><glyph d="M365 132H361L170 430V0H68V614H165L364 294L562 614H655V0H553V430Z" glyph-name="M" horiz-adv-x="723" unicode="M" /><glyph d="M562 614V0H482L168 447V0H68V614H166L462 188V614Z" glyph-name="N" horiz-adv-x="630" unicode="N" /><glyph glyph-name="NULL" horiz-adv-x="0" /><glyph d="M357 671H259L336 788H452ZM562 614V0H482L168 447V0H68V614H166L462 188V614Z" glyph-name="Nacute" horiz-adv-x="630" unicode="&#323;" /><glyph d="M269 671 175 795H264L315 735L366 795H455L361 671ZM562 614V0H482L168 447V0H68V614H166L462 188V614Z" glyph-name="Ncaron" horiz-adv-x="630" unicode="&#327;" /><glyph d="M262 -217 304 -157Q293 -156 283.5 -151Q274 -146 267.5 -139Q261 -132 257 -122.5Q253 -113 253 -102Q253 -90 258 -79Q263 -68 271.5 -60Q280 -52 291.5 -48Q303 -44 316 -44Q329 -44 340 -48.5Q351 -53 359.5 -61Q368 -69 372.5 -80.5Q377 -92 377 -106Q377 -116 374.5 -125Q372 -134 368.5 -143Q365 -152 360 -160Q355 -168 349 -177L322 -217ZM562 614V0H482L168 447V0H68V614H166L462 188V614Z" glyph-name="Ncommaaccent" horiz-adv-x="630" unicode="&#325;" /><glyph d="M398 797H458Q458 768 452.5 743.5Q447 719 437 702Q427 685 411 675.5Q395 666 375 666Q359 666 345.5 672.5Q332 679 314 691Q296 703 286 708.5Q276 714 264 714Q256 714 250 711.5Q244 709 240.5 703.5Q237 698 234.5 689.5Q232 681 232 669H172Q172 698 177.5 722.5Q183 747 193 764Q203 781 219 790.5Q235 800 255 800Q271 800 284.5 794Q298 788 316 775.5Q334 763 344 757.5Q354 752 366 752Q374 752 379.5 754.5Q385 757 389 762.5Q393 768 395.5 776.5Q398 785 398 797ZM562 614V0H482L168 447V0H68V614H166L462 188V614Z" glyph-name="Ntilde" horiz-adv-x="630" unicode="&#209;" /><glyph d="M602 307Q602 239 581 181Q560 123 522 80Q484 37 431.5 13.5Q379 -10 318 -10Q257 -10 204.5 13.5Q152 37 114 80Q76 123 55.5 181Q35 239 35 307Q35 375 55.5 433.5Q76 492 114 534.5Q152 577 204.5 600.5Q257 624 318 624Q379 624 431.5 600.5Q484 577 522 534.5Q560 492 581 433.5Q602 375 602 307ZM497 307Q497 355 484.5 396.5Q472 438 448 468Q424 498 391 514.5Q358 531 318 531Q278 531 245 514.5Q212 498 188.5 468Q165 438 152.5 396.5Q140 355 140 307Q140 259 152.5 217.5Q165 176 188.5 146Q212 116 245 99.5Q278 83 318 83Q358 83 391 99.5Q424 116 448 146Q472 176 484.5 217.5Q497 259 497 307Z" glyph-name="O" horiz-adv-x="637" unicode="O" /><glyph d="M776 614V522H497V360H748V269H497V93H776V0H333Q266 0 210.5 21.5Q155 43 116 83.5Q77 124 56 181Q35 238 35 307Q35 376 56 433Q77 490 116 530.5Q155 571 210.5 592.5Q266 614 333 614ZM337 93H395V522H337Q289 522 252 507Q215 492 190 464Q165 436 152 396.5Q139 357 139 307Q139 258 152 218.5Q165 179 190 151Q215 123 252 108Q289 93 337 93Z" glyph-name="OE" horiz-adv-x="821" unicode="&#338;" /><glyph d="M360 671H262L339 788H455ZM602 307Q602 239 581 181Q560 123 522 80Q484 37 431.5 13.5Q379 -10 318 -10Q257 -10 204.5 13.5Q152 37 114 80Q76 123 55.5 181Q35 239 35 307Q35 375 55.5 433.5Q76 492 114 534.5Q152 577 204.5 600.5Q257 624 318 624Q379 624 431.5 600.5Q484 577 522 534.5Q560 492 581 433.5Q602 375 602 307ZM497 307Q497 355 484.5 396.5Q472 438 448 468Q424 498 391 514.5Q358 531 318 531Q278 531 245 514.5Q212 498 188.5 468Q165 438 152.5 396.5Q140 355 140 307Q140 259 152.5 217.5Q165 176 188.5 146Q212 116 245 99.5Q278 83 318 83Q358 83 391 99.5Q424 116 448 146Q472 176 484.5 217.5Q497 259 497 307Z" glyph-name="Oacute" horiz-adv-x="637" unicode="&#211;" /><glyph d="M318 667Q289 667 265.5 675Q242 683 225.5 699Q209 715 200 738Q191 761 191 791H264Q264 778 268 768.5Q272 759 279 752.5Q286 746 296 743Q306 740 318 740Q331 740 341 743Q351 746 358 752.5Q365 759 369 768.5Q373 778 373 791H446Q446 761 437 738Q428 715 411.5 699Q395 683 371 675Q347 667 318 667ZM602 307Q602 239 581 181Q560 123 522 80Q484 37 431.5 13.5Q379 -10 318 -10Q257 -10 204.5 13.5Q152 37 114 80Q76 123 55.5 181Q35 239 35 307Q35 375 55.5 433.5Q76 492 114 534.5Q152 577 204.5 600.5Q257 624 318 624Q379 624 431.5 600.5Q484 577 522 534.5Q560 492 581 433.5Q602 375 602 307ZM497 307Q497 355 484.5 396.5Q472 438 448 468Q424 498 391 514.5Q358 531 318 531Q278 531 245 514.5Q212 498 188.5 468Q165 438 152.5 396.5Q140 355 140 307Q140 259 152.5 217.5Q165 176 188.5 146Q212 116 245 99.5Q278 83 318 83Q358 83 391 99.5Q424 116 448 146Q472 176 484.5 217.5Q497 259 497 307Z" glyph-name="Obreve" horiz-adv-x="637" unicode="&#334;" /><glyph d="M602 307Q602 239 581 181Q560 123 522 80Q484 37 431.5 13.5Q379 -10 318 -10Q257 -10 204.5 13.5Q152 37 114 80Q76 123 55.5 181Q35 239 35 307Q35 375 55.5 433.5Q76 492 114 534.5Q152 577 204.5 600.5Q257 624 318 624Q379 624 431.5 600.5Q484 577 522 534.5Q560 492 581 433.5Q602 375 602 307ZM497 307Q497 355 484.5 396.5Q472 438 448 468Q424 498 391 514.5Q358 531 318 531Q278 531 245 514.5Q212 498 188.5 468Q165 438 152.5 396.5Q140 355 140 307Q140 259 152.5 217.5Q165 176 188.5 146Q212 116 245 99.5Q278 83 318 83Q358 83 391 99.5Q424 116 448 146Q472 176 484.5 217.5Q497 259 497 307ZM364 795 458 671H369L318 731L267 671H178L272 795Z" glyph-name="Ocircumflex" horiz-adv-x="637" unicode="&#212;" /><glyph d="M337 728Q337 740 341.5 751Q346 762 354 770Q362 778 372.5 782.5Q383 787 395 787Q407 787 417.5 782.5Q428 778 436.5 770Q445 762 449.5 751Q454 740 454 728Q454 716 449.5 705.5Q445 695 436.5 687Q428 679 417.5 674.5Q407 670 395 670Q383 670 372.5 674.5Q362 679 354 687Q346 695 341.5 705.5Q337 716 337 728ZM183 728Q183 741 187.5 751.5Q192 762 200 770Q208 778 219 782.5Q230 787 242 787Q254 787 264.5 782.5Q275 778 283 770Q291 762 295.5 751Q300 740 300 728Q300 716 295.5 705.5Q291 695 283 687Q275 679 264.5 674.5Q254 670 242 670Q230 670 219 674.5Q208 679 200 687Q192 695 187.5 705.5Q183 716 183 728ZM602 307Q602 239 581 181Q560 123 522 80Q484 37 431.5 13.5Q379 -10 318 -10Q257 -10 204.5 13.5Q152 37 114 80Q76 123 55.5 181Q35 239 35 307Q35 375 55.5 433.5Q76 492 114 534.5Q152 577 204.5 600.5Q257 624 318 624Q379 624 431.5 600.5Q484 577 522 534.5Q560 492 581 433.5Q602 375 602 307ZM497 307Q497 355 484.5 396.5Q472 438 448 468Q424 498 391 514.5Q358 531 318 531Q278 531 245 514.5Q212 498 188.5 468Q165 438 152.5 396.5Q140 355 140 307Q140 259 152.5 217.5Q165 176 188.5 146Q212 116 245 99.5Q278 83 318 83Q358 83 391 99.5Q424 116 448 146Q472 176 484.5 217.5Q497 259 497 307Z" glyph-name="Odieresis" horiz-adv-x="637" unicode="&#214;" /><glyph d="M371 671H273L178 788H294ZM602 307Q602 239 581 181Q560 123 522 80Q484 37 431.5 13.5Q379 -10 318 -10Q257 -10 204.5 13.5Q152 37 114 80Q76 123 55.5 181Q35 239 35 307Q35 375 55.5 433.5Q76 492 114 534.5Q152 577 204.5 600.5Q257 624 318 624Q379 624 431.5 600.5Q484 577 522 534.5Q560 492 581 433.5Q602 375 602 307ZM497 307Q497 355 484.5 396.5Q472 438 448 468Q424 498 391 514.5Q358 531 318 531Q278 531 245 514.5Q212 498 188.5 468Q165 438 152.5 396.5Q140 355 140 307Q140 259 152.5 217.5Q165 176 188.5 146Q212 116 245 99.5Q278 83 318 83Q358 83 391 99.5Q424 116 448 146Q472 176 484.5 217.5Q497 259 497 307Z" glyph-name="Ograve" horiz-adv-x="637" unicode="&#210;" /><glyph d="M602 307Q602 239 581 181Q560 123 522 80Q484 37 431.5 13.5Q379 -10 318 -10Q257 -10 204.5 13.5Q152 37 114 80Q76 123 55.5 181Q35 239 35 307Q35 375 55.5 433.5Q76 492 114 534.5Q152 577 204.5 600.5Q257 624 318 624Q379 624 431.5 600.5Q484 577 522 534.5Q560 492 581 433.5Q602 375 602 307ZM497 307Q497 355 484.5 396.5Q472 438 448 468Q424 498 391 514.5Q358 531 318 531Q278 531 245 514.5Q212 498 188.5 468Q165 438 152.5 396.5Q140 355 140 307Q140 259 152.5 217.5Q165 176 188.5 146Q212 116 245 99.5Q278 83 318 83Q358 83 391 99.5Q424 116 448 146Q472 176 484.5 217.5Q497 259 497 307ZM433 671H350L410 788H495ZM300 671H217L277 788H362Z" glyph-name="Ohungarumlaut" horiz-adv-x="637" unicode="&#336;" /><glyph d="M206 671V750H431V671ZM602 307Q602 239 581 181Q560 123 522 80Q484 37 431.5 13.5Q379 -10 318 -10Q257 -10 204.5 13.5Q152 37 114 80Q76 123 55.5 181Q35 239 35 307Q35 375 55.5 433.5Q76 492 114 534.5Q152 577 204.5 600.5Q257 624 318 624Q379 624 431.5 600.5Q484 577 522 534.5Q560 492 581 433.5Q602 375 602 307ZM497 307Q497 355 484.5 396.5Q472 438 448 468Q424 498 391 514.5Q358 531 318 531Q278 531 245 514.5Q212 498 188.5 468Q165 438 152.5 396.5Q140 355 140 307Q140 259 152.5 217.5Q165 176 188.5 146Q212 116 245 99.5Q278 83 318 83Q358 83 391 99.5Q424 116 448 146Q472 176 484.5 217.5Q497 259 497 307Z" glyph-name="Omacron" horiz-adv-x="637" unicode="&#332;" /><glyph d="M145 307Q145 288 147 269.5Q149 251 152.5 233.5Q156 216 161.5 200.5Q167 185 174 171L427 498Q417 506 405.5 512Q394 518 380.5 522.5Q367 527 353 529Q339 531 323 531Q283 531 250 514.5Q217 498 193.5 468Q170 438 157.5 396.5Q145 355 145 307ZM323 83Q363 83 396 99.5Q429 116 453 146Q477 176 489.5 217.5Q502 259 502 307Q502 326 500.5 344Q499 362 495.5 379Q492 396 486.5 411.5Q481 427 474 440L221 114Q231 106 242.5 100.5Q254 95 267 91Q280 87 294 85Q308 83 323 83ZM323 -10Q300 -10 278.5 -6.5Q257 -3 237 3Q217 9 199 18.5Q181 28 164 40L122 -14L62 27L111 90Q94 111 81 135Q68 159 58.5 187Q49 215 44.5 245Q40 275 40 307Q40 375 60.5 433.5Q81 492 119 534.5Q157 577 209.5 600.5Q262 624 323 624Q346 624 368 620.5Q390 617 410.5 610.5Q431 604 449.5 594.5Q468 585 485 573L528 628L588 587L538 522Q555 501 567.5 477Q580 453 589 425.5Q598 398 602.5 368.5Q607 339 607 307Q607 239 586 181Q565 123 527 80Q489 37 436.5 13.5Q384 -10 323 -10Z" glyph-name="Oslash" horiz-adv-x="647" unicode="&#216;" /><glyph d="M145 307Q145 288 147 269.5Q149 251 152.5 233.5Q156 216 161.5 200.5Q167 185 174 171L427 498Q417 506 405.5 512Q394 518 380.5 522.5Q367 527 353 529Q339 531 323 531Q283 531 250 514.5Q217 498 193.5 468Q170 438 157.5 396.5Q145 355 145 307ZM323 83Q363 83 396 99.5Q429 116 453 146Q477 176 489.5 217.5Q502 259 502 307Q502 326 500.5 344Q499 362 495.5 379Q492 396 486.5 411.5Q481 427 474 440L221 114Q231 106 242.5 100.5Q254 95 267 91Q280 87 294 85Q308 83 323 83ZM323 -10Q300 -10 278.5 -6.5Q257 -3 237 3Q217 9 199 18.5Q181 28 164 40L122 -14L62 27L111 90Q94 111 81 135Q68 159 58.5 187Q49 215 44.5 245Q40 275 40 307Q40 375 60.5 433.5Q81 492 119 534.5Q157 577 209.5 600.5Q262 624 323 624Q346 624 368 620.5Q390 617 410.5 610.5Q431 604 449.5 594.5Q468 585 485 573L528 628L588 587L538 522Q555 501 567.5 477Q580 453 589 425.5Q598 398 602.5 368.5Q607 339 607 307Q607 239 586 181Q565 123 527 80Q489 37 436.5 13.5Q384 -10 323 -10ZM365 671H267L344 788H460Z" glyph-name="Oslashacute" horiz-adv-x="647" unicode="&#510;" /><glyph d="M401 797H461Q461 768 455.5 743.5Q450 719 440 702Q430 685 414 675.5Q398 666 378 666Q362 666 348.5 672.5Q335 679 317 691Q299 703 289 708.5Q279 714 267 714Q259 714 253 711.5Q247 709 243.5 703.5Q240 698 237.5 689.5Q235 681 235 669H175Q175 698 180.5 722.5Q186 747 196 764Q206 781 222 790.5Q238 800 258 800Q274 800 287.5 794Q301 788 319 775.5Q337 763 347 757.5Q357 752 369 752Q377 752 382.5 754.5Q388 757 392 762.5Q396 768 398.5 776.5Q401 785 401 797ZM602 307Q602 239 581 181Q560 123 522 80Q484 37 431.5 13.5Q379 -10 318 -10Q257 -10 204.5 13.5Q152 37 114 80Q76 123 55.5 181Q35 239 35 307Q35 375 55.5 433.5Q76 492 114 534.5Q152 577 204.5 600.5Q257 624 318 624Q379 624 431.5 600.5Q484 577 522 534.5Q560 492 581 433.5Q602 375 602 307ZM497 307Q497 355 484.5 396.5Q472 438 448 468Q424 498 391 514.5Q358 531 318 531Q278 531 245 514.5Q212 498 188.5 468Q165 438 152.5 396.5Q140 355 140 307Q140 259 152.5 217.5Q165 176 188.5 146Q212 116 245 99.5Q278 83 318 83Q358 83 391 99.5Q424 116 448 146Q472 176 484.5 217.5Q497 259 497 307Z" glyph-name="Otilde" horiz-adv-x="637" unicode="&#213;" /><glyph d="M305 229H172V0H68V614H305Q353 614 391.5 601.5Q430 589 458 564.5Q486 540 500.5 504Q515 468 515 421Q515 375 500.5 339Q486 303 458 278.5Q430 254 391.5 241.5Q353 229 305 229ZM303 319Q329 319 349.5 326.5Q370 334 384 347.5Q398 361 405 380Q412 399 412 421Q412 444 405 463Q398 482 384.5 495.5Q371 509 350.5 516.5Q330 524 303 524H172V319Z" glyph-name="P" horiz-adv-x="545" unicode="P" /><glyph d="M497 -41 447 21Q433 13 417.5 7.5Q402 2 386 -2Q370 -6 353 -8Q336 -10 318 -10Q257 -10 204.5 13.5Q152 37 114 80Q76 123 55.5 181Q35 239 35 307Q35 375 55.5 433.5Q76 492 114 534.5Q152 577 204.5 600.5Q257 624 318 624Q379 624 431.5 600.5Q484 577 522 534.5Q560 492 581 433.5Q602 375 602 307Q602 272 596 239.5Q590 207 579 177.5Q568 148 552.5 122.5Q537 97 517 76L568 13ZM318 83Q328 83 337 83.5Q346 84 355 85.5Q364 87 372 89.5Q380 92 388 95L337 158L409 211L458 150Q467 164 474.5 180.5Q482 197 487 217Q492 237 494.5 259.5Q497 282 497 307Q497 355 484.5 396.5Q472 438 448 468Q424 498 391 514.5Q358 531 318 531Q278 531 245 514.5Q212 498 188.5 468Q165 438 152.5 396.5Q140 355 140 307Q140 259 152.5 217.5Q165 176 188.5 146Q212 116 245 99.5Q278 83 318 83Z" glyph-name="Q" horiz-adv-x="636" unicode="Q" /><glyph d="M172 524V336H303Q329 336 349 342.5Q369 349 383 361.5Q397 374 404 391.5Q411 409 411 430Q411 451 404 468.5Q397 486 383 498.5Q369 511 349 517.5Q329 524 303 524ZM68 0V614H305Q353 614 391.5 602Q430 590 457.5 566.5Q485 543 499.5 508.5Q514 474 514 430Q514 392 503.5 361.5Q493 331 472.5 309Q452 287 423 273Q394 259 358 253L535 0H417L247 249H172V0Z" glyph-name="R" horiz-adv-x="555" unicode="R" /><glyph d="M172 524V336H303Q329 336 349 342.5Q369 349 383 361.5Q397 374 404 391.5Q411 409 411 430Q411 451 404 468.5Q397 486 383 498.5Q369 511 349 517.5Q329 524 303 524ZM68 0V614H305Q353 614 391.5 602Q430 590 457.5 566.5Q485 543 499.5 508.5Q514 474 514 430Q514 392 503.5 361.5Q493 331 472.5 309Q452 287 423 273Q394 259 358 253L535 0H417L247 249H172V0ZM319 671H221L298 788H414Z" glyph-name="Racute" horiz-adv-x="555" unicode="&#340;" /><glyph d="M231 671 137 795H226L277 735L328 795H417L323 671ZM172 524V336H303Q329 336 349 342.5Q369 349 383 361.5Q397 374 404 391.5Q411 409 411 430Q411 451 404 468.5Q397 486 383 498.5Q369 511 349 517.5Q329 524 303 524ZM68 0V614H305Q353 614 391.5 602Q430 590 457.5 566.5Q485 543 499.5 508.5Q514 474 514 430Q514 392 503.5 361.5Q493 331 472.5 309Q452 287 423 273Q394 259 358 253L535 0H417L247 249H172V0Z" glyph-name="Rcaron" horiz-adv-x="555" unicode="&#344;" /><glyph d="M224 -217 266 -157Q255 -156 245.5 -151Q236 -146 229.5 -139Q223 -132 219 -122.5Q215 -113 215 -102Q215 -90 220 -79Q225 -68 233.5 -60Q242 -52 253.5 -48Q265 -44 278 -44Q291 -44 302 -48.5Q313 -53 321.5 -61Q330 -69 334.5 -80.5Q339 -92 339 -106Q339 -116 336.5 -125Q334 -134 330.5 -143Q327 -152 322 -160Q317 -168 311 -177L284 -217ZM172 524V336H303Q329 336 349 342.5Q369 349 383 361.5Q397 374 404 391.5Q411 409 411 430Q411 451 404 468.5Q397 486 383 498.5Q369 511 349 517.5Q329 524 303 524ZM68 0V614H305Q353 614 391.5 602Q430 590 457.5 566.5Q485 543 499.5 508.5Q514 474 514 430Q514 392 503.5 361.5Q493 331 472.5 309Q452 287 423 273Q394 259 358 253L535 0H417L247 249H172V0Z" glyph-name="Rcommaaccent" horiz-adv-x="555" unicode="&#342;" /><glyph d="M43 44V153Q64 136 87 123Q110 110 134.5 100.5Q159 91 185 86.5Q211 82 238 82Q265 82 286.5 87Q308 92 324 101.5Q340 111 348.5 126.5Q357 142 357 162Q357 180 351.5 193Q346 206 335 216Q324 226 309 233.5Q294 241 271 250L182 282Q149 294 123 308.5Q97 323 78 343.5Q59 364 48.5 392Q38 420 38 457Q38 496 54 527.5Q70 559 98.5 580.5Q127 602 164.5 613Q202 624 245 624Q271 624 295.5 620.5Q320 617 343 611Q366 605 387 595.5Q408 586 426 574V467Q406 482 386 494Q366 506 344 515Q322 524 297.5 528.5Q273 533 247 533Q223 533 203.5 528.5Q184 524 169.5 514.5Q155 505 147 491Q139 477 139 459Q139 442 144 430Q149 418 159.5 409Q170 400 184 392.5Q198 385 219 378L318 342Q354 329 380.5 312Q407 295 424 273.5Q441 252 449.5 224.5Q458 197 458 164Q458 123 441.5 90.5Q425 58 395 35.5Q365 13 325 1.5Q285 -10 238 -10Q208 -10 180 -6Q152 -2 127 5.5Q102 13 80.5 22.5Q59 32 43 44Z" glyph-name="S" horiz-adv-x="496" unicode="S" /><glyph d="M43 44V153Q64 136 87 123Q110 110 134.5 100.5Q159 91 185 86.5Q211 82 238 82Q265 82 286.5 87Q308 92 324 101.5Q340 111 348.5 126.5Q357 142 357 162Q357 180 351.5 193Q346 206 335 216Q324 226 309 233.5Q294 241 271 250L182 282Q149 294 123 308.5Q97 323 78 343.5Q59 364 48.5 392Q38 420 38 457Q38 496 54 527.5Q70 559 98.5 580.5Q127 602 164.5 613Q202 624 245 624Q271 624 295.5 620.5Q320 617 343 611Q366 605 387 595.5Q408 586 426 574V467Q406 482 386 494Q366 506 344 515Q322 524 297.5 528.5Q273 533 247 533Q223 533 203.5 528.5Q184 524 169.5 514.5Q155 505 147 491Q139 477 139 459Q139 442 144 430Q149 418 159.5 409Q170 400 184 392.5Q198 385 219 378L318 342Q354 329 380.5 312Q407 295 424 273.5Q441 252 449.5 224.5Q458 197 458 164Q458 123 441.5 90.5Q425 58 395 35.5Q365 13 325 1.5Q285 -10 238 -10Q208 -10 180 -6Q152 -2 127 5.5Q102 13 80.5 22.5Q59 32 43 44ZM298 671H200L277 788H393Z" glyph-name="Sacute" horiz-adv-x="496" unicode="&#346;" /><glyph d="M43 44V153Q64 136 87 123Q110 110 134.5 100.5Q159 91 185 86.5Q211 82 238 82Q265 82 286.5 87Q308 92 324 101.5Q340 111 348.5 126.5Q357 142 357 162Q357 180 351.5 193Q346 206 335 216Q324 226 309 233.5Q294 241 271 250L182 282Q149 294 123 308.5Q97 323 78 343.5Q59 364 48.5 392Q38 420 38 457Q38 496 54 527.5Q70 559 98.5 580.5Q127 602 164.5 613Q202 624 245 624Q271 624 295.5 620.5Q320 617 343 611Q366 605 387 595.5Q408 586 426 574V467Q406 482 386 494Q366 506 344 515Q322 524 297.5 528.5Q273 533 247 533Q223 533 203.5 528.5Q184 524 169.5 514.5Q155 505 147 491Q139 477 139 459Q139 442 144 430Q149 418 159.5 409Q170 400 184 392.5Q198 385 219 378L318 342Q354 329 380.5 312Q407 295 424 273.5Q441 252 449.5 224.5Q458 197 458 164Q458 123 441.5 90.5Q425 58 395 35.5Q365 13 325 1.5Q285 -10 238 -10Q208 -10 180 -6Q152 -2 127 5.5Q102 13 80.5 22.5Q59 32 43 44ZM210 671 116 795H205L256 735L307 795H396L302 671Z" glyph-name="Scaron" horiz-adv-x="496" unicode="&#352;" /><glyph d="M43 44V153Q64 136 87 123Q110 110 134.5 100.5Q159 91 185 86.5Q211 82 238 82Q265 82 286.5 87Q308 92 324 101.5Q340 111 348.5 126.5Q357 142 357 162Q357 180 351.5 193Q346 206 335 216Q324 226 309 233.5Q294 241 271 250L182 282Q149 294 123 308.5Q97 323 78 343.5Q59 364 48.5 392Q38 420 38 457Q38 496 54 527.5Q70 559 98.5 580.5Q127 602 164.5 613Q202 624 245 624Q271 624 295.5 620.5Q320 617 343 611Q366 605 387 595.5Q408 586 426 574V467Q406 482 386 494Q366 506 344 515Q322 524 297.5 528.5Q273 533 247 533Q223 533 203.5 528.5Q184 524 169.5 514.5Q155 505 147 491Q139 477 139 459Q139 442 144 430Q149 418 159.5 409Q170 400 184 392.5Q198 385 219 378L318 342Q354 329 380.5 312Q407 295 424 273.5Q441 252 449.5 224.5Q458 197 458 164Q458 123 441.5 90.5Q425 58 395 35.5Q365 13 325 1.5Q285 -10 238 -10Q208 -10 180 -6Q152 -2 127 5.5Q102 13 80.5 22.5Q59 32 43 44ZM218 -190H125L196 -53H295Z" glyph-name="Scedilla" horiz-adv-x="496" unicode="&#350;" /><glyph d="M43 44V153Q64 136 87 123Q110 110 134.5 100.5Q159 91 185 86.5Q211 82 238 82Q265 82 286.5 87Q308 92 324 101.5Q340 111 348.5 126.5Q357 142 357 162Q357 180 351.5 193Q346 206 335 216Q324 226 309 233.5Q294 241 271 250L182 282Q149 294 123 308.5Q97 323 78 343.5Q59 364 48.5 392Q38 420 38 457Q38 496 54 527.5Q70 559 98.5 580.5Q127 602 164.5 613Q202 624 245 624Q271 624 295.5 620.5Q320 617 343 611Q366 605 387 595.5Q408 586 426 574V467Q406 482 386 494Q366 506 344 515Q322 524 297.5 528.5Q273 533 247 533Q223 533 203.5 528.5Q184 524 169.5 514.5Q155 505 147 491Q139 477 139 459Q139 442 144 430Q149 418 159.5 409Q170 400 184 392.5Q198 385 219 378L318 342Q354 329 380.5 312Q407 295 424 273.5Q441 252 449.5 224.5Q458 197 458 164Q458 123 441.5 90.5Q425 58 395 35.5Q365 13 325 1.5Q285 -10 238 -10Q208 -10 180 -6Q152 -2 127 5.5Q102 13 80.5 22.5Q59 32 43 44ZM302 795 396 671H307L256 731L205 671H116L210 795Z" glyph-name="Scircumflex" horiz-adv-x="496" unicode="&#348;" /><glyph d="M203 -217 245 -157Q234 -156 224.5 -151Q215 -146 208.5 -139Q202 -132 198 -122.5Q194 -113 194 -102Q194 -90 199 -79Q204 -68 212.5 -60Q221 -52 232.5 -48Q244 -44 257 -44Q270 -44 281 -48.5Q292 -53 300.5 -61Q309 -69 313.5 -80.5Q318 -92 318 -106Q318 -116 315.5 -125Q313 -134 309.5 -143Q306 -152 301 -160Q296 -168 290 -177L263 -217ZM43 44V153Q64 136 87 123Q110 110 134.5 100.5Q159 91 185 86.5Q211 82 238 82Q265 82 286.5 87Q308 92 324 101.5Q340 111 348.5 126.5Q357 142 357 162Q357 180 351.5 193Q346 206 335 216Q324 226 309 233.5Q294 241 271 250L182 282Q149 294 123 308.5Q97 323 78 343.5Q59 364 48.5 392Q38 420 38 457Q38 496 54 527.5Q70 559 98.5 580.5Q127 602 164.5 613Q202 624 245 624Q271 624 295.5 620.5Q320 617 343 611Q366 605 387 595.5Q408 586 426 574V467Q406 482 386 494Q366 506 344 515Q322 524 297.5 528.5Q273 533 247 533Q223 533 203.5 528.5Q184 524 169.5 514.5Q155 505 147 491Q139 477 139 459Q139 442 144 430Q149 418 159.5 409Q170 400 184 392.5Q198 385 219 378L318 342Q354 329 380.5 312Q407 295 424 273.5Q441 252 449.5 224.5Q458 197 458 164Q458 123 441.5 90.5Q425 58 395 35.5Q365 13 325 1.5Q285 -10 238 -10Q208 -10 180 -6Q152 -2 127 5.5Q102 13 80.5 22.5Q59 32 43 44Z" glyph-name="Scommaaccent" horiz-adv-x="496" unicode="&#536;" /><glyph d="M30 522V614H542V522H338V0H234V522Z" glyph-name="T" horiz-adv-x="572" unicode="T" /><glyph d="M448 273H338V0H234V273H124V361H234V522H30V614H542V522H338V361H448Z" glyph-name="Tbar" horiz-adv-x="572" unicode="&#358;" /><glyph d="M240 671 146 795H235L286 735L337 795H426L332 671ZM30 522V614H542V522H338V0H234V522Z" glyph-name="Tcaron" horiz-adv-x="572" unicode="&#356;" /><glyph d="M233 -217 275 -157Q264 -156 254.5 -151Q245 -146 238.5 -139Q232 -132 228 -122.5Q224 -113 224 -102Q224 -90 229 -79Q234 -68 242.5 -60Q251 -52 262.5 -48Q274 -44 287 -44Q300 -44 311 -48.5Q322 -53 330.5 -61Q339 -69 343.5 -80.5Q348 -92 348 -106Q348 -116 345.5 -125Q343 -134 339.5 -143Q336 -152 331 -160Q326 -168 320 -177L293 -217ZM30 522V614H542V522H338V0H234V522Z" glyph-name="Tcommaaccent" horiz-adv-x="572" unicode="&#354;" /><glyph d="M305 123H172V0H68V614H172V508H305Q353 508 391.5 495.5Q430 483 458 458.5Q486 434 500.5 398Q515 362 515 315Q515 269 500.5 233Q486 197 458 172.5Q430 148 391.5 135.5Q353 123 305 123ZM303 213Q329 213 349.5 220.5Q370 228 384 241.5Q398 255 405 274Q412 293 412 315Q412 338 405 357Q398 376 384.5 389.5Q371 403 350.5 410.5Q330 418 303 418H172V213Z" glyph-name="Thorn" horiz-adv-x="545" unicode="&#222;" /><glyph d="M304 -10Q249 -10 203.5 6Q158 22 125.5 54.5Q93 87 75.5 135Q58 183 58 245V614H162V256Q162 212 171 179.5Q180 147 198 125.5Q216 104 242.5 93.5Q269 83 304 83Q339 83 365.5 93.5Q392 104 410 125.5Q428 147 437 179.5Q446 212 446 256V614H550V244Q550 182 532.5 134Q515 86 482.5 54Q450 22 404.5 6Q359 -10 304 -10Z" glyph-name="U" horiz-adv-x="608" unicode="U" /><glyph d="M346 671H248L325 788H441ZM304 -10Q249 -10 203.5 6Q158 22 125.5 54.5Q93 87 75.5 135Q58 183 58 245V614H162V256Q162 212 171 179.5Q180 147 198 125.5Q216 104 242.5 93.5Q269 83 304 83Q339 83 365.5 93.5Q392 104 410 125.5Q428 147 437 179.5Q446 212 446 256V614H550V244Q550 182 532.5 134Q515 86 482.5 54Q450 22 404.5 6Q359 -10 304 -10Z" glyph-name="Uacute" horiz-adv-x="608" unicode="&#218;" /><glyph d="M304 667Q275 667 251.5 675Q228 683 211.5 699Q195 715 186 738Q177 761 177 791H250Q250 778 254 768.5Q258 759 265 752.5Q272 746 282 743Q292 740 304 740Q317 740 327 743Q337 746 344 752.5Q351 759 355 768.5Q359 778 359 791H432Q432 761 423 738Q414 715 397.5 699Q381 683 357 675Q333 667 304 667ZM304 -10Q249 -10 203.5 6Q158 22 125.5 54.5Q93 87 75.5 135Q58 183 58 245V614H162V256Q162 212 171 179.5Q180 147 198 125.5Q216 104 242.5 93.5Q269 83 304 83Q339 83 365.5 93.5Q392 104 410 125.5Q428 147 437 179.5Q446 212 446 256V614H550V244Q550 182 532.5 134Q515 86 482.5 54Q450 22 404.5 6Q359 -10 304 -10Z" glyph-name="Ubreve" horiz-adv-x="608" unicode="&#364;" /><glyph d="M304 -10Q249 -10 203.5 6Q158 22 125.5 54.5Q93 87 75.5 135Q58 183 58 245V614H162V256Q162 212 171 179.5Q180 147 198 125.5Q216 104 242.5 93.5Q269 83 304 83Q339 83 365.5 93.5Q392 104 410 125.5Q428 147 437 179.5Q446 212 446 256V614H550V244Q550 182 532.5 134Q515 86 482.5 54Q450 22 404.5 6Q359 -10 304 -10ZM350 795 444 671H355L304 731L253 671H164L258 795Z" glyph-name="Ucircumflex" horiz-adv-x="608" unicode="&#219;" /><glyph d="M323 728Q323 740 327.5 751Q332 762 340 770Q348 778 358.5 782.5Q369 787 381 787Q393 787 403.5 782.5Q414 778 422.5 770Q431 762 435.5 751Q440 740 440 728Q440 716 435.5 705.5Q431 695 422.5 687Q414 679 403.5 674.5Q393 670 381 670Q369 670 358.5 674.5Q348 679 340 687Q332 695 327.5 705.5Q323 716 323 728ZM169 728Q169 741 173.5 751.5Q178 762 186 770Q194 778 205 782.5Q216 787 228 787Q240 787 250.5 782.5Q261 778 269 770Q277 762 281.5 751Q286 740 286 728Q286 716 281.5 705.5Q277 695 269 687Q261 679 250.5 674.5Q240 670 228 670Q216 670 205 674.5Q194 679 186 687Q178 695 173.5 705.5Q169 716 169 728ZM304 -10Q249 -10 203.5 6Q158 22 125.5 54.5Q93 87 75.5 135Q58 183 58 245V614H162V256Q162 212 171 179.5Q180 147 198 125.5Q216 104 242.5 93.5Q269 83 304 83Q339 83 365.5 93.5Q392 104 410 125.5Q428 147 437 179.5Q446 212 446 256V614H550V244Q550 182 532.5 134Q515 86 482.5 54Q450 22 404.5 6Q359 -10 304 -10Z" glyph-name="Udieresis" horiz-adv-x="608" unicode="&#220;" /><glyph d="M357 671H259L164 788H280ZM304 -10Q249 -10 203.5 6Q158 22 125.5 54.5Q93 87 75.5 135Q58 183 58 245V614H162V256Q162 212 171 179.5Q180 147 198 125.5Q216 104 242.5 93.5Q269 83 304 83Q339 83 365.5 93.5Q392 104 410 125.5Q428 147 437 179.5Q446 212 446 256V614H550V244Q550 182 532.5 134Q515 86 482.5 54Q450 22 404.5 6Q359 -10 304 -10Z" glyph-name="Ugrave" horiz-adv-x="608" unicode="&#217;" /><glyph d="M304 -10Q249 -10 203.5 6Q158 22 125.5 54.5Q93 87 75.5 135Q58 183 58 245V614H162V256Q162 212 171 179.5Q180 147 198 125.5Q216 104 242.5 93.5Q269 83 304 83Q339 83 365.5 93.5Q392 104 410 125.5Q428 147 437 179.5Q446 212 446 256V614H550V244Q550 182 532.5 134Q515 86 482.5 54Q450 22 404.5 6Q359 -10 304 -10ZM419 671H336L396 788H481ZM286 671H203L263 788H348Z" glyph-name="Uhungarumlaut" horiz-adv-x="608" unicode="&#368;" /><glyph d="M192 671V750H417V671ZM304 -10Q249 -10 203.5 6Q158 22 125.5 54.5Q93 87 75.5 135Q58 183 58 245V614H162V256Q162 212 171 179.5Q180 147 198 125.5Q216 104 242.5 93.5Q269 83 304 83Q339 83 365.5 93.5Q392 104 410 125.5Q428 147 437 179.5Q446 212 446 256V614H550V244Q550 182 532.5 134Q515 86 482.5 54Q450 22 404.5 6Q359 -10 304 -10Z" glyph-name="Umacron" horiz-adv-x="608" unicode="&#362;" /><glyph d="M304 -10Q249 -10 203.5 6Q158 22 125.5 54.5Q93 87 75.5 135Q58 183 58 245V614H162V256Q162 212 171 179.5Q180 147 198 125.5Q216 104 242.5 93.5Q269 83 304 83Q339 83 365.5 93.5Q392 104 410 125.5Q428 147 437 179.5Q446 212 446 256V614H550V244Q550 203 543.5 170Q537 137 523.5 110.5Q510 84 489.5 62.5Q469 41 441 21Q415 3 396.5 -14Q378 -31 367.5 -45.5Q357 -60 352.5 -72.5Q348 -85 348 -97Q348 -102 349.5 -106.5Q351 -111 353.5 -114Q356 -117 360 -118.5Q364 -120 369 -120Q373 -120 377.5 -119Q382 -118 386 -116Q390 -114 394.5 -111.5Q399 -109 406 -104V-168Q400 -173 393 -177Q386 -181 379 -184Q372 -187 364 -188.5Q356 -190 347 -190Q328 -190 313.5 -184.5Q299 -179 290 -169.5Q281 -160 276.5 -147Q272 -134 272 -118Q272 -104 275.5 -90Q279 -76 286 -62.5Q293 -49 302.5 -36Q312 -23 325 -10Z" glyph-name="Uogonek" horiz-adv-x="608" unicode="&#370;" /><glyph d="M304 -10Q249 -10 203.5 6Q158 22 125.5 54.5Q93 87 75.5 135Q58 183 58 245V614H162V256Q162 212 171 179.5Q180 147 198 125.5Q216 104 242.5 93.5Q269 83 304 83Q339 83 365.5 93.5Q392 104 410 125.5Q428 147 437 179.5Q446 212 446 256V614H550V244Q550 182 532.5 134Q515 86 482.5 54Q450 22 404.5 6Q359 -10 304 -10ZM397 740Q397 721 390 704Q383 687 370 675Q357 663 340 656Q323 649 304 649Q285 649 268 656Q251 663 238 675Q225 687 218 704Q211 721 211 740Q211 759 218 776Q225 793 238 805Q251 817 268 824Q285 831 304 831Q323 831 340 824Q357 817 370 805Q383 793 390 776Q397 759 397 740ZM346 740Q346 749 342.5 756.5Q339 764 333.5 770Q328 776 320.5 779Q313 782 304 782Q295 782 287.5 779Q280 776 274.5 770Q269 764 265.5 756.5Q262 749 262 740Q262 731 265.5 723.5Q269 716 274.5 710Q280 704 287.5 701Q295 698 304 698Q313 698 320.5 701Q328 704 333.5 710Q339 716 342.5 723.5Q346 731 346 740Z" glyph-name="Uring" horiz-adv-x="608" unicode="&#366;" /><glyph d="M387 797H447Q447 768 441.5 743.5Q436 719 426 702Q416 685 400 675.5Q384 666 364 666Q348 666 334.5 672.5Q321 679 303 691Q285 703 275 708.5Q265 714 253 714Q245 714 239 711.5Q233 709 229.5 703.5Q226 698 223.5 689.5Q221 681 221 669H161Q161 698 166.5 722.5Q172 747 182 764Q192 781 208 790.5Q224 800 244 800Q260 800 273.5 794Q287 788 305 775.5Q323 763 333 757.5Q343 752 355 752Q363 752 368.5 754.5Q374 757 378 762.5Q382 768 384.5 776.5Q387 785 387 797ZM304 -10Q249 -10 203.5 6Q158 22 125.5 54.5Q93 87 75.5 135Q58 183 58 245V614H162V256Q162 212 171 179.5Q180 147 198 125.5Q216 104 242.5 93.5Q269 83 304 83Q339 83 365.5 93.5Q392 104 410 125.5Q428 147 437 179.5Q446 212 446 256V614H550V244Q550 182 532.5 134Q515 86 482.5 54Q450 22 404.5 6Q359 -10 304 -10Z" glyph-name="Utilde" horiz-adv-x="608" unicode="&#360;" /><glyph d="M351 0H252L20 614H129L303 135L477 614H583Z" glyph-name="V" horiz-adv-x="603" unicode="V" /><glyph d="M347 614H431L547 162L658 614H758L600 0H504L388 439L270 0H175L17 614H119L230 162Z" glyph-name="W" horiz-adv-x="775" unicode="W" /><glyph d="M436 671H338L415 788H531ZM347 614H431L547 162L658 614H758L600 0H504L388 439L270 0H175L17 614H119L230 162Z" glyph-name="Wacute" horiz-adv-x="775" unicode="&#7810;" /><glyph d="M347 614H431L547 162L658 614H758L600 0H504L388 439L270 0H175L17 614H119L230 162ZM433 795 527 671H438L387 731L336 671H247L341 795Z" glyph-name="Wcircumflex" horiz-adv-x="775" unicode="&#372;" /><glyph d="M406 728Q406 740 410.5 751Q415 762 423 770Q431 778 441.5 782.5Q452 787 464 787Q476 787 486.5 782.5Q497 778 505.5 770Q514 762 518.5 751Q523 740 523 728Q523 716 518.5 705.5Q514 695 505.5 687Q497 679 486.5 674.5Q476 670 464 670Q452 670 441.5 674.5Q431 679 423 687Q415 695 410.5 705.5Q406 716 406 728ZM252 728Q252 741 256.5 751.5Q261 762 269 770Q277 778 288 782.5Q299 787 311 787Q323 787 333.5 782.5Q344 778 352 770Q360 762 364.5 751Q369 740 369 728Q369 716 364.5 705.5Q360 695 352 687Q344 679 333.5 674.5Q323 670 311 670Q299 670 288 674.5Q277 679 269 687Q261 695 256.5 705.5Q252 716 252 728ZM347 614H431L547 162L658 614H758L600 0H504L388 439L270 0H175L17 614H119L230 162Z" glyph-name="Wdieresis" horiz-adv-x="775" unicode="&#7812;" /><glyph d="M436 671H338L243 788H359ZM347 614H431L547 162L658 614H758L600 0H504L388 439L270 0H175L17 614H119L230 162Z" glyph-name="Wgrave" horiz-adv-x="775" unicode="&#7808;" /><glyph d="M553 614 345 315 563 0H444L285 231L126 0H10L227 313L20 614H139L287 397L438 614Z" glyph-name="X" horiz-adv-x="573" unicode="X" /><glyph d="M291 339 453 614H563L340 245V0H237V245L15 614H128Z" glyph-name="Y" horiz-adv-x="578" unicode="Y" /><glyph d="M291 339 453 614H563L340 245V0H237V245L15 614H128ZM331 671H233L310 788H426Z" glyph-name="Yacute" horiz-adv-x="578" unicode="&#221;" /><glyph d="M291 339 453 614H563L340 245V0H237V245L15 614H128ZM335 795 429 671H340L289 731L238 671H149L243 795Z" glyph-name="Ycircumflex" horiz-adv-x="578" unicode="&#374;" /><glyph d="M291 339 453 614H563L340 245V0H237V245L15 614H128ZM308 728Q308 740 312.5 751Q317 762 325 770Q333 778 343.5 782.5Q354 787 366 787Q378 787 388.5 782.5Q399 778 407.5 770Q416 762 420.5 751Q425 740 425 728Q425 716 420.5 705.5Q416 695 407.5 687Q399 679 388.5 674.5Q378 670 366 670Q354 670 343.5 674.5Q333 679 325 687Q317 695 312.5 705.5Q308 716 308 728ZM154 728Q154 741 158.5 751.5Q163 762 171 770Q179 778 190 782.5Q201 787 213 787Q225 787 235.5 782.5Q246 778 254 770Q262 762 266.5 751Q271 740 271 728Q271 716 266.5 705.5Q262 695 254 687Q246 679 235.5 674.5Q225 670 213 670Q201 670 190 674.5Q179 679 171 687Q163 695 158.5 705.5Q154 716 154 728Z" glyph-name="Ydieresis" horiz-adv-x="578" unicode="&#376;" /><glyph d="M291 339 453 614H563L340 245V0H237V245L15 614H128ZM342 671H244L149 788H265Z" glyph-name="Ygrave" horiz-adv-x="578" unicode="&#7922;" /><glyph d="M500 93V0H32V4L341 522H46V614H504V610L196 93Z" glyph-name="Z" horiz-adv-x="539" unicode="Z" /><glyph d="M500 93V0H32V4L341 522H46V614H504V610L196 93ZM324 671H226L303 788H419Z" glyph-name="Zacute" horiz-adv-x="539" unicode="&#377;" /><glyph d="M236 671 142 795H231L282 735L333 795H422L328 671ZM500 93V0H32V4L341 522H46V614H504V610L196 93Z" glyph-name="Zcaron" horiz-adv-x="539" unicode="&#381;" /><glyph d="M344 728Q344 716 339 704.5Q334 693 325.5 684.5Q317 676 305.5 671.5Q294 667 282 667Q270 667 258.5 671.5Q247 676 238.5 684.5Q230 693 225 704.5Q220 716 220 728Q220 740 225 751.5Q230 763 238.5 771.5Q247 780 258.5 784.5Q270 789 282 789Q294 789 305.5 784.5Q317 780 325.5 771.5Q334 763 339 751.5Q344 740 344 728ZM500 93V0H32V4L341 522H46V614H504V610L196 93Z" glyph-name="Zdotaccent" horiz-adv-x="539" unicode="&#379;" /><glyph glyph-name="_229" horiz-adv-x="0" /><glyph d="M308 118V155Q304 165 295 173.5Q286 182 274 188Q262 194 247.5 197Q233 200 218 200Q201 200 184.5 196Q168 192 154.5 184.5Q141 177 133.5 165Q126 153 126 137Q126 121 133.5 108.5Q141 96 154.5 88.5Q168 81 184.5 77Q201 73 218 73Q233 73 247.5 76Q262 79 274 85Q286 91 295 99.5Q304 108 308 118ZM308 253V284Q308 303 301 317.5Q294 332 280.5 342Q267 352 248 357.5Q229 363 206 363Q188 363 172 360.5Q156 358 140.5 353Q125 348 111 340.5Q97 333 83 324V416Q94 424 109.5 431Q125 438 143.5 443Q162 448 183 451Q204 454 224 454Q267 454 300.5 443Q334 432 357 410.5Q380 389 392 359Q404 329 404 291V0H308V25Q302 19 291.5 13.5Q281 8 266 3Q251 -2 234 -5Q217 -8 199 -8Q165 -8 134.5 2Q104 12 81.5 31Q59 50 46 77Q33 104 33 137Q33 168 46 194.5Q59 221 82.5 240Q106 259 138 269.5Q170 280 206 280Q220 280 235.5 277.5Q251 275 265 271.5Q279 268 290 263Q301 258 308 253Z" glyph-name="a" horiz-adv-x="460" unicode="a" /><glyph d="M308 118V155Q304 165 295 173.5Q286 182 274 188Q262 194 247.5 197Q233 200 218 200Q201 200 184.5 196Q168 192 154.5 184.5Q141 177 133.5 165Q126 153 126 137Q126 121 133.5 108.5Q141 96 154.5 88.5Q168 81 184.5 77Q201 73 218 73Q233 73 247.5 76Q262 79 274 85Q286 91 295 99.5Q304 108 308 118ZM308 253V284Q308 303 301 317.5Q294 332 280.5 342Q267 352 248 357.5Q229 363 206 363Q188 363 172 360.5Q156 358 140.5 353Q125 348 111 340.5Q97 333 83 324V416Q94 424 109.5 431Q125 438 143.5 443Q162 448 183 451Q204 454 224 454Q267 454 300.5 443Q334 432 357 410.5Q380 389 392 359Q404 329 404 291V0H308V25Q302 19 291.5 13.5Q281 8 266 3Q251 -2 234 -5Q217 -8 199 -8Q165 -8 134.5 2Q104 12 81.5 31Q59 50 46 77Q33 104 33 137Q33 168 46 194.5Q59 221 82.5 240Q106 259 138 269.5Q170 280 206 280Q220 280 235.5 277.5Q251 275 265 271.5Q279 268 290 263Q301 258 308 253ZM275 513H186L263 650H366Z" glyph-name="aacute" horiz-adv-x="460" unicode="&#225;" /><glyph d="M308 118V155Q304 165 295 173.5Q286 182 274 188Q262 194 247.5 197Q233 200 218 200Q201 200 184.5 196Q168 192 154.5 184.5Q141 177 133.5 165Q126 153 126 137Q126 121 133.5 108.5Q141 96 154.5 88.5Q168 81 184.5 77Q201 73 218 73Q233 73 247.5 76Q262 79 274 85Q286 91 295 99.5Q304 108 308 118ZM308 253V284Q308 303 301 317.5Q294 332 280.5 342Q267 352 248 357.5Q229 363 206 363Q188 363 172 360.5Q156 358 140.5 353Q125 348 111 340.5Q97 333 83 324V416Q94 424 109.5 431Q125 438 143.5 443Q162 448 183 451Q204 454 224 454Q267 454 300.5 443Q334 432 357 410.5Q380 389 392 359Q404 329 404 291V0H308V25Q302 19 291.5 13.5Q281 8 266 3Q251 -2 234 -5Q217 -8 199 -8Q165 -8 134.5 2Q104 12 81.5 31Q59 50 46 77Q33 104 33 137Q33 168 46 194.5Q59 221 82.5 240Q106 259 138 269.5Q170 280 206 280Q220 280 235.5 277.5Q251 275 265 271.5Q279 268 290 263Q301 258 308 253ZM236 495Q208 495 185 504Q162 513 145.5 530Q129 547 120 572.5Q111 598 111 630H184Q184 616 187 604Q190 592 196.5 583Q203 574 213 569.5Q223 565 236 565Q249 565 259 569.5Q269 574 275.5 583Q282 592 285 604Q288 616 288 630H361Q361 598 352 572.5Q343 547 326.5 530Q310 513 287 504Q264 495 236 495Z" glyph-name="abreve" horiz-adv-x="460" unicode="&#259;" /><glyph d="M308 118V155Q304 165 295 173.5Q286 182 274 188Q262 194 247.5 197Q233 200 218 200Q201 200 184.5 196Q168 192 154.5 184.5Q141 177 133.5 165Q126 153 126 137Q126 121 133.5 108.5Q141 96 154.5 88.5Q168 81 184.5 77Q201 73 218 73Q233 73 247.5 76Q262 79 274 85Q286 91 295 99.5Q304 108 308 118ZM308 253V284Q308 303 301 317.5Q294 332 280.5 342Q267 352 248 357.5Q229 363 206 363Q188 363 172 360.5Q156 358 140.5 353Q125 348 111 340.5Q97 333 83 324V416Q94 424 109.5 431Q125 438 143.5 443Q162 448 183 451Q204 454 224 454Q267 454 300.5 443Q334 432 357 410.5Q380 389 392 359Q404 329 404 291V0H308V25Q302 19 291.5 13.5Q281 8 266 3Q251 -2 234 -5Q217 -8 199 -8Q165 -8 134.5 2Q104 12 81.5 31Q59 50 46 77Q33 104 33 137Q33 168 46 194.5Q59 221 82.5 240Q106 259 138 269.5Q170 280 206 280Q220 280 235.5 277.5Q251 275 265 271.5Q279 268 290 263Q301 258 308 253ZM282 646 376 506H292L236 585L180 506H96L190 646Z" glyph-name="acircumflex" horiz-adv-x="460" unicode="&#226;" /><glyph d="M249 513H160L237 650H340Z" glyph-name="acute" horiz-adv-x="500" unicode="&#180;" /><glyph d="M251 671H153L230 788H346Z" glyph-name="acute.cap" horiz-adv-x="500" /><glyph d="M308 118V155Q304 165 295 173.5Q286 182 274 188Q262 194 247.5 197Q233 200 218 200Q201 200 184.5 196Q168 192 154.5 184.5Q141 177 133.5 165Q126 153 126 137Q126 121 133.5 108.5Q141 96 154.5 88.5Q168 81 184.5 77Q201 73 218 73Q233 73 247.5 76Q262 79 274 85Q286 91 295 99.5Q304 108 308 118ZM308 253V284Q308 303 301 317.5Q294 332 280.5 342Q267 352 248 357.5Q229 363 206 363Q188 363 172 360.5Q156 358 140.5 353Q125 348 111 340.5Q97 333 83 324V416Q94 424 109.5 431Q125 438 143.5 443Q162 448 183 451Q204 454 224 454Q267 454 300.5 443Q334 432 357 410.5Q380 389 392 359Q404 329 404 291V0H308V25Q302 19 291.5 13.5Q281 8 266 3Q251 -2 234 -5Q217 -8 199 -8Q165 -8 134.5 2Q104 12 81.5 31Q59 50 46 77Q33 104 33 137Q33 168 46 194.5Q59 221 82.5 240Q106 259 138 269.5Q170 280 206 280Q220 280 235.5 277.5Q251 275 265 271.5Q279 268 290 263Q301 258 308 253ZM255 572Q255 584 259.5 595Q264 606 272 614Q280 622 290.5 626.5Q301 631 313 631Q325 631 335.5 626.5Q346 622 354.5 614Q363 606 367.5 595Q372 584 372 572Q372 560 367.5 549.5Q363 539 354.5 531Q346 523 335.5 518.5Q325 514 313 514Q301 514 290.5 518.5Q280 523 272 531Q264 539 259.5 549.5Q255 560 255 572ZM101 572Q101 585 105.5 595.5Q110 606 118 614Q126 622 137 626.5Q148 631 160 631Q172 631 182.5 626.5Q193 622 201 614Q209 606 213.5 595Q218 584 218 572Q218 560 213.5 549.5Q209 539 201 531Q193 523 182.5 518.5Q172 514 160 514Q148 514 137 518.5Q126 523 118 531Q110 539 105.5 549.5Q101 560 101 572Z" glyph-name="adieresis" horiz-adv-x="460" unicode="&#228;" /><glyph d="M520 -10Q495 -10 471.5 -5.5Q448 -1 427 7.5Q406 16 388 29Q370 42 355 58Q340 42 323 30Q306 18 286.5 9.5Q267 1 245 -3.5Q223 -8 199 -8Q165 -8 135 1.5Q105 11 82 29.5Q59 48 46 74Q33 100 33 131Q33 164 46.5 190.5Q60 217 83.5 235.5Q107 254 139 263.5Q171 273 208 273H308V284Q308 303 301 317.5Q294 332 280.5 342Q267 352 248 357.5Q229 363 206 363Q188 363 172 360.5Q156 358 140.5 353Q125 348 111 340.5Q97 333 83 324V416Q94 424 109.5 431Q125 438 143.5 443Q162 448 183 451Q204 454 224 454Q250 454 272 450Q294 446 312 437.5Q330 429 344 417Q358 405 369 390Q381 405 396 416.5Q411 428 428 436.5Q445 445 464.5 449.5Q484 454 504 454Q549 454 584.5 438Q620 422 643.5 392.5Q667 363 679 322.5Q691 282 691 233V197H398Q401 166 412.5 143Q424 120 442.5 105Q461 90 484 83Q507 76 534 76Q553 76 569 78.5Q585 81 600 86Q615 91 630 98.5Q645 106 661 117V29Q647 19 631 11.5Q615 4 597.5 -1Q580 -6 560.5 -8Q541 -10 520 -10ZM505 370Q488 370 471.5 364.5Q455 359 441.5 347.5Q428 336 417.5 317Q407 298 402 273H596Q595 293 588.5 311Q582 329 570.5 342Q559 355 542.5 362.5Q526 370 505 370ZM208 73Q226 73 241.5 77Q257 81 270 89Q283 97 292.5 108.5Q302 120 308 135V197H216Q198 197 182 193.5Q166 190 153.5 183Q141 176 133.5 164.5Q126 153 126 137Q126 121 132.5 109Q139 97 150.5 89Q162 81 177 77Q192 73 208 73Z" glyph-name="ae" horiz-adv-x="724" unicode="&#230;" /><glyph d="M423 513H334L411 650H514ZM520 -10Q495 -10 471.5 -5.5Q448 -1 427 7.5Q406 16 388 29Q370 42 355 58Q340 42 323 30Q306 18 286.5 9.5Q267 1 245 -3.5Q223 -8 199 -8Q165 -8 135 1.5Q105 11 82 29.5Q59 48 46 74Q33 100 33 131Q33 164 46.5 190.5Q60 217 83.5 235.5Q107 254 139 263.5Q171 273 208 273H308V284Q308 303 301 317.5Q294 332 280.5 342Q267 352 248 357.5Q229 363 206 363Q188 363 172 360.5Q156 358 140.5 353Q125 348 111 340.5Q97 333 83 324V416Q94 424 109.5 431Q125 438 143.5 443Q162 448 183 451Q204 454 224 454Q250 454 272 450Q294 446 312 437.5Q330 429 344 417Q358 405 369 390Q381 405 396 416.5Q411 428 428 436.5Q445 445 464.5 449.5Q484 454 504 454Q549 454 584.5 438Q620 422 643.5 392.5Q667 363 679 322.5Q691 282 691 233V197H398Q401 166 412.5 143Q424 120 442.5 105Q461 90 484 83Q507 76 534 76Q553 76 569 78.5Q585 81 600 86Q615 91 630 98.5Q645 106 661 117V29Q647 19 631 11.5Q615 4 597.5 -1Q580 -6 560.5 -8Q541 -10 520 -10ZM505 370Q488 370 471.5 364.5Q455 359 441.5 347.5Q428 336 417.5 317Q407 298 402 273H596Q595 293 588.5 311Q582 329 570.5 342Q559 355 542.5 362.5Q526 370 505 370ZM208 73Q226 73 241.5 77Q257 81 270 89Q283 97 292.5 108.5Q302 120 308 135V197H216Q198 197 182 193.5Q166 190 153.5 183Q141 176 133.5 164.5Q126 153 126 137Q126 121 132.5 109Q139 97 150.5 89Q162 81 177 77Q192 73 208 73Z" glyph-name="aeacute" horiz-adv-x="724" unicode="&#509;" /><glyph d="M308 118V155Q304 165 295 173.5Q286 182 274 188Q262 194 247.5 197Q233 200 218 200Q201 200 184.5 196Q168 192 154.5 184.5Q141 177 133.5 165Q126 153 126 137Q126 121 133.5 108.5Q141 96 154.5 88.5Q168 81 184.5 77Q201 73 218 73Q233 73 247.5 76Q262 79 274 85Q286 91 295 99.5Q304 108 308 118ZM308 253V284Q308 303 301 317.5Q294 332 280.5 342Q267 352 248 357.5Q229 363 206 363Q188 363 172 360.5Q156 358 140.5 353Q125 348 111 340.5Q97 333 83 324V416Q94 424 109.5 431Q125 438 143.5 443Q162 448 183 451Q204 454 224 454Q267 454 300.5 443Q334 432 357 410.5Q380 389 392 359Q404 329 404 291V0H308V25Q302 19 291.5 13.5Q281 8 266 3Q251 -2 234 -5Q217 -8 199 -8Q165 -8 134.5 2Q104 12 81.5 31Q59 50 46 77Q33 104 33 137Q33 168 46 194.5Q59 221 82.5 240Q106 259 138 269.5Q170 280 206 280Q220 280 235.5 277.5Q251 275 265 271.5Q279 268 290 263Q301 258 308 253ZM286 513H197L106 650H209Z" glyph-name="agrave" horiz-adv-x="460" unicode="&#224;" /><glyph d="M308 118V155Q304 165 295 173.5Q286 182 274 188Q262 194 247.5 197Q233 200 218 200Q201 200 184.5 196Q168 192 154.5 184.5Q141 177 133.5 165Q126 153 126 137Q126 121 133.5 108.5Q141 96 154.5 88.5Q168 81 184.5 77Q201 73 218 73Q233 73 247.5 76Q262 79 274 85Q286 91 295 99.5Q304 108 308 118ZM308 253V284Q308 303 301 317.5Q294 332 280.5 342Q267 352 248 357.5Q229 363 206 363Q188 363 172 360.5Q156 358 140.5 353Q125 348 111 340.5Q97 333 83 324V416Q94 424 109.5 431Q125 438 143.5 443Q162 448 183 451Q204 454 224 454Q267 454 300.5 443Q334 432 357 410.5Q380 389 392 359Q404 329 404 291V0H308V25Q302 19 291.5 13.5Q281 8 266 3Q251 -2 234 -5Q217 -8 199 -8Q165 -8 134.5 2Q104 12 81.5 31Q59 50 46 77Q33 104 33 137Q33 168 46 194.5Q59 221 82.5 240Q106 259 138 269.5Q170 280 206 280Q220 280 235.5 277.5Q251 275 265 271.5Q279 268 290 263Q301 258 308 253ZM124 524V603H349V524Z" glyph-name="amacron" horiz-adv-x="460" unicode="&#257;" /><glyph d="M244 72Q261 72 277 75Q293 78 307 83.5Q321 89 333.5 97Q346 105 357 116L200 284Q185 277 173 266.5Q161 256 152.5 242.5Q144 229 139 213Q134 197 134 180Q134 156 141.5 136Q149 116 163.5 102Q178 88 198.5 80Q219 72 244 72ZM466 0 413 57Q396 41 377 29Q358 17 336.5 8Q315 -1 292 -5.5Q269 -10 244 -10Q199 -10 161.5 4Q124 18 96.5 43.5Q69 69 54.5 104Q40 139 40 180Q40 206 48 230.5Q56 255 70 276.5Q84 298 103.5 315Q123 332 146 344Q135 359 126.5 372.5Q118 386 112 400.5Q106 415 103 431Q100 447 100 465Q100 501 113 531Q126 561 150 581.5Q174 602 206.5 613Q239 624 276 624Q295 624 313 621.5Q331 619 348 614Q365 609 380 601.5Q395 594 409 585V484Q394 497 379 507.5Q364 518 347.5 525.5Q331 533 313 537Q295 541 276 541Q260 541 245.5 536.5Q231 532 220 522.5Q209 513 202.5 499Q196 485 196 468Q196 454 200.5 440.5Q205 427 213 415Q221 403 230 392.5Q239 382 254 366L408 201Q412 213 415.5 226Q419 239 421.5 253Q424 267 425.5 281.5Q427 296 428 312H520Q519 288 515.5 264.5Q512 241 506 218.5Q500 196 491.5 174.5Q483 153 472 133L596 0Z" glyph-name="ampersand" horiz-adv-x="606" unicode="&amp;" /><glyph d="M333 0H308V25Q302 19 291.5 13.5Q281 8 266 3Q251 -2 234 -5Q217 -8 199 -8Q165 -8 134.5 2Q104 12 81.5 31Q59 50 46 77Q33 104 33 137Q33 168 46 194.5Q59 221 82.5 240Q106 259 138 269.5Q170 280 206 280Q220 280 235.5 277.5Q251 275 265 271.5Q279 268 290 263Q301 258 308 253V284Q308 303 301 317.5Q294 332 280.5 342Q267 352 248 357.5Q229 363 206 363Q188 363 172 360.5Q156 358 140.5 353Q125 348 111 340.5Q97 333 83 324V416Q94 424 109.5 431Q125 438 143.5 443Q162 448 183 451Q204 454 224 454Q267 454 300.5 443Q334 432 357 410.5Q380 389 392 359Q404 329 404 291V0Q356 -76 363 -65Q370 -54 365 -63.5Q360 -73 357.5 -80.5Q355 -88 355 -97Q355 -102 356.5 -106.5Q358 -111 360.5 -114Q363 -117 367 -118.5Q371 -120 376 -120Q380 -120 384.5 -119Q389 -118 393 -116Q397 -114 401.5 -111.5Q406 -109 413 -104V-168Q407 -173 400 -177Q393 -181 386 -184Q379 -187 371 -188.5Q363 -190 354 -190Q335 -190 320.5 -184.5Q306 -179 297 -169.5Q288 -160 283.5 -147Q279 -134 279 -118Q279 -103 283 -88.5Q287 -74 294.5 -60.5Q302 -47 305.5 -42Q309 -37 333 0ZM308 118V155Q304 165 295 173.5Q286 182 274 188Q262 194 247.5 197Q233 200 218 200Q201 200 184.5 196Q168 192 154.5 184.5Q141 177 133.5 165Q126 153 126 137Q126 121 133.5 108.5Q141 96 154.5 88.5Q168 81 184.5 77Q201 73 218 73Q233 73 247.5 76Q262 79 274 85Q286 91 295 99.5Q304 108 308 118Z" glyph-name="aogonek" horiz-adv-x="460" unicode="&#261;" /><glyph d="M82 312V388Q97 398 111.5 405Q126 412 140 416.5Q154 421 167.5 423Q181 425 194 425Q217 425 238 420.5Q259 416 288.5 407Q318 398 338.5 393.5Q359 389 382 389Q395 389 409 391Q423 393 437 398Q451 403 466 410Q481 417 497 427V351Q481 341 466 334Q451 327 437 322Q423 317 409 315Q395 313 382 313Q359 313 338.5 317.5Q318 322 288.5 331.5Q259 341 238 345.5Q217 350 194 350Q181 350 167.5 348Q154 346 140 341Q126 336 111.5 329Q97 322 82 312ZM82 174V249Q97 259 111.5 266Q126 273 140 278Q154 283 167.5 285Q181 287 194 287Q217 287 238 282.5Q259 278 288.5 268.5Q318 259 338.5 254.5Q359 250 382 250Q396 250 409.5 252Q423 254 437.5 258.5Q452 263 467 270.5Q482 278 497 288V212Q482 202 467 195Q452 188 437.5 183.5Q423 179 409 177Q395 175 382 175Q359 175 338.5 179.5Q318 184 288.5 193Q259 202 238 206.5Q217 211 194 211Q181 211 167.5 209Q154 207 140 202.5Q126 198 111.5 191Q97 184 82 174Z" glyph-name="approxequal" horiz-adv-x="578" unicode="&#8776;" /><glyph d="M52 312V388Q67 398 81.5 405Q96 412 110 416.5Q124 421 137.5 423Q151 425 164 425Q187 425 208 420.5Q229 416 258.5 407Q288 398 308.5 393.5Q329 389 352 389Q365 389 379 391Q393 393 407 398Q421 403 436 410Q451 417 467 427V351Q451 341 436 334Q421 327 407 322Q393 317 379 315Q365 313 352 313Q329 313 308.5 317.5Q288 322 258.5 331.5Q229 341 208 345.5Q187 350 164 350Q151 350 137.5 348Q124 346 110 341Q96 336 81.5 329Q67 322 52 312ZM52 174V249Q67 259 81.5 266Q96 273 110 278Q124 283 137.5 285Q151 287 164 287Q187 287 208 282.5Q229 278 258.5 268.5Q288 259 308.5 254.5Q329 250 352 250Q366 250 379.5 252Q393 254 407.5 258.5Q422 263 437 270.5Q452 278 467 288V212Q452 202 437 195Q422 188 407.5 183.5Q393 179 379 177Q365 175 352 175Q329 175 308.5 179.5Q288 184 258.5 193Q229 202 208 206.5Q187 211 164 211Q151 211 137.5 209Q124 207 110 202.5Q96 198 81.5 191Q67 184 52 174Z" glyph-name="approxequal.lt" horiz-adv-x="520" /><glyph d="M308 118V155Q304 165 295 173.5Q286 182 274 188Q262 194 247.5 197Q233 200 218 200Q201 200 184.5 196Q168 192 154.5 184.5Q141 177 133.5 165Q126 153 126 137Q126 121 133.5 108.5Q141 96 154.5 88.5Q168 81 184.5 77Q201 73 218 73Q233 73 247.5 76Q262 79 274 85Q286 91 295 99.5Q304 108 308 118ZM308 253V284Q308 303 301 317.5Q294 332 280.5 342Q267 352 248 357.5Q229 363 206 363Q188 363 172 360.5Q156 358 140.5 353Q125 348 111 340.5Q97 333 83 324V416Q94 424 109.5 431Q125 438 143.5 443Q162 448 183 451Q204 454 224 454Q267 454 300.5 443Q334 432 357 410.5Q380 389 392 359Q404 329 404 291V0H308V25Q302 19 291.5 13.5Q281 8 266 3Q251 -2 234 -5Q217 -8 199 -8Q165 -8 134.5 2Q104 12 81.5 31Q59 50 46 77Q33 104 33 137Q33 168 46 194.5Q59 221 82.5 240Q106 259 138 269.5Q170 280 206 280Q220 280 235.5 277.5Q251 275 265 271.5Q279 268 290 263Q301 258 308 253ZM329 580Q329 561 322 544Q315 527 302 515Q289 503 272 496Q255 489 236 489Q217 489 200 496Q183 503 170 515Q157 527 150 544Q143 561 143 580Q143 599 150 616Q157 633 170 645Q183 657 200 664Q217 671 236 671Q255 671 272 664Q289 657 302 645Q315 633 322 616Q329 599 329 580ZM278 580Q278 589 274.5 596.5Q271 604 265.5 610Q260 616 252.5 619Q245 622 236 622Q227 622 219.5 619Q212 616 206.5 610Q201 604 197.5 596.5Q194 589 194 580Q194 571 197.5 563.5Q201 556 206.5 550Q212 544 219.5 541Q227 538 236 538Q245 538 252.5 541Q260 544 265.5 550Q271 556 274.5 563.5Q278 571 278 580Z" glyph-name="aring" horiz-adv-x="460" unicode="&#229;" /><glyph d="M285 646H187L240 734H356ZM322 550Q322 534 315 520Q308 506 295 495.5Q282 485 265 479Q248 473 229 473Q210 473 193 479Q176 485 163 495.5Q150 506 143 520Q136 534 136 550Q136 566 143 580Q150 594 163 604.5Q176 615 193 621Q210 627 229 627Q248 627 265 621Q282 615 295 604.5Q308 594 315 580Q322 566 322 550ZM271 550Q271 557 268 563Q265 569 259 573.5Q253 578 245.5 580Q238 582 229 582Q220 582 212.5 580Q205 578 199 573.5Q193 569 190 563Q187 557 187 550Q187 543 190 537Q193 531 199 526.5Q205 522 212.5 520Q220 518 229 518Q238 518 245.5 520Q253 522 259 526.5Q265 531 268 537Q271 543 271 550ZM308 118V155Q304 165 295 173.5Q286 182 274 188Q262 194 247.5 197Q233 200 218 200Q201 200 184.5 196Q168 192 154.5 184.5Q141 177 133.5 165Q126 153 126 137Q126 121 133.5 108.5Q141 96 154.5 88.5Q168 81 184.5 77Q201 73 218 73Q233 73 247.5 76Q262 79 274 85Q286 91 295 99.5Q304 108 308 118ZM308 253V284Q308 303 301 317.5Q294 332 280.5 342Q267 352 248 357.5Q229 363 206 363Q188 363 172 360.5Q156 358 140.5 353Q125 348 111 340.5Q97 333 83 324V416Q94 424 109.5 431Q125 438 143.5 443Q162 448 183 451Q204 454 224 454Q267 454 300.5 443Q334 432 357 410.5Q380 389 392 359Q404 329 404 291V0H308V25Q302 19 291.5 13.5Q281 8 266 3Q251 -2 234 -5Q217 -8 199 -8Q165 -8 134.5 2Q104 12 81.5 31Q59 50 46 77Q33 104 33 137Q33 168 46 194.5Q59 221 82.5 240Q106 259 138 269.5Q170 280 206 280Q220 280 235.5 277.5Q251 275 265 271.5Q279 268 290 263Q301 258 308 253Z" glyph-name="aringacute" horiz-adv-x="460" unicode="&#507;" /><glyph d="M145 614H247L381 408H280L196 534L112 408H10Z" glyph-name="asciicircum" horiz-adv-x="391" unicode="^" /><glyph d="M309 341H389Q389 307 382 280Q375 253 361.5 234.5Q348 216 329 206.5Q310 197 286 197Q265 197 248 205Q231 213 210 229.5Q189 246 179 252.5Q169 259 157 259Q148 259 141 255.5Q134 252 129.5 244.5Q125 237 122.5 226.5Q120 216 120 201H40Q40 235 47 261.5Q54 288 67 306.5Q80 325 99.5 334.5Q119 344 143 344Q163 344 180 336Q197 328 218 312Q239 296 249.5 289.5Q260 283 272 283Q281 283 287.5 286.5Q294 290 299 297.5Q304 305 306.5 316Q309 327 309 341Z" glyph-name="asciitilde" horiz-adv-x="429" unicode="~" /><glyph d="M118 500 30 551 58 599 146 548V650H202V548L290 599L318 551L229 500L318 449L290 401L202 452V350H146V452L58 401L30 449Z" glyph-name="asterisk" horiz-adv-x="348" unicode="*" /><glyph d="M570 382 530 151Q528 138 528.5 128.5Q529 119 532.5 113Q536 107 543.5 104Q551 101 563 101Q586 101 605.5 113Q625 125 639.5 147.5Q654 170 661.5 202.5Q669 235 669 274Q669 326 650 368Q631 410 596 439Q561 468 513.5 483.5Q466 499 411 499Q345 499 289 476.5Q233 454 192.5 413Q152 372 130 315Q108 258 108 190Q108 115 135 61.5Q162 8 206.5 -23.5Q251 -55 304 -69Q357 -83 412 -83Q446 -83 476.5 -79.5Q507 -76 534 -69.5Q561 -63 586 -54.5Q611 -46 636 -35V-107Q617 -117 592 -125.5Q567 -134 538 -140.5Q509 -147 477 -150.5Q445 -154 412 -154Q336 -154 267.5 -133.5Q199 -113 144.5 -71Q90 -29 59 37Q28 103 28 190Q28 268 55.5 337.5Q83 407 134 459.5Q185 512 256 541.5Q327 571 411 571Q484 571 546 549Q608 527 653 486.5Q698 446 722 391.5Q746 337 746 274Q746 215 729.5 169Q713 123 685 93Q657 63 621.5 48Q586 33 547 33Q529 33 513 36.5Q497 40 483 47Q469 54 457.5 64Q446 74 439 87Q432 75 421.5 65Q411 55 398 48Q385 41 370.5 37Q356 33 343 33Q313 33 288 44Q263 55 245 75.5Q227 96 217.5 123.5Q208 151 208 182Q208 223 221.5 261Q235 299 260 328.5Q285 358 319 375Q353 392 392 392Q407 392 420.5 389Q434 386 445 381Q456 376 464 369Q472 362 477 355L483 382ZM441 160 462 271Q459 280 453 287.5Q447 295 439 300.5Q431 306 420.5 309Q410 312 398 312Q376 312 358 302Q340 292 327 274Q314 256 307 233.5Q300 211 300 187Q300 171 304.5 157.5Q309 144 317 134.5Q325 125 337.5 119.5Q350 114 365 114Q378 114 389 117.5Q400 121 409.5 127.5Q419 134 427 142Q435 150 441 160Z" glyph-name="at" horiz-adv-x="774" unicode="@" /><glyph d="M570 474 530 243Q528 230 528.5 220.5Q529 211 532.5 205Q536 199 543.5 196Q551 193 563 193Q586 193 605.5 205Q625 217 639.5 239.5Q654 262 661.5 294.5Q669 327 669 366Q669 418 650 460Q631 502 596 531Q561 560 513.5 575.5Q466 591 411 591Q345 591 289 568.5Q233 546 192.5 505Q152 464 130 407Q108 350 108 282Q108 207 135 153.5Q162 100 206.5 68.5Q251 37 304 23Q357 9 412 9Q446 9 476.5 12.5Q507 16 534 22.5Q561 29 586 37.5Q611 46 636 57V-15Q617 -25 592 -33.5Q567 -42 538 -48.5Q509 -55 477 -58.5Q445 -62 412 -62Q336 -62 267.5 -41.5Q199 -21 144.5 21Q90 63 59 129Q28 195 28 282Q28 360 55.5 429.5Q83 499 134 551.5Q185 604 256 633.5Q327 663 411 663Q484 663 546 641Q608 619 653 578.5Q698 538 722 483.5Q746 429 746 366Q746 307 729.5 261Q713 215 685 185Q657 155 621.5 140Q586 125 547 125Q529 125 513 128.5Q497 132 483 139Q469 146 457.5 156Q446 166 439 179Q432 167 421.5 157Q411 147 398 140Q385 133 370.5 129Q356 125 343 125Q313 125 288 136Q263 147 245 167.5Q227 188 217.5 215.5Q208 243 208 274Q208 315 221.5 353Q235 391 260 420.5Q285 450 319 467Q353 484 392 484Q407 484 420.5 481Q434 478 445 473Q456 468 464 461Q472 454 477 447L483 474ZM441 252 462 363Q459 372 453 379.5Q447 387 439 392.5Q431 398 420.5 401Q410 404 398 404Q376 404 358 394Q340 384 327 366Q314 348 307 325.5Q300 303 300 279Q300 263 304.5 249.5Q309 236 317 226.5Q325 217 337.5 211.5Q350 206 365 206Q378 206 389 209.5Q400 213 409.5 219.5Q419 226 427 234Q435 242 441 252Z" glyph-name="at.cap" horiz-adv-x="774" /><glyph d="M308 118V155Q304 165 295 173.5Q286 182 274 188Q262 194 247.5 197Q233 200 218 200Q201 200 184.5 196Q168 192 154.5 184.5Q141 177 133.5 165Q126 153 126 137Q126 121 133.5 108.5Q141 96 154.5 88.5Q168 81 184.5 77Q201 73 218 73Q233 73 247.5 76Q262 79 274 85Q286 91 295 99.5Q304 108 308 118ZM308 253V284Q308 303 301 317.5Q294 332 280.5 342Q267 352 248 357.5Q229 363 206 363Q188 363 172 360.5Q156 358 140.5 353Q125 348 111 340.5Q97 333 83 324V416Q94 424 109.5 431Q125 438 143.5 443Q162 448 183 451Q204 454 224 454Q267 454 300.5 443Q334 432 357 410.5Q380 389 392 359Q404 329 404 291V0H308V25Q302 19 291.5 13.5Q281 8 266 3Q251 -2 234 -5Q217 -8 199 -8Q165 -8 134.5 2Q104 12 81.5 31Q59 50 46 77Q33 104 33 137Q33 168 46 194.5Q59 221 82.5 240Q106 259 138 269.5Q170 280 206 280Q220 280 235.5 277.5Q251 275 265 271.5Q279 268 290 263Q301 258 308 253ZM314 641H374Q374 612 368.5 587.5Q363 563 353 546Q343 529 327 519.5Q311 510 291 510Q277 510 264 517Q251 524 234 537.5Q217 551 208.5 556.5Q200 562 190 562Q182 562 176 558.5Q170 555 166.5 549Q163 543 160.5 534Q158 525 158 513H98Q98 542 103.5 566.5Q109 591 119 608Q129 625 145 634.5Q161 644 181 644Q196 644 209 637Q222 630 239 616.5Q256 603 264.5 597.5Q273 592 282 592Q289 592 295 595.5Q301 599 305 605Q309 611 311.5 620Q314 629 314 641Z" glyph-name="atilde" horiz-adv-x="460" unicode="&#227;" /><glyph d="M162 38V0H62V650H162V406Q170 416 181.5 424.5Q193 433 208 439.5Q223 446 240 450Q257 454 275 454Q323 454 361.5 436Q400 418 426.5 386Q453 354 467 312Q481 270 481 222Q481 174 467 131.5Q453 89 426.5 57.5Q400 26 361.5 8Q323 -10 275 -10Q257 -10 240 -6Q223 -2 208 4.5Q193 11 181.5 19.5Q170 28 162 38ZM162 306V138Q168 125 178 114Q188 103 201 95Q214 87 228.5 83Q243 79 258 79Q286 79 309 89.5Q332 100 348 119.5Q364 139 372.5 165Q381 191 381 222Q381 253 372.5 279Q364 305 348 324.5Q332 344 309 354.5Q286 365 258 365Q243 365 228.5 361Q214 357 201 349Q188 341 178 330Q168 319 162 306Z" glyph-name="b" horiz-adv-x="512" unicode="b" /><glyph d="M104 650 352 -84H253L5 650Z" glyph-name="backslash" horiz-adv-x="357" unicode="\" /><glyph d="M104 670 352 -64H253L5 670Z" glyph-name="backslash.cap" horiz-adv-x="357" /><glyph d="M68 -84V650H164V-84Z" glyph-name="bar" horiz-adv-x="232" unicode="|" /><glyph d="M68 -64V670H164V-64Z" glyph-name="bar.cap" horiz-adv-x="232" /><glyph d="M197 200V35Q197 28 199 22.5Q201 17 204.5 13.5Q208 10 213.5 8Q219 6 226 6H324V-84H228Q200 -84 176 -74.5Q152 -65 135 -47.5Q118 -30 108.5 -6.5Q99 17 99 46V208Q99 215 97 220.5Q95 226 91.5 229.5Q88 233 82.5 235Q77 237 70 237H20V329H70Q77 329 82.5 331Q88 333 91.5 336.5Q95 340 97 345.5Q99 351 99 358V520Q99 549 108.5 572.5Q118 596 135 613.5Q152 631 176 640.5Q200 650 228 650H324V560H226Q219 560 213.5 558Q208 556 204.5 552.5Q201 549 199 543.5Q197 538 197 531V366Q197 350 193.5 337.5Q190 325 183.5 315Q177 305 168.5 297Q160 289 150 283Q160 277 168.5 269Q177 261 183.5 251Q190 241 193.5 228.5Q197 216 197 200Z" glyph-name="braceleft" horiz-adv-x="344" unicode="{" /><glyph d="M197 220V55Q197 48 199 42.5Q201 37 204.5 33.5Q208 30 213.5 28Q219 26 226 26H324V-64H228Q200 -64 176 -54.5Q152 -45 135 -27.5Q118 -10 108.5 13.5Q99 37 99 66V228Q99 235 97 240.5Q95 246 91.5 249.5Q88 253 82.5 255Q77 257 70 257H20V349H70Q77 349 82.5 351Q88 353 91.5 356.5Q95 360 97 365.5Q99 371 99 378V540Q99 569 108.5 592.5Q118 616 135 633.5Q152 651 176 660.5Q200 670 228 670H324V580H226Q219 580 213.5 578Q208 576 204.5 572.5Q201 569 199 563.5Q197 558 197 551V386Q197 370 193.5 357.5Q190 345 183.5 335Q177 325 168.5 317Q160 309 150 303Q160 297 168.5 289Q177 281 183.5 271Q190 261 193.5 248.5Q197 236 197 220Z" glyph-name="braceleft.cap" horiz-adv-x="344" /><glyph d="M147 35V200Q147 216 150.5 228.5Q154 241 160.5 251Q167 261 175.5 269Q184 277 194 283Q184 289 175.5 297Q167 305 160.5 315Q154 325 150.5 337.5Q147 350 147 366V531Q147 538 145 543.5Q143 549 139.5 552.5Q136 556 130.5 558Q125 560 118 560H20V650H116Q144 650 168 640.5Q192 631 209 613.5Q226 596 235.5 572.5Q245 549 245 520V358Q245 351 247 345.5Q249 340 252.5 336.5Q256 333 261.5 331Q267 329 274 329H324V237H274Q267 237 261.5 235Q256 233 252.5 229.5Q249 226 247 220.5Q245 215 245 208V46Q245 17 235.5 -6.5Q226 -30 209 -47.5Q192 -65 168 -74.5Q144 -84 116 -84H20V6H118Q125 6 130.5 8Q136 10 139.5 13.5Q143 17 145 22.5Q147 28 147 35Z" glyph-name="braceright" horiz-adv-x="344" unicode="}" /><glyph d="M147 55V220Q147 236 150.5 248.5Q154 261 160.5 271Q167 281 175.5 289Q184 297 194 303Q184 309 175.5 317Q167 325 160.5 335Q154 345 150.5 357.5Q147 370 147 386V551Q147 558 145 563.5Q143 569 139.5 572.5Q136 576 130.5 578Q125 580 118 580H20V670H116Q144 670 168 660.5Q192 651 209 633.5Q226 616 235.5 592.5Q245 569 245 540V378Q245 371 247 365.5Q249 360 252.5 356.5Q256 353 261.5 351Q267 349 274 349H324V257H274Q267 257 261.5 255Q256 253 252.5 249.5Q249 246 247 240.5Q245 235 245 228V66Q245 37 235.5 13.5Q226 -10 209 -27.5Q192 -45 168 -54.5Q144 -64 116 -64H20V26H118Q125 26 130.5 28Q136 30 139.5 33.5Q143 37 145 42.5Q147 48 147 55Z" glyph-name="braceright.cap" horiz-adv-x="344" /><glyph d="M162 560V6H295V-84H68V650H295V560Z" glyph-name="bracketleft" horiz-adv-x="315" unicode="[" /><glyph d="M162 580V26H295V-64H68V670H295V580Z" glyph-name="bracketleft.cap" horiz-adv-x="315" /><glyph d="M153 6V560H20V650H247V-84H20V6Z" glyph-name="bracketright" horiz-adv-x="315" unicode="]" /><glyph d="M153 26V580H20V670H247V-64H20V26Z" glyph-name="bracketright.cap" horiz-adv-x="315" /><glyph d="M250 495Q222 495 199 504Q176 513 159.5 530Q143 547 134 572.5Q125 598 125 630H198Q198 616 201 604Q204 592 210.5 583Q217 574 227 569.5Q237 565 250 565Q263 565 273 569.5Q283 574 289.5 583Q296 592 299 604Q302 616 302 630H375Q375 598 366 572.5Q357 547 340.5 530Q324 513 301 504Q278 495 250 495Z" glyph-name="breve" horiz-adv-x="500" unicode="&#728;" /><glyph d="M249 667Q220 667 196.5 675Q173 683 156.5 699Q140 715 131 738Q122 761 122 791H195Q195 778 199 768.5Q203 759 210 752.5Q217 746 227 743Q237 740 249 740Q262 740 272 743Q282 746 289 752.5Q296 759 300 768.5Q304 778 304 791H377Q377 761 368 738Q359 715 342.5 699Q326 683 302 675Q278 667 249 667Z" glyph-name="breve.cap" horiz-adv-x="500" /><glyph d="M320 262Q320 231 309 204.5Q298 178 278 159Q258 140 232 129.5Q206 119 176 119Q146 119 120 129.5Q94 140 74 159Q54 178 43 204.5Q32 231 32 262Q32 293 43 319.5Q54 346 74 365.5Q94 385 120 395.5Q146 406 176 406Q206 406 232 395.5Q258 385 278 365.5Q298 346 309 319.5Q320 293 320 262Z" glyph-name="bullet" horiz-adv-x="352" unicode="&#8226;" /><glyph d="M320 302Q320 271 309 244.5Q298 218 278 199Q258 180 232 169.5Q206 159 176 159Q146 159 120 169.5Q94 180 74 199Q54 218 43 244.5Q32 271 32 302Q32 333 43 359.5Q54 386 74 405.5Q94 425 120 435.5Q146 446 176 446Q206 446 232 435.5Q258 425 278 405.5Q298 386 309 359.5Q320 333 320 302Z" glyph-name="bullet.cap" horiz-adv-x="352" /><glyph d="M31 222Q31 274 48 317.5Q65 361 95.5 391.5Q126 422 166.5 438Q207 454 252 454Q269 454 285 452Q301 450 316.5 445.5Q332 441 346.5 434Q361 427 373 417V319Q361 331 348 339.5Q335 348 320.5 353.5Q306 359 290.5 362Q275 365 259 365Q232 365 209 355Q186 345 168.5 326Q151 307 141 280.5Q131 254 131 222Q131 190 141 163.5Q151 137 168.5 118Q186 99 209 89Q232 79 259 79Q275 79 290.5 82Q306 85 320.5 90.5Q335 96 348 104.5Q361 113 373 125V27Q361 17 346.5 10Q332 3 316.5 -1.5Q301 -6 285 -8Q269 -10 252 -10Q207 -10 166.5 6Q126 22 95.5 52.5Q65 83 48 126.5Q31 170 31 222Z" glyph-name="c" horiz-adv-x="408" unicode="c" /><glyph d="M293 513H204L281 650H384ZM31 222Q31 274 48 317.5Q65 361 95.5 391.5Q126 422 166.5 438Q207 454 252 454Q269 454 285 452Q301 450 316.5 445.5Q332 441 346.5 434Q361 427 373 417V319Q361 331 348 339.5Q335 348 320.5 353.5Q306 359 290.5 362Q275 365 259 365Q232 365 209 355Q186 345 168.5 326Q151 307 141 280.5Q131 254 131 222Q131 190 141 163.5Q151 137 168.5 118Q186 99 209 89Q232 79 259 79Q275 79 290.5 82Q306 85 320.5 90.5Q335 96 348 104.5Q361 113 373 125V27Q361 17 346.5 10Q332 3 316.5 -1.5Q301 -6 285 -8Q269 -10 252 -10Q207 -10 166.5 6Q126 22 95.5 52.5Q65 83 48 126.5Q31 170 31 222Z" glyph-name="cacute" horiz-adv-x="408" unicode="&#263;" /><glyph d="M390 646 296 506H204L110 646H194L250 567L306 646Z" glyph-name="caron" horiz-adv-x="500" unicode="&#711;" /><glyph d="M264 483H186L220 650H298Z" glyph-name="caron.Slovak" horiz-adv-x="500" /><glyph d="M204 671 110 795H199L250 735L301 795H390L296 671Z" glyph-name="caron.cap" horiz-adv-x="500" /><glyph d="M383 646 289 506H197L103 646H187L243 567L299 646ZM31 222Q31 274 48 317.5Q65 361 95.5 391.5Q126 422 166.5 438Q207 454 252 454Q269 454 285 452Q301 450 316.5 445.5Q332 441 346.5 434Q361 427 373 417V319Q361 331 348 339.5Q335 348 320.5 353.5Q306 359 290.5 362Q275 365 259 365Q232 365 209 355Q186 345 168.5 326Q151 307 141 280.5Q131 254 131 222Q131 190 141 163.5Q151 137 168.5 118Q186 99 209 89Q232 79 259 79Q275 79 290.5 82Q306 85 320.5 90.5Q335 96 348 104.5Q361 113 373 125V27Q361 17 346.5 10Q332 3 316.5 -1.5Q301 -6 285 -8Q269 -10 252 -10Q207 -10 166.5 6Q126 22 95.5 52.5Q65 83 48 126.5Q31 170 31 222Z" glyph-name="ccaron" horiz-adv-x="408" unicode="&#269;" /><glyph d="M31 222Q31 274 48 317.5Q65 361 95.5 391.5Q126 422 166.5 438Q207 454 252 454Q269 454 285 452Q301 450 316.5 445.5Q332 441 346.5 434Q361 427 373 417V319Q361 331 348 339.5Q335 348 320.5 353.5Q306 359 290.5 362Q275 365 259 365Q232 365 209 355Q186 345 168.5 326Q151 307 141 280.5Q131 254 131 222Q131 190 141 163.5Q151 137 168.5 118Q186 99 209 89Q232 79 259 79Q275 79 290.5 82Q306 85 320.5 90.5Q335 96 348 104.5Q361 113 373 125V27Q361 17 346.5 10Q332 3 316.5 -1.5Q301 -6 285 -8Q269 -10 252 -10Q207 -10 166.5 6Q126 22 95.5 52.5Q65 83 48 126.5Q31 170 31 222ZM232 -190H139L210 -53H309Z" glyph-name="ccedilla" horiz-adv-x="408" unicode="&#231;" /><glyph d="M282 646 376 506H292L236 585L180 506H96L190 646ZM31 222Q31 274 48 317.5Q65 361 95.5 391.5Q126 422 166.5 438Q207 454 252 454Q269 454 285 452Q301 450 316.5 445.5Q332 441 346.5 434Q361 427 373 417V319Q361 331 348 339.5Q335 348 320.5 353.5Q306 359 290.5 362Q275 365 259 365Q232 365 209 355Q186 345 168.5 326Q151 307 141 280.5Q131 254 131 222Q131 190 141 163.5Q151 137 168.5 118Q186 99 209 89Q232 79 259 79Q275 79 290.5 82Q306 85 320.5 90.5Q335 96 348 104.5Q361 113 373 125V27Q361 17 346.5 10Q332 3 316.5 -1.5Q301 -6 285 -8Q269 -10 252 -10Q207 -10 166.5 6Q126 22 95.5 52.5Q65 83 48 126.5Q31 170 31 222Z" glyph-name="ccircumflex" horiz-adv-x="408" unicode="&#265;" /><glyph d="M31 222Q31 274 48 317.5Q65 361 95.5 391.5Q126 422 166.5 438Q207 454 252 454Q269 454 285 452Q301 450 316.5 445.5Q332 441 346.5 434Q361 427 373 417V319Q361 331 348 339.5Q335 348 320.5 353.5Q306 359 290.5 362Q275 365 259 365Q232 365 209 355Q186 345 168.5 326Q151 307 141 280.5Q131 254 131 222Q131 190 141 163.5Q151 137 168.5 118Q186 99 209 89Q232 79 259 79Q275 79 290.5 82Q306 85 320.5 90.5Q335 96 348 104.5Q361 113 373 125V27Q361 17 346.5 10Q332 3 316.5 -1.5Q301 -6 285 -8Q269 -10 252 -10Q207 -10 166.5 6Q126 22 95.5 52.5Q65 83 48 126.5Q31 170 31 222ZM305 578Q305 566 300 554.5Q295 543 286.5 534.5Q278 526 266.5 521.5Q255 517 243 517Q231 517 219.5 521.5Q208 526 199.5 534.5Q191 543 186 554.5Q181 566 181 578Q181 590 186 601.5Q191 613 199.5 621.5Q208 630 219.5 634.5Q231 639 243 639Q255 639 266.5 634.5Q278 630 286.5 621.5Q295 613 300 601.5Q305 590 305 578Z" glyph-name="cdotaccent" horiz-adv-x="408" unicode="&#267;" /><glyph d="M258 -190H165L236 -53H335Z" glyph-name="cedilla" horiz-adv-x="500" unicode="&#184;" /><glyph d="M258 -190H165L236 -53H335Z" glyph-name="cedilla.alt" horiz-adv-x="500" /><glyph d="M373 37Q364 30 354 24.5Q344 19 333.5 14.5Q323 10 311.5 7Q300 4 288 2V-89H198V6Q162 15 131.5 34.5Q101 54 78.5 83Q56 112 43.5 150Q31 188 31 232Q31 276 43.5 314Q56 352 78.5 381Q101 410 131.5 429.5Q162 449 198 458V547H288V462Q300 460 311.5 457Q323 454 333.5 449.5Q344 445 354 439.5Q364 434 373 427V329Q361 341 348 349.5Q335 358 320.5 363.5Q306 369 290.5 372Q275 375 259 375Q232 375 209 365Q186 355 168.5 336Q151 317 141 290.5Q131 264 131 232Q131 200 141 173.5Q151 147 168.5 128Q186 109 209 99Q232 89 259 89Q275 89 290.5 92Q306 95 320.5 100.5Q335 106 348 114.5Q361 123 373 135Z" glyph-name="cent" horiz-adv-x="408" unicode="&#162;" /><glyph d="M425 37Q416 30 406 24.5Q396 19 385.5 14.5Q375 10 363.5 7Q352 4 340 2V-89H250V6Q214 15 183.5 34.5Q153 54 130.5 83Q108 112 95.5 150Q83 188 83 232Q83 276 95.5 314Q108 352 130.5 381Q153 410 183.5 429.5Q214 449 250 458V547H340V462Q352 460 363.5 457Q375 454 385.5 449.5Q396 445 406 439.5Q416 434 425 427V329Q413 341 400 349.5Q387 358 372.5 363.5Q358 369 342.5 372Q327 375 311 375Q284 375 261 365Q238 355 220.5 336Q203 317 193 290.5Q183 264 183 232Q183 200 193 173.5Q203 147 220.5 128Q238 109 261 99Q284 89 311 89Q327 89 342.5 92Q358 95 372.5 100.5Q387 106 400 114.5Q413 123 425 135Z" glyph-name="cent.lt" horiz-adv-x="520" /><glyph d="M296 646 390 506H306L250 585L194 506H110L204 646Z" glyph-name="circumflex" horiz-adv-x="500" unicode="&#710;" /><glyph d="M296 795 390 671H301L250 731L199 671H110L204 795Z" glyph-name="circumflex.cap" horiz-adv-x="500" /><glyph d="M32 62Q32 76 37 89Q42 102 51.5 111.5Q61 121 73.5 126Q86 131 100 131Q114 131 126.5 126Q139 121 148.5 111.5Q158 102 163 89Q168 76 168 62Q168 48 163 35Q158 22 148.5 12.5Q139 3 126.5 -2Q114 -7 100 -7Q86 -7 73.5 -2Q61 3 51.5 12.5Q42 22 37 35Q32 48 32 62ZM32 362Q32 376 37 389Q42 402 51.5 411.5Q61 421 73.5 426Q86 431 100 431Q114 431 126.5 426Q139 421 148.5 411.5Q158 402 163 389Q168 376 168 362Q168 348 163 335Q158 322 148.5 312.5Q139 303 126.5 298Q114 293 100 293Q86 293 73.5 298Q61 303 51.5 312.5Q42 322 37 335Q32 348 32 362Z" glyph-name="colon" horiz-adv-x="200" unicode=":" /><glyph d="M62 62Q62 76 67 89Q72 102 81.5 111.5Q91 121 103.5 126Q116 131 130 131Q144 131 156.5 126Q169 121 178.5 111.5Q188 102 193 89Q198 76 198 62Q198 48 193 35Q188 22 178.5 12.5Q169 3 156.5 -2Q144 -7 130 -7Q116 -7 103.5 -2Q91 3 81.5 12.5Q72 22 67 35Q62 48 62 62ZM62 362Q62 376 67 389Q72 402 81.5 411.5Q91 421 103.5 426Q116 431 130 431Q144 431 156.5 426Q169 421 178.5 411.5Q188 402 193 389Q198 376 198 362Q198 348 193 335Q188 322 178.5 312.5Q169 303 156.5 298Q144 293 130 293Q116 293 103.5 298Q91 303 81.5 312.5Q72 322 67 335Q62 348 62 362Z" glyph-name="colon.tab" horiz-adv-x="260" /><glyph d="M16 -113 88 -2Q76 0 65.5 5Q55 10 47.5 18.5Q40 27 36 38Q32 49 32 62Q32 76 37 88.5Q42 101 51.5 110Q61 119 73.5 124Q86 129 100 129Q114 129 126.5 124Q139 119 148.5 109.5Q158 100 163 86Q168 72 168 54Q168 45 166 34.5Q164 24 160 13.5Q156 3 150.5 -7Q145 -17 139 -26L81 -113Z" glyph-name="comma" horiz-adv-x="200" unicode="," /><glyph d="M46 -113 118 -2Q106 0 95.5 5Q85 10 77.5 18.5Q70 27 66 38Q62 49 62 62Q62 76 67 88.5Q72 101 81.5 110Q91 119 103.5 124Q116 129 130 129Q144 129 156.5 124Q169 119 178.5 109.5Q188 100 193 86Q198 72 198 54Q198 45 196 34.5Q194 24 190 13.5Q186 3 180.5 -7Q175 -17 169 -26L111 -113Z" glyph-name="comma.tab" horiz-adv-x="260" /><glyph d="M197 -217 239 -157Q228 -156 218.5 -151Q209 -146 202.5 -139Q196 -132 192 -122.5Q188 -113 188 -102Q188 -90 193 -79Q198 -68 206.5 -60Q215 -52 226.5 -48Q238 -44 251 -44Q264 -44 275 -48.5Q286 -53 294.5 -61Q303 -69 307.5 -80.5Q312 -92 312 -106Q312 -116 309.5 -125Q307 -134 303.5 -143Q300 -152 295 -160Q290 -168 284 -177L257 -217Z" glyph-name="commaaccent" horiz-adv-x="500" unicode="&#63171;" /><glyph d="M305 696 262 634Q273 633 282.5 628Q292 623 299 615.5Q306 608 310 598Q314 588 314 577Q314 564 309 553Q304 542 295 534Q286 526 274 521.5Q262 517 249 517Q236 517 224.5 521.5Q213 526 204.5 534.5Q196 543 191 555Q186 567 186 581Q186 591 188.5 601Q191 611 195 620Q199 629 204 637.5Q209 646 215 655L243 696Z" glyph-name="commaturn" horiz-adv-x="500" /><glyph d="M669 307Q669 239 644.5 181Q620 123 576 80Q532 37 474.5 13.5Q417 -10 352 -10Q287 -10 229.5 13.5Q172 37 128 80Q84 123 59.5 181Q35 239 35 307Q35 375 59.5 433Q84 491 128 534Q172 577 229.5 600.5Q287 624 352 624Q417 624 474.5 600.5Q532 577 576 534Q620 491 644.5 433Q669 375 669 307ZM622 307Q622 365 601 414.5Q580 464 542.5 501Q505 538 456 558Q407 578 352 578Q297 578 248 558Q199 538 161.5 501Q124 464 103 414.5Q82 365 82 307Q82 249 103 199.5Q124 150 161.5 113Q199 76 248 56Q297 36 352 36Q407 36 456 56Q505 76 542.5 113Q580 150 601 199.5Q622 249 622 307ZM168 309Q168 353 182 390Q196 427 222.5 453.5Q249 480 285.5 494Q322 508 366 508Q381 508 395 506Q409 504 421 501Q433 498 443.5 493Q454 488 464 482V389Q454 397 443 403Q432 409 420.5 412.5Q409 416 397.5 418Q386 420 374 420Q350 420 329.5 412Q309 404 294.5 389.5Q280 375 272.5 354.5Q265 334 265 309Q265 284 272.5 264Q280 244 294.5 229.5Q309 215 329.5 207Q350 199 374 199Q386 199 397.5 201Q409 203 420.5 206.5Q432 210 443 215.5Q454 221 464 229V136Q454 130 443.5 125Q433 120 421 117Q409 114 395 112Q381 110 366 110Q322 110 285.5 124Q249 138 222.5 164.5Q196 191 182 228Q168 265 168 309Z" glyph-name="copyright" horiz-adv-x="704" unicode="&#169;" /><glyph d="M350 138V306Q344 319 334 330Q324 341 311 349Q298 357 283.5 361Q269 365 254 365Q226 365 203 354.5Q180 344 164 324.5Q148 305 139.5 279Q131 253 131 222Q131 191 139.5 165Q148 139 164 119.5Q180 100 203 89.5Q226 79 254 79Q269 79 283.5 83Q298 87 311 95Q324 103 334 114Q344 125 350 138ZM350 0V38Q342 28 330.5 19.5Q319 11 304 4.5Q289 -2 272 -6Q255 -10 237 -10Q189 -10 150.5 8Q112 26 85.5 57.5Q59 89 45 131.5Q31 174 31 222Q31 270 45 312Q59 354 85.5 386Q112 418 150.5 436Q189 454 237 454Q255 454 272 450Q289 446 304 439.5Q319 433 330.5 424.5Q342 416 350 406V650H450V0Z" glyph-name="d" horiz-adv-x="512" unicode="d" /><glyph d="M302 486H203V276H129V486H30V558H129V650H203V558H302Z" glyph-name="dagger" horiz-adv-x="332" unicode="&#8224;" /><glyph d="M310 356H209V276H135V356H35V423H135V502H35V570H135V650H209V570H310V502H209V423H310Z" glyph-name="daggerdbl" horiz-adv-x="345" unicode="&#8225;" /><glyph d="M578 483H500L534 650H612ZM350 138V306Q344 319 334 330Q324 341 311 349Q298 357 283.5 361Q269 365 254 365Q226 365 203 354.5Q180 344 164 324.5Q148 305 139.5 279Q131 253 131 222Q131 191 139.5 165Q148 139 164 119.5Q180 100 203 89.5Q226 79 254 79Q269 79 283.5 83Q298 87 311 95Q324 103 334 114Q344 125 350 138ZM350 0V38Q342 28 330.5 19.5Q319 11 304 4.5Q289 -2 272 -6Q255 -10 237 -10Q189 -10 150.5 8Q112 26 85.5 57.5Q59 89 45 131.5Q31 174 31 222Q31 270 45 312Q59 354 85.5 386Q112 418 150.5 436Q189 454 237 454Q255 454 272 450Q289 446 304 439.5Q319 433 330.5 424.5Q342 416 350 406V650H450V0Z" glyph-name="dcaron" horiz-adv-x="512" unicode="&#271;" /><glyph d="M350 138V306Q344 319 334 330Q324 341 311 349Q298 357 283.5 361Q269 365 254 365Q226 365 203 354.5Q180 344 164 324.5Q148 305 139.5 279Q131 253 131 222Q131 191 139.5 165Q148 139 164 119.5Q180 100 203 89.5Q226 79 254 79Q269 79 283.5 83Q298 87 311 95Q324 103 334 114Q344 125 350 138ZM350 38Q342 28 330.5 19.5Q319 11 304 4.5Q289 -2 272 -6Q255 -10 237 -10Q189 -10 150.5 8Q112 26 85.5 57.5Q59 89 45 131.5Q31 174 31 222Q31 270 45 312Q59 354 85.5 386Q112 418 150.5 436Q189 454 237 454Q255 454 272 450Q289 446 304 439.5Q319 433 330.5 424.5Q342 416 350 406V502H249V572H350V650H450V572H510V502H450V0H350Z" glyph-name="dcroat" horiz-adv-x="512" unicode="&#273;" /><glyph d="M309 491Q309 464 299 439.5Q289 415 270.5 396.5Q252 378 228 368Q204 358 177 358Q150 358 126 368Q102 378 83.5 396.5Q65 415 55 439.5Q45 464 45 491Q45 518 55 542.5Q65 567 83.5 585.5Q102 604 126 614Q150 624 177 624Q204 624 228 614Q252 604 270.5 585.5Q289 567 299 542.5Q309 518 309 491ZM115 491Q115 478 120 466.5Q125 455 133.5 446.5Q142 438 153 433Q164 428 177 428Q190 428 201 433Q212 438 220.5 446.5Q229 455 234 466.5Q239 478 239 491Q239 504 234 515.5Q229 527 220.5 535.5Q212 544 201 549Q190 554 177 554Q164 554 153 549Q142 544 133.5 535.5Q125 527 120 515.5Q115 504 115 491Z" glyph-name="degree" horiz-adv-x="354" unicode="&#176;" /><glyph d="M268 572Q268 584 272.5 595Q277 606 285 614Q293 622 303.5 626.5Q314 631 326 631Q338 631 348.5 626.5Q359 622 367.5 614Q376 606 380.5 595Q385 584 385 572Q385 560 380.5 549.5Q376 539 367.5 531Q359 523 348.5 518.5Q338 514 326 514Q314 514 303.5 518.5Q293 523 285 531Q277 539 272.5 549.5Q268 560 268 572ZM114 572Q114 585 118.5 595.5Q123 606 131 614Q139 622 150 626.5Q161 631 173 631Q185 631 195.5 626.5Q206 622 214 614Q222 606 226.5 595Q231 584 231 572Q231 560 226.5 549.5Q222 539 214 531Q206 523 195.5 518.5Q185 514 173 514Q161 514 150 518.5Q139 523 131 531Q123 539 118.5 549.5Q114 560 114 572Z" glyph-name="dieresis" horiz-adv-x="500" unicode="&#168;" /><glyph d="M268 728Q268 740 272.5 751Q277 762 285 770Q293 778 303.5 782.5Q314 787 326 787Q338 787 348.5 782.5Q359 778 367.5 770Q376 762 380.5 751Q385 740 385 728Q385 716 380.5 705.5Q376 695 367.5 687Q359 679 348.5 674.5Q338 670 326 670Q314 670 303.5 674.5Q293 679 285 687Q277 695 272.5 705.5Q268 716 268 728ZM114 728Q114 741 118.5 751.5Q123 762 131 770Q139 778 150 782.5Q161 787 173 787Q185 787 195.5 782.5Q206 778 214 770Q222 762 226.5 751Q231 740 231 728Q231 716 226.5 705.5Q222 695 214 687Q206 679 195.5 674.5Q185 670 173 670Q161 670 150 674.5Q139 679 131 687Q123 695 118.5 705.5Q114 716 114 728Z" glyph-name="dieresis.cap" horiz-adv-x="500" /><glyph d="M219 467Q219 480 224 491.5Q229 503 237.5 512Q246 521 257.5 526Q269 531 282 531Q295 531 306.5 526Q318 521 327 512Q336 503 341 491.5Q346 480 346 467Q346 454 341 442.5Q336 431 327 422.5Q318 414 306.5 409Q295 404 282 404Q269 404 257.5 409Q246 414 237.5 422.5Q229 431 224 442.5Q219 454 219 467ZM74 259V339H490V259ZM219 131Q219 144 224 155.5Q229 167 237.5 175.5Q246 184 257.5 189Q269 194 282 194Q295 194 306.5 189Q318 184 327 175.5Q336 167 341 155.5Q346 144 346 131Q346 118 341 106.5Q336 95 327 86Q318 77 306.5 72Q295 67 282 67Q269 67 257.5 72Q246 77 237.5 86Q229 95 224 106.5Q219 118 219 131Z" glyph-name="divide" horiz-adv-x="564" unicode="&#247;" /><glyph d="M197 467Q197 480 202 491.5Q207 503 215.5 512Q224 521 235.5 526Q247 531 260 531Q273 531 284.5 526Q296 521 305 512Q314 503 319 491.5Q324 480 324 467Q324 454 319 442.5Q314 431 305 422.5Q296 414 284.5 409Q273 404 260 404Q247 404 235.5 409Q224 414 215.5 422.5Q207 431 202 442.5Q197 454 197 467ZM52 259V339H468V259ZM197 131Q197 144 202 155.5Q207 167 215.5 175.5Q224 184 235.5 189Q247 194 260 194Q273 194 284.5 189Q296 184 305 175.5Q314 167 319 155.5Q324 144 324 131Q324 118 319 106.5Q314 95 305 86Q296 77 284.5 72Q273 67 260 67Q247 67 235.5 72Q224 77 215.5 86Q207 95 202 106.5Q197 118 197 131Z" glyph-name="divide.lt" horiz-adv-x="520" /><glyph d="M281 -92H191V6Q168 8 146.5 12.5Q125 17 105.5 23.5Q86 30 69.5 38Q53 46 40 56V161Q60 145 82 132.5Q104 120 127.5 111Q151 102 175.5 97.5Q200 93 226 93Q252 93 272.5 97.5Q293 102 308.5 111Q324 120 332 134.5Q340 149 340 168Q340 185 334.5 197.5Q329 210 319 219.5Q309 229 294.5 236.5Q280 244 258 253L173 283Q141 295 116.5 309Q92 323 73.5 342.5Q55 362 45 388.5Q35 415 35 450Q35 483 46.5 510Q58 537 79.5 557Q101 577 129.5 589.5Q158 602 191 607V699H281V607Q298 605 315 601Q332 597 348 591Q364 585 378.5 578Q393 571 406 562V459Q387 474 367.5 485Q348 496 327 504.5Q306 513 283 517.5Q260 522 235 522Q213 522 194 517.5Q175 513 161 504.5Q147 496 139.5 483Q132 470 132 452Q132 436 137 424.5Q142 413 151.5 404Q161 395 174.5 388.5Q188 382 208 375L303 340Q337 328 362 311.5Q387 295 403.5 274.5Q420 254 428 228Q436 202 436 170Q436 137 425 109.5Q414 82 393 61.5Q372 41 343.5 27.5Q315 14 281 8Z" glyph-name="dollar" horiz-adv-x="471" unicode="$" /><glyph d="M305 -92H215V6Q192 8 170.5 12.5Q149 17 129.5 23.5Q110 30 93.5 38Q77 46 64 56V161Q84 145 106 132.5Q128 120 151.5 111Q175 102 199.5 97.5Q224 93 250 93Q276 93 296.5 97.5Q317 102 332.5 111Q348 120 356 134.5Q364 149 364 168Q364 185 358.5 197.5Q353 210 343 219.5Q333 229 318.5 236.5Q304 244 282 253L197 283Q165 295 140.5 309Q116 323 97.5 342.5Q79 362 69 388.5Q59 415 59 450Q59 483 70.5 510Q82 537 103.5 557Q125 577 153.5 589.5Q182 602 215 607V699H305V607Q322 605 339 601Q356 597 372 591Q388 585 402.5 578Q417 571 430 562V459Q411 474 391.5 485Q372 496 351 504.5Q330 513 307 517.5Q284 522 259 522Q237 522 218 517.5Q199 513 185 504.5Q171 496 163.5 483Q156 470 156 452Q156 436 161 424.5Q166 413 175.5 404Q185 395 198.5 388.5Q212 382 232 375L327 340Q361 328 386 311.5Q411 295 427.5 274.5Q444 254 452 228Q460 202 460 170Q460 137 449 109.5Q438 82 417 61.5Q396 41 367.5 27.5Q339 14 305 8Z" glyph-name="dollar.lt" horiz-adv-x="520" /><glyph d="M312 578Q312 566 307 554.5Q302 543 293.5 534.5Q285 526 273.5 521.5Q262 517 250 517Q238 517 226.5 521.5Q215 526 206.5 534.5Q198 543 193 554.5Q188 566 188 578Q188 590 193 601.5Q198 613 206.5 621.5Q215 630 226.5 634.5Q238 639 250 639Q262 639 273.5 634.5Q285 630 293.5 621.5Q302 613 307 601.5Q312 590 312 578Z" glyph-name="dotaccent" horiz-adv-x="500" unicode="&#729;" /><glyph d="M312 728Q312 716 307 704.5Q302 693 293.5 684.5Q285 676 273.5 671.5Q262 667 250 667Q238 667 226.5 671.5Q215 676 206.5 684.5Q198 693 193 704.5Q188 716 188 728Q188 740 193 751.5Q198 763 206.5 771.5Q215 780 226.5 784.5Q238 789 250 789Q262 789 273.5 784.5Q285 780 293.5 771.5Q302 763 307 751.5Q312 740 312 728Z" glyph-name="dotaccent.cap" horiz-adv-x="500" /><glyph d="M312 -105Q312 -117 307 -128.5Q302 -140 293.5 -148.5Q285 -157 273.5 -161.5Q262 -166 250 -166Q238 -166 226.5 -161.5Q215 -157 206.5 -148.5Q198 -140 193 -128.5Q188 -117 188 -105Q188 -93 193 -81.5Q198 -70 206.5 -61.5Q215 -53 226.5 -48.5Q238 -44 250 -44Q262 -44 273.5 -48.5Q285 -53 293.5 -61.5Q302 -70 307 -81.5Q312 -93 312 -105Z" glyph-name="dotbelow" horiz-adv-x="500" /><glyph d="M162 444V0H62V444Z" glyph-name="dotlessi" horiz-adv-x="224" unicode="&#305;" /><glyph d="M162 444V-40Q162 -73 153 -99Q144 -125 125.5 -143Q107 -161 80 -170.5Q53 -180 17 -180Q13 -180 7.5 -180Q2 -180 -3.5 -179Q-9 -178 -14 -177Q-19 -176 -23 -175V-91Q-20 -92 -16.5 -92.5Q-13 -93 -9 -93.5Q-5 -94 -1 -94.5Q3 -95 7 -95Q21 -95 31.5 -91Q42 -87 48.5 -79.5Q55 -72 58.5 -60.5Q62 -49 62 -33V444Z" glyph-name="dotlessj" horiz-adv-x="222" unicode="&#567;" /><glyph d="M236 370Q219 370 203 364.5Q187 359 173.5 348Q160 337 149.5 319Q139 301 134 276H327Q326 296 319.5 313.5Q313 331 301.5 343.5Q290 356 273.5 363Q257 370 236 370ZM392 29Q378 19 362 11.5Q346 4 328.5 -1Q311 -6 291.5 -8Q272 -10 251 -10Q203 -10 162.5 6Q122 22 92.5 52Q63 82 47 124Q31 166 31 218Q31 269 46 312.5Q61 356 88.5 388Q116 420 153.5 437Q191 454 235 454Q280 454 315.5 438.5Q351 423 374.5 394Q398 365 410 325Q422 285 422 236V200H129Q132 168 143 144.5Q154 121 172.5 106Q191 91 214.5 83.5Q238 76 265 76Q284 76 300 78.5Q316 81 331 86Q346 91 361 98.5Q376 106 392 117Z" glyph-name="e" horiz-adv-x="455" unicode="e" /><glyph d="M279 513H190L267 650H370ZM236 370Q219 370 203 364.5Q187 359 173.5 348Q160 337 149.5 319Q139 301 134 276H327Q326 296 319.5 313.5Q313 331 301.5 343.5Q290 356 273.5 363Q257 370 236 370ZM392 29Q378 19 362 11.5Q346 4 328.5 -1Q311 -6 291.5 -8Q272 -10 251 -10Q203 -10 162.5 6Q122 22 92.5 52Q63 82 47 124Q31 166 31 218Q31 269 46 312.5Q61 356 88.5 388Q116 420 153.5 437Q191 454 235 454Q280 454 315.5 438.5Q351 423 374.5 394Q398 365 410 325Q422 285 422 236V200H129Q132 168 143 144.5Q154 121 172.5 106Q191 91 214.5 83.5Q238 76 265 76Q284 76 300 78.5Q316 81 331 86Q346 91 361 98.5Q376 106 392 117Z" glyph-name="eacute" horiz-adv-x="455" unicode="&#233;" /><glyph d="M236 370Q219 370 203 364.5Q187 359 173.5 348Q160 337 149.5 319Q139 301 134 276H327Q326 296 319.5 313.5Q313 331 301.5 343.5Q290 356 273.5 363Q257 370 236 370ZM392 29Q378 19 362 11.5Q346 4 328.5 -1Q311 -6 291.5 -8Q272 -10 251 -10Q203 -10 162.5 6Q122 22 92.5 52Q63 82 47 124Q31 166 31 218Q31 269 46 312.5Q61 356 88.5 388Q116 420 153.5 437Q191 454 235 454Q280 454 315.5 438.5Q351 423 374.5 394Q398 365 410 325Q422 285 422 236V200H129Q132 168 143 144.5Q154 121 172.5 106Q191 91 214.5 83.5Q238 76 265 76Q284 76 300 78.5Q316 81 331 86Q346 91 361 98.5Q376 106 392 117ZM240 495Q212 495 189 504Q166 513 149.5 530Q133 547 124 572.5Q115 598 115 630H188Q188 616 191 604Q194 592 200.5 583Q207 574 217 569.5Q227 565 240 565Q253 565 263 569.5Q273 574 279.5 583Q286 592 289 604Q292 616 292 630H365Q365 598 356 572.5Q347 547 330.5 530Q314 513 291 504Q268 495 240 495Z" glyph-name="ebreve" horiz-adv-x="455" unicode="&#277;" /><glyph d="M380 646 286 506H194L100 646H184L240 567L296 646ZM236 370Q219 370 203 364.5Q187 359 173.5 348Q160 337 149.5 319Q139 301 134 276H327Q326 296 319.5 313.5Q313 331 301.5 343.5Q290 356 273.5 363Q257 370 236 370ZM392 29Q378 19 362 11.5Q346 4 328.5 -1Q311 -6 291.5 -8Q272 -10 251 -10Q203 -10 162.5 6Q122 22 92.5 52Q63 82 47 124Q31 166 31 218Q31 269 46 312.5Q61 356 88.5 388Q116 420 153.5 437Q191 454 235 454Q280 454 315.5 438.5Q351 423 374.5 394Q398 365 410 325Q422 285 422 236V200H129Q132 168 143 144.5Q154 121 172.5 106Q191 91 214.5 83.5Q238 76 265 76Q284 76 300 78.5Q316 81 331 86Q346 91 361 98.5Q376 106 392 117Z" glyph-name="ecaron" horiz-adv-x="455" unicode="&#283;" /><glyph d="M286 646 380 506H296L240 585L184 506H100L194 646ZM236 370Q219 370 203 364.5Q187 359 173.5 348Q160 337 149.5 319Q139 301 134 276H327Q326 296 319.5 313.5Q313 331 301.5 343.5Q290 356 273.5 363Q257 370 236 370ZM392 29Q378 19 362 11.5Q346 4 328.5 -1Q311 -6 291.5 -8Q272 -10 251 -10Q203 -10 162.5 6Q122 22 92.5 52Q63 82 47 124Q31 166 31 218Q31 269 46 312.5Q61 356 88.5 388Q116 420 153.5 437Q191 454 235 454Q280 454 315.5 438.5Q351 423 374.5 394Q398 365 410 325Q422 285 422 236V200H129Q132 168 143 144.5Q154 121 172.5 106Q191 91 214.5 83.5Q238 76 265 76Q284 76 300 78.5Q316 81 331 86Q346 91 361 98.5Q376 106 392 117Z" glyph-name="ecircumflex" horiz-adv-x="455" unicode="&#234;" /><glyph d="M259 572Q259 584 263.5 595Q268 606 276 614Q284 622 294.5 626.5Q305 631 317 631Q329 631 339.5 626.5Q350 622 358.5 614Q367 606 371.5 595Q376 584 376 572Q376 560 371.5 549.5Q367 539 358.5 531Q350 523 339.5 518.5Q329 514 317 514Q305 514 294.5 518.5Q284 523 276 531Q268 539 263.5 549.5Q259 560 259 572ZM105 572Q105 585 109.5 595.5Q114 606 122 614Q130 622 141 626.5Q152 631 164 631Q176 631 186.5 626.5Q197 622 205 614Q213 606 217.5 595Q222 584 222 572Q222 560 217.5 549.5Q213 539 205 531Q197 523 186.5 518.5Q176 514 164 514Q152 514 141 518.5Q130 523 122 531Q114 539 109.5 549.5Q105 560 105 572ZM236 370Q219 370 203 364.5Q187 359 173.5 348Q160 337 149.5 319Q139 301 134 276H327Q326 296 319.5 313.5Q313 331 301.5 343.5Q290 356 273.5 363Q257 370 236 370ZM392 29Q378 19 362 11.5Q346 4 328.5 -1Q311 -6 291.5 -8Q272 -10 251 -10Q203 -10 162.5 6Q122 22 92.5 52Q63 82 47 124Q31 166 31 218Q31 269 46 312.5Q61 356 88.5 388Q116 420 153.5 437Q191 454 235 454Q280 454 315.5 438.5Q351 423 374.5 394Q398 365 410 325Q422 285 422 236V200H129Q132 168 143 144.5Q154 121 172.5 106Q191 91 214.5 83.5Q238 76 265 76Q284 76 300 78.5Q316 81 331 86Q346 91 361 98.5Q376 106 392 117Z" glyph-name="edieresis" horiz-adv-x="455" unicode="&#235;" /><glyph d="M236 370Q219 370 203 364.5Q187 359 173.5 348Q160 337 149.5 319Q139 301 134 276H327Q326 296 319.5 313.5Q313 331 301.5 343.5Q290 356 273.5 363Q257 370 236 370ZM392 29Q378 19 362 11.5Q346 4 328.5 -1Q311 -6 291.5 -8Q272 -10 251 -10Q203 -10 162.5 6Q122 22 92.5 52Q63 82 47 124Q31 166 31 218Q31 269 46 312.5Q61 356 88.5 388Q116 420 153.5 437Q191 454 235 454Q280 454 315.5 438.5Q351 423 374.5 394Q398 365 410 325Q422 285 422 236V200H129Q132 168 143 144.5Q154 121 172.5 106Q191 91 214.5 83.5Q238 76 265 76Q284 76 300 78.5Q316 81 331 86Q346 91 361 98.5Q376 106 392 117ZM302 578Q302 566 297 554.5Q292 543 283.5 534.5Q275 526 263.5 521.5Q252 517 240 517Q228 517 216.5 521.5Q205 526 196.5 534.5Q188 543 183 554.5Q178 566 178 578Q178 590 183 601.5Q188 613 196.5 621.5Q205 630 216.5 634.5Q228 639 240 639Q252 639 263.5 634.5Q275 630 283.5 621.5Q292 613 297 601.5Q302 590 302 578Z" glyph-name="edotaccent" horiz-adv-x="455" unicode="&#279;" /><glyph d="M236 370Q219 370 203 364.5Q187 359 173.5 348Q160 337 149.5 319Q139 301 134 276H327Q326 296 319.5 313.5Q313 331 301.5 343.5Q290 356 273.5 363Q257 370 236 370ZM392 29Q378 19 362 11.5Q346 4 328.5 -1Q311 -6 291.5 -8Q272 -10 251 -10Q203 -10 162.5 6Q122 22 92.5 52Q63 82 47 124Q31 166 31 218Q31 269 46 312.5Q61 356 88.5 388Q116 420 153.5 437Q191 454 235 454Q280 454 315.5 438.5Q351 423 374.5 394Q398 365 410 325Q422 285 422 236V200H129Q132 168 143 144.5Q154 121 172.5 106Q191 91 214.5 83.5Q238 76 265 76Q284 76 300 78.5Q316 81 331 86Q346 91 361 98.5Q376 106 392 117ZM290 513H201L110 650H213Z" glyph-name="egrave" horiz-adv-x="455" unicode="&#232;" /><glyph d="M246 -10Q202 -10 163 2Q124 14 95 37Q66 60 50 93Q34 126 34 167Q34 197 43 222.5Q52 248 67.5 267.5Q83 287 103.5 299.5Q124 312 147 318Q127 326 110 338.5Q93 351 80 369Q67 387 60 409Q53 431 53 456Q53 495 68 526.5Q83 558 110 580Q137 602 172 613Q207 624 246 624Q285 624 320 613Q355 602 382 580Q409 558 424 526.5Q439 495 439 456Q439 431 432 409Q425 387 412 369Q399 351 382 338.5Q365 326 345 318Q368 312 388.5 299.5Q409 287 424.5 267.5Q440 248 449 222.5Q458 197 458 167Q458 126 442 93Q426 60 397 37Q368 14 329 2Q290 -10 246 -10ZM246 363Q265 363 282 369Q299 375 312 386.5Q325 398 332.5 414.5Q340 431 340 451Q340 472 332.5 489Q325 506 312 517.5Q299 529 282 535Q265 541 246 541Q227 541 210 535Q193 529 180 517.5Q167 506 159.5 489Q152 472 152 451Q152 431 159.5 414.5Q167 398 180 386.5Q193 375 210 369Q227 363 246 363ZM246 74Q270 74 290.5 81Q311 88 326 101Q341 114 349.5 133Q358 152 358 175Q358 199 349.5 217.5Q341 236 326 249Q311 262 290.5 269Q270 276 246 276Q222 276 201.5 269Q181 262 166 249Q151 236 142.5 217.5Q134 199 134 175Q134 152 142.5 133Q151 114 166 101Q181 88 201.5 81Q222 74 246 74Z" glyph-name="eight" horiz-adv-x="492" unicode="8" /><glyph d="M262 -10Q217 -10 178 2Q139 14 110 37Q81 60 64.5 93Q48 126 48 167Q48 197 57 222.5Q66 248 82 267.5Q98 287 118.5 299.5Q139 312 162 318Q142 326 125 338.5Q108 351 95 369Q82 387 74.5 409Q67 431 67 456Q67 495 82.5 526.5Q98 558 125 580Q152 602 187.5 613Q223 624 262 624Q302 624 337.5 613Q373 602 400 580Q427 558 442.5 526.5Q458 495 458 456Q458 431 450.5 409Q443 387 430 369Q417 351 400 338.5Q383 326 363 318Q386 312 406.5 299.5Q427 287 443 267.5Q459 248 468 222.5Q477 197 477 167Q477 126 460.5 93Q444 60 414.5 37Q385 14 346 2Q307 -10 262 -10ZM262 363Q281 363 299 369Q317 375 330.5 386.5Q344 398 352 414.5Q360 431 360 451Q360 472 352 489Q344 506 330.5 517.5Q317 529 299 535Q281 541 262 541Q243 541 225.5 535Q208 529 194.5 517.5Q181 506 173 489Q165 472 165 451Q165 431 173 414.5Q181 398 194.5 386.5Q208 375 225.5 369Q243 363 262 363ZM262 74Q286 74 307.5 81Q329 88 344.5 101Q360 114 369 133Q378 152 378 175Q378 198 369 217Q360 236 344.5 249Q329 262 307.5 269Q286 276 262 276Q238 276 217 269Q196 262 180.5 249Q165 236 156 217Q147 198 147 175Q147 152 156 133Q165 114 180.5 101Q196 88 217 81Q238 74 262 74Z" glyph-name="eight.lt" horiz-adv-x="520" /><glyph d="M160 -4Q134 -4 111.5 2.5Q89 9 71.5 21.5Q54 34 44.5 52.5Q35 71 35 93Q35 108 39 120.5Q43 133 51 143Q59 153 69 160Q79 167 90 171Q80 176 72 183.5Q64 191 58 200Q52 209 49 220.5Q46 232 46 244Q46 267 55 285Q64 303 80 315.5Q96 328 116.5 334.5Q137 341 160 341Q183 341 203.5 334.5Q224 328 240 315.5Q256 303 265 285Q274 267 274 244Q274 232 271 221Q268 210 262 200.5Q256 191 247.5 183.5Q239 176 229 171Q241 167 251 160Q261 153 268.5 143Q276 133 280 120.5Q284 108 284 93Q284 71 274.5 52.5Q265 34 248 21.5Q231 9 208.5 2.5Q186 -4 160 -4ZM160 206Q168 206 175 208.5Q182 211 187.5 216Q193 221 196 227.5Q199 234 199 242Q199 250 196 257Q193 264 187.5 269Q182 274 175 276.5Q168 279 160 279Q152 279 144.5 276.5Q137 274 131.5 269Q126 264 123 257Q120 250 120 242Q120 234 123 227.5Q126 221 131.5 216Q137 211 144.5 208.5Q152 206 160 206ZM160 60Q170 60 178 62.5Q186 65 192 70.5Q198 76 201.5 83.5Q205 91 205 100Q205 109 201.5 116Q198 123 192 128.5Q186 134 178 136.5Q170 139 160 139Q150 139 142 136.5Q134 134 128 128.5Q122 123 118.5 116Q115 109 115 100Q115 91 118.5 83.5Q122 76 128 70.5Q134 65 142 62.5Q150 60 160 60Z" glyph-name="eightinferior" horiz-adv-x="337" unicode="&#8328;" /><glyph d="M472 62Q472 76 477 89Q482 102 491.5 111.5Q501 121 513.5 126Q526 131 540 131Q554 131 566.5 126Q579 121 588.5 111.5Q598 102 603 89Q608 76 608 62Q608 48 603 35Q598 22 588.5 12.5Q579 3 566.5 -2Q554 -7 540 -7Q526 -7 513.5 -2Q501 3 491.5 12.5Q482 22 477 35Q472 48 472 62ZM252 62Q252 76 257 89Q262 102 271.5 111.5Q281 121 293.5 126Q306 131 320 131Q334 131 346.5 126Q359 121 368.5 111.5Q378 102 383 89Q388 76 388 62Q388 48 383 35Q378 22 368.5 12.5Q359 3 346.5 -2Q334 -7 320 -7Q306 -7 293.5 -2Q281 3 271.5 12.5Q262 22 257 35Q252 48 252 62ZM32 62Q32 76 37 89Q42 102 51.5 111.5Q61 121 73.5 126Q86 131 100 131Q114 131 126.5 126Q139 121 148.5 111.5Q158 102 163 89Q168 76 168 62Q168 48 163 35Q158 22 148.5 12.5Q139 3 126.5 -2Q114 -7 100 -7Q86 -7 73.5 -2Q61 3 51.5 12.5Q42 22 37 35Q32 48 32 62Z" glyph-name="ellipsis" horiz-adv-x="640" unicode="&#8230;" /><glyph d="M236 370Q219 370 203 364.5Q187 359 173.5 348Q160 337 149.5 319Q139 301 134 276H327Q326 296 319.5 313.5Q313 331 301.5 343.5Q290 356 273.5 363Q257 370 236 370ZM392 29Q378 19 362 11.5Q346 4 328.5 -1Q311 -6 291.5 -8Q272 -10 251 -10Q203 -10 162.5 6Q122 22 92.5 52Q63 82 47 124Q31 166 31 218Q31 269 46 312.5Q61 356 88.5 388Q116 420 153.5 437Q191 454 235 454Q280 454 315.5 438.5Q351 423 374.5 394Q398 365 410 325Q422 285 422 236V200H129Q132 168 143 144.5Q154 121 172.5 106Q191 91 214.5 83.5Q238 76 265 76Q284 76 300 78.5Q316 81 331 86Q346 91 361 98.5Q376 106 392 117ZM128 524V603H353V524Z" glyph-name="emacron" horiz-adv-x="455" unicode="&#275;" /><glyph d="M40 223V302H806V223Z" glyph-name="emdash" horiz-adv-x="846" unicode="&#8212;" /><glyph d="M40 263V342H806V263Z" glyph-name="emdash.cap" horiz-adv-x="846" /><glyph d="M40 223V302H435V223Z" glyph-name="endash" horiz-adv-x="475" unicode="&#8211;" /><glyph d="M40 263V342H435V263Z" glyph-name="endash.cap" horiz-adv-x="475" /><glyph d="M339 -33V272Q339 293 334 309.5Q329 326 318.5 338Q308 350 292 356.5Q276 363 255 363Q239 363 224 358Q209 353 196.5 344Q184 335 175 321.5Q166 308 162 292V0H62V444H162V402Q171 413 183.5 422.5Q196 432 211.5 439Q227 446 245 450Q263 454 282 454Q319 454 348.5 442Q378 430 398 408.5Q418 387 428.5 356.5Q439 326 439 289V-40Q439 -73 430 -99Q421 -125 402.5 -143Q384 -161 357 -170.5Q330 -180 294 -180Q290 -180 284.5 -180Q279 -180 273.5 -179Q268 -178 263 -177Q258 -176 254 -175V-91Q257 -92 260.5 -92.5Q264 -93 268 -93.5Q272 -94 276 -94.5Q280 -95 284 -95Q298 -95 308.5 -91Q319 -87 325.5 -79.5Q332 -72 335.5 -60.5Q339 -49 339 -33Z" glyph-name="eng" horiz-adv-x="495" unicode="&#331;" /><glyph d="M217 -115Q217 -101 219.5 -88.5Q222 -76 227.5 -63.5Q233 -51 242 -37.5Q251 -24 264 -10H251Q203 -10 162.5 6Q122 22 92.5 52Q63 82 47 124Q31 166 31 218Q31 269 46 312.5Q61 356 88.5 388Q116 420 153.5 437Q191 454 235 454Q280 454 315.5 438.5Q351 423 374.5 394Q398 365 410 325Q422 285 422 236V200H128Q131 168 142.5 144.5Q154 121 172 106Q190 91 214 83.5Q238 76 265 76Q284 76 300 78.5Q316 81 331 86Q346 91 361 98.5Q376 106 392 117V29Q387 26 386.5 25.5Q386 25 373 17.5Q360 10 354.5 6Q349 2 344 -2Q334 -11 324.5 -21.5Q315 -32 308 -43.5Q301 -55 297 -67Q293 -79 293 -90Q293 -98 294.5 -103.5Q296 -109 298.5 -112.5Q301 -116 305 -118Q309 -120 314 -120Q318 -120 322.5 -119Q327 -118 331 -116Q335 -114 339.5 -111.5Q344 -109 351 -104V-168Q345 -173 338 -177Q331 -181 324 -184Q317 -187 309 -188.5Q301 -190 292 -190Q274 -190 260 -184.5Q246 -179 236.5 -169Q227 -159 222 -145.5Q217 -132 217 -115ZM236 370Q219 370 203 364.5Q187 359 173.5 348Q160 337 149.5 319Q139 301 134 276H327Q326 296 319.5 313.5Q313 331 301.5 343.5Q290 356 273.5 363Q257 370 236 370Z" glyph-name="eogonek" horiz-adv-x="455" unicode="&#281;" /><glyph d="M82 336V412H497V336ZM82 188V262H497V188Z" glyph-name="equal" horiz-adv-x="578" unicode="=" /><glyph d="M52 336V412H467V336ZM52 188V262H467V188Z" glyph-name="equal.lt" horiz-adv-x="520" /><glyph d="M242 -10Q196 -10 157 6.5Q118 23 89.5 54Q61 85 46 127Q31 169 31 219Q31 269 46 311.5Q61 354 88 384.5Q115 415 151.5 432Q188 449 230 449Q245 449 258 446.5Q271 444 281.5 439.5Q292 435 301 429.5Q310 424 317 417H321Q317 427 309 439Q301 451 290 464.5Q279 478 265.5 492Q252 506 237 520L140 488L117 547L182 568Q170 578 157.5 588Q145 598 132 607.5Q119 617 106.5 626.5Q94 636 79 646V650H209Q217 644 225.5 638.5Q234 633 242.5 626.5Q251 620 259 613.5Q267 607 275 600L364 629L386 570L325 550Q355 516 378.5 479Q402 442 418.5 401Q435 360 444 316.5Q453 273 453 228Q453 175 438 131Q423 87 394.5 55.5Q366 24 327 7Q288 -10 242 -10ZM353 219Q353 251 346 277Q339 303 324.5 322.5Q310 342 289 352.5Q268 363 242 363Q216 363 195 352.5Q174 342 159.5 322.5Q145 303 138 277Q131 251 131 219Q131 188 138 161.5Q145 135 159.5 116Q174 97 195 86.5Q216 76 242 76Q268 76 289 86.5Q310 97 324.5 116Q339 135 346 161.5Q353 188 353 219Z" glyph-name="eth" horiz-adv-x="484" unicode="&#240;" /><glyph d="M65 193 40 614H160L135 193ZM32 62Q32 76 37 89Q42 102 51.5 111.5Q61 121 73.5 126Q86 131 100 131Q114 131 126.5 126Q139 121 148.5 111.5Q158 102 163 89Q168 76 168 62Q168 48 163 35Q158 22 148.5 12.5Q139 3 126.5 -2Q114 -7 100 -7Q86 -7 73.5 -2Q61 3 51.5 12.5Q42 22 37 35Q32 48 32 62Z" glyph-name="exclam" horiz-adv-x="200" unicode="!" /><glyph d="M100 387Q86 387 73.5 392Q61 397 51.5 406.5Q42 416 37 429Q32 442 32 456Q32 470 37 483Q42 496 51.5 505.5Q61 515 73.5 520Q86 525 100 525Q114 525 126.5 520Q139 515 148.5 505.5Q158 496 163 483Q168 470 168 456Q168 442 163 429Q158 416 148.5 406.5Q139 397 126.5 392Q114 387 100 387ZM40 -96 65 325H135L160 -96Z" glyph-name="exclamdown" horiz-adv-x="210" unicode="&#161;" /><glyph d="M100 483Q86 483 73.5 488Q61 493 51.5 502.5Q42 512 37 525Q32 538 32 552Q32 566 37 579Q42 592 51.5 601.5Q61 611 73.5 616Q86 621 100 621Q114 621 126.5 616Q139 611 148.5 601.5Q158 592 163 579Q168 566 168 552Q168 538 163 525Q158 512 148.5 502.5Q139 493 126.5 488Q114 483 100 483ZM40 0 65 421H135L160 0Z" glyph-name="exclamdown.cap" horiz-adv-x="200" /><glyph d="M307 648V560Q302 564 295.5 566.5Q289 569 283 570.5Q277 572 270.5 573Q264 574 258 574Q243 574 231 569.5Q219 565 210.5 556.5Q202 548 197.5 535Q193 522 193 506V444H290V361H193V0H95V361H18V444H95V513Q95 548 106 575.5Q117 603 136.5 622Q156 641 183 650.5Q210 660 241 660Q252 660 261 659.5Q270 659 278 657.5Q286 656 293 653.5Q300 651 307 648Z" glyph-name="f" horiz-adv-x="317" unicode="f" /><glyph d="M591 648V560Q586 564 579.5 566.5Q573 569 567 570.5Q561 572 554.5 573Q548 574 542 574Q527 574 515 569.5Q503 565 494.5 556.5Q486 548 481.5 535Q477 522 477 506V444H574V361H477V0H379V361H193V0H95V361H18V444H95V507Q95 542 106 569.5Q117 597 136.5 616Q156 635 183 644.5Q210 654 241 654Q252 654 261 653.5Q270 653 278 651.5Q286 650 293 647.5Q300 645 307 642V554Q302 558 295.5 560.5Q289 563 283 564.5Q277 566 270.5 567Q264 568 258 568Q243 568 231 563.5Q219 559 210.5 550.5Q202 542 197.5 529Q193 516 193 500V444H379V513Q379 548 390 575.5Q401 603 420.5 622Q440 641 467 650.5Q494 660 525 660Q536 660 545 659.5Q554 659 562 657.5Q570 656 577 653.5Q584 651 591 648Z" glyph-name="f_f" horiz-adv-x="601" unicode="&#64256;" /><glyph d="M491 578Q491 566 486 554.5Q481 543 472.5 534.5Q464 526 452.5 521.5Q441 517 429 517Q417 517 405.5 521.5Q394 526 385.5 534.5Q377 543 372 554.5Q367 566 367 578Q367 590 372 601.5Q377 613 385.5 621.5Q394 630 405.5 634.5Q417 639 429 639Q441 639 452.5 634.5Q464 630 472.5 621.5Q481 613 486 601.5Q491 590 491 578ZM479 444V0H379V444ZM307 648V560Q302 564 295.5 566.5Q289 569 283 570.5Q277 572 270.5 573Q264 574 258 574Q243 574 231 569.5Q219 565 210.5 556.5Q202 548 197.5 535Q193 522 193 506V444H290V361H193V0H95V361H18V444H95V513Q95 548 106 575.5Q117 603 136.5 622Q156 641 183 650.5Q210 660 241 660Q252 660 261 659.5Q270 659 278 657.5Q286 656 293 653.5Q300 651 307 648Z" glyph-name="fi" horiz-adv-x="541" unicode="&#64257;" /><glyph d="M197 393Q244 393 284.5 380Q325 367 355.5 341Q386 315 403 277.5Q420 240 420 192Q420 145 403 107Q386 69 355 43Q324 17 282.5 3.5Q241 -10 192 -10Q167 -10 145 -6.5Q123 -3 103.5 3Q84 9 67 18Q50 27 35 39V148Q52 132 69.5 119Q87 106 105.5 97.5Q124 89 144.5 84.5Q165 80 187 80Q215 80 240 87Q265 94 284 108.5Q303 123 313.5 144Q324 165 324 192Q324 219 313.5 240Q303 261 284 275.5Q265 290 240 297.5Q215 305 186 305Q167 305 150 303Q133 301 118 297.5Q103 294 88.5 289Q74 284 55 277V614H389V522H139V387Q145 389 151.5 390Q158 391 165.5 391.5Q173 392 180.5 392.5Q188 393 197 393Z" glyph-name="five" horiz-adv-x="452" unicode="5" /><glyph d="M232 393Q280 393 322 380Q364 367 395 341Q426 315 443.5 277.5Q461 240 461 192Q461 145 443.5 107Q426 69 394 43Q362 17 319.5 3.5Q277 -10 227 -10Q202 -10 179 -6.5Q156 -3 136.5 3Q117 9 99.5 18Q82 27 66 39V148Q83 132 101 119Q119 106 138.5 97.5Q158 89 179 84.5Q200 80 222 80Q251 80 277 87Q303 94 323 108.5Q343 123 354 144Q365 165 365 192Q365 219 354 240Q343 261 323 275.5Q303 290 276.5 297.5Q250 305 221 305Q201 305 184 303Q167 301 151.5 297.5Q136 294 120.5 289Q105 284 86 277V614H429V522H170V385Q176 387 183.5 388.5Q191 390 199 391Q207 392 215.5 392.5Q224 393 232 393Z" glyph-name="five.lt" horiz-adv-x="520" /><glyph d="M128 498Q154 498 176 490.5Q198 483 214.5 468Q231 453 240 432.5Q249 412 249 386Q249 361 239.5 340Q230 319 212.5 304.5Q195 290 171.5 282Q148 274 121 274Q106 274 92 276Q78 278 66.5 281.5Q55 285 45 290Q35 295 26 301V377Q35 369 45 362.5Q55 356 66.5 351Q78 346 90 343.5Q102 341 114 341Q127 341 137.5 343.5Q148 346 156 352Q164 358 168.5 366.5Q173 375 173 386Q173 397 168.5 405.5Q164 414 155.5 419.5Q147 425 136 428Q125 431 111 431Q101 431 91.5 430Q82 429 72.5 427.5Q63 426 54 423.5Q45 421 37 418V614H231V542H101V495Q104 496 107 496.5Q110 497 113 497.5Q116 498 120 498Q124 498 128 498Z" glyph-name="fivesuperior" horiz-adv-x="276" unicode="&#8309;" /><glyph d="M479 650V0H379V650ZM307 648V560Q302 564 295.5 566.5Q289 569 283 570.5Q277 572 270.5 573Q264 574 258 574Q243 574 231 569.5Q219 565 210.5 556.5Q202 548 197.5 535Q193 522 193 506V444H290V361H193V0H95V361H18V444H95V513Q95 548 106 575.5Q117 603 136.5 622Q156 641 183 650.5Q210 660 241 660Q252 660 261 659.5Q270 659 278 657.5Q286 656 293 653.5Q300 651 307 648Z" glyph-name="fl" horiz-adv-x="541" unicode="&#64258;" /><glyph d="M31 -180Q20 -180 11 -179.5Q2 -179 -5.5 -177.5Q-13 -176 -19.5 -173.5Q-26 -171 -33 -168V-80Q-27 -83 -19 -85.5Q-11 -88 -2 -90Q7 -92 15 -93Q23 -94 29 -94Q44 -94 54.5 -89.5Q65 -85 71.5 -76.5Q78 -68 82 -56Q86 -44 89 -26L141 267H69V351H156L178 477Q184 512 198.5 539.5Q213 567 235.5 586Q258 605 286.5 614.5Q315 624 350 624Q359 624 368 623Q377 622 385 620.5Q393 619 400 617Q407 615 414 612V524Q408 527 400.5 530Q393 533 385.5 534.5Q378 536 369.5 537Q361 538 352 538Q337 538 324 533.5Q311 529 301 520.5Q291 512 284.5 499Q278 486 275 470L254 351H344V267H239L186 -33Q179 -70 167.5 -97Q156 -124 137.5 -142.5Q119 -161 93 -170.5Q67 -180 31 -180Z" glyph-name="florin" horiz-adv-x="424" unicode="&#402;" /><glyph d="M100 -180Q89 -180 80 -179.5Q71 -179 63.5 -177.5Q56 -176 49.5 -173.5Q43 -171 36 -168V-80Q42 -83 50 -85.5Q58 -88 67 -90Q76 -92 84 -93Q92 -94 98 -94Q113 -94 123.5 -89.5Q134 -85 140.5 -76.5Q147 -68 151 -56Q155 -44 158 -26L210 267H138V351H225L247 477Q253 512 267.5 539.5Q282 567 304.5 586Q327 605 355.5 614.5Q384 624 419 624Q428 624 437 623Q446 622 454 620.5Q462 619 469 617Q476 615 483 612V524Q477 527 469.5 530Q462 533 454.5 534.5Q447 536 438.5 537Q430 538 421 538Q406 538 393 533.5Q380 529 370 520.5Q360 512 353.5 499Q347 486 344 470L323 351H413V267H308L255 -33Q248 -70 236.5 -97Q225 -124 206.5 -142.5Q188 -161 162 -170.5Q136 -180 100 -180Z" glyph-name="florin.lt" horiz-adv-x="520" /><glyph d="M340 614 158 214H306V358H402V214H493V128H402V0H306V128H18V132L238 614Z" glyph-name="four" horiz-adv-x="516" unicode="4" /><glyph d="M344 614 162 214H310V358H406V214H497V128H406V0H310V128H22V132L242 614Z" glyph-name="four.lt" horiz-adv-x="520" /><glyph d="M239 335 146 132H203V192H274V132H314V65H274V0H203V65H35V67L157 335Z" glyph-name="fourinferior" horiz-adv-x="364" unicode="&#8324;" /><glyph d="M336 614 -33 0H-120L249 614Z" glyph-name="fraction" horiz-adv-x="216" unicode="&#8260;" /><glyph d="M366 614 -73 0H-160L279 614Z" glyph-name="fraction.alt" horiz-adv-x="216" /><glyph d="M348 139V313Q342 324 332 334Q322 344 309.5 351Q297 358 282.5 362Q268 366 253 366Q225 366 202 355.5Q179 345 163.5 326.5Q148 308 140 282Q132 256 132 226Q132 196 140 170Q148 144 163.5 125.5Q179 107 202 96.5Q225 86 253 86Q268 86 282.5 90Q297 94 309.5 101Q322 108 332 118Q342 128 348 139ZM348 30V44Q340 35 328.5 26.5Q317 18 302.5 11.5Q288 5 271 1.5Q254 -2 236 -2Q188 -2 150 16.5Q112 35 85 67Q58 99 44.5 140Q31 181 31 226Q31 271 44.5 312Q58 353 85 385Q112 417 150 435.5Q188 454 236 454Q254 454 271 450.5Q288 447 302.5 440.5Q317 434 328.5 425.5Q340 417 348 408V444H448V37Q448 -21 428 -63Q408 -105 375 -131Q342 -157 302 -168.5Q262 -180 220 -180Q198 -180 177.5 -177.5Q157 -175 138 -170Q119 -165 102.5 -158Q86 -151 72 -142V-36Q89 -51 106.5 -62Q124 -73 142 -79.5Q160 -86 179.5 -89Q199 -92 220 -92Q247 -92 270 -84Q293 -76 310.5 -60.5Q328 -45 338 -22Q348 1 348 30Z" glyph-name="g" horiz-adv-x="510" unicode="g" /><glyph d="M348 139V313Q342 324 332 334Q322 344 309.5 351Q297 358 282.5 362Q268 366 253 366Q225 366 202 355.5Q179 345 163.5 326.5Q148 308 140 282Q132 256 132 226Q132 196 140 170Q148 144 163.5 125.5Q179 107 202 96.5Q225 86 253 86Q268 86 282.5 90Q297 94 309.5 101Q322 108 332 118Q342 128 348 139ZM348 30V44Q340 35 328.5 26.5Q317 18 302.5 11.5Q288 5 271 1.5Q254 -2 236 -2Q188 -2 150 16.5Q112 35 85 67Q58 99 44.5 140Q31 181 31 226Q31 271 44.5 312Q58 353 85 385Q112 417 150 435.5Q188 454 236 454Q254 454 271 450.5Q288 447 302.5 440.5Q317 434 328.5 425.5Q340 417 348 408V444H448V37Q448 -21 428 -63Q408 -105 375 -131Q342 -157 302 -168.5Q262 -180 220 -180Q198 -180 177.5 -177.5Q157 -175 138 -170Q119 -165 102.5 -158Q86 -151 72 -142V-36Q89 -51 106.5 -62Q124 -73 142 -79.5Q160 -86 179.5 -89Q199 -92 220 -92Q247 -92 270 -84Q293 -76 310.5 -60.5Q328 -45 338 -22Q348 1 348 30ZM267 495Q239 495 216 504Q193 513 176.5 530Q160 547 151 572.5Q142 598 142 630H215Q215 616 218 604Q221 592 227.5 583Q234 574 244 569.5Q254 565 267 565Q280 565 290 569.5Q300 574 306.5 583Q313 592 316 604Q319 616 319 630H392Q392 598 383 572.5Q374 547 357.5 530Q341 513 318 504Q295 495 267 495Z" glyph-name="gbreve" horiz-adv-x="510" unicode="&#287;" /><glyph d="M313 646 407 506H323L267 585L211 506H127L221 646ZM348 139V313Q342 324 332 334Q322 344 309.5 351Q297 358 282.5 362Q268 366 253 366Q225 366 202 355.5Q179 345 163.5 326.5Q148 308 140 282Q132 256 132 226Q132 196 140 170Q148 144 163.5 125.5Q179 107 202 96.5Q225 86 253 86Q268 86 282.5 90Q297 94 309.5 101Q322 108 332 118Q342 128 348 139ZM348 30V44Q340 35 328.5 26.5Q317 18 302.5 11.5Q288 5 271 1.5Q254 -2 236 -2Q188 -2 150 16.5Q112 35 85 67Q58 99 44.5 140Q31 181 31 226Q31 271 44.5 312Q58 353 85 385Q112 417 150 435.5Q188 454 236 454Q254 454 271 450.5Q288 447 302.5 440.5Q317 434 328.5 425.5Q340 417 348 408V444H448V37Q448 -21 428 -63Q408 -105 375 -131Q342 -157 302 -168.5Q262 -180 220 -180Q198 -180 177.5 -177.5Q157 -175 138 -170Q119 -165 102.5 -158Q86 -151 72 -142V-36Q89 -51 106.5 -62Q124 -73 142 -79.5Q160 -86 179.5 -89Q199 -92 220 -92Q247 -92 270 -84Q293 -76 310.5 -60.5Q328 -45 338 -22Q348 1 348 30Z" glyph-name="gcircumflex" horiz-adv-x="510" unicode="&#285;" /><glyph d="M322 696 279 634Q290 633 299.5 628Q309 623 316 615.5Q323 608 327 598Q331 588 331 577Q331 564 326 553Q321 542 312 534Q303 526 291 521.5Q279 517 266 517Q253 517 241.5 521.5Q230 526 221.5 534.5Q213 543 208 555Q203 567 203 581Q203 591 205.5 601Q208 611 212 620Q216 629 221 637.5Q226 646 232 655L260 696ZM348 139V313Q342 324 332 334Q322 344 309.5 351Q297 358 282.5 362Q268 366 253 366Q225 366 202 355.5Q179 345 163.5 326.5Q148 308 140 282Q132 256 132 226Q132 196 140 170Q148 144 163.5 125.5Q179 107 202 96.5Q225 86 253 86Q268 86 282.5 90Q297 94 309.5 101Q322 108 332 118Q342 128 348 139ZM348 30V44Q340 35 328.5 26.5Q317 18 302.5 11.5Q288 5 271 1.5Q254 -2 236 -2Q188 -2 150 16.5Q112 35 85 67Q58 99 44.5 140Q31 181 31 226Q31 271 44.5 312Q58 353 85 385Q112 417 150 435.5Q188 454 236 454Q254 454 271 450.5Q288 447 302.5 440.5Q317 434 328.5 425.5Q340 417 348 408V444H448V37Q448 -21 428 -63Q408 -105 375 -131Q342 -157 302 -168.5Q262 -180 220 -180Q198 -180 177.5 -177.5Q157 -175 138 -170Q119 -165 102.5 -158Q86 -151 72 -142V-36Q89 -51 106.5 -62Q124 -73 142 -79.5Q160 -86 179.5 -89Q199 -92 220 -92Q247 -92 270 -84Q293 -76 310.5 -60.5Q328 -45 338 -22Q348 1 348 30Z" glyph-name="gcommaaccent" horiz-adv-x="510" unicode="&#291;" /><glyph d="M348 139V313Q342 324 332 334Q322 344 309.5 351Q297 358 282.5 362Q268 366 253 366Q225 366 202 355.5Q179 345 163.5 326.5Q148 308 140 282Q132 256 132 226Q132 196 140 170Q148 144 163.5 125.5Q179 107 202 96.5Q225 86 253 86Q268 86 282.5 90Q297 94 309.5 101Q322 108 332 118Q342 128 348 139ZM348 30V44Q340 35 328.5 26.5Q317 18 302.5 11.5Q288 5 271 1.5Q254 -2 236 -2Q188 -2 150 16.5Q112 35 85 67Q58 99 44.5 140Q31 181 31 226Q31 271 44.5 312Q58 353 85 385Q112 417 150 435.5Q188 454 236 454Q254 454 271 450.5Q288 447 302.5 440.5Q317 434 328.5 425.5Q340 417 348 408V444H448V37Q448 -21 428 -63Q408 -105 375 -131Q342 -157 302 -168.5Q262 -180 220 -180Q198 -180 177.5 -177.5Q157 -175 138 -170Q119 -165 102.5 -158Q86 -151 72 -142V-36Q89 -51 106.5 -62Q124 -73 142 -79.5Q160 -86 179.5 -89Q199 -92 220 -92Q247 -92 270 -84Q293 -76 310.5 -60.5Q328 -45 338 -22Q348 1 348 30ZM329 578Q329 566 324 554.5Q319 543 310.5 534.5Q302 526 290.5 521.5Q279 517 267 517Q255 517 243.5 521.5Q232 526 223.5 534.5Q215 543 210 554.5Q205 566 205 578Q205 590 210 601.5Q215 613 223.5 621.5Q232 630 243.5 634.5Q255 639 267 639Q279 639 290.5 634.5Q302 630 310.5 621.5Q319 613 324 601.5Q329 590 329 578Z" glyph-name="gdotaccent" horiz-adv-x="510" unicode="&#289;" /><glyph d="M62 0V513Q62 548 73 575.5Q84 603 103.5 622Q123 641 150 650.5Q177 660 208 660Q219 660 228 659.5Q237 659 245 657.5Q253 656 260 653.5Q267 651 274 648V560Q269 564 262.5 566.5Q256 569 250 570.5Q244 572 237.5 573Q231 574 225 574Q210 574 198 569.5Q186 565 177.5 556.5Q169 548 164.5 535Q160 522 160 506V444H484V440L373 234Q395 221 413.5 203.5Q432 186 447 163.5Q462 141 470 113.5Q478 86 478 56Q478 0 458 -44Q438 -88 400 -118Q362 -148 309.5 -163.5Q257 -179 193 -179V-93Q235 -93 269.5 -84Q304 -75 329.5 -56Q355 -37 368.5 -9Q382 19 382 56Q382 81 373.5 102Q365 123 348.5 140Q332 157 309.5 170.5Q287 184 259 194V198L344 361H160V0Z" glyph-name="germandbls" horiz-adv-x="514" unicode="&#223;" /><glyph d="M340 513H251L160 650H263Z" glyph-name="grave" horiz-adv-x="500" unicode="`" /><glyph d="M346 671H248L153 788H269Z" glyph-name="grave.cap" horiz-adv-x="500" /><glyph d="M382 351V244L65 91V184L308 297L65 411V503Z" glyph-name="greater" horiz-adv-x="446" unicode="&gt;" /><glyph d="M418 351V244L101 91V184L344 297L101 411V503Z" glyph-name="greater.lt" horiz-adv-x="520" /><glyph d="M385 408V307L68 182V269L302 358L68 446V534ZM385 152V73H68V152Z" glyph-name="greaterequal" horiz-adv-x="453" unicode="&#8805;" /><glyph d="M418 408V307L101 182V269L335 358L101 446V534ZM418 152V73H101V152Z" glyph-name="greaterequal.lt" horiz-adv-x="520" /><glyph d="M372 64H282L190 222L282 380H372L280 222ZM207 64H117L25 222L117 380H207L115 222Z" glyph-name="guillemotleft" horiz-adv-x="397" unicode="&#171;" /><glyph d="M372 144H282L190 302L282 460H372L280 302ZM207 144H117L25 302L117 460H207L115 302Z" glyph-name="guillemotleft.cap" horiz-adv-x="397" /><glyph d="M115 64H25L117 222L25 380H115L207 222ZM280 64H190L282 222L190 380H280L372 222Z" glyph-name="guillemotright" horiz-adv-x="397" unicode="&#187;" /><glyph d="M115 144H25L117 302L25 460H115L207 302ZM280 144H190L282 302L190 460H280L372 302Z" glyph-name="guillemotright.cap" horiz-adv-x="397" /><glyph d="M211 64H117L25 222L117 380H211L119 222Z" glyph-name="guilsinglleft" horiz-adv-x="236" unicode="&#8249;" /><glyph d="M211 144H117L25 302L117 460H211L119 302Z" glyph-name="guilsinglleft.cap" horiz-adv-x="236" /><glyph d="M119 64H25L117 222L25 380H119L211 222Z" glyph-name="guilsinglright" horiz-adv-x="236" unicode="&#8250;" /><glyph d="M119 144H25L117 302L25 460H119L211 302Z" glyph-name="guilsinglright.cap" horiz-adv-x="236" /><glyph d="M62 0V650H162V402Q171 413 183.5 422.5Q196 432 211.5 439Q227 446 245 450Q263 454 282 454Q319 454 348.5 442Q378 430 398 408.5Q418 387 428.5 356.5Q439 326 439 289V0H339V272Q339 293 334 309.5Q329 326 318.5 338Q308 350 292 356.5Q276 363 255 363Q239 363 224 358Q209 353 196.5 344Q184 335 175 321.5Q166 308 162 292V0Z" glyph-name="h" horiz-adv-x="495" unicode="h" /><glyph d="M162 292V0H62V502H2V572H62V650H162V572H263V502H162V402Q171 413 183.5 422.5Q196 432 211.5 439Q227 446 245 450Q263 454 282 454Q319 454 348.5 442Q378 430 398 408.5Q418 387 428.5 356.5Q439 326 439 289V0H339V272Q339 293 334 309.5Q329 326 318.5 338Q308 350 292 356.5Q276 363 255 363Q239 363 224 358Q209 353 196.5 344Q184 335 175 321.5Q166 308 162 292Z" glyph-name="hbar" horiz-adv-x="495" unicode="&#295;" /><glyph d="M62 0V650H162V402Q171 413 183.5 422.5Q196 432 211.5 439Q227 446 245 450Q263 454 282 454Q319 454 348.5 442Q378 430 398 408.5Q418 387 428.5 356.5Q439 326 439 289V0H339V272Q339 293 334 309.5Q329 326 318.5 338Q308 350 292 356.5Q276 363 255 363Q239 363 224 358Q209 353 196.5 344Q184 335 175 321.5Q166 308 162 292V0ZM296 815 390 691H301L250 751L199 691H110L204 815Z" glyph-name="hcircumflex" horiz-adv-x="495" unicode="&#293;" /><glyph d="M323 513H243L303 650H385ZM195 513H115L175 650H257Z" glyph-name="hungarumlaut" horiz-adv-x="500" unicode="&#733;" /><glyph d="M327 671H244L304 788H389ZM194 671H111L171 788H256Z" glyph-name="hungarumlaut.cap" horiz-adv-x="500" /><glyph d="M40 217V308H281V217Z" glyph-name="hyphen" horiz-adv-x="321" unicode="-" /><glyph d="M40 257V348H281V257Z" glyph-name="hyphen.cap" horiz-adv-x="321" /><glyph d="M174 578Q174 566 169 554.5Q164 543 155.5 534.5Q147 526 135.5 521.5Q124 517 112 517Q100 517 88.5 521.5Q77 526 68.5 534.5Q60 543 55 554.5Q50 566 50 578Q50 590 55 601.5Q60 613 68.5 621.5Q77 630 88.5 634.5Q100 639 112 639Q124 639 135.5 634.5Q147 630 155.5 621.5Q164 613 169 601.5Q174 590 174 578ZM162 444V0H62V444Z" glyph-name="i" horiz-adv-x="224" unicode="i" /><glyph d="M151 513H62L139 650H242ZM162 444V0H62V444Z" glyph-name="iacute" horiz-adv-x="224" unicode="&#237;" /><glyph d="M112 495Q87 495 66.5 504Q46 513 31 530Q16 547 8 572.5Q0 598 0 630H71Q71 615 73 603.5Q75 592 79.5 583Q84 574 92 569.5Q100 565 112 565Q124 565 132 569.5Q140 574 144.5 583Q149 592 151 603.5Q153 615 153 630H224Q224 598 216 572.5Q208 547 193 530Q178 513 157.5 504Q137 495 112 495ZM162 444V0H62V444Z" glyph-name="ibreve" horiz-adv-x="224" unicode="&#301;" /><glyph d="M158 646 234 506H152L112 582L72 506H-10L66 646ZM162 444V0H62V444Z" glyph-name="icircumflex" horiz-adv-x="224" unicode="&#238;" /><glyph d="M124 572Q124 584 128.5 595Q133 606 141 614Q149 622 159.5 626.5Q170 631 182 631Q194 631 204.5 626.5Q215 622 223.5 614Q232 606 236.5 595Q241 584 241 572Q241 560 236.5 549.5Q232 539 223.5 531Q215 523 204.5 518.5Q194 514 182 514Q170 514 159.5 518.5Q149 523 141 531Q133 539 128.5 549.5Q124 560 124 572ZM-16 572Q-16 585 -11.5 595.5Q-7 606 1 614Q9 622 20 626.5Q31 631 43 631Q55 631 65.5 626.5Q76 622 84 614Q92 606 96.5 595Q101 584 101 572Q101 560 96.5 549.5Q92 539 84 531Q76 523 65.5 518.5Q55 514 43 514Q31 514 20 518.5Q9 523 1 531Q-7 539 -11.5 549.5Q-16 560 -16 572ZM162 444V0H62V444Z" glyph-name="idieresis" horiz-adv-x="224" unicode="&#239;" /><glyph d="M162 444V0H62V444ZM174 578Q174 566 169 554.5Q164 543 155.5 534.5Q147 526 135.5 521.5Q124 517 112 517Q100 517 88.5 521.5Q77 526 68.5 534.5Q60 543 55 554.5Q50 566 50 578Q50 590 55 601.5Q60 613 68.5 621.5Q77 630 88.5 634.5Q100 639 112 639Q124 639 135.5 634.5Q147 630 155.5 621.5Q164 613 169 601.5Q174 590 174 578Z" glyph-name="idotaccent" horiz-adv-x="224" /><glyph d="M162 444V0H62V444ZM162 513H73L-18 650H85Z" glyph-name="igrave" horiz-adv-x="224" unicode="&#236;" /><glyph d="M174 578Q174 566 169 554.5Q164 543 155.5 534.5Q147 526 135.5 521.5Q124 517 112 517Q100 517 88.5 521.5Q77 526 68.5 534.5Q60 543 55 554.5Q50 566 50 578Q50 590 55 601.5Q60 613 68.5 621.5Q77 630 88.5 634.5Q100 639 112 639Q124 639 135.5 634.5Q147 630 155.5 621.5Q164 613 169 601.5Q174 590 174 578ZM162 444V0H62V444ZM398 578Q398 566 393 554.5Q388 543 379.5 534.5Q371 526 359.5 521.5Q348 517 336 517Q324 517 312.5 521.5Q301 526 292.5 534.5Q284 543 279 554.5Q274 566 274 578Q274 590 279 601.5Q284 613 292.5 621.5Q301 630 312.5 634.5Q324 639 336 639Q348 639 359.5 634.5Q371 630 379.5 621.5Q388 613 393 601.5Q398 590 398 578ZM386 444V-40Q386 -73 377 -99Q368 -125 349.5 -143Q331 -161 304 -170.5Q277 -180 241 -180Q237 -180 231.5 -180Q226 -180 220.5 -179Q215 -178 210 -177Q205 -176 201 -175V-91Q204 -92 207.5 -92.5Q211 -93 215 -93.5Q219 -94 223 -94.5Q227 -95 231 -95Q245 -95 255.5 -91Q266 -87 272.5 -79.5Q279 -72 282.5 -60.5Q286 -49 286 -33V444Z" glyph-name="ij" horiz-adv-x="446" unicode="&#307;" /><glyph d="M162 444V0H62V444Z" glyph-name="imacron" horiz-adv-x="224" unicode="&#299;" /><glyph d="M174 578Q174 566 169 554.5Q164 543 155.5 534.5Q147 526 135.5 521.5Q124 517 112 517Q100 517 88.5 521.5Q77 526 68.5 534.5Q60 543 55 554.5Q50 566 50 578Q50 590 55 601.5Q60 613 68.5 621.5Q77 630 88.5 634.5Q100 639 112 639Q124 639 135.5 634.5Q147 630 155.5 621.5Q164 613 169 601.5Q174 590 174 578ZM162 444V0Q114 -76 121 -65Q128 -54 123 -63.5Q118 -73 115.5 -80.5Q113 -88 113 -97Q113 -102 114.5 -106.5Q116 -111 118.5 -114Q121 -117 125 -118.5Q129 -120 134 -120Q138 -120 142.5 -119Q147 -118 151 -116Q155 -114 159.5 -111.5Q164 -109 171 -104V-168Q165 -173 158 -177Q151 -181 144 -184Q137 -187 129 -188.5Q121 -190 112 -190Q93 -190 78.5 -184.5Q64 -179 55 -169.5Q46 -160 41.5 -147Q37 -134 37 -118Q37 -103 41 -88.5Q45 -74 52.5 -60.5Q60 -47 63.5 -42Q67 -37 91 0H62V444Z" glyph-name="iogonek" horiz-adv-x="224" unicode="&#303;" /><glyph d="M174 641H232Q232 612 227 587.5Q222 563 213 546Q204 529 190 519.5Q176 510 159 510Q146 510 135 516.5Q124 523 110 536Q96 549 89.5 554Q83 559 75 559Q68 559 63 556Q58 553 55 547.5Q52 542 50 533.5Q48 525 48 513H-10Q-10 542 -5 566.5Q0 591 9 608Q18 625 32 634.5Q46 644 63 644Q76 644 87 637.5Q98 631 112.5 618Q127 605 133.5 600Q140 595 147 595Q153 595 158 598Q163 601 166.5 606.5Q170 612 172 620.5Q174 629 174 641ZM162 444V0H62V444Z" glyph-name="itilde" horiz-adv-x="224" unicode="&#297;" /><glyph d="M174 578Q174 566 169 554.5Q164 543 155.5 534.5Q147 526 135.5 521.5Q124 517 112 517Q100 517 88.5 521.5Q77 526 68.5 534.5Q60 543 55 554.5Q50 566 50 578Q50 590 55 601.5Q60 613 68.5 621.5Q77 630 88.5 634.5Q100 639 112 639Q124 639 135.5 634.5Q147 630 155.5 621.5Q164 613 169 601.5Q174 590 174 578ZM162 444V-40Q162 -73 153 -99Q144 -125 125.5 -143Q107 -161 80 -170.5Q53 -180 17 -180Q13 -180 7.5 -180Q2 -180 -3.5 -179Q-9 -178 -14 -177Q-19 -176 -23 -175V-91Q-20 -92 -16.5 -92.5Q-13 -93 -9 -93.5Q-5 -94 -1 -94.5Q3 -95 7 -95Q21 -95 31.5 -91Q42 -87 48.5 -79.5Q55 -72 58.5 -60.5Q62 -49 62 -33V444Z" glyph-name="j" horiz-adv-x="222" unicode="j" /><glyph d="M158 646 234 506H152L112 582L72 506H-10L66 646ZM162 444V-40Q162 -73 153 -99Q144 -125 125.5 -143Q107 -161 80 -170.5Q53 -180 17 -180Q13 -180 7.5 -180Q2 -180 -3.5 -179Q-9 -178 -14 -177Q-19 -176 -23 -175V-91Q-20 -92 -16.5 -92.5Q-13 -93 -9 -93.5Q-5 -94 -1 -94.5Q3 -95 7 -95Q21 -95 31.5 -91Q42 -87 48.5 -79.5Q55 -72 58.5 -60.5Q62 -49 62 -33V444Z" glyph-name="jcircumflex" horiz-adv-x="222" unicode="&#309;" /><glyph d="M342 0 162 213V0H62V650H162V264L334 444H459L260 242L463 0Z" glyph-name="k" horiz-adv-x="463" unicode="k" /><glyph d="M185 -217 227 -157Q216 -156 206.5 -151Q197 -146 190.5 -139Q184 -132 180 -122.5Q176 -113 176 -102Q176 -90 181 -79Q186 -68 194.5 -60Q203 -52 214.5 -48Q226 -44 239 -44Q252 -44 263 -48.5Q274 -53 282.5 -61Q291 -69 295.5 -80.5Q300 -92 300 -106Q300 -116 297.5 -125Q295 -134 291.5 -143Q288 -152 283 -160Q278 -168 272 -177L245 -217ZM342 0 162 213V0H62V650H162V264L334 444H459L260 242L463 0Z" glyph-name="kcommaaccent" horiz-adv-x="463" unicode="&#311;" /><glyph d="M342 0 162 213V0H62V444H162V264L334 444H459L260 242L463 0Z" glyph-name="kgreenlandic" horiz-adv-x="463" unicode="&#312;" /><glyph d="M162 650V0H62V650Z" glyph-name="l" horiz-adv-x="224" unicode="l" /><glyph d="M160 701H62L139 818H255ZM162 650V0H62V650Z" glyph-name="lacute" horiz-adv-x="224" unicode="&#314;" /><glyph d="M290 483H212L246 650H324ZM162 650V0H62V650Z" glyph-name="lcaron" horiz-adv-x="224" unicode="&#318;" /><glyph d="M59 -217 101 -157Q90 -156 80.5 -151Q71 -146 64.5 -139Q58 -132 54 -122.5Q50 -113 50 -102Q50 -90 55 -79Q60 -68 68.5 -60Q77 -52 88.5 -48Q100 -44 113 -44Q126 -44 137 -48.5Q148 -53 156.5 -61Q165 -69 169.5 -80.5Q174 -92 174 -106Q174 -116 171.5 -125Q169 -134 165.5 -143Q162 -152 157 -160Q152 -168 146 -177L119 -217ZM162 650V0H62V650Z" glyph-name="lcommaaccent" horiz-adv-x="224" unicode="&#316;" /><glyph d="M162 650V0H62V650ZM354 325Q354 313 349 301.5Q344 290 335.5 281.5Q327 273 315.5 268.5Q304 264 292 264Q280 264 268.5 268.5Q257 273 248.5 281.5Q240 290 235 301.5Q230 313 230 325Q230 337 235 348.5Q240 360 248.5 368.5Q257 377 268.5 381.5Q280 386 292 386Q304 386 315.5 381.5Q327 377 335.5 368.5Q344 360 349 348.5Q354 337 354 325Z" glyph-name="ldot" horiz-adv-x="364" unicode="&#320;" /><glyph d="M65 244V351L381 503V411L138 297L381 184V91Z" glyph-name="less" horiz-adv-x="446" unicode="&lt;" /><glyph d="M102 244V351L418 503V411L175 297L418 184V91Z" glyph-name="less.lt" horiz-adv-x="520" /><glyph d="M68 307V408L385 534V446L150 358L385 269V182ZM68 73V152H385V73Z" glyph-name="lessequal" horiz-adv-x="453" unicode="&#8804;" /><glyph d="M101 307V408L418 534V446L183 358L418 269V182ZM101 73V152H418V73Z" glyph-name="lessequal.lt" horiz-adv-x="520" /><glyph d="M180 0H80V291L30 261V347L80 376V650H180V422L235 454V368L180 336Z" glyph-name="lslash" horiz-adv-x="260" unicode="&#322;" /><glyph d="M390 395Q402 409 415.5 420Q429 431 445.5 438.5Q462 446 481 450Q500 454 522 454Q556 454 582.5 442.5Q609 431 628 409.5Q647 388 656.5 357.5Q666 327 666 289V0H566V273Q566 294 561.5 310.5Q557 327 548 339Q539 351 525 357.5Q511 364 493 364Q479 364 466.5 360Q454 356 443 347.5Q432 339 424.5 326.5Q417 314 414 298V0H314V273Q314 294 309.5 310.5Q305 327 296 339Q287 351 273 357.5Q259 364 241 364Q227 364 214.5 360Q202 356 191 347.5Q180 339 172.5 326.5Q165 314 162 298V0H62V444H162V407Q170 418 181.5 426.5Q193 435 207 441Q221 447 238 450.5Q255 454 273 454Q291 454 308.5 449.5Q326 445 341.5 437Q357 429 369 418.5Q381 408 390 395Z" glyph-name="m" horiz-adv-x="722" unicode="m" /><glyph d="M137 524V603H362V524Z" glyph-name="macron" horiz-adv-x="500" unicode="&#175;" /><glyph d="M137 671V750H362V671Z" glyph-name="macron.cap" horiz-adv-x="500" /><glyph d="M74 259V339H490V259Z" glyph-name="minus" horiz-adv-x="564" unicode="&#8722;" /><glyph d="M52 259V339H468V259Z" glyph-name="minus.lt" horiz-adv-x="520" /><glyph glyph-name="mu" horiz-adv-x="833" unicode="&#181;" /><glyph d="M194 297 71 418 126 473 247 351 369 473 424 418 302 297 424 176 369 120 247 242 126 120 71 176Z" glyph-name="multiply" horiz-adv-x="496" unicode="&#215;" /><glyph d="M206 297 83 418 138 473 259 351 381 473 436 418 314 297 436 176 381 120 259 242 138 120 83 176Z" glyph-name="multiply.lt" horiz-adv-x="520" /><glyph d="M62 0V444H162V402Q171 413 183.5 422.5Q196 432 211.5 439Q227 446 245 450Q263 454 282 454Q319 454 348.5 442Q378 430 398 408.5Q418 387 428.5 356.5Q439 326 439 289V0H339V272Q339 293 334 309.5Q329 326 318.5 338Q308 350 292 356.5Q276 363 255 363Q239 363 224 358Q209 353 196.5 344Q184 335 175 321.5Q166 308 162 292V0Z" glyph-name="n" horiz-adv-x="495" unicode="n" /><glyph d="M295 513H206L283 650H386ZM62 0V444H162V402Q171 413 183.5 422.5Q196 432 211.5 439Q227 446 245 450Q263 454 282 454Q319 454 348.5 442Q378 430 398 408.5Q418 387 428.5 356.5Q439 326 439 289V0H339V272Q339 293 334 309.5Q329 326 318.5 338Q308 350 292 356.5Q276 363 255 363Q239 363 224 358Q209 353 196.5 344Q184 335 175 321.5Q166 308 162 292V0Z" glyph-name="nacute" horiz-adv-x="495" unicode="&#324;" /><glyph d="M396 646 302 506H210L116 646H200L256 567L312 646ZM62 0V444H162V402Q171 413 183.5 422.5Q196 432 211.5 439Q227 446 245 450Q263 454 282 454Q319 454 348.5 442Q378 430 398 408.5Q418 387 428.5 356.5Q439 326 439 289V0H339V272Q339 293 334 309.5Q329 326 318.5 338Q308 350 292 356.5Q276 363 255 363Q239 363 224 358Q209 353 196.5 344Q184 335 175 321.5Q166 308 162 292V0Z" glyph-name="ncaron" horiz-adv-x="495" unicode="&#328;" /><glyph d="M203 -217 245 -157Q234 -156 224.5 -151Q215 -146 208.5 -139Q202 -132 198 -122.5Q194 -113 194 -102Q194 -90 199 -79Q204 -68 212.5 -60Q221 -52 232.5 -48Q244 -44 257 -44Q270 -44 281 -48.5Q292 -53 300.5 -61Q309 -69 313.5 -80.5Q318 -92 318 -106Q318 -116 315.5 -125Q313 -134 309.5 -143Q306 -152 301 -160Q296 -168 290 -177L263 -217ZM62 0V444H162V402Q171 413 183.5 422.5Q196 432 211.5 439Q227 446 245 450Q263 454 282 454Q319 454 348.5 442Q378 430 398 408.5Q418 387 428.5 356.5Q439 326 439 289V0H339V272Q339 293 334 309.5Q329 326 318.5 338Q308 350 292 356.5Q276 363 255 363Q239 363 224 358Q209 353 196.5 344Q184 335 175 321.5Q166 308 162 292V0Z" glyph-name="ncommaaccent" horiz-adv-x="495" unicode="&#326;" /><glyph d="M242 624Q288 624 327 608Q366 592 394.5 563.5Q423 535 438.5 496Q454 457 454 412Q454 391 450.5 369.5Q447 348 439.5 324.5Q432 301 420 275Q408 249 391 220L264 0H157L278 210Q274 208 269 206.5Q264 205 258 204Q252 203 245.5 202.5Q239 202 234 202Q189 202 151.5 218Q114 234 86.5 262.5Q59 291 44.5 329.5Q30 368 30 412Q30 457 45.5 496Q61 535 89.5 563.5Q118 592 157 608Q196 624 242 624ZM124 412Q124 387 132.5 364.5Q141 342 157 325.5Q173 309 194.5 299.5Q216 290 242 290Q267 290 289 299.5Q311 309 327 325.5Q343 342 351.5 364.5Q360 387 360 412Q360 438 351.5 460Q343 482 327 499Q311 516 289 525Q267 534 242 534Q216 534 194.5 525Q173 516 157 499Q141 482 132.5 460Q124 438 124 412Z" glyph-name="nine" horiz-adv-x="484" unicode="9" /><glyph d="M260 624Q306 624 345 608Q384 592 412.5 563.5Q441 535 456.5 496Q472 457 472 412Q472 391 468.5 369.5Q465 348 457.5 324.5Q450 301 438 275Q426 249 409 220L282 0H175L296 210Q292 208 287 206.5Q282 205 276 204Q270 203 263.5 202.5Q257 202 252 202Q207 202 169.5 218Q132 234 104.5 262.5Q77 291 62.5 329.5Q48 368 48 412Q48 457 63.5 496Q79 535 107.5 563.5Q136 592 175 608Q214 624 260 624ZM142 412Q142 387 150.5 364.5Q159 342 175 325.5Q191 309 212.5 299.5Q234 290 260 290Q285 290 307 299.5Q329 309 345 325.5Q361 342 369.5 364.5Q378 387 378 412Q378 438 369.5 460Q361 482 345 499Q329 516 307 525Q285 534 260 534Q234 534 212.5 525Q191 516 175 499Q159 482 150.5 460Q142 438 142 412Z" glyph-name="nine.lt" horiz-adv-x="520" /><glyph glyph-name="nonmarkingreturn" horiz-adv-x="221" unicode="" /><glyph d="M497 188H248L182 93H110L176 188H82V261H226L279 337H82V410H330L396 506H468L402 410H497V337H351L298 261H497Z" glyph-name="notequal" horiz-adv-x="578" unicode="&#8800;" /><glyph d="M467 188H218L152 93H80L146 188H52V261H196L249 337H52V410H300L366 506H438L372 410H467V337H321L268 261H467Z" glyph-name="notequal.lt" horiz-adv-x="520" /><glyph d="M62 0V444H162V402Q171 413 183.5 422.5Q196 432 211.5 439Q227 446 245 450Q263 454 282 454Q319 454 348.5 442Q378 430 398 408.5Q418 387 428.5 356.5Q439 326 439 289V0H339V272Q339 293 334 309.5Q329 326 318.5 338Q308 350 292 356.5Q276 363 255 363Q239 363 224 358Q209 353 196.5 344Q184 335 175 321.5Q166 308 162 292V0ZM329 641H389Q389 612 383.5 587.5Q378 563 368 546Q358 529 342 519.5Q326 510 306 510Q292 510 279 517Q266 524 249 537.5Q232 551 223.5 556.5Q215 562 205 562Q197 562 191 558.5Q185 555 181.5 549Q178 543 175.5 534Q173 525 173 513H113Q113 542 118.5 566.5Q124 591 134 608Q144 625 160 634.5Q176 644 196 644Q211 644 224 637Q237 630 254 616.5Q271 603 279.5 597.5Q288 592 297 592Q304 592 310 595.5Q316 599 320 605Q324 611 326.5 620Q329 629 329 641Z" glyph-name="ntilde" horiz-adv-x="495" unicode="&#241;" /><glyph d="M348 238 381 376H253L220 238ZM291 0 330 162H202L163 0H76L115 162H20L36 238H133L165 376H63L78 452H183L222 614H310L271 452H399L438 614H525L486 452H581L565 376H468L436 238H538L523 162H418L379 0Z" glyph-name="numbersign" horiz-adv-x="601" unicode="#" /><glyph d="M453 222Q453 172 438 129Q423 86 394.5 55Q366 24 327 7Q288 -10 242 -10Q196 -10 157 7Q118 24 89.5 55Q61 86 46 129Q31 172 31 222Q31 272 46 315Q61 358 89.5 389Q118 420 157 437Q196 454 242 454Q288 454 327 437Q366 420 394.5 389Q423 358 438 315Q453 272 453 222ZM353 222Q353 254 346 280.5Q339 307 324.5 326.5Q310 346 289 357Q268 368 242 368Q216 368 195 357Q174 346 159.5 326.5Q145 307 138 280.5Q131 254 131 222Q131 190 138 163.5Q145 137 159.5 117.5Q174 98 195 87Q216 76 242 76Q268 76 289 87Q310 98 324.5 117.5Q339 137 346 163.5Q353 190 353 222Z" glyph-name="o" horiz-adv-x="484" unicode="o" /><glyph d="M281 513H192L269 650H372ZM453 222Q453 172 438 129Q423 86 394.5 55Q366 24 327 7Q288 -10 242 -10Q196 -10 157 7Q118 24 89.5 55Q61 86 46 129Q31 172 31 222Q31 272 46 315Q61 358 89.5 389Q118 420 157 437Q196 454 242 454Q288 454 327 437Q366 420 394.5 389Q423 358 438 315Q453 272 453 222ZM353 222Q353 254 346 280.5Q339 307 324.5 326.5Q310 346 289 357Q268 368 242 368Q216 368 195 357Q174 346 159.5 326.5Q145 307 138 280.5Q131 254 131 222Q131 190 138 163.5Q145 137 159.5 117.5Q174 98 195 87Q216 76 242 76Q268 76 289 87Q310 98 324.5 117.5Q339 137 346 163.5Q353 190 353 222Z" glyph-name="oacute" horiz-adv-x="484" unicode="&#243;" /><glyph d="M453 222Q453 172 438 129Q423 86 394.5 55Q366 24 327 7Q288 -10 242 -10Q196 -10 157 7Q118 24 89.5 55Q61 86 46 129Q31 172 31 222Q31 272 46 315Q61 358 89.5 389Q118 420 157 437Q196 454 242 454Q288 454 327 437Q366 420 394.5 389Q423 358 438 315Q453 272 453 222ZM353 222Q353 254 346 280.5Q339 307 324.5 326.5Q310 346 289 357Q268 368 242 368Q216 368 195 357Q174 346 159.5 326.5Q145 307 138 280.5Q131 254 131 222Q131 190 138 163.5Q145 137 159.5 117.5Q174 98 195 87Q216 76 242 76Q268 76 289 87Q310 98 324.5 117.5Q339 137 346 163.5Q353 190 353 222ZM242 495Q214 495 191 504Q168 513 151.5 530Q135 547 126 572.5Q117 598 117 630H190Q190 616 193 604Q196 592 202.5 583Q209 574 219 569.5Q229 565 242 565Q255 565 265 569.5Q275 574 281.5 583Q288 592 291 604Q294 616 294 630H367Q367 598 358 572.5Q349 547 332.5 530Q316 513 293 504Q270 495 242 495Z" glyph-name="obreve" horiz-adv-x="484" unicode="&#335;" /><glyph d="M288 646 382 506H298L242 585L186 506H102L196 646ZM453 222Q453 172 438 129Q423 86 394.5 55Q366 24 327 7Q288 -10 242 -10Q196 -10 157 7Q118 24 89.5 55Q61 86 46 129Q31 172 31 222Q31 272 46 315Q61 358 89.5 389Q118 420 157 437Q196 454 242 454Q288 454 327 437Q366 420 394.5 389Q423 358 438 315Q453 272 453 222ZM353 222Q353 254 346 280.5Q339 307 324.5 326.5Q310 346 289 357Q268 368 242 368Q216 368 195 357Q174 346 159.5 326.5Q145 307 138 280.5Q131 254 131 222Q131 190 138 163.5Q145 137 159.5 117.5Q174 98 195 87Q216 76 242 76Q268 76 289 87Q310 98 324.5 117.5Q339 137 346 163.5Q353 190 353 222Z" glyph-name="ocircumflex" horiz-adv-x="484" unicode="&#244;" /><glyph d="M261 572Q261 584 265.5 595Q270 606 278 614Q286 622 296.5 626.5Q307 631 319 631Q331 631 341.5 626.5Q352 622 360.5 614Q369 606 373.5 595Q378 584 378 572Q378 560 373.5 549.5Q369 539 360.5 531Q352 523 341.5 518.5Q331 514 319 514Q307 514 296.5 518.5Q286 523 278 531Q270 539 265.5 549.5Q261 560 261 572ZM107 572Q107 585 111.5 595.5Q116 606 124 614Q132 622 143 626.5Q154 631 166 631Q178 631 188.5 626.5Q199 622 207 614Q215 606 219.5 595Q224 584 224 572Q224 560 219.5 549.5Q215 539 207 531Q199 523 188.5 518.5Q178 514 166 514Q154 514 143 518.5Q132 523 124 531Q116 539 111.5 549.5Q107 560 107 572ZM453 222Q453 172 438 129Q423 86 394.5 55Q366 24 327 7Q288 -10 242 -10Q196 -10 157 7Q118 24 89.5 55Q61 86 46 129Q31 172 31 222Q31 272 46 315Q61 358 89.5 389Q118 420 157 437Q196 454 242 454Q288 454 327 437Q366 420 394.5 389Q423 358 438 315Q453 272 453 222ZM353 222Q353 254 346 280.5Q339 307 324.5 326.5Q310 346 289 357Q268 368 242 368Q216 368 195 357Q174 346 159.5 326.5Q145 307 138 280.5Q131 254 131 222Q131 190 138 163.5Q145 137 159.5 117.5Q174 98 195 87Q216 76 242 76Q268 76 289 87Q310 98 324.5 117.5Q339 137 346 163.5Q353 190 353 222Z" glyph-name="odieresis" horiz-adv-x="484" unicode="&#246;" /><glyph d="M554 370Q537 370 521 364.5Q505 359 491.5 348Q478 337 467.5 319Q457 301 452 276H645Q644 296 637.5 313.5Q631 331 619.5 343.5Q608 356 591.5 363Q575 370 554 370ZM353 222Q353 254 346 280.5Q339 307 324.5 326.5Q310 346 289 357Q268 368 242 368Q216 368 195 357Q174 346 159.5 326.5Q145 307 138 280.5Q131 254 131 222Q131 190 138 163.5Q145 137 159.5 117.5Q174 98 195 87Q216 76 242 76Q268 76 289 87Q310 98 324.5 117.5Q339 137 346 163.5Q353 190 353 222ZM710 29Q696 19 680 11.5Q664 4 646.5 -1Q629 -6 609.5 -8Q590 -10 569 -10Q543 -10 518.5 -5Q494 0 472.5 9Q451 18 433 31.5Q415 45 401 63Q387 46 369.5 32.5Q352 19 332 9.5Q312 0 289.5 -5Q267 -10 242 -10Q196 -10 157 7Q118 24 89.5 55Q61 86 46 129Q31 172 31 222Q31 272 46 315Q61 358 89.5 389Q118 420 157 437Q196 454 242 454Q266 454 289 449Q312 444 332 435Q352 426 369.5 412.5Q387 399 401 382Q415 399 431.5 412Q448 425 467.5 434.5Q487 444 508.5 449Q530 454 553 454Q598 454 633.5 438.5Q669 423 692.5 394Q716 365 728 325Q740 285 740 236V200H447Q450 168 461 144.5Q472 121 490.5 106Q509 91 532.5 83.5Q556 76 583 76Q602 76 618 78.5Q634 81 649 86Q664 91 679 98.5Q694 106 710 117Z" glyph-name="oe" horiz-adv-x="773" unicode="&#339;" /><glyph d="M235 5H306Q270 -53 270.5 -51.5Q271 -50 265 -60.5Q259 -71 256.5 -79.5Q254 -88 254 -97Q254 -102 255.5 -106.5Q257 -111 259.5 -114Q262 -117 266 -118.5Q270 -120 275 -120Q279 -120 283.5 -119Q288 -118 292 -116Q296 -114 300.5 -111.5Q305 -109 312 -104V-168Q306 -173 299 -177Q292 -181 285 -184Q278 -187 270 -188.5Q262 -190 253 -190Q234 -190 219.5 -184.5Q205 -179 196 -169.5Q187 -160 182.5 -147Q178 -134 178 -118Q178 -103 182.5 -88Q187 -73 194.5 -59Q202 -45 235 5Z" glyph-name="ogonek" horiz-adv-x="500" unicode="&#731;" /><glyph d="M453 222Q453 172 438 129Q423 86 394.5 55Q366 24 327 7Q288 -10 242 -10Q196 -10 157 7Q118 24 89.5 55Q61 86 46 129Q31 172 31 222Q31 272 46 315Q61 358 89.5 389Q118 420 157 437Q196 454 242 454Q288 454 327 437Q366 420 394.5 389Q423 358 438 315Q453 272 453 222ZM353 222Q353 254 346 280.5Q339 307 324.5 326.5Q310 346 289 357Q268 368 242 368Q216 368 195 357Q174 346 159.5 326.5Q145 307 138 280.5Q131 254 131 222Q131 190 138 163.5Q145 137 159.5 117.5Q174 98 195 87Q216 76 242 76Q268 76 289 87Q310 98 324.5 117.5Q339 137 346 163.5Q353 190 353 222ZM292 513H203L112 650H215Z" glyph-name="ograve" horiz-adv-x="484" unicode="&#242;" /><glyph d="M341 513H261L321 650H403ZM213 513H133L193 650H275ZM453 222Q453 172 438 129Q423 86 394.5 55Q366 24 327 7Q288 -10 242 -10Q196 -10 157 7Q118 24 89.5 55Q61 86 46 129Q31 172 31 222Q31 272 46 315Q61 358 89.5 389Q118 420 157 437Q196 454 242 454Q288 454 327 437Q366 420 394.5 389Q423 358 438 315Q453 272 453 222ZM353 222Q353 254 346 280.5Q339 307 324.5 326.5Q310 346 289 357Q268 368 242 368Q216 368 195 357Q174 346 159.5 326.5Q145 307 138 280.5Q131 254 131 222Q131 190 138 163.5Q145 137 159.5 117.5Q174 98 195 87Q216 76 242 76Q268 76 289 87Q310 98 324.5 117.5Q339 137 346 163.5Q353 190 353 222Z" glyph-name="ohungarumlaut" horiz-adv-x="484" unicode="&#337;" /><glyph d="M130 524V603H355V524ZM453 222Q453 172 438 129Q423 86 394.5 55Q366 24 327 7Q288 -10 242 -10Q196 -10 157 7Q118 24 89.5 55Q61 86 46 129Q31 172 31 222Q31 272 46 315Q61 358 89.5 389Q118 420 157 437Q196 454 242 454Q288 454 327 437Q366 420 394.5 389Q423 358 438 315Q453 272 453 222ZM353 222Q353 254 346 280.5Q339 307 324.5 326.5Q310 346 289 357Q268 368 242 368Q216 368 195 357Q174 346 159.5 326.5Q145 307 138 280.5Q131 254 131 222Q131 190 138 163.5Q145 137 159.5 117.5Q174 98 195 87Q216 76 242 76Q268 76 289 87Q310 98 324.5 117.5Q339 137 346 163.5Q353 190 353 222Z" glyph-name="omacron" horiz-adv-x="484" unicode="&#333;" /><glyph d="M264 614V0H163V489L19 416V521L203 614Z" glyph-name="one" horiz-adv-x="329" unicode="1" /><glyph d="M67 0V91H230V489L67 406V511L270 614H331V91H478V0Z" glyph-name="one.lt" horiz-adv-x="520" /><glyph d="M205 614V279H124V520L35 476V558L150 614ZM596 614 157 0H70L509 614ZM556 71H659V0H418V2L515 130Q537 159 542 166Q547 173 554 184Q561 195 564.5 205.5Q568 216 568 227Q568 236 565 243Q562 250 556 255.5Q550 261 541.5 264Q533 267 522 267Q510 267 497 263Q484 259 471.5 252Q459 245 448 237Q437 229 428 221V301Q438 309 450 316.5Q462 324 476.5 329Q491 334 507.5 337Q524 340 541 340Q565 340 585 333Q605 326 619 313Q633 300 640.5 281.5Q648 263 648 241Q648 226 643.5 210.5Q639 195 631 180.5Q623 166 613.5 152Q604 138 590 118Z" glyph-name="onehalf" horiz-adv-x="709" unicode="&#189;" /><glyph d="M205 614V279H124V520L35 476V558L150 614ZM596 614 157 0H70L509 614ZM566 335 473 132H530V192H601V132H641V65H601V0H530V65H362V67L484 335Z" glyph-name="onequarter" horiz-adv-x="689" unicode="&#188;" /><glyph d="M190 614V279H109V520L20 476V558L135 614Z" glyph-name="onesuperior" horiz-adv-x="234" unicode="&#185;" /><glyph d="M190 403V423Q187 428 182.5 432.5Q178 437 171.5 440Q165 443 157 445Q149 447 141 447Q132 447 123.5 445Q115 443 108 438.5Q101 434 97 427.5Q93 421 93 413Q93 404 97 397.5Q101 391 108 387Q115 383 123.5 381Q132 379 141 379Q149 379 157 380.5Q165 382 171.5 385.5Q178 389 182.5 393Q187 397 190 403ZM190 490V504Q190 514 185.5 522.5Q181 531 172.5 537Q164 543 152 546Q140 549 124 549Q113 549 102.5 547.5Q92 546 82 543Q72 540 62.5 535.5Q53 531 44 525V601Q52 606 63.5 610.5Q75 615 88 618Q101 621 115.5 623Q130 625 145 625Q176 625 200.5 617.5Q225 610 241.5 595Q258 580 266.5 558.5Q275 537 275 509V321H190V337Q186 333 179 329.5Q172 326 162.5 323Q153 320 142 318Q131 316 119 316Q97 316 77 322.5Q57 329 42 341Q27 353 18.5 371Q10 389 10 412Q10 433 18.5 450.5Q27 468 42.5 480.5Q58 493 79 500Q100 507 124 507Q133 507 143 505.5Q153 504 162 501.5Q171 499 178 496Q185 493 190 490Z" glyph-name="ordfeminine" horiz-adv-x="299" unicode="&#170;" /><glyph d="M305 470Q305 436 294.5 407Q284 378 264 357.5Q244 337 217 325.5Q190 314 157 314Q125 314 97.5 325.5Q70 337 50.5 357.5Q31 378 20 407Q9 436 9 470Q9 504 20 532.5Q31 561 50.5 581.5Q70 602 97.5 613.5Q125 625 157 625Q190 625 217 613.5Q244 602 264 581.5Q284 561 294.5 532.5Q305 504 305 470ZM216 470Q216 487 212 502Q208 517 200.5 527.5Q193 538 182 544Q171 550 157 550Q143 550 132.5 544Q122 538 114.5 527.5Q107 517 103 502Q99 487 99 470Q99 452 103 437.5Q107 423 114.5 412.5Q122 402 132.5 396Q143 390 157 390Q171 390 182 396Q193 402 200.5 412.5Q208 423 212 437.5Q216 452 216 470Z" glyph-name="ordmasculine" horiz-adv-x="315" unicode="&#186;" /><glyph d="M134 222Q134 211 135 201Q136 191 137.5 181Q139 171 142 162Q145 153 148 145L306 351Q300 355 293.5 358Q287 361 279.5 363.5Q272 366 264 367Q256 368 247 368Q221 368 199.5 357Q178 346 163.5 326.5Q149 307 141.5 280.5Q134 254 134 222ZM247 76Q273 76 294.5 87Q316 98 330.5 117.5Q345 137 352.5 163.5Q360 190 360 222Q360 233 359 243.5Q358 254 356.5 263.5Q355 273 352 282.5Q349 292 346 300L187 94Q193 90 200 86.5Q207 83 214.5 80.5Q222 78 230 77Q238 76 247 76ZM247 -10Q231 -10 215.5 -8Q200 -6 185.5 -1.5Q171 3 157.5 9Q144 15 132 23L88 -34L37 2L86 65Q74 80 64.5 97.5Q55 115 49 135Q43 155 39.5 177Q36 199 36 222Q36 272 51 315Q66 358 94.5 389Q123 420 162 437Q201 454 247 454Q263 454 278.5 452Q294 450 308 445.5Q322 441 335.5 435.5Q349 430 361 422L402 475L453 439L407 380Q419 365 428.5 347Q438 329 444.5 309Q451 289 454.5 267.5Q458 246 458 222Q458 172 443 129Q428 86 399.5 55Q371 24 332 7Q293 -10 247 -10Z" glyph-name="oslash" horiz-adv-x="494" unicode="&#248;" /><glyph d="M134 222Q134 211 135 201Q136 191 137.5 181Q139 171 142 162Q145 153 148 145L306 351Q300 355 293.5 358Q287 361 279.5 363.5Q272 366 264 367Q256 368 247 368Q221 368 199.5 357Q178 346 163.5 326.5Q149 307 141.5 280.5Q134 254 134 222ZM247 76Q273 76 294.5 87Q316 98 330.5 117.5Q345 137 352.5 163.5Q360 190 360 222Q360 233 359 243.5Q358 254 356.5 263.5Q355 273 352 282.5Q349 292 346 300L187 94Q193 90 200 86.5Q207 83 214.5 80.5Q222 78 230 77Q238 76 247 76ZM247 -10Q231 -10 215.5 -8Q200 -6 185.5 -1.5Q171 3 157.5 9Q144 15 132 23L88 -34L37 2L86 65Q74 80 64.5 97.5Q55 115 49 135Q43 155 39.5 177Q36 199 36 222Q36 272 51 315Q66 358 94.5 389Q123 420 162 437Q201 454 247 454Q263 454 278.5 452Q294 450 308 445.5Q322 441 335.5 435.5Q349 430 361 422L402 475L453 439L407 380Q419 365 428.5 347Q438 329 444.5 309Q451 289 454.5 267.5Q458 246 458 222Q458 172 443 129Q428 86 399.5 55Q371 24 332 7Q293 -10 247 -10ZM285 513H196L273 650H376Z" glyph-name="oslashacute" horiz-adv-x="494" unicode="&#511;" /><glyph d="M453 222Q453 172 438 129Q423 86 394.5 55Q366 24 327 7Q288 -10 242 -10Q196 -10 157 7Q118 24 89.5 55Q61 86 46 129Q31 172 31 222Q31 272 46 315Q61 358 89.5 389Q118 420 157 437Q196 454 242 454Q288 454 327 437Q366 420 394.5 389Q423 358 438 315Q453 272 453 222ZM353 222Q353 254 346 280.5Q339 307 324.5 326.5Q310 346 289 357Q268 368 242 368Q216 368 195 357Q174 346 159.5 326.5Q145 307 138 280.5Q131 254 131 222Q131 190 138 163.5Q145 137 159.5 117.5Q174 98 195 87Q216 76 242 76Q268 76 289 87Q310 98 324.5 117.5Q339 137 346 163.5Q353 190 353 222ZM320 641H380Q380 612 374.5 587.5Q369 563 359 546Q349 529 333 519.5Q317 510 297 510Q283 510 270 517Q257 524 240 537.5Q223 551 214.5 556.5Q206 562 196 562Q188 562 182 558.5Q176 555 172.5 549Q169 543 166.5 534Q164 525 164 513H104Q104 542 109.5 566.5Q115 591 125 608Q135 625 151 634.5Q167 644 187 644Q202 644 215 637Q228 630 245 616.5Q262 603 270.5 597.5Q279 592 288 592Q295 592 301 595.5Q307 599 311 605Q315 611 317.5 620Q320 629 320 641Z" glyph-name="otilde" horiz-adv-x="484" unicode="&#245;" /><glyph d="M162 306V138Q168 125 178 114Q188 103 201 95Q214 87 228.5 83Q243 79 258 79Q286 79 309 89.5Q332 100 348 119.5Q364 139 372.5 165Q381 191 381 222Q381 253 372.5 279Q364 305 348 324.5Q332 344 309 354.5Q286 365 258 365Q243 365 228.5 361Q214 357 201 349Q188 341 178 330Q168 319 162 306ZM162 38V-170H62V444H162V406Q170 416 181.5 424.5Q193 433 208 439.5Q223 446 240 450Q257 454 275 454Q322 454 360.5 435.5Q399 417 426 385Q453 353 467 311Q481 269 481 222Q481 175 467 133Q453 91 426 59Q399 27 360.5 8.5Q322 -10 275 -10Q257 -10 240 -6Q223 -2 208 4.5Q193 11 181.5 19.5Q170 28 162 38Z" glyph-name="p" horiz-adv-x="512" unicode="p" /><glyph d="M227 -90V267Q187 267 149 277.5Q111 288 80 309.5Q49 331 30.5 364Q12 397 12 441Q12 485 30.5 518Q49 551 80 572.5Q111 594 149 604Q187 614 227 614H308V-90ZM379 -90V614H460V-90Z" glyph-name="paragraph" horiz-adv-x="528" unicode="&#182;" /><glyph d="M30 283Q30 351 48.5 411Q67 471 102.5 519Q138 567 187.5 600.5Q237 634 298 650V542Q262 533 231 511Q200 489 177 455Q154 421 141.5 377.5Q129 334 129 283Q129 232 141.5 188.5Q154 145 177 111Q200 77 231 55Q262 33 298 24V-84Q237 -68 187.5 -34.5Q138 -1 102.5 47Q67 95 48.5 155Q30 215 30 283Z" glyph-name="parenleft" horiz-adv-x="318" unicode="(" /><glyph d="M30 303Q30 371 48.5 431Q67 491 102.5 539Q138 587 187.5 620.5Q237 654 298 670V562Q262 553 231 531Q200 509 177 475Q154 441 141.5 397.5Q129 354 129 303Q129 252 141.5 208.5Q154 165 177 131Q200 97 231 75Q262 53 298 44V-64Q237 -48 187.5 -14.5Q138 19 102.5 67Q67 115 48.5 175Q30 235 30 303Z" glyph-name="parenleft.cap" horiz-adv-x="318" /><glyph d="M20 650Q81 634 130.5 600.5Q180 567 215.5 519Q251 471 269.5 411Q288 351 288 283Q288 215 269.5 155Q251 95 215.5 47Q180 -1 130.5 -34.5Q81 -68 20 -84V24Q56 33 87 55Q118 77 141 111Q164 145 176.5 188.5Q189 232 189 283Q189 334 176.5 377.5Q164 421 141 455Q118 489 87 511Q56 533 20 542Z" glyph-name="parenright" horiz-adv-x="318" unicode=")" /><glyph d="M20 670Q81 654 130.5 620.5Q180 587 215.5 539Q251 491 269.5 431Q288 371 288 303Q288 235 269.5 175Q251 115 215.5 67Q180 19 130.5 -14.5Q81 -48 20 -64V44Q56 53 87 75Q118 97 141 131Q164 165 176.5 208.5Q189 252 189 303Q189 354 176.5 397.5Q164 441 141 475Q118 509 87 531Q56 553 20 562Z" glyph-name="parenright.cap" horiz-adv-x="318" /><glyph d="M307 485Q307 457 296.5 431.5Q286 406 266.5 387Q247 368 221.5 357.5Q196 347 168 347Q140 347 114.5 357.5Q89 368 70 387Q51 406 40.5 431.5Q30 457 30 485Q30 513 40.5 538.5Q51 564 70 583.5Q89 603 114.5 613.5Q140 624 168 624Q196 624 221.5 613.5Q247 603 266.5 583.5Q286 564 296.5 538.5Q307 513 307 485ZM107 0 476 614H555L186 0ZM105 485Q105 472 110 460.5Q115 449 123.5 440.5Q132 432 143.5 427Q155 422 168 422Q181 422 192.5 427Q204 432 213 440.5Q222 449 227 460.5Q232 472 232 485Q232 498 227 509.5Q222 521 213 530Q204 539 192.5 544Q181 549 168 549Q155 549 143.5 544Q132 539 123.5 530Q115 521 110 509.5Q105 498 105 485ZM632 129Q632 101 621.5 75.5Q611 50 592 30.5Q573 11 547.5 0.5Q522 -10 494 -10Q466 -10 440.5 0.5Q415 11 395.5 30.5Q376 50 365.5 75.5Q355 101 355 129Q355 157 365.5 182.5Q376 208 395.5 227Q415 246 440.5 256.5Q466 267 494 267Q522 267 547.5 256.5Q573 246 592 227Q611 208 621.5 182.5Q632 157 632 129ZM557 129Q557 142 552 153.5Q547 165 538.5 173.5Q530 182 518.5 187Q507 192 494 192Q481 192 469.5 187Q458 182 449 173.5Q440 165 435 153.5Q430 142 430 129Q430 116 435 104.5Q440 93 449 84Q458 75 469.5 70Q481 65 494 65Q507 65 518.5 70Q530 75 538.5 84Q547 93 552 104.5Q557 116 557 129Z" glyph-name="percent" horiz-adv-x="662" unicode="%" /><glyph d="M20 502Q20 527 29.5 549.5Q39 572 55.5 588.5Q72 605 94 614.5Q116 624 141 624Q166 624 188.5 614.5Q211 605 227.5 588.5Q244 572 253.5 549.5Q263 527 263 502Q263 477 253.5 455Q244 433 227.5 416.5Q211 400 188.5 390.5Q166 381 141 381Q116 381 94 390.5Q72 400 55.5 416.5Q39 433 29.5 455Q20 477 20 502ZM36 0 405 614H484L115 0ZM86 502Q86 491 90 480.5Q94 470 101.5 462.5Q109 455 119.5 451Q130 447 141 447Q152 447 162.5 451Q173 455 180.5 462.5Q188 470 192.5 480.5Q197 491 197 502Q197 513 192.5 523.5Q188 534 180.5 541.5Q173 549 162.5 553.5Q152 558 141 558Q130 558 119.5 553.5Q109 549 101.5 541.5Q94 534 90 523.5Q86 513 86 502ZM500 112Q500 87 490.5 64.5Q481 42 464.5 25.5Q448 9 426 -0.5Q404 -10 379 -10Q354 -10 331.5 -0.5Q309 9 292.5 25.5Q276 42 266.5 64.5Q257 87 257 112Q257 137 266.5 159Q276 181 292.5 197.5Q309 214 331.5 223.5Q354 233 379 233Q404 233 426 223.5Q448 214 464.5 197.5Q481 181 490.5 159Q500 137 500 112ZM434 112Q434 123 430 133.5Q426 144 418.5 151.5Q411 159 400.5 163Q390 167 379 167Q368 167 357.5 163Q347 159 339.5 151.5Q332 144 327.5 133.5Q323 123 323 112Q323 101 327.5 90.5Q332 80 339.5 72.5Q347 65 357.5 60.5Q368 56 379 56Q390 56 400.5 60.5Q411 65 418.5 72.5Q426 80 430 90.5Q434 101 434 112Z" glyph-name="percent.lt" horiz-adv-x="520" /><glyph d="M32 62Q32 76 37 89Q42 102 51.5 111.5Q61 121 73.5 126Q86 131 100 131Q114 131 126.5 126Q139 121 148.5 111.5Q158 102 163 89Q168 76 168 62Q168 48 163 35Q158 22 148.5 12.5Q139 3 126.5 -2Q114 -7 100 -7Q86 -7 73.5 -2Q61 3 51.5 12.5Q42 22 37 35Q32 48 32 62Z" glyph-name="period" horiz-adv-x="200" unicode="." /><glyph d="M62 62Q62 76 67 89Q72 102 81.5 111.5Q91 121 103.5 126Q116 131 130 131Q144 131 156.5 126Q169 121 178.5 111.5Q188 102 193 89Q198 76 198 62Q198 48 193 35Q188 22 178.5 12.5Q169 3 156.5 -2Q144 -7 130 -7Q116 -7 103.5 -2Q91 3 81.5 12.5Q72 22 67 35Q62 48 62 62Z" glyph-name="period.tab" horiz-adv-x="260" /><glyph d="M32 263Q32 277 37 290Q42 303 51.5 312.5Q61 322 73.5 327Q86 332 100 332Q114 332 126.5 327Q139 322 148.5 312.5Q158 303 163 290Q168 277 168 263Q168 249 163 236Q158 223 148.5 213.5Q139 204 126.5 199Q114 194 100 194Q86 194 73.5 199Q61 204 51.5 213.5Q42 223 37 236Q32 249 32 263Z" glyph-name="periodcentered" horiz-adv-x="200" unicode="&#183;" /><glyph d="M32 303Q32 317 37 330Q42 343 51.5 352.5Q61 362 73.5 367Q86 372 100 372Q114 372 126.5 367Q139 362 148.5 352.5Q158 343 163 330Q168 317 168 303Q168 289 163 276Q158 263 148.5 253.5Q139 244 126.5 239Q114 234 100 234Q86 234 73.5 239Q61 244 51.5 253.5Q42 263 37 276Q32 289 32 303Z" glyph-name="periodcentered.cap" horiz-adv-x="200" /><glyph d="M168 347Q140 347 114.5 357.5Q89 368 70 387Q51 406 40.5 431.5Q30 457 30 485Q30 513 40.5 538.5Q51 564 70 583.5Q89 603 114.5 613.5Q140 624 168 624Q196 624 221.5 613.5Q247 603 266.5 583.5Q286 564 296.5 538.5Q307 513 307 485Q307 457 296.5 431.5Q286 406 266.5 387Q247 368 221.5 357.5Q196 347 168 347ZM107 0 476 614H555L186 0ZM168 549Q155 549 143.5 544Q132 539 123.5 530Q115 521 110 509.5Q105 498 105 485Q105 472 110 460.5Q115 449 123.5 440.5Q132 432 143.5 427Q155 422 168 422Q181 422 192.5 427Q204 432 213 440.5Q222 449 227 460.5Q232 472 232 485Q232 498 227 509.5Q222 521 213 530Q204 539 192.5 544Q181 549 168 549ZM942 129Q942 101 931.5 75.5Q921 50 902 30.5Q883 11 857.5 0.5Q832 -10 804 -10Q776 -10 750.5 0.5Q725 11 705.5 30.5Q686 50 675.5 75.5Q665 101 665 129Q665 157 675.5 182.5Q686 208 705.5 227Q725 246 750.5 256.5Q776 267 804 267Q832 267 857.5 256.5Q883 246 902 227Q921 208 931.5 182.5Q942 157 942 129ZM632 129Q632 101 621.5 75.5Q611 50 592 30.5Q573 11 547.5 0.5Q522 -10 494 -10Q466 -10 440.5 0.5Q415 11 395.5 30.5Q376 50 365.5 75.5Q355 101 355 129Q355 157 365.5 182.5Q376 208 395.5 227Q415 246 440.5 256.5Q466 267 494 267Q522 267 547.5 256.5Q573 246 592 227Q611 208 621.5 182.5Q632 157 632 129ZM867 129Q867 142 862 153.5Q857 165 848.5 173.5Q840 182 828.5 187Q817 192 804 192Q791 192 779.5 187Q768 182 759 173.5Q750 165 745 153.5Q740 142 740 129Q740 116 745 104.5Q750 93 759 84Q768 75 779.5 70Q791 65 804 65Q817 65 828.5 70Q840 75 848.5 84Q857 93 862 104.5Q867 116 867 129ZM557 129Q557 142 552 153.5Q547 165 538.5 173.5Q530 182 518.5 187Q507 192 494 192Q481 192 469.5 187Q458 182 449 173.5Q440 165 435 153.5Q430 142 430 129Q430 116 435 104.5Q440 93 449 84Q458 75 469.5 70Q481 65 494 65Q507 65 518.5 70Q530 75 538.5 84Q547 93 552 104.5Q557 116 557 129Z" glyph-name="perthousand" horiz-adv-x="972" unicode="&#8240;" /><glyph d="M26 502Q26 527 35.5 549.5Q45 572 61.5 588.5Q78 605 100 614.5Q122 624 147 624Q172 624 194.5 614.5Q217 605 233.5 588.5Q250 572 259.5 549.5Q269 527 269 502Q269 477 259.5 455Q250 433 233.5 416.5Q217 400 194.5 390.5Q172 381 147 381Q122 381 100 390.5Q78 400 61.5 416.5Q45 433 35.5 455Q26 477 26 502ZM42 0 411 614H490L121 0ZM92 502Q92 491 96 480.5Q100 470 107.5 462.5Q115 455 125.5 451Q136 447 147 447Q158 447 168.5 451Q179 455 186.5 462.5Q194 470 198.5 480.5Q203 491 203 502Q203 513 198.5 523.5Q194 534 186.5 541.5Q179 549 168.5 553.5Q158 558 147 558Q136 558 125.5 553.5Q115 549 107.5 541.5Q100 534 96 523.5Q92 513 92 502ZM773 112Q773 87 763.5 64.5Q754 42 737.5 25.5Q721 9 699 -0.5Q677 -10 652 -10Q627 -10 604.5 -0.5Q582 9 565.5 25.5Q549 42 539.5 64.5Q530 87 530 112Q530 137 539.5 159Q549 181 565.5 197.5Q582 214 604.5 223.5Q627 233 652 233Q677 233 699 223.5Q721 214 737.5 197.5Q754 181 763.5 159Q773 137 773 112ZM506 112Q506 87 496.5 64.5Q487 42 470.5 25.5Q454 9 432 -0.5Q410 -10 385 -10Q360 -10 337.5 -0.5Q315 9 298.5 25.5Q282 42 272.5 64.5Q263 87 263 112Q263 137 272.5 159Q282 181 298.5 197.5Q315 214 337.5 223.5Q360 233 385 233Q410 233 432 223.5Q454 214 470.5 197.5Q487 181 496.5 159Q506 137 506 112ZM707 112Q707 123 703 133.5Q699 144 691.5 151.5Q684 159 673.5 163Q663 167 652 167Q641 167 630.5 163Q620 159 612.5 151.5Q605 144 600.5 133.5Q596 123 596 112Q596 101 600.5 90.5Q605 80 612.5 72.5Q620 65 630.5 60.5Q641 56 652 56Q663 56 673.5 60.5Q684 65 691.5 72.5Q699 80 703 90.5Q707 101 707 112ZM440 112Q440 123 436 133.5Q432 144 424.5 151.5Q417 159 406.5 163Q396 167 385 167Q374 167 363.5 163Q353 159 345.5 151.5Q338 144 333.5 133.5Q329 123 329 112Q329 101 333.5 90.5Q338 80 345.5 72.5Q353 65 363.5 60.5Q374 56 385 56Q396 56 406.5 60.5Q417 65 424.5 72.5Q432 80 436 90.5Q440 101 440 112Z" glyph-name="perthousand.lt" horiz-adv-x="800" /><glyph d="M490 259H322V92H242V259H74V339H242V507H322V339H490Z" glyph-name="plus" horiz-adv-x="564" unicode="+" /><glyph d="M468 259H300V92H220V259H52V339H220V507H300V339H468Z" glyph-name="plus.lt" horiz-adv-x="520" /><glyph d="M489 328H325V196H246V328H82V407H246V539H325V407H489ZM82 73V152H489V73Z" glyph-name="plusminus" horiz-adv-x="570" unicode="&#177;" /><glyph d="M463 328H299V196H220V328H56V407H220V539H299V407H463ZM56 73V152H463V73Z" glyph-name="plusminus.lt" horiz-adv-x="520" /><glyph d="M669 307Q669 239 644.5 181Q620 123 576 80Q532 37 474.5 13.5Q417 -10 352 -10Q287 -10 229.5 13.5Q172 37 128 80Q84 123 59.5 181Q35 239 35 307Q35 375 59.5 433Q84 491 128 534Q172 577 229.5 600.5Q287 624 352 624Q417 624 474.5 600.5Q532 577 576 534Q620 491 644.5 433Q669 375 669 307ZM622 307Q622 365 601 414.5Q580 464 542.5 501Q505 538 456 558Q407 578 352 578Q297 578 248 558Q199 538 161.5 501Q124 464 103 414.5Q82 365 82 307Q82 249 103 199.5Q124 150 161.5 113Q199 76 248 56Q297 36 352 36Q407 36 456 56Q505 76 542.5 113Q580 150 601 199.5Q622 249 622 307ZM389 239H317V124H227V493H389Q419 493 443.5 484.5Q468 476 486 460Q504 444 513.5 420Q523 396 523 366Q523 336 513.5 312Q504 288 486 272Q468 256 443.5 247.5Q419 239 389 239ZM383 318Q396 318 405.5 321.5Q415 325 421.5 331.5Q428 338 431 346.5Q434 355 434 366Q434 377 431 385.5Q428 394 421.5 400.5Q415 407 405.5 410.5Q396 414 383 414H317V318Z" glyph-name="published" horiz-adv-x="704" /><glyph d="M350 -170V38Q342 28 330.5 19.5Q319 11 304 4.5Q289 -2 272 -6Q255 -10 237 -10Q190 -10 151.5 8.5Q113 27 86 59Q59 91 45 133Q31 175 31 222Q31 269 45 311Q59 353 86 385Q113 417 151.5 435.5Q190 454 237 454Q255 454 272 450Q289 446 304 439.5Q319 433 330.5 424.5Q342 416 350 406V444H450V-170ZM350 138V306Q344 319 334 330Q324 341 311 349Q298 357 283.5 361Q269 365 254 365Q226 365 203 354.5Q180 344 164 324.5Q148 305 139.5 279Q131 253 131 222Q131 191 139.5 165Q148 139 164 119.5Q180 100 203 89.5Q226 79 254 79Q269 79 283.5 83Q298 87 311 95Q324 103 334 114Q344 125 350 138Z" glyph-name="q" horiz-adv-x="512" unicode="q" /><glyph d="M213 322Q218 328 237 347.5Q256 367 267 381Q278 395 285 411Q292 427 292 446Q292 466 286 481Q280 496 268 506.5Q256 517 238.5 522.5Q221 528 198 528Q171 528 146 521Q121 514 98.5 502Q76 490 56.5 475Q37 460 20 443V549Q36 566 56.5 579.5Q77 593 101 603Q125 613 151 618.5Q177 624 204 624Q247 624 282 612Q317 600 342 577Q367 554 380.5 521Q394 488 394 447Q394 420 385 396Q376 372 362 351.5Q348 331 334 316Q320 301 292 272Q279 259 271 248Q263 237 258.5 227.5Q254 218 252 210Q250 202 250 193H152Q153 214 156.5 230Q160 246 167 260Q174 274 185 288.5Q196 303 213 322ZM129 62Q129 76 134 89Q139 102 148.5 111.5Q158 121 170.5 126Q183 131 197 131Q211 131 223.5 126Q236 121 245.5 111.5Q255 102 260 89Q265 76 265 62Q265 48 260 35Q255 22 245.5 12.5Q236 3 223.5 -2Q211 -7 197 -7Q183 -7 170.5 -2Q158 3 148.5 12.5Q139 22 134 35Q129 48 129 62Z" glyph-name="question" horiz-adv-x="414" unicode="?" /><glyph d="M285 456Q285 442 280 429Q275 416 265.5 406.5Q256 397 243.5 392Q231 387 217 387Q203 387 190.5 392Q178 397 168.5 406.5Q159 416 154 429Q149 442 149 456Q149 470 154 483Q159 496 168.5 505.5Q178 515 190.5 520Q203 525 217 525Q231 525 243.5 520Q256 515 265.5 505.5Q275 496 280 483Q285 470 285 456ZM201 196Q196 190 177 170.5Q158 151 147 137Q136 123 129 107Q122 91 122 72Q122 52 128 37Q134 22 146 11.5Q158 1 175.5 -4.5Q193 -10 216 -10Q243 -10 268 -3Q293 4 315.5 16Q338 28 357.5 43Q377 58 394 75V-31Q378 -48 357.5 -61.5Q337 -75 313 -85Q289 -95 263 -100.5Q237 -106 210 -106Q167 -106 132 -94Q97 -82 72 -59Q47 -36 33.5 -3Q20 30 20 71Q20 98 29 122Q38 146 52 166.5Q66 187 80 202Q94 217 122 246Q135 259 143 270Q151 281 155.5 290.5Q160 300 162 308Q164 316 164 325H262Q261 304 257.5 288Q254 272 247 258Q240 244 229 229.5Q218 215 201 196Z" glyph-name="questiondown" horiz-adv-x="414" unicode="&#191;" /><glyph d="M285 552Q285 538 280 525Q275 512 265.5 502.5Q256 493 243.5 488Q231 483 217 483Q203 483 190.5 488Q178 493 168.5 502.5Q159 512 154 525Q149 538 149 552Q149 566 154 579Q159 592 168.5 601.5Q178 611 190.5 616Q203 621 217 621Q231 621 243.5 616Q256 611 265.5 601.5Q275 592 280 579Q285 566 285 552ZM201 292Q196 286 177 266.5Q158 247 147 233Q136 219 129 203Q122 187 122 168Q122 148 128 133Q134 118 146 107.5Q158 97 175.5 91.5Q193 86 216 86Q243 86 268 93Q293 100 315.5 112Q338 124 357.5 139Q377 154 394 171V65Q378 48 357.5 34.5Q337 21 313 11Q289 1 263 -4.5Q237 -10 210 -10Q167 -10 132 2Q97 14 72 37Q47 60 33.5 93Q20 126 20 167Q20 194 29 218Q38 242 52 262.5Q66 283 80 298Q94 313 122 342Q135 355 143 366Q151 377 155.5 386.5Q160 396 162 404Q164 412 164 421H262Q261 400 257.5 384Q254 368 247 354Q240 340 229 325.5Q218 311 201 292Z" glyph-name="questiondown.cap" horiz-adv-x="414" /><glyph d="M180 374V614H265V374ZM40 374V614H125V374Z" glyph-name="quotedbl" horiz-adv-x="305" unicode="&quot;" /><glyph d="M200 -108 269 0Q257 2 246.5 7Q236 12 228.5 20.5Q221 29 217 40Q213 51 213 64Q213 78 218 90.5Q223 103 232.5 112Q242 121 254.5 126Q267 131 281 131Q295 131 307.5 126Q320 121 329.5 111.5Q339 102 344 88Q349 74 349 56Q349 47 347 36.5Q345 26 341 15.5Q337 5 331.5 -5Q326 -15 320 -24L265 -108ZM19 -108 88 0Q76 2 65.5 7Q55 12 47.5 20.5Q40 29 36 40Q32 51 32 64Q32 78 37 90.5Q42 103 51.5 112Q61 121 73.5 126Q86 131 100 131Q114 131 126.5 126Q139 121 148.5 111.5Q158 102 163 88Q168 74 168 56Q168 47 166 36.5Q164 26 160 15.5Q156 5 150.5 -5Q145 -15 139 -24L84 -108Z" glyph-name="quotedblbase" horiz-adv-x="374" unicode="&#8222;" /><glyph d="M174 614 105 506Q117 504 127.5 499Q138 494 145.5 485.5Q153 477 157 466Q161 455 161 442Q161 428 156 415.5Q151 403 141.5 394Q132 385 119.5 380Q107 375 93 375Q79 375 66.5 380Q54 385 44.5 394.5Q35 404 30 418Q25 432 25 450Q25 459 27 469.5Q29 480 33 490.5Q37 501 42.5 511Q48 521 54 530L109 614ZM355 614 286 506Q298 504 308.5 499Q319 494 326.5 485.5Q334 477 338 466Q342 455 342 442Q342 428 337 415.5Q332 403 322.5 394Q313 385 300.5 380Q288 375 274 375Q260 375 247.5 380Q235 385 225.5 394.5Q216 404 211 418Q206 432 206 450Q206 459 208 469.5Q210 480 214 490.5Q218 501 223.5 511Q229 521 235 530L290 614Z" glyph-name="quotedblleft" horiz-adv-x="374" unicode="&#8220;" /><glyph d="M200 385 269 493Q257 495 246.5 500Q236 505 228.5 513.5Q221 522 217 533Q213 544 213 557Q213 571 218 583.5Q223 596 232.5 605Q242 614 254.5 619Q267 624 281 624Q295 624 307.5 619Q320 614 329.5 604.5Q339 595 344 581Q349 567 349 549Q349 540 347 529.5Q345 519 341 508.5Q337 498 331.5 488Q326 478 320 469L265 385ZM19 385 88 493Q76 495 65.5 500Q55 505 47.5 513.5Q40 522 36 533Q32 544 32 557Q32 571 37 583.5Q42 596 51.5 605Q61 614 73.5 619Q86 624 100 624Q114 624 126.5 619Q139 614 148.5 604.5Q158 595 163 581Q168 567 168 549Q168 540 166 529.5Q164 519 160 508.5Q156 498 150.5 488Q145 478 139 469L84 385Z" glyph-name="quotedblright" horiz-adv-x="374" unicode="&#8221;" /><glyph d="M174 614 105 506Q117 504 127.5 499Q138 494 145.5 485.5Q153 477 157 466Q161 455 161 442Q161 428 156 415.5Q151 403 141.5 394Q132 385 119.5 380Q107 375 93 375Q79 375 66.5 380Q54 385 44.5 394.5Q35 404 30 418Q25 432 25 450Q25 459 27 469.5Q29 480 33 490.5Q37 501 42.5 511Q48 521 54 530L109 614Z" glyph-name="quoteleft" horiz-adv-x="193" unicode="&#8216;" /><glyph d="M19 385 88 493Q76 495 65.5 500Q55 505 47.5 513.5Q40 522 36 533Q32 544 32 557Q32 571 37 583.5Q42 596 51.5 605Q61 614 73.5 619Q86 624 100 624Q114 624 126.5 619Q139 614 148.5 604.5Q158 595 163 581Q168 567 168 549Q168 540 166 529.5Q164 519 160 508.5Q156 498 150.5 488Q145 478 139 469L84 385Z" glyph-name="quoteright" horiz-adv-x="193" unicode="&#8217;" /><glyph d="M19 -108 88 0Q76 2 65.5 7Q55 12 47.5 20.5Q40 29 36 40Q32 51 32 64Q32 78 37 90.5Q42 103 51.5 112Q61 121 73.5 126Q86 131 100 131Q114 131 126.5 126Q139 121 148.5 111.5Q158 102 163 88Q168 74 168 56Q168 47 166 36.5Q164 26 160 15.5Q156 5 150.5 -5Q145 -15 139 -24L84 -108Z" glyph-name="quotesinglbase" horiz-adv-x="193" unicode="&#8218;" /><glyph d="M40 374V614H129V374Z" glyph-name="quotesingle" horiz-adv-x="169" unicode="'" /><glyph d="M310 446V343Q305 347 298 349.5Q291 352 283 354Q275 356 267 357Q259 358 251 358Q235 358 221 353.5Q207 349 195 340Q183 331 174.5 318Q166 305 162 287V0H62V444H162V398Q168 410 178.5 420.5Q189 431 202 438.5Q215 446 230 450Q245 454 261 454Q269 454 276.5 453.5Q284 453 291 451.5Q298 450 302.5 449Q307 448 310 446Z" glyph-name="r" horiz-adv-x="340" unicode="r" /><glyph d="M225 513H136L213 650H316ZM310 446V343Q305 347 298 349.5Q291 352 283 354Q275 356 267 357Q259 358 251 358Q235 358 221 353.5Q207 349 195 340Q183 331 174.5 318Q166 305 162 287V0H62V444H162V398Q168 410 178.5 420.5Q189 431 202 438.5Q215 446 230 450Q245 454 261 454Q269 454 276.5 453.5Q284 453 291 451.5Q298 450 302.5 449Q307 448 310 446Z" glyph-name="racute" horiz-adv-x="340" unicode="&#341;" /><glyph d="M326 646 232 506H140L46 646H130L186 567L242 646ZM310 446V343Q305 347 298 349.5Q291 352 283 354Q275 356 267 357Q259 358 251 358Q235 358 221 353.5Q207 349 195 340Q183 331 174.5 318Q166 305 162 287V0H62V444H162V398Q168 410 178.5 420.5Q189 431 202 438.5Q215 446 230 450Q245 454 261 454Q269 454 276.5 453.5Q284 453 291 451.5Q298 450 302.5 449Q307 448 310 446Z" glyph-name="rcaron" horiz-adv-x="340" unicode="&#345;" /><glyph d="M57 -217 99 -157Q88 -156 78.5 -151Q69 -146 62.5 -139Q56 -132 52 -122.5Q48 -113 48 -102Q48 -90 53 -79Q58 -68 66.5 -60Q75 -52 86.5 -48Q98 -44 111 -44Q124 -44 135 -48.5Q146 -53 154.5 -61Q163 -69 167.5 -80.5Q172 -92 172 -106Q172 -116 169.5 -125Q167 -134 163.5 -143Q160 -152 155 -160Q150 -168 144 -177L117 -217ZM310 446V343Q305 347 298 349.5Q291 352 283 354Q275 356 267 357Q259 358 251 358Q235 358 221 353.5Q207 349 195 340Q183 331 174.5 318Q166 305 162 287V0H62V444H162V398Q168 410 178.5 420.5Q189 431 202 438.5Q215 446 230 450Q245 454 261 454Q269 454 276.5 453.5Q284 453 291 451.5Q298 450 302.5 449Q307 448 310 446Z" glyph-name="rcommaaccent" horiz-adv-x="340" unicode="&#343;" /><glyph d="M384 441Q384 402 370 368.5Q356 335 331 310Q306 285 273 271.5Q240 258 203 258Q166 258 133 271.5Q100 285 75 310Q50 335 36 368.5Q22 402 22 441Q22 480 36 513.5Q50 547 75 572Q100 597 133 610.5Q166 624 203 624Q240 624 273 610.5Q306 597 331 572Q356 547 370 513.5Q384 480 384 441ZM351 441Q351 474 339.5 502Q328 530 307.5 550.5Q287 571 260 582Q233 593 203 593Q173 593 146 582Q119 571 98.5 550.5Q78 530 66.5 502Q55 474 55 441Q55 408 66.5 380Q78 352 98.5 331.5Q119 311 146 300Q173 289 203 289Q233 289 260 300Q287 311 307.5 331.5Q328 352 339.5 380Q351 408 351 441ZM214 449Q220 449 225 450.5Q230 452 233.5 455.5Q237 459 238.5 463Q240 467 240 472Q240 477 238.5 481.5Q237 486 233.5 489.5Q230 493 225 494.5Q220 496 214 496H179V449ZM200 409H179V346H129V538H218Q234 538 247 533.5Q260 529 269 520.5Q278 512 283 500Q288 488 288 472Q288 461 285.5 451.5Q283 442 278 434.5Q273 427 266 422Q259 417 250 414L295 346H240Z" glyph-name="registered" horiz-adv-x="407" unicode="&#174;" /><glyph d="M343 580Q343 561 336 544Q329 527 316 515Q303 503 286 496Q269 489 250 489Q231 489 214 496Q197 503 184 515Q171 527 164 544Q157 561 157 580Q157 599 164 616Q171 633 184 645Q197 657 214 664Q231 671 250 671Q269 671 286 664Q303 657 316 645Q329 633 336 616Q343 599 343 580ZM292 580Q292 589 288.5 596.5Q285 604 279.5 610Q274 616 266.5 619Q259 622 250 622Q241 622 233.5 619Q226 616 220.5 610Q215 604 211.5 596.5Q208 589 208 580Q208 571 211.5 563.5Q215 556 220.5 550Q226 544 233.5 541Q241 538 250 538Q259 538 266.5 541Q274 544 279.5 550Q285 556 288.5 563.5Q292 571 292 580Z" glyph-name="ring" horiz-adv-x="500" unicode="&#730;" /><glyph d="M343 740Q343 721 336 704Q329 687 316 675Q303 663 286 656Q269 649 250 649Q231 649 214 656Q197 663 184 675Q171 687 164 704Q157 721 157 740Q157 759 164 776Q171 793 184 805Q197 817 214 824Q231 831 250 831Q269 831 286 824Q303 817 316 805Q329 793 336 776Q343 759 343 740ZM292 740Q292 749 288.5 756.5Q285 764 279.5 770Q274 776 266.5 779Q259 782 250 782Q241 782 233.5 779Q226 776 220.5 770Q215 764 211.5 756.5Q208 749 208 740Q208 731 211.5 723.5Q215 716 220.5 710Q226 704 233.5 701Q241 698 250 698Q259 698 266.5 701Q274 704 279.5 710Q285 716 288.5 723.5Q292 731 292 740Z" glyph-name="ring.cap" horiz-adv-x="500" /><glyph d="M42 36V138Q58 123 76 111Q94 99 113.5 90.5Q133 82 153 77.5Q173 73 192 73Q208 73 222 76Q236 79 246.5 84.5Q257 90 263 99Q269 108 269 120Q269 131 265 139Q261 147 253 152.5Q245 158 235 162.5Q225 167 210 172L162 187Q133 196 111 207.5Q89 219 73.5 234.5Q58 250 50 271.5Q42 293 42 321Q42 351 54.5 375.5Q67 400 89.5 417.5Q112 435 143 444.5Q174 454 209 454Q228 454 246 451.5Q264 449 281 444Q298 439 313 431.5Q328 424 342 415V314Q327 327 312 337.5Q297 348 280.5 355.5Q264 363 246 367Q228 371 209 371Q194 371 181 368Q168 365 158.5 359Q149 353 143.5 344.5Q138 336 138 325Q138 314 141.5 306.5Q145 299 152 293.5Q159 288 169 283.5Q179 279 195 274L253 256Q281 247 302 235Q323 223 337.5 207Q352 191 359 170.5Q366 150 366 125Q366 93 353 68Q340 43 316 25.5Q292 8 260 -1Q228 -10 191 -10Q170 -10 149 -7Q128 -4 108.5 2Q89 8 72 16.5Q55 25 42 36Z" glyph-name="s" horiz-adv-x="403" unicode="s" /><glyph d="M251 513H162L239 650H342ZM42 36V138Q58 123 76 111Q94 99 113.5 90.5Q133 82 153 77.5Q173 73 192 73Q208 73 222 76Q236 79 246.5 84.5Q257 90 263 99Q269 108 269 120Q269 131 265 139Q261 147 253 152.5Q245 158 235 162.5Q225 167 210 172L162 187Q133 196 111 207.5Q89 219 73.5 234.5Q58 250 50 271.5Q42 293 42 321Q42 351 54.5 375.5Q67 400 89.5 417.5Q112 435 143 444.5Q174 454 209 454Q228 454 246 451.5Q264 449 281 444Q298 439 313 431.5Q328 424 342 415V314Q327 327 312 337.5Q297 348 280.5 355.5Q264 363 246 367Q228 371 209 371Q194 371 181 368Q168 365 158.5 359Q149 353 143.5 344.5Q138 336 138 325Q138 314 141.5 306.5Q145 299 152 293.5Q159 288 169 283.5Q179 279 195 274L253 256Q281 247 302 235Q323 223 337.5 207Q352 191 359 170.5Q366 150 366 125Q366 93 353 68Q340 43 316 25.5Q292 8 260 -1Q228 -10 191 -10Q170 -10 149 -7Q128 -4 108.5 2Q89 8 72 16.5Q55 25 42 36Z" glyph-name="sacute" horiz-adv-x="403" unicode="&#347;" /><glyph d="M352 646 258 506H166L72 646H156L212 567L268 646ZM42 36V138Q58 123 76 111Q94 99 113.5 90.5Q133 82 153 77.5Q173 73 192 73Q208 73 222 76Q236 79 246.5 84.5Q257 90 263 99Q269 108 269 120Q269 131 265 139Q261 147 253 152.5Q245 158 235 162.5Q225 167 210 172L162 187Q133 196 111 207.5Q89 219 73.5 234.5Q58 250 50 271.5Q42 293 42 321Q42 351 54.5 375.5Q67 400 89.5 417.5Q112 435 143 444.5Q174 454 209 454Q228 454 246 451.5Q264 449 281 444Q298 439 313 431.5Q328 424 342 415V314Q327 327 312 337.5Q297 348 280.5 355.5Q264 363 246 367Q228 371 209 371Q194 371 181 368Q168 365 158.5 359Q149 353 143.5 344.5Q138 336 138 325Q138 314 141.5 306.5Q145 299 152 293.5Q159 288 169 283.5Q179 279 195 274L253 256Q281 247 302 235Q323 223 337.5 207Q352 191 359 170.5Q366 150 366 125Q366 93 353 68Q340 43 316 25.5Q292 8 260 -1Q228 -10 191 -10Q170 -10 149 -7Q128 -4 108.5 2Q89 8 72 16.5Q55 25 42 36Z" glyph-name="scaron" horiz-adv-x="403" unicode="&#353;" /><glyph d="M42 36V138Q58 123 76 111Q94 99 113.5 90.5Q133 82 153 77.5Q173 73 192 73Q208 73 222 76Q236 79 246.5 84.5Q257 90 263 99Q269 108 269 120Q269 131 265 139Q261 147 253 152.5Q245 158 235 162.5Q225 167 210 172L162 187Q133 196 111 207.5Q89 219 73.5 234.5Q58 250 50 271.5Q42 293 42 321Q42 351 54.5 375.5Q67 400 89.5 417.5Q112 435 143 444.5Q174 454 209 454Q228 454 246 451.5Q264 449 281 444Q298 439 313 431.5Q328 424 342 415V314Q327 327 312 337.5Q297 348 280.5 355.5Q264 363 246 367Q228 371 209 371Q194 371 181 368Q168 365 158.5 359Q149 353 143.5 344.5Q138 336 138 325Q138 314 141.5 306.5Q145 299 152 293.5Q159 288 169 283.5Q179 279 195 274L253 256Q281 247 302 235Q323 223 337.5 207Q352 191 359 170.5Q366 150 366 125Q366 93 353 68Q340 43 316 25.5Q292 8 260 -1Q228 -10 191 -10Q170 -10 149 -7Q128 -4 108.5 2Q89 8 72 16.5Q55 25 42 36ZM168 -190H75L146 -53H245Z" glyph-name="scedilla" horiz-adv-x="403" unicode="&#351;" /><glyph d="M258 646 352 506H268L212 585L156 506H72L166 646ZM42 36V138Q58 123 76 111Q94 99 113.5 90.5Q133 82 153 77.5Q173 73 192 73Q208 73 222 76Q236 79 246.5 84.5Q257 90 263 99Q269 108 269 120Q269 131 265 139Q261 147 253 152.5Q245 158 235 162.5Q225 167 210 172L162 187Q133 196 111 207.5Q89 219 73.5 234.5Q58 250 50 271.5Q42 293 42 321Q42 351 54.5 375.5Q67 400 89.5 417.5Q112 435 143 444.5Q174 454 209 454Q228 454 246 451.5Q264 449 281 444Q298 439 313 431.5Q328 424 342 415V314Q327 327 312 337.5Q297 348 280.5 355.5Q264 363 246 367Q228 371 209 371Q194 371 181 368Q168 365 158.5 359Q149 353 143.5 344.5Q138 336 138 325Q138 314 141.5 306.5Q145 299 152 293.5Q159 288 169 283.5Q179 279 195 274L253 256Q281 247 302 235Q323 223 337.5 207Q352 191 359 170.5Q366 150 366 125Q366 93 353 68Q340 43 316 25.5Q292 8 260 -1Q228 -10 191 -10Q170 -10 149 -7Q128 -4 108.5 2Q89 8 72 16.5Q55 25 42 36Z" glyph-name="scircumflex" horiz-adv-x="403" unicode="&#349;" /><glyph d="M139 -217 181 -157Q170 -156 160.5 -151Q151 -146 144.5 -139Q138 -132 134 -122.5Q130 -113 130 -102Q130 -90 135 -79Q140 -68 148.5 -60Q157 -52 168.5 -48Q180 -44 193 -44Q206 -44 217 -48.5Q228 -53 236.5 -61Q245 -69 249.5 -80.5Q254 -92 254 -106Q254 -116 251.5 -125Q249 -134 245.5 -143Q242 -152 237 -160Q232 -168 226 -177L199 -217ZM42 36V138Q58 123 76 111Q94 99 113.5 90.5Q133 82 153 77.5Q173 73 192 73Q208 73 222 76Q236 79 246.5 84.5Q257 90 263 99Q269 108 269 120Q269 131 265 139Q261 147 253 152.5Q245 158 235 162.5Q225 167 210 172L162 187Q133 196 111 207.5Q89 219 73.5 234.5Q58 250 50 271.5Q42 293 42 321Q42 351 54.5 375.5Q67 400 89.5 417.5Q112 435 143 444.5Q174 454 209 454Q228 454 246 451.5Q264 449 281 444Q298 439 313 431.5Q328 424 342 415V314Q327 327 312 337.5Q297 348 280.5 355.5Q264 363 246 367Q228 371 209 371Q194 371 181 368Q168 365 158.5 359Q149 353 143.5 344.5Q138 336 138 325Q138 314 141.5 306.5Q145 299 152 293.5Q159 288 169 283.5Q179 279 195 274L253 256Q281 247 302 235Q323 223 337.5 207Q352 191 359 170.5Q366 150 366 125Q366 93 353 68Q340 43 316 25.5Q292 8 260 -1Q228 -10 191 -10Q170 -10 149 -7Q128 -4 108.5 2Q89 8 72 16.5Q55 25 42 36Z" glyph-name="scommaaccent" horiz-adv-x="403" unicode="&#537;" /><glyph d="M291 280 152 372Q141 369 133 364Q125 359 120.5 351.5Q116 344 113.5 335.5Q111 327 111 318Q111 306 116.5 295.5Q122 285 131 276.5Q140 268 149.5 261Q159 254 174 244L313 152Q324 155 332 160Q340 165 344.5 172.5Q349 180 351.5 188.5Q354 197 354 206Q354 218 348.5 228.5Q343 239 334 247.5Q325 256 315.5 263Q306 270 291 280ZM89 434Q85 440 82.5 447Q80 454 78 461.5Q76 469 75 477.5Q74 486 74 495Q74 523 86 547Q98 571 120 588.5Q142 606 172.5 615Q203 624 238 624Q257 624 275.5 621.5Q294 619 311.5 614Q329 609 344.5 601.5Q360 594 374 585V484Q359 497 343.5 507.5Q328 518 311 525.5Q294 533 275.5 537Q257 541 238 541Q223 541 210.5 538Q198 535 189 529Q180 523 175 514.5Q170 506 170 495Q170 484 174 475.5Q178 467 185 459.5Q192 452 201.5 445.5Q211 439 227 429L335 359Q360 343 379 328Q398 313 413 295.5Q428 278 436.5 256.5Q445 235 445 209Q445 191 440.5 173.5Q436 156 427.5 140.5Q419 125 406 112Q393 99 376 89Q380 82 382.5 75.5Q385 69 387 61.5Q389 54 390 46Q391 38 391 29Q391 1 379 -23Q367 -47 345 -64.5Q323 -82 292.5 -91Q262 -100 227 -100Q208 -100 189.5 -97.5Q171 -95 153.5 -90Q136 -85 120.5 -77.5Q105 -70 91 -61V40Q106 27 121.5 16.5Q137 6 154 -1.5Q171 -9 189.5 -13Q208 -17 227 -17Q242 -17 254.5 -14Q267 -11 276 -5Q285 1 290 9.5Q295 18 295 29Q295 40 291 48.5Q287 57 280 64.5Q273 72 263.5 78.5Q254 85 238 95L130 165Q105 181 86 196Q67 211 52 228.5Q37 246 28.5 267.5Q20 289 20 315Q20 333 24.5 350Q29 367 38 383Q47 399 59.5 412Q72 425 89 434Z" glyph-name="section" horiz-adv-x="465" unicode="&#167;" /><glyph d="M16 -113 88 -2Q76 0 65.5 5Q55 10 47.5 18.5Q40 27 36 38Q32 49 32 62Q32 76 37 88.5Q42 101 51.5 110Q61 119 73.5 124Q86 129 100 129Q114 129 126.5 124Q139 119 148.5 109.5Q158 100 163 86Q168 72 168 54Q168 45 166 34.5Q164 24 160 13.5Q156 3 150.5 -7Q145 -17 139 -26L81 -113ZM32 362Q32 376 37 389Q42 402 51.5 411.5Q61 421 73.5 426Q86 431 100 431Q114 431 126.5 426Q139 421 148.5 411.5Q158 402 163 389Q168 376 168 362Q168 348 163 335Q158 322 148.5 312.5Q139 303 126.5 298Q114 293 100 293Q86 293 73.5 298Q61 303 51.5 312.5Q42 322 37 335Q32 348 32 362Z" glyph-name="semicolon" horiz-adv-x="200" unicode=";" /><glyph d="M46 -113 118 -2Q106 0 95.5 5Q85 10 77.5 18.5Q70 27 66 38Q62 49 62 62Q62 76 67 88.5Q72 101 81.5 110Q91 119 103.5 124Q116 129 130 129Q144 129 156.5 124Q169 119 178.5 109.5Q188 100 193 86Q198 72 198 54Q198 45 196 34.5Q194 24 190 13.5Q186 3 180.5 -7Q175 -17 169 -26L111 -113ZM62 362Q62 376 67 389Q72 402 81.5 411.5Q91 421 103.5 426Q116 431 130 431Q144 431 156.5 426Q169 421 178.5 411.5Q188 402 193 389Q198 376 198 362Q198 348 193 335Q188 322 178.5 312.5Q169 303 156.5 298Q144 293 130 293Q116 293 103.5 298Q91 303 81.5 312.5Q72 322 67 335Q62 348 62 362Z" glyph-name="semicolon.tab" horiz-adv-x="260" /><glyph d="M442 611 163 0H59L298 522H18V614H442Z" glyph-name="seven" horiz-adv-x="450" unicode="7" /><glyph d="M495 611 216 0H112L351 522H49V614H495Z" glyph-name="seven.lt" horiz-adv-x="520" /><glyph d="M279 612 127 279H41L162 542H26V614H279Z" glyph-name="sevensuperior" horiz-adv-x="303" unicode="&#8311;" /><glyph d="M242 -10Q196 -10 157 6Q118 22 89.5 50.5Q61 79 45.5 118Q30 157 30 202Q30 223 33.5 244.5Q37 266 44.5 289.5Q52 313 64 339Q76 365 93 394L220 614H327L206 404Q210 406 215 407.5Q220 409 226 410Q232 411 238.5 411.5Q245 412 250 412Q295 412 332.5 396Q370 380 397.5 351.5Q425 323 439.5 284.5Q454 246 454 202Q454 157 438.5 118Q423 79 394.5 50.5Q366 22 327 6Q288 -10 242 -10ZM360 202Q360 227 351.5 249.5Q343 272 327 288.5Q311 305 289.5 314.5Q268 324 242 324Q217 324 195 314.5Q173 305 157 288.5Q141 272 132.5 249.5Q124 227 124 202Q124 176 132.5 154Q141 132 157 115Q173 98 195 89Q217 80 242 80Q268 80 289.5 89Q311 98 327 115Q343 132 351.5 154Q360 176 360 202Z" glyph-name="six" horiz-adv-x="484" unicode="6" /><glyph d="M260 -10Q214 -10 175 6Q136 22 107.5 50.5Q79 79 63.5 118Q48 157 48 202Q48 223 51.5 244.5Q55 266 62.5 289.5Q70 313 82 339Q94 365 111 394L238 614H345L224 404Q228 406 233 407.5Q238 409 244 410Q250 411 256.5 411.5Q263 412 268 412Q313 412 350.5 396Q388 380 415.5 351.5Q443 323 457.5 284.5Q472 246 472 202Q472 157 456.5 118Q441 79 412.5 50.5Q384 22 345 6Q306 -10 260 -10ZM378 202Q378 227 369.5 249.5Q361 272 345 288.5Q329 305 307.5 314.5Q286 324 260 324Q235 324 213 314.5Q191 305 175 288.5Q159 272 150.5 249.5Q142 227 142 202Q142 176 150.5 154Q159 132 175 115Q191 98 213 89Q235 80 260 80Q286 80 307.5 89Q329 98 345 115Q361 132 369.5 154Q378 176 378 202Z" glyph-name="six.lt" horiz-adv-x="520" /><glyph d="M5 -84 253 650H352L104 -84Z" glyph-name="slash" horiz-adv-x="357" unicode="/" /><glyph d="M5 -64 253 670H352L104 -64Z" glyph-name="slash.cap" horiz-adv-x="357" /><glyph glyph-name="space" horiz-adv-x="221" unicode=" " /><glyph glyph-name="space.tab" horiz-adv-x="260" /><glyph d="M444 83V0H30V83H87Q92 92 95.5 101Q99 110 101.5 121Q104 132 105.5 145Q107 158 107 174V262H30V343H107V410Q107 458 122.5 497.5Q138 537 166.5 565.5Q195 594 234 609Q273 624 320 624Q336 624 351.5 622Q367 620 381 616Q395 612 407.5 606.5Q420 601 429 595V505Q418 512 406 517.5Q394 523 380.5 527.5Q367 532 352 534Q337 536 320 536Q294 536 272.5 527.5Q251 519 235.5 502Q220 485 211.5 460Q203 435 203 403V343H344V262H203V174Q203 160 202 147Q201 134 198.5 122.5Q196 111 191.5 100.5Q187 90 182 83Z" glyph-name="sterling" horiz-adv-x="467" unicode="&#163;" /><glyph d="M476 83V0H62V83H119Q124 92 127.5 101Q131 110 133.5 121Q136 132 137.5 145Q139 158 139 174V262H62V343H139V410Q139 458 154.5 497.5Q170 537 198.5 565.5Q227 594 266 609Q305 624 352 624Q368 624 383.5 622Q399 620 413 616Q427 612 439.5 606.5Q452 601 461 595V505Q450 512 438 517.5Q426 523 412.5 527.5Q399 532 384 534Q369 536 352 536Q326 536 304.5 527.5Q283 519 267.5 502Q252 485 243.5 460Q235 435 235 403V343H376V262H235V174Q235 160 234 147Q233 134 230.5 122.5Q228 111 223.5 100.5Q219 90 214 83Z" glyph-name="sterling.lt" horiz-adv-x="520" /><glyph d="M215 361V0H115V361H25V444H115V563H215V444H315V361Z" glyph-name="t" horiz-adv-x="341" unicode="t" /><glyph d="M293 199H215V0H115V199H45V278H115V361H25V444H115V563H215V444H315V361H215V278H293Z" glyph-name="tbar" horiz-adv-x="341" unicode="&#359;" /><glyph d="M343 493H265L299 660H377ZM215 361V0H115V361H25V444H115V563H215V444H315V361Z" glyph-name="tcaron" horiz-adv-x="341" unicode="&#357;" /><glyph d="M111 -217 153 -157Q142 -156 132.5 -151Q123 -146 116.5 -139Q110 -132 106 -122.5Q102 -113 102 -102Q102 -90 107 -79Q112 -68 120.5 -60Q129 -52 140.5 -48Q152 -44 165 -44Q178 -44 189 -48.5Q200 -53 208.5 -61Q217 -69 221.5 -80.5Q226 -92 226 -106Q226 -116 223.5 -125Q221 -134 217.5 -143Q214 -152 209 -160Q204 -168 198 -177L171 -217ZM215 361V0H115V361H25V444H115V563H215V444H315V361Z" glyph-name="tcommaaccent" horiz-adv-x="341" unicode="&#355;" /><glyph d="M162 306V138Q168 125 178 114Q188 103 201 95Q214 87 228.5 83Q243 79 258 79Q286 79 309 89.5Q332 100 348 119.5Q364 139 372.5 165Q381 191 381 222Q381 253 372.5 279Q364 305 348 324.5Q332 344 309 354.5Q286 365 258 365Q243 365 228.5 361Q214 357 201 349Q188 341 178 330Q168 319 162 306ZM162 38V-170H62V650H162V406Q170 416 181.5 424.5Q193 433 208 439.5Q223 446 240 450Q257 454 275 454Q322 454 360.5 435.5Q399 417 426 385Q453 353 467 311Q481 269 481 222Q481 175 467 133Q453 91 426 59Q399 27 360.5 8.5Q322 -10 275 -10Q257 -10 240 -6Q223 -2 208 4.5Q193 11 181.5 19.5Q170 28 162 38Z" glyph-name="thorn" horiz-adv-x="512" unicode="&#254;" /></font>
</defs>
</svg>
