<?xml version="1.0" standalone="no"?><!DOCTYPE svg PUBLIC "-//W3C//DTD SVG 1.1//EN" "http://www.w3.org/Graphics/SVG/1.1/DTD/svg11.dtd" ><svg version="1.1" xmlns="http://www.w3.org/2000/svg"><defs><font horiz-adv-x="0" id="font"><font-face ascent="750" bbox="-120 -247 998 940" cap-height="614" descent="-250" font-family="Copyright Klim Type Foundry" font-stretch="normal" font-style="normal" font-weight="900" units-per-em="1000" x-height="454" /><missing-glyph horiz-adv-x="608" /><glyph d="M330 387 279 246H381ZM470 0 438 89H222L190 0H0L232 614H434L666 0Z" glyph-name="A" horiz-adv-x="666" unicode="A" /><glyph d="M448 455 336 246H448ZM448 0V89H253L205 0H0L338 614H890V449H639V391H867V231H639V166H890V0Z" glyph-name="AE" horiz-adv-x="917" unicode="&#198;" /><glyph d="M700 663H514L599 800H785ZM448 455 336 246H448ZM448 0V89H253L205 0H0L338 614H890V449H639V391H867V231H639V166H890V0Z" glyph-name="AEacute" horiz-adv-x="917" unicode="&#508;" /><glyph d="M330 387 279 246H381ZM470 0 438 89H222L190 0H0L232 614H434L666 0ZM424 663H238L323 800H509Z" glyph-name="Aacute" horiz-adv-x="666" unicode="&#193;" /><glyph d="M330 387 279 246H381ZM470 0 438 89H222L190 0H0L232 614H434L666 0ZM333 653Q267 653 223 693Q179 733 179 812H308Q308 793 314.5 784Q321 775 333 775Q346 775 352.5 784Q359 793 359 812H487Q487 733 443 693Q399 653 333 653Z" glyph-name="Abreve" horiz-adv-x="666" unicode="&#258;" /><glyph d="M330 387 279 246H381ZM470 0 438 89H222L190 0H0L232 614H434L666 0ZM401 800 518 663H369L333 700L297 663H148L265 800Z" glyph-name="Acircumflex" horiz-adv-x="666" unicode="&#194;" /><glyph d="M330 387 279 246H381ZM470 0 438 89H222L190 0H0L232 614H434L666 0ZM341 737Q341 774 367.5 801Q394 828 431 828Q468 828 495 801Q522 774 522 737Q522 700 495 673.5Q468 647 431 647Q394 647 367.5 673.5Q341 700 341 737ZM144 737Q144 774 170.5 801Q197 828 234 828Q271 828 298 801Q325 774 325 737Q325 700 298 673.5Q271 647 234 647Q197 647 170.5 673.5Q144 700 144 737Z" glyph-name="Adieresis" horiz-adv-x="666" unicode="&#196;" /><glyph d="M330 387 279 246H381ZM470 0 438 89H222L190 0H0L232 614H434L666 0ZM433 663H247L162 800H348Z" glyph-name="Agrave" horiz-adv-x="666" unicode="&#192;" /><glyph d="M330 387 279 246H381ZM470 0 438 89H222L190 0H0L232 614H434L666 0ZM189 663V788H478V663Z" glyph-name="Amacron" horiz-adv-x="666" unicode="&#256;" /><glyph d="M232 614H434L666 0Q634 -31 623.5 -41.5Q613 -52 613 -62Q613 -69 618 -73.5Q623 -78 632 -78Q640 -78 647 -75Q654 -72 666 -65V-165Q652 -172 635.5 -177Q619 -182 597 -182Q557 -182 526 -162Q495 -142 495 -99Q495 -71 511 -47.5Q527 -24 551 0H470L438 89H222L190 0H0ZM330 387 279 246H381Z" glyph-name="Aogonek" horiz-adv-x="666" unicode="&#260;" /><glyph d="M330 387 279 246H381ZM470 0 438 89H222L190 0H0L232 614H434L666 0ZM450 751Q450 704 416 671Q382 638 333 638Q284 638 250 671Q216 704 216 751Q216 798 250 831.5Q284 865 333 865Q382 865 416 831.5Q450 798 450 751ZM366 751Q366 764 357 774Q348 784 333 784Q319 784 310 774Q301 764 301 751Q301 738 310 728.5Q319 719 333 719Q348 719 357 728.5Q366 738 366 751Z" glyph-name="Aring" horiz-adv-x="666" unicode="&#197;" /><glyph d="M425 829H239L308 940H494ZM444 721Q444 684 411.5 657Q379 630 330 630Q281 630 248.5 657Q216 684 216 721Q216 759 248.5 786Q281 813 330 813Q379 813 411.5 786Q444 759 444 721ZM363 721Q363 732 354 740.5Q345 749 330 749Q315 749 306 740.5Q297 732 297 721Q297 711 306 702.5Q315 694 330 694Q345 694 354 702.5Q363 711 363 721ZM330 387 279 246H381ZM470 0 438 89H222L190 0H0L232 614H434L666 0Z" glyph-name="Aringacute" horiz-adv-x="666" unicode="&#506;" /><glyph d="M330 387 279 246H381ZM470 0 438 89H222L190 0H0L232 614H434L666 0ZM398 816H498Q498 755 479.5 705Q461 655 407 655Q372 655 343.5 668.5Q315 682 290 682Q280 682 274 675.5Q268 669 268 659H168Q168 720 186.5 770Q205 820 259 820Q294 820 322.5 806.5Q351 793 376 793Q386 793 392 799.5Q398 806 398 816Z" glyph-name="Atilde" horiz-adv-x="666" unicode="&#195;" /><glyph d="M444 317Q487 303 515.5 263Q544 223 544 170Q544 89 491 44.5Q438 0 342 0H33V614H325Q421 614 474 571.5Q527 529 527 447Q527 398 502.5 363.5Q478 329 444 317ZM216 379H297Q321 379 334 389.5Q347 400 347 419Q347 438 334 448Q321 458 297 458H216ZM216 240V157H310Q333 157 346 168.5Q359 180 359 198Q359 217 346 228.5Q333 240 310 240Z" glyph-name="B" horiz-adv-x="560" unicode="B" /><glyph d="M14 307Q14 450 103.5 537Q193 624 340 624Q386 624 424.5 614.5Q463 605 492 588V405Q461 424 427 434Q393 444 360 444Q290 444 249 409Q208 374 208 307Q208 241 249 206Q290 171 360 171Q393 171 427 180.5Q461 190 492 209V26Q463 9 424.5 -0.5Q386 -10 340 -10Q193 -10 103.5 77Q14 164 14 307Z" glyph-name="C" horiz-adv-x="520" unicode="C" /><glyph d="M14 307Q14 450 103.5 537Q193 624 340 624Q386 624 424.5 614.5Q463 605 492 588V405Q461 424 427 434Q393 444 360 444Q290 444 249 409Q208 374 208 307Q208 241 249 206Q290 171 360 171Q393 171 427 180.5Q461 190 492 209V26Q463 9 424.5 -0.5Q386 -10 340 -10Q193 -10 103.5 77Q14 164 14 307ZM428 663H242L327 800H513Z" glyph-name="Cacute" horiz-adv-x="520" unicode="&#262;" /><glyph d="M14 307Q14 450 103.5 537Q193 624 340 624Q386 624 424.5 614.5Q463 605 492 588V405Q461 424 427 434Q393 444 360 444Q290 444 249 409Q208 374 208 307Q208 241 249 206Q290 171 360 171Q393 171 427 180.5Q461 190 492 209V26Q463 9 424.5 -0.5Q386 -10 340 -10Q193 -10 103.5 77Q14 164 14 307ZM269 659 152 796H301L337 759L373 796H522L405 659Z" glyph-name="Ccaron" horiz-adv-x="520" unicode="&#268;" /><glyph d="M14 307Q14 450 103.5 537Q193 624 340 624Q386 624 424.5 614.5Q463 605 492 588V405Q461 424 427 434Q393 444 360 444Q290 444 249 409Q208 374 208 307Q208 241 249 206Q290 171 360 171Q393 171 427 180.5Q461 190 492 209V26Q463 9 424.5 -0.5Q386 -10 340 -10Q193 -10 103.5 77Q14 164 14 307ZM344 -175H188L255 -32H411Z" glyph-name="Ccedilla" horiz-adv-x="520" unicode="&#199;" /><glyph d="M14 307Q14 450 103.5 537Q193 624 340 624Q386 624 424.5 614.5Q463 605 492 588V405Q461 424 427 434Q393 444 360 444Q290 444 249 409Q208 374 208 307Q208 241 249 206Q290 171 360 171Q393 171 427 180.5Q461 190 492 209V26Q463 9 424.5 -0.5Q386 -10 340 -10Q193 -10 103.5 77Q14 164 14 307ZM405 800 522 663H373L337 700L301 663H152L269 800Z" glyph-name="Ccircumflex" horiz-adv-x="520" unicode="&#264;" /><glyph d="M442 751Q442 705 411 679Q380 653 337 653Q294 653 263 679Q232 705 232 751Q232 797 263 823Q294 849 337 849Q380 849 411 823Q442 797 442 751ZM14 307Q14 450 103.5 537Q193 624 340 624Q386 624 424.5 614.5Q463 605 492 588V405Q461 424 427 434Q393 444 360 444Q290 444 249 409Q208 374 208 307Q208 241 249 206Q290 171 360 171Q393 171 427 180.5Q461 190 492 209V26Q463 9 424.5 -0.5Q386 -10 340 -10Q193 -10 103.5 77Q14 164 14 307Z" glyph-name="Cdotaccent" horiz-adv-x="520" unicode="&#266;" /><glyph d="M33 0V614H280Q429 614 512.5 530.5Q596 447 596 307Q596 167 512.5 83.5Q429 0 280 0ZM223 166H270Q334 166 369.5 204.5Q405 243 405 307Q405 372 369.5 410.5Q334 449 270 449H223Z" glyph-name="D" horiz-adv-x="610" unicode="D" /><glyph d="M198 659 81 796H230L266 759L302 796H451L334 659ZM33 0V614H280Q429 614 512.5 530.5Q596 447 596 307Q596 167 512.5 83.5Q429 0 280 0ZM223 166H270Q334 166 369.5 204.5Q405 243 405 307Q405 372 369.5 410.5Q334 449 270 449H223Z" glyph-name="Dcaron" horiz-adv-x="610" unicode="&#270;" /><glyph d="M297 0H50V238H10V383H50V614H297Q446 614 529.5 530.5Q613 447 613 307Q613 167 529.5 83.5Q446 0 297 0ZM240 166H287Q351 166 386.5 204.5Q422 243 422 307Q422 372 386.5 410.5Q351 449 287 449H240V383H310V238H240Z" glyph-name="Dcroat" horiz-adv-x="627" unicode="&#272;" /><glyph d="M33 614H495V449H224V391H472V231H224V166H495V0H33Z" glyph-name="E" horiz-adv-x="522" unicode="E" /><glyph d="M361 663H175L260 800H446ZM33 614H495V449H224V391H472V231H224V166H495V0H33Z" glyph-name="Eacute" horiz-adv-x="522" unicode="&#201;" /><glyph d="M270 653Q204 653 160 693Q116 733 116 812H245Q245 793 251.5 784Q258 775 270 775Q283 775 289.5 784Q296 793 296 812H424Q424 733 380 693Q336 653 270 653ZM33 614H495V449H224V391H472V231H224V166H495V0H33Z" glyph-name="Ebreve" horiz-adv-x="522" unicode="&#276;" /><glyph d="M202 659 85 796H234L270 759L306 796H455L338 659ZM33 614H495V449H224V391H472V231H224V166H495V0H33Z" glyph-name="Ecaron" horiz-adv-x="522" unicode="&#282;" /><glyph d="M33 614H495V449H224V391H472V231H224V166H495V0H33ZM338 800 455 663H306L270 700L234 663H85L202 800Z" glyph-name="Ecircumflex" horiz-adv-x="522" unicode="&#202;" /><glyph d="M278 737Q278 774 304.5 801Q331 828 368 828Q405 828 432 801Q459 774 459 737Q459 700 432 673.5Q405 647 368 647Q331 647 304.5 673.5Q278 700 278 737ZM81 737Q81 774 107.5 801Q134 828 171 828Q208 828 235 801Q262 774 262 737Q262 700 235 673.5Q208 647 171 647Q134 647 107.5 673.5Q81 700 81 737ZM33 614H495V449H224V391H472V231H224V166H495V0H33Z" glyph-name="Edieresis" horiz-adv-x="522" unicode="&#203;" /><glyph d="M375 751Q375 705 344 679Q313 653 270 653Q227 653 196 679Q165 705 165 751Q165 797 196 823Q227 849 270 849Q313 849 344 823Q375 797 375 751ZM33 614H495V449H224V391H472V231H224V166H495V0H33Z" glyph-name="Edotaccent" horiz-adv-x="522" unicode="&#278;" /><glyph d="M370 663H184L99 800H285ZM33 614H495V449H224V391H472V231H224V166H495V0H33Z" glyph-name="Egrave" horiz-adv-x="522" unicode="&#200;" /><glyph d="M126 663V788H415V663ZM33 614H495V449H224V391H472V231H224V166H495V0H33Z" glyph-name="Emacron" horiz-adv-x="522" unicode="&#274;" /><glyph d="M286 -151V10Q298 6 311 4Q324 2 338 2Q369 2 384.5 14.5Q400 27 405 52L220 307V0H33V614H214L416 328V614H603V65Q603 -54 538.5 -108.5Q474 -163 372 -163Q348 -163 326.5 -159.5Q305 -156 286 -151Z" glyph-name="Eng" horiz-adv-x="636" unicode="&#330;" /><glyph d="M33 614H495V449H224V391H472V231H224V166H495V0H458Q430 -29 420 -39Q408 -52 408 -62Q408 -69 413 -73.5Q418 -78 427 -78Q435 -78 442 -75Q449 -72 461 -65V-165Q447 -172 430.5 -177Q414 -182 392 -182Q352 -182 321 -162Q290 -142 290 -99Q290 -68 309 -42Q325 -22 346 0H33Z" glyph-name="Eogonek" horiz-adv-x="522" unicode="&#280;" /><glyph d="M297 0H50V239H10V384H50V614H297Q446 614 529.5 530.5Q613 447 613 307Q613 167 529.5 83.5Q446 0 297 0ZM240 166H287Q351 166 386.5 204.5Q422 243 422 307Q422 372 386.5 410.5Q351 449 287 449H240V384H310V239H240Z" glyph-name="Eth" horiz-adv-x="627" unicode="&#208;" /><glyph d="M487 26Q462 9 428 -0.5Q394 -10 351 -10Q242 -10 167.5 51Q93 112 71 216H20V293H61Q61 296 61 299.5Q61 303 61 307Q61 311 61 316.5Q61 322 61 326H20V403H72Q96 505 170 564.5Q244 624 351 624Q394 624 428 614.5Q462 605 487 588V415Q458 434 428.5 444Q399 454 370 454Q333 454 308 441Q283 428 269 403H387L372 326H248Q247 322 247 317Q247 312 247 307Q247 303 247 299.5Q247 296 247 293H364L349 216H266Q280 189 306 174.5Q332 160 370 160Q399 160 428.5 170Q458 180 487 199Z" glyph-name="Euro" horiz-adv-x="512" unicode="&#8364;" /><glyph d="M493 26Q468 9 434 -0.5Q400 -10 357 -10Q248 -10 173.5 51Q99 112 77 216H26V293H67Q67 296 67 299.5Q67 303 67 307Q67 311 67 316.5Q67 322 67 326H26V403H78Q102 505 176 564.5Q250 624 357 624Q400 624 434 614.5Q468 605 493 588V415Q464 434 434.5 444Q405 454 376 454Q339 454 314 441Q289 428 275 403H393L378 326H254Q253 322 253 317Q253 312 253 307Q253 303 253 299.5Q253 296 253 293H370L355 216H272Q286 189 312 174.5Q338 160 376 160Q405 160 434.5 170Q464 180 493 199Z" glyph-name="Euro.lt" horiz-adv-x="520" /><glyph d="M224 0H33V614H488V447H224V361H464V199H224Z" glyph-name="F" horiz-adv-x="514" unicode="F" /><glyph d="M343 163Q360 163 374 166Q388 169 398 174V201H325V353H566V66Q519 27 460.5 8.5Q402 -10 336 -10Q189 -10 101.5 78.5Q14 167 14 304Q14 450 107 537Q200 624 354 624Q404 624 452.5 611.5Q501 599 535 579V395Q502 415 458 429.5Q414 444 354 444Q291 444 249.5 408Q208 372 208 304Q208 238 247 200.5Q286 163 343 163Z" glyph-name="G" horiz-adv-x="592" unicode="G" /><glyph d="M350 653Q284 653 240 693Q196 733 196 812H325Q325 793 331.5 784Q338 775 350 775Q363 775 369.5 784Q376 793 376 812H504Q504 733 460 693Q416 653 350 653ZM343 163Q360 163 374 166Q388 169 398 174V201H325V353H566V66Q519 27 460.5 8.5Q402 -10 336 -10Q189 -10 101.5 78.5Q14 167 14 304Q14 450 107 537Q200 624 354 624Q404 624 452.5 611.5Q501 599 535 579V395Q502 415 458 429.5Q414 444 354 444Q291 444 249.5 408Q208 372 208 304Q208 238 247 200.5Q286 163 343 163Z" glyph-name="Gbreve" horiz-adv-x="592" unicode="&#286;" /><glyph d="M343 163Q360 163 374 166Q388 169 398 174V201H325V353H566V66Q519 27 460.5 8.5Q402 -10 336 -10Q189 -10 101.5 78.5Q14 167 14 304Q14 450 107 537Q200 624 354 624Q404 624 452.5 611.5Q501 599 535 579V395Q502 415 458 429.5Q414 444 354 444Q291 444 249.5 408Q208 372 208 304Q208 238 247 200.5Q286 163 343 163ZM418 800 535 663H386L350 700L314 663H165L282 800Z" glyph-name="Gcircumflex" horiz-adv-x="592" unicode="&#284;" /><glyph d="M245 -247 299 -181Q280 -173 266 -154Q252 -135 252 -107Q252 -72 278 -49Q304 -26 344 -26Q380 -26 408 -49Q436 -72 436 -114Q436 -142 423 -165Q410 -188 391 -211L361 -247ZM343 163Q360 163 374 166Q388 169 398 174V201H325V353H566V66Q519 27 460.5 8.5Q402 -10 336 -10Q189 -10 101.5 78.5Q14 167 14 304Q14 450 107 537Q200 624 354 624Q404 624 452.5 611.5Q501 599 535 579V395Q502 415 458 429.5Q414 444 354 444Q291 444 249.5 408Q208 372 208 304Q208 238 247 200.5Q286 163 343 163Z" glyph-name="Gcommaaccent" horiz-adv-x="592" unicode="&#290;" /><glyph d="M455 751Q455 705 424 679Q393 653 350 653Q307 653 276 679Q245 705 245 751Q245 797 276 823Q307 849 350 849Q393 849 424 823Q455 797 455 751ZM343 163Q360 163 374 166Q388 169 398 174V201H325V353H566V66Q519 27 460.5 8.5Q402 -10 336 -10Q189 -10 101.5 78.5Q14 167 14 304Q14 450 107 537Q200 624 354 624Q404 624 452.5 611.5Q501 599 535 579V395Q502 415 458 429.5Q414 444 354 444Q291 444 249.5 408Q208 372 208 304Q208 238 247 200.5Q286 163 343 163Z" glyph-name="Gdotaccent" horiz-adv-x="592" unicode="&#288;" /><glyph d="M422 614H616V0H422V228H227V0H33V614H227V393H422Z" glyph-name="H" horiz-adv-x="649" unicode="H" /><glyph d="M244 325H439V404H244ZM244 180V0H50V404H10V549H50V614H244V549H439V614H633V549H673V404H633V0H439V180Z" glyph-name="Hbar" horiz-adv-x="683" unicode="&#294;" /><glyph d="M422 614H616V0H422V228H227V0H33V614H227V393H422ZM392 800 509 663H360L324 700L288 663H139L256 800Z" glyph-name="Hcircumflex" horiz-adv-x="649" unicode="&#292;" /><glyph d="M227 614V0H33V614Z" glyph-name="I" horiz-adv-x="260" unicode="I" /><glyph d="M227 614V0H33V614ZM278 27V205Q307 186 333.5 175.5Q360 165 393 165Q436 165 450 188Q464 211 464 261V614H658V218Q658 99 593.5 44.5Q529 -10 427 -10Q380 -10 339 2Q298 14 278 27Z" glyph-name="IJ" horiz-adv-x="676" unicode="&#306;" /><glyph d="M227 614V0H33V614ZM221 663H35L120 800H306Z" glyph-name="Iacute" horiz-adv-x="260" unicode="&#205;" /><glyph d="M227 614V0H33V614ZM130 653Q64 653 20 693Q-24 733 -24 812H105Q105 793 111.5 784Q118 775 130 775Q143 775 149.5 784Q156 793 156 812H284Q284 733 240 693Q196 653 130 653Z" glyph-name="Ibreve" horiz-adv-x="260" unicode="&#300;" /><glyph d="M227 614V0H33V614ZM198 800 315 663H166L130 700L94 663H-55L62 800Z" glyph-name="Icircumflex" horiz-adv-x="260" unicode="&#206;" /><glyph d="M227 614V0H33V614ZM138 737Q138 774 164.5 801Q191 828 228 828Q265 828 292 801Q319 774 319 737Q319 700 292 673.5Q265 647 228 647Q191 647 164.5 673.5Q138 700 138 737ZM-59 737Q-59 774 -32.5 801Q-6 828 31 828Q68 828 95 801Q122 774 122 737Q122 700 95 673.5Q68 647 31 647Q-6 647 -32.5 673.5Q-59 700 -59 737Z" glyph-name="Idieresis" horiz-adv-x="260" unicode="&#207;" /><glyph d="M227 614V0H33V614ZM235 751Q235 705 204 679Q173 653 130 653Q87 653 56 679Q25 705 25 751Q25 797 56 823Q87 849 130 849Q173 849 204 823Q235 797 235 751Z" glyph-name="Idotaccent" horiz-adv-x="260" unicode="&#304;" /><glyph d="M227 614V0H33V614ZM230 663H44L-41 800H145Z" glyph-name="Igrave" horiz-adv-x="260" unicode="&#204;" /><glyph d="M227 614V0H33V614ZM-14 663V788H275V663Z" glyph-name="Imacron" horiz-adv-x="260" unicode="&#298;" /><glyph d="M227 614V0Q195 -31 184.5 -41.5Q174 -52 174 -62Q174 -69 179 -73.5Q184 -78 193 -78Q201 -78 208 -75Q215 -72 227 -65V-165Q213 -172 196.5 -177Q180 -182 158 -182Q118 -182 87 -162Q56 -142 56 -99Q56 -71 72 -47.5Q88 -24 112 0H33V614Z" glyph-name="Iogonek" horiz-adv-x="260" unicode="&#302;" /><glyph d="M227 614V0H33V614ZM195 816H295Q295 755 276.5 705Q258 655 204 655Q169 655 140.5 668.5Q112 682 87 682Q77 682 71 675.5Q65 669 65 659H-35Q-35 720 -16.5 770Q2 820 56 820Q91 820 119.5 806.5Q148 793 173 793Q183 793 189 799.5Q195 806 195 816Z" glyph-name="Itilde" horiz-adv-x="260" unicode="&#296;" /><glyph d="M18 27V205Q47 186 73.5 175.5Q100 165 133 165Q176 165 190 188Q204 211 204 261V614H398V218Q398 99 333.5 44.5Q269 -10 167 -10Q120 -10 79 2Q38 14 18 27Z" glyph-name="J" horiz-adv-x="426" unicode="J" /><glyph d="M18 27V205Q47 186 73.5 175.5Q100 165 133 165Q176 165 190 188Q204 211 204 261V614H398V218Q398 99 333.5 44.5Q269 -10 167 -10Q120 -10 79 2Q38 14 18 27ZM370 800 487 663H338L302 700L266 663H117L234 800Z" glyph-name="Jcircumflex" horiz-adv-x="426" unicode="&#308;" /><glyph d="M227 614V357L392 614H614L418 320L623 0H398L227 271V0H33V614Z" glyph-name="K" horiz-adv-x="623" unicode="K" /><glyph d="M209 -247 263 -181Q244 -173 230 -154Q216 -135 216 -107Q216 -72 242 -49Q268 -26 308 -26Q344 -26 372 -49Q400 -72 400 -114Q400 -142 387 -165Q374 -188 355 -211L325 -247ZM227 614V357L392 614H614L418 320L623 0H398L227 271V0H33V614Z" glyph-name="Kcommaaccent" horiz-adv-x="623" unicode="&#310;" /><glyph d="M33 0V614H227V166H491V0Z" glyph-name="L" horiz-adv-x="513" unicode="L" /><glyph d="M231 663H45L130 800H316ZM33 0V614H227V166H491V0Z" glyph-name="Lacute" horiz-adv-x="513" unicode="&#313;" /><glyph d="M414 447H268L316 614H464ZM33 0V614H227V166H491V0Z" glyph-name="Lcaron" horiz-adv-x="513" unicode="&#317;" /><glyph d="M161 -247 215 -181Q196 -173 182 -154Q168 -135 168 -107Q168 -72 194 -49Q220 -26 260 -26Q296 -26 324 -49Q352 -72 352 -114Q352 -142 339 -165Q326 -188 307 -211L277 -247ZM33 0V614H227V166H491V0Z" glyph-name="Lcommaaccent" horiz-adv-x="513" unicode="&#315;" /><glyph d="M33 0V614H227V166H491V0ZM483 370Q483 324 452 298Q421 272 378 272Q335 272 304 298Q273 324 273 370Q273 416 304 442Q335 468 378 468Q421 468 452 442Q483 416 483 370Z" glyph-name="Ldot" horiz-adv-x="513" unicode="&#319;" /><glyph d="M498 0H40V202L0 186V328L40 344V614H234V415L338 455V313L234 272V166H498Z" glyph-name="Lslash" horiz-adv-x="520" unicode="&#321;" /><glyph d="M365 132H361L223 306V0H33V614H213L363 405L514 614H694V0H504V306Z" glyph-name="M" horiz-adv-x="727" unicode="M" /><glyph d="M603 614V0H444L220 307V0H33V614H214L416 328V614Z" glyph-name="N" horiz-adv-x="636" unicode="N" /><glyph glyph-name="NULL" horiz-adv-x="0" /><glyph d="M409 663H223L308 800H494ZM603 614V0H444L220 307V0H33V614H214L416 328V614Z" glyph-name="Nacute" horiz-adv-x="636" unicode="&#323;" /><glyph d="M250 659 133 796H282L318 759L354 796H503L386 659ZM603 614V0H444L220 307V0H33V614H214L416 328V614Z" glyph-name="Ncaron" horiz-adv-x="636" unicode="&#327;" /><glyph d="M217 -247 271 -181Q252 -173 238 -154Q224 -135 224 -107Q224 -72 250 -49Q276 -26 316 -26Q352 -26 380 -49Q408 -72 408 -114Q408 -142 395 -165Q382 -188 363 -211L333 -247ZM603 614V0H444L220 307V0H33V614H214L416 328V614Z" glyph-name="Ncommaaccent" horiz-adv-x="636" unicode="&#325;" /><glyph d="M383 816H483Q483 755 464.5 705Q446 655 392 655Q357 655 328.5 668.5Q300 682 275 682Q265 682 259 675.5Q253 669 253 659H153Q153 720 171.5 770Q190 820 244 820Q279 820 307.5 806.5Q336 793 361 793Q371 793 377 799.5Q383 806 383 816ZM603 614V0H444L220 307V0H33V614H214L416 328V614Z" glyph-name="Ntilde" horiz-adv-x="636" unicode="&#209;" /><glyph d="M633 307Q633 170 546.5 80Q460 -10 323 -10Q186 -10 100 80Q14 170 14 307Q14 444 100 534Q186 624 323 624Q460 624 546.5 534Q633 444 633 307ZM438 307Q438 376 406 415.5Q374 455 323 455Q272 455 240.5 415.5Q209 376 209 307Q209 238 240.5 198.5Q272 159 323 159Q374 159 406 198.5Q438 238 438 307Z" glyph-name="O" horiz-adv-x="647" unicode="O" /><glyph d="M834 614V449H583V391H811V231H583V166H834V0H330Q181 0 97.5 83.5Q14 167 14 307Q14 447 97.5 530.5Q181 614 330 614ZM340 166H392V449H340Q276 449 240.5 410.5Q205 372 205 307Q205 243 240.5 204.5Q276 166 340 166Z" glyph-name="OE" horiz-adv-x="861" unicode="&#338;" /><glyph d="M414 663H228L313 800H499ZM633 307Q633 170 546.5 80Q460 -10 323 -10Q186 -10 100 80Q14 170 14 307Q14 444 100 534Q186 624 323 624Q460 624 546.5 534Q633 444 633 307ZM438 307Q438 376 406 415.5Q374 455 323 455Q272 455 240.5 415.5Q209 376 209 307Q209 238 240.5 198.5Q272 159 323 159Q374 159 406 198.5Q438 238 438 307Z" glyph-name="Oacute" horiz-adv-x="647" unicode="&#211;" /><glyph d="M323 653Q257 653 213 693Q169 733 169 812H298Q298 793 304.5 784Q311 775 323 775Q336 775 342.5 784Q349 793 349 812H477Q477 733 433 693Q389 653 323 653ZM633 307Q633 170 546.5 80Q460 -10 323 -10Q186 -10 100 80Q14 170 14 307Q14 444 100 534Q186 624 323 624Q460 624 546.5 534Q633 444 633 307ZM438 307Q438 376 406 415.5Q374 455 323 455Q272 455 240.5 415.5Q209 376 209 307Q209 238 240.5 198.5Q272 159 323 159Q374 159 406 198.5Q438 238 438 307Z" glyph-name="Obreve" horiz-adv-x="647" unicode="&#334;" /><glyph d="M633 307Q633 170 546.5 80Q460 -10 323 -10Q186 -10 100 80Q14 170 14 307Q14 444 100 534Q186 624 323 624Q460 624 546.5 534Q633 444 633 307ZM438 307Q438 376 406 415.5Q374 455 323 455Q272 455 240.5 415.5Q209 376 209 307Q209 238 240.5 198.5Q272 159 323 159Q374 159 406 198.5Q438 238 438 307ZM391 800 508 663H359L323 700L287 663H138L255 800Z" glyph-name="Ocircumflex" horiz-adv-x="647" unicode="&#212;" /><glyph d="M331 737Q331 774 357.5 801Q384 828 421 828Q458 828 485 801Q512 774 512 737Q512 700 485 673.5Q458 647 421 647Q384 647 357.5 673.5Q331 700 331 737ZM134 737Q134 774 160.5 801Q187 828 224 828Q261 828 288 801Q315 774 315 737Q315 700 288 673.5Q261 647 224 647Q187 647 160.5 673.5Q134 700 134 737ZM633 307Q633 170 546.5 80Q460 -10 323 -10Q186 -10 100 80Q14 170 14 307Q14 444 100 534Q186 624 323 624Q460 624 546.5 534Q633 444 633 307ZM438 307Q438 376 406 415.5Q374 455 323 455Q272 455 240.5 415.5Q209 376 209 307Q209 238 240.5 198.5Q272 159 323 159Q374 159 406 198.5Q438 238 438 307Z" glyph-name="Odieresis" horiz-adv-x="647" unicode="&#214;" /><glyph d="M423 663H237L152 800H338ZM633 307Q633 170 546.5 80Q460 -10 323 -10Q186 -10 100 80Q14 170 14 307Q14 444 100 534Q186 624 323 624Q460 624 546.5 534Q633 444 633 307ZM438 307Q438 376 406 415.5Q374 455 323 455Q272 455 240.5 415.5Q209 376 209 307Q209 238 240.5 198.5Q272 159 323 159Q374 159 406 198.5Q438 238 438 307Z" glyph-name="Ograve" horiz-adv-x="647" unicode="&#210;" /><glyph d="M633 307Q633 170 546.5 80Q460 -10 323 -10Q186 -10 100 80Q14 170 14 307Q14 444 100 534Q186 624 323 624Q460 624 546.5 534Q633 444 633 307ZM438 307Q438 376 406 415.5Q374 455 323 455Q272 455 240.5 415.5Q209 376 209 307Q209 238 240.5 198.5Q272 159 323 159Q374 159 406 198.5Q438 238 438 307ZM492 663H336L421 800H577ZM306 663H150L235 800H391Z" glyph-name="Ohungarumlaut" horiz-adv-x="647" unicode="&#336;" /><glyph d="M179 663V788H468V663ZM633 307Q633 170 546.5 80Q460 -10 323 -10Q186 -10 100 80Q14 170 14 307Q14 444 100 534Q186 624 323 624Q460 624 546.5 534Q633 444 633 307ZM438 307Q438 376 406 415.5Q374 455 323 455Q272 455 240.5 415.5Q209 376 209 307Q209 238 240.5 198.5Q272 159 323 159Q374 159 406 198.5Q438 238 438 307Z" glyph-name="Omacron" horiz-adv-x="647" unicode="&#332;" /><glyph d="M327 -10Q270 -10 220.5 6.5Q171 23 133 53L72 -10L18 41L81 106Q51 146 34.5 197.5Q18 249 18 307Q18 444 104 534Q190 624 327 624Q384 624 433.5 607.5Q483 591 522 561L583 624L637 573L574 508Q604 468 620.5 416.5Q637 365 637 307Q637 170 550.5 80Q464 -10 327 -10ZM213 307Q213 291 214.5 276.5Q216 262 220 249L396 431Q382 442 364.5 448.5Q347 455 327 455Q276 455 244.5 415.5Q213 376 213 307ZM327 159Q378 159 410 198.5Q442 238 442 307Q442 323 440.5 337Q439 351 435 364L259 183Q273 171 290.5 165Q308 159 327 159Z" glyph-name="Oslash" horiz-adv-x="655" unicode="&#216;" /><glyph d="M327 -10Q270 -10 220.5 6.5Q171 23 133 53L72 -10L18 41L81 106Q51 146 34.5 197.5Q18 249 18 307Q18 444 104 534Q190 624 327 624Q384 624 433.5 607.5Q483 591 522 561L583 624L637 573L574 508Q604 468 620.5 416.5Q637 365 637 307Q637 170 550.5 80Q464 -10 327 -10ZM213 307Q213 291 214.5 276.5Q216 262 220 249L396 431Q382 442 364.5 448.5Q347 455 327 455Q276 455 244.5 415.5Q213 376 213 307ZM327 159Q378 159 410 198.5Q442 238 442 307Q442 323 440.5 337Q439 351 435 364L259 183Q273 171 290.5 165Q308 159 327 159ZM418 663H232L317 800H503Z" glyph-name="Oslashacute" horiz-adv-x="655" unicode="&#510;" /><glyph d="M388 816H488Q488 755 469.5 705Q451 655 397 655Q362 655 333.5 668.5Q305 682 280 682Q270 682 264 675.5Q258 669 258 659H158Q158 720 176.5 770Q195 820 249 820Q284 820 312.5 806.5Q341 793 366 793Q376 793 382 799.5Q388 806 388 816ZM633 307Q633 170 546.5 80Q460 -10 323 -10Q186 -10 100 80Q14 170 14 307Q14 444 100 534Q186 624 323 624Q460 624 546.5 534Q633 444 633 307ZM438 307Q438 376 406 415.5Q374 455 323 455Q272 455 240.5 415.5Q209 376 209 307Q209 238 240.5 198.5Q272 159 323 159Q374 159 406 198.5Q438 238 438 307Z" glyph-name="Otilde" horiz-adv-x="647" unicode="&#213;" /><glyph d="M321 168H224V0H33V614H321Q422 614 487 556Q552 498 552 391Q552 284 487 226Q422 168 321 168ZM295 329Q332 329 348.5 346Q365 363 365 391Q365 419 348.5 436Q332 453 295 453H224V329Z" glyph-name="P" horiz-adv-x="571" unicode="P" /><glyph d="M485 -47 437 12Q411 2 382 -4Q353 -10 323 -10Q186 -10 100 80Q14 170 14 307Q14 444 100 534Q186 624 323 624Q460 624 546.5 534Q633 444 633 307Q633 245 612 191Q591 137 554 95L596 44ZM323 148Q324 148 324.5 148Q325 148 326 148L280 205L392 295L433 245Q436 258 437.5 274Q439 290 439 307Q439 376 406.5 415.5Q374 455 323 455Q272 455 240.5 415.5Q209 376 209 307Q209 238 240.5 193Q272 148 323 148Z" glyph-name="Q" horiz-adv-x="647" unicode="Q" /><glyph d="M224 453V328H306Q343 328 359 345Q375 362 375 390Q375 418 359 435.5Q343 453 306 453ZM33 0V614H332Q433 614 498 555Q563 496 563 390Q563 325 535 277.5Q507 230 458 205L585 0H372L269 176H224V0Z" glyph-name="R" horiz-adv-x="585" unicode="R" /><glyph d="M224 453V328H306Q343 328 359 345Q375 362 375 390Q375 418 359 435.5Q343 453 306 453ZM33 0V614H332Q433 614 498 555Q563 496 563 390Q563 325 535 277.5Q507 230 458 205L585 0H372L269 176H224V0ZM378 663H192L277 800H463Z" glyph-name="Racute" horiz-adv-x="585" unicode="&#340;" /><glyph d="M219 659 102 796H251L287 759L323 796H472L355 659ZM224 453V328H306Q343 328 359 345Q375 362 375 390Q375 418 359 435.5Q343 453 306 453ZM33 0V614H332Q433 614 498 555Q563 496 563 390Q563 325 535 277.5Q507 230 458 205L585 0H372L269 176H224V0Z" glyph-name="Rcaron" horiz-adv-x="585" unicode="&#344;" /><glyph d="M186 -247 240 -181Q221 -173 207 -154Q193 -135 193 -107Q193 -72 219 -49Q245 -26 285 -26Q321 -26 349 -49Q377 -72 377 -114Q377 -142 364 -165Q351 -188 332 -211L302 -247ZM224 453V328H306Q343 328 359 345Q375 362 375 390Q375 418 359 435.5Q343 453 306 453ZM33 0V614H332Q433 614 498 555Q563 496 563 390Q563 325 535 277.5Q507 230 458 205L585 0H372L269 176H224V0Z" glyph-name="Rcommaaccent" horiz-adv-x="585" unicode="&#342;" /><glyph d="M25 38V209Q64 185 118.5 166.5Q173 148 224 148Q254 148 279.5 153Q305 158 305 180Q305 194 296.5 200Q288 206 272 210L178 234Q91 257 49.5 301.5Q8 346 8 422Q8 520 79.5 572Q151 624 255 624Q323 624 369.5 611.5Q416 599 455 580V408Q412 436 364 451.5Q316 467 265 467Q237 467 218.5 461Q200 455 200 440Q200 427 209 420.5Q218 414 234 410L322 386Q413 360 456.5 312.5Q500 265 500 193Q500 85 419 37.5Q338 -10 230 -10Q169 -10 114.5 4.5Q60 19 25 38Z" glyph-name="S" horiz-adv-x="508" unicode="S" /><glyph d="M25 38V209Q64 185 118.5 166.5Q173 148 224 148Q254 148 279.5 153Q305 158 305 180Q305 194 296.5 200Q288 206 272 210L178 234Q91 257 49.5 301.5Q8 346 8 422Q8 520 79.5 572Q151 624 255 624Q323 624 369.5 611.5Q416 599 455 580V408Q412 436 364 451.5Q316 467 265 467Q237 467 218.5 461Q200 455 200 440Q200 427 209 420.5Q218 414 234 410L322 386Q413 360 456.5 312.5Q500 265 500 193Q500 85 419 37.5Q338 -10 230 -10Q169 -10 114.5 4.5Q60 19 25 38ZM351 663H165L250 800H436Z" glyph-name="Sacute" horiz-adv-x="508" unicode="&#346;" /><glyph d="M25 38V209Q64 185 118.5 166.5Q173 148 224 148Q254 148 279.5 153Q305 158 305 180Q305 194 296.5 200Q288 206 272 210L178 234Q91 257 49.5 301.5Q8 346 8 422Q8 520 79.5 572Q151 624 255 624Q323 624 369.5 611.5Q416 599 455 580V408Q412 436 364 451.5Q316 467 265 467Q237 467 218.5 461Q200 455 200 440Q200 427 209 420.5Q218 414 234 410L322 386Q413 360 456.5 312.5Q500 265 500 193Q500 85 419 37.5Q338 -10 230 -10Q169 -10 114.5 4.5Q60 19 25 38ZM192 659 75 796H224L260 759L296 796H445L328 659Z" glyph-name="Scaron" horiz-adv-x="508" unicode="&#352;" /><glyph d="M25 38V209Q64 185 118.5 166.5Q173 148 224 148Q254 148 279.5 153Q305 158 305 180Q305 194 296.5 200Q288 206 272 210L178 234Q91 257 49.5 301.5Q8 346 8 422Q8 520 79.5 572Q151 624 255 624Q323 624 369.5 611.5Q416 599 455 580V408Q412 436 364 451.5Q316 467 265 467Q237 467 218.5 461Q200 455 200 440Q200 427 209 420.5Q218 414 234 410L322 386Q413 360 456.5 312.5Q500 265 500 193Q500 85 419 37.5Q338 -10 230 -10Q169 -10 114.5 4.5Q60 19 25 38ZM239 -175H83L150 -32H306Z" glyph-name="Scedilla" horiz-adv-x="508" unicode="&#350;" /><glyph d="M25 38V209Q64 185 118.5 166.5Q173 148 224 148Q254 148 279.5 153Q305 158 305 180Q305 194 296.5 200Q288 206 272 210L178 234Q91 257 49.5 301.5Q8 346 8 422Q8 520 79.5 572Q151 624 255 624Q323 624 369.5 611.5Q416 599 455 580V408Q412 436 364 451.5Q316 467 265 467Q237 467 218.5 461Q200 455 200 440Q200 427 209 420.5Q218 414 234 410L322 386Q413 360 456.5 312.5Q500 265 500 193Q500 85 419 37.5Q338 -10 230 -10Q169 -10 114.5 4.5Q60 19 25 38ZM328 800 445 663H296L260 700L224 663H75L192 800Z" glyph-name="Scircumflex" horiz-adv-x="508" unicode="&#348;" /><glyph d="M139 -247 193 -181Q174 -173 160 -154Q146 -135 146 -107Q146 -72 172 -49Q198 -26 238 -26Q274 -26 302 -49Q330 -72 330 -114Q330 -142 317 -165Q304 -188 285 -211L255 -247ZM25 38V209Q64 185 118.5 166.5Q173 148 224 148Q254 148 279.5 153Q305 158 305 180Q305 194 296.5 200Q288 206 272 210L178 234Q91 257 49.5 301.5Q8 346 8 422Q8 520 79.5 572Q151 624 255 624Q323 624 369.5 611.5Q416 599 455 580V408Q412 436 364 451.5Q316 467 265 467Q237 467 218.5 461Q200 455 200 440Q200 427 209 420.5Q218 414 234 410L322 386Q413 360 456.5 312.5Q500 265 500 193Q500 85 419 37.5Q338 -10 230 -10Q169 -10 114.5 4.5Q60 19 25 38Z" glyph-name="Scommaaccent" horiz-adv-x="508" unicode="&#536;" /><glyph d="M14 449V614H570V449H389V0H195V449Z" glyph-name="T" horiz-adv-x="584" unicode="T" /><glyph d="M469 209H389V0H195V209H115V364H195V449H14V614H570V449H389V364H469Z" glyph-name="Tbar" horiz-adv-x="584" unicode="&#358;" /><glyph d="M224 659 107 796H256L292 759L328 796H477L360 659ZM14 449V614H570V449H389V0H195V449Z" glyph-name="Tcaron" horiz-adv-x="584" unicode="&#356;" /><glyph d="M191 -247 245 -181Q226 -173 212 -154Q198 -135 198 -107Q198 -72 224 -49Q250 -26 290 -26Q326 -26 354 -49Q382 -72 382 -114Q382 -142 369 -165Q356 -188 337 -211L307 -247ZM14 449V614H570V449H389V0H195V449Z" glyph-name="Tcommaaccent" horiz-adv-x="584" unicode="&#354;" /><glyph d="M321 89H224V0H33V614H224V535H321Q422 535 487 477Q552 419 552 312Q552 205 487 147Q422 89 321 89ZM295 250Q332 250 348.5 267Q365 284 365 312Q365 340 348.5 357Q332 374 295 374H224V250Z" glyph-name="Thorn" horiz-adv-x="571" unicode="&#222;" /><glyph d="M308 -10Q180 -10 104 59Q28 128 28 254V614H221V271Q221 220 245 191.5Q269 163 308 163Q347 163 371 191.5Q395 220 395 271V614H588V254Q588 128 512 59Q436 -10 308 -10Z" glyph-name="U" horiz-adv-x="616" unicode="U" /><glyph d="M399 663H213L298 800H484ZM308 -10Q180 -10 104 59Q28 128 28 254V614H221V271Q221 220 245 191.5Q269 163 308 163Q347 163 371 191.5Q395 220 395 271V614H588V254Q588 128 512 59Q436 -10 308 -10Z" glyph-name="Uacute" horiz-adv-x="616" unicode="&#218;" /><glyph d="M308 653Q242 653 198 693Q154 733 154 812H283Q283 793 289.5 784Q296 775 308 775Q321 775 327.5 784Q334 793 334 812H462Q462 733 418 693Q374 653 308 653ZM308 -10Q180 -10 104 59Q28 128 28 254V614H221V271Q221 220 245 191.5Q269 163 308 163Q347 163 371 191.5Q395 220 395 271V614H588V254Q588 128 512 59Q436 -10 308 -10Z" glyph-name="Ubreve" horiz-adv-x="616" unicode="&#364;" /><glyph d="M308 -10Q180 -10 104 59Q28 128 28 254V614H221V271Q221 220 245 191.5Q269 163 308 163Q347 163 371 191.5Q395 220 395 271V614H588V254Q588 128 512 59Q436 -10 308 -10ZM376 800 493 663H344L308 700L272 663H123L240 800Z" glyph-name="Ucircumflex" horiz-adv-x="616" unicode="&#219;" /><glyph d="M316 737Q316 774 342.5 801Q369 828 406 828Q443 828 470 801Q497 774 497 737Q497 700 470 673.5Q443 647 406 647Q369 647 342.5 673.5Q316 700 316 737ZM119 737Q119 774 145.5 801Q172 828 209 828Q246 828 273 801Q300 774 300 737Q300 700 273 673.5Q246 647 209 647Q172 647 145.5 673.5Q119 700 119 737ZM308 -10Q180 -10 104 59Q28 128 28 254V614H221V271Q221 220 245 191.5Q269 163 308 163Q347 163 371 191.5Q395 220 395 271V614H588V254Q588 128 512 59Q436 -10 308 -10Z" glyph-name="Udieresis" horiz-adv-x="616" unicode="&#220;" /><glyph d="M408 663H222L137 800H323ZM308 -10Q180 -10 104 59Q28 128 28 254V614H221V271Q221 220 245 191.5Q269 163 308 163Q347 163 371 191.5Q395 220 395 271V614H588V254Q588 128 512 59Q436 -10 308 -10Z" glyph-name="Ugrave" horiz-adv-x="616" unicode="&#217;" /><glyph d="M308 -10Q180 -10 104 59Q28 128 28 254V614H221V271Q221 220 245 191.5Q269 163 308 163Q347 163 371 191.5Q395 220 395 271V614H588V254Q588 128 512 59Q436 -10 308 -10ZM477 663H321L406 800H562ZM291 663H135L220 800H376Z" glyph-name="Uhungarumlaut" horiz-adv-x="616" unicode="&#368;" /><glyph d="M164 663V788H453V663ZM308 -10Q180 -10 104 59Q28 128 28 254V614H221V271Q221 220 245 191.5Q269 163 308 163Q347 163 371 191.5Q395 220 395 271V614H588V254Q588 128 512 59Q436 -10 308 -10Z" glyph-name="Umacron" horiz-adv-x="616" unicode="&#362;" /><glyph d="M308 -10Q180 -10 104 59Q28 128 28 254V614H221V271Q221 220 245 191.5Q269 163 308 163Q347 163 371 191.5Q395 220 395 271V614H588V254Q588 174 557 119Q526 64 470 28Q422 -3 402.5 -27.5Q383 -52 383 -62Q383 -69 388 -73.5Q393 -78 402 -78Q410 -78 417 -75Q424 -72 436 -65V-165Q422 -172 405.5 -177Q389 -182 367 -182Q327 -182 296 -162Q265 -142 265 -99Q265 -74 278 -52.5Q291 -31 311 -10Z" glyph-name="Uogonek" horiz-adv-x="616" unicode="&#370;" /><glyph d="M308 -10Q180 -10 104 59Q28 128 28 254V614H221V271Q221 220 245 191.5Q269 163 308 163Q347 163 371 191.5Q395 220 395 271V614H588V254Q588 128 512 59Q436 -10 308 -10ZM425 751Q425 704 391 671Q357 638 308 638Q259 638 225 671Q191 704 191 751Q191 798 225 831.5Q259 865 308 865Q357 865 391 831.5Q425 798 425 751ZM341 751Q341 764 332 774Q323 784 308 784Q294 784 285 774Q276 764 276 751Q276 738 285 728.5Q294 719 308 719Q323 719 332 728.5Q341 738 341 751Z" glyph-name="Uring" horiz-adv-x="616" unicode="&#366;" /><glyph d="M373 816H473Q473 755 454.5 705Q436 655 382 655Q347 655 318.5 668.5Q290 682 265 682Q255 682 249 675.5Q243 669 243 659H143Q143 720 161.5 770Q180 820 234 820Q269 820 297.5 806.5Q326 793 351 793Q361 793 367 799.5Q373 806 373 816ZM308 -10Q180 -10 104 59Q28 128 28 254V614H221V271Q221 220 245 191.5Q269 163 308 163Q347 163 371 191.5Q395 220 395 271V614H588V254Q588 128 512 59Q436 -10 308 -10Z" glyph-name="Utilde" horiz-adv-x="616" unicode="&#360;" /><glyph d="M418 0H227L0 614H208L326 265L445 614H645Z" glyph-name="V" horiz-adv-x="645" unicode="V" /><glyph d="M353 614H497L578 306L649 614H846L682 0H506L423 314L339 0H163L0 614H200L272 306Z" glyph-name="W" horiz-adv-x="846" unicode="W" /><glyph d="M514 663H328L413 800H599ZM353 614H497L578 306L649 614H846L682 0H506L423 314L339 0H163L0 614H200L272 306Z" glyph-name="Wacute" horiz-adv-x="846" unicode="&#7810;" /><glyph d="M353 614H497L578 306L649 614H846L682 0H506L423 314L339 0H163L0 614H200L272 306ZM491 800 608 663H459L423 700L387 663H238L355 800Z" glyph-name="Wcircumflex" horiz-adv-x="846" unicode="&#372;" /><glyph d="M431 737Q431 774 457.5 801Q484 828 521 828Q558 828 585 801Q612 774 612 737Q612 700 585 673.5Q558 647 521 647Q484 647 457.5 673.5Q431 700 431 737ZM234 737Q234 774 260.5 801Q287 828 324 828Q361 828 388 801Q415 774 415 737Q415 700 388 673.5Q361 647 324 647Q287 647 260.5 673.5Q234 700 234 737ZM353 614H497L578 306L649 614H846L682 0H506L423 314L339 0H163L0 614H200L272 306Z" glyph-name="Wdieresis" horiz-adv-x="846" unicode="&#7812;" /><glyph d="M523 663H337L252 800H438ZM353 614H497L578 306L649 614H846L682 0H506L423 314L339 0H163L0 614H200L272 306Z" glyph-name="Wgrave" horiz-adv-x="846" unicode="&#7808;" /><glyph d="M613 614 422 314 623 0H409L308 165L208 0H-1L200 314L9 614H223L313 463L405 614Z" glyph-name="X" horiz-adv-x="622" unicode="X" /><glyph d="M320 395 430 614H632L412 202V0H217V202L0 614H210Z" glyph-name="Y" horiz-adv-x="632" unicode="Y" /><glyph d="M320 395 430 614H632L412 202V0H217V202L0 614H210ZM407 663H221L306 800H492Z" glyph-name="Yacute" horiz-adv-x="632" unicode="&#221;" /><glyph d="M320 395 430 614H632L412 202V0H217V202L0 614H210ZM384 800 501 663H352L316 700L280 663H131L248 800Z" glyph-name="Ycircumflex" horiz-adv-x="632" unicode="&#374;" /><glyph d="M320 395 430 614H632L412 202V0H217V202L0 614H210ZM324 737Q324 774 350.5 801Q377 828 414 828Q451 828 478 801Q505 774 505 737Q505 700 478 673.5Q451 647 414 647Q377 647 350.5 673.5Q324 700 324 737ZM127 737Q127 774 153.5 801Q180 828 217 828Q254 828 281 801Q308 774 308 737Q308 700 281 673.5Q254 647 217 647Q180 647 153.5 673.5Q127 700 127 737Z" glyph-name="Ydieresis" horiz-adv-x="632" unicode="&#376;" /><glyph d="M320 395 430 614H632L412 202V0H217V202L0 614H210ZM416 663H230L145 800H331Z" glyph-name="Ygrave" horiz-adv-x="632" unicode="&#7922;" /><glyph d="M541 166V0H13V4L254 449H24V614H544V610L309 166Z" glyph-name="Z" horiz-adv-x="563" unicode="Z" /><glyph d="M541 166V0H13V4L254 449H24V614H544V610L309 166ZM369 663H183L268 800H454Z" glyph-name="Zacute" horiz-adv-x="563" unicode="&#377;" /><glyph d="M210 659 93 796H242L278 759L314 796H463L346 659ZM541 166V0H13V4L254 449H24V614H544V610L309 166Z" glyph-name="Zcaron" horiz-adv-x="563" unicode="&#381;" /><glyph d="M383 751Q383 705 352 679Q321 653 278 653Q235 653 204 679Q173 705 173 751Q173 797 204 823Q235 849 278 849Q321 849 352 823Q383 797 383 751ZM541 166V0H13V4L254 449H24V614H544V610L309 166Z" glyph-name="Zdotaccent" horiz-adv-x="563" unicode="&#379;" /><glyph glyph-name="_229" horiz-adv-x="0" /><glyph d="M278 131V151Q271 161 258.5 167Q246 173 230 173Q214 173 200 165Q186 157 186 141Q186 125 200 117Q214 109 230 109Q246 109 258.5 115Q271 121 278 131ZM278 256V264Q278 283 256 298Q234 313 185 313Q156 313 122.5 305.5Q89 298 63 284V430Q94 444 139 454Q184 464 235 464Q342 464 401.5 415.5Q461 367 461 270V0H278V22Q267 11 238 1.5Q209 -8 173 -8Q108 -8 59 28.5Q10 65 10 137Q10 203 60.5 241.5Q111 280 183 280Q210 280 237.5 273Q265 266 278 256Z" glyph-name="a" horiz-adv-x="490" unicode="a" /><glyph d="M278 131V151Q271 161 258.5 167Q246 173 230 173Q214 173 200 165Q186 157 186 141Q186 125 200 117Q214 109 230 109Q246 109 258.5 115Q271 121 278 131ZM278 256V264Q278 283 256 298Q234 313 185 313Q156 313 122.5 305.5Q89 298 63 284V430Q94 444 139 454Q184 464 235 464Q342 464 401.5 415.5Q461 367 461 270V0H278V22Q267 11 238 1.5Q209 -8 173 -8Q108 -8 59 28.5Q10 65 10 137Q10 203 60.5 241.5Q111 280 183 280Q210 280 237.5 273Q265 266 278 256ZM333 493H157L242 650H418Z" glyph-name="aacute" horiz-adv-x="490" unicode="&#225;" /><glyph d="M278 131V151Q271 161 258.5 167Q246 173 230 173Q214 173 200 165Q186 157 186 141Q186 125 200 117Q214 109 230 109Q246 109 258.5 115Q271 121 278 131ZM278 256V264Q278 283 256 298Q234 313 185 313Q156 313 122.5 305.5Q89 298 63 284V430Q94 444 139 454Q184 464 235 464Q342 464 401.5 415.5Q461 367 461 270V0H278V22Q267 11 238 1.5Q209 -8 173 -8Q108 -8 59 28.5Q10 65 10 137Q10 203 60.5 241.5Q111 280 183 280Q210 280 237.5 273Q265 266 278 256ZM249 484Q183 484 139 524Q95 564 95 643H224Q224 624 230.5 615Q237 606 249 606Q262 606 268.5 615Q275 624 275 643H403Q403 564 359 524Q315 484 249 484Z" glyph-name="abreve" horiz-adv-x="490" unicode="&#259;" /><glyph d="M278 131V151Q271 161 258.5 167Q246 173 230 173Q214 173 200 165Q186 157 186 141Q186 125 200 117Q214 109 230 109Q246 109 258.5 115Q271 121 278 131ZM278 256V264Q278 283 256 298Q234 313 185 313Q156 313 122.5 305.5Q89 298 63 284V430Q94 444 139 454Q184 464 235 464Q342 464 401.5 415.5Q461 367 461 270V0H278V22Q267 11 238 1.5Q209 -8 173 -8Q108 -8 59 28.5Q10 65 10 137Q10 203 60.5 241.5Q111 280 183 280Q210 280 237.5 273Q265 266 278 256ZM317 650 414 493H279L249 534L219 493H84L181 650Z" glyph-name="acircumflex" horiz-adv-x="490" unicode="&#226;" /><glyph d="M295 493H119L204 650H380Z" glyph-name="acute" horiz-adv-x="500" unicode="&#180;" /><glyph d="M300 663H114L199 800H385Z" glyph-name="acute.cap" horiz-adv-x="500" /><glyph d="M278 131V151Q271 161 258.5 167Q246 173 230 173Q214 173 200 165Q186 157 186 141Q186 125 200 117Q214 109 230 109Q246 109 258.5 115Q271 121 278 131ZM278 256V264Q278 283 256 298Q234 313 185 313Q156 313 122.5 305.5Q89 298 63 284V430Q94 444 139 454Q184 464 235 464Q342 464 401.5 415.5Q461 367 461 270V0H278V22Q267 11 238 1.5Q209 -8 173 -8Q108 -8 59 28.5Q10 65 10 137Q10 203 60.5 241.5Q111 280 183 280Q210 280 237.5 273Q265 266 278 256ZM257 564Q257 600 282.5 626Q308 652 344 652Q380 652 406 626Q432 600 432 564Q432 528 406 502.5Q380 477 344 477Q308 477 282.5 502.5Q257 528 257 564ZM67 564Q67 600 92.5 626Q118 652 154 652Q190 652 216 626Q242 600 242 564Q242 528 216 502.5Q190 477 154 477Q118 477 92.5 502.5Q67 528 67 564Z" glyph-name="adieresis" horiz-adv-x="490" unicode="&#228;" /><glyph d="M515 -10Q463 -10 420 3Q377 16 344 41Q313 19 274 4.5Q235 -10 177 -10Q113 -10 62 26.5Q11 63 11 130Q11 202 69.5 239.5Q128 277 209 277H273V279Q266 293 244.5 304.5Q223 316 183 316Q154 316 122.5 307Q91 298 65 284V430Q96 444 138 454Q180 464 227 464Q273 464 307.5 454Q342 444 366 422Q389 441 422.5 452.5Q456 464 491 464Q598 464 654.5 399.5Q711 335 711 234V183H439Q452 157 480.5 146Q509 135 546 135Q581 135 611.5 142Q642 149 678 168V30Q653 12 609.5 1Q566 -10 515 -10ZM493 328Q470 328 456 313.5Q442 299 436 277H544Q541 299 528 313.5Q515 328 493 328ZM224 123Q242 123 255.5 129Q269 135 276 145V183H228Q210 183 197 175.5Q184 168 184 152Q184 137 196 130Q208 123 224 123Z" glyph-name="ae" horiz-adv-x="724" unicode="&#230;" /><glyph d="M469 493H293L378 650H554ZM515 -10Q463 -10 420 3Q377 16 344 41Q313 19 274 4.5Q235 -10 177 -10Q113 -10 62 26.5Q11 63 11 130Q11 202 69.5 239.5Q128 277 209 277H273V279Q266 293 244.5 304.5Q223 316 183 316Q154 316 122.5 307Q91 298 65 284V430Q96 444 138 454Q180 464 227 464Q273 464 307.5 454Q342 444 366 422Q389 441 422.5 452.5Q456 464 491 464Q598 464 654.5 399.5Q711 335 711 234V183H439Q452 157 480.5 146Q509 135 546 135Q581 135 611.5 142Q642 149 678 168V30Q653 12 609.5 1Q566 -10 515 -10ZM493 328Q470 328 456 313.5Q442 299 436 277H544Q541 299 528 313.5Q515 328 493 328ZM224 123Q242 123 255.5 129Q269 135 276 145V183H228Q210 183 197 175.5Q184 168 184 152Q184 137 196 130Q208 123 224 123Z" glyph-name="aeacute" horiz-adv-x="724" unicode="&#509;" /><glyph d="M278 131V151Q271 161 258.5 167Q246 173 230 173Q214 173 200 165Q186 157 186 141Q186 125 200 117Q214 109 230 109Q246 109 258.5 115Q271 121 278 131ZM278 256V264Q278 283 256 298Q234 313 185 313Q156 313 122.5 305.5Q89 298 63 284V430Q94 444 139 454Q184 464 235 464Q342 464 401.5 415.5Q461 367 461 270V0H278V22Q267 11 238 1.5Q209 -8 173 -8Q108 -8 59 28.5Q10 65 10 137Q10 203 60.5 241.5Q111 280 183 280Q210 280 237.5 273Q265 266 278 256ZM340 493H164L79 650H255Z" glyph-name="agrave" horiz-adv-x="490" unicode="&#224;" /><glyph d="M278 131V151Q271 161 258.5 167Q246 173 230 173Q214 173 200 165Q186 157 186 141Q186 125 200 117Q214 109 230 109Q246 109 258.5 115Q271 121 278 131ZM278 256V264Q278 283 256 298Q234 313 185 313Q156 313 122.5 305.5Q89 298 63 284V430Q94 444 139 454Q184 464 235 464Q342 464 401.5 415.5Q461 367 461 270V0H278V22Q267 11 238 1.5Q209 -8 173 -8Q108 -8 59 28.5Q10 65 10 137Q10 203 60.5 241.5Q111 280 183 280Q210 280 237.5 273Q265 266 278 256ZM115 493V618H384V493Z" glyph-name="amacron" horiz-adv-x="490" unicode="&#257;" /><glyph d="M249 134Q258 134 267 135.5Q276 137 285 139L207 229Q200 222 196 211.5Q192 201 192 188Q192 166 206.5 150Q221 134 249 134ZM407 0 385 25Q351 8 315.5 -1Q280 -10 245 -10Q144 -10 82 41.5Q20 93 20 188Q20 237 43.5 279.5Q67 322 109 348Q96 370 90 392.5Q84 415 84 439Q84 523 144.5 573.5Q205 624 304 624Q347 624 389 610.5Q431 597 453 577V419Q429 438 395 454.5Q361 471 323 471Q295 471 283 460Q271 449 271 434Q271 418 281 403Q291 388 303 374L401 254Q407 271 410.5 290.5Q414 310 414 332H578Q578 272 559 219.5Q540 167 507 125L610 0Z" glyph-name="ampersand" horiz-adv-x="610" unicode="&amp;" /><glyph d="M346 0H278V22Q267 11 238 1.5Q209 -8 173 -8Q108 -8 59 28.5Q10 65 10 137Q10 203 60.5 241.5Q111 280 183 280Q210 280 237.5 273Q265 266 278 256V264Q278 283 256 298Q234 313 185 313Q156 313 122.5 305.5Q89 298 63 284V430Q94 444 139 454Q184 464 235 464Q342 464 401.5 415.5Q461 367 461 270V0Q429 -31 418.5 -41.5Q408 -52 408 -62Q408 -69 413 -73.5Q418 -78 427 -78Q435 -78 442 -75Q449 -72 461 -65V-165Q447 -172 430.5 -177Q414 -182 392 -182Q352 -182 321 -162Q290 -142 290 -99Q290 -71 306 -47.5Q322 -24 346 0ZM278 131V151Q271 161 258.5 167Q246 173 230 173Q214 173 200 165Q186 157 186 141Q186 125 200 117Q214 109 230 109Q246 109 258.5 115Q271 121 278 131Z" glyph-name="aogonek" horiz-adv-x="490" unicode="&#261;" /><glyph d="M48 311V438Q82 460 114.5 470Q147 480 175 480Q235 480 283.5 459.5Q332 439 392 439Q421 439 454 448.5Q487 458 523 482V354Q487 332 454 322Q421 312 392 312Q332 312 283.5 332.5Q235 353 175 353Q147 353 114.5 343Q82 333 48 311ZM48 118V245Q82 268 114.5 278Q147 288 175 288Q235 288 283.5 267Q332 246 392 246Q421 246 454 256Q487 266 523 289V161Q487 139 454 129Q421 119 392 119Q332 119 283.5 140Q235 161 175 161Q147 161 114.5 150.5Q82 140 48 118Z" glyph-name="approxequal" horiz-adv-x="571" unicode="&#8776;" /><glyph d="M22 311V438Q56 460 88.5 470Q121 480 149 480Q209 480 257.5 459.5Q306 439 366 439Q395 439 428 448.5Q461 458 497 482V354Q461 332 428 322Q395 312 366 312Q306 312 257.5 332.5Q209 353 149 353Q121 353 88.5 343Q56 333 22 311ZM22 118V245Q56 268 88.5 278Q121 288 149 288Q209 288 257.5 267Q306 246 366 246Q395 246 428 256Q461 266 497 289V161Q461 139 428 129Q395 119 366 119Q306 119 257.5 140Q209 161 149 161Q121 161 88.5 150.5Q56 140 22 118Z" glyph-name="approxequal.lt" horiz-adv-x="520" /><glyph d="M278 131V151Q271 161 258.5 167Q246 173 230 173Q214 173 200 165Q186 157 186 141Q186 125 200 117Q214 109 230 109Q246 109 258.5 115Q271 121 278 131ZM278 256V264Q278 283 256 298Q234 313 185 313Q156 313 122.5 305.5Q89 298 63 284V430Q94 444 139 454Q184 464 235 464Q342 464 401.5 415.5Q461 367 461 270V0H278V22Q267 11 238 1.5Q209 -8 173 -8Q108 -8 59 28.5Q10 65 10 137Q10 203 60.5 241.5Q111 280 183 280Q210 280 237.5 273Q265 266 278 256ZM366 595Q366 548 332 515Q298 482 249 482Q200 482 166 515Q132 548 132 595Q132 642 166 675.5Q200 709 249 709Q298 709 332 675.5Q366 642 366 595ZM282 595Q282 608 273 618Q264 628 249 628Q235 628 226 618Q217 608 217 595Q217 582 226 572.5Q235 563 249 563Q264 563 273 572.5Q282 582 282 595Z" glyph-name="aring" horiz-adv-x="490" unicode="&#229;" /><glyph d="M336 679H150L219 790H405ZM355 571Q355 534 322.5 507Q290 480 241 480Q192 480 159.5 507Q127 534 127 571Q127 609 159.5 636Q192 663 241 663Q290 663 322.5 636Q355 609 355 571ZM274 571Q274 582 265 590.5Q256 599 241 599Q226 599 217 590.5Q208 582 208 571Q208 561 217 552.5Q226 544 241 544Q256 544 265 552.5Q274 561 274 571ZM278 131V151Q271 161 258.5 167Q246 173 230 173Q214 173 200 165Q186 157 186 141Q186 125 200 117Q214 109 230 109Q246 109 258.5 115Q271 121 278 131ZM278 256V264Q278 283 256 298Q234 313 185 313Q156 313 122.5 305.5Q89 298 63 284V430Q94 444 139 454Q184 464 235 464Q342 464 401.5 415.5Q461 367 461 270V0H278V22Q267 11 238 1.5Q209 -8 173 -8Q108 -8 59 28.5Q10 65 10 137Q10 203 60.5 241.5Q111 280 183 280Q210 280 237.5 273Q265 266 278 256Z" glyph-name="aringacute" horiz-adv-x="490" unicode="&#507;" /><glyph d="M156 614H300L446 358H292L228 482L164 358H10Z" glyph-name="asciicircum" horiz-adv-x="456" unicode="^" /><glyph d="M291 363H400Q400 281 370 235Q340 189 286 189Q239 189 217 215Q195 241 168 241Q152 241 143 230Q134 219 134 194H25Q25 276 55 322.5Q85 369 140 369Q186 369 209 343Q232 317 258 317Q275 317 283 327.5Q291 338 291 363Z" glyph-name="asciitilde" horiz-adv-x="425" unicode="~" /><glyph d="M86 500 20 538 63 612 128 574V650H214V574L279 612L322 538L256 500L322 462L279 388L214 426V350H128V426L63 388L20 462Z" glyph-name="asterisk" horiz-adv-x="342" unicode="*" /><glyph d="M586 396 542 146Q539 128 544.5 119Q550 110 564 110Q607 110 631.5 152Q656 194 656 274Q656 379 581.5 436.5Q507 494 398 494Q266 494 183 409.5Q100 325 100 190Q100 34 199.5 -22Q299 -78 399 -78Q468 -78 522 -64.5Q576 -51 623 -30V-107Q586 -126 526.5 -140Q467 -154 399 -154Q253 -154 134 -72Q15 10 15 190Q15 347 121 459Q227 571 398 571Q547 571 641 485.5Q735 400 735 274Q735 152 673 89Q611 26 520 26Q486 26 453.5 38Q421 50 400 75Q382 51 354.5 40.5Q327 30 298 30Q231 30 196 75Q161 120 161 186Q161 272 211.5 337.5Q262 403 348 403Q374 403 398.5 393Q423 383 433 367L438 396ZM399 181 411 252Q409 263 398 270Q387 277 373 277Q349 277 331 256Q313 235 313 201Q313 181 323 168Q333 155 355 155Q371 155 382 162.5Q393 170 399 181Z" glyph-name="at" horiz-adv-x="750" unicode="@" /><glyph d="M586 488 542 238Q539 220 544.5 211Q550 202 564 202Q607 202 631.5 244Q656 286 656 366Q656 471 581.5 528.5Q507 586 398 586Q266 586 183 501.5Q100 417 100 282Q100 126 199.5 70Q299 14 399 14Q468 14 522 27.5Q576 41 623 62V-15Q586 -34 526.5 -48Q467 -62 399 -62Q253 -62 134 20Q15 102 15 282Q15 439 121 551Q227 663 398 663Q547 663 641 577.5Q735 492 735 366Q735 244 673 181Q611 118 520 118Q486 118 453.5 130Q421 142 400 167Q382 143 354.5 132.5Q327 122 298 122Q231 122 196 167Q161 212 161 278Q161 364 211.5 429.5Q262 495 348 495Q374 495 398.5 485Q423 475 433 459L438 488ZM399 273 411 344Q409 355 398 362Q387 369 373 369Q349 369 331 348Q313 327 313 293Q313 273 323 260Q333 247 355 247Q371 247 382 254.5Q393 262 399 273Z" glyph-name="at.cap" horiz-adv-x="750" /><glyph d="M278 131V151Q271 161 258.5 167Q246 173 230 173Q214 173 200 165Q186 157 186 141Q186 125 200 117Q214 109 230 109Q246 109 258.5 115Q271 121 278 131ZM278 256V264Q278 283 256 298Q234 313 185 313Q156 313 122.5 305.5Q89 298 63 284V430Q94 444 139 454Q184 464 235 464Q342 464 401.5 415.5Q461 367 461 270V0H278V22Q267 11 238 1.5Q209 -8 173 -8Q108 -8 59 28.5Q10 65 10 137Q10 203 60.5 241.5Q111 280 183 280Q210 280 237.5 273Q265 266 278 256ZM304 650H404Q404 589 385.5 539Q367 489 313 489Q278 489 259.5 502.5Q241 516 216 516Q206 516 200 509.5Q194 503 194 493H94Q94 554 112.5 604Q131 654 185 654Q220 654 238.5 640.5Q257 627 282 627Q292 627 298 633.5Q304 640 304 650Z" glyph-name="atilde" horiz-adv-x="490" unicode="&#227;" /><glyph d="M221 35V0H31V650H221V419Q237 436 267 450Q297 464 331 464Q427 464 477.5 394.5Q528 325 528 227Q528 129 477.5 59.5Q427 -10 331 -10Q297 -10 267 4Q237 18 221 35ZM221 272V182Q227 168 241 159Q255 150 274 150Q304 150 321 172Q338 194 338 227Q338 260 321 282Q304 304 274 304Q256 304 241.5 295Q227 286 221 272Z" glyph-name="b" horiz-adv-x="539" unicode="b" /><glyph d="M162 650 410 -84H253L5 650Z" glyph-name="backslash" horiz-adv-x="415" unicode="\" /><glyph d="M162 670 410 -64H253L5 670Z" glyph-name="backslash.cap" horiz-adv-x="415" /><glyph d="M33 -84V650H184V-84Z" glyph-name="bar" horiz-adv-x="217" unicode="|" /><glyph d="M33 -64V670H184V-64Z" glyph-name="bar.cap" horiz-adv-x="217" /><glyph d="M258 200V98Q258 84 265.5 76.5Q273 69 287 69H359V-84H218Q161 -84 125 -47.5Q89 -11 89 46V178Q89 192 81.5 199.5Q74 207 60 207H20V359H60Q74 359 81.5 366.5Q89 374 89 388V520Q89 577 125 613.5Q161 650 218 650H359V497H287Q273 497 265.5 489.5Q258 482 258 468V366Q258 334 244 314.5Q230 295 211 283Q230 271 244 251.5Q258 232 258 200Z" glyph-name="braceleft" horiz-adv-x="379" unicode="{" /><glyph d="M258 220V118Q258 104 265.5 96.5Q273 89 287 89H359V-64H218Q161 -64 125 -27.5Q89 9 89 66V198Q89 212 81.5 219.5Q74 227 60 227H20V379H60Q74 379 81.5 386.5Q89 394 89 408V540Q89 597 125 633.5Q161 670 218 670H359V517H287Q273 517 265.5 509.5Q258 502 258 488V386Q258 354 244 334.5Q230 315 211 303Q230 291 244 271.5Q258 252 258 220Z" glyph-name="braceleft.cap" horiz-adv-x="379" /><glyph d="M121 98V200Q121 232 135 251.5Q149 271 168 283Q149 295 135 314.5Q121 334 121 366V468Q121 482 113.5 489.5Q106 497 92 497H20V650H161Q218 650 254 613.5Q290 577 290 520V388Q290 374 297.5 366.5Q305 359 319 359H359V207H319Q305 207 297.5 199.5Q290 192 290 178V46Q290 -11 254 -47.5Q218 -84 161 -84H20V69H92Q106 69 113.5 76.5Q121 84 121 98Z" glyph-name="braceright" horiz-adv-x="379" unicode="}" /><glyph d="M121 118V220Q121 252 135 271.5Q149 291 168 303Q149 315 135 334.5Q121 354 121 386V488Q121 502 113.5 509.5Q106 517 92 517H20V670H161Q218 670 254 633.5Q290 597 290 540V408Q290 394 297.5 386.5Q305 379 319 379H359V227H319Q305 227 297.5 219.5Q290 212 290 198V66Q290 9 254 -27.5Q218 -64 161 -64H20V89H92Q106 89 113.5 96.5Q121 104 121 118Z" glyph-name="braceright.cap" horiz-adv-x="379" /><glyph d="M210 497V69H321V-84H33V650H321V497Z" glyph-name="bracketleft" horiz-adv-x="341" unicode="[" /><glyph d="M210 517V89H321V-64H33V670H321V517Z" glyph-name="bracketleft.cap" horiz-adv-x="341" /><glyph d="M131 69V497H20V650H308V-84H20V69Z" glyph-name="bracketright" horiz-adv-x="341" unicode="]" /><glyph d="M131 89V517H20V670H308V-64H20V89Z" glyph-name="bracketright.cap" horiz-adv-x="341" /><glyph d="M250 484Q184 484 140 524Q96 564 96 643H225Q225 624 231.5 615Q238 606 250 606Q263 606 269.5 615Q276 624 276 643H404Q404 564 360 524Q316 484 250 484Z" glyph-name="breve" horiz-adv-x="500" unicode="&#728;" /><glyph d="M250 653Q184 653 140 693Q96 733 96 812H225Q225 793 231.5 784Q238 775 250 775Q263 775 269.5 784Q276 793 276 812H404Q404 733 360 693Q316 653 250 653Z" glyph-name="breve.cap" horiz-adv-x="500" /><glyph d="M378 261Q378 183 325.5 133.5Q273 84 200 84Q125 84 72.5 133.5Q20 183 20 261Q20 341 72.5 391Q125 441 200 441Q273 441 325.5 391Q378 341 378 261Z" glyph-name="bullet" horiz-adv-x="398" unicode="&#8226;" /><glyph d="M378 291Q378 213 325.5 163.5Q273 114 200 114Q125 114 72.5 163.5Q20 213 20 291Q20 371 72.5 421Q125 471 200 471Q273 471 325.5 421Q378 371 378 291Z" glyph-name="bullet.cap" horiz-adv-x="398" /><glyph d="M11 227Q11 336 78.5 400Q146 464 253 464Q290 464 320.5 457Q351 450 374 435V283Q353 294 332.5 300.5Q312 307 287 307Q250 307 224 288Q198 269 198 227Q198 185 224 166Q250 147 287 147Q312 147 332.5 153.5Q353 160 374 171V19Q351 4 320.5 -3Q290 -10 253 -10Q146 -10 78.5 54Q11 118 11 227Z" glyph-name="c" horiz-adv-x="396" unicode="c" /><glyph d="M326 493H150L235 650H411ZM11 227Q11 336 78.5 400Q146 464 253 464Q290 464 320.5 457Q351 450 374 435V283Q353 294 332.5 300.5Q312 307 287 307Q250 307 224 288Q198 269 198 227Q198 185 224 166Q250 147 287 147Q312 147 332.5 153.5Q353 160 374 171V19Q351 4 320.5 -3Q290 -10 253 -10Q146 -10 78.5 54Q11 118 11 227Z" glyph-name="cacute" horiz-adv-x="396" unicode="&#263;" /><glyph d="M415 650 318 493H182L85 650H220L250 609L280 650Z" glyph-name="caron" horiz-adv-x="500" unicode="&#711;" /><glyph d="M292 483H146L194 650H342Z" glyph-name="caron.Slovak" horiz-adv-x="500" /><glyph d="M182 659 65 796H214L250 759L286 796H435L318 659Z" glyph-name="caron.cap" horiz-adv-x="500" /><glyph d="M405 650 308 493H172L75 650H210L240 609L270 650ZM11 227Q11 336 78.5 400Q146 464 253 464Q290 464 320.5 457Q351 450 374 435V283Q353 294 332.5 300.5Q312 307 287 307Q250 307 224 288Q198 269 198 227Q198 185 224 166Q250 147 287 147Q312 147 332.5 153.5Q353 160 374 171V19Q351 4 320.5 -3Q290 -10 253 -10Q146 -10 78.5 54Q11 118 11 227Z" glyph-name="ccaron" horiz-adv-x="396" unicode="&#269;" /><glyph d="M11 227Q11 336 78.5 400Q146 464 253 464Q290 464 320.5 457Q351 450 374 435V283Q353 294 332.5 300.5Q312 307 287 307Q250 307 224 288Q198 269 198 227Q198 185 224 166Q250 147 287 147Q312 147 332.5 153.5Q353 160 374 171V19Q351 4 320.5 -3Q290 -10 253 -10Q146 -10 78.5 54Q11 118 11 227ZM252 -175H96L163 -32H319Z" glyph-name="ccedilla" horiz-adv-x="396" unicode="&#231;" /><glyph d="M300 650 397 493H262L232 534L202 493H67L164 650ZM11 227Q11 336 78.5 400Q146 464 253 464Q290 464 320.5 457Q351 450 374 435V283Q353 294 332.5 300.5Q312 307 287 307Q250 307 224 288Q198 269 198 227Q198 185 224 166Q250 147 287 147Q312 147 332.5 153.5Q353 160 374 171V19Q351 4 320.5 -3Q290 -10 253 -10Q146 -10 78.5 54Q11 118 11 227Z" glyph-name="ccircumflex" horiz-adv-x="396" unicode="&#265;" /><glyph d="M11 227Q11 336 78.5 400Q146 464 253 464Q290 464 320.5 457Q351 450 374 435V283Q353 294 332.5 300.5Q312 307 287 307Q250 307 224 288Q198 269 198 227Q198 185 224 166Q250 147 287 147Q312 147 332.5 153.5Q353 160 374 171V19Q351 4 320.5 -3Q290 -10 253 -10Q146 -10 78.5 54Q11 118 11 227ZM336 580Q336 534 305 508Q274 482 231 482Q188 482 157 508Q126 534 126 580Q126 626 157 652Q188 678 231 678Q274 678 305 652Q336 626 336 580Z" glyph-name="cdotaccent" horiz-adv-x="396" unicode="&#267;" /><glyph d="M283 -175H127L194 -32H350Z" glyph-name="cedilla" horiz-adv-x="500" unicode="&#184;" /><glyph d="M283 -175H127L194 -32H350Z" glyph-name="cedilla.alt" horiz-adv-x="500" /><glyph d="M391 29Q378 21 361.5 15Q345 9 326 6V-82H176V12Q105 34 62.5 93Q20 152 20 237Q20 322 62.5 381Q105 440 176 462V564H326V468Q345 465 361.5 459Q378 453 391 445V293Q370 304 345.5 310.5Q321 317 296 317Q259 317 233 298Q207 279 207 237Q207 195 233 176Q259 157 296 157Q321 157 345.5 163.5Q370 170 391 181Z" glyph-name="cent" horiz-adv-x="421" unicode="&#162;" /><glyph d="M433 29Q420 21 403.5 15Q387 9 368 6V-82H218V12Q147 34 104.5 93Q62 152 62 237Q62 322 104.5 381Q147 440 218 462V564H368V468Q387 465 403.5 459Q420 453 433 445V293Q412 304 387.5 310.5Q363 317 338 317Q301 317 275 298Q249 279 249 237Q249 195 275 176Q301 157 338 157Q363 157 387.5 163.5Q412 170 433 181Z" glyph-name="cent.lt" horiz-adv-x="520" /><glyph d="M318 650 415 493H280L250 534L220 493H85L182 650Z" glyph-name="circumflex" horiz-adv-x="500" unicode="&#710;" /><glyph d="M318 800 435 663H286L250 700L214 663H65L182 800Z" glyph-name="circumflex.cap" horiz-adv-x="500" /><glyph d="M12 101Q12 147 43 178Q74 209 118 209Q163 209 194 178Q225 147 225 101Q225 55 194 24Q163 -7 118 -7Q74 -7 43 24Q12 55 12 101ZM12 346Q12 392 43 423Q74 454 118 454Q163 454 194 423Q225 392 225 346Q225 300 194 269Q163 238 118 238Q74 238 43 269Q12 300 12 346Z" glyph-name="colon" horiz-adv-x="237" unicode=":" /><glyph d="M23 101Q23 147 54 178Q85 209 129 209Q174 209 205 178Q236 147 236 101Q236 55 205 24Q174 -7 129 -7Q85 -7 54 24Q23 55 23 101ZM23 346Q23 392 54 423Q85 454 129 454Q174 454 205 423Q236 392 236 346Q236 300 205 269Q174 238 129 238Q85 238 54 269Q23 300 23 346Z" glyph-name="colon.tab" horiz-adv-x="260" /><glyph d="M10 -100 86 17Q58 23 35 46.5Q12 70 12 109Q12 152 42.5 180.5Q73 209 119 209Q161 209 193 180.5Q225 152 225 98Q225 67 212.5 37.5Q200 8 182 -19L129 -100Z" glyph-name="comma" horiz-adv-x="237" unicode="," /><glyph d="M21 -100 97 17Q69 23 46 46.5Q23 70 23 109Q23 152 53.5 180.5Q84 209 130 209Q172 209 204 180.5Q236 152 236 98Q236 67 223.5 37.5Q211 8 193 -19L140 -100Z" glyph-name="comma.tab" horiz-adv-x="260" /><glyph d="M154 -247 208 -181Q189 -173 175 -154Q161 -135 161 -107Q161 -72 187 -49Q213 -26 253 -26Q289 -26 317 -49Q345 -72 345 -114Q345 -142 332 -165Q319 -188 300 -211L270 -247Z" glyph-name="commaaccent" horiz-adv-x="500" unicode="&#63171;" /><glyph d="M347 696 289 626Q308 618 322 599Q336 580 336 552Q336 517 310 494Q284 471 244 471Q208 471 180 494Q152 517 152 559Q152 587 165 610Q178 633 197 656L231 696Z" glyph-name="commaturn" horiz-adv-x="500" /><glyph d="M669 307Q669 170 575.5 80Q482 -10 352 -10Q222 -10 128.5 80Q35 170 35 307Q35 444 128.5 534Q222 624 352 624Q482 624 575.5 534Q669 444 669 307ZM622 307Q622 424 542 501Q462 578 352 578Q242 578 162 501Q82 424 82 307Q82 190 162 113Q242 36 352 36Q462 36 542 113Q622 190 622 307ZM163 309Q163 399 219.5 454Q276 509 369 509Q397 509 421.5 503Q446 497 464 487V371Q445 383 423.5 389.5Q402 396 381 396Q337 396 311 374Q285 352 285 309Q285 267 311 245Q337 223 381 223Q402 223 423.5 229Q445 235 464 247V131Q446 121 421.5 115Q397 109 369 109Q276 109 219.5 164Q163 219 163 309Z" glyph-name="copyright" horiz-adv-x="704" unicode="&#169;" /><glyph d="M318 182V272Q312 286 297.5 295Q283 304 265 304Q235 304 218 282Q201 260 201 227Q201 194 218 172Q235 150 265 150Q284 150 298 159Q312 168 318 182ZM318 0V35Q302 18 272 4Q242 -10 208 -10Q112 -10 61.5 59.5Q11 129 11 227Q11 325 61.5 394.5Q112 464 208 464Q242 464 272 450Q302 436 318 419V650H508V0Z" glyph-name="d" horiz-adv-x="539" unicode="d" /><glyph d="M332 446H233V276H119V446H20V558H119V650H233V558H332Z" glyph-name="dagger" horiz-adv-x="352" unicode="&#8224;" /><glyph d="M332 336H230V276H122V336H20V433H122V492H20V590H122V650H230V590H332V492H230V433H332Z" glyph-name="daggerdbl" horiz-adv-x="352" unicode="&#8225;" /><glyph d="M673 483H527L575 650H723ZM318 182V272Q312 286 297.5 295Q283 304 265 304Q235 304 218 282Q201 260 201 227Q201 194 218 172Q235 150 265 150Q284 150 298 159Q312 168 318 182ZM318 0V35Q302 18 272 4Q242 -10 208 -10Q112 -10 61.5 59.5Q11 129 11 227Q11 325 61.5 394.5Q112 464 208 464Q242 464 272 450Q302 436 318 419V650H508V0Z" glyph-name="dcaron" horiz-adv-x="539" unicode="&#271;" /><glyph d="M318 182V272Q312 286 297.5 295Q283 304 265 304Q235 304 218 282Q201 260 201 227Q201 194 218 172Q235 150 265 150Q284 150 298 159Q312 168 318 182ZM318 35Q302 18 272 4Q242 -10 208 -10Q112 -10 61.5 59.5Q11 129 11 227Q11 325 61.5 394.5Q112 464 208 464Q242 464 272 450Q302 436 318 419V483H247V604H318V650H508V604H548V483H508V0H318Z" glyph-name="dcroat" horiz-adv-x="539" unicode="&#273;" /><glyph d="M326 478Q326 418 283.5 375Q241 332 183 332Q125 332 82.5 375Q40 418 40 478Q40 538 82.5 581Q125 624 183 624Q241 624 283.5 581Q326 538 326 478ZM130 478Q130 455 145.5 438.5Q161 422 183 422Q205 422 220.5 438.5Q236 455 236 478Q236 501 220.5 517.5Q205 534 183 534Q161 534 145.5 517.5Q130 501 130 478Z" glyph-name="degree" horiz-adv-x="366" unicode="&#176;" /><glyph d="M257 564Q257 600 282.5 626Q308 652 344 652Q380 652 406 626Q432 600 432 564Q432 528 406 502.5Q380 477 344 477Q308 477 282.5 502.5Q257 528 257 564ZM67 564Q67 600 92.5 626Q118 652 154 652Q190 652 216 626Q242 600 242 564Q242 528 216 502.5Q190 477 154 477Q118 477 92.5 502.5Q67 528 67 564Z" glyph-name="dieresis" horiz-adv-x="500" unicode="&#168;" /><glyph d="M258 737Q258 774 284.5 801Q311 828 348 828Q385 828 412 801Q439 774 439 737Q439 700 412 673.5Q385 647 348 647Q311 647 284.5 673.5Q258 700 258 737ZM61 737Q61 774 87.5 801Q114 828 151 828Q188 828 215 801Q242 774 242 737Q242 700 215 673.5Q188 647 151 647Q114 647 87.5 673.5Q61 700 61 737Z" glyph-name="dieresis.cap" horiz-adv-x="500" /><glyph d="M185 486Q185 523 212 548.5Q239 574 276 574Q313 574 340 548.5Q367 523 367 486Q367 449 340 423.5Q313 398 276 398Q239 398 212 423.5Q185 449 185 486ZM38 231V368H513V231ZM185 112Q185 149 212 174.5Q239 200 276 200Q313 200 340 174.5Q367 149 367 112Q367 75 340 49.5Q313 24 276 24Q239 24 212 49.5Q185 75 185 112Z" glyph-name="divide" horiz-adv-x="551" unicode="&#247;" /><glyph d="M169 486Q169 523 196 548.5Q223 574 260 574Q297 574 324 548.5Q351 523 351 486Q351 449 324 423.5Q297 398 260 398Q223 398 196 423.5Q169 449 169 486ZM22 231V368H497V231ZM169 112Q169 149 196 174.5Q223 200 260 200Q297 200 324 174.5Q351 149 351 112Q351 75 324 49.5Q297 24 260 24Q223 24 196 49.5Q169 75 169 112Z" glyph-name="divide.lt" horiz-adv-x="520" /><glyph d="M328 -82H178V7Q134 11 95.5 23.5Q57 36 30 50V214Q67 191 119 173Q171 155 220 155Q249 155 273.5 160Q298 165 298 186Q298 199 289.5 205Q281 211 266 215L176 237Q94 259 54 302Q14 345 14 417Q14 492 60 539.5Q106 587 178 603V694H328V605Q362 600 389 590.5Q416 581 441 568V404Q400 431 354.5 445.5Q309 460 260 460Q233 460 215 454Q197 448 197 434Q197 421 206 415Q215 409 230 406L314 383Q401 358 442.5 312.5Q484 267 484 198Q484 122 440 77Q396 32 328 16Z" glyph-name="dollar" horiz-adv-x="508" unicode="$" /><glyph d="M339 -82H189V7Q145 11 106.5 23.5Q68 36 41 50V214Q78 191 130 173Q182 155 231 155Q260 155 284.5 160Q309 165 309 186Q309 199 300.5 205Q292 211 277 215L187 237Q105 259 65 302Q25 345 25 417Q25 492 71 539.5Q117 587 189 603V694H339V605Q373 600 400 590.5Q427 581 452 568V404Q411 431 365.5 445.5Q320 460 271 460Q244 460 226 454Q208 448 208 434Q208 421 217 415Q226 409 241 406L325 383Q412 358 453.5 312.5Q495 267 495 198Q495 122 451 77Q407 32 339 16Z" glyph-name="dollar.lt" horiz-adv-x="520" /><glyph d="M355 580Q355 534 324 508Q293 482 250 482Q207 482 176 508Q145 534 145 580Q145 626 176 652Q207 678 250 678Q293 678 324 652Q355 626 355 580Z" glyph-name="dotaccent" horiz-adv-x="500" unicode="&#729;" /><glyph d="M355 751Q355 705 324 679Q293 653 250 653Q207 653 176 679Q145 705 145 751Q145 797 176 823Q207 849 250 849Q293 849 324 823Q355 797 355 751Z" glyph-name="dotaccent.cap" horiz-adv-x="500" /><glyph d="M351 -120Q351 -165 321 -190Q291 -215 250 -215Q209 -215 179 -190Q149 -165 149 -120Q149 -76 179 -51Q209 -26 250 -26Q291 -26 321 -51Q351 -76 351 -120Z" glyph-name="dotbelow" horiz-adv-x="500" /><glyph d="M221 454V0H31V454Z" glyph-name="dotlessi" horiz-adv-x="252" unicode="&#305;" /><glyph d="M221 454V40Q221 -56 173 -109.5Q125 -163 34 -163Q12 -163 -4 -161Q-20 -159 -33 -155V-16Q-29 -17 -24.5 -17.5Q-20 -18 -14 -18Q8 -18 19.5 -9Q31 0 31 26V454Z" glyph-name="dotlessj" horiz-adv-x="252" unicode="&#567;" /><glyph d="M246 324Q225 324 212 311Q199 298 193 277H295Q292 299 279 311.5Q266 324 246 324ZM429 30Q404 12 360.5 1Q317 -10 266 -10Q152 -10 81.5 52Q11 114 11 224Q11 331 76 397.5Q141 464 237 464Q348 464 405 399.5Q462 335 462 234V183H198Q209 157 235 146Q261 135 297 135Q332 135 362.5 142Q393 149 429 168Z" glyph-name="e" horiz-adv-x="475" unicode="e" /><glyph d="M330 493H154L239 650H415ZM246 324Q225 324 212 311Q199 298 193 277H295Q292 299 279 311.5Q266 324 246 324ZM429 30Q404 12 360.5 1Q317 -10 266 -10Q152 -10 81.5 52Q11 114 11 224Q11 331 76 397.5Q141 464 237 464Q348 464 405 399.5Q462 335 462 234V183H198Q209 157 235 146Q261 135 297 135Q332 135 362.5 142Q393 149 429 168Z" glyph-name="eacute" horiz-adv-x="475" unicode="&#233;" /><glyph d="M246 324Q225 324 212 311Q199 298 193 277H295Q292 299 279 311.5Q266 324 246 324ZM429 30Q404 12 360.5 1Q317 -10 266 -10Q152 -10 81.5 52Q11 114 11 224Q11 331 76 397.5Q141 464 237 464Q348 464 405 399.5Q462 335 462 234V183H198Q209 157 235 146Q261 135 297 135Q332 135 362.5 142Q393 149 429 168ZM246 484Q180 484 136 524Q92 564 92 643H221Q221 624 227.5 615Q234 606 246 606Q259 606 265.5 615Q272 624 272 643H400Q400 564 356 524Q312 484 246 484Z" glyph-name="ebreve" horiz-adv-x="475" unicode="&#277;" /><glyph d="M411 650 314 493H178L81 650H216L246 609L276 650ZM246 324Q225 324 212 311Q199 298 193 277H295Q292 299 279 311.5Q266 324 246 324ZM429 30Q404 12 360.5 1Q317 -10 266 -10Q152 -10 81.5 52Q11 114 11 224Q11 331 76 397.5Q141 464 237 464Q348 464 405 399.5Q462 335 462 234V183H198Q209 157 235 146Q261 135 297 135Q332 135 362.5 142Q393 149 429 168Z" glyph-name="ecaron" horiz-adv-x="475" unicode="&#283;" /><glyph d="M314 650 411 493H276L246 534L216 493H81L178 650ZM246 324Q225 324 212 311Q199 298 193 277H295Q292 299 279 311.5Q266 324 246 324ZM429 30Q404 12 360.5 1Q317 -10 266 -10Q152 -10 81.5 52Q11 114 11 224Q11 331 76 397.5Q141 464 237 464Q348 464 405 399.5Q462 335 462 234V183H198Q209 157 235 146Q261 135 297 135Q332 135 362.5 142Q393 149 429 168Z" glyph-name="ecircumflex" horiz-adv-x="475" unicode="&#234;" /><glyph d="M254 564Q254 600 279.5 626Q305 652 341 652Q377 652 403 626Q429 600 429 564Q429 528 403 502.5Q377 477 341 477Q305 477 279.5 502.5Q254 528 254 564ZM64 564Q64 600 89.5 626Q115 652 151 652Q187 652 213 626Q239 600 239 564Q239 528 213 502.5Q187 477 151 477Q115 477 89.5 502.5Q64 528 64 564ZM246 324Q225 324 212 311Q199 298 193 277H295Q292 299 279 311.5Q266 324 246 324ZM429 30Q404 12 360.5 1Q317 -10 266 -10Q152 -10 81.5 52Q11 114 11 224Q11 331 76 397.5Q141 464 237 464Q348 464 405 399.5Q462 335 462 234V183H198Q209 157 235 146Q261 135 297 135Q332 135 362.5 142Q393 149 429 168Z" glyph-name="edieresis" horiz-adv-x="475" unicode="&#235;" /><glyph d="M246 324Q225 324 212 311Q199 298 193 277H295Q292 299 279 311.5Q266 324 246 324ZM429 30Q404 12 360.5 1Q317 -10 266 -10Q152 -10 81.5 52Q11 114 11 224Q11 331 76 397.5Q141 464 237 464Q348 464 405 399.5Q462 335 462 234V183H198Q209 157 235 146Q261 135 297 135Q332 135 362.5 142Q393 149 429 168ZM351 580Q351 534 320 508Q289 482 246 482Q203 482 172 508Q141 534 141 580Q141 626 172 652Q203 678 246 678Q289 678 320 652Q351 626 351 580Z" glyph-name="edotaccent" horiz-adv-x="475" unicode="&#279;" /><glyph d="M246 324Q225 324 212 311Q199 298 193 277H295Q292 299 279 311.5Q266 324 246 324ZM429 30Q404 12 360.5 1Q317 -10 266 -10Q152 -10 81.5 52Q11 114 11 224Q11 331 76 397.5Q141 464 237 464Q348 464 405 399.5Q462 335 462 234V183H198Q209 157 235 146Q261 135 297 135Q332 135 362.5 142Q393 149 429 168ZM337 493H161L76 650H252Z" glyph-name="egrave" horiz-adv-x="475" unicode="&#232;" /><glyph d="M259 -10Q159 -10 87.5 38Q16 86 16 171Q16 221 41.5 256.5Q67 292 107 308Q71 328 53.5 363Q36 398 36 438Q36 528 103.5 576Q171 624 259 624Q347 624 414.5 576Q482 528 482 438Q482 398 464.5 363Q447 328 411 308Q451 292 476.5 256.5Q502 221 502 171Q502 86 430.5 38Q359 -10 259 -10ZM259 386Q283 386 298 400Q313 414 313 434Q313 455 298 469Q283 483 259 483Q235 483 220 469Q205 455 205 434Q205 414 220 400Q235 386 259 386ZM259 137Q284 137 300 151Q316 165 316 186Q316 208 300 221.5Q284 235 259 235Q234 235 218 221.5Q202 208 202 186Q202 165 218 151Q234 137 259 137Z" glyph-name="eight" horiz-adv-x="518" unicode="8" /><glyph d="M260 -10Q160 -10 88.5 38Q17 86 17 171Q17 221 42.5 256.5Q68 292 108 308Q72 328 54.5 363Q37 398 37 438Q37 528 104.5 576Q172 624 260 624Q348 624 415.5 576Q483 528 483 438Q483 398 465.5 363Q448 328 412 308Q452 292 477.5 256.5Q503 221 503 171Q503 86 431.5 38Q360 -10 260 -10ZM260 386Q284 386 299 400Q314 414 314 434Q314 455 299 469Q284 483 260 483Q236 483 221 469Q206 455 206 434Q206 414 221 400Q236 386 260 386ZM260 137Q285 137 301 151Q317 165 317 186Q317 208 301 221.5Q285 235 260 235Q235 235 219 221.5Q203 208 203 186Q203 165 219 151Q235 137 260 137Z" glyph-name="eight.lt" horiz-adv-x="520" /><glyph d="M526 101Q526 147 557 178Q588 209 632 209Q677 209 708 178Q739 147 739 101Q739 55 708 24Q677 -7 632 -7Q588 -7 557 24Q526 55 526 101ZM269 101Q269 147 300 178Q331 209 375 209Q420 209 451 178Q482 147 482 101Q482 55 451 24Q420 -7 375 -7Q331 -7 300 24Q269 55 269 101ZM12 101Q12 147 43 178Q74 209 118 209Q163 209 194 178Q225 147 225 101Q225 55 194 24Q163 -7 118 -7Q74 -7 43 24Q12 55 12 101Z" glyph-name="ellipsis" horiz-adv-x="751" unicode="&#8230;" /><glyph d="M246 324Q225 324 212 311Q199 298 193 277H295Q292 299 279 311.5Q266 324 246 324ZM429 30Q404 12 360.5 1Q317 -10 266 -10Q152 -10 81.5 52Q11 114 11 224Q11 331 76 397.5Q141 464 237 464Q348 464 405 399.5Q462 335 462 234V183H198Q209 157 235 146Q261 135 297 135Q332 135 362.5 142Q393 149 429 168ZM112 493V618H381V493Z" glyph-name="emacron" horiz-adv-x="475" unicode="&#275;" /><glyph d="M33 200V322H799V200Z" glyph-name="emdash" horiz-adv-x="832" unicode="&#8212;" /><glyph d="M33 230V352H799V230Z" glyph-name="emdash.cap" horiz-adv-x="832" /><glyph d="M33 200V322H428V200Z" glyph-name="endash" horiz-adv-x="461" unicode="&#8211;" /><glyph d="M33 230V352H428V230Z" glyph-name="endash.cap" horiz-adv-x="461" /><glyph d="M313 26V248Q313 268 302 282.5Q291 297 269 297Q252 297 238.5 287Q225 277 221 260V0H31V454H221V417Q240 438 272 451Q304 464 342 464Q416 464 459.5 419Q503 374 503 299V40Q503 -56 455 -109.5Q407 -163 316 -163Q294 -163 278 -161Q262 -159 249 -155V-16Q253 -17 257.5 -17.5Q262 -18 268 -18Q290 -18 301.5 -9Q313 0 313 26Z" glyph-name="eng" horiz-adv-x="533" unicode="&#331;" /><glyph d="M232 -99Q232 -74 245 -52.5Q258 -31 278 -10H266Q152 -10 81.5 52Q11 114 11 224Q11 331 76 397.5Q141 464 237 464Q348 464 405 399.5Q462 335 462 234V183H197Q209 157 234.5 146Q260 135 297 135Q332 135 362.5 142Q393 149 429 168V30Q424 26 415.5 19.5Q407 13 393 2Q374 -14 362 -31.5Q350 -49 350 -62Q350 -69 355 -73.5Q360 -78 369 -78Q377 -78 384 -75Q391 -72 403 -65V-165Q389 -172 372.5 -177Q356 -182 334 -182Q294 -182 263 -162Q232 -142 232 -99ZM246 324Q225 324 212 311Q199 298 193 277H295Q292 299 279 311.5Q266 324 246 324Z" glyph-name="eogonek" horiz-adv-x="475" unicode="&#281;" /><glyph d="M48 342V464H523V342ZM48 140V261H523V140Z" glyph-name="equal" horiz-adv-x="571" unicode="=" /><glyph d="M22 342V464H497V342ZM22 140V261H497V140Z" glyph-name="equal.lt" horiz-adv-x="520" /><glyph d="M252 -10Q145 -10 78 56Q11 122 11 227Q11 332 77.5 394.5Q144 457 244 457Q249 457 255.5 456Q262 455 266 454H268Q261 464 250.5 475Q240 486 227 499L129 469L102 539L162 557Q137 579 107.5 601.5Q78 624 47 646V650H276Q289 640 302 628.5Q315 617 326 607L399 629L425 559L384 546Q441 478 467 404.5Q493 331 493 250Q493 128 426 59Q359 -10 252 -10ZM307 226Q307 263 292.5 284.5Q278 306 252 306Q227 306 212.5 284.5Q198 263 198 226Q198 189 212.5 167Q227 145 252 145Q278 145 292.5 167Q307 189 307 226Z" glyph-name="eth" horiz-adv-x="504" unicode="&#240;" /><glyph d="M56 213 15 614H247L206 213ZM23 93Q23 136 54.5 164.5Q86 193 131 193Q176 193 207.5 164.5Q239 136 239 93Q239 50 207.5 21.5Q176 -7 131 -7Q86 -7 54.5 21.5Q23 50 23 93Z" glyph-name="exclam" horiz-adv-x="262" unicode="!" /><glyph d="M131 325Q86 325 54.5 353.5Q23 382 23 425Q23 468 54.5 496.5Q86 525 131 525Q176 525 207.5 496.5Q239 468 239 425Q239 382 207.5 353.5Q176 325 131 325ZM15 -96 56 305H206L247 -96Z" glyph-name="exclamdown" horiz-adv-x="262" unicode="&#161;" /><glyph d="M131 421Q86 421 54.5 449.5Q23 478 23 521Q23 564 54.5 592.5Q86 621 131 621Q176 621 207.5 592.5Q239 564 239 521Q239 478 207.5 449.5Q176 421 131 421ZM15 0 56 401H206L247 0Z" glyph-name="exclamdown.cap" horiz-adv-x="262" /><glyph d="M341 646V495Q334 498 327 499.5Q320 501 310 501Q287 501 273.5 489.5Q260 478 260 456V454H341V308H260V0H71V308H10V454H71V466Q71 552 120 605Q169 658 263 658Q286 658 306 654.5Q326 651 341 646Z" glyph-name="f" horiz-adv-x="351" unicode="f" /><glyph d="M652 646V495Q645 498 638 499.5Q631 501 621 501Q598 501 584.5 489.5Q571 478 571 456V454H652V308H571V0H382V308H260V0H71V308H10V454H71V460Q71 546 120 599Q169 652 263 652Q286 652 306 648.5Q326 645 341 640V489Q334 492 327 493.5Q320 495 310 495Q289 495 274.5 485.5Q260 476 260 456V454H382V466Q382 552 431 605Q480 658 574 658Q597 658 617 654.5Q637 651 652 646Z" glyph-name="f_f" horiz-adv-x="662" unicode="&#64256;" /><glyph d="M582 569Q582 523 551 497Q520 471 477 471Q434 471 403 497Q372 523 372 569Q372 615 403 641Q434 667 477 667Q520 667 551 641Q582 615 582 569ZM572 454V0H382V454ZM341 646V495Q334 498 327 499.5Q320 501 310 501Q287 501 273.5 489.5Q260 478 260 456V454H341V308H260V0H71V308H10V454H71V466Q71 552 120 605Q169 658 263 658Q286 658 306 654.5Q326 651 341 646Z" glyph-name="fi" horiz-adv-x="603" unicode="&#64257;" /><glyph d="M229 409Q325 409 388.5 352.5Q452 296 452 201Q452 107 383 48.5Q314 -10 210 -10Q148 -10 101 5Q54 20 20 42V209Q50 182 97.5 162.5Q145 143 191 143Q225 143 249.5 156Q274 169 274 199Q274 230 249.5 243.5Q225 257 183 257Q149 257 107.5 251Q66 245 41 235V614H417V449H189V406Q196 407 206 408Q216 409 229 409Z" glyph-name="five" horiz-adv-x="467" unicode="5" /><glyph d="M254 409Q353 409 419.5 352.5Q486 296 486 201Q486 107 414.5 48.5Q343 -10 234 -10Q170 -10 121 5Q72 20 37 42V209Q68 182 117 162.5Q166 143 215 143Q251 143 278.5 156Q306 169 306 199Q306 230 278 243.5Q250 257 206 257Q172 257 128.5 251Q85 245 59 235V614H450V449H208V406Q215 407 228 408Q241 409 254 409Z" glyph-name="five.lt" horiz-adv-x="520" /><glyph d="M572 650V0H382V650ZM341 646V495Q334 498 327 499.5Q320 501 310 501Q287 501 273.5 489.5Q260 478 260 456V454H341V308H260V0H71V308H10V454H71V466Q71 552 120 605Q169 658 263 658Q286 658 306 654.5Q326 651 341 646Z" glyph-name="fl" horiz-adv-x="603" unicode="&#64258;" /><glyph d="M58 -153Q35 -153 12.5 -149.5Q-10 -146 -25 -141V-12Q-18 -15 -11 -16.5Q-4 -18 6 -18Q26 -18 37 -6.5Q48 5 52 27L85 215H34V359H110L123 432Q139 527 187.5 575.5Q236 624 320 624Q343 624 363 620.5Q383 617 398 612V461Q391 464 384 465.5Q377 467 367 467Q344 467 332.5 455.5Q321 444 317 422L306 359H377V215H281L250 39Q235 -48 193.5 -100.5Q152 -153 58 -153Z" glyph-name="florin" horiz-adv-x="418" unicode="&#402;" /><glyph d="M131 -153Q108 -153 85.5 -149.5Q63 -146 48 -141V-12Q55 -15 62 -16.5Q69 -18 79 -18Q99 -18 110 -6.5Q121 5 125 27L158 215H107V359H183L196 432Q212 527 260.5 575.5Q309 624 393 624Q416 624 436 620.5Q456 617 471 612V461Q464 464 457 465.5Q450 467 440 467Q417 467 405.5 455.5Q394 444 390 422L379 359H450V215H354L323 39Q308 -48 266.5 -100.5Q225 -153 131 -153Z" glyph-name="florin.lt" horiz-adv-x="520" /><glyph d="M426 614 267 258H331V348H494V258H552V102H494V0H331V102H2V106L229 614Z" glyph-name="four" horiz-adv-x="560" unicode="4" /><glyph d="M341 614 232 252H288V348H447V252H503V96H447V0H288V96H2V100L169 614Z" glyph-name="four.lt" horiz-adv-x="520" /><glyph d="M336 614 -33 0H-120L249 614Z" glyph-name="fraction" horiz-adv-x="216" unicode="&#8260;" /><glyph d="M308 203V289Q302 300 288.5 309Q275 318 257 318Q229 318 213 298Q197 278 197 246Q197 214 213 194Q229 174 257 174Q275 174 288.5 183Q302 192 308 203ZM308 56V71Q294 54 268.5 41Q243 28 206 28Q113 28 62 89.5Q11 151 11 246Q11 341 62 402.5Q113 464 206 464Q243 464 268.5 451Q294 438 308 421V454H496V81Q496 -44 417.5 -103.5Q339 -163 214 -163Q165 -163 117.5 -152.5Q70 -142 43 -125V42Q77 14 117 1Q157 -12 206 -12Q246 -12 277 2Q308 16 308 56Z" glyph-name="g" horiz-adv-x="527" unicode="g" /><glyph d="M308 203V289Q302 300 288.5 309Q275 318 257 318Q229 318 213 298Q197 278 197 246Q197 214 213 194Q229 174 257 174Q275 174 288.5 183Q302 192 308 203ZM308 56V71Q294 54 268.5 41Q243 28 206 28Q113 28 62 89.5Q11 151 11 246Q11 341 62 402.5Q113 464 206 464Q243 464 268.5 451Q294 438 308 421V454H496V81Q496 -44 417.5 -103.5Q339 -163 214 -163Q165 -163 117.5 -152.5Q70 -142 43 -125V42Q77 14 117 1Q157 -12 206 -12Q246 -12 277 2Q308 16 308 56ZM286 484Q220 484 176 524Q132 564 132 643H261Q261 624 267.5 615Q274 606 286 606Q299 606 305.5 615Q312 624 312 643H440Q440 564 396 524Q352 484 286 484Z" glyph-name="gbreve" horiz-adv-x="527" unicode="&#287;" /><glyph d="M354 650 451 493H316L286 534L256 493H121L218 650ZM308 203V289Q302 300 288.5 309Q275 318 257 318Q229 318 213 298Q197 278 197 246Q197 214 213 194Q229 174 257 174Q275 174 288.5 183Q302 192 308 203ZM308 56V71Q294 54 268.5 41Q243 28 206 28Q113 28 62 89.5Q11 151 11 246Q11 341 62 402.5Q113 464 206 464Q243 464 268.5 451Q294 438 308 421V454H496V81Q496 -44 417.5 -103.5Q339 -163 214 -163Q165 -163 117.5 -152.5Q70 -142 43 -125V42Q77 14 117 1Q157 -12 206 -12Q246 -12 277 2Q308 16 308 56Z" glyph-name="gcircumflex" horiz-adv-x="527" unicode="&#285;" /><glyph d="M384 696 326 626Q345 618 359 599Q373 580 373 552Q373 517 347 494Q321 471 281 471Q245 471 217 494Q189 517 189 559Q189 587 202 610Q215 633 234 656L268 696ZM308 203V289Q302 300 288.5 309Q275 318 257 318Q229 318 213 298Q197 278 197 246Q197 214 213 194Q229 174 257 174Q275 174 288.5 183Q302 192 308 203ZM308 56V71Q294 54 268.5 41Q243 28 206 28Q113 28 62 89.5Q11 151 11 246Q11 341 62 402.5Q113 464 206 464Q243 464 268.5 451Q294 438 308 421V454H496V81Q496 -44 417.5 -103.5Q339 -163 214 -163Q165 -163 117.5 -152.5Q70 -142 43 -125V42Q77 14 117 1Q157 -12 206 -12Q246 -12 277 2Q308 16 308 56Z" glyph-name="gcommaaccent" horiz-adv-x="527" unicode="&#291;" /><glyph d="M308 203V289Q302 300 288.5 309Q275 318 257 318Q229 318 213 298Q197 278 197 246Q197 214 213 194Q229 174 257 174Q275 174 288.5 183Q302 192 308 203ZM308 56V71Q294 54 268.5 41Q243 28 206 28Q113 28 62 89.5Q11 151 11 246Q11 341 62 402.5Q113 464 206 464Q243 464 268.5 451Q294 438 308 421V454H496V81Q496 -44 417.5 -103.5Q339 -163 214 -163Q165 -163 117.5 -152.5Q70 -142 43 -125V42Q77 14 117 1Q157 -12 206 -12Q246 -12 277 2Q308 16 308 56ZM391 580Q391 534 360 508Q329 482 286 482Q243 482 212 508Q181 534 181 580Q181 626 212 652Q243 678 286 678Q329 678 360 652Q391 626 391 580Z" glyph-name="gdotaccent" horiz-adv-x="527" unicode="&#289;" /><glyph d="M31 0V454Q31 549 80 603.5Q129 658 223 658Q246 658 266 654.5Q286 651 301 646V495Q294 498 287 499.5Q280 501 270 501Q247 501 233.5 489.5Q220 478 220 456V454H549V450L465 233Q502 210 526 168Q550 126 550 72Q550 -47 464.5 -105Q379 -163 263 -163V-13Q314 -11 344 9Q374 29 374 73Q374 107 345 131Q316 155 267 171V175L311 308H220V0Z" glyph-name="germandbls" horiz-adv-x="560" unicode="&#223;" /><glyph d="M439 349Q462 341 481 326.5Q500 312 515 291.5Q530 271 538 245Q546 219 546 188Q546 143 531.5 107Q517 71 490.5 46Q464 21 427.5 8Q391 -5 348 -5Q336 -5 326 -4.5Q316 -4 306.5 -3Q297 -2 288 0.5Q279 3 269 6V151Q272 150 276.5 149Q281 148 285.5 147.5Q290 147 295 146.5Q300 146 306 146Q320 146 330.5 149.5Q341 153 349 160Q357 167 361 178Q365 189 365 203Q365 217 360 228Q355 239 345.5 245.5Q336 252 323 255.5Q310 259 294 259H272V402H276Q287 402 295.5 405Q304 408 310 414.5Q316 421 319.5 430Q323 439 323 451Q323 462 320 470.5Q317 479 310.5 485Q304 491 294.5 494.5Q285 498 273 498Q261 498 251 493Q241 488 234 479Q227 470 223.5 458Q220 446 220 432V0H31V416Q31 472 47.5 517Q64 562 95.5 593.5Q127 625 172 641.5Q217 658 273 658Q328 658 370.5 644.5Q413 631 442 607Q471 583 486 550Q501 517 501 478Q501 455 496 435Q491 415 482 398Q473 381 462 369Q451 357 439 349Z" glyph-name="germandbls.alt" horiz-adv-x="557" /><glyph d="M380 493H204L119 650H295Z" glyph-name="grave" horiz-adv-x="500" unicode="`" /><glyph d="M385 663H199L114 800H300Z" glyph-name="grave.cap" horiz-adv-x="500" /><glyph d="M398 380V214L36 61V212L268 297L36 382V533Z" glyph-name="greater" horiz-adv-x="426" unicode="&gt;" /><glyph d="M441 380V214L79 61V212L311 297L79 382V533Z" glyph-name="greater.lt" horiz-adv-x="520" /><glyph d="M399 454V293L37 174V316L269 374L37 430V573ZM399 155V24H37V155Z" glyph-name="greaterequal" horiz-adv-x="436" unicode="&#8805;" /><glyph d="M441 454V293L79 174V316L311 374L79 430V573ZM441 155V24H79V155Z" glyph-name="greaterequal.lt" horiz-adv-x="520" /><glyph d="M458 54H308L216 222L308 390H458L366 222ZM267 54H117L25 222L117 390H267L175 222Z" glyph-name="guillemotleft" horiz-adv-x="483" unicode="&#171;" /><glyph d="M458 134H308L216 302L308 470H458L366 302ZM267 134H117L25 302L117 470H267L175 302Z" glyph-name="guillemotleft.cap" horiz-adv-x="483" /><glyph d="M175 54H25L117 222L25 390H175L267 222ZM366 54H216L308 222L216 390H366L458 222Z" glyph-name="guillemotright" horiz-adv-x="483" unicode="&#187;" /><glyph d="M175 134H25L117 302L25 470H175L267 302ZM366 134H216L308 302L216 470H366L458 302Z" glyph-name="guillemotright.cap" horiz-adv-x="483" /><glyph d="M277 54H117L25 222L117 390H277L185 222Z" glyph-name="guilsinglleft" horiz-adv-x="302" unicode="&#8249;" /><glyph d="M277 134H117L25 302L117 470H277L185 302Z" glyph-name="guilsinglleft.cap" horiz-adv-x="302" /><glyph d="M185 54H25L117 222L25 390H185L277 222Z" glyph-name="guilsinglright" horiz-adv-x="302" unicode="&#8250;" /><glyph d="M185 134H25L117 302L25 470H185L277 302Z" glyph-name="guilsinglright.cap" horiz-adv-x="302" /><glyph d="M31 0V650H221V417Q240 438 272 451Q304 464 342 464Q416 464 459.5 419Q503 374 503 299V0H313V248Q313 268 302 282.5Q291 297 269 297Q252 297 238.5 287Q225 277 221 260V0Z" glyph-name="h" horiz-adv-x="533" unicode="h" /><glyph d="M221 260V0H31V483H-9V604H31V650H221V604H292V483H221V417Q240 438 272 451Q304 464 342 464Q416 464 459.5 419Q503 374 503 299V0H313V248Q313 268 302 282.5Q291 297 269 297Q252 297 238.5 287Q225 277 221 260Z" glyph-name="hbar" horiz-adv-x="533" unicode="&#295;" /><glyph d="M31 0V650H221V417Q240 438 272 451Q304 464 342 464Q416 464 459.5 419Q503 374 503 299V0H313V248Q313 268 302 282.5Q291 297 269 297Q252 297 238.5 287Q225 277 221 260V0ZM329 810 446 673H297L261 710L225 673H76L193 810Z" glyph-name="hcircumflex" horiz-adv-x="533" unicode="&#293;" /><glyph d="M368 493H222L307 650H453ZM192 493H46L131 650H277Z" glyph-name="hungarumlaut" horiz-adv-x="500" unicode="&#733;" /><glyph d="M378 663H222L307 800H463ZM192 663H36L121 800H277Z" glyph-name="hungarumlaut.cap" horiz-adv-x="500" /><glyph d="M33 184V339H274V184Z" glyph-name="hyphen" horiz-adv-x="307" unicode="-" /><glyph d="M33 214V369H274V214Z" glyph-name="hyphen.cap" horiz-adv-x="307" /><glyph d="M231 569Q231 523 200 497Q169 471 126 471Q83 471 52 497Q21 523 21 569Q21 615 52 641Q83 667 126 667Q169 667 200 641Q231 615 231 569ZM221 454V0H31V454Z" glyph-name="i" horiz-adv-x="252" unicode="i" /><glyph d="M210 493H34L119 650H295ZM221 454V0H31V454Z" glyph-name="iacute" horiz-adv-x="252" unicode="&#237;" /><glyph d="M125 484Q67 484 28 524Q-11 564 -11 643H103Q103 624 109.5 615Q116 606 126 606Q138 606 143.5 615Q149 624 149 643H263Q263 564 223.5 524Q184 484 125 484ZM221 454V0H31V454Z" glyph-name="ibreve" horiz-adv-x="252" unicode="&#301;" /><glyph d="M194 650 275 493H146L126 544L106 493H-23L58 650ZM221 454V0H31V454Z" glyph-name="icircumflex" horiz-adv-x="252" unicode="&#238;" /><glyph d="M134 564Q134 600 159.5 626Q185 652 221 652Q257 652 283 626Q309 600 309 564Q309 528 283 502.5Q257 477 221 477Q185 477 159.5 502.5Q134 528 134 564ZM-56 564Q-56 600 -30.5 626Q-5 652 31 652Q67 652 93 626Q119 600 119 564Q119 528 93 502.5Q67 477 31 477Q-5 477 -30.5 502.5Q-56 528 -56 564ZM221 454V0H31V454Z" glyph-name="idieresis" horiz-adv-x="252" unicode="&#239;" /><glyph d="M221 454V0H31V454ZM231 580Q231 534 200 508Q169 482 126 482Q83 482 52 508Q21 534 21 580Q21 626 52 652Q83 678 126 678Q169 678 200 652Q231 626 231 580Z" glyph-name="idotaccent" horiz-adv-x="252" /><glyph d="M221 454V0H31V454ZM217 493H41L-44 650H132Z" glyph-name="igrave" horiz-adv-x="252" unicode="&#236;" /><glyph d="M231 569Q231 523 200 497Q169 471 126 471Q83 471 52 497Q21 523 21 569Q21 615 52 641Q83 667 126 667Q169 667 200 641Q231 615 231 569ZM221 454V0H31V454ZM483 569Q483 523 452 497Q421 471 378 471Q335 471 304 497Q273 523 273 569Q273 615 304 641Q335 667 378 667Q421 667 452 641Q483 615 483 569ZM473 454V40Q473 -56 425 -109.5Q377 -163 286 -163Q264 -163 248 -161Q232 -159 219 -155V-16Q223 -17 227.5 -17.5Q232 -18 238 -18Q260 -18 271.5 -9Q283 0 283 26V454Z" glyph-name="ij" horiz-adv-x="504" unicode="&#307;" /><glyph d="M8 493V618H244V493ZM221 454V0H31V454Z" glyph-name="imacron" horiz-adv-x="252" unicode="&#299;" /><glyph d="M231 569Q231 523 200 497Q169 471 126 471Q83 471 52 497Q21 523 21 569Q21 615 52 641Q83 667 126 667Q169 667 200 641Q231 615 231 569ZM221 454V0Q189 -31 178.5 -41.5Q168 -52 168 -62Q168 -69 173 -73.5Q178 -78 187 -78Q195 -78 202 -75Q209 -72 221 -65V-165Q207 -172 190.5 -177Q174 -182 152 -182Q112 -182 81 -162Q50 -142 50 -99Q50 -71 66 -47.5Q82 -24 106 0H31V454Z" glyph-name="iogonek" horiz-adv-x="252" unicode="&#303;" /><glyph d="M167 650H260Q260 589 244.5 539Q229 489 181 489Q150 489 137.5 502.5Q125 516 104 516Q95 516 90 509.5Q85 503 85 493H-8Q-8 554 7.5 604Q23 654 71 654Q102 654 114 640.5Q126 627 148 627Q157 627 162 633.5Q167 640 167 650ZM221 454V0H31V454Z" glyph-name="itilde" horiz-adv-x="252" unicode="&#297;" /><glyph d="M231 569Q231 523 200 497Q169 471 126 471Q83 471 52 497Q21 523 21 569Q21 615 52 641Q83 667 126 667Q169 667 200 641Q231 615 231 569ZM221 454V40Q221 -56 173 -109.5Q125 -163 34 -163Q12 -163 -4 -161Q-20 -159 -33 -155V-16Q-29 -17 -24.5 -17.5Q-20 -18 -14 -18Q8 -18 19.5 -9Q31 0 31 26V454Z" glyph-name="j" horiz-adv-x="252" unicode="j" /><glyph d="M194 650 275 493H146L126 544L106 493H-23L58 650ZM221 454V40Q221 -56 173 -109.5Q125 -163 34 -163Q12 -163 -4 -161Q-20 -159 -33 -155V-16Q-29 -17 -24.5 -17.5Q-20 -18 -14 -18Q8 -18 19.5 -9Q31 0 31 26V454Z" glyph-name="jcircumflex" horiz-adv-x="252" unicode="&#309;" /><glyph d="M331 0 221 184V0H31V650H221V294L323 454H535L387 242L539 0Z" glyph-name="k" horiz-adv-x="539" unicode="k" /><glyph d="M162 -247 216 -181Q197 -173 183 -154Q169 -135 169 -107Q169 -72 195 -49Q221 -26 261 -26Q297 -26 325 -49Q353 -72 353 -114Q353 -142 340 -165Q327 -188 308 -211L278 -247ZM331 0 221 184V0H31V650H221V294L323 454H535L387 242L539 0Z" glyph-name="kcommaaccent" horiz-adv-x="539" unicode="&#311;" /><glyph d="M331 0 221 184V0H31V454H221V294L323 454H535L387 242L539 0Z" glyph-name="kgreenlandic" horiz-adv-x="539" unicode="&#312;" /><glyph d="M221 650V0H31V650Z" glyph-name="l" horiz-adv-x="252" unicode="l" /><glyph d="M217 675H31L116 812H302ZM221 650V0H31V650Z" glyph-name="lacute" horiz-adv-x="252" unicode="&#314;" /><glyph d="M386 483H240L288 650H436ZM221 650V0H31V650Z" glyph-name="lcaron" horiz-adv-x="252" unicode="&#318;" /><glyph d="M25 -247 79 -181Q60 -173 46 -154Q32 -135 32 -107Q32 -72 58 -49Q84 -26 124 -26Q160 -26 188 -49Q216 -72 216 -114Q216 -142 203 -165Q190 -188 171 -211L141 -247ZM221 650V0H31V650Z" glyph-name="lcommaaccent" horiz-adv-x="252" unicode="&#316;" /><glyph d="M221 650V0H31V650ZM462 336Q462 290 431 264Q400 238 357 238Q314 238 283 264Q252 290 252 336Q252 382 283 408Q314 434 357 434Q400 434 431 408Q462 382 462 336Z" glyph-name="ldot" horiz-adv-x="462" unicode="&#320;" /><glyph d="M28 214V380L390 533V382L158 297L390 212V61Z" glyph-name="less" horiz-adv-x="426" unicode="&lt;" /><glyph d="M79 214V380L441 533V382L209 297L441 212V61Z" glyph-name="less.lt" horiz-adv-x="520" /><glyph d="M37 293V454L399 573V430L167 374L399 316V174ZM37 24V155H399V24Z" glyph-name="lessequal" horiz-adv-x="436" unicode="&#8804;" /><glyph d="M79 293V454L441 573V430L209 374L441 316V174ZM79 24V155H441V24Z" glyph-name="lessequal.lt" horiz-adv-x="520" /><glyph d="M250 0H60V203L10 174V306L60 336V650H250V433L300 462V330L250 301Z" glyph-name="lslash" horiz-adv-x="310" unicode="&#322;" /><glyph d="M467 413Q486 430 522.5 447Q559 464 610 464Q682 464 724.5 419Q767 374 767 299V0H577V248Q577 268 568 282.5Q559 297 539 297Q523 297 510.5 287Q498 277 494 260V0H304V248Q304 268 295 282.5Q286 297 266 297Q250 297 237.5 287Q225 277 221 260V0H31V454H221V417Q239 438 271 451Q303 464 340 464Q385 464 415 449.5Q445 435 467 413Z" glyph-name="m" horiz-adv-x="797" unicode="m" /><glyph d="M115 493V618H384V493Z" glyph-name="macron" horiz-adv-x="500" unicode="&#175;" /><glyph d="M105 663V788H394V663Z" glyph-name="macron.cap" horiz-adv-x="500" /><glyph d="M38 231V368H513V231Z" glyph-name="minus" horiz-adv-x="551" unicode="&#8722;" /><glyph d="M22 231V368H497V231Z" glyph-name="minus.lt" horiz-adv-x="520" /><glyph d="M150 299 30 418 127 515 247 396 366 515 463 418 344 299 463 179 366 83 247 202 127 83 30 179Z" glyph-name="multiply" horiz-adv-x="493" unicode="&#215;" /><glyph d="M163 299 43 418 140 515 260 396 379 515 476 418 357 299 476 179 379 83 260 202 140 83 43 179Z" glyph-name="multiply.lt" horiz-adv-x="520" /><glyph d="M31 0V454H221V417Q240 438 272 451Q304 464 342 464Q416 464 459.5 419Q503 374 503 299V0H313V248Q313 268 302 282.5Q291 297 269 297Q252 297 238.5 287Q225 277 221 260V0Z" glyph-name="n" horiz-adv-x="533" unicode="n" /><glyph d="M359 493H183L268 650H444ZM31 0V454H221V417Q240 438 272 451Q304 464 342 464Q416 464 459.5 419Q503 374 503 299V0H313V248Q313 268 302 282.5Q291 297 269 297Q252 297 238.5 287Q225 277 221 260V0Z" glyph-name="nacute" horiz-adv-x="533" unicode="&#324;" /><glyph d="M440 650 343 493H207L110 650H245L275 609L305 650ZM31 0V454H221V417Q240 438 272 451Q304 464 342 464Q416 464 459.5 419Q503 374 503 299V0H313V248Q313 268 302 282.5Q291 297 269 297Q252 297 238.5 287Q225 277 221 260V0Z" glyph-name="ncaron" horiz-adv-x="533" unicode="&#328;" /><glyph d="M168 -247 222 -181Q203 -173 189 -154Q175 -135 175 -107Q175 -72 201 -49Q227 -26 267 -26Q303 -26 331 -49Q359 -72 359 -114Q359 -142 346 -165Q333 -188 314 -211L284 -247ZM31 0V454H221V417Q240 438 272 451Q304 464 342 464Q416 464 459.5 419Q503 374 503 299V0H313V248Q313 268 302 282.5Q291 297 269 297Q252 297 238.5 287Q225 277 221 260V0Z" glyph-name="ncommaaccent" horiz-adv-x="533" unicode="&#326;" /><glyph d="M262 624Q366 624 437 556Q508 488 508 387Q508 350 495.5 313Q483 276 452 224L322 0H113L209 171L211 172Q122 182 68.5 243.5Q15 305 15 387Q15 488 86 556Q157 624 262 624ZM190 387Q190 357 210.5 336.5Q231 316 262 316Q290 316 311 336.5Q332 357 332 387Q332 417 311 437Q290 457 262 457Q231 457 210.5 437Q190 417 190 387Z" glyph-name="nine" horiz-adv-x="526" unicode="9" /><glyph d="M260 624Q364 624 435 556Q506 488 506 387Q506 350 493.5 313Q481 276 450 224L320 0H111L207 171L209 172Q120 182 66.5 243.5Q13 305 13 387Q13 488 84 556Q155 624 260 624ZM188 387Q188 357 208.5 336.5Q229 316 260 316Q288 316 309 336.5Q330 357 330 387Q330 417 309 437Q288 457 260 457Q229 457 208.5 437Q188 417 188 387Z" glyph-name="nine.lt" horiz-adv-x="520" /><glyph glyph-name="nonmarkingreturn" horiz-adv-x="187" unicode="" /><glyph d="M523 140H241L185 48H75L131 140H48V261H206L255 342H48V464H330L386 555H496L440 464H523V342H365L316 261H523Z" glyph-name="notequal" horiz-adv-x="571" unicode="&#8800;" /><glyph d="M497 140H215L159 48H49L105 140H22V261H180L229 342H22V464H304L360 555H470L414 464H497V342H339L290 261H497Z" glyph-name="notequal.lt" horiz-adv-x="520" /><glyph d="M31 0V454H221V417Q240 438 272 451Q304 464 342 464Q416 464 459.5 419Q503 374 503 299V0H313V248Q313 268 302 282.5Q291 297 269 297Q252 297 238.5 287Q225 277 221 260V0ZM330 650H430Q430 589 411.5 539Q393 489 339 489Q304 489 285.5 502.5Q267 516 242 516Q232 516 226 509.5Q220 503 220 493H120Q120 554 138.5 604Q157 654 211 654Q246 654 264.5 640.5Q283 627 308 627Q318 627 324 633.5Q330 640 330 650Z" glyph-name="ntilde" horiz-adv-x="533" unicode="&#241;" /><glyph d="M362 265 383 349H293L272 265ZM299 0 335 152H245L209 0H82L118 152H20L47 265H145L165 349H66L92 462H192L228 614H356L320 462H410L446 614H573L537 462H635L608 349H510L490 265H589L563 152H463L427 0Z" glyph-name="numbersign" horiz-adv-x="655" unicode="#" /><glyph d="M493 227Q493 122 426 56Q359 -10 252 -10Q145 -10 78 56Q11 122 11 227Q11 332 78 398Q145 464 252 464Q359 464 426 398Q493 332 493 227ZM307 227Q307 264 292.5 286.5Q278 309 252 309Q227 309 212.5 286.5Q198 264 198 227Q198 190 212.5 167.5Q227 145 252 145Q278 145 292.5 167.5Q307 190 307 227Z" glyph-name="o" horiz-adv-x="504" unicode="o" /><glyph d="M336 493H160L245 650H421ZM493 227Q493 122 426 56Q359 -10 252 -10Q145 -10 78 56Q11 122 11 227Q11 332 78 398Q145 464 252 464Q359 464 426 398Q493 332 493 227ZM307 227Q307 264 292.5 286.5Q278 309 252 309Q227 309 212.5 286.5Q198 264 198 227Q198 190 212.5 167.5Q227 145 252 145Q278 145 292.5 167.5Q307 190 307 227Z" glyph-name="oacute" horiz-adv-x="504" unicode="&#243;" /><glyph d="M493 227Q493 122 426 56Q359 -10 252 -10Q145 -10 78 56Q11 122 11 227Q11 332 78 398Q145 464 252 464Q359 464 426 398Q493 332 493 227ZM307 227Q307 264 292.5 286.5Q278 309 252 309Q227 309 212.5 286.5Q198 264 198 227Q198 190 212.5 167.5Q227 145 252 145Q278 145 292.5 167.5Q307 190 307 227ZM252 484Q186 484 142 524Q98 564 98 643H227Q227 624 233.5 615Q240 606 252 606Q265 606 271.5 615Q278 624 278 643H406Q406 564 362 524Q318 484 252 484Z" glyph-name="obreve" horiz-adv-x="504" unicode="&#335;" /><glyph d="M320 650 417 493H282L252 534L222 493H87L184 650ZM493 227Q493 122 426 56Q359 -10 252 -10Q145 -10 78 56Q11 122 11 227Q11 332 78 398Q145 464 252 464Q359 464 426 398Q493 332 493 227ZM307 227Q307 264 292.5 286.5Q278 309 252 309Q227 309 212.5 286.5Q198 264 198 227Q198 190 212.5 167.5Q227 145 252 145Q278 145 292.5 167.5Q307 190 307 227Z" glyph-name="ocircumflex" horiz-adv-x="504" unicode="&#244;" /><glyph d="M260 564Q260 600 285.5 626Q311 652 347 652Q383 652 409 626Q435 600 435 564Q435 528 409 502.5Q383 477 347 477Q311 477 285.5 502.5Q260 528 260 564ZM70 564Q70 600 95.5 626Q121 652 157 652Q193 652 219 626Q245 600 245 564Q245 528 219 502.5Q193 477 157 477Q121 477 95.5 502.5Q70 528 70 564ZM493 227Q493 122 426 56Q359 -10 252 -10Q145 -10 78 56Q11 122 11 227Q11 332 78 398Q145 464 252 464Q359 464 426 398Q493 332 493 227ZM307 227Q307 264 292.5 286.5Q278 309 252 309Q227 309 212.5 286.5Q198 264 198 227Q198 190 212.5 167.5Q227 145 252 145Q278 145 292.5 167.5Q307 190 307 227Z" glyph-name="odieresis" horiz-adv-x="504" unicode="&#246;" /><glyph d="M531 324Q510 324 497 311Q484 298 478 277H580Q577 299 564 311.5Q551 324 531 324ZM307 227Q307 264 292.5 286.5Q278 309 252 309Q227 309 212.5 286.5Q198 264 198 227Q198 190 212.5 167.5Q227 145 252 145Q278 145 292.5 167.5Q307 190 307 227ZM714 30Q689 12 645.5 1Q602 -10 551 -10Q505 -10 465.5 2.5Q426 15 395 37Q366 16 330 3Q294 -10 252 -10Q145 -10 78 56Q11 122 11 227Q11 332 78 398Q145 464 252 464Q293 464 329 452Q365 440 394 419Q421 440 453.5 452Q486 464 522 464Q633 464 690 399.5Q747 335 747 234V183H483Q494 157 520 146Q546 135 582 135Q617 135 647.5 142Q678 149 714 168Z" glyph-name="oe" horiz-adv-x="760" unicode="&#339;" /><glyph d="M226 10H337Q301 -27 289 -39.5Q277 -52 277 -62Q277 -69 282 -73.5Q287 -78 296 -78Q304 -78 311 -75Q318 -72 330 -65V-165Q316 -172 299.5 -177Q283 -182 261 -182Q221 -182 190 -162Q159 -142 159 -99Q159 -68 178.5 -42.5Q198 -17 226 10Z" glyph-name="ogonek" horiz-adv-x="500" unicode="&#731;" /><glyph d="M493 227Q493 122 426 56Q359 -10 252 -10Q145 -10 78 56Q11 122 11 227Q11 332 78 398Q145 464 252 464Q359 464 426 398Q493 332 493 227ZM307 227Q307 264 292.5 286.5Q278 309 252 309Q227 309 212.5 286.5Q198 264 198 227Q198 190 212.5 167.5Q227 145 252 145Q278 145 292.5 167.5Q307 190 307 227ZM343 493H167L82 650H258Z" glyph-name="ograve" horiz-adv-x="504" unicode="&#242;" /><glyph d="M411 493H265L350 650H496ZM235 493H89L174 650H320ZM493 227Q493 122 426 56Q359 -10 252 -10Q145 -10 78 56Q11 122 11 227Q11 332 78 398Q145 464 252 464Q359 464 426 398Q493 332 493 227ZM307 227Q307 264 292.5 286.5Q278 309 252 309Q227 309 212.5 286.5Q198 264 198 227Q198 190 212.5 167.5Q227 145 252 145Q278 145 292.5 167.5Q307 190 307 227Z" glyph-name="ohungarumlaut" horiz-adv-x="504" unicode="&#337;" /><glyph d="M118 493V618H387V493ZM493 227Q493 122 426 56Q359 -10 252 -10Q145 -10 78 56Q11 122 11 227Q11 332 78 398Q145 464 252 464Q359 464 426 398Q493 332 493 227ZM307 227Q307 264 292.5 286.5Q278 309 252 309Q227 309 212.5 286.5Q198 264 198 227Q198 190 212.5 167.5Q227 145 252 145Q278 145 292.5 167.5Q307 190 307 227Z" glyph-name="omacron" horiz-adv-x="504" unicode="&#333;" /><glyph d="M340 614V0H152V412L10 344V524L205 614Z" glyph-name="one" horiz-adv-x="390" unicode="1" /><glyph d="M48 0V166H188V412L56 348V528L241 614H376V166H489V0Z" glyph-name="one.lt" horiz-adv-x="520" /><glyph d="M221 614V255H104V483L19 443V561L134 614ZM606 614 197 0H101L510 614ZM644 105H732V0H444V2L550 146Q574 178 581.5 191.5Q589 205 589 221Q589 234 580 242Q571 250 554 250Q529 250 501.5 236Q474 222 458 212V325Q480 340 515 352Q550 364 595 364Q651 364 684 333.5Q717 303 717 254Q717 222 701 194Q685 166 666 138Z" glyph-name="onehalf" horiz-adv-x="751" unicode="&#189;" /><glyph d="M221 614V255H104V483L19 443V561L134 614ZM606 614 197 0H101L510 614ZM626 359 532 152H571V198H673V152H719V54H673V0H571V54H406V146L512 359Z" glyph-name="onequarter" horiz-adv-x="737" unicode="&#188;" /><glyph d="M213 614V255H96V483L11 443V561L126 614Z" glyph-name="onesuperior" horiz-adv-x="246" unicode="&#185;" /><glyph d="M188 396V409Q184 415 175.5 419Q167 423 156 423Q146 423 137 417.5Q128 412 128 402Q128 392 137 386.5Q146 381 156 381Q167 381 175.5 385Q184 389 188 396ZM188 481V486Q188 498 173 509Q158 520 124 520Q105 520 83 514Q61 508 43 499V601Q65 611 95.5 617.5Q126 624 161 624Q236 624 274 590.5Q312 557 312 490V305H188V320Q180 313 160.5 306Q141 299 116 299Q72 299 39 324Q6 349 6 399Q6 445 40 471.5Q74 498 123 498Q142 498 160 493Q178 488 188 481Z" glyph-name="ordfeminine" horiz-adv-x="331" unicode="&#170;" /><glyph d="M341 461Q341 389 295 343.5Q249 298 174 298Q100 298 53.5 343.5Q7 389 7 461Q7 533 53.5 578.5Q100 624 174 624Q249 624 295 578.5Q341 533 341 461ZM209 461Q209 485 199.5 500Q190 515 174 515Q158 515 148.5 500Q139 485 139 461Q139 437 148.5 422.5Q158 408 174 408Q190 408 199.5 422.5Q209 437 209 461Z" glyph-name="ordmasculine" horiz-adv-x="347" unicode="&#186;" /><glyph d="M257 -10Q214 -10 176.5 1.5Q139 13 110 33L68 -10L26 27L69 71Q44 102 30 141.5Q16 181 16 227Q16 332 83 398Q150 464 257 464Q300 464 337.5 453Q375 442 405 421L446 464L488 427L446 383Q471 353 484.5 313Q498 273 498 227Q498 122 431 56Q364 -10 257 -10ZM199 227Q199 222 199 217Q199 212 200 208L289 301Q282 307 274 310.5Q266 314 257 314Q232 314 215.5 289Q199 264 199 227ZM257 140Q283 140 299.5 165Q316 190 316 227Q316 232 316 237.5Q316 243 315 247L225 153Q232 147 240 143.5Q248 140 257 140Z" glyph-name="oslash" horiz-adv-x="514" unicode="&#248;" /><glyph d="M257 -10Q214 -10 176.5 1.5Q139 13 110 33L68 -10L26 27L69 71Q44 102 30 141.5Q16 181 16 227Q16 332 83 398Q150 464 257 464Q300 464 337.5 453Q375 442 405 421L446 464L488 427L446 383Q471 353 484.5 313Q498 273 498 227Q498 122 431 56Q364 -10 257 -10ZM199 227Q199 222 199 217Q199 212 200 208L289 301Q282 307 274 310.5Q266 314 257 314Q232 314 215.5 289Q199 264 199 227ZM257 140Q283 140 299.5 165Q316 190 316 227Q316 232 316 237.5Q316 243 315 247L225 153Q232 147 240 143.5Q248 140 257 140ZM341 493H165L250 650H426Z" glyph-name="oslashacute" horiz-adv-x="514" unicode="&#511;" /><glyph d="M493 227Q493 122 426 56Q359 -10 252 -10Q145 -10 78 56Q11 122 11 227Q11 332 78 398Q145 464 252 464Q359 464 426 398Q493 332 493 227ZM307 227Q307 264 292.5 286.5Q278 309 252 309Q227 309 212.5 286.5Q198 264 198 227Q198 190 212.5 167.5Q227 145 252 145Q278 145 292.5 167.5Q307 190 307 227ZM307 650H407Q407 589 388.5 539Q370 489 316 489Q281 489 262.5 502.5Q244 516 219 516Q209 516 203 509.5Q197 503 197 493H97Q97 554 115.5 604Q134 654 188 654Q223 654 241.5 640.5Q260 627 285 627Q295 627 301 633.5Q307 640 307 650Z" glyph-name="otilde" horiz-adv-x="504" unicode="&#245;" /><glyph d="M221 272V182Q227 168 241.5 159Q256 150 274 150Q304 150 321 172Q338 194 338 227Q338 260 321 282Q304 304 274 304Q255 304 241 295Q227 286 221 272ZM221 35V-153H31V454H221V419Q237 436 267 450Q297 464 331 464Q427 464 477.5 394.5Q528 325 528 227Q528 129 477.5 59.5Q427 -10 331 -10Q297 -10 267 4Q237 18 221 35Z" glyph-name="p" horiz-adv-x="539" unicode="p" /><glyph d="M250 -90V236Q166 236 90.5 281Q15 326 15 425Q15 524 90.5 569Q166 614 250 614H369V-90ZM412 -90V614H531V-90Z" glyph-name="paragraph" horiz-adv-x="564" unicode="&#182;" /><glyph d="M30 283Q30 427 109 524.5Q188 622 323 650V480Q268 458 233.5 412.5Q199 367 199 283Q199 199 233.5 153.5Q268 108 323 86V-84Q188 -56 109 41.5Q30 139 30 283Z" glyph-name="parenleft" horiz-adv-x="343" unicode="(" /><glyph d="M30 303Q30 447 109 544.5Q188 642 323 670V500Q268 478 233.5 432.5Q199 387 199 303Q199 219 233.5 173.5Q268 128 323 106V-64Q188 -36 109 61.5Q30 159 30 303Z" glyph-name="parenleft.cap" horiz-adv-x="343" /><glyph d="M20 650Q155 622 234 524.5Q313 427 313 283Q313 139 234 41.5Q155 -56 20 -84V86Q75 108 109.5 153.5Q144 199 144 283Q144 367 109.5 412.5Q75 458 20 480Z" glyph-name="parenright" horiz-adv-x="343" unicode=")" /><glyph d="M20 670Q155 642 234 544.5Q313 447 313 303Q313 159 234 61.5Q155 -36 20 -64V106Q75 128 109.5 173.5Q144 219 144 303Q144 387 109.5 432.5Q75 478 20 500Z" glyph-name="parenright.cap" horiz-adv-x="343" /><glyph d="M323 471Q323 409 278 365Q233 321 170 321Q108 321 64 365Q20 409 20 471Q20 534 64 579Q108 624 170 624Q233 624 278 579Q323 534 323 471ZM93 0 502 614H598L189 0ZM124 471Q124 452 137.5 438.5Q151 425 170 425Q190 425 204.5 438.5Q219 452 219 471Q219 491 204.5 505.5Q190 520 170 520Q151 520 137.5 505.5Q124 491 124 471ZM671 143Q671 80 627 35Q583 -10 521 -10Q458 -10 413 35Q368 80 368 143Q368 205 413 249Q458 293 521 293Q583 293 627 249Q671 205 671 143ZM567 143Q567 162 553.5 175.5Q540 189 521 189Q501 189 486.5 175.5Q472 162 472 143Q472 123 486.5 108.5Q501 94 521 94Q540 94 553.5 108.5Q567 123 567 143Z" glyph-name="percent" horiz-adv-x="691" unicode="%" /><glyph d="M19 499Q19 550 55 587Q91 624 142 624Q193 624 230 587Q267 550 267 499Q267 448 230 412Q193 376 142 376Q91 376 55 412Q19 448 19 499ZM19 0 408 614H501L112 0ZM104 499Q104 483 115 472Q126 461 142 461Q158 461 170 472Q182 483 182 499Q182 515 170 527Q158 539 142 539Q126 539 115 527Q104 515 104 499ZM501 115Q501 64 465 27Q429 -10 378 -10Q327 -10 290 27Q253 64 253 115Q253 166 290 202Q327 238 378 238Q429 238 465 202Q501 166 501 115ZM416 115Q416 131 405 142Q394 153 378 153Q362 153 350 142Q338 131 338 115Q338 99 350 87Q362 75 378 75Q394 75 405 87Q416 99 416 115Z" glyph-name="percent.lt" horiz-adv-x="520" /><glyph d="M12 101Q12 147 43 178Q74 209 118 209Q163 209 194 178Q225 147 225 101Q225 55 194 24Q163 -7 118 -7Q74 -7 43 24Q12 55 12 101Z" glyph-name="period" horiz-adv-x="237" unicode="." /><glyph d="M23 101Q23 147 54 178Q85 209 129 209Q174 209 205 178Q236 147 236 101Q236 55 205 24Q174 -7 129 -7Q85 -7 54 24Q23 55 23 101Z" glyph-name="period.tab" horiz-adv-x="260" /><glyph d="M20 260Q20 306 51 337Q82 368 126 368Q171 368 202 337Q233 306 233 260Q233 214 202 183Q171 152 126 152Q82 152 51 183Q20 214 20 260Z" glyph-name="periodcentered" horiz-adv-x="253" unicode="&#183;" /><glyph d="M20 290Q20 336 51 367Q82 398 126 398Q171 398 202 367Q233 336 233 290Q233 244 202 213Q171 182 126 182Q82 182 51 213Q20 244 20 290Z" glyph-name="periodcentered.cap" horiz-adv-x="253" /><glyph d="M170 321Q108 321 64 365Q20 409 20 471Q20 534 64 579Q108 624 170 624Q233 624 278 579Q323 534 323 471Q323 409 278 365Q233 321 170 321ZM93 0 502 614H598L189 0ZM170 520Q151 520 137.5 505.5Q124 491 124 471Q124 452 137.5 438.5Q151 425 170 425Q190 425 204.5 438.5Q219 452 219 471Q219 491 204.5 505.5Q190 520 170 520ZM998 143Q998 80 954 35Q910 -10 848 -10Q785 -10 740 35Q695 80 695 143Q695 205 740 249Q785 293 848 293Q910 293 954 249Q998 205 998 143ZM671 143Q671 80 627 35Q583 -10 521 -10Q458 -10 413 35Q368 80 368 143Q368 205 413 249Q458 293 521 293Q583 293 627 249Q671 205 671 143ZM894 143Q894 162 880.5 175.5Q867 189 848 189Q828 189 813.5 175.5Q799 162 799 143Q799 123 813.5 108.5Q828 94 848 94Q867 94 880.5 108.5Q894 123 894 143ZM567 143Q567 162 553.5 175.5Q540 189 521 189Q501 189 486.5 175.5Q472 162 472 143Q472 123 486.5 108.5Q501 94 521 94Q540 94 553.5 108.5Q567 123 567 143Z" glyph-name="perthousand" horiz-adv-x="1018" unicode="&#8240;" /><glyph d="M37 499Q37 550 73 587Q109 624 160 624Q211 624 248 587Q285 550 285 499Q285 448 248 412Q211 376 160 376Q109 376 73 412Q37 448 37 499ZM17 0 446 614H539L110 0ZM122 499Q122 483 133 472Q144 461 160 461Q176 461 188 472Q200 483 200 499Q200 515 188 527Q176 539 160 539Q144 539 133 527Q122 515 122 499ZM783 115Q783 64 747 27Q711 -10 660 -10Q609 -10 572 27Q535 64 535 115Q535 166 572 202Q609 238 660 238Q711 238 747 202Q783 166 783 115ZM519 115Q519 64 483 27Q447 -10 396 -10Q345 -10 308 27Q271 64 271 115Q271 166 308 202Q345 238 396 238Q447 238 483 202Q519 166 519 115ZM698 115Q698 131 686.5 142Q675 153 660 153Q644 153 632 142Q620 131 620 115Q620 99 632 87Q644 75 660 75Q675 75 686.5 87Q698 99 698 115ZM434 115Q434 131 423 142Q412 153 396 153Q380 153 368 142Q356 131 356 115Q356 99 368 87Q380 75 396 75Q412 75 423 87Q434 99 434 115Z" glyph-name="perthousand.lt" horiz-adv-x="800" /><glyph d="M513 231H344V62H207V231H38V368H207V537H344V368H513Z" glyph-name="plus" horiz-adv-x="551" unicode="+" /><glyph d="M497 231H328V62H191V231H22V368H191V537H328V368H497Z" glyph-name="plus.lt" horiz-adv-x="520" /><glyph d="M509 329H343V204H222V329H57V449H222V574H343V449H509ZM57 34V154H509V34Z" glyph-name="plusminus" horiz-adv-x="566" unicode="&#177;" /><glyph d="M486 329H320V204H199V329H34V449H199V574H320V449H486ZM34 34V154H486V34Z" glyph-name="plusminus.lt" horiz-adv-x="520" /><glyph d="M669 307Q669 170 575.5 80Q482 -10 352 -10Q222 -10 128.5 80Q35 170 35 307Q35 444 128.5 534Q222 624 352 624Q482 624 575.5 534Q669 444 669 307ZM622 307Q622 424 542 501Q462 578 352 578Q242 578 162 501Q82 424 82 307Q82 190 162 113Q242 36 352 36Q462 36 542 113Q622 190 622 307ZM392 224H333V124H218V493H392Q453 493 492 458Q531 423 531 359Q531 294 492 259Q453 224 392 224ZM376 321Q398 321 408 331.5Q418 342 418 359Q418 376 408 386Q398 396 376 396H333V321Z" glyph-name="published" horiz-adv-x="704" /><glyph d="M318 -153V35Q302 18 272 4Q242 -10 208 -10Q112 -10 61.5 59.5Q11 129 11 227Q11 325 61.5 394.5Q112 464 208 464Q242 464 272 450Q302 436 318 419V454H508V-153ZM318 182V272Q312 286 298 295Q284 304 265 304Q235 304 218 282Q201 260 201 227Q201 194 218 172Q235 150 265 150Q283 150 297.5 159Q312 168 318 182Z" glyph-name="q" horiz-adv-x="539" unicode="q" /><glyph d="M184 293Q207 324 221 342Q235 360 235 384Q235 409 219 423Q203 437 172 437Q128 437 88 415.5Q48 394 20 375V555Q57 582 111 603Q165 624 238 624Q333 624 388.5 571.5Q444 519 444 436Q444 380 417.5 340Q391 300 361 260Q349 244 345 233Q341 222 340 213H151Q152 232 158.5 250Q165 268 184 293ZM135 93Q135 136 166.5 164.5Q198 193 243 193Q289 193 321 165Q353 137 353 93Q353 50 321 21.5Q289 -7 243 -7Q198 -7 166.5 21.5Q135 50 135 93Z" glyph-name="question" horiz-adv-x="464" unicode="?" /><glyph d="M329 425Q329 382 297.5 353.5Q266 325 221 325Q175 325 143 353Q111 381 111 425Q111 468 143 496.5Q175 525 221 525Q266 525 297.5 496.5Q329 468 329 425ZM280 225Q257 194 243 176Q229 158 229 134Q229 109 245 95Q261 81 292 81Q336 81 376 102.5Q416 124 444 143V-37Q407 -64 353 -85Q299 -106 226 -106Q131 -106 75.5 -53.5Q20 -1 20 82Q20 138 46.5 178Q73 218 103 258Q115 274 119 285Q123 296 124 305H313Q312 286 305.5 268Q299 250 280 225Z" glyph-name="questiondown" horiz-adv-x="464" unicode="&#191;" /><glyph d="M329 521Q329 478 297.5 449.5Q266 421 221 421Q175 421 143 449Q111 477 111 521Q111 564 143 592.5Q175 621 221 621Q266 621 297.5 592.5Q329 564 329 521ZM280 321Q257 290 243 272Q229 254 229 230Q229 205 245 191Q261 177 292 177Q336 177 376 198.5Q416 220 444 239V59Q407 32 353 11Q299 -10 226 -10Q131 -10 75.5 42.5Q20 95 20 178Q20 234 46.5 274Q73 314 103 354Q115 370 119 381Q123 392 124 401H313Q312 382 305.5 364Q299 346 280 321Z" glyph-name="questiondown.cap" horiz-adv-x="464" /><glyph d="M211 344V614H353V344ZM33 344V614H175V344Z" glyph-name="quotedbl" horiz-adv-x="386" unicode="&quot;" /><glyph d="M243 -116 319 1Q291 7 268 30.5Q245 54 245 93Q245 136 275.5 164.5Q306 193 352 193Q394 193 426 164.5Q458 136 458 82Q458 51 445.5 21.5Q433 -8 415 -35L362 -116ZM12 -116 88 1Q60 7 37 30.5Q14 54 14 93Q14 136 44.5 164.5Q75 193 121 193Q163 193 195 164.5Q227 136 227 82Q227 51 214.5 21.5Q202 -8 184 -35L131 -116Z" glyph-name="quotedblbase" horiz-adv-x="470" unicode="&#8222;" /><glyph d="M227 614 151 497Q179 491 202 467.5Q225 444 225 405Q225 362 194.5 333.5Q164 305 118 305Q76 305 44 333.5Q12 362 12 416Q12 447 24.5 476.5Q37 506 55 533L108 614ZM458 614 382 497Q410 491 433 467.5Q456 444 456 405Q456 362 425.5 333.5Q395 305 349 305Q307 305 275 333.5Q243 362 243 416Q243 447 255.5 476.5Q268 506 286 533L339 614Z" glyph-name="quotedblleft" horiz-adv-x="470" unicode="&#8220;" /><glyph d="M243 315 319 432Q291 438 268 461.5Q245 485 245 524Q245 567 275.5 595.5Q306 624 352 624Q394 624 426 595.5Q458 567 458 513Q458 482 445.5 452.5Q433 423 415 396L362 315ZM12 315 88 432Q60 438 37 461.5Q14 485 14 524Q14 567 44.5 595.5Q75 624 121 624Q163 624 195 595.5Q227 567 227 513Q227 482 214.5 452.5Q202 423 184 396L131 315Z" glyph-name="quotedblright" horiz-adv-x="470" unicode="&#8221;" /><glyph d="M227 614 151 497Q179 491 202 467.5Q225 444 225 405Q225 362 194.5 333.5Q164 305 118 305Q76 305 44 333.5Q12 362 12 416Q12 447 24.5 476.5Q37 506 55 533L108 614Z" glyph-name="quoteleft" horiz-adv-x="239" unicode="&#8216;" /><glyph d="M12 315 88 432Q60 438 37 461.5Q14 485 14 524Q14 567 44.5 595.5Q75 624 121 624Q163 624 195 595.5Q227 567 227 513Q227 482 214.5 452.5Q202 423 184 396L131 315Z" glyph-name="quoteright" horiz-adv-x="239" unicode="&#8217;" /><glyph d="M12 -116 88 1Q60 7 37 30.5Q14 54 14 93Q14 136 44.5 164.5Q75 193 121 193Q163 193 195 164.5Q227 136 227 82Q227 51 214.5 21.5Q202 -8 184 -35L131 -116Z" glyph-name="quotesinglbase" horiz-adv-x="239" unicode="&#8218;" /><glyph d="M33 344V614H185V344Z" glyph-name="quotesingle" horiz-adv-x="218" unicode="'" /><glyph d="M364 456V276Q348 283 332 286.5Q316 290 295 290Q263 290 244 278.5Q225 267 221 250V0H31V454H221V417Q239 438 264.5 451Q290 464 325 464Q338 464 348.5 461.5Q359 459 364 456Z" glyph-name="r" horiz-adv-x="380" unicode="r" /><glyph d="M287 493H111L196 650H372ZM364 456V276Q348 283 332 286.5Q316 290 295 290Q263 290 244 278.5Q225 267 221 250V0H31V454H221V417Q239 438 264.5 451Q290 464 325 464Q338 464 348.5 461.5Q359 459 364 456Z" glyph-name="racute" horiz-adv-x="380" unicode="&#341;" /><glyph d="M368 650 271 493H135L38 650H173L203 609L233 650ZM364 456V276Q348 283 332 286.5Q316 290 295 290Q263 290 244 278.5Q225 267 221 250V0H31V454H221V417Q239 438 264.5 451Q290 464 325 464Q338 464 348.5 461.5Q359 459 364 456Z" glyph-name="rcaron" horiz-adv-x="380" unicode="&#345;" /><glyph d="M23 -247 77 -181Q58 -173 44 -154Q30 -135 30 -107Q30 -72 56 -49Q82 -26 122 -26Q158 -26 186 -49Q214 -72 214 -114Q214 -142 201 -165Q188 -188 169 -211L139 -247ZM364 456V276Q348 283 332 286.5Q316 290 295 290Q263 290 244 278.5Q225 267 221 250V0H31V454H221V417Q239 438 264.5 451Q290 464 325 464Q338 464 348.5 461.5Q359 459 364 456Z" glyph-name="rcommaaccent" horiz-adv-x="380" unicode="&#343;" /><glyph d="M384 441Q384 362 330.5 310Q277 258 203 258Q129 258 75.5 310Q22 362 22 441Q22 520 75.5 572Q129 624 203 624Q277 624 330.5 572Q384 520 384 441ZM351 441Q351 507 307.5 550Q264 593 203 593Q142 593 98.5 550Q55 507 55 441Q55 375 98.5 332Q142 289 203 289Q264 289 307.5 332Q351 375 351 441ZM207 452Q217 452 223 455.5Q229 459 229 468Q229 477 223 481Q217 485 207 485H189V452ZM195 401H189V346H125V538H219Q251 538 271.5 519.5Q292 501 292 468Q292 447 283 432Q274 417 258 409L298 346H227Z" glyph-name="registered" horiz-adv-x="407" unicode="&#174;" /><glyph d="M367 595Q367 548 333 515Q299 482 250 482Q201 482 167 515Q133 548 133 595Q133 642 167 675.5Q201 709 250 709Q299 709 333 675.5Q367 642 367 595ZM283 595Q283 608 274 618Q265 628 250 628Q236 628 227 618Q218 608 218 595Q218 582 227 572.5Q236 563 250 563Q265 563 274 572.5Q283 582 283 595Z" glyph-name="ring" horiz-adv-x="500" unicode="&#730;" /><glyph d="M367 751Q367 704 333 671Q299 638 250 638Q201 638 167 671Q133 704 133 751Q133 798 167 831.5Q201 865 250 865Q299 865 333 831.5Q367 798 367 751ZM283 751Q283 764 274 774Q265 784 250 784Q236 784 227 774Q218 764 218 751Q218 738 227 728.5Q236 719 250 719Q265 719 274 728.5Q283 738 283 751Z" glyph-name="ring.cap" horiz-adv-x="500" /><glyph d="M17 32V181Q49 157 99.5 142.5Q150 128 181 128Q199 128 208 131.5Q217 135 217 144Q217 152 210 156Q203 160 186 163L159 168Q93 179 53 212.5Q13 246 13 308Q13 384 68.5 424Q124 464 208 464Q260 464 301 454Q342 444 378 423V278Q344 300 306 313Q268 326 231 326Q217 326 209 322.5Q201 319 201 311Q201 304 207.5 300Q214 296 224 294L254 286Q338 266 371.5 232Q405 198 405 137Q405 62 346.5 26Q288 -10 200 -10Q150 -10 100.5 0.5Q51 11 17 32Z" glyph-name="s" horiz-adv-x="415" unicode="s" /><glyph d="M297 493H121L206 650H382ZM17 32V181Q49 157 99.5 142.5Q150 128 181 128Q199 128 208 131.5Q217 135 217 144Q217 152 210 156Q203 160 186 163L159 168Q93 179 53 212.5Q13 246 13 308Q13 384 68.5 424Q124 464 208 464Q260 464 301 454Q342 444 378 423V278Q344 300 306 313Q268 326 231 326Q217 326 209 322.5Q201 319 201 311Q201 304 207.5 300Q214 296 224 294L254 286Q338 266 371.5 232Q405 198 405 137Q405 62 346.5 26Q288 -10 200 -10Q150 -10 100.5 0.5Q51 11 17 32Z" glyph-name="sacute" horiz-adv-x="415" unicode="&#347;" /><glyph d="M378 650 281 493H145L48 650H183L213 609L243 650ZM17 32V181Q49 157 99.5 142.5Q150 128 181 128Q199 128 208 131.5Q217 135 217 144Q217 152 210 156Q203 160 186 163L159 168Q93 179 53 212.5Q13 246 13 308Q13 384 68.5 424Q124 464 208 464Q260 464 301 454Q342 444 378 423V278Q344 300 306 313Q268 326 231 326Q217 326 209 322.5Q201 319 201 311Q201 304 207.5 300Q214 296 224 294L254 286Q338 266 371.5 232Q405 198 405 137Q405 62 346.5 26Q288 -10 200 -10Q150 -10 100.5 0.5Q51 11 17 32Z" glyph-name="scaron" horiz-adv-x="415" unicode="&#353;" /><glyph d="M17 32V181Q49 157 99.5 142.5Q150 128 181 128Q199 128 208 131.5Q217 135 217 144Q217 152 210 156Q203 160 186 163L159 168Q93 179 53 212.5Q13 246 13 308Q13 384 68.5 424Q124 464 208 464Q260 464 301 454Q342 444 378 423V278Q344 300 306 313Q268 326 231 326Q217 326 209 322.5Q201 319 201 311Q201 304 207.5 300Q214 296 224 294L254 286Q338 266 371.5 232Q405 198 405 137Q405 62 346.5 26Q288 -10 200 -10Q150 -10 100.5 0.5Q51 11 17 32ZM208 -175H52L119 -32H275Z" glyph-name="scedilla" horiz-adv-x="415" unicode="&#351;" /><glyph d="M281 650 378 493H243L213 534L183 493H48L145 650ZM17 32V181Q49 157 99.5 142.5Q150 128 181 128Q199 128 208 131.5Q217 135 217 144Q217 152 210 156Q203 160 186 163L159 168Q93 179 53 212.5Q13 246 13 308Q13 384 68.5 424Q124 464 208 464Q260 464 301 454Q342 444 378 423V278Q344 300 306 313Q268 326 231 326Q217 326 209 322.5Q201 319 201 311Q201 304 207.5 300Q214 296 224 294L254 286Q338 266 371.5 232Q405 198 405 137Q405 62 346.5 26Q288 -10 200 -10Q150 -10 100.5 0.5Q51 11 17 32Z" glyph-name="scircumflex" horiz-adv-x="415" unicode="&#349;" /><glyph d="M109 -247 163 -181Q144 -173 130 -154Q116 -135 116 -107Q116 -72 142 -49Q168 -26 208 -26Q244 -26 272 -49Q300 -72 300 -114Q300 -142 287 -165Q274 -188 255 -211L225 -247ZM17 32V181Q49 157 99.5 142.5Q150 128 181 128Q199 128 208 131.5Q217 135 217 144Q217 152 210 156Q203 160 186 163L159 168Q93 179 53 212.5Q13 246 13 308Q13 384 68.5 424Q124 464 208 464Q260 464 301 454Q342 444 378 423V278Q344 300 306 313Q268 326 231 326Q217 326 209 322.5Q201 319 201 311Q201 304 207.5 300Q214 296 224 294L254 286Q338 266 371.5 232Q405 198 405 137Q405 62 346.5 26Q288 -10 200 -10Q150 -10 100.5 0.5Q51 11 17 32Z" glyph-name="scommaaccent" horiz-adv-x="415" unicode="&#537;" /><glyph d="M283 265 211 312Q199 310 194 303Q189 296 189 288Q189 279 193.5 273Q198 267 211 259L282 212Q295 214 300 221Q305 228 305 236Q305 245 300.5 251Q296 257 283 265ZM102 389Q86 405 76 426.5Q66 448 66 479Q66 547 121.5 585.5Q177 624 261 624Q313 624 354 614Q395 604 431 583V438Q397 460 358.5 473Q320 486 286 486Q269 486 260 480.5Q251 475 251 465Q251 459 254.5 454.5Q258 450 265 446L370 385Q421 355 447.5 326Q474 297 474 251Q474 211 451.5 181Q429 151 391 134Q407 118 417.5 96.5Q428 75 428 45Q428 -23 372.5 -61.5Q317 -100 233 -100Q181 -100 140 -90Q99 -80 63 -59V86Q97 64 135.5 51Q174 38 208 38Q225 38 234 43.5Q243 49 243 59Q243 65 239.5 69.5Q236 74 229 78L124 139Q73 169 46.5 198Q20 227 20 273Q20 313 42 343Q64 373 102 389Z" glyph-name="section" horiz-adv-x="494" unicode="&#167;" /><glyph d="M10 -100 86 17Q58 23 35 46.5Q12 70 12 109Q12 152 42.5 180.5Q73 209 119 209Q161 209 193 180.5Q225 152 225 98Q225 67 212.5 37.5Q200 8 182 -19L129 -100ZM12 346Q12 392 43 423Q74 454 118 454Q163 454 194 423Q225 392 225 346Q225 300 194 269Q163 238 118 238Q74 238 43 269Q12 300 12 346Z" glyph-name="semicolon" horiz-adv-x="237" unicode=";" /><glyph d="M21 -100 97 17Q69 23 46 46.5Q23 70 23 109Q23 152 53.5 180.5Q84 209 130 209Q172 209 204 180.5Q236 152 236 98Q236 67 223.5 37.5Q211 8 193 -19L140 -100ZM23 346Q23 392 54 423Q85 454 129 454Q174 454 205 423Q236 392 236 346Q236 300 205 269Q174 238 129 238Q85 238 54 269Q23 300 23 346Z" glyph-name="semicolon.tab" horiz-adv-x="260" /><glyph d="M506 611 228 0H23L232 449H10V614H506Z" glyph-name="seven" horiz-adv-x="511" unicode="7" /><glyph d="M518 611 240 0H35L244 449H12V614H518Z" glyph-name="seven.lt" horiz-adv-x="520" /><glyph d="M264 -10Q160 -10 89 58Q18 126 18 227Q18 264 30.5 301Q43 338 74 390L204 614H413L317 443L315 442Q404 432 457.5 370.5Q511 309 511 227Q511 126 440 58Q369 -10 264 -10ZM336 227Q336 257 315.5 277.5Q295 298 264 298Q236 298 215 277.5Q194 257 194 227Q194 197 215 177Q236 157 264 157Q295 157 315.5 177Q336 197 336 227Z" glyph-name="six" horiz-adv-x="526" unicode="6" /><glyph d="M260 -10Q156 -10 85 58Q14 126 14 227Q14 264 26.5 301Q39 338 70 390L200 614H409L313 443L311 442Q400 432 453.5 370.5Q507 309 507 227Q507 126 436 58Q365 -10 260 -10ZM332 227Q332 257 311.5 277.5Q291 298 260 298Q232 298 211 277.5Q190 257 190 227Q190 197 211 177Q232 157 260 157Q291 157 311.5 177Q332 197 332 227Z" glyph-name="six.lt" horiz-adv-x="520" /><glyph d="M5 -84 253 650H410L162 -84Z" glyph-name="slash" horiz-adv-x="415" unicode="/" /><glyph d="M5 -64 253 670H410L162 -64Z" glyph-name="slash.cap" horiz-adv-x="415" /><glyph glyph-name="space" horiz-adv-x="187" unicode=" " /><glyph glyph-name="space.tab" horiz-adv-x="260" /><glyph d="M472 158V0H24V158H61Q69 173 74.5 190.5Q80 208 81 234H24V375H81V410Q81 507 145.5 565.5Q210 624 317 624Q360 624 397.5 615Q435 606 457 593V422Q436 435 407 444Q378 453 346 453Q308 453 287.5 434Q267 415 267 375H369V234H267Q266 212 261 191.5Q256 171 246 158Z" glyph-name="sterling" horiz-adv-x="487" unicode="&#163;" /><glyph d="M484 158V0H36V158H73Q81 173 86.5 190.5Q92 208 93 234H36V375H93V410Q93 507 157.5 565.5Q222 624 329 624Q372 624 409.5 615Q447 606 469 593V422Q448 435 419 444Q390 453 358 453Q320 453 299.5 434Q279 415 279 375H381V234H279Q278 212 273 191.5Q268 171 258 158Z" glyph-name="sterling.lt" horiz-adv-x="520" /><glyph d="M270 308V0H81V308H10V454H81V581H270V454H351V308Z" glyph-name="t" horiz-adv-x="361" unicode="t" /><glyph d="M315 134H270V0H81V134H39V264H81V308H10V454H81V581H270V454H351V308H270V264H315Z" glyph-name="tbar" horiz-adv-x="361" unicode="&#359;" /><glyph d="M438 483H292L340 650H488ZM270 308V0H81V308H10V454H81V581H270V454H351V308Z" glyph-name="tcaron" horiz-adv-x="361" unicode="&#357;" /><glyph d="M79 -247 133 -181Q114 -173 100 -154Q86 -135 86 -107Q86 -72 112 -49Q138 -26 178 -26Q214 -26 242 -49Q270 -72 270 -114Q270 -142 257 -165Q244 -188 225 -211L195 -247ZM270 308V0H81V308H10V454H81V581H270V454H351V308Z" glyph-name="tcommaaccent" horiz-adv-x="361" unicode="&#355;" /><glyph d="M221 272V182Q227 168 241.5 159Q256 150 274 150Q304 150 321 172Q338 194 338 227Q338 260 321 282Q304 304 274 304Q255 304 241 295Q227 286 221 272ZM221 35V-153H31V650H221V419Q237 436 267 450Q297 464 331 464Q427 464 477.5 394.5Q528 325 528 227Q528 129 477.5 59.5Q427 -10 331 -10Q297 -10 267 4Q237 18 221 35Z" glyph-name="thorn" horiz-adv-x="539" unicode="&#254;" /><glyph d="M22 449V614H455V611L343 376Q395 346 423 303.5Q451 261 451 205Q451 102 381 46Q311 -10 212 -10Q146 -10 100 5Q54 20 20 42V213Q58 181 101.5 163Q145 145 189 145Q229 145 249.5 160.5Q270 176 270 204Q270 247 226 262.5Q182 278 128 273V275L211 449Z" glyph-name="three" horiz-adv-x="470" unicode="3" /><glyph d="M37 449V614H485V611L365 376Q422 350 451.5 305.5Q481 261 481 205Q481 102 408 46Q335 -10 234 -10Q166 -10 118 5Q70 20 35 42V213Q75 181 119.5 163Q164 145 210 145Q251 145 275 160.5Q299 176 299 204Q299 247 250.5 262.5Q202 278 147 273V275L237 449Z" glyph-name="three.lt" horiz-adv-x="520" /><glyph d="M616 614 207 0H111L520 614ZM26 509V614H286V612L218 476Q248 460 265 433.5Q282 407 282 376Q282 315 240.5 282Q199 249 139 249Q100 249 72.5 258Q45 267 25 280V386Q47 367 73 357Q99 347 124 347Q146 347 157 355Q168 363 168 376Q168 399 142.5 407Q117 415 88 411V412L139 509ZM636 359 542 152H581V198H683V152H729V54H683V0H581V54H416V146L522 359Z" glyph-name="threequarters" horiz-adv-x="747" unicode="&#190;" /><glyph d="M18 509V614H278V612L210 476Q240 460 257 433.5Q274 407 274 376Q274 315 232.5 282Q191 249 131 249Q92 249 64.5 258Q37 267 17 280V386Q39 367 65 357Q91 347 116 347Q138 347 149 355Q160 363 160 376Q160 399 134.5 407Q109 415 80 411V412L131 509Z" glyph-name="threesuperior" horiz-adv-x="290" unicode="&#179;" /><glyph d="M305 650H405Q405 589 386.5 539Q368 489 314 489Q279 489 260.5 502.5Q242 516 217 516Q207 516 201 509.5Q195 503 195 493H95Q95 554 113.5 604Q132 654 186 654Q221 654 239.5 640.5Q258 627 283 627Q293 627 299 633.5Q305 640 305 650Z" glyph-name="tilde" horiz-adv-x="500" unicode="&#732;" /><glyph d="M315 816H415Q415 755 396.5 705Q378 655 324 655Q289 655 260.5 668.5Q232 682 207 682Q197 682 191 675.5Q185 669 185 659H85Q85 720 103.5 770Q122 820 176 820Q211 820 239.5 806.5Q268 793 293 793Q303 793 309 799.5Q315 806 315 816Z" glyph-name="tilde.cap" horiz-adv-x="500" /><glyph d="M20 531V614H262V531H186V360H95V531ZM441 403H440L382 476V360H293V614H378L440 527L503 614H588V360H499V476Z" glyph-name="trademark" horiz-adv-x="618" unicode="&#8482;" /><glyph d="M333 166H486V0H8V4L189 251Q228 304 243.5 330.5Q259 357 259 387Q259 412 242 426Q225 440 195 440Q152 440 105 415Q58 390 30 371V555Q67 582 125 603Q183 624 256 624Q351 624 406.5 571.5Q462 519 462 436Q462 380 437 331.5Q412 283 378 232Z" glyph-name="two" horiz-adv-x="498" unicode="2" /><glyph d="M339 166H492V0H14V4L195 251Q234 304 249.5 330.5Q265 357 265 387Q265 412 248 426Q231 440 201 440Q158 440 111 415Q64 390 36 371V555Q73 582 131 603Q189 624 262 624Q357 624 412.5 571.5Q468 519 468 436Q468 380 443 331.5Q418 283 384 232Z" glyph-name="two.lt" horiz-adv-x="520" /><glyph d="M209 360H297V255H9V257L115 401Q139 433 146.5 446.5Q154 460 154 476Q154 489 145 497Q136 505 119 505Q94 505 66.5 491Q39 477 23 467V580Q45 595 80 607Q115 619 160 619Q216 619 249 588.5Q282 558 282 509Q282 477 266 449Q250 421 231 393Z" glyph-name="twosuperior" horiz-adv-x="308" unicode="&#178;" /><glyph d="M500 454V0H311V37Q292 16 260 3Q228 -10 190 -10Q117 -10 73.5 35Q30 80 30 155V454H220V203Q220 183 230.5 168.5Q241 154 263 154Q279 154 292.5 164Q306 174 310 191V454Z" glyph-name="u" horiz-adv-x="531" unicode="u" /><glyph d="M349 493H173L258 650H434ZM500 454V0H311V37Q292 16 260 3Q228 -10 190 -10Q117 -10 73.5 35Q30 80 30 155V454H220V203Q220 183 230.5 168.5Q241 154 263 154Q279 154 292.5 164Q306 174 310 191V454Z" glyph-name="uacute" horiz-adv-x="531" unicode="&#250;" /><glyph d="M500 454V0H311V37Q292 16 260 3Q228 -10 190 -10Q117 -10 73.5 35Q30 80 30 155V454H220V203Q220 183 230.5 168.5Q241 154 263 154Q279 154 292.5 164Q306 174 310 191V454ZM265 484Q199 484 155 524Q111 564 111 643H240Q240 624 246.5 615Q253 606 265 606Q278 606 284.5 615Q291 624 291 643H419Q419 564 375 524Q331 484 265 484Z" glyph-name="ubreve" horiz-adv-x="531" unicode="&#365;" /><glyph d="M333 650 430 493H295L265 534L235 493H100L197 650ZM500 454V0H311V37Q292 16 260 3Q228 -10 190 -10Q117 -10 73.5 35Q30 80 30 155V454H220V203Q220 183 230.5 168.5Q241 154 263 154Q279 154 292.5 164Q306 174 310 191V454Z" glyph-name="ucircumflex" horiz-adv-x="531" unicode="&#251;" /><glyph d="M273 564Q273 600 298.5 626Q324 652 360 652Q396 652 422 626Q448 600 448 564Q448 528 422 502.5Q396 477 360 477Q324 477 298.5 502.5Q273 528 273 564ZM83 564Q83 600 108.5 626Q134 652 170 652Q206 652 232 626Q258 600 258 564Q258 528 232 502.5Q206 477 170 477Q134 477 108.5 502.5Q83 528 83 564ZM500 454V0H311V37Q292 16 260 3Q228 -10 190 -10Q117 -10 73.5 35Q30 80 30 155V454H220V203Q220 183 230.5 168.5Q241 154 263 154Q279 154 292.5 164Q306 174 310 191V454Z" glyph-name="udieresis" horiz-adv-x="531" unicode="&#252;" /><glyph d="M500 454V0H311V37Q292 16 260 3Q228 -10 190 -10Q117 -10 73.5 35Q30 80 30 155V454H220V203Q220 183 230.5 168.5Q241 154 263 154Q279 154 292.5 164Q306 174 310 191V454ZM356 493H180L95 650H271Z" glyph-name="ugrave" horiz-adv-x="531" unicode="&#249;" /><glyph d="M500 454V0H311V37Q292 16 260 3Q228 -10 190 -10Q117 -10 73.5 35Q30 80 30 155V454H220V203Q220 183 230.5 168.5Q241 154 263 154Q279 154 292.5 164Q306 174 310 191V454ZM424 493H278L363 650H509ZM248 493H102L187 650H333Z" glyph-name="uhungarumlaut" horiz-adv-x="531" unicode="&#369;" /><glyph d="M500 454V0H311V37Q292 16 260 3Q228 -10 190 -10Q117 -10 73.5 35Q30 80 30 155V454H220V203Q220 183 230.5 168.5Q241 154 263 154Q279 154 292.5 164Q306 174 310 191V454ZM131 493V618H400V493Z" glyph-name="umacron" horiz-adv-x="531" unicode="&#363;" /><glyph d="M20 -179V-42H361V-179Z" glyph-name="underscore" horiz-adv-x="381" unicode="_" /><glyph d="M221 614V255H104V483L19 443V561L134 614ZM606 614 197 0H101L510 614ZM473 254V359H733V357L665 221Q695 205 712 178.5Q729 152 729 121Q729 60 687.5 27Q646 -6 586 -6Q547 -6 519.5 3Q492 12 472 25V131Q494 112 520 102Q546 92 571 92Q593 92 604 100Q615 108 615 121Q615 144 589.5 152Q564 160 535 156V157L586 254Z" glyph-name="uni2153" horiz-adv-x="753" unicode="&#8531;" /><glyph d="M217 360H305V255H17V257L123 401Q147 433 154.5 446.5Q162 460 162 476Q162 489 153 497Q144 505 127 505Q102 505 74.5 491Q47 477 31 467V580Q53 595 88 607Q123 619 168 619Q224 619 257 588.5Q290 558 290 509Q290 477 274 449Q258 421 239 393ZM670 614 261 0H165L574 614ZM537 254V359H797V357L729 221Q759 205 776 178.5Q793 152 793 121Q793 60 751.5 27Q710 -6 650 -6Q611 -6 583.5 3Q556 12 536 25V131Q558 112 584 102Q610 92 635 92Q657 92 668 100Q679 108 679 121Q679 144 653.5 152Q628 160 599 156V157L650 254Z" glyph-name="uni2154" horiz-adv-x="817" unicode="&#8532;" /><glyph d="M221 614V255H104V483L19 443V561L134 614ZM606 614 197 0H101L510 614ZM574 -6Q514 -6 471 22Q428 50 428 100Q428 128 442.5 148.5Q457 169 479 179Q459 191 449.5 211.5Q440 232 440 254Q440 308 480.5 336Q521 364 574 364Q626 364 666.5 336Q707 308 707 254Q707 232 698 211.5Q689 191 668 179Q690 169 704.5 148.5Q719 128 719 100Q719 50 676.5 22Q634 -6 574 -6ZM574 225Q587 225 595.5 233Q604 241 604 252Q604 262 595.5 270Q587 278 574 278Q560 278 551.5 270Q543 262 543 252Q543 241 551.5 233Q560 225 574 225ZM574 83Q587 83 596 91Q605 99 605 110Q605 121 596 129Q587 137 574 137Q560 137 550.5 129Q541 121 541 110Q541 99 550.5 91Q560 83 574 83Z" glyph-name="uni215B" horiz-adv-x="753" unicode="&#8539;" /><glyph d="M616 614 207 0H111L520 614ZM26 509V614H286V612L218 476Q248 460 265 433.5Q282 407 282 376Q282 315 240.5 282Q199 249 139 249Q100 249 72.5 258Q45 267 25 280V386Q47 367 73 357Q99 347 124 347Q146 347 157 355Q168 363 168 376Q168 399 142.5 407Q117 415 88 411V412L139 509ZM584 -6Q524 -6 481 22Q438 50 438 100Q438 128 452.5 148.5Q467 169 489 179Q469 191 459.5 211.5Q450 232 450 254Q450 308 490.5 336Q531 364 584 364Q636 364 676.5 336Q717 308 717 254Q717 232 708 211.5Q699 191 678 179Q700 169 714.5 148.5Q729 128 729 100Q729 50 686.5 22Q644 -6 584 -6ZM584 225Q597 225 605.5 233Q614 241 614 252Q614 262 605.5 270Q597 278 584 278Q570 278 561.5 270Q553 262 553 252Q553 241 561.5 233Q570 225 584 225ZM584 83Q597 83 606 91Q615 99 615 110Q615 121 606 129Q597 137 584 137Q570 137 560.5 129Q551 121 551 110Q551 99 560.5 91Q570 83 584 83Z" glyph-name="uni215C" horiz-adv-x="763" unicode="&#8540;" /><glyph d="M616 614 207 0H111L520 614ZM151 489Q207 489 244 458.5Q281 428 281 373Q281 319 240.5 284Q200 249 139 249Q101 249 72.5 258Q44 267 24 280V382Q41 366 69.5 354.5Q98 343 126 343Q144 343 156.5 350Q169 357 169 372Q169 388 156 395Q143 402 121 402Q102 402 76 399Q50 396 36 390V614H261V513H130V487Q134 488 139 488.5Q144 489 151 489ZM584 -6Q524 -6 481 22Q438 50 438 100Q438 128 452.5 148.5Q467 169 489 179Q469 191 459.5 211.5Q450 232 450 254Q450 308 490.5 336Q531 364 584 364Q636 364 676.5 336Q717 308 717 254Q717 232 708 211.5Q699 191 678 179Q700 169 714.5 148.5Q729 128 729 100Q729 50 686.5 22Q644 -6 584 -6ZM584 225Q597 225 605.5 233Q614 241 614 252Q614 262 605.5 270Q597 278 584 278Q570 278 561.5 270Q553 262 553 252Q553 241 561.5 233Q570 225 584 225ZM584 83Q597 83 606 91Q615 99 615 110Q615 121 606 129Q597 137 584 137Q570 137 560.5 129Q551 121 551 110Q551 99 560.5 91Q570 83 584 83Z" glyph-name="uni215D" horiz-adv-x="763" unicode="&#8541;" /><glyph d="M316 612 154 255H31L150 513H19V614H316ZM576 614 167 0H71L480 614ZM544 -6Q484 -6 441 22Q398 50 398 100Q398 128 412.5 148.5Q427 169 449 179Q429 191 419.5 211.5Q410 232 410 254Q410 308 450.5 336Q491 364 544 364Q596 364 636.5 336Q677 308 677 254Q677 232 668 211.5Q659 191 638 179Q660 169 674.5 148.5Q689 128 689 100Q689 50 646.5 22Q604 -6 544 -6ZM544 225Q557 225 565.5 233Q574 241 574 252Q574 262 565.5 270Q557 278 544 278Q530 278 521.5 270Q513 262 513 252Q513 241 521.5 233Q530 225 544 225ZM544 83Q557 83 566 91Q575 99 575 110Q575 121 566 129Q557 137 544 137Q530 137 520.5 129Q511 121 511 110Q511 99 520.5 91Q530 83 544 83Z" glyph-name="uni215E" horiz-adv-x="723" unicode="&#8542;" /><glyph d="M500 454V0Q468 -31 457.5 -41.5Q447 -52 447 -62Q447 -69 452 -73.5Q457 -78 466 -78Q474 -78 481 -75Q488 -72 500 -65V-165Q486 -172 469.5 -177Q453 -182 431 -182Q391 -182 360 -162Q329 -142 329 -99Q329 -71 345 -47.5Q361 -24 385 0H311V37Q292 16 260 3Q228 -10 190 -10Q117 -10 73.5 35Q30 80 30 155V454H220V203Q220 183 230.5 168.5Q241 154 263 154Q279 154 292.5 164Q306 174 310 191V454Z" glyph-name="uogonek" horiz-adv-x="531" unicode="&#371;" /><glyph d="M382 595Q382 548 348 515Q314 482 265 482Q216 482 182 515Q148 548 148 595Q148 642 182 675.5Q216 709 265 709Q314 709 348 675.5Q382 642 382 595ZM298 595Q298 608 289 618Q280 628 265 628Q251 628 242 618Q233 608 233 595Q233 582 242 572.5Q251 563 265 563Q280 563 289 572.5Q298 582 298 595ZM500 454V0H311V37Q292 16 260 3Q228 -10 190 -10Q117 -10 73.5 35Q30 80 30 155V454H220V203Q220 183 230.5 168.5Q241 154 263 154Q279 154 292.5 164Q306 174 310 191V454Z" glyph-name="uring" horiz-adv-x="531" unicode="&#367;" /><glyph d="M500 454V0H311V37Q292 16 260 3Q228 -10 190 -10Q117 -10 73.5 35Q30 80 30 155V454H220V203Q220 183 230.5 168.5Q241 154 263 154Q279 154 292.5 164Q306 174 310 191V454ZM320 650H420Q420 589 401.5 539Q383 489 329 489Q294 489 275.5 502.5Q257 516 232 516Q222 516 216 509.5Q210 503 210 493H110Q110 554 128.5 604Q147 654 201 654Q236 654 254.5 640.5Q273 627 298 627Q308 627 314 633.5Q320 640 320 650Z" glyph-name="utilde" horiz-adv-x="531" unicode="&#361;" /><glyph d="M337 0H173L0 454H192L261 234L327 454H510Z" glyph-name="v" horiz-adv-x="510" unicode="v" /><glyph d="M419 454 480 251 543 454H725L570 0H418L362 181L307 0H155L0 454H189L252 251L313 454Z" glyph-name="w" horiz-adv-x="725" unicode="w" /><glyph d="M446 493H270L355 650H531ZM419 454 480 251 543 454H725L570 0H418L362 181L307 0H155L0 454H189L252 251L313 454Z" glyph-name="wacute" horiz-adv-x="725" unicode="&#7811;" /><glyph d="M430 650 527 493H392L362 534L332 493H197L294 650ZM419 454 480 251 543 454H725L570 0H418L362 181L307 0H155L0 454H189L252 251L313 454Z" glyph-name="wcircumflex" horiz-adv-x="725" unicode="&#373;" /><glyph d="M370 564Q370 600 395.5 626Q421 652 457 652Q493 652 519 626Q545 600 545 564Q545 528 519 502.5Q493 477 457 477Q421 477 395.5 502.5Q370 528 370 564ZM180 564Q180 600 205.5 626Q231 652 267 652Q303 652 329 626Q355 600 355 564Q355 528 329 502.5Q303 477 267 477Q231 477 205.5 502.5Q180 528 180 564ZM419 454 480 251 543 454H725L570 0H418L362 181L307 0H155L0 454H189L252 251L313 454Z" glyph-name="wdieresis" horiz-adv-x="725" unicode="&#7813;" /><glyph d="M419 454 480 251 543 454H725L570 0H418L362 181L307 0H155L0 454H189L252 251L313 454ZM453 493H277L192 650H368Z" glyph-name="wgrave" horiz-adv-x="725" unicode="&#7809;" /><glyph d="M508 454 358 229 511 0H309L251 94L194 0H0L152 229L3 454H205L259 364L314 454Z" glyph-name="x" horiz-adv-x="511" unicode="x" /><glyph d="M287 -153H99L167 24L0 454H196L265 239L331 454H518Z" glyph-name="y" horiz-adv-x="518" unicode="y" /><glyph d="M287 -153H99L167 24L0 454H196L265 239L331 454H518ZM351 493H175L260 650H436Z" glyph-name="yacute" horiz-adv-x="518" unicode="&#253;" /><glyph d="M287 -153H99L167 24L0 454H196L265 239L331 454H518ZM335 650 432 493H297L267 534L237 493H102L199 650Z" glyph-name="ycircumflex" horiz-adv-x="518" unicode="&#375;" /><glyph d="M287 -153H99L167 24L0 454H196L265 239L331 454H518ZM275 564Q275 600 300.5 626Q326 652 362 652Q398 652 424 626Q450 600 450 564Q450 528 424 502.5Q398 477 362 477Q326 477 300.5 502.5Q275 528 275 564ZM85 564Q85 600 110.5 626Q136 652 172 652Q208 652 234 626Q260 600 260 564Q260 528 234 502.5Q208 477 172 477Q136 477 110.5 502.5Q85 528 85 564Z" glyph-name="ydieresis" horiz-adv-x="518" unicode="&#255;" /><glyph d="M523 92H386V0H197V92H60V193H197V232H60V333H148L10 614H220L297 429L374 614H576L436 333H523V232H386V193H523Z" glyph-name="yen" horiz-adv-x="586" unicode="&#165;" /><glyph d="M480 92H353V0H164V92H37V193H164V232H37V333H122L7 614H209L264 446L319 614H513L395 333H480V232H353V193H480Z" glyph-name="yen.lt" horiz-adv-x="520" /><glyph d="M287 -153H99L167 24L0 454H196L265 239L331 454H518ZM358 493H182L97 650H273Z" glyph-name="ygrave" horiz-adv-x="518" unicode="&#7923;" /><glyph d="M435 146V0H10V4L176 308H21V454H435V450L281 146Z" glyph-name="z" horiz-adv-x="451" unicode="z" /><glyph d="M312 493H136L221 650H397ZM435 146V0H10V4L176 308H21V454H435V450L281 146Z" glyph-name="zacute" horiz-adv-x="451" unicode="&#378;" /><glyph d="M393 650 296 493H160L63 650H198L228 609L258 650ZM435 146V0H10V4L176 308H21V454H435V450L281 146Z" glyph-name="zcaron" horiz-adv-x="451" unicode="&#382;" /><glyph d="M435 146V0H10V4L176 308H21V454H435V450L281 146ZM333 580Q333 534 302 508Q271 482 228 482Q185 482 154 508Q123 534 123 580Q123 626 154 652Q185 678 228 678Q271 678 302 652Q333 626 333 580Z" glyph-name="zdotaccent" horiz-adv-x="451" unicode="&#380;" /><glyph d="M285 -10Q167 -10 92 78.5Q17 167 17 307Q17 447 92 535.5Q167 624 285 624Q403 624 478 535.5Q553 447 553 307Q553 167 478 78.5Q403 -10 285 -10ZM285 456Q240 456 222 409.5Q204 363 204 307Q204 251 222 204.5Q240 158 285 158Q329 158 347 204.5Q365 251 365 307Q365 363 347 409.5Q329 456 285 456Z" glyph-name="zero" horiz-adv-x="570" unicode="0" /><glyph d="M260 -10Q142 -10 79 78.5Q16 167 16 307Q16 447 79 535.5Q142 624 260 624Q378 624 441 535.5Q504 447 504 307Q504 167 441 78.5Q378 -10 260 -10ZM260 456Q223 456 213 409.5Q203 363 203 307Q203 251 213 204.5Q223 158 260 158Q297 158 307 204.5Q317 251 317 307Q317 363 307 409.5Q297 456 260 456Z" glyph-name="zero.lt" horiz-adv-x="520" /></font>
</defs>
</svg>
