<?xml version="1.0" standalone="no"?><!DOCTYPE svg PUBLIC "-//W3C//DTD SVG 1.1//EN" "http://www.w3.org/Graphics/SVG/1.1/DTD/svg11.dtd" ><svg version="1.1" xmlns="http://www.w3.org/2000/svg"><defs><font horiz-adv-x="0" id="font"><font-face ascent="750" bbox="-182 -236 969 923" cap-height="614" descent="-250" font-family="Copyright Klim Type Foundry" font-stretch="normal" font-style="normal" font-weight="700" units-per-em="1000" x-height="450" /><missing-glyph horiz-adv-x="608" /><glyph d="M366 424 270 251H397ZM442 0 421 119H196L130 0H-30L318 614H482L601 0Z" glyph-name="A" horiz-adv-x="646" unicode="A" /><glyph d="M488 492 318 251H445ZM401 0 422 119H224L140 0H-30L408 614H926L902 476H643L625 380H859L836 245H602L583 139H842L818 0Z" glyph-name="AE" horiz-adv-x="889" unicode="&#198;" /><glyph d="M740 666H582L687 796H851ZM488 492 318 251H445ZM401 0 422 119H224L140 0H-30L408 614H926L902 476H643L625 380H859L836 245H602L583 139H842L818 0Z" glyph-name="AEacute" horiz-adv-x="889" unicode="&#508;" /><glyph d="M366 424 270 251H397ZM442 0 421 119H196L130 0H-30L318 614H482L601 0ZM485 666H327L432 796H596Z" glyph-name="Aacute" horiz-adv-x="646" unicode="&#193;" /><glyph d="M366 424 270 251H397ZM442 0 421 119H196L130 0H-30L318 614H482L601 0ZM411 658Q350 658 311.5 696Q273 734 286 804H394Q390 783 398 772.5Q406 762 422 762Q439 762 450.5 772.5Q462 783 466 804H574Q561 732 518 695Q475 658 411 658Z" glyph-name="Abreve" horiz-adv-x="646" unicode="&#258;" /><glyph d="M366 424 270 251H397ZM442 0 421 119H196L130 0H-30L318 614H482L601 0ZM488 798 572 666H450L416 711L366 666H236L368 798Z" glyph-name="Acircumflex" horiz-adv-x="646" unicode="&#194;" /><glyph d="M366 424 270 251H397ZM442 0 421 119H196L130 0H-30L318 614H482L601 0ZM430 734Q430 767 453 790Q476 813 508 813Q540 813 563.5 790Q587 767 587 734Q587 701 563.5 678Q540 655 508 655Q476 655 453 678Q430 701 430 734ZM249 734Q249 767 271.5 790Q294 813 327 813Q359 813 382.5 790Q406 767 406 734Q406 701 382.5 678Q359 655 327 655Q294 655 271.5 678Q249 701 249 734Z" glyph-name="Adieresis" horiz-adv-x="646" unicode="&#196;" /><glyph d="M366 424 270 251H397ZM442 0 421 119H196L130 0H-30L318 614H482L601 0ZM479 666H335L269 796H420Z" glyph-name="Agrave" horiz-adv-x="646" unicode="&#192;" /><glyph d="M366 424 270 251H397ZM442 0 421 119H196L130 0H-30L318 614H482L601 0ZM274 666 293 774H559L540 666Z" glyph-name="Amacron" horiz-adv-x="646" unicode="&#256;" /><glyph d="M318 614H482L601 0Q576 -24 558 -43Q540 -62 540 -79Q540 -86 544 -90Q548 -94 555 -94Q564 -94 572 -90.5Q580 -87 593 -79L578 -166Q564 -174 547 -179.5Q530 -185 509 -185Q475 -185 453.5 -168Q432 -151 432 -120Q432 -83 454.5 -54.5Q477 -26 505 0H442L420 119H196L130 0H-30ZM366 424 270 251H397Z" glyph-name="Aogonek" horiz-adv-x="646" unicode="&#260;" /><glyph d="M366 424 270 251H397ZM442 0 421 119H196L130 0H-30L318 614H482L601 0ZM414 642Q370 642 340 671.5Q310 701 310 743Q310 788 343 820Q376 852 423 852Q467 852 497 823Q527 794 527 752Q527 707 494 674.5Q461 642 414 642ZM416 711Q431 711 442.5 722Q454 733 454 750Q454 763 444.5 773Q435 783 420 783Q406 783 394.5 772.5Q383 762 383 745Q383 731 392.5 721Q402 711 416 711Z" glyph-name="Aring" horiz-adv-x="646" unicode="&#197;" /><glyph d="M516 821H362L445 923H606ZM412 631Q368 631 338.5 655.5Q309 680 309 714Q309 751 341.5 777Q374 803 421 803Q465 803 495 779Q525 755 525 721Q525 684 492 657.5Q459 631 412 631ZM415 689Q429 689 440.5 697Q452 705 452 720Q452 730 442.5 738Q433 746 419 746Q404 746 392.5 737.5Q381 729 381 715Q381 704 390.5 696.5Q400 689 415 689ZM366 424 270 251H397ZM442 0 421 119H196L130 0H-30L318 614H482L601 0Z" glyph-name="Aringacute" horiz-adv-x="646" unicode="&#506;" /><glyph d="M366 424 270 251H397ZM442 0 421 119H196L130 0H-30L318 614H482L601 0ZM503 810H589Q579 750 551.5 705Q524 660 475 660Q441 660 418 678Q395 696 372 696Q360 696 351.5 687Q343 678 341 663H254Q264 723 291.5 768Q319 813 368 813Q402 813 425 795Q448 777 471 777Q483 777 491.5 786Q500 795 503 810Z" glyph-name="Atilde" horiz-adv-x="646" unicode="&#195;" /><glyph d="M449 315Q484 301 505 269.5Q526 238 526 195Q526 104 458.5 52Q391 0 290 0H8L116 614H380Q464 614 510 577Q556 540 556 470Q556 412 523.5 370.5Q491 329 449 315ZM226 371H318Q355 371 378 387Q401 403 401 437Q401 460 385.5 471Q370 482 338 482H246ZM205 251 184 132H292Q329 132 351 151Q373 170 373 201Q373 224 358.5 237.5Q344 251 313 251Z" glyph-name="B" horiz-adv-x="554" unicode="B" /><glyph d="M487 184 460 27Q429 9 392.5 -0.5Q356 -10 312 -10Q190 -10 113 65Q36 140 36 262Q36 426 140.5 525Q245 624 391 624Q441 624 486 612Q531 600 557 581L530 426Q500 451 465 463.5Q430 476 390 476Q309 476 253.5 422Q198 368 198 276Q198 211 237.5 175Q277 139 338 139Q377 139 414.5 150Q452 161 487 184Z" glyph-name="C" horiz-adv-x="529" unicode="C" /><glyph d="M487 184 460 27Q429 9 392.5 -0.5Q356 -10 312 -10Q190 -10 113 65Q36 140 36 262Q36 426 140.5 525Q245 624 391 624Q441 624 486 612Q531 600 557 581L530 426Q500 451 465 463.5Q430 476 390 476Q309 476 253.5 422Q198 368 198 276Q198 211 237.5 175Q277 139 338 139Q377 139 414.5 150Q452 161 487 184ZM482 666H324L429 796H593Z" glyph-name="Cacute" horiz-adv-x="529" unicode="&#262;" /><glyph d="M487 184 460 27Q429 9 392.5 -0.5Q356 -10 312 -10Q190 -10 113 65Q36 140 36 262Q36 426 140.5 525Q245 624 391 624Q441 624 486 612Q531 600 557 581L530 426Q500 451 465 463.5Q430 476 390 476Q309 476 253.5 422Q198 368 198 276Q198 211 237.5 175Q277 139 338 139Q377 139 414.5 150Q452 161 487 184ZM350 663 266 796H388L422 750L472 796H602L470 663Z" glyph-name="Ccaron" horiz-adv-x="529" unicode="&#268;" /><glyph d="M487 184 460 27Q429 9 392.5 -0.5Q356 -10 312 -10Q190 -10 113 65Q36 140 36 262Q36 426 140.5 525Q245 624 391 624Q441 624 486 612Q531 600 557 581L530 426Q500 451 465 463.5Q430 476 390 476Q309 476 253.5 422Q198 368 198 276Q198 211 237.5 175Q277 139 338 139Q377 139 414.5 150Q452 161 487 184ZM267 -181H132L226 -40H362Z" glyph-name="Ccedilla" horiz-adv-x="529" unicode="&#199;" /><glyph d="M487 184 460 27Q429 9 392.5 -0.5Q356 -10 312 -10Q190 -10 113 65Q36 140 36 262Q36 426 140.5 525Q245 624 391 624Q441 624 486 612Q531 600 557 581L530 426Q500 451 465 463.5Q430 476 390 476Q309 476 253.5 422Q198 368 198 276Q198 211 237.5 175Q277 139 338 139Q377 139 414.5 150Q452 161 487 184ZM487 798 571 666H449L415 711L365 666H235L367 798Z" glyph-name="Ccircumflex" horiz-adv-x="529" unicode="&#264;" /><glyph d="M510 743Q510 704 483.5 681Q457 658 421 658Q385 658 358.5 681Q332 704 332 743Q332 781 358.5 804Q385 827 421 827Q457 827 483.5 804Q510 781 510 743ZM487 184 460 27Q429 9 392.5 -0.5Q356 -10 312 -10Q190 -10 113 65Q36 140 36 262Q36 426 140.5 525Q245 624 391 624Q441 624 486 612Q531 600 557 581L530 426Q500 451 465 463.5Q430 476 390 476Q309 476 253.5 422Q198 368 198 276Q198 211 237.5 175Q277 139 338 139Q377 139 414.5 150Q452 161 487 184Z" glyph-name="Cdotaccent" horiz-adv-x="529" unicode="&#266;" /><glyph d="M8 0 116 614H343Q472 614 539.5 545.5Q607 477 607 359Q607 203 505.5 101.5Q404 0 242 0ZM191 139H258Q345 139 395.5 196Q446 253 446 343Q446 405 413 440.5Q380 476 314 476H250Z" glyph-name="D" horiz-adv-x="612" unicode="D" /><glyph d="M297 663 213 796H335L369 750L419 796H549L417 663ZM8 0 116 614H343Q472 614 539.5 545.5Q607 477 607 359Q607 203 505.5 101.5Q404 0 242 0ZM191 139H258Q345 139 395.5 196Q446 253 446 343Q446 405 413 440.5Q380 476 314 476H250Z" glyph-name="Dcaron" horiz-adv-x="612" unicode="&#270;" /><glyph d="M258 0H24L68 251H23L45 375H90L132 614H359Q488 614 555.5 545.5Q623 477 623 359Q623 203 521.5 101.5Q420 0 258 0ZM207 139H274Q361 139 411.5 196Q462 253 462 343Q462 405 429 440.5Q396 476 330 476H266L248 375H336L314 251H227Z" glyph-name="Dcroat" horiz-adv-x="628" unicode="&#272;" /><glyph d="M116 614H556L532 476H250L233 380H489L466 245H209L191 139H472L448 0H8Z" glyph-name="E" horiz-adv-x="519" unicode="E" /><glyph d="M421 666H263L368 796H532ZM116 614H556L532 476H250L233 380H489L466 245H209L191 139H472L448 0H8Z" glyph-name="Eacute" horiz-adv-x="519" unicode="&#201;" /><glyph d="M351 658Q290 658 251.5 696Q213 734 226 804H334Q330 783 338 772.5Q346 762 362 762Q379 762 390.5 772.5Q402 783 406 804H514Q501 732 458 695Q415 658 351 658ZM116 614H556L532 476H250L233 380H489L466 245H209L191 139H472L448 0H8Z" glyph-name="Ebreve" horiz-adv-x="519" unicode="&#276;" /><glyph d="M288 663 204 796H326L360 750L410 796H540L408 663ZM116 614H556L532 476H250L233 380H489L466 245H209L191 139H472L448 0H8Z" glyph-name="Ecaron" horiz-adv-x="519" unicode="&#282;" /><glyph d="M116 614H556L532 476H250L233 380H489L466 245H209L191 139H472L448 0H8ZM424 798 508 666H386L352 711L302 666H172L304 798Z" glyph-name="Ecircumflex" horiz-adv-x="519" unicode="&#202;" /><glyph d="M370 734Q370 767 393 790Q416 813 448 813Q480 813 503.5 790Q527 767 527 734Q527 701 503.5 678Q480 655 448 655Q416 655 393 678Q370 701 370 734ZM189 734Q189 767 211.5 790Q234 813 267 813Q299 813 322.5 790Q346 767 346 734Q346 701 322.5 678Q299 655 267 655Q234 655 211.5 678Q189 701 189 734ZM116 614H556L532 476H250L233 380H489L466 245H209L191 139H472L448 0H8Z" glyph-name="Edieresis" horiz-adv-x="519" unicode="&#203;" /><glyph d="M447 743Q447 704 420.5 681Q394 658 358 658Q322 658 295.5 681Q269 704 269 743Q269 781 295.5 804Q322 827 358 827Q394 827 420.5 804Q447 781 447 743ZM116 614H556L532 476H250L233 380H489L466 245H209L191 139H472L448 0H8Z" glyph-name="Edotaccent" horiz-adv-x="519" unicode="&#278;" /><glyph d="M414 666H270L204 796H355ZM116 614H556L532 476H250L233 380H489L466 245H209L191 139H472L448 0H8Z" glyph-name="Egrave" horiz-adv-x="519" unicode="&#200;" /><glyph d="M213 666 232 774H498L479 666ZM116 614H556L532 476H250L233 380H489L466 245H209L191 139H472L448 0H8Z" glyph-name="Emacron" horiz-adv-x="519" unicode="&#274;" /><glyph d="M397 50 228 370 163 0H8L116 614H260L439 265L501 614H656L558 54Q537 -64 472.5 -118.5Q408 -173 308 -173Q279 -173 257.5 -167.5Q236 -162 217 -155L240 -19Q254 -26 269 -30Q284 -34 303 -34Q341 -34 363.5 -16Q386 2 397 50Z" glyph-name="Eng" horiz-adv-x="631" unicode="&#330;" /><glyph d="M116 614H556L532 476H250L233 380H489L466 245H209L191 139H472L448 0H410Q388 -22 369 -39Q347 -60 347 -79Q347 -86 351 -90Q355 -94 363 -94Q372 -94 380 -90.5Q388 -87 401 -79L385 -166Q371 -174 354 -179.5Q337 -185 317 -185Q282 -185 261 -168Q240 -151 240 -120Q240 -80 266 -50Q288 -24 313 0H8Z" glyph-name="Eogonek" horiz-adv-x="519" unicode="&#280;" /><glyph d="M258 0H24L68 251H23L45 375H90L132 614H359Q488 614 555.5 545.5Q623 477 623 359Q623 203 521.5 101.5Q420 0 258 0ZM207 139H274Q361 139 411.5 196Q462 253 462 343Q462 405 429 440.5Q396 476 330 476H266L248 375H336L314 251H227Z" glyph-name="Eth" horiz-adv-x="628" unicode="&#208;" /><glyph d="M443 16Q419 3 389.5 -3.5Q360 -10 331 -10Q227 -10 159.5 50Q92 110 79 209H20L33 286H77Q78 297 79.5 308.5Q81 320 82 330H41L55 407H103Q138 500 214.5 562Q291 624 392 624Q437 624 476.5 610.5Q516 597 542 575L516 427Q491 452 461 467.5Q431 483 391 483Q349 483 317 462Q285 441 264 407H417L388 330H234Q231 320 229.5 308.5Q228 297 227 286H372L344 209H233Q243 173 271.5 152Q300 131 346 131Q379 131 408 138.5Q437 146 470 166Z" glyph-name="Euro" horiz-adv-x="506" unicode="&#8364;" /><glyph d="M442 16Q418 3 388.5 -3.5Q359 -10 330 -10Q225 -10 158 50Q91 110 78 209H18L32 286H76Q77 297 78.5 308.5Q80 320 81 330H40L53 407H102Q137 500 213.5 562Q290 624 391 624Q436 624 475 610.5Q514 597 540 575L515 427Q490 452 460 467.5Q430 483 390 483Q348 483 316 462Q284 441 263 407H416L387 330H233Q231 320 229.5 308.5Q228 297 227 286H371L342 209H233Q243 173 271 152Q299 131 345 131Q377 131 406 138.5Q435 146 469 166Z" glyph-name="Euro.lt" horiz-adv-x="520" /><glyph d="M167 0H8L116 614H548L523 475H250L229 353H480L456 217H205Z" glyph-name="F" horiz-adv-x="508" unicode="F" /><glyph d="M313 -10Q186 -10 111 68.5Q36 147 36 267Q36 421 135.5 522.5Q235 624 384 624Q450 624 501.5 608Q553 592 586 570L559 414Q527 443 480.5 459.5Q434 476 384 476Q299 476 248.5 421Q198 366 198 274Q198 210 231 171.5Q264 133 321 133Q344 133 367 138Q390 143 407 153L418 215H329L352 343H582L533 63Q484 26 430 8Q376 -10 313 -10Z" glyph-name="G" horiz-adv-x="595" unicode="G" /><glyph d="M412 658Q351 658 312.5 696Q274 734 287 804H395Q391 783 399 772.5Q407 762 423 762Q440 762 451.5 772.5Q463 783 467 804H575Q562 732 519 695Q476 658 412 658ZM313 -10Q186 -10 111 68.5Q36 147 36 267Q36 421 135.5 522.5Q235 624 384 624Q450 624 501.5 608Q553 592 586 570L559 414Q527 443 480.5 459.5Q434 476 384 476Q299 476 248.5 421Q198 366 198 274Q198 210 231 171.5Q264 133 321 133Q344 133 367 138Q390 143 407 153L418 215H329L352 343H582L533 63Q484 26 430 8Q376 -10 313 -10Z" glyph-name="Gbreve" horiz-adv-x="595" unicode="&#286;" /><glyph d="M313 -10Q186 -10 111 68.5Q36 147 36 267Q36 421 135.5 522.5Q235 624 384 624Q450 624 501.5 608Q553 592 586 570L559 414Q527 443 480.5 459.5Q434 476 384 476Q299 476 248.5 421Q198 366 198 274Q198 210 231 171.5Q264 133 321 133Q344 133 367 138Q390 143 407 153L418 215H329L352 343H582L533 63Q484 26 430 8Q376 -10 313 -10ZM486 798 570 666H448L414 711L364 666H234L366 798Z" glyph-name="Gcircumflex" horiz-adv-x="595" unicode="&#284;" /><glyph d="M175 -236 230 -174Q211 -167 197.5 -149.5Q184 -132 184 -106Q184 -74 207.5 -53.5Q231 -33 265 -33Q297 -33 321.5 -54Q346 -75 346 -112Q346 -137 334 -160Q322 -183 299 -207L272 -236ZM313 -10Q186 -10 111 68.5Q36 147 36 267Q36 421 135.5 522.5Q235 624 384 624Q450 624 501.5 608Q553 592 586 570L559 414Q527 443 480.5 459.5Q434 476 384 476Q299 476 248.5 421Q198 366 198 274Q198 210 231 171.5Q264 133 321 133Q344 133 367 138Q390 143 407 153L418 215H329L352 343H582L533 63Q484 26 430 8Q376 -10 313 -10Z" glyph-name="Gcommaaccent" horiz-adv-x="595" unicode="&#290;" /><glyph d="M509 743Q509 704 482.5 681Q456 658 420 658Q384 658 357.5 681Q331 704 331 743Q331 781 357.5 804Q384 827 420 827Q456 827 482.5 804Q509 781 509 743ZM313 -10Q186 -10 111 68.5Q36 147 36 267Q36 421 135.5 522.5Q235 624 384 624Q450 624 501.5 608Q553 592 586 570L559 414Q527 443 480.5 459.5Q434 476 384 476Q299 476 248.5 421Q198 366 198 274Q198 210 231 171.5Q264 133 321 133Q344 133 367 138Q390 143 407 153L418 215H329L352 343H582L533 63Q484 26 430 8Q376 -10 313 -10Z" glyph-name="Gdotaccent" horiz-adv-x="595" unicode="&#288;" /><glyph d="M514 614H675L567 0H406L449 243H212L169 0H8L116 614H277L236 381H473Z" glyph-name="H" horiz-adv-x="650" unicode="H" /><glyph d="M241 321H478L494 411H257ZM220 199 185 0H24L96 411H51L72 534H118L132 614H293L279 534H516L530 614H691L677 534H723L701 411H655L583 0H422L457 199Z" glyph-name="Hbar" horiz-adv-x="683" unicode="&#294;" /><glyph d="M514 614H675L567 0H406L449 243H212L169 0H8L116 614H277L236 381H473ZM484 798 568 666H446L412 711L362 666H232L364 798Z" glyph-name="Hcircumflex" horiz-adv-x="650" unicode="&#292;" /><glyph d="M277 614 169 0H8L116 614Z" glyph-name="I" horiz-adv-x="253" unicode="I" /><glyph d="M277 614 169 0H8L116 614ZM225 26 251 177Q277 158 302.5 146.5Q328 135 362 135Q407 135 428.5 161.5Q450 188 460 245L525 614H686L615 216Q595 98 528 44Q461 -10 358 -10Q315 -10 279 1.5Q243 13 225 26Z" glyph-name="IJ" horiz-adv-x="653" unicode="&#306;" /><glyph d="M277 614 169 0H8L116 614ZM281 666H123L228 796H392Z" glyph-name="Iacute" horiz-adv-x="253" unicode="&#205;" /><glyph d="M277 614 169 0H8L116 614ZM212 658Q151 658 112.5 696Q74 734 87 804H195Q191 783 199 772.5Q207 762 223 762Q240 762 251.5 772.5Q263 783 267 804H375Q362 732 319 695Q276 658 212 658Z" glyph-name="Ibreve" horiz-adv-x="253" unicode="&#300;" /><glyph d="M277 614 169 0H8L116 614ZM285 798 369 666H247L213 711L163 666H33L165 798Z" glyph-name="Icircumflex" horiz-adv-x="253" unicode="&#206;" /><glyph d="M277 614 169 0H8L116 614ZM230 734Q230 767 253 790Q276 813 308 813Q340 813 363.5 790Q387 767 387 734Q387 701 363.5 678Q340 655 308 655Q276 655 253 678Q230 701 230 734ZM49 734Q49 767 71.5 790Q94 813 127 813Q159 813 182.5 790Q206 767 206 734Q206 701 182.5 678Q159 655 127 655Q94 655 71.5 678Q49 701 49 734Z" glyph-name="Idieresis" horiz-adv-x="253" unicode="&#207;" /><glyph d="M277 614 169 0H8L116 614ZM308 743Q308 704 281.5 681Q255 658 219 658Q183 658 156.5 681Q130 704 130 743Q130 781 156.5 804Q183 827 219 827Q255 827 281.5 804Q308 781 308 743Z" glyph-name="Idotaccent" horiz-adv-x="253" unicode="&#304;" /><glyph d="M277 614 169 0H8L116 614ZM275 666H131L65 796H216Z" glyph-name="Igrave" horiz-adv-x="253" unicode="&#204;" /><glyph d="M277 614 169 0H8L116 614ZM74 666 93 774H359L340 666Z" glyph-name="Imacron" horiz-adv-x="253" unicode="&#298;" /><glyph d="M277 614 169 0Q145 -24 126.5 -43Q108 -62 108 -79Q108 -86 112 -90Q116 -94 123 -94Q132 -94 140 -90.5Q148 -87 161 -79L146 -166Q132 -174 115 -179.5Q98 -185 77 -185Q43 -185 21.5 -168Q0 -151 0 -120Q0 -83 22.5 -54.5Q45 -26 73 0H8L116 614Z" glyph-name="Iogonek" horiz-adv-x="253" unicode="&#302;" /><glyph d="M277 614 169 0H8L116 614ZM300 810H386Q376 750 348.5 705Q321 660 272 660Q238 660 215 678Q192 696 169 696Q157 696 148.5 687Q140 678 138 663H51Q61 723 88.5 768Q116 813 165 813Q199 813 222 795Q245 777 268 777Q280 777 288.5 786Q297 795 300 810Z" glyph-name="Itilde" horiz-adv-x="253" unicode="&#296;" /><glyph d="M-17 26 9 177Q35 158 60.5 146.5Q86 135 120 135Q165 135 186.5 161.5Q208 188 218 245L283 614H444L373 216Q353 98 286 44Q219 -10 116 -10Q73 -10 37 1.5Q1 13 -17 26Z" glyph-name="J" horiz-adv-x="412" unicode="J" /><glyph d="M-17 26 9 177Q35 158 60.5 146.5Q86 135 120 135Q165 135 186.5 161.5Q208 188 218 245L283 614H444L373 216Q353 98 286 44Q219 -10 116 -10Q73 -10 37 1.5Q1 13 -17 26ZM451 798 535 666H413L379 711L329 666H199L331 798Z" glyph-name="Jcircumflex" horiz-adv-x="412" unicode="&#308;" /><glyph d="M277 614 231 353 469 614H663L376 307L563 0H380L217 275L169 0H8L116 614Z" glyph-name="K" horiz-adv-x="608" unicode="K" /><glyph d="M149 -236 204 -174Q185 -167 171.5 -149.5Q158 -132 158 -106Q158 -74 181.5 -53.5Q205 -33 239 -33Q271 -33 295.5 -54Q320 -75 320 -112Q320 -137 308 -160Q296 -183 273 -207L246 -236ZM277 614 231 353 469 614H663L376 307L563 0H380L217 275L169 0H8L116 614Z" glyph-name="Kcommaaccent" horiz-adv-x="608" unicode="&#310;" /><glyph d="M8 0 116 614H277L193 139H469L445 0Z" glyph-name="L" horiz-adv-x="510" unicode="L" /><glyph d="M289 666H131L236 796H400ZM8 0 116 614H277L193 139H469L445 0Z" glyph-name="Lacute" horiz-adv-x="510" unicode="&#313;" /><glyph d="M433 447H311L388 614H511ZM8 0 116 614H277L193 139H469L445 0Z" glyph-name="Lcaron" horiz-adv-x="510" unicode="&#317;" /><glyph d="M119 -236 174 -174Q155 -167 141.5 -149.5Q128 -132 128 -106Q128 -74 151.5 -53.5Q175 -33 209 -33Q241 -33 265.5 -54Q290 -75 290 -112Q290 -137 278 -160Q266 -183 243 -207L216 -236ZM8 0 116 614H277L193 139H469L445 0Z" glyph-name="Lcommaaccent" horiz-adv-x="510" unicode="&#315;" /><glyph d="M8 0 116 614H277L193 139H469L445 0ZM488 318Q488 280 461.5 257Q435 234 399 234Q363 234 336.5 257Q310 280 310 318Q310 357 336.5 380Q363 403 399 403Q435 403 461.5 380Q488 357 488 318Z" glyph-name="Ldot" horiz-adv-x="510" unicode="&#319;" /><glyph d="M461 0H24L63 219L14 200L36 328L85 347L132 614H293L255 399L372 444L349 315L232 269L209 139H485Z" glyph-name="Lslash" horiz-adv-x="526" unicode="&#321;" /><glyph d="M350 135H346L227 357L166 0H8L116 614H261L385 363L599 614H750L642 0H485L546 354Z" glyph-name="M" horiz-adv-x="726" unicode="M" /><glyph d="M656 614 548 0H424L228 370L163 0H8L116 614H260L439 265L501 614Z" glyph-name="N" horiz-adv-x="631" unicode="N" /><glyph glyph-name="NULL" horiz-adv-x="0" /><glyph d="M471 666H313L418 796H582ZM656 614 548 0H424L228 370L163 0H8L116 614H260L439 265L501 614Z" glyph-name="Nacute" horiz-adv-x="631" unicode="&#323;" /><glyph d="M338 663 254 796H376L410 750L460 796H590L458 663ZM656 614 548 0H424L228 370L163 0H8L116 614H260L439 265L501 614Z" glyph-name="Ncaron" horiz-adv-x="631" unicode="&#327;" /><glyph d="M164 -236 219 -174Q200 -167 186.5 -149.5Q173 -132 173 -106Q173 -74 196.5 -53.5Q220 -33 254 -33Q286 -33 310.5 -54Q335 -75 335 -112Q335 -137 323 -160Q311 -183 288 -207L261 -236ZM656 614 548 0H424L228 370L163 0H8L116 614H260L439 265L501 614Z" glyph-name="Ncommaaccent" horiz-adv-x="631" unicode="&#325;" /><glyph d="M490 810H576Q566 750 538.5 705Q511 660 462 660Q428 660 405 678Q382 696 359 696Q347 696 338.5 687Q330 678 328 663H241Q251 723 278.5 768Q306 813 355 813Q389 813 412 795Q435 777 458 777Q470 777 478.5 786Q487 795 490 810ZM656 614 548 0H424L228 370L163 0H8L116 614H260L439 265L501 614Z" glyph-name="Ntilde" horiz-adv-x="631" unicode="&#209;" /><glyph d="M312 -10Q185 -10 110.5 68.5Q36 147 36 269Q36 422 130.5 523Q225 624 362 624Q489 624 563.5 545.5Q638 467 638 345Q638 192 543.5 91Q449 -10 312 -10ZM317 131Q383 131 429.5 187.5Q476 244 476 341Q476 403 443.5 443Q411 483 357 483Q290 483 244 426.5Q198 370 198 273Q198 211 230.5 171Q263 131 317 131Z" glyph-name="O" horiz-adv-x="643" unicode="O" /><glyph d="M862 614 838 476H598L580 380H795L772 245H557L538 139H778L754 0H299Q171 0 103.5 68.5Q36 137 36 255Q36 411 137 512.5Q238 614 401 614ZM196 271Q196 209 229 173.5Q262 138 328 138H382L441 475H384Q298 475 247 418Q196 361 196 271Z" glyph-name="OE" horiz-adv-x="825" unicode="&#338;" /><glyph d="M474 666H316L421 796H585ZM312 -10Q185 -10 110.5 68.5Q36 147 36 269Q36 422 130.5 523Q225 624 362 624Q489 624 563.5 545.5Q638 467 638 345Q638 192 543.5 91Q449 -10 312 -10ZM317 131Q383 131 429.5 187.5Q476 244 476 341Q476 403 443.5 443Q411 483 357 483Q290 483 244 426.5Q198 370 198 273Q198 211 230.5 171Q263 131 317 131Z" glyph-name="Oacute" horiz-adv-x="643" unicode="&#211;" /><glyph d="M404 658Q343 658 304.5 696Q266 734 279 804H387Q383 783 391 772.5Q399 762 415 762Q432 762 443.5 772.5Q455 783 459 804H567Q554 732 511 695Q468 658 404 658ZM312 -10Q185 -10 110.5 68.5Q36 147 36 269Q36 422 130.5 523Q225 624 362 624Q489 624 563.5 545.5Q638 467 638 345Q638 192 543.5 91Q449 -10 312 -10ZM317 131Q383 131 429.5 187.5Q476 244 476 341Q476 403 443.5 443Q411 483 357 483Q290 483 244 426.5Q198 370 198 273Q198 211 230.5 171Q263 131 317 131Z" glyph-name="Obreve" horiz-adv-x="643" unicode="&#334;" /><glyph d="M312 -10Q185 -10 110.5 68.5Q36 147 36 269Q36 422 130.5 523Q225 624 362 624Q489 624 563.5 545.5Q638 467 638 345Q638 192 543.5 91Q449 -10 312 -10ZM317 131Q383 131 429.5 187.5Q476 244 476 341Q476 403 443.5 443Q411 483 357 483Q290 483 244 426.5Q198 370 198 273Q198 211 230.5 171Q263 131 317 131ZM478 798 562 666H440L406 711L356 666H226L358 798Z" glyph-name="Ocircumflex" horiz-adv-x="643" unicode="&#212;" /><glyph d="M419 734Q419 767 442 790Q465 813 497 813Q529 813 552.5 790Q576 767 576 734Q576 701 552.5 678Q529 655 497 655Q465 655 442 678Q419 701 419 734ZM238 734Q238 767 260.5 790Q283 813 316 813Q348 813 371.5 790Q395 767 395 734Q395 701 371.5 678Q348 655 316 655Q283 655 260.5 678Q238 701 238 734ZM312 -10Q185 -10 110.5 68.5Q36 147 36 269Q36 422 130.5 523Q225 624 362 624Q489 624 563.5 545.5Q638 467 638 345Q638 192 543.5 91Q449 -10 312 -10ZM317 131Q383 131 429.5 187.5Q476 244 476 341Q476 403 443.5 443Q411 483 357 483Q290 483 244 426.5Q198 370 198 273Q198 211 230.5 171Q263 131 317 131Z" glyph-name="Odieresis" horiz-adv-x="643" unicode="&#214;" /><glyph d="M467 666H323L257 796H408ZM312 -10Q185 -10 110.5 68.5Q36 147 36 269Q36 422 130.5 523Q225 624 362 624Q489 624 563.5 545.5Q638 467 638 345Q638 192 543.5 91Q449 -10 312 -10ZM317 131Q383 131 429.5 187.5Q476 244 476 341Q476 403 443.5 443Q411 483 357 483Q290 483 244 426.5Q198 370 198 273Q198 211 230.5 171Q263 131 317 131Z" glyph-name="Ograve" horiz-adv-x="643" unicode="&#210;" /><glyph d="M312 -10Q185 -10 110.5 68.5Q36 147 36 269Q36 422 130.5 523Q225 624 362 624Q489 624 563.5 545.5Q638 467 638 345Q638 192 543.5 91Q449 -10 312 -10ZM317 131Q383 131 429.5 187.5Q476 244 476 341Q476 403 443.5 443Q411 483 357 483Q290 483 244 426.5Q198 370 198 273Q198 211 230.5 171Q263 131 317 131ZM540 666H408L507 796H640ZM369 666H236L335 796H468Z" glyph-name="Ohungarumlaut" horiz-adv-x="643" unicode="&#336;" /><glyph d="M266 666 285 774H551L532 666ZM312 -10Q185 -10 110.5 68.5Q36 147 36 269Q36 422 130.5 523Q225 624 362 624Q489 624 563.5 545.5Q638 467 638 345Q638 192 543.5 91Q449 -10 312 -10ZM317 131Q383 131 429.5 187.5Q476 244 476 341Q476 403 443.5 443Q411 483 357 483Q290 483 244 426.5Q198 370 198 273Q198 211 230.5 171Q263 131 317 131Z" glyph-name="Omacron" horiz-adv-x="643" unicode="&#332;" /><glyph d="M199 273Q199 258 201 244.5Q203 231 207 218L436 460Q421 472 402 479Q383 486 361 486Q295 486 247 428Q199 370 199 273ZM321 128Q388 128 436 186Q484 244 484 341Q484 356 482 370Q480 384 476 396L247 155Q262 142 280.5 135Q299 128 321 128ZM316 -10Q264 -10 220 4.5Q176 19 142 44L90 -11L34 36L91 96Q66 131 53 175Q40 219 40 269Q40 422 134.5 523Q229 624 366 624Q418 624 462 609.5Q506 595 540 570L592 625L648 578L591 518Q616 483 629 439Q642 395 642 345Q642 192 547.5 91Q453 -10 316 -10Z" glyph-name="Oslash" horiz-adv-x="652" unicode="&#216;" /><glyph d="M199 273Q199 258 201 244.5Q203 231 207 218L436 460Q421 472 402 479Q383 486 361 486Q295 486 247 428Q199 370 199 273ZM321 128Q388 128 436 186Q484 244 484 341Q484 356 482 370Q480 384 476 396L247 155Q262 142 280.5 135Q299 128 321 128ZM316 -10Q264 -10 220 4.5Q176 19 142 44L90 -11L34 36L91 96Q66 131 53 175Q40 219 40 269Q40 422 134.5 523Q229 624 366 624Q418 624 462 609.5Q506 595 540 570L592 625L648 578L591 518Q616 483 629 439Q642 395 642 345Q642 192 547.5 91Q453 -10 316 -10ZM476 666H318L423 796H587Z" glyph-name="Oslashacute" horiz-adv-x="652" unicode="&#510;" /><glyph d="M486 810H572Q562 750 534.5 705Q507 660 458 660Q424 660 401 678Q378 696 355 696Q343 696 334.5 687Q326 678 324 663H237Q247 723 274.5 768Q302 813 351 813Q385 813 408 795Q431 777 454 777Q466 777 474.5 786Q483 795 486 810ZM312 -10Q185 -10 110.5 68.5Q36 147 36 269Q36 422 130.5 523Q225 624 362 624Q489 624 563.5 545.5Q638 467 638 345Q638 192 543.5 91Q449 -10 312 -10ZM317 131Q383 131 429.5 187.5Q476 244 476 341Q476 403 443.5 443Q411 483 357 483Q290 483 244 426.5Q198 370 198 273Q198 211 230.5 171Q263 131 317 131Z" glyph-name="Otilde" horiz-adv-x="643" unicode="&#213;" /><glyph d="M311 191H200L167 0H8L116 614H372Q465 614 519 567Q573 520 573 433Q573 317 496 254Q419 191 311 191ZM251 479 225 325H318Q364 325 390 349.5Q416 374 416 416Q416 444 398.5 461.5Q381 479 342 479Z" glyph-name="P" horiz-adv-x="559" unicode="P" /><glyph d="M455 -49 419 9Q394 0 367 -5Q340 -10 312 -10Q185 -10 110.5 68.5Q36 147 36 269Q36 422 130.5 523Q225 624 362 624Q489 624 563.5 545.5Q638 467 638 345Q638 260 606 189.5Q574 119 522 71L555 17ZM317 126Q324 126 330.5 126.5Q337 127 344 128L306 189L408 254L442 199Q458 226 467 262Q476 298 476 341Q476 403 443.5 443Q411 483 357 483Q290 483 244 426.5Q198 370 198 273Q198 211 230.5 168.5Q263 126 317 126Z" glyph-name="Q" horiz-adv-x="643" unicode="Q" /><glyph d="M251 479 225 331H324Q370 331 395.5 354Q421 377 421 419Q421 446 403.5 462.5Q386 479 348 479ZM8 0 116 614H381Q471 614 524 566.5Q577 519 577 434Q577 353 533 298Q489 243 421 220L532 0H362L264 203H203L167 0Z" glyph-name="R" horiz-adv-x="574" unicode="R" /><glyph d="M251 479 225 331H324Q370 331 395.5 354Q421 377 421 419Q421 446 403.5 462.5Q386 479 348 479ZM8 0 116 614H381Q471 614 524 566.5Q577 519 577 434Q577 353 533 298Q489 243 421 220L532 0H362L264 203H203L167 0ZM431 666H273L378 796H542Z" glyph-name="Racute" horiz-adv-x="574" unicode="&#340;" /><glyph d="M298 663 214 796H336L370 750L420 796H550L418 663ZM251 479 225 331H324Q370 331 395.5 354Q421 377 421 419Q421 446 403.5 462.5Q386 479 348 479ZM8 0 116 614H381Q471 614 524 566.5Q577 519 577 434Q577 353 533 298Q489 243 421 220L532 0H362L264 203H203L167 0Z" glyph-name="Rcaron" horiz-adv-x="574" unicode="&#344;" /><glyph d="M143 -236 198 -174Q179 -167 165.5 -149.5Q152 -132 152 -106Q152 -74 175.5 -53.5Q199 -33 233 -33Q265 -33 289.5 -54Q314 -75 314 -112Q314 -137 302 -160Q290 -183 267 -207L240 -236ZM251 479 225 331H324Q370 331 395.5 354Q421 377 421 419Q421 446 403.5 462.5Q386 479 348 479ZM8 0 116 614H381Q471 614 524 566.5Q577 519 577 434Q577 353 533 298Q489 243 421 220L532 0H362L264 203H203L167 0Z" glyph-name="Rcommaaccent" horiz-adv-x="574" unicode="&#342;" /><glyph d="M4 50 30 199Q68 168 120 146Q172 124 224 124Q264 124 292.5 136.5Q321 149 321 180Q321 197 308.5 207.5Q296 218 276 226L189 256Q129 276 93 312.5Q57 349 57 411Q57 514 134 569Q211 624 307 624Q379 624 427.5 607.5Q476 591 511 569L485 423Q449 452 405 471.5Q361 491 307 491Q270 491 244.5 479.5Q219 468 219 440Q219 423 231 413.5Q243 404 264 396L358 362Q416 340 450.5 301.5Q485 263 485 208Q485 93 403 41.5Q321 -10 224 -10Q149 -10 92.5 9Q36 28 4 50Z" glyph-name="S" horiz-adv-x="511" unicode="S" /><glyph d="M4 50 30 199Q68 168 120 146Q172 124 224 124Q264 124 292.5 136.5Q321 149 321 180Q321 197 308.5 207.5Q296 218 276 226L189 256Q129 276 93 312.5Q57 349 57 411Q57 514 134 569Q211 624 307 624Q379 624 427.5 607.5Q476 591 511 569L485 423Q449 452 405 471.5Q361 491 307 491Q270 491 244.5 479.5Q219 468 219 440Q219 423 231 413.5Q243 404 264 396L358 362Q416 340 450.5 301.5Q485 263 485 208Q485 93 403 41.5Q321 -10 224 -10Q149 -10 92.5 9Q36 28 4 50ZM413 666H255L360 796H524Z" glyph-name="Sacute" horiz-adv-x="511" unicode="&#346;" /><glyph d="M4 50 30 199Q68 168 120 146Q172 124 224 124Q264 124 292.5 136.5Q321 149 321 180Q321 197 308.5 207.5Q296 218 276 226L189 256Q129 276 93 312.5Q57 349 57 411Q57 514 134 569Q211 624 307 624Q379 624 427.5 607.5Q476 591 511 569L485 423Q449 452 405 471.5Q361 491 307 491Q270 491 244.5 479.5Q219 468 219 440Q219 423 231 413.5Q243 404 264 396L358 362Q416 340 450.5 301.5Q485 263 485 208Q485 93 403 41.5Q321 -10 224 -10Q149 -10 92.5 9Q36 28 4 50ZM280 663 196 796H318L352 750L402 796H532L400 663Z" glyph-name="Scaron" horiz-adv-x="511" unicode="&#352;" /><glyph d="M4 50 30 199Q68 168 120 146Q172 124 224 124Q264 124 292.5 136.5Q321 149 321 180Q321 197 308.5 207.5Q296 218 276 226L189 256Q129 276 93 312.5Q57 349 57 411Q57 514 134 569Q211 624 307 624Q379 624 427.5 607.5Q476 591 511 569L485 423Q449 452 405 471.5Q361 491 307 491Q270 491 244.5 479.5Q219 468 219 440Q219 423 231 413.5Q243 404 264 396L358 362Q416 340 450.5 301.5Q485 263 485 208Q485 93 403 41.5Q321 -10 224 -10Q149 -10 92.5 9Q36 28 4 50ZM184 -181H49L143 -40H279Z" glyph-name="Scedilla" horiz-adv-x="511" unicode="&#350;" /><glyph d="M4 50 30 199Q68 168 120 146Q172 124 224 124Q264 124 292.5 136.5Q321 149 321 180Q321 197 308.5 207.5Q296 218 276 226L189 256Q129 276 93 312.5Q57 349 57 411Q57 514 134 569Q211 624 307 624Q379 624 427.5 607.5Q476 591 511 569L485 423Q449 452 405 471.5Q361 491 307 491Q270 491 244.5 479.5Q219 468 219 440Q219 423 231 413.5Q243 404 264 396L358 362Q416 340 450.5 301.5Q485 263 485 208Q485 93 403 41.5Q321 -10 224 -10Q149 -10 92.5 9Q36 28 4 50ZM417 798 501 666H379L345 711L295 666H165L297 798Z" glyph-name="Scircumflex" horiz-adv-x="511" unicode="&#348;" /><glyph d="M99 -236 154 -174Q135 -167 121.5 -149.5Q108 -132 108 -106Q108 -74 131.5 -53.5Q155 -33 189 -33Q221 -33 245.5 -54Q270 -75 270 -112Q270 -137 258 -160Q246 -183 223 -207L196 -236ZM4 50 30 199Q68 168 120 146Q172 124 224 124Q264 124 292.5 136.5Q321 149 321 180Q321 197 308.5 207.5Q296 218 276 226L189 256Q129 276 93 312.5Q57 349 57 411Q57 514 134 569Q211 624 307 624Q379 624 427.5 607.5Q476 591 511 569L485 423Q449 452 405 471.5Q361 491 307 491Q270 491 244.5 479.5Q219 468 219 440Q219 423 231 413.5Q243 404 264 396L358 362Q416 340 450.5 301.5Q485 263 485 208Q485 93 403 41.5Q321 -10 224 -10Q149 -10 92.5 9Q36 28 4 50Z" glyph-name="Scommaaccent" horiz-adv-x="511" unicode="&#536;" /><glyph d="M65 476 89 614H629L604 476H415L331 0H170L254 476Z" glyph-name="T" horiz-adv-x="580" unicode="T" /><glyph d="M465 233H372L331 0H170L211 233H122L145 363H234L254 476H65L89 614H629L604 476H415L395 363H488Z" glyph-name="Tbar" horiz-adv-x="580" unicode="&#358;" /><glyph d="M312 663 228 796H350L384 750L434 796H564L432 663ZM65 476 89 614H629L604 476H415L331 0H170L254 476Z" glyph-name="Tcaron" horiz-adv-x="580" unicode="&#356;" /><glyph d="M143 -236 198 -174Q179 -167 165.5 -149.5Q152 -132 152 -106Q152 -74 175.5 -53.5Q199 -33 233 -33Q265 -33 289.5 -54Q314 -75 314 -112Q314 -137 302 -160Q290 -183 267 -207L240 -236ZM65 476 89 614H629L604 476H415L331 0H170L254 476Z" glyph-name="Tcommaaccent" horiz-adv-x="580" unicode="&#354;" /><glyph d="M295 102H184L167 0H8L116 614H275L259 525H356Q449 525 503 478Q557 431 557 344Q557 228 480.5 165Q404 102 295 102ZM235 390 209 236H302Q348 236 374 260.5Q400 285 400 327Q400 355 382.5 372.5Q365 390 326 390Z" glyph-name="Thorn" horiz-adv-x="559" unicode="&#222;" /><glyph d="M282 -10Q173 -10 107 44Q41 98 41 198Q41 211 42 226Q43 241 47 260L110 614H270L208 265Q207 255 205.5 245.5Q204 236 204 227Q204 182 227 157.5Q250 133 294 133Q348 133 379.5 166.5Q411 200 423 265L484 614H644L580 250Q558 124 481 57Q404 -10 282 -10Z" glyph-name="U" horiz-adv-x="613" unicode="U" /><glyph d="M459 666H301L406 796H570ZM282 -10Q173 -10 107 44Q41 98 41 198Q41 211 42 226Q43 241 47 260L110 614H270L208 265Q207 255 205.5 245.5Q204 236 204 227Q204 182 227 157.5Q250 133 294 133Q348 133 379.5 166.5Q411 200 423 265L484 614H644L580 250Q558 124 481 57Q404 -10 282 -10Z" glyph-name="Uacute" horiz-adv-x="613" unicode="&#218;" /><glyph d="M385 658Q324 658 285.5 696Q247 734 260 804H368Q364 783 372 772.5Q380 762 396 762Q413 762 424.5 772.5Q436 783 440 804H548Q535 732 492 695Q449 658 385 658ZM282 -10Q173 -10 107 44Q41 98 41 198Q41 211 42 226Q43 241 47 260L110 614H270L208 265Q207 255 205.5 245.5Q204 236 204 227Q204 182 227 157.5Q250 133 294 133Q348 133 379.5 166.5Q411 200 423 265L484 614H644L580 250Q558 124 481 57Q404 -10 282 -10Z" glyph-name="Ubreve" horiz-adv-x="613" unicode="&#364;" /><glyph d="M282 -10Q173 -10 107 44Q41 98 41 198Q41 211 42 226Q43 241 47 260L110 614H270L208 265Q207 255 205.5 245.5Q204 236 204 227Q204 182 227 157.5Q250 133 294 133Q348 133 379.5 166.5Q411 200 423 265L484 614H644L580 250Q558 124 481 57Q404 -10 282 -10ZM463 798 547 666H425L391 711L341 666H211L343 798Z" glyph-name="Ucircumflex" horiz-adv-x="613" unicode="&#219;" /><glyph d="M408 734Q408 767 431 790Q454 813 486 813Q518 813 541.5 790Q565 767 565 734Q565 701 541.5 678Q518 655 486 655Q454 655 431 678Q408 701 408 734ZM227 734Q227 767 249.5 790Q272 813 305 813Q337 813 360.5 790Q384 767 384 734Q384 701 360.5 678Q337 655 305 655Q272 655 249.5 678Q227 701 227 734ZM282 -10Q173 -10 107 44Q41 98 41 198Q41 211 42 226Q43 241 47 260L110 614H270L208 265Q207 255 205.5 245.5Q204 236 204 227Q204 182 227 157.5Q250 133 294 133Q348 133 379.5 166.5Q411 200 423 265L484 614H644L580 250Q558 124 481 57Q404 -10 282 -10Z" glyph-name="Udieresis" horiz-adv-x="613" unicode="&#220;" /><glyph d="M453 666H309L243 796H394ZM282 -10Q173 -10 107 44Q41 98 41 198Q41 211 42 226Q43 241 47 260L110 614H270L208 265Q207 255 205.5 245.5Q204 236 204 227Q204 182 227 157.5Q250 133 294 133Q348 133 379.5 166.5Q411 200 423 265L484 614H644L580 250Q558 124 481 57Q404 -10 282 -10Z" glyph-name="Ugrave" horiz-adv-x="613" unicode="&#217;" /><glyph d="M282 -10Q173 -10 107 44Q41 98 41 198Q41 211 42 226Q43 241 47 260L110 614H270L208 265Q207 255 205.5 245.5Q204 236 204 227Q204 182 227 157.5Q250 133 294 133Q348 133 379.5 166.5Q411 200 423 265L484 614H644L580 250Q558 124 481 57Q404 -10 282 -10ZM531 666H399L498 796H631ZM360 666H227L326 796H459Z" glyph-name="Uhungarumlaut" horiz-adv-x="613" unicode="&#368;" /><glyph d="M251 666 270 774H536L517 666ZM282 -10Q173 -10 107 44Q41 98 41 198Q41 211 42 226Q43 241 47 260L110 614H270L208 265Q207 255 205.5 245.5Q204 236 204 227Q204 182 227 157.5Q250 133 294 133Q348 133 379.5 166.5Q411 200 423 265L484 614H644L580 250Q558 124 481 57Q404 -10 282 -10Z" glyph-name="Umacron" horiz-adv-x="613" unicode="&#362;" /><glyph d="M282 -10Q173 -10 107 44Q41 98 41 198Q41 211 42 226Q43 241 47 260L110 614H270L208 265Q207 255 205.5 245.5Q204 236 204 227Q204 182 227 157.5Q250 133 294 133Q348 133 379.5 166.5Q411 200 423 265L484 614H644L580 250Q566 171 530.5 117Q495 63 438 23Q395 -7 370.5 -33.5Q346 -60 346 -79Q346 -86 350 -90Q354 -94 362 -94Q371 -94 379 -90.5Q387 -87 400 -79L384 -166Q370 -174 353 -179.5Q336 -185 316 -185Q281 -185 260 -168Q239 -151 239 -120Q239 -86 258 -60Q277 -34 302 -9Q299 -10 292 -10Q285 -10 282 -10Z" glyph-name="Uogonek" horiz-adv-x="613" unicode="&#370;" /><glyph d="M282 -10Q173 -10 107 44Q41 98 41 198Q41 211 42 226Q43 241 47 260L110 614H270L208 265Q207 255 205.5 245.5Q204 236 204 227Q204 182 227 157.5Q250 133 294 133Q348 133 379.5 166.5Q411 200 423 265L484 614H644L580 250Q558 124 481 57Q404 -10 282 -10ZM394 642Q350 642 320 671.5Q290 701 290 743Q290 788 323 820Q356 852 403 852Q447 852 477 823Q507 794 507 752Q507 707 474 674.5Q441 642 394 642ZM396 711Q411 711 422.5 722Q434 733 434 750Q434 763 424.5 773Q415 783 400 783Q386 783 374.5 772.5Q363 762 363 745Q363 731 372.5 721Q382 711 396 711Z" glyph-name="Uring" horiz-adv-x="613" unicode="&#366;" /><glyph d="M478 810H564Q554 750 526.5 705Q499 660 450 660Q416 660 393 678Q370 696 347 696Q335 696 326.5 687Q318 678 316 663H229Q239 723 266.5 768Q294 813 343 813Q377 813 400 795Q423 777 446 777Q458 777 466.5 786Q475 795 478 810ZM282 -10Q173 -10 107 44Q41 98 41 198Q41 211 42 226Q43 241 47 260L110 614H270L208 265Q207 255 205.5 245.5Q204 236 204 227Q204 182 227 157.5Q250 133 294 133Q348 133 379.5 166.5Q411 200 423 265L484 614H644L580 250Q558 124 481 57Q404 -10 282 -10Z" glyph-name="Utilde" horiz-adv-x="613" unicode="&#360;" /><glyph d="M344 0H187L78 614H239L304 217L523 614H693Z" glyph-name="V" horiz-adv-x="629" unicode="V" /><glyph d="M420 614H542L564 253L721 614H885L601 0H455L431 360L263 0H117L78 614H237L253 253Z" glyph-name="W" horiz-adv-x="822" unicode="W" /><glyph d="M562 666H404L509 796H673ZM420 614H542L564 253L721 614H885L601 0H455L431 360L263 0H117L78 614H237L253 253Z" glyph-name="Wacute" horiz-adv-x="822" unicode="&#7810;" /><glyph d="M420 614H542L564 253L721 614H885L601 0H455L431 360L263 0H117L78 614H237L253 253ZM566 798 650 666H528L494 711L444 666H314L446 798Z" glyph-name="Wcircumflex" horiz-adv-x="822" unicode="&#372;" /><glyph d="M511 734Q511 767 534 790Q557 813 589 813Q621 813 644.5 790Q668 767 668 734Q668 701 644.5 678Q621 655 589 655Q557 655 534 678Q511 701 511 734ZM330 734Q330 767 352.5 790Q375 813 408 813Q440 813 463.5 790Q487 767 487 734Q487 701 463.5 678Q440 655 408 655Q375 655 352.5 678Q330 701 330 734ZM420 614H542L564 253L721 614H885L601 0H455L431 360L263 0H117L78 614H237L253 253Z" glyph-name="Wdieresis" horiz-adv-x="822" unicode="&#7812;" /><glyph d="M556 666H412L346 796H497ZM420 614H542L564 253L721 614H885L601 0H455L431 360L263 0H117L78 614H237L253 253Z" glyph-name="Wgrave" horiz-adv-x="822" unicode="&#7808;" /><glyph d="M662 614 401 309 549 0H382L294 190L134 0H-44L230 320L90 614H256L336 439L484 614Z" glyph-name="X" horiz-adv-x="598" unicode="X" /><glyph d="M330 374 502 614H677L386 218L348 0H187L225 218L76 614H243Z" glyph-name="Y" horiz-adv-x="612" unicode="Y" /><glyph d="M330 374 502 614H677L386 218L348 0H187L225 218L76 614H243ZM458 666H300L405 796H569Z" glyph-name="Yacute" horiz-adv-x="612" unicode="&#221;" /><glyph d="M330 374 502 614H677L386 218L348 0H187L225 218L76 614H243ZM461 798 545 666H423L389 711L339 666H209L341 798Z" glyph-name="Ycircumflex" horiz-adv-x="612" unicode="&#374;" /><glyph d="M330 374 502 614H677L386 218L348 0H187L225 218L76 614H243ZM406 734Q406 767 429 790Q452 813 484 813Q516 813 539.5 790Q563 767 563 734Q563 701 539.5 678Q516 655 484 655Q452 655 429 678Q406 701 406 734ZM225 734Q225 767 247.5 790Q270 813 303 813Q335 813 358.5 790Q382 767 382 734Q382 701 358.5 678Q335 655 303 655Q270 655 247.5 678Q225 701 225 734Z" glyph-name="Ydieresis" horiz-adv-x="612" unicode="&#376;" /><glyph d="M330 374 502 614H677L386 218L348 0H187L225 218L76 614H243ZM451 666H307L241 796H392Z" glyph-name="Ygrave" horiz-adv-x="612" unicode="&#7922;" /><glyph d="M512 139 487 0H-26V4L336 476H80L104 614H610L609 610L256 139Z" glyph-name="Z" horiz-adv-x="556" unicode="Z" /><glyph d="M512 139 487 0H-26V4L336 476H80L104 614H610L609 610L256 139ZM430 666H272L377 796H541Z" glyph-name="Zacute" horiz-adv-x="553" unicode="&#377;" /><glyph d="M297 663 213 796H335L369 750L419 796H549L417 663ZM512 139 487 0H-26V4L336 476H80L104 614H610L609 610L256 139Z" glyph-name="Zcaron" horiz-adv-x="553" unicode="&#381;" /><glyph d="M457 743Q457 704 430.5 681Q404 658 368 658Q332 658 305.5 681Q279 704 279 743Q279 781 305.5 804Q332 827 368 827Q404 827 430.5 804Q457 781 457 743ZM512 139 487 0H-26V4L336 476H80L104 614H610L609 610L256 139Z" glyph-name="Zdotaccent" horiz-adv-x="553" unicode="&#379;" /><glyph glyph-name="_229" horiz-adv-x="0" /><glyph d="M275 125 280 152Q276 166 259.5 175Q243 184 220 184Q198 184 175 172Q152 160 152 134Q152 115 169.5 105.5Q187 96 208 96Q230 96 247.5 103.5Q265 111 275 125ZM298 254 302 270Q302 273 302.5 277.5Q303 282 303 285Q303 309 282 320.5Q261 332 223 332Q186 332 152 324.5Q118 317 89 301L111 427Q141 442 187 451Q233 460 276 460Q363 460 410.5 424Q458 388 458 316Q458 305 456.5 293.5Q455 282 454 270L407 0H254L258 23Q245 12 217.5 2Q190 -8 156 -8Q95 -8 50 27Q5 62 5 123Q5 198 63 239.5Q121 281 195 281Q229 281 257 272.5Q285 264 298 254Z" glyph-name="a" horiz-adv-x="484" unicode="a" /><glyph d="M275 125 280 152Q276 166 259.5 175Q243 184 220 184Q198 184 175 172Q152 160 152 134Q152 115 169.5 105.5Q187 96 208 96Q230 96 247.5 103.5Q265 111 275 125ZM298 254 302 270Q302 273 302.5 277.5Q303 282 303 285Q303 309 282 320.5Q261 332 223 332Q186 332 152 324.5Q118 317 89 301L111 427Q141 442 187 451Q233 460 276 460Q363 460 410.5 424Q458 388 458 316Q458 305 456.5 293.5Q455 282 454 270L407 0H254L258 23Q245 12 217.5 2Q190 -8 156 -8Q95 -8 50 27Q5 62 5 123Q5 198 63 239.5Q121 281 195 281Q229 281 257 272.5Q285 264 298 254ZM367 500H221L329 650H480Z" glyph-name="aacute" horiz-adv-x="484" unicode="&#225;" /><glyph d="M275 125 280 152Q276 166 259.5 175Q243 184 220 184Q198 184 175 172Q152 160 152 134Q152 115 169.5 105.5Q187 96 208 96Q230 96 247.5 103.5Q265 111 275 125ZM298 254 302 270Q302 273 302.5 277.5Q303 282 303 285Q303 309 282 320.5Q261 332 223 332Q186 332 152 324.5Q118 317 89 301L111 427Q141 442 187 451Q233 460 276 460Q363 460 410.5 424Q458 388 458 316Q458 305 456.5 293.5Q455 282 454 270L407 0H254L258 23Q245 12 217.5 2Q190 -8 156 -8Q95 -8 50 27Q5 62 5 123Q5 198 63 239.5Q121 281 195 281Q229 281 257 272.5Q285 264 298 254ZM302 488Q241 488 203 527Q165 566 178 638H286Q282 616 288.5 603.5Q295 591 312 591Q330 591 341.5 603.5Q353 616 357 638H464Q451 564 407.5 526Q364 488 302 488Z" glyph-name="abreve" horiz-adv-x="484" unicode="&#259;" /><glyph d="M275 125 280 152Q276 166 259.5 175Q243 184 220 184Q198 184 175 172Q152 160 152 134Q152 115 169.5 105.5Q187 96 208 96Q230 96 247.5 103.5Q265 111 275 125ZM298 254 302 270Q302 273 302.5 277.5Q303 282 303 285Q303 309 282 320.5Q261 332 223 332Q186 332 152 324.5Q118 317 89 301L111 427Q141 442 187 451Q233 460 276 460Q363 460 410.5 424Q458 388 458 316Q458 305 456.5 293.5Q455 282 454 270L407 0H254L258 23Q245 12 217.5 2Q190 -8 156 -8Q95 -8 50 27Q5 62 5 123Q5 198 63 239.5Q121 281 195 281Q229 281 257 272.5Q285 264 298 254ZM379 649 449 498H336L306 553L256 498H137L260 649Z" glyph-name="acircumflex" horiz-adv-x="484" unicode="&#226;" /><glyph d="M267 500H121L229 650H380Z" glyph-name="acute" horiz-adv-x="500" unicode="&#180;" /><glyph d="M275 666H117L222 796H386Z" glyph-name="acute.cap" horiz-adv-x="500" /><glyph d="M275 125 280 152Q276 166 259.5 175Q243 184 220 184Q198 184 175 172Q152 160 152 134Q152 115 169.5 105.5Q187 96 208 96Q230 96 247.5 103.5Q265 111 275 125ZM298 254 302 270Q302 273 302.5 277.5Q303 282 303 285Q303 309 282 320.5Q261 332 223 332Q186 332 152 324.5Q118 317 89 301L111 427Q141 442 187 451Q233 460 276 460Q363 460 410.5 424Q458 388 458 316Q458 305 456.5 293.5Q455 282 454 270L407 0H254L258 23Q245 12 217.5 2Q190 -8 156 -8Q95 -8 50 27Q5 62 5 123Q5 198 63 239.5Q121 281 195 281Q229 281 257 272.5Q285 264 298 254ZM322 567Q322 599 344.5 621.5Q367 644 398 644Q429 644 452.5 621.5Q476 599 476 567Q476 536 452.5 513.5Q429 491 398 491Q367 491 344.5 513.5Q322 536 322 567ZM145 567Q145 599 168 621.5Q191 644 222 644Q253 644 276 621.5Q299 599 299 567Q299 536 276 513.5Q253 491 222 491Q191 491 168 513.5Q145 536 145 567Z" glyph-name="adieresis" horiz-adv-x="484" unicode="&#228;" /><glyph d="M332 53Q296 25 252 7.5Q208 -10 157 -10Q89 -10 47 25Q5 60 5 118Q5 200 75 238Q145 276 222 276H302Q303 280 303 283Q303 286 303 287Q301 308 280.5 321Q260 334 222 334Q185 334 152 325.5Q119 317 90 301L112 427Q142 442 184 451Q226 460 270 460Q316 460 347 447.5Q378 435 396 410Q420 432 455 446Q490 460 527 460Q614 460 661 409.5Q708 359 708 273Q708 254 705.5 232Q703 210 699 188H423V184Q428 145 457 129Q486 113 528 113Q564 113 598 121Q632 129 668 150L645 24Q614 6 574.5 -2Q535 -10 493 -10Q442 -10 401 6.5Q360 23 332 53ZM518 341Q487 341 466 322.5Q445 304 434 276H570V284Q570 308 556.5 324.5Q543 341 518 341ZM201 104Q226 104 246 114.5Q266 125 277 141L286 188H222Q198 188 175.5 178Q153 168 153 140Q153 122 167 113Q181 104 201 104Z" glyph-name="ae" horiz-adv-x="722" unicode="&#230;" /><glyph d="M495 500H349L457 650H608ZM332 53Q296 25 252 7.5Q208 -10 157 -10Q89 -10 47 25Q5 60 5 118Q5 200 75 238Q145 276 222 276H302Q303 280 303 283Q303 286 303 287Q301 308 280.5 321Q260 334 222 334Q185 334 152 325.5Q119 317 90 301L112 427Q142 442 184 451Q226 460 270 460Q316 460 347 447.5Q378 435 396 410Q420 432 455 446Q490 460 527 460Q614 460 661 409.5Q708 359 708 273Q708 254 705.5 232Q703 210 699 188H423V184Q428 145 457 129Q486 113 528 113Q564 113 598 121Q632 129 668 150L645 24Q614 6 574.5 -2Q535 -10 493 -10Q442 -10 401 6.5Q360 23 332 53ZM518 341Q487 341 466 322.5Q445 304 434 276H570V284Q570 308 556.5 324.5Q543 341 518 341ZM201 104Q226 104 246 114.5Q266 125 277 141L286 188H222Q198 188 175.5 178Q153 168 153 140Q153 122 167 113Q181 104 201 104Z" glyph-name="aeacute" horiz-adv-x="722" unicode="&#509;" /><glyph d="M275 125 280 152Q276 166 259.5 175Q243 184 220 184Q198 184 175 172Q152 160 152 134Q152 115 169.5 105.5Q187 96 208 96Q230 96 247.5 103.5Q265 111 275 125ZM298 254 302 270Q302 273 302.5 277.5Q303 282 303 285Q303 309 282 320.5Q261 332 223 332Q186 332 152 324.5Q118 317 89 301L111 427Q141 442 187 451Q233 460 276 460Q363 460 410.5 424Q458 388 458 316Q458 305 456.5 293.5Q455 282 454 270L407 0H254L258 23Q245 12 217.5 2Q190 -8 156 -8Q95 -8 50 27Q5 62 5 123Q5 198 63 239.5Q121 281 195 281Q229 281 257 272.5Q285 264 298 254ZM363 500H230L169 650H307Z" glyph-name="agrave" horiz-adv-x="484" unicode="&#224;" /><glyph d="M275 125 280 152Q276 166 259.5 175Q243 184 220 184Q198 184 175 172Q152 160 152 134Q152 115 169.5 105.5Q187 96 208 96Q230 96 247.5 103.5Q265 111 275 125ZM298 254 302 270Q302 273 302.5 277.5Q303 282 303 285Q303 309 282 320.5Q261 332 223 332Q186 332 152 324.5Q118 317 89 301L111 427Q141 442 187 451Q233 460 276 460Q363 460 410.5 424Q458 388 458 316Q458 305 456.5 293.5Q455 282 454 270L407 0H254L258 23Q245 12 217.5 2Q190 -8 156 -8Q95 -8 50 27Q5 62 5 123Q5 198 63 239.5Q121 281 195 281Q229 281 257 272.5Q285 264 298 254ZM173 504 192 612H444L425 504Z" glyph-name="amacron" horiz-adv-x="484" unicode="&#257;" /><glyph d="M221 111Q239 111 257.5 115.5Q276 120 293 129L202 250Q181 241 168 220Q155 199 155 174Q155 147 172.5 129Q190 111 221 111ZM389 0 363 35Q326 13 286 1.5Q246 -10 206 -10Q114 -10 61.5 36Q9 82 9 161Q9 221 43.5 269Q78 317 136 346Q126 365 121 384Q116 403 116 425Q116 516 179.5 570Q243 624 333 624Q383 624 424 610.5Q465 597 485 577L462 443Q440 464 409 480Q378 496 340 496Q307 496 288 479.5Q269 463 269 434Q269 418 276.5 403Q284 388 296 371L395 231Q405 250 413 272.5Q421 295 425 320H563Q554 265 529.5 215Q505 165 471 125L559 0Z" glyph-name="ampersand" horiz-adv-x="590" unicode="&amp;" /><glyph d="M310 0H254L258 23Q245 12 217.5 2Q190 -8 156 -8Q95 -8 50 27Q5 62 5 123Q5 198 63 239.5Q121 281 195 281Q229 281 257 272.5Q285 264 298 254L302 270Q302 273 302.5 277.5Q303 282 303 285Q303 309 282 320.5Q261 332 223 332Q186 332 152 324.5Q118 317 89 301L111 427Q141 442 187 451Q233 460 276 460Q363 460 410.5 424Q458 388 458 316Q458 305 456.5 293.5Q455 282 454 270L407 0Q382 -24 363.5 -43Q345 -62 345 -79Q345 -86 349 -90Q353 -94 361 -94Q370 -94 378 -90.5Q386 -87 399 -79L383 -166Q369 -174 352.5 -179.5Q336 -185 315 -185Q280 -185 259 -168Q238 -151 238 -120Q238 -83 260.5 -54.5Q283 -26 310 0ZM275 125 280 152Q276 166 259.5 175Q243 184 220 184Q198 184 175 172Q152 160 152 134Q152 115 169.5 105.5Q187 96 208 96Q230 96 247.5 103.5Q265 111 275 125Z" glyph-name="aogonek" horiz-adv-x="484" unicode="&#261;" /><glyph d="M76 311 95 420Q132 441 164 450.5Q196 460 224 460Q281 460 323.5 440.5Q366 421 423 421Q451 421 484.5 430.5Q518 440 555 462L536 353Q499 331 466 321.5Q433 312 405 312Q348 312 305 332Q262 352 205 352Q177 352 145 342.5Q113 333 76 311ZM46 139 65 246Q102 268 133.5 278Q165 288 193 288Q250 288 293 267.5Q336 247 393 247Q421 247 454 257Q487 267 525 289L506 180Q468 158 434.5 149Q401 140 373 140Q316 140 274 159.5Q232 179 175 179Q147 179 115 169.5Q83 160 46 139Z" glyph-name="approxequal" horiz-adv-x="574" unicode="&#8776;" /><glyph d="M42 311 62 420Q98 441 130 450.5Q162 460 190 460Q247 460 289.5 440.5Q332 421 389 421Q417 421 450.5 430.5Q484 440 521 462L502 353Q465 331 432 321.5Q399 312 371 312Q314 312 271 332Q228 352 171 352Q143 352 111 342.5Q79 333 42 311ZM12 139 31 246Q68 268 99.5 278Q131 288 159 288Q216 288 259 267.5Q302 247 359 247Q387 247 420 257Q453 267 491 289L472 180Q434 158 400.5 149Q367 140 339 140Q282 140 240 159.5Q198 179 141 179Q113 179 81 169.5Q49 160 12 139Z" glyph-name="approxequal.lt" horiz-adv-x="520" /><glyph d="M275 125 280 152Q276 166 259.5 175Q243 184 220 184Q198 184 175 172Q152 160 152 134Q152 115 169.5 105.5Q187 96 208 96Q230 96 247.5 103.5Q265 111 275 125ZM298 254 302 270Q302 273 302.5 277.5Q303 282 303 285Q303 309 282 320.5Q261 332 223 332Q186 332 152 324.5Q118 317 89 301L111 427Q141 442 187 451Q233 460 276 460Q363 460 410.5 424Q458 388 458 316Q458 305 456.5 293.5Q455 282 454 270L407 0H254L258 23Q245 12 217.5 2Q190 -8 156 -8Q95 -8 50 27Q5 62 5 123Q5 198 63 239.5Q121 281 195 281Q229 281 257 272.5Q285 264 298 254ZM308 485Q264 485 234.5 514Q205 543 205 585Q205 630 237.5 662.5Q270 695 318 695Q362 695 391.5 665.5Q421 636 421 594Q421 549 388.5 517Q356 485 308 485ZM311 554Q326 554 337.5 565Q349 576 349 592Q349 606 339 616Q329 626 315 626Q300 626 288.5 615Q277 604 277 587Q277 574 287 564Q297 554 311 554Z" glyph-name="aring" horiz-adv-x="484" unicode="&#229;" /><glyph d="M412 667H257L340 769H501ZM308 477Q264 477 234 501.5Q204 526 204 560Q204 597 237 623.5Q270 650 317 650Q361 650 390.5 625.5Q420 601 420 567Q420 530 387.5 503.5Q355 477 308 477ZM310 535Q325 535 336.5 543.5Q348 552 348 566Q348 576 338 584Q328 592 314 592Q300 592 288.5 583.5Q277 575 277 561Q277 551 286.5 543Q296 535 310 535ZM275 125 280 152Q276 166 259.5 175Q243 184 220 184Q198 184 175 172Q152 160 152 134Q152 115 169.5 105.5Q187 96 208 96Q230 96 247.5 103.5Q265 111 275 125ZM298 254 302 270Q302 273 302.5 277.5Q303 282 303 285Q303 309 282 320.5Q261 332 223 332Q186 332 152 324.5Q118 317 89 301L111 427Q141 442 187 451Q233 460 276 460Q363 460 410.5 424Q458 388 458 316Q458 305 456.5 293.5Q455 282 454 270L407 0H254L258 23Q245 12 217.5 2Q190 -8 156 -8Q95 -8 50 27Q5 62 5 123Q5 198 63 239.5Q121 281 195 281Q229 281 257 272.5Q285 264 298 254Z" glyph-name="aringacute" horiz-adv-x="484" unicode="&#507;" /><glyph d="M219 614H347L447 376H318L268 501L175 376H35Z" glyph-name="asciicircum" horiz-adv-x="432" unicode="^" /><glyph d="M319 355H417Q404 278 367 235Q330 192 278 192Q232 192 212.5 220Q193 248 166 248Q149 248 138 235.5Q127 223 122 197H24Q37 273 74 316.5Q111 360 163 360Q209 360 228.5 332Q248 304 275 304Q292 304 303.5 316Q315 328 319 355Z" glyph-name="asciitilde" horiz-adv-x="426" unicode="~" /><glyph d="M227 342 154 355 168 439 88 410 63 480 143 509 77 564 125 621 190 566 205 651 279 638 264 553 343 583 369 513 289 484 355 428 307 372 242 426Z" glyph-name="asterisk" horiz-adv-x="344" unicode="*" /><glyph d="M592 391 536 148Q532 132 536.5 119.5Q541 107 560 107Q604 107 635 154Q666 201 666 287Q666 386 596 441Q526 496 420 496Q283 496 193 404Q103 312 103 167Q103 24 197.5 -28Q292 -80 385 -80Q458 -80 517 -64.5Q576 -49 625 -27L611 -108Q572 -127 512.5 -140.5Q453 -154 385 -154Q244 -154 132 -77.5Q20 -1 20 166Q20 331 133 451Q246 571 423 571Q567 571 656 490.5Q745 410 745 289Q745 159 676.5 94Q608 29 522 29Q487 29 456.5 41.5Q426 54 409 79Q391 55 362.5 43Q334 31 306 31Q245 31 212 71Q179 111 179 170Q179 259 234 329Q289 399 376 399Q404 399 427 388.5Q450 378 459 363L467 391ZM414 173 435 259Q431 272 418.5 281Q406 290 389 290Q356 290 332.5 260.5Q309 231 309 190Q309 168 321 154Q333 140 357 140Q376 140 390.5 150Q405 160 414 173Z" glyph-name="at" horiz-adv-x="759" unicode="@" /><glyph d="M606 483 550 240Q546 224 550.5 211.5Q555 199 574 199Q618 199 649 246Q680 293 680 379Q680 478 610 533Q540 588 434 588Q297 588 207 496Q117 404 117 259Q117 116 211.5 64Q306 12 399 12Q472 12 531 27.5Q590 43 639 65L625 -16Q586 -35 526.5 -48.5Q467 -62 399 -62Q258 -62 146 14.5Q34 91 34 258Q34 423 147 543Q260 663 437 663Q581 663 670 582.5Q759 502 759 381Q759 251 690.5 186Q622 121 536 121Q501 121 470.5 133.5Q440 146 423 171Q405 147 376.5 135Q348 123 320 123Q259 123 226 163Q193 203 193 262Q193 351 248 421Q303 491 390 491Q418 491 441 480.5Q464 470 473 455L481 483ZM428 265 449 351Q445 364 432.5 373Q420 382 403 382Q370 382 346.5 352.5Q323 323 323 282Q323 260 335 246Q347 232 371 232Q390 232 404.5 242Q419 252 428 265Z" glyph-name="at.cap" horiz-adv-x="759" /><glyph d="M275 125 280 152Q276 166 259.5 175Q243 184 220 184Q198 184 175 172Q152 160 152 134Q152 115 169.5 105.5Q187 96 208 96Q230 96 247.5 103.5Q265 111 275 125ZM298 254 302 270Q302 273 302.5 277.5Q303 282 303 285Q303 309 282 320.5Q261 332 223 332Q186 332 152 324.5Q118 317 89 301L111 427Q141 442 187 451Q233 460 276 460Q363 460 410.5 424Q458 388 458 316Q458 305 456.5 293.5Q455 282 454 270L407 0H254L258 23Q245 12 217.5 2Q190 -8 156 -8Q95 -8 50 27Q5 62 5 123Q5 198 63 239.5Q121 281 195 281Q229 281 257 272.5Q285 264 298 254ZM386 647H473Q463 587 435.5 542Q408 497 358 497Q324 497 307.5 515Q291 533 267 533Q255 533 247 524Q239 515 236 500H149Q160 560 187.5 605Q215 650 264 650Q298 650 315 632Q332 614 355 614Q366 614 374.5 623Q383 632 386 647Z" glyph-name="atilde" horiz-adv-x="484" unicode="&#227;" /><glyph d="M167 36 161 0H4L118 650H275L233 412Q252 431 282 445.5Q312 460 348 460Q431 460 473 403.5Q515 347 515 267Q515 154 449 72Q383 -10 277 -10Q240 -10 210 3.5Q180 17 167 36ZM210 282 190 166Q195 147 212.5 135.5Q230 124 255 124Q299 124 327.5 160Q356 196 356 251Q356 284 339 305.5Q322 327 288 327Q262 327 242.5 314Q223 301 210 282Z" glyph-name="b" horiz-adv-x="533" unicode="b" /><glyph d="M219 650 338 -84H212L93 650Z" glyph-name="backslash" horiz-adv-x="394" unicode="\" /><glyph d="M222 670 341 -64H215L96 670Z" glyph-name="backslash.cap" horiz-adv-x="394" /><glyph d="M-7 -84 122 650H253L124 -84Z" glyph-name="bar" horiz-adv-x="223" unicode="|" /><glyph d="M-3 -64 126 670H256L127 -64Z" glyph-name="bar.cap" horiz-adv-x="223" /><glyph d="M235 200 213 75Q210 61 216.5 53.5Q223 46 237 46H318L295 -84H171Q113 -84 84 -48.5Q55 -13 65 46L90 189Q92 203 86 210.5Q80 218 66 218H22L46 348H89Q103 348 112 355.5Q121 363 123 377L148 520Q158 577 200.5 613.5Q243 650 300 650H424L402 520H320Q306 520 297 512.5Q288 505 286 491L264 366Q258 334 241 314Q224 294 202 282Q220 270 230.5 251Q241 232 235 200Z" glyph-name="braceleft" horiz-adv-x="366" unicode="{" /><glyph d="M240 220 218 95Q215 81 221.5 73.5Q228 66 242 66H323L300 -64H176Q118 -64 89 -28.5Q60 7 70 66L95 209Q97 223 91 230.5Q85 238 71 238H27L50 368H94Q108 368 117 375.5Q126 383 128 397L153 540Q163 597 205.5 633.5Q248 670 305 670H429L406 540H325Q311 540 302 532.5Q293 525 291 511L269 386Q263 354 246 334Q229 314 207 302Q225 290 235.5 271Q246 252 240 220Z" glyph-name="braceleft.cap" horiz-adv-x="366" /><glyph d="M155 366 177 491Q180 505 173.5 512.5Q167 520 153 520H72L95 650H219Q277 650 306 614.5Q335 579 325 520L300 377Q298 363 304 355.5Q310 348 324 348H368L344 218H301Q287 218 278 210.5Q269 203 267 189L242 46Q232 -11 189.5 -47.5Q147 -84 90 -84H-34L-12 46H70Q84 46 93 53.5Q102 61 104 75L126 200Q132 232 149 252Q166 272 188 284Q170 296 159.5 315Q149 334 155 366Z" glyph-name="braceright" horiz-adv-x="366" unicode="}" /><glyph d="M160 386 182 511Q185 525 178.5 532.5Q172 540 158 540H76L99 670H224Q282 670 311 634.5Q340 599 330 540L305 397Q303 383 309 375.5Q315 368 329 368H373L349 238H306Q292 238 283 230.5Q274 223 272 209L247 66Q237 9 194.5 -27.5Q152 -64 95 -64H-30L-7 66H75Q89 66 98 73.5Q107 81 109 95L131 220Q137 252 154 272Q171 292 193 304Q175 316 164.5 335Q154 354 160 386Z" glyph-name="braceright.cap" horiz-adv-x="366" /><glyph d="M248 520 165 46H284L261 -84H-5L124 650H390L367 520Z" glyph-name="bracketleft" horiz-adv-x="331" unicode="[" /><glyph d="M252 540 169 66H288L266 -64H0L129 670H395L372 540Z" glyph-name="bracketleft.cap" horiz-adv-x="331" /><glyph d="M108 46 191 520H72L95 650H361L232 -84H-34L-11 46Z" glyph-name="bracketright" horiz-adv-x="331" unicode="]" /><glyph d="M112 66 196 540H76L99 670H365L236 -64H-30L-7 66Z" glyph-name="bracketright.cap" horiz-adv-x="331" /><glyph d="M243 488Q182 488 144 527Q106 566 119 638H227Q223 616 229.5 603.5Q236 591 253 591Q271 591 282.5 603.5Q294 616 298 638H405Q392 564 348.5 526Q305 488 243 488Z" glyph-name="breve" horiz-adv-x="500" unicode="&#728;" /><glyph d="M243 658Q182 658 143.5 696Q105 734 118 804H226Q222 783 230 772.5Q238 762 254 762Q271 762 282.5 772.5Q294 783 298 804H406Q393 732 350 695Q307 658 243 658Z" glyph-name="breve.cap" horiz-adv-x="500" /><glyph d="M361 261Q361 189 312.5 143Q264 97 196 97Q127 97 78 143Q29 189 29 261Q29 335 78 381.5Q127 428 196 428Q264 428 312.5 381.5Q361 335 361 261Z" glyph-name="bullet" horiz-adv-x="381" unicode="&#8226;" /><glyph d="M367 295Q367 223 318.5 177Q270 131 201 131Q132 131 83.5 177Q35 223 35 295Q35 369 83.5 415.5Q132 462 201 462Q270 462 318.5 415.5Q367 369 367 295Z" glyph-name="bullet.cap" horiz-adv-x="381" /><glyph d="M361 148 338 17Q316 3 288.5 -3.5Q261 -10 233 -10Q139 -10 78.5 46Q18 102 18 198Q18 306 89 383Q160 460 276 460Q318 460 354 449.5Q390 439 410 423L386 290Q367 306 343 317Q319 328 290 328Q244 328 208.5 297.5Q173 267 173 207Q173 167 199 143.5Q225 120 268 120Q290 120 313.5 126Q337 132 361 148Z" glyph-name="c" horiz-adv-x="407" unicode="c" /><glyph d="M357 500H211L319 650H470ZM361 148 338 17Q316 3 288.5 -3.5Q261 -10 233 -10Q139 -10 78.5 46Q18 102 18 198Q18 306 89 383Q160 460 276 460Q318 460 354 449.5Q390 439 410 423L386 290Q367 306 343 317Q319 328 290 328Q244 328 208.5 297.5Q173 267 173 207Q173 167 199 143.5Q225 120 268 120Q290 120 313.5 126Q337 132 361 148Z" glyph-name="cacute" horiz-adv-x="407" unicode="&#263;" /><glyph d="M164 498 94 649H207L237 593L287 649H406L283 498Z" glyph-name="caron" horiz-adv-x="500" unicode="&#711;" /><glyph d="M273 483H151L228 650H351Z" glyph-name="caron.Slovak" horiz-adv-x="500" /><glyph d="M166 663 82 796H204L238 750L288 796H418L286 663Z" glyph-name="caron.cap" horiz-adv-x="500" /><glyph d="M231 498 161 649H274L304 593L354 649H473L350 498ZM361 148 338 17Q316 3 288.5 -3.5Q261 -10 233 -10Q139 -10 78.5 46Q18 102 18 198Q18 306 89 383Q160 460 276 460Q318 460 354 449.5Q390 439 410 423L386 290Q367 306 343 317Q319 328 290 328Q244 328 208.5 297.5Q173 267 173 207Q173 167 199 143.5Q225 120 268 120Q290 120 313.5 126Q337 132 361 148Z" glyph-name="ccaron" horiz-adv-x="407" unicode="&#269;" /><glyph d="M361 148 338 17Q316 3 288.5 -3.5Q261 -10 233 -10Q139 -10 78.5 46Q18 102 18 198Q18 306 89 383Q160 460 276 460Q318 460 354 449.5Q390 439 410 423L386 290Q367 306 343 317Q319 328 290 328Q244 328 208.5 297.5Q173 267 173 207Q173 167 199 143.5Q225 120 268 120Q290 120 313.5 126Q337 132 361 148ZM176 -181H41L135 -40H271Z" glyph-name="ccedilla" horiz-adv-x="407" unicode="&#231;" /><glyph d="M369 649 439 498H326L296 553L246 498H127L250 649ZM361 148 338 17Q316 3 288.5 -3.5Q261 -10 233 -10Q139 -10 78.5 46Q18 102 18 198Q18 306 89 383Q160 460 276 460Q318 460 354 449.5Q390 439 410 423L386 290Q367 306 343 317Q319 328 290 328Q244 328 208.5 297.5Q173 267 173 207Q173 167 199 143.5Q225 120 268 120Q290 120 313.5 126Q337 132 361 148Z" glyph-name="ccircumflex" horiz-adv-x="407" unicode="&#265;" /><glyph d="M361 148 338 17Q316 3 288.5 -3.5Q261 -10 233 -10Q139 -10 78.5 46Q18 102 18 198Q18 306 89 383Q160 460 276 460Q318 460 354 449.5Q390 439 410 423L386 290Q367 306 343 317Q319 328 290 328Q244 328 208.5 297.5Q173 267 173 207Q173 167 199 143.5Q225 120 268 120Q290 120 313.5 126Q337 132 361 148ZM390 579Q390 541 363.5 518Q337 495 301 495Q265 495 238.5 518Q212 541 212 579Q212 618 238.5 641Q265 664 301 664Q337 664 363.5 641Q390 618 390 579Z" glyph-name="cdotaccent" horiz-adv-x="407" unicode="&#267;" /><glyph d="M269 -181H134L228 -40H364Z" glyph-name="cedilla" horiz-adv-x="500" unicode="&#184;" /><glyph d="M269 -181H134L228 -40H364Z" glyph-name="cedilla.alt" horiz-adv-x="500" /><glyph d="M349 27Q333 17 314 11Q295 5 275 2L260 -85H132L151 17Q95 39 61.5 88.5Q28 138 28 208Q28 302 82.5 373.5Q137 445 229 464L246 560H374L356 462Q376 457 392.5 449.5Q409 442 420 433L396 300Q377 316 353.5 327Q330 338 300 338Q254 338 218.5 307.5Q183 277 183 217Q183 177 209 153.5Q235 130 278 130Q300 130 323.5 136Q347 142 371 158Z" glyph-name="cent" horiz-adv-x="416" unicode="&#162;" /><glyph d="M374 27Q358 17 339 11Q320 5 301 2L286 -85H158L176 17Q120 39 87 88.5Q54 138 54 208Q54 302 108 373.5Q162 445 255 464L271 560H399L382 461Q401 457 417.5 449.5Q434 442 445 433L422 300Q403 316 379 327Q355 338 325 338Q279 338 243.5 307.5Q208 277 208 217Q208 177 234 153.5Q260 130 303 130Q326 130 349 136Q372 142 397 158Z" glyph-name="cent.lt" horiz-adv-x="520" /><glyph d="M336 649 406 498H293L263 553L213 498H94L217 649Z" glyph-name="circumflex" horiz-adv-x="500" unicode="&#710;" /><glyph d="M334 798 418 666H296L262 711L212 666H82L214 798Z" glyph-name="circumflex.cap" horiz-adv-x="500" /><glyph d="M-3 87Q-3 127 24 153.5Q51 180 89 180Q128 180 155 153.5Q182 127 182 87Q182 47 155 20Q128 -7 89 -7Q51 -7 24 20Q-3 47 -3 87ZM45 352Q45 392 72 418.5Q99 445 137 445Q176 445 203 418.5Q230 392 230 352Q230 312 203 285Q176 258 137 258Q99 258 72 285Q45 312 45 352Z" glyph-name="colon" horiz-adv-x="223" unicode=":" /><glyph d="M9 87Q9 127 36 153.5Q63 180 101 180Q140 180 167 153.5Q194 127 194 87Q194 47 167 20Q140 -7 101 -7Q63 -7 36 20Q9 47 9 87ZM57 352Q57 392 84 418.5Q111 445 149 445Q188 445 215 418.5Q242 392 242 352Q242 312 215 285Q188 258 149 258Q111 258 84 285Q57 312 57 352Z" glyph-name="colon.tab" horiz-adv-x="260" /><glyph d="M-34 -105 54 11Q30 18 13.5 38Q-3 58 -3 90Q-3 130 23.5 154.5Q50 179 90 179Q127 179 154.5 154Q182 129 182 83Q182 55 169 31Q156 7 139 -15L68 -105Z" glyph-name="comma" horiz-adv-x="223" unicode="," /><glyph d="M-14 -105 74 11Q50 18 34 38Q18 58 18 90Q18 130 44.5 154.5Q71 179 110 179Q147 179 174.5 154Q202 129 202 83Q202 55 189 31Q176 7 160 -15L89 -105Z" glyph-name="comma.tab" horiz-adv-x="260" /><glyph d="M167 -236 222 -174Q203 -167 189.5 -149.5Q176 -132 176 -106Q176 -74 199.5 -53.5Q223 -33 257 -33Q289 -33 313.5 -54Q338 -75 338 -112Q338 -137 326 -160Q314 -183 291 -207L264 -236Z" glyph-name="commaaccent" horiz-adv-x="500" unicode="&#63171;" /><glyph d="M338 696 279 629Q298 622 311 604.5Q324 587 324 562Q324 530 301 509Q278 488 244 488Q211 488 187 509Q163 530 163 567Q163 592 175 615Q187 638 210 662L241 696Z" glyph-name="commaturn" horiz-adv-x="500" /><glyph d="M684 307Q684 170 590.5 80Q497 -10 367 -10Q237 -10 143.5 80Q50 170 50 307Q50 444 143.5 534Q237 624 367 624Q497 624 590.5 534Q684 444 684 307ZM637 307Q637 424 557 501Q477 578 367 578Q257 578 177 501Q97 424 97 307Q97 190 177 113Q257 36 367 36Q477 36 557 113Q637 190 637 307ZM180 309Q180 399 236 454Q292 509 383 509Q412 509 436.5 502.5Q461 496 479 485V378Q459 391 437.5 398Q416 405 394 405Q348 405 320.5 380Q293 355 293 309Q293 264 320.5 239Q348 214 394 214Q416 214 437.5 220.5Q459 227 479 240V133Q461 123 436.5 116Q412 109 383 109Q292 109 236 164Q180 219 180 309Z" glyph-name="copyright" horiz-adv-x="704" unicode="&#169;" /><glyph d="M322 169 343 285Q338 303 320.5 315Q303 327 278 327Q234 327 205.5 289Q177 251 177 199Q177 167 194 145.5Q211 124 245 124Q271 124 290.5 137Q310 150 322 169ZM366 414 407 650H563L449 0H293L299 38Q280 19 250.5 4.5Q221 -10 184 -10Q102 -10 60 46.5Q18 103 18 183Q18 294 83.5 377Q149 460 256 460Q293 460 323 446.5Q353 433 366 414Z" glyph-name="d" horiz-adv-x="532" unicode="d" /><glyph d="M361 461H263L230 276H130L163 461H64L81 558H180L196 650H296L280 558H379Z" glyph-name="dagger" horiz-adv-x="345" unicode="&#8224;" /><glyph d="M343 343H242L230 276H134L146 343H45L60 429H161L173 496H72L87 583H188L200 650H296L284 583H386L370 496H269L257 429H358Z" glyph-name="daggerdbl" horiz-adv-x="349" unicode="&#8225;" /><glyph d="M686 483H564L641 650H764ZM322 169 343 285Q338 303 320.5 315Q303 327 278 327Q234 327 205.5 289Q177 251 177 199Q177 167 194 145.5Q211 124 245 124Q271 124 290.5 137Q310 150 322 169ZM366 414 407 650H563L449 0H293L299 38Q280 19 250.5 4.5Q221 -10 184 -10Q102 -10 60 46.5Q18 103 18 183Q18 294 83.5 377Q149 460 256 460Q293 460 323 446.5Q353 433 366 414Z" glyph-name="dcaron" horiz-adv-x="532" unicode="&#271;" /><glyph d="M322 169 343 285Q338 303 320.5 315Q303 327 278 327Q234 327 205.5 289Q177 251 177 199Q177 167 194 145.5Q211 124 245 124Q271 124 290.5 137Q310 150 322 169ZM299 38Q280 19 250.5 4.5Q221 -10 184 -10Q102 -10 60 46.5Q18 103 18 183Q18 294 83.5 377Q149 460 256 460Q293 460 323 446.5Q353 433 366 414L379 490H297L314 592H397L407 650H563L553 592H601L583 490H535L449 0H293Z" glyph-name="dcroat" horiz-adv-x="532" unicode="&#273;" /><glyph d="M222 624Q277 624 314.5 585.5Q352 547 352 492Q352 432 308.5 387Q265 342 203 342Q149 342 111.5 380.5Q74 419 74 474Q74 533 117.5 578.5Q161 624 222 624ZM216 541Q194 541 175 523Q156 505 156 478Q156 456 171.5 440Q187 424 209 424Q231 424 250 442.5Q269 461 269 488Q269 510 253.5 525.5Q238 541 216 541Z" glyph-name="degree" horiz-adv-x="362" unicode="&#176;" /><glyph d="M261 567Q261 599 283.5 621.5Q306 644 337 644Q368 644 391.5 621.5Q415 599 415 567Q415 536 391.5 513.5Q368 491 337 491Q306 491 283.5 513.5Q261 536 261 567ZM84 567Q84 599 107 621.5Q130 644 161 644Q192 644 215 621.5Q238 599 238 567Q238 536 215 513.5Q192 491 161 491Q130 491 107 513.5Q84 536 84 567Z" glyph-name="dieresis" horiz-adv-x="500" unicode="&#168;" /><glyph d="M262 734Q262 767 285 790Q308 813 340 813Q372 813 395.5 790Q419 767 419 734Q419 701 395.5 678Q372 655 340 655Q308 655 285 678Q262 701 262 734ZM81 734Q81 767 103.5 790Q126 813 159 813Q191 813 214.5 790Q238 767 238 734Q238 701 214.5 678Q191 655 159 655Q126 655 103.5 678Q81 701 81 734Z" glyph-name="dieresis.cap" horiz-adv-x="500" /><glyph d="M243 479Q243 512 266.5 535Q290 558 324 558Q357 558 381 535Q405 512 405 479Q405 446 381 423Q357 400 324 400Q290 400 266.5 423Q243 446 243 479ZM54 241 75 357H528L508 241ZM180 119Q180 152 203.5 175Q227 198 261 198Q294 198 318 175Q342 152 342 119Q342 86 318 63Q294 40 261 40Q227 40 203.5 63Q180 86 180 119Z" glyph-name="divide" horiz-adv-x="556" unicode="&#247;" /><glyph d="M218 479Q218 512 241.5 535Q265 558 298 558Q332 558 356 535Q380 512 380 479Q380 446 356 423Q332 400 298 400Q265 400 241.5 423Q218 446 218 479ZM29 241 49 357H503L482 241ZM155 119Q155 152 178.5 175Q202 198 235 198Q269 198 292.5 175Q316 152 316 119Q316 86 292.5 63Q269 40 235 40Q202 40 178.5 63Q155 86 155 119Z" glyph-name="divide.lt" horiz-adv-x="520" /><glyph d="M259 -86H131L148 9Q100 16 63.5 30.5Q27 45 3 61L29 204Q65 175 115 153.5Q165 132 216 132Q254 132 282 144Q310 156 310 186Q310 202 297.5 211.5Q285 221 266 228L182 257Q125 277 90 312.5Q55 348 55 406Q55 494 114.5 545.5Q174 597 254 607L269 697H397L381 602Q416 595 443.5 583Q471 571 493 558L467 417Q433 445 390 464Q347 483 296 483Q260 483 235.5 471.5Q211 460 211 434Q211 418 222.5 409.5Q234 401 254 394L345 361Q401 339 434 302.5Q467 266 467 212Q467 120 410 71Q353 22 276 9Z" glyph-name="dollar" horiz-adv-x="494" unicode="$" /><glyph d="M268 -86H140L157 9Q109 16 72.5 30.5Q36 45 12 61L38 204Q74 175 124 153.5Q174 132 225 132Q263 132 291 144Q319 156 319 186Q319 202 307 211.5Q295 221 276 228L191 257Q134 277 99 312.5Q64 348 64 406Q64 494 123.5 545.5Q183 597 263 607L278 697H406L390 602Q425 595 452.5 583Q480 571 502 558L476 417Q442 445 399 464Q356 483 305 483Q270 483 245 471.5Q220 460 220 434Q220 418 231.5 409.5Q243 401 263 394L354 361Q410 339 443.5 302.5Q477 266 477 212Q477 120 419.5 71Q362 22 285 9Z" glyph-name="dollar.lt" horiz-adv-x="520" /><glyph d="M339 579Q339 541 312.5 518Q286 495 250 495Q214 495 187.5 518Q161 541 161 579Q161 618 187.5 641Q214 664 250 664Q286 664 312.5 641Q339 618 339 579Z" glyph-name="dotaccent" horiz-adv-x="500" unicode="&#729;" /><glyph d="M339 743Q339 704 312.5 681Q286 658 250 658Q214 658 187.5 681Q161 704 161 743Q161 781 187.5 804Q214 827 250 827Q286 827 312.5 804Q339 781 339 743Z" glyph-name="dotaccent.cap" horiz-adv-x="500" /><glyph d="M337 -114Q337 -152 311 -174.5Q285 -197 250 -197Q215 -197 189 -174.5Q163 -152 163 -114Q163 -77 189 -55Q215 -33 250 -33Q285 -33 311 -55Q337 -77 337 -114Z" glyph-name="dotbelow" horiz-adv-x="500" /><glyph d="M240 450 161 0H4L83 450Z" glyph-name="dotlessi" horiz-adv-x="242" unicode="&#305;" /><glyph d="M-99 -158 -78 -39Q-71 -42 -63.5 -44Q-56 -46 -45 -46Q-25 -46 -12.5 -35Q0 -24 4 4L83 450H240L162 10Q147 -77 100 -123Q53 -169 -28 -169Q-49 -169 -68 -165.5Q-87 -162 -99 -158Z" glyph-name="dotlessj" horiz-adv-x="242" unicode="&#567;" /><glyph d="M265 341Q235 341 214.5 322.5Q194 304 183 277H317Q317 278 317.5 281Q318 284 318 285Q318 309 304 325Q290 341 265 341ZM392 24Q361 6 321 -2Q281 -10 237 -10Q136 -10 77 45.5Q18 101 18 193Q18 301 88.5 380.5Q159 460 274 460Q361 460 408 409.5Q455 359 455 273Q455 254 452.5 232.5Q450 211 446 189H170Q174 147 203 130Q232 113 275 113Q311 113 345 121Q379 129 415 150Z" glyph-name="e" horiz-adv-x="470" unicode="e" /><glyph d="M357 500H211L319 650H470ZM265 341Q235 341 214.5 322.5Q194 304 183 277H317Q317 278 317.5 281Q318 284 318 285Q318 309 304 325Q290 341 265 341ZM392 24Q361 6 321 -2Q281 -10 237 -10Q136 -10 77 45.5Q18 101 18 193Q18 301 88.5 380.5Q159 460 274 460Q361 460 408 409.5Q455 359 455 273Q455 254 452.5 232.5Q450 211 446 189H170Q174 147 203 130Q232 113 275 113Q311 113 345 121Q379 129 415 150Z" glyph-name="eacute" horiz-adv-x="470" unicode="&#233;" /><glyph d="M265 341Q235 341 214.5 322.5Q194 304 183 277H317Q317 278 317.5 281Q318 284 318 285Q318 309 304 325Q290 341 265 341ZM392 24Q361 6 321 -2Q281 -10 237 -10Q136 -10 77 45.5Q18 101 18 193Q18 301 88.5 380.5Q159 460 274 460Q361 460 408 409.5Q455 359 455 273Q455 254 452.5 232.5Q450 211 446 189H170Q174 147 203 130Q232 113 275 113Q311 113 345 121Q379 129 415 150ZM293 488Q232 488 194 527Q156 566 169 638H277Q273 616 279.5 603.5Q286 591 303 591Q321 591 332.5 603.5Q344 616 348 638H455Q442 564 398.5 526Q355 488 293 488Z" glyph-name="ebreve" horiz-adv-x="470" unicode="&#277;" /><glyph d="M231 498 161 649H274L304 593L354 649H473L350 498ZM265 341Q235 341 214.5 322.5Q194 304 183 277H317Q317 278 317.5 281Q318 284 318 285Q318 309 304 325Q290 341 265 341ZM392 24Q361 6 321 -2Q281 -10 237 -10Q136 -10 77 45.5Q18 101 18 193Q18 301 88.5 380.5Q159 460 274 460Q361 460 408 409.5Q455 359 455 273Q455 254 452.5 232.5Q450 211 446 189H170Q174 147 203 130Q232 113 275 113Q311 113 345 121Q379 129 415 150Z" glyph-name="ecaron" horiz-adv-x="470" unicode="&#283;" /><glyph d="M370 649 440 498H327L297 553L247 498H128L251 649ZM265 341Q235 341 214.5 322.5Q194 304 183 277H317Q317 278 317.5 281Q318 284 318 285Q318 309 304 325Q290 341 265 341ZM392 24Q361 6 321 -2Q281 -10 237 -10Q136 -10 77 45.5Q18 101 18 193Q18 301 88.5 380.5Q159 460 274 460Q361 460 408 409.5Q455 359 455 273Q455 254 452.5 232.5Q450 211 446 189H170Q174 147 203 130Q232 113 275 113Q311 113 345 121Q379 129 415 150Z" glyph-name="ecircumflex" horiz-adv-x="470" unicode="&#234;" /><glyph d="M310 567Q310 599 332.5 621.5Q355 644 386 644Q417 644 440.5 621.5Q464 599 464 567Q464 536 440.5 513.5Q417 491 386 491Q355 491 332.5 513.5Q310 536 310 567ZM133 567Q133 599 156 621.5Q179 644 210 644Q241 644 264 621.5Q287 599 287 567Q287 536 264 513.5Q241 491 210 491Q179 491 156 513.5Q133 536 133 567ZM265 341Q235 341 214.5 322.5Q194 304 183 277H317Q317 278 317.5 281Q318 284 318 285Q318 309 304 325Q290 341 265 341ZM392 24Q361 6 321 -2Q281 -10 237 -10Q136 -10 77 45.5Q18 101 18 193Q18 301 88.5 380.5Q159 460 274 460Q361 460 408 409.5Q455 359 455 273Q455 254 452.5 232.5Q450 211 446 189H170Q174 147 203 130Q232 113 275 113Q311 113 345 121Q379 129 415 150Z" glyph-name="edieresis" horiz-adv-x="470" unicode="&#235;" /><glyph d="M265 341Q235 341 214.5 322.5Q194 304 183 277H317Q317 278 317.5 281Q318 284 318 285Q318 309 304 325Q290 341 265 341ZM392 24Q361 6 321 -2Q281 -10 237 -10Q136 -10 77 45.5Q18 101 18 193Q18 301 88.5 380.5Q159 460 274 460Q361 460 408 409.5Q455 359 455 273Q455 254 452.5 232.5Q450 211 446 189H170Q174 147 203 130Q232 113 275 113Q311 113 345 121Q379 129 415 150ZM391 579Q391 541 364.5 518Q338 495 302 495Q266 495 239.5 518Q213 541 213 579Q213 618 239.5 641Q266 664 302 664Q338 664 364.5 641Q391 618 391 579Z" glyph-name="edotaccent" horiz-adv-x="470" unicode="&#279;" /><glyph d="M265 341Q235 341 214.5 322.5Q194 304 183 277H317Q317 278 317.5 281Q318 284 318 285Q318 309 304 325Q290 341 265 341ZM392 24Q361 6 321 -2Q281 -10 237 -10Q136 -10 77 45.5Q18 101 18 193Q18 301 88.5 380.5Q159 460 274 460Q361 460 408 409.5Q455 359 455 273Q455 254 452.5 232.5Q450 211 446 189H170Q174 147 203 130Q232 113 275 113Q311 113 345 121Q379 129 415 150ZM353 500H220L159 650H297Z" glyph-name="egrave" horiz-adv-x="470" unicode="&#232;" /><glyph d="M241 -10Q163 -10 90.5 30.5Q18 71 18 160Q18 222 54.5 264.5Q91 307 141 321Q112 337 96.5 366Q81 395 81 432Q81 525 149.5 574.5Q218 624 304 624Q386 624 446.5 581Q507 538 507 460Q507 406 478 364Q449 322 403 303Q435 287 458 255.5Q481 224 481 181Q481 86 406.5 38Q332 -10 241 -10ZM364 448Q364 473 345.5 489Q327 505 299 505Q268 505 245 486.5Q222 468 222 434Q222 409 240 393Q258 377 286 377Q317 377 340.5 395.5Q364 414 364 448ZM172 175Q172 147 192 130.5Q212 114 245 113Q279 113 304.5 132.5Q330 152 330 188Q330 216 309.5 233Q289 250 257 250Q223 250 197.5 230.5Q172 211 172 175Z" glyph-name="eight" horiz-adv-x="508" unicode="8" /><glyph d="M242 -10Q164 -10 91.5 30.5Q19 71 19 160Q19 222 55.5 264.5Q92 307 142 321Q113 337 97.5 366Q82 395 82 432Q82 525 150.5 574.5Q219 624 305 624Q387 624 447.5 581Q508 538 508 460Q508 406 479 364Q450 322 404 303Q436 287 459 255.5Q482 224 482 181Q482 86 407.5 38Q333 -10 242 -10ZM365 448Q365 473 346.5 489Q328 505 300 505Q269 505 246 486.5Q223 468 223 434Q223 409 241 393Q259 377 287 377Q318 377 341.5 395.5Q365 414 365 448ZM173 175Q173 147 193 130.5Q213 114 246 113Q280 113 305.5 132.5Q331 152 331 188Q331 216 310.5 233Q290 250 258 250Q224 250 198.5 230.5Q173 211 173 175Z" glyph-name="eight.lt" horiz-adv-x="520" /><glyph d="M485 87Q485 127 512 153.5Q539 180 577 180Q616 180 643 153.5Q670 127 670 87Q670 47 643 20Q616 -7 577 -7Q539 -7 512 20Q485 47 485 87ZM242 87Q242 127 268.5 153.5Q295 180 334 180Q372 180 399 153.5Q426 127 426 87Q426 47 399 20Q372 -7 334 -7Q295 -7 268.5 20Q242 47 242 87ZM-2 87Q-2 127 25 153.5Q52 180 90 180Q129 180 156 153.5Q183 127 183 87Q183 47 156 20Q129 -7 90 -7Q52 -7 25 20Q-2 47 -2 87Z" glyph-name="ellipsis" horiz-adv-x="699" unicode="&#8230;" /><glyph d="M265 341Q235 341 214.5 322.5Q194 304 183 277H317Q317 278 317.5 281Q318 284 318 285Q318 309 304 325Q290 341 265 341ZM392 24Q361 6 321 -2Q281 -10 237 -10Q136 -10 77 45.5Q18 101 18 193Q18 301 88.5 380.5Q159 460 274 460Q361 460 408 409.5Q455 359 455 273Q455 254 452.5 232.5Q450 211 446 189H170Q174 147 203 130Q232 113 275 113Q311 113 345 121Q379 129 415 150ZM164 504 183 612H435L416 504Z" glyph-name="emacron" horiz-adv-x="470" unicode="&#275;" /><glyph d="M31 208 49 315H815L797 208Z" glyph-name="emdash" horiz-adv-x="837" unicode="&#8212;" /><glyph d="M36 242 55 348H821L802 242Z" glyph-name="emdash.cap" horiz-adv-x="837" /><glyph d="M31 208 49 315H444L426 208Z" glyph-name="endash" horiz-adv-x="466" unicode="&#8211;" /><glyph d="M36 242 55 348H450L431 242Z" glyph-name="endash.cap" horiz-adv-x="466" /><glyph d="M181 -158 202 -39Q209 -42 216.5 -44Q224 -46 235 -46Q255 -46 267.5 -35Q280 -24 285 4L329 257Q330 263 330.5 266.5Q331 270 331 274Q331 295 318.5 308Q306 321 281 321Q259 321 239 307.5Q219 294 209 272L161 0H4L83 450H240L233 411Q254 432 286 446Q318 460 358 460Q422 460 458.5 423.5Q495 387 495 327Q495 319 494 310Q493 301 492 291L443 10Q428 -77 381 -123Q334 -169 253 -169Q231 -169 212 -165.5Q193 -162 181 -158Z" glyph-name="eng" horiz-adv-x="519" unicode="&#331;" /><glyph d="M446 189H171V184Q177 147 204 130Q231 113 275 113Q311 113 345 121Q379 129 415 150L392 24Q383 18 373 11.5Q363 5 348 -8Q328 -25 314.5 -44Q301 -63 301 -79Q301 -86 305.5 -90Q310 -94 317 -94Q326 -94 334 -90.5Q342 -87 355 -79L340 -166Q325 -174 308.5 -179.5Q292 -185 271 -185Q236 -185 215 -168Q194 -151 194 -120Q194 -86 212.5 -60Q231 -34 256 -10H237Q136 -10 77 45.5Q18 101 18 193Q18 301 88.5 380.5Q159 460 274 460Q361 460 408 409.5Q455 359 455 273Q455 254 452.5 232.5Q450 211 446 189ZM265 341Q234 341 213.5 322.5Q193 304 181 277H317Q317 278 317.5 281Q318 284 318 285Q318 309 304 325Q290 341 265 341Z" glyph-name="eogonek" horiz-adv-x="470" unicode="&#281;" /><glyph d="M81 340 99 445H552L534 340ZM49 158 68 261H521L502 158Z" glyph-name="equal" horiz-adv-x="574" unicode="=" /><glyph d="M47 340 65 445H518L500 340ZM15 158 33 261H486L467 158Z" glyph-name="equal.lt" horiz-adv-x="520" /><glyph d="M228 -10Q135 -10 76.5 45.5Q18 101 18 194Q18 311 89 383.5Q160 456 261 456Q274 456 287 452Q300 448 309 441H311Q306 454 297.5 470.5Q289 487 277 505L189 477L165 542L234 564Q218 584 198 604.5Q178 625 156 646V650H323Q335 639 345.5 627.5Q356 616 366 605L443 629L467 564L409 546Q446 486 462 421Q478 356 478 294Q478 148 405 69Q332 -10 228 -10ZM232 120Q273 120 298.5 159.5Q324 199 324 257Q324 288 308.5 308.5Q293 329 264 329Q224 329 198.5 289Q173 249 173 192Q173 161 188.5 140.5Q204 120 232 120Z" glyph-name="eth" horiz-adv-x="496" unicode="&#240;" /><glyph d="M59 206 99 614H289L180 206ZM9 82Q9 119 36 144.5Q63 170 102 170Q141 170 168 144.5Q195 119 195 82Q195 44 168 18.5Q141 -7 102 -7Q63 -7 36 18.5Q9 44 9 82Z" glyph-name="exclam" horiz-adv-x="239" unicode="!" /><glyph d="M254 436Q254 399 227 373.5Q200 348 161 348Q122 348 95 373.5Q68 399 68 436Q68 474 95 499.5Q122 525 161 525Q200 525 227 499.5Q254 474 254 436ZM204 312 164 -96H-26L83 312Z" glyph-name="exclamdown" horiz-adv-x="243" unicode="&#161;" /><glyph d="M267 532Q267 495 240 469.5Q213 444 174 444Q135 444 108 469.5Q81 495 81 532Q81 570 108 595.5Q135 621 174 621Q213 621 240 595.5Q267 570 267 532ZM217 408 177 0H-13L96 408Z" glyph-name="exclamdown.cap" horiz-adv-x="239" /><glyph d="M404 647 381 519Q374 523 365 525.5Q356 528 346 528Q318 528 301 514.5Q284 501 280 474L276 450H363L341 328H254L197 0H42L99 328H32L54 450H121L127 483Q141 568 194.5 613.5Q248 659 333 659Q354 659 372.5 655.5Q391 652 404 647Z" glyph-name="f" horiz-adv-x="338" unicode="f" /><glyph d="M705 647 682 519Q675 523 666 525.5Q657 528 647 528Q619 528 602 514.5Q585 501 581 474L577 450H664L642 328H555L498 0H343L400 328H254L197 0H42L99 328H32L54 450H121L126 477Q140 562 193.5 607.5Q247 653 332 653Q353 653 371.5 649.5Q390 646 403 641L380 516Q373 520 364 522Q355 524 345 524Q317 524 300.5 511.5Q284 499 280 472L276 450H422L428 483Q442 568 495.5 613.5Q549 659 634 659Q655 659 673.5 655.5Q692 652 705 647Z" glyph-name="f_f" horiz-adv-x="639" unicode="&#64256;" /><glyph d="M610 576Q610 535 582.5 511.5Q555 488 519 488Q483 488 457.5 510Q432 532 432 569Q432 609 459.5 633Q487 657 523 657Q559 657 584.5 635Q610 613 610 576ZM578 450 499 0H342L421 450ZM404 647 381 519Q374 523 365 525.5Q356 528 346 528Q318 528 301 514.5Q284 501 280 474L276 450H363L341 328H254L197 0H42L99 328H32L54 450H121L127 483Q141 568 194.5 613.5Q248 659 333 659Q354 659 372.5 655.5Q391 652 404 647Z" glyph-name="fi" horiz-adv-x="580" unicode="&#64257;" /><glyph d="M440 224Q440 114 363 52Q286 -10 177 -10Q114 -10 69 4.5Q24 19 -5 41L21 185Q47 157 89 138.5Q131 120 179 120Q220 120 256 140Q292 160 292 206Q292 240 265 257.5Q238 275 191 275Q160 275 121.5 268.5Q83 262 53 251L117 614H478L454 476H218L204 399Q212 401 224.5 402Q237 403 247 403Q335 403 387.5 355.5Q440 308 440 224Z" glyph-name="five" horiz-adv-x="461" unicode="5" /><glyph d="M466 224Q466 114 388.5 52Q311 -10 201 -10Q138 -10 92.5 4.5Q47 19 18 41L44 185Q70 157 112.5 138.5Q155 120 203 120Q245 120 281 140Q317 160 317 206Q317 240 290 257.5Q263 275 216 275Q184 275 145.5 268.5Q107 262 76 251L141 614H504L480 476H241L227 398Q236 400 248.5 401.5Q261 403 271 403Q361 403 413.5 355.5Q466 308 466 224Z" glyph-name="five.lt" horiz-adv-x="520" /><glyph d="M613 650 499 0H342L456 650ZM404 647 381 519Q374 523 365 525.5Q356 528 346 528Q318 528 301 514.5Q284 501 280 474L276 450H363L341 328H254L197 0H42L99 328H32L54 450H121L127 483Q141 568 194.5 613.5Q248 659 333 659Q354 659 372.5 655.5Q391 652 404 647Z" glyph-name="fl" horiz-adv-x="580" unicode="&#64258;" /><glyph d="M6 -166Q-18 -166 -40 -162Q-62 -158 -75 -153L-54 -33Q-46 -37 -36 -40Q-26 -43 -13 -43Q11 -43 25 -30Q39 -17 47 11L114 234H48L69 356H151L181 457Q205 537 256 580.5Q307 624 384 624Q408 624 429.5 620Q451 616 464 611L441 484Q433 488 422.5 490.5Q412 493 399 493Q376 493 360 480.5Q344 468 336 440L311 356H387L365 234H275L205 0Q181 -79 131.5 -122.5Q82 -166 6 -166Z" glyph-name="florin" horiz-adv-x="420" unicode="&#402;" /><glyph d="M72 -166Q47 -166 25.5 -162Q4 -158 -9 -153L11 -33Q20 -37 30 -40Q40 -43 53 -43Q77 -43 91 -30Q105 -17 113 11L180 234H113L135 356H217L247 457Q270 537 321.5 580.5Q373 624 449 624Q474 624 495.5 620Q517 616 530 611L507 484Q498 488 488 490.5Q478 493 465 493Q441 493 425.5 480.5Q410 468 402 440L377 356H453L431 234H340L270 0Q247 -79 197.5 -122.5Q148 -166 72 -166Z" glyph-name="florin.lt" horiz-adv-x="520" /><glyph d="M445 614 225 248H318L337 352H475L456 248H527L503 118H433L413 0H275L295 118H-11V122L286 614Z" glyph-name="four" horiz-adv-x="534" unicode="4" /><glyph d="M413 614 211 238H300L320 352H456L435 238H504L481 108H412L394 0H258L276 108H-11L-10 112L265 614Z" glyph-name="four.lt" horiz-adv-x="520" /><glyph d="M408 614 -94 0H-182L320 614Z" glyph-name="fraction" horiz-adv-x="216" unicode="&#8260;" /><glyph d="M325 180 344 291Q340 308 322 319.5Q304 331 279 331Q235 331 206.5 295Q178 259 178 210Q178 179 195.5 158.5Q213 138 246 138Q272 138 292 150.5Q312 163 325 180ZM301 46 304 62Q285 44 258.5 30Q232 16 195 16Q110 16 66.5 72Q23 128 23 203Q23 308 88 384Q153 460 258 460Q296 460 324.5 446.5Q353 433 366 415L372 450H529L460 60Q439 -56 368 -112.5Q297 -169 181 -169Q131 -169 80.5 -156.5Q30 -144 2 -124L30 16Q59 -12 98.5 -27Q138 -42 181 -42Q226 -42 259.5 -21.5Q293 -1 301 46Z" glyph-name="g" horiz-adv-x="530" unicode="g" /><glyph d="M325 180 344 291Q340 308 322 319.5Q304 331 279 331Q235 331 206.5 295Q178 259 178 210Q178 179 195.5 158.5Q213 138 246 138Q272 138 292 150.5Q312 163 325 180ZM301 46 304 62Q285 44 258.5 30Q232 16 195 16Q110 16 66.5 72Q23 128 23 203Q23 308 88 384Q153 460 258 460Q296 460 324.5 446.5Q353 433 366 415L372 450H529L460 60Q439 -56 368 -112.5Q297 -169 181 -169Q131 -169 80.5 -156.5Q30 -144 2 -124L30 16Q59 -12 98.5 -27Q138 -42 181 -42Q226 -42 259.5 -21.5Q293 -1 301 46ZM332 488Q271 488 233 527Q195 566 208 638H316Q312 616 318.5 603.5Q325 591 342 591Q360 591 371.5 603.5Q383 616 387 638H494Q481 564 437.5 526Q394 488 332 488Z" glyph-name="gbreve" horiz-adv-x="530" unicode="&#287;" /><glyph d="M409 649 479 498H366L336 553L286 498H167L290 649ZM325 180 344 291Q340 308 322 319.5Q304 331 279 331Q235 331 206.5 295Q178 259 178 210Q178 179 195.5 158.5Q213 138 246 138Q272 138 292 150.5Q312 163 325 180ZM301 46 304 62Q285 44 258.5 30Q232 16 195 16Q110 16 66.5 72Q23 128 23 203Q23 308 88 384Q153 460 258 460Q296 460 324.5 446.5Q353 433 366 415L372 450H529L460 60Q439 -56 368 -112.5Q297 -169 181 -169Q131 -169 80.5 -156.5Q30 -144 2 -124L30 16Q59 -12 98.5 -27Q138 -42 181 -42Q226 -42 259.5 -21.5Q293 -1 301 46Z" glyph-name="gcircumflex" horiz-adv-x="530" unicode="&#285;" /><glyph d="M432 696 373 629Q392 622 405 604.5Q418 587 418 562Q418 530 395 509Q372 488 338 488Q305 488 281 509Q257 530 257 567Q257 592 269 615Q281 638 304 662L335 696ZM325 180 344 291Q340 308 322 319.5Q304 331 279 331Q235 331 206.5 295Q178 259 178 210Q178 179 195.5 158.5Q213 138 246 138Q272 138 292 150.5Q312 163 325 180ZM301 46 304 62Q285 44 258.5 30Q232 16 195 16Q110 16 66.5 72Q23 128 23 203Q23 308 88 384Q153 460 258 460Q296 460 324.5 446.5Q353 433 366 415L372 450H529L460 60Q439 -56 368 -112.5Q297 -169 181 -169Q131 -169 80.5 -156.5Q30 -144 2 -124L30 16Q59 -12 98.5 -27Q138 -42 181 -42Q226 -42 259.5 -21.5Q293 -1 301 46Z" glyph-name="gcommaaccent" horiz-adv-x="530" unicode="&#291;" /><glyph d="M325 180 344 291Q340 308 322 319.5Q304 331 279 331Q235 331 206.5 295Q178 259 178 210Q178 179 195.5 158.5Q213 138 246 138Q272 138 292 150.5Q312 163 325 180ZM301 46 304 62Q285 44 258.5 30Q232 16 195 16Q110 16 66.5 72Q23 128 23 203Q23 308 88 384Q153 460 258 460Q296 460 324.5 446.5Q353 433 366 415L372 450H529L460 60Q439 -56 368 -112.5Q297 -169 181 -169Q131 -169 80.5 -156.5Q30 -144 2 -124L30 16Q59 -12 98.5 -27Q138 -42 181 -42Q226 -42 259.5 -21.5Q293 -1 301 46ZM431 579Q431 541 404.5 518Q378 495 342 495Q306 495 279.5 518Q253 541 253 579Q253 618 279.5 641Q306 664 342 664Q378 664 404.5 641Q431 618 431 579Z" glyph-name="gdotaccent" horiz-adv-x="530" unicode="&#289;" /><glyph d="M4 0 89 483Q104 568 157.5 613.5Q211 659 295 659Q317 659 335 655.5Q353 652 366 647L344 519Q336 523 327 525.5Q318 528 308 528Q281 528 264 514.5Q247 501 243 474L239 450H565V446L432 231Q462 210 480 175.5Q498 141 498 92Q498 -34 398 -101.5Q298 -169 170 -169L192 -42Q259 -40 304.5 -10Q350 20 350 80Q350 117 325 143Q300 169 259 179V183L346 328H217L160 0Z" glyph-name="germandbls" horiz-adv-x="547" unicode="&#223;" /><glyph d="M438 353Q456 346 471 333.5Q486 321 497 303Q508 285 514 262Q520 239 520 213Q520 163 501.5 122Q483 81 451 52.5Q419 24 377 9.5Q335 -5 289 -5Q276 -5 266 -4.5Q256 -4 246.5 -3Q237 -2 228 0.5Q219 3 210 6L231 130Q235 128 240.5 127Q246 126 252 125Q258 124 265 123.5Q272 123 279 123Q299 123 316 129Q333 135 345.5 146.5Q358 158 365 175Q372 192 372 213Q372 229 367 242Q362 255 351.5 263Q341 271 325.5 275.5Q310 280 290 280H261L283 402H300Q316 402 329.5 406.5Q343 411 353.5 420.5Q364 430 370 444Q376 458 376 475Q376 486 372.5 495.5Q369 505 362 512Q355 519 344.5 522.5Q334 526 320 526Q303 526 289 520Q275 514 264.5 502.5Q254 491 247 475.5Q240 460 237 442L160 0H4L80 432Q89 485 110.5 527Q132 569 164.5 598.5Q197 628 240 643.5Q283 659 335 659Q382 659 418 647.5Q454 636 478.5 615Q503 594 515 565.5Q527 537 527 503Q527 476 519.5 452Q512 428 499 409Q486 390 470 375.5Q454 361 438 353Z" glyph-name="germandbls.alt" horiz-adv-x="543" /><glyph d="M351 500H218L157 650H295Z" glyph-name="grave" horiz-adv-x="500" unicode="`" /><glyph d="M358 666H214L148 796H299Z" glyph-name="grave.cap" horiz-adv-x="500" /><glyph d="M418 369 393 225 21 72 44 205 297 301 78 396 100 522Z" glyph-name="greater" horiz-adv-x="433" unicode="&gt;" /><glyph d="M465 369 439 225 68 72 90 205 343 301 124 396 146 522Z" glyph-name="greater.lt" horiz-adv-x="520" /><glyph d="M432 437 407 299 40 177 64 305 309 373 88 442 108 559ZM382 154 362 42H17L36 154Z" glyph-name="greaterequal" horiz-adv-x="442" unicode="&#8805;" /><glyph d="M474 437 449 299 82 177 106 305 351 373 130 442 150 559ZM424 154 404 42H59L78 154Z" glyph-name="greaterequal.lt" horiz-adv-x="520" /><glyph d="M397 58H269L207 216L328 386H458L335 214ZM216 58H89L26 222L146 386H276L155 216Z" glyph-name="guillemotleft" horiz-adv-x="451" unicode="&#171;" /><glyph d="M419 138H290L229 296L349 466H479L357 294ZM237 138H110L47 302L168 466H298L177 296Z" glyph-name="guillemotleft.cap" horiz-adv-x="451" /><glyph d="M57 386H185L247 228L126 58H-4L119 230ZM238 386H365L428 222L308 58H178L299 228Z" glyph-name="guillemotright" horiz-adv-x="451" unicode="&#187;" /><glyph d="M73 466H202L264 308L143 138H13L135 310ZM255 466H382L445 302L324 138H195L316 308Z" glyph-name="guillemotright.cap" horiz-adv-x="451" /><glyph d="M223 58H89L26 222L142 386H284L162 214Z" glyph-name="guilsinglleft" horiz-adv-x="278" unicode="&#8249;" /><glyph d="M244 138H110L47 302L163 466H306L184 294Z" glyph-name="guilsinglleft.cap" horiz-adv-x="278" /><glyph d="M58 386H192L255 222L139 58H-3L119 230Z" glyph-name="guilsinglright" horiz-adv-x="278" unicode="&#8250;" /><glyph d="M75 466H209L272 302L156 138H13L135 310Z" glyph-name="guilsinglright.cap" horiz-adv-x="278" /><glyph d="M358 460Q422 460 458.5 423.5Q495 387 495 327Q495 319 494 310Q493 301 492 291L441 0H284L329 257Q330 263 330.5 266.5Q331 270 331 274Q331 295 318.5 308Q306 321 281 321Q259 321 239 307.5Q219 294 209 272L161 0H4L118 650H275L233 411Q254 432 286 446Q318 460 358 460Z" glyph-name="h" horiz-adv-x="519" unicode="h" /><glyph d="M209 272 161 0H4L90 490H43L61 592H108L118 650H275L265 592H347L329 490H247L233 411Q254 432 286 446Q318 460 358 460Q422 460 458.5 423.5Q495 387 495 327Q495 319 494 310Q493 301 492 291L441 0H284L329 257Q330 263 330.5 266.5Q331 270 331 274Q331 295 318.5 308Q306 321 281 321Q259 321 239 307.5Q219 294 209 272Z" glyph-name="hbar" horiz-adv-x="519" unicode="&#295;" /><glyph d="M358 460Q422 460 458.5 423.5Q495 387 495 327Q495 319 494 310Q493 301 492 291L441 0H284L329 257Q330 263 330.5 266.5Q331 270 331 274Q331 295 318.5 308Q306 321 281 321Q259 321 239 307.5Q219 294 209 272L161 0H4L118 650H275L233 411Q254 432 286 446Q318 460 358 460ZM389 807 473 675H351L317 720L267 675H137L269 807Z" glyph-name="hcircumflex" horiz-adv-x="519" unicode="&#293;" /><glyph d="M340 500H217L320 650H443ZM179 500H57L159 650H282Z" glyph-name="hungarumlaut" horiz-adv-x="500" unicode="&#733;" /><glyph d="M352 666H220L319 796H452ZM181 666H48L147 796H280Z" glyph-name="hungarumlaut.cap" horiz-adv-x="500" /><glyph d="M31 196 54 328H295L272 196Z" glyph-name="hyphen" horiz-adv-x="312" unicode="-" /><glyph d="M36 230 59 361H300L277 230Z" glyph-name="hyphen.cap" horiz-adv-x="312" /><glyph d="M272 576Q272 535 244.5 511.5Q217 488 181 488Q145 488 119.5 510Q94 532 94 569Q94 609 121.5 633Q149 657 185 657Q221 657 246.5 635Q272 613 272 576ZM240 450 161 0H4L83 450Z" glyph-name="i" horiz-adv-x="242" unicode="i" /><glyph d="M240 500H94L202 650H353ZM240 450 161 0H4L83 450Z" glyph-name="iacute" horiz-adv-x="242" unicode="&#237;" /><glyph d="M174 488Q114 488 78.5 527Q43 566 56 638H163Q159 616 164 603.5Q169 591 185 591Q202 591 212 603.5Q222 616 226 638H333Q320 564 277 526Q234 488 174 488ZM240 450 161 0H4L83 450Z" glyph-name="ibreve" horiz-adv-x="242" unicode="&#301;" /><glyph d="M253 649 316 498H203L179 552L136 498H18L133 649ZM240 450 161 0H4L83 450Z" glyph-name="icircumflex" horiz-adv-x="242" unicode="&#238;" /><glyph d="M192 567Q192 599 214.5 621.5Q237 644 268 644Q300 644 323 621.5Q346 599 346 567Q346 536 323 513.5Q300 491 268 491Q237 491 214.5 513.5Q192 536 192 567ZM21 567Q21 599 43.5 621.5Q66 644 97 644Q128 644 151 621.5Q174 599 174 567Q174 536 151 513.5Q128 491 97 491Q66 491 43.5 513.5Q21 536 21 567ZM240 450 161 0H4L83 450Z" glyph-name="idieresis" horiz-adv-x="242" unicode="&#239;" /><glyph d="M240 450 161 0H4L83 450ZM274 579Q274 541 247.5 518Q221 495 185 495Q149 495 122.5 518Q96 541 96 579Q96 618 122.5 641Q149 664 185 664Q221 664 247.5 641Q274 618 274 579Z" glyph-name="idotaccent" horiz-adv-x="242" /><glyph d="M240 450 161 0H4L83 450ZM236 500H103L42 650H180Z" glyph-name="igrave" horiz-adv-x="242" unicode="&#236;" /><glyph d="M272 576Q272 535 244.5 511.5Q217 488 181 488Q145 488 119.5 510Q94 532 94 569Q94 609 121.5 633Q149 657 185 657Q221 657 246.5 635Q272 613 272 576ZM240 450 161 0H4L83 450ZM514 576Q514 535 486.5 511.5Q459 488 423 488Q387 488 361.5 510Q336 532 336 569Q336 609 363.5 633Q391 657 427 657Q463 657 488.5 635Q514 613 514 576ZM143 -158 164 -39Q171 -42 178.5 -44Q186 -46 197 -46Q217 -46 229.5 -35Q242 -24 246 4L325 450H482L404 10Q389 -77 342 -123Q295 -169 214 -169Q193 -169 174 -165.5Q155 -162 143 -158Z" glyph-name="ij" horiz-adv-x="483" unicode="&#307;" /><glyph d="M50 504 69 612H312L293 504ZM240 450 161 0H4L83 450Z" glyph-name="imacron" horiz-adv-x="242" unicode="&#299;" /><glyph d="M272 576Q272 535 244.5 511.5Q217 488 181 488Q145 488 119.5 510Q94 532 94 569Q94 609 121.5 633Q149 657 185 657Q221 657 246.5 635Q272 613 272 576ZM4 0 83 450H240L161 0Q137 -24 118 -43Q99 -62 99 -79Q99 -86 103.5 -90Q108 -94 115 -94Q124 -94 132 -90.5Q140 -87 153 -79L138 -166Q124 -174 107 -179.5Q90 -185 69 -185Q35 -185 13.5 -168Q-8 -151 -8 -120Q-8 -83 14.5 -54.5Q37 -26 65 0Z" glyph-name="iogonek" horiz-adv-x="242" unicode="&#303;" /><glyph d="M252 647H339Q329 587 302 542Q275 497 228 497Q195 497 180.5 514.5Q166 532 144 532Q133 532 125 523.5Q117 515 114 500H28Q38 560 65 605Q92 650 139 650Q172 650 186.5 632.5Q201 615 223 615Q233 615 241.5 623.5Q250 632 252 647ZM240 450 161 0H4L83 450Z" glyph-name="itilde" horiz-adv-x="242" unicode="&#297;" /><glyph d="M272 576Q272 535 244.5 511.5Q217 488 181 488Q145 488 119.5 510Q94 532 94 569Q94 609 121.5 633Q149 657 185 657Q221 657 246.5 635Q272 613 272 576ZM-99 -158 -78 -39Q-71 -42 -63.5 -44Q-56 -46 -45 -46Q-25 -46 -12.5 -35Q0 -24 4 4L83 450H240L162 10Q147 -77 100 -123Q53 -169 -28 -169Q-49 -169 -68 -165.5Q-87 -162 -99 -158Z" glyph-name="j" horiz-adv-x="242" unicode="j" /><glyph d="M253 649 316 498H203L179 552L136 498H18L133 649ZM-99 -158 -78 -39Q-71 -42 -63.5 -44Q-56 -46 -45 -46Q-25 -46 -12.5 -35Q0 -24 4 4L83 450H240L162 10Q147 -77 100 -123Q53 -169 -28 -169Q-49 -169 -68 -165.5Q-87 -162 -99 -158Z" glyph-name="jcircumflex" horiz-adv-x="242" unicode="&#309;" /><glyph d="M304 0 196 199 161 0H4L118 650H275L210 282L365 450H553L341 230L471 0Z" glyph-name="k" horiz-adv-x="512" unicode="k" /><glyph d="M107 -236 162 -174Q143 -167 129.5 -149.5Q116 -132 116 -106Q116 -74 139.5 -53.5Q163 -33 197 -33Q229 -33 253.5 -54Q278 -75 278 -112Q278 -137 266 -160Q254 -183 231 -207L204 -236ZM304 0 196 199 161 0H4L118 650H275L210 282L365 450H553L341 230L471 0Z" glyph-name="kcommaaccent" horiz-adv-x="512" unicode="&#311;" /><glyph d="M304 0 196 199 161 0H4L83 450H240L210 282L365 450H553L341 230L471 0Z" glyph-name="kgreenlandic" horiz-adv-x="512" unicode="&#312;" /><glyph d="M275 650 161 0H4L118 650Z" glyph-name="l" horiz-adv-x="242" unicode="l" /><glyph d="M280 676H122L227 806H391ZM275 650 161 0H4L118 650Z" glyph-name="lacute" horiz-adv-x="242" unicode="&#314;" /><glyph d="M397 483H275L352 650H475ZM275 650 161 0H4L118 650Z" glyph-name="lcaron" horiz-adv-x="242" unicode="&#318;" /><glyph d="M-32 -236 23 -174Q4 -167 -9.5 -149.5Q-23 -132 -23 -106Q-23 -74 0.5 -53.5Q24 -33 58 -33Q90 -33 114.5 -54Q139 -75 139 -112Q139 -137 127 -160Q115 -183 92 -207L65 -236ZM275 650 161 0H4L118 650Z" glyph-name="lcommaaccent" horiz-adv-x="242" unicode="&#316;" /><glyph d="M275 650 161 0H4L118 650ZM442 325Q442 287 415.5 264Q389 241 353 241Q317 241 290.5 264Q264 287 264 325Q264 364 290.5 387Q317 410 353 410Q389 410 415.5 387Q442 364 442 325Z" glyph-name="ldot" horiz-adv-x="438" unicode="&#320;" /><glyph d="M42 225 68 369 439 522 416 389 163 293 382 198 360 72Z" glyph-name="less" horiz-adv-x="433" unicode="&lt;" /><glyph d="M68 225 93 369 465 522 442 389 189 293 408 198 386 72Z" glyph-name="less.lt" horiz-adv-x="520" /><glyph d="M62 298 86 437 454 559 430 430 185 363 406 293 386 177ZM17 42 36 154H382L362 42Z" glyph-name="lessequal" horiz-adv-x="442" unicode="&#8804;" /><glyph d="M92 298 117 437 484 559 460 430 215 363 436 293 416 177ZM47 42 67 154H412L393 42Z" glyph-name="lessequal.lt" horiz-adv-x="520" /><glyph d="M187 0H30L75 256L18 230L39 345L95 371L144 650H301L262 430L326 459L305 344L242 316Z" glyph-name="lslash" horiz-adv-x="293" unicode="&#322;" /><glyph d="M472 406Q497 430 531 445Q565 460 607 460Q673 460 709.5 422.5Q746 385 746 328Q746 321 745 312.5Q744 304 743 295L691 0H535L579 255Q580 262 580.5 267Q581 272 581 276Q581 296 571.5 308.5Q562 321 540 321Q519 321 501 307Q483 293 473 271L426 0H269L314 255Q315 262 315.5 267Q316 272 316 276Q316 296 306.5 308.5Q297 321 275 321Q254 321 236 307Q218 293 208 271L161 0H4L83 450H240L233 411Q254 432 286.5 446Q319 460 359 460Q395 460 425.5 445.5Q456 431 472 406Z" glyph-name="m" horiz-adv-x="769" unicode="m" /><glyph d="M114 504 133 612H385L366 504Z" glyph-name="macron" horiz-adv-x="500" unicode="&#175;" /><glyph d="M107 666 126 774H392L373 666Z" glyph-name="macron.cap" horiz-adv-x="500" /><glyph d="M54 241 75 357H528L508 241Z" glyph-name="minus" horiz-adv-x="556" unicode="&#8722;" /><glyph d="M29 241 49 357H503L482 241Z" glyph-name="minus.lt" horiz-adv-x="520" /><glyph d="M182 301 82 421 173 499 272 379 415 499 482 418 340 298 439 177 348 100 248 220 106 99 39 180Z" glyph-name="multiply" horiz-adv-x="494" unicode="&#215;" /><glyph d="M188 301 88 421 179 499 278 379 420 499 487 418 345 298 444 177 353 100 254 220 112 99 45 180Z" glyph-name="multiply.lt" horiz-adv-x="520" /><glyph d="M4 0 83 450H240L233 411Q254 432 286 446Q318 460 358 460Q422 460 458.5 423.5Q495 387 495 327Q495 319 494 310Q493 301 492 291L441 0H284L329 257Q330 263 330.5 266.5Q331 270 331 274Q331 295 318.5 308Q306 321 281 321Q259 321 239 307.5Q219 294 209 272L161 0Z" glyph-name="n" horiz-adv-x="519" unicode="n" /><glyph d="M381 500H235L343 650H494ZM4 0 83 450H240L233 411Q254 432 286 446Q318 460 358 460Q422 460 458.5 423.5Q495 387 495 327Q495 319 494 310Q493 301 492 291L441 0H284L329 257Q330 263 330.5 266.5Q331 270 331 274Q331 295 318.5 308Q306 321 281 321Q259 321 239 307.5Q219 294 209 272L161 0Z" glyph-name="nacute" horiz-adv-x="519" unicode="&#324;" /><glyph d="M249 498 179 649H292L322 593L372 649H491L368 498ZM4 0 83 450H240L233 411Q254 432 286 446Q318 460 358 460Q422 460 458.5 423.5Q495 387 495 327Q495 319 494 310Q493 301 492 291L441 0H284L329 257Q330 263 330.5 266.5Q331 270 331 274Q331 295 318.5 308Q306 321 281 321Q259 321 239 307.5Q219 294 209 272L161 0Z" glyph-name="ncaron" horiz-adv-x="519" unicode="&#328;" /><glyph d="M109 -236 164 -174Q145 -167 131.5 -149.5Q118 -132 118 -106Q118 -74 141.5 -53.5Q165 -33 199 -33Q231 -33 255.5 -54Q280 -75 280 -112Q280 -137 268 -160Q256 -183 233 -207L206 -236ZM4 0 83 450H240L233 411Q254 432 286 446Q318 460 358 460Q422 460 458.5 423.5Q495 387 495 327Q495 319 494 310Q493 301 492 291L441 0H284L329 257Q330 263 330.5 266.5Q331 270 331 274Q331 295 318.5 308Q306 321 281 321Q259 321 239 307.5Q219 294 209 272L161 0Z" glyph-name="ncommaaccent" horiz-adv-x="519" unicode="&#326;" /><glyph d="M292 624Q391 624 450.5 562.5Q510 501 510 420Q510 363 486.5 310.5Q463 258 409 192L249 0H69L230 185Q228 184 224 183.5Q220 183 217 183Q140 192 90 245.5Q40 299 40 376Q40 483 114 553.5Q188 624 292 624ZM283 486Q243 486 214.5 458Q186 430 186 387Q186 353 209 329.5Q232 306 266 306Q306 306 334.5 333.5Q363 361 363 404Q363 439 340 462.5Q317 486 283 486Z" glyph-name="nine" horiz-adv-x="510" unicode="9" /><glyph d="M294 624Q393 624 452.5 562.5Q512 501 512 420Q512 363 488.5 310.5Q465 258 411 192L251 0H71L232 185Q230 184 226 183.5Q222 183 219 183Q142 192 92 245.5Q42 299 42 376Q42 483 116 553.5Q190 624 294 624ZM285 486Q245 486 216.5 458Q188 430 188 387Q188 353 211 329.5Q234 306 268 306Q308 306 336.5 333.5Q365 361 365 404Q365 439 342 462.5Q319 486 285 486Z" glyph-name="nine.lt" horiz-adv-x="520" /><glyph glyph-name="nonmarkingreturn" horiz-adv-x="200" unicode="" /><glyph d="M502 158H232L156 65H60L136 158H49L68 261H220L284 340H81L99 444H369L445 537H541L465 444H552L534 340H380L316 261H521Z" glyph-name="notequal" horiz-adv-x="574" unicode="&#8800;" /><glyph d="M467 158H198L122 65H26L102 158H15L33 261H185L250 340H47L65 444H334L410 537H506L430 444H518L500 340H346L281 261H486Z" glyph-name="notequal.lt" horiz-adv-x="520" /><glyph d="M4 0 83 450H240L233 411Q254 432 286 446Q318 460 358 460Q422 460 458.5 423.5Q495 387 495 327Q495 319 494 310Q493 301 492 291L441 0H284L329 257Q330 263 330.5 266.5Q331 270 331 274Q331 295 318.5 308Q306 321 281 321Q259 321 239 307.5Q219 294 209 272L161 0ZM400 647H487Q477 587 449.5 542Q422 497 372 497Q338 497 321.5 515Q305 533 281 533Q269 533 261 524Q253 515 250 500H163Q174 560 201.5 605Q229 650 278 650Q312 650 329 632Q346 614 369 614Q380 614 388.5 623Q397 632 400 647Z" glyph-name="ntilde" horiz-adv-x="519" unicode="&#241;" /><glyph d="M371 255 402 359H295L264 255ZM293 0 341 156H234L186 0H74L121 156H34L57 255H151L183 359H82L104 458H213L260 614H373L325 458H432L480 614H592L545 458H632L609 359H515L483 255H584L563 156H453L406 0Z" glyph-name="numbersign" horiz-adv-x="642" unicode="#" /><glyph d="M228 -10Q135 -10 76.5 45.5Q18 101 18 194Q18 311 91.5 385.5Q165 460 268 460Q361 460 419.5 404.5Q478 349 478 256Q478 139 405 64.5Q332 -10 228 -10ZM232 120Q273 120 298.5 160Q324 200 324 258Q324 289 308.5 310Q293 331 264 331Q224 331 198.5 290.5Q173 250 173 192Q173 161 188.5 140.5Q204 120 232 120Z" glyph-name="o" horiz-adv-x="496" unicode="o" /><glyph d="M364 500H218L326 650H477ZM228 -10Q135 -10 76.5 45.5Q18 101 18 194Q18 311 91.5 385.5Q165 460 268 460Q361 460 419.5 404.5Q478 349 478 256Q478 139 405 64.5Q332 -10 228 -10ZM232 120Q273 120 298.5 160Q324 200 324 258Q324 289 308.5 310Q293 331 264 331Q224 331 198.5 290.5Q173 250 173 192Q173 161 188.5 140.5Q204 120 232 120Z" glyph-name="oacute" horiz-adv-x="496" unicode="&#243;" /><glyph d="M228 -10Q135 -10 76.5 45.5Q18 101 18 194Q18 311 91.5 385.5Q165 460 268 460Q361 460 419.5 404.5Q478 349 478 256Q478 139 405 64.5Q332 -10 228 -10ZM232 120Q273 120 298.5 160Q324 200 324 258Q324 289 308.5 310Q293 331 264 331Q224 331 198.5 290.5Q173 250 173 192Q173 161 188.5 140.5Q204 120 232 120ZM299 488Q238 488 200 527Q162 566 175 638H283Q279 616 285.5 603.5Q292 591 309 591Q327 591 338.5 603.5Q350 616 354 638H461Q448 564 404.5 526Q361 488 299 488Z" glyph-name="obreve" horiz-adv-x="496" unicode="&#335;" /><glyph d="M376 649 446 498H333L303 553L253 498H134L257 649ZM228 -10Q135 -10 76.5 45.5Q18 101 18 194Q18 311 91.5 385.5Q165 460 268 460Q361 460 419.5 404.5Q478 349 478 256Q478 139 405 64.5Q332 -10 228 -10ZM232 120Q273 120 298.5 160Q324 200 324 258Q324 289 308.5 310Q293 331 264 331Q224 331 198.5 290.5Q173 250 173 192Q173 161 188.5 140.5Q204 120 232 120Z" glyph-name="ocircumflex" horiz-adv-x="496" unicode="&#244;" /><glyph d="M317 567Q317 599 339.5 621.5Q362 644 393 644Q424 644 447.5 621.5Q471 599 471 567Q471 536 447.5 513.5Q424 491 393 491Q362 491 339.5 513.5Q317 536 317 567ZM140 567Q140 599 163 621.5Q186 644 217 644Q248 644 271 621.5Q294 599 294 567Q294 536 271 513.5Q248 491 217 491Q186 491 163 513.5Q140 536 140 567ZM228 -10Q135 -10 76.5 45.5Q18 101 18 194Q18 311 91.5 385.5Q165 460 268 460Q361 460 419.5 404.5Q478 349 478 256Q478 139 405 64.5Q332 -10 228 -10ZM232 120Q273 120 298.5 160Q324 200 324 258Q324 289 308.5 310Q293 331 264 331Q224 331 198.5 290.5Q173 250 173 192Q173 161 188.5 140.5Q204 120 232 120Z" glyph-name="odieresis" horiz-adv-x="496" unicode="&#246;" /><glyph d="M268 460Q312 460 349 443Q386 426 412 400Q441 425 480 442.5Q519 460 564 460Q652 460 699 409.5Q746 359 746 273Q746 254 743 232.5Q740 211 736 189H462V184Q466 147 494.5 130Q523 113 566 113Q602 113 636 121Q670 129 706 150L683 24Q652 6 612 -2Q572 -10 527 -10Q479 -10 440 6.5Q401 23 376 49Q347 22 308 6Q269 -10 228 -10Q135 -10 76.5 45.5Q18 101 18 194Q18 311 91.5 385.5Q165 460 268 460ZM555 341Q525 341 504 322.5Q483 304 472 277H607Q608 278 608 281Q608 284 608 285Q608 309 594.5 325Q581 341 555 341ZM232 120Q273 120 298.5 160Q324 200 324 258Q324 289 308.5 310Q293 331 264 331Q224 331 198.5 290.5Q173 250 173 192Q173 161 188.5 140.5Q204 120 232 120Z" glyph-name="oe" horiz-adv-x="760" unicode="&#339;" /><glyph d="M244 8H340Q314 -19 291.5 -39.5Q269 -60 269 -79Q269 -86 273 -90Q277 -94 285 -94Q294 -94 302 -90.5Q310 -87 323 -79L307 -166Q293 -174 276 -179.5Q259 -185 239 -185Q204 -185 183 -168Q162 -151 162 -120Q162 -80 188 -50Q214 -20 244 8Z" glyph-name="ogonek" horiz-adv-x="500" unicode="&#731;" /><glyph d="M228 -10Q135 -10 76.5 45.5Q18 101 18 194Q18 311 91.5 385.5Q165 460 268 460Q361 460 419.5 404.5Q478 349 478 256Q478 139 405 64.5Q332 -10 228 -10ZM232 120Q273 120 298.5 160Q324 200 324 258Q324 289 308.5 310Q293 331 264 331Q224 331 198.5 290.5Q173 250 173 192Q173 161 188.5 140.5Q204 120 232 120ZM360 500H227L166 650H304Z" glyph-name="ograve" horiz-adv-x="496" unicode="&#242;" /><glyph d="M431 500H308L411 650H534ZM270 500H148L250 650H373ZM228 -10Q135 -10 76.5 45.5Q18 101 18 194Q18 311 91.5 385.5Q165 460 268 460Q361 460 419.5 404.5Q478 349 478 256Q478 139 405 64.5Q332 -10 228 -10ZM232 120Q273 120 298.5 160Q324 200 324 258Q324 289 308.5 310Q293 331 264 331Q224 331 198.5 290.5Q173 250 173 192Q173 161 188.5 140.5Q204 120 232 120Z" glyph-name="ohungarumlaut" horiz-adv-x="496" unicode="&#337;" /><glyph d="M170 504 189 612H441L422 504ZM228 -10Q135 -10 76.5 45.5Q18 101 18 194Q18 311 91.5 385.5Q165 460 268 460Q361 460 419.5 404.5Q478 349 478 256Q478 139 405 64.5Q332 -10 228 -10ZM232 120Q273 120 298.5 160Q324 200 324 258Q324 289 308.5 310Q293 331 264 331Q224 331 198.5 290.5Q173 250 173 192Q173 161 188.5 140.5Q204 120 232 120Z" glyph-name="omacron" horiz-adv-x="496" unicode="&#333;" /><glyph d="M379 614 271 0H113L189 435L36 366L64 523L271 614Z" glyph-name="one" horiz-adv-x="367" unicode="1" /><glyph d="M21 0 45 138H193L246 440L90 369L118 522L325 614H433L349 138H475L451 0Z" glyph-name="one.lt" horiz-adv-x="520" /><glyph d="M282 614 219 264H117L159 497L65 455L83 560L208 614ZM670 614 146 0H50L574 614ZM588 92H681L665 0H395V2L528 148Q549 171 567.5 193.5Q586 216 586 235Q586 245 579.5 252Q573 259 558 259Q532 259 497 242Q462 225 445 213L462 316Q486 332 521 343.5Q556 355 597 355Q645 355 671 330Q697 305 697 267Q697 230 674.5 196.5Q652 163 623 131Z" glyph-name="onehalf" horiz-adv-x="735" unicode="&#189;" /><glyph d="M282 614 219 264H117L159 497L65 455L83 560L208 614ZM670 614 146 0H50L574 614ZM625 350 495 145H541L549 196H640L631 145H675L661 62H617L606 0H516L526 62H360L370 117L523 350Z" glyph-name="onequarter" horiz-adv-x="719" unicode="&#188;" /><glyph d="M271 614 209 264H103L143 495L58 457L76 562L196 614Z" glyph-name="onesuperior" horiz-adv-x="245" unicode="&#185;" /><glyph d="M229 406 231 423Q228 430 218.5 435.5Q209 441 196 441Q183 441 170 434Q157 427 157 412Q157 401 167 395.5Q177 390 190 390Q203 390 212.5 394.5Q222 399 229 406ZM245 493 246 501Q247 502 247 505.5Q247 509 247 510Q247 524 233 532Q219 540 194 540Q169 540 146 535Q123 530 104 520L120 611Q142 621 171 627Q200 633 230 633Q291 633 324.5 608Q358 583 358 532Q358 524 357 515.5Q356 507 355 498L324 320H214L216 335Q208 328 189.5 321Q171 314 149 314Q107 314 77.5 338.5Q48 363 48 403Q48 455 86 482.5Q124 510 173 510Q197 510 216 505Q235 500 245 493Z" glyph-name="ordfeminine" horiz-adv-x="343" unicode="&#170;" /><glyph d="M206 313Q142 313 100.5 350.5Q59 388 59 453Q59 534 110 583.5Q161 633 233 633Q296 633 337.5 595.5Q379 558 379 493Q379 413 328.5 363Q278 313 206 313ZM209 410Q233 410 247.5 434.5Q262 459 262 495Q262 512 253.5 524.5Q245 537 229 537Q205 537 190 512Q175 487 175 451Q175 435 184 422.5Q193 410 209 410Z" glyph-name="ordmasculine" horiz-adv-x="358" unicode="&#186;" /><glyph d="M171 189Q171 186 171 183.5Q171 181 172 179L309 326Q301 332 291 335Q281 338 270 338Q228 338 199.5 293.5Q171 249 171 189ZM237 113Q279 113 307.5 157.5Q336 202 336 262Q336 264 336 266.5Q336 269 336 271L199 125Q206 119 216 116Q226 113 237 113ZM233 -10Q196 -10 163.5 -1Q131 8 106 25L64 -20L20 16L64 64Q45 89 34 122Q23 155 23 194Q23 311 96.5 385.5Q170 460 273 460Q310 460 342.5 450.5Q375 441 401 424L443 470L487 433L442 385Q461 360 472 327.5Q483 295 483 256Q483 139 410 64.5Q337 -10 233 -10Z" glyph-name="oslash" horiz-adv-x="506" unicode="&#248;" /><glyph d="M171 189Q171 186 171 183.5Q171 181 172 179L309 326Q301 332 291 335Q281 338 270 338Q228 338 199.5 293.5Q171 249 171 189ZM237 113Q279 113 307.5 157.5Q336 202 336 262Q336 264 336 266.5Q336 269 336 271L199 125Q206 119 216 116Q226 113 237 113ZM233 -10Q196 -10 163.5 -1Q131 8 106 25L64 -20L20 16L64 64Q45 89 34 122Q23 155 23 194Q23 311 96.5 385.5Q170 460 273 460Q310 460 342.5 450.5Q375 441 401 424L443 470L487 433L442 385Q461 360 472 327.5Q483 295 483 256Q483 139 410 64.5Q337 -10 233 -10ZM367 500H221L329 650H480Z" glyph-name="oslashacute" horiz-adv-x="506" unicode="&#511;" /><glyph d="M228 -10Q135 -10 76.5 45.5Q18 101 18 194Q18 311 91.5 385.5Q165 460 268 460Q361 460 419.5 404.5Q478 349 478 256Q478 139 405 64.5Q332 -10 228 -10ZM232 120Q273 120 298.5 160Q324 200 324 258Q324 289 308.5 310Q293 331 264 331Q224 331 198.5 290.5Q173 250 173 192Q173 161 188.5 140.5Q204 120 232 120ZM383 647H470Q460 587 432.5 542Q405 497 355 497Q321 497 304.5 515Q288 533 264 533Q252 533 244 524Q236 515 233 500H146Q157 560 184.5 605Q212 650 261 650Q295 650 312 632Q329 614 352 614Q363 614 371.5 623Q380 632 383 647Z" glyph-name="otilde" horiz-adv-x="496" unicode="&#245;" /><glyph d="M210 282 190 166Q195 147 212.5 135.5Q230 124 255 124Q299 124 327.5 160Q356 196 356 251Q356 284 339 305.5Q322 327 288 327Q262 327 242.5 314Q223 301 210 282ZM167 36 133 -159H-24L83 450H240L233 412Q252 431 282 445.5Q312 460 348 460Q431 460 473 403.5Q515 347 515 267Q515 154 449 72Q383 -10 277 -10Q240 -10 210 3.5Q180 17 167 36Z" glyph-name="p" horiz-adv-x="533" unicode="p" /><glyph d="M188 -90 247 247Q172 247 110.5 287Q49 327 49 409Q49 519 138 566.5Q227 614 317 614H417L293 -90ZM346 -90 470 614H575L451 -90Z" glyph-name="paragraph" horiz-adv-x="551" unicode="&#182;" /><glyph d="M37 228Q37 382 132 501.5Q227 621 391 650L365 503Q290 479 235.5 409Q181 339 181 228Q181 162 210 121Q239 80 288 63L262 -84Q156 -56 96.5 24.5Q37 105 37 228Z" glyph-name="parenleft" horiz-adv-x="334" unicode="(" /><glyph d="M41 248Q41 402 136 521.5Q231 641 396 670L370 523Q295 499 240 429Q185 359 185 248Q185 182 214.5 141Q244 100 293 83L267 -64Q161 -36 101 44.5Q41 125 41 248Z" glyph-name="parenleft.cap" horiz-adv-x="334" /><glyph d="M320 338Q320 184 225 64.5Q130 -55 -34 -84L-8 63Q67 87 121.5 157Q176 227 176 338Q176 404 147 445Q118 486 69 503L95 650Q201 622 260.5 541.5Q320 461 320 338Z" glyph-name="parenright" horiz-adv-x="334" unicode=")" /><glyph d="M325 358Q325 204 230 84.5Q135 -35 -30 -64L-4 83Q71 107 126 177Q181 247 181 358Q181 424 151.5 465Q122 506 73 523L99 670Q206 642 265.5 561.5Q325 481 325 358Z" glyph-name="parenright.cap" horiz-adv-x="334" /><glyph d="M211 624Q271 624 311.5 583Q352 542 352 484Q352 424 308.5 377.5Q265 331 201 331Q142 331 101 372Q60 413 60 471Q60 530 103.5 577Q147 624 211 624ZM71 0 549 614H643L164 0ZM204 424Q225 424 242 440Q259 456 259 480Q259 501 244 516Q229 531 208 531Q187 531 170 514.5Q153 498 153 475Q153 454 168 439Q183 424 204 424ZM502 -10Q443 -10 402 31Q361 72 361 130Q361 190 404.5 236.5Q448 283 513 283Q572 283 612.5 242Q653 201 653 143Q653 84 609.5 37Q566 -10 502 -10ZM509 190Q488 190 471.5 174Q455 158 455 134Q455 113 469.5 98Q484 83 505 83Q526 83 543 99.5Q560 116 560 139Q560 160 545 175Q530 190 509 190Z" glyph-name="percent" horiz-adv-x="698" unicode="%" /><glyph d="M180 624Q229 624 263 589.5Q297 555 297 506Q297 456 261 417Q225 378 170 378Q121 378 87 412Q53 446 53 495Q53 545 89.5 584.5Q126 624 180 624ZM550 614 72 0H-22L456 614ZM173 456Q191 456 205 469.5Q219 483 219 503Q219 521 207 533.5Q195 546 177 546Q159 546 145 532.5Q131 519 131 499Q131 481 143 468.5Q155 456 173 456ZM348 -10Q299 -10 265 24.5Q231 59 231 108Q231 158 267 197Q303 236 358 236Q407 236 441 202Q475 168 475 119Q475 69 438.5 29.5Q402 -10 348 -10ZM355 158Q337 158 323 144.5Q309 131 309 111Q309 93 321 80.5Q333 68 351 68Q369 68 383 81.5Q397 95 397 115Q397 133 385 145.5Q373 158 355 158Z" glyph-name="percent.lt" horiz-adv-x="520" /><glyph d="M-3 87Q-3 127 24 153.5Q51 180 89 180Q128 180 155 153.5Q182 127 182 87Q182 47 155 20Q128 -7 89 -7Q51 -7 24 20Q-3 47 -3 87Z" glyph-name="period" horiz-adv-x="223" unicode="." /><glyph d="M9 87Q9 127 36 153.5Q63 180 101 180Q140 180 167 153.5Q194 127 194 87Q194 47 167 20Q140 -7 101 -7Q63 -7 36 20Q9 47 9 87Z" glyph-name="period.tab" horiz-adv-x="260" /><glyph d="M29 262Q29 302 56 328.5Q83 355 121 355Q160 355 187 328.5Q214 302 214 262Q214 222 187 195Q160 168 121 168Q83 168 56 195Q29 222 29 262Z" glyph-name="periodcentered" horiz-adv-x="233" unicode="&#183;" /><glyph d="M36 295Q36 335 63 361.5Q90 388 128 388Q167 388 194 361.5Q221 335 221 295Q221 255 194 228Q167 201 128 201Q90 201 63 228Q36 255 36 295Z" glyph-name="periodcentered.cap" horiz-adv-x="233" /><glyph d="M211 624Q271 624 311.5 583Q352 542 352 484Q352 424 308.5 377.5Q265 331 201 331Q142 331 101 372Q60 413 60 471Q60 530 103.5 577Q147 624 211 624ZM71 0 549 614H643L164 0ZM204 424Q225 424 242 440Q259 456 259 480Q259 501 244 516Q229 531 208 531Q187 531 170 514.5Q153 498 153 475Q153 454 168 439Q183 424 204 424ZM818 -10Q759 -10 718 31Q677 72 677 130Q677 190 720.5 236.5Q764 283 829 283Q888 283 928.5 242Q969 201 969 143Q969 84 925.5 37Q882 -10 818 -10ZM502 -10Q443 -10 402 31Q361 72 361 130Q361 190 404.5 236.5Q448 283 513 283Q572 283 612.5 242Q653 201 653 143Q653 84 609.5 37Q566 -10 502 -10ZM825 190Q804 190 787.5 174Q771 158 771 134Q771 113 785.5 98Q800 83 821 83Q843 83 859.5 99.5Q876 116 876 139Q876 160 861 175Q846 190 825 190ZM509 190Q488 190 471.5 174Q455 158 455 134Q455 113 469.5 98Q484 83 505 83Q526 83 543 99.5Q560 116 560 139Q560 160 545 175Q530 190 509 190Z" glyph-name="perthousand" horiz-adv-x="1012" unicode="&#8240;" /><glyph d="M196 624Q246 624 280 589.5Q314 555 314 506Q314 456 277.5 417Q241 378 187 378Q138 378 103.5 412Q69 446 69 495Q69 545 105.5 584.5Q142 624 196 624ZM567 614 88 0H-5L473 614ZM190 456Q208 456 222 469.5Q236 483 236 503Q236 521 223.5 533.5Q211 546 193 546Q176 546 161.5 532.5Q147 519 147 499Q147 481 159.5 468.5Q172 456 190 456ZM633 -10Q584 -10 550 24.5Q516 59 516 108Q516 158 552 197Q588 236 643 236Q692 236 726 202Q760 168 760 119Q760 69 723.5 29.5Q687 -10 633 -10ZM365 -10Q316 -10 281.5 24.5Q247 59 247 108Q247 158 283.5 197Q320 236 374 236Q424 236 458 202Q492 168 492 119Q492 69 455.5 29.5Q419 -10 365 -10ZM640 158Q622 158 608 144.5Q594 131 594 111Q594 93 606 80.5Q618 68 636 68Q654 68 668 81.5Q682 95 682 115Q682 133 670 145.5Q658 158 640 158ZM371 158Q354 158 339.5 144.5Q325 131 325 111Q325 93 337.5 80.5Q350 68 368 68Q385 68 399.5 81.5Q414 95 414 115Q414 133 401.5 145.5Q389 158 371 158Z" glyph-name="perthousand.lt" horiz-adv-x="800" /><glyph d="M508 241H339L309 73H193L223 241H54L75 357H243L273 526H389L359 357H528Z" glyph-name="plus" horiz-adv-x="556" unicode="+" /><glyph d="M482 241H314L284 73H168L198 241H29L49 357H218L248 526H364L334 357H503Z" glyph-name="plus.lt" horiz-adv-x="520" /><glyph d="M521 329H355L332 201H227L250 329H85L104 433H268L291 561H396L373 433H539ZM35 48 54 153H490L470 48Z" glyph-name="plusminus" horiz-adv-x="567" unicode="&#177;" /><glyph d="M500 329H334L311 201H206L229 329H64L83 433H247L270 561H376L353 433H518ZM14 48 33 153H469L450 48Z" glyph-name="plusminus.lt" horiz-adv-x="520" /><glyph d="M684 307Q684 170 590.5 80Q497 -10 367 -10Q237 -10 143.5 80Q50 170 50 307Q50 444 143.5 534Q237 624 367 624Q497 624 590.5 534Q684 444 684 307ZM637 307Q637 424 557 501Q477 578 367 578Q257 578 177 501Q97 424 97 307Q97 190 177 113Q257 36 367 36Q477 36 557 113Q637 190 637 307ZM406 230H342V124H236V493H406Q466 493 504.5 459Q543 425 543 362Q543 298 504.5 264Q466 230 406 230ZM394 320Q418 320 428.5 331.5Q439 343 439 362Q439 380 428.5 391.5Q418 403 394 403H342V320Z" glyph-name="published" horiz-adv-x="704" /><glyph d="M366 414 372 450H529L421 -159H265L299 38Q280 19 250.5 4.5Q221 -10 184 -10Q102 -10 60 46.5Q18 103 18 183Q18 294 83.5 377Q149 460 256 460Q293 460 323 446.5Q353 433 366 414ZM322 169 343 285Q338 303 320.5 315Q303 327 278 327Q234 327 205.5 289Q177 251 177 199Q177 167 194 145.5Q211 124 245 124Q271 124 290.5 137Q310 150 322 169Z" glyph-name="q" horiz-adv-x="530" unicode="q" /><glyph d="M203 309Q235 340 266 368.5Q297 397 297 429Q297 451 282.5 464.5Q268 478 236 478Q187 478 137.5 451.5Q88 425 56 400L82 553Q123 582 176.5 603Q230 624 296 624Q378 624 422.5 580.5Q467 537 467 472Q467 398 427 354Q387 310 342 267Q318 245 309.5 231Q301 217 299 206H140Q147 233 160.5 256.5Q174 280 203 309ZM108 82Q108 120 135 145Q162 170 201 170Q241 170 268 145Q295 120 295 82Q295 44 268 18.5Q241 -7 201 -7Q162 -7 135 18.5Q108 44 108 82Z" glyph-name="question" horiz-adv-x="446" unicode="?" /><glyph d="M355 436Q355 398 328 373Q301 348 262 348Q222 348 195 373Q168 398 168 436Q168 474 195 499.5Q222 525 262 525Q301 525 328 499.5Q355 474 355 436ZM260 209Q228 178 197 149.5Q166 121 166 89Q166 67 180.5 53.5Q195 40 227 40Q276 40 325.5 66.5Q375 93 407 118L381 -35Q340 -64 286.5 -85Q233 -106 167 -106Q85 -106 40.5 -62.5Q-4 -19 -4 46Q-4 120 36 164Q76 208 121 251Q145 273 153.5 287Q162 301 164 312H323Q316 285 302.5 261.5Q289 238 260 209Z" glyph-name="questiondown" horiz-adv-x="446" unicode="&#191;" /><glyph d="M367 532Q367 494 340 469Q313 444 274 444Q234 444 207 469Q180 494 180 532Q180 570 207 595.5Q234 621 274 621Q313 621 340 595.5Q367 570 367 532ZM272 305Q240 274 209 245.5Q178 217 178 185Q178 163 192.5 149.5Q207 136 239 136Q288 136 337.5 162.5Q387 189 419 214L393 61Q352 32 298.5 11Q245 -10 179 -10Q97 -10 52.5 33.5Q8 77 8 142Q8 216 48 260Q88 304 133 347Q157 369 165.5 383Q174 397 176 408H335Q328 381 314.5 357.5Q301 334 272 305Z" glyph-name="questiondown.cap" horiz-adv-x="446" /><glyph d="M219 355 266 614H387L340 355ZM55 355 102 614H223L176 355Z" glyph-name="quotedbl" horiz-adv-x="356" unicode="&quot;" /><glyph d="M179 -113 266 1Q242 9 226 29Q210 49 210 80Q210 120 236.5 145Q263 170 302 170Q339 170 366.5 145Q394 120 394 74Q394 46 381.5 22Q369 -2 352 -24L282 -113ZM-33 -113 54 1Q30 9 14 29Q-2 49 -2 80Q-2 120 24.5 145Q51 170 90 170Q127 170 154.5 145Q182 120 182 74Q182 46 169.5 22Q157 -2 140 -24L70 -113Z" glyph-name="quotedblbase" horiz-adv-x="435" unicode="&#8222;" /><glyph d="M269 614 182 500Q206 492 222 472Q238 452 238 421Q238 381 211.5 356Q185 331 146 331Q109 331 81.5 356Q54 381 54 427Q54 455 66.5 479Q79 503 96 525L166 614ZM482 614 395 500Q419 492 435 472Q451 452 451 421Q451 381 424.5 356Q398 331 359 331Q322 331 294.5 356Q267 381 267 427Q267 455 279.5 479Q292 503 309 525L379 614Z" glyph-name="quotedblleft" horiz-adv-x="435" unicode="&#8220;" /><glyph d="M254 341 341 455Q317 463 301 483Q285 503 285 534Q285 574 311.5 599Q338 624 377 624Q414 624 441.5 599Q469 574 469 528Q469 500 456.5 476Q444 452 427 430L357 341ZM42 341 129 455Q105 463 89 483Q73 503 73 534Q73 574 99.5 599Q126 624 165 624Q202 624 229.5 599Q257 574 257 528Q257 500 244.5 476Q232 452 215 430L145 341Z" glyph-name="quotedblright" horiz-adv-x="435" unicode="&#8221;" /><glyph d="M269 614 182 500Q206 492 222 472Q238 452 238 421Q238 381 211.5 356Q185 331 146 331Q109 331 81.5 356Q54 381 54 427Q54 455 66.5 479Q79 503 96 525L166 614Z" glyph-name="quoteleft" horiz-adv-x="222" unicode="&#8216;" /><glyph d="M42 341 129 455Q105 463 89 483Q73 503 73 534Q73 574 99.5 599Q126 624 165 624Q202 624 229.5 599Q257 574 257 528Q257 500 244.5 476Q232 452 215 430L145 341Z" glyph-name="quoteright" horiz-adv-x="222" unicode="&#8217;" /><glyph d="M-33 -113 54 1Q30 9 14 29Q-2 49 -2 80Q-2 120 24.5 145Q51 170 90 170Q127 170 154.5 145Q182 120 182 74Q182 46 169.5 22Q157 -2 140 -24L70 -113Z" glyph-name="quotesinglbase" horiz-adv-x="222" unicode="&#8218;" /><glyph d="M55 355 102 614H230L184 355Z" glyph-name="quotesingle" horiz-adv-x="200" unicode="'" /><glyph d="M385 452 358 301Q345 308 330 311.5Q315 315 296 315Q265 315 241 301.5Q217 288 207 264L161 0H4L83 450H240L233 410Q251 433 280 446.5Q309 460 341 460Q357 460 369 457.5Q381 455 385 452Z" glyph-name="r" horiz-adv-x="365" unicode="r" /><glyph d="M313 500H167L275 650H426ZM385 452 358 301Q345 308 330 311.5Q315 315 296 315Q265 315 241 301.5Q217 288 207 264L161 0H4L83 450H240L233 410Q251 433 280 446.5Q309 460 341 460Q357 460 369 457.5Q381 455 385 452Z" glyph-name="racute" horiz-adv-x="365" unicode="&#341;" /><glyph d="M187 498 117 649H230L260 593L310 649H429L306 498ZM385 452 358 301Q345 308 330 311.5Q315 315 296 315Q265 315 241 301.5Q217 288 207 264L161 0H4L83 450H240L233 410Q251 433 280 446.5Q309 460 341 460Q357 460 369 457.5Q381 455 385 452Z" glyph-name="rcaron" horiz-adv-x="365" unicode="&#345;" /><glyph d="M-28 -236 27 -174Q8 -167 -5.5 -149.5Q-19 -132 -19 -106Q-19 -74 4.5 -53.5Q28 -33 62 -33Q94 -33 118.5 -54Q143 -75 143 -112Q143 -137 131 -160Q119 -183 96 -207L69 -236ZM385 452 358 301Q345 308 330 311.5Q315 315 296 315Q265 315 241 301.5Q217 288 207 264L161 0H4L83 450H240L233 410Q251 433 280 446.5Q309 460 341 460Q357 460 369 457.5Q381 455 385 452Z" glyph-name="rcommaaccent" horiz-adv-x="365" unicode="&#343;" /><glyph d="M419 441Q419 362 365.5 310Q312 258 238 258Q164 258 110.5 310Q57 362 57 441Q57 520 110.5 572Q164 624 238 624Q312 624 365.5 572Q419 520 419 441ZM386 441Q386 507 342.5 550Q299 593 238 593Q177 593 133.5 550Q90 507 90 441Q90 375 133.5 332Q177 289 238 289Q299 289 342.5 332Q386 375 386 441ZM244 451Q255 451 261.5 455.5Q268 460 268 469Q268 479 261.5 484Q255 489 244 489H220V451ZM231 404H220V346H161V538H253Q285 538 305 520Q325 502 325 469Q325 448 315.5 433Q306 418 290 411L332 346H266Z" glyph-name="registered" horiz-adv-x="407" unicode="&#174;" /><glyph d="M244 485Q200 485 170.5 514Q141 543 141 585Q141 630 173.5 662.5Q206 695 254 695Q298 695 327.5 665.5Q357 636 357 594Q357 549 324.5 517Q292 485 244 485ZM247 554Q262 554 273.5 565Q285 576 285 592Q285 606 275 616Q265 626 251 626Q236 626 224.5 615Q213 604 213 587Q213 574 223 564Q233 554 247 554Z" glyph-name="ring" horiz-adv-x="500" unicode="&#730;" /><glyph d="M245 642Q201 642 171 671.5Q141 701 141 743Q141 788 174 820Q207 852 254 852Q298 852 328 823Q358 794 358 752Q358 707 325 674.5Q292 642 245 642ZM247 711Q262 711 273.5 722Q285 733 285 750Q285 763 275.5 773Q266 783 251 783Q237 783 225.5 772.5Q214 762 214 745Q214 731 223.5 721Q233 711 247 711Z" glyph-name="ring.cap" horiz-adv-x="500" /><glyph d="M-1 40 22 170Q50 142 94.5 125Q139 108 173 108Q195 108 209.5 115Q224 122 224 138Q224 149 214.5 155.5Q205 162 188 167L149 178Q103 191 72 217Q41 243 41 291Q41 372 101 416Q161 460 244 460Q291 460 331 448Q371 436 401 414L378 289Q351 312 317.5 327.5Q284 343 246 343Q226 343 211 336Q196 329 196 313Q196 303 205 296.5Q214 290 228 286L281 268Q327 252 353.5 226Q380 200 380 157Q380 74 319 32Q258 -10 173 -10Q124 -10 77 3Q30 16 -1 40Z" glyph-name="s" horiz-adv-x="415" unicode="s" /><glyph d="M334 500H188L296 650H447ZM-1 40 22 170Q50 142 94.5 125Q139 108 173 108Q195 108 209.5 115Q224 122 224 138Q224 149 214.5 155.5Q205 162 188 167L149 178Q103 191 72 217Q41 243 41 291Q41 372 101 416Q161 460 244 460Q291 460 331 448Q371 436 401 414L378 289Q351 312 317.5 327.5Q284 343 246 343Q226 343 211 336Q196 329 196 313Q196 303 205 296.5Q214 290 228 286L281 268Q327 252 353.5 226Q380 200 380 157Q380 74 319 32Q258 -10 173 -10Q124 -10 77 3Q30 16 -1 40Z" glyph-name="sacute" horiz-adv-x="415" unicode="&#347;" /><glyph d="M208 498 138 649H251L281 593L331 649H450L327 498ZM-1 40 22 170Q50 142 94.5 125Q139 108 173 108Q195 108 209.5 115Q224 122 224 138Q224 149 214.5 155.5Q205 162 188 167L149 178Q103 191 72 217Q41 243 41 291Q41 372 101 416Q161 460 244 460Q291 460 331 448Q371 436 401 414L378 289Q351 312 317.5 327.5Q284 343 246 343Q226 343 211 336Q196 329 196 313Q196 303 205 296.5Q214 290 228 286L281 268Q327 252 353.5 226Q380 200 380 157Q380 74 319 32Q258 -10 173 -10Q124 -10 77 3Q30 16 -1 40Z" glyph-name="scaron" horiz-adv-x="415" unicode="&#353;" /><glyph d="M-1 40 22 170Q50 142 94.5 125Q139 108 173 108Q195 108 209.5 115Q224 122 224 138Q224 149 214.5 155.5Q205 162 188 167L149 178Q103 191 72 217Q41 243 41 291Q41 372 101 416Q161 460 244 460Q291 460 331 448Q371 436 401 414L378 289Q351 312 317.5 327.5Q284 343 246 343Q226 343 211 336Q196 329 196 313Q196 303 205 296.5Q214 290 228 286L281 268Q327 252 353.5 226Q380 200 380 157Q380 74 319 32Q258 -10 173 -10Q124 -10 77 3Q30 16 -1 40ZM136 -181H1L95 -40H231Z" glyph-name="scedilla" horiz-adv-x="415" unicode="&#351;" /><glyph d="M352 649 422 498H309L279 553L229 498H110L233 649ZM-1 40 22 170Q50 142 94.5 125Q139 108 173 108Q195 108 209.5 115Q224 122 224 138Q224 149 214.5 155.5Q205 162 188 167L149 178Q103 191 72 217Q41 243 41 291Q41 372 101 416Q161 460 244 460Q291 460 331 448Q371 436 401 414L378 289Q351 312 317.5 327.5Q284 343 246 343Q226 343 211 336Q196 329 196 313Q196 303 205 296.5Q214 290 228 286L281 268Q327 252 353.5 226Q380 200 380 157Q380 74 319 32Q258 -10 173 -10Q124 -10 77 3Q30 16 -1 40Z" glyph-name="scircumflex" horiz-adv-x="415" unicode="&#349;" /><glyph d="M53 -236 108 -174Q89 -167 75.5 -149.5Q62 -132 62 -106Q62 -74 85.5 -53.5Q109 -33 143 -33Q175 -33 199.5 -54Q224 -75 224 -112Q224 -137 212 -160Q200 -183 177 -207L150 -236ZM-1 40 22 170Q50 142 94.5 125Q139 108 173 108Q195 108 209.5 115Q224 122 224 138Q224 149 214.5 155.5Q205 162 188 167L149 178Q103 191 72 217Q41 243 41 291Q41 372 101 416Q161 460 244 460Q291 460 331 448Q371 436 401 414L378 289Q351 312 317.5 327.5Q284 343 246 343Q226 343 211 336Q196 329 196 313Q196 303 205 296.5Q214 290 228 286L281 268Q327 252 353.5 226Q380 200 380 157Q380 74 319 32Q258 -10 173 -10Q124 -10 77 3Q30 16 -1 40Z" glyph-name="scommaaccent" horiz-adv-x="415" unicode="&#537;" /><glyph d="M294 270 205 335Q189 331 179 320.5Q169 310 169 294Q169 282 177.5 273Q186 264 198 254L287 189Q303 193 313 203.5Q323 214 323 230Q323 242 314.5 251Q306 260 294 270ZM128 405Q121 415 116.5 429.5Q112 444 112 463Q112 536 171 580Q230 624 316 624Q367 624 404.5 613Q442 602 471 582L449 455Q421 478 385.5 492Q350 506 313 506Q289 506 274.5 497Q260 488 260 471Q260 461 266 452Q272 443 282 436L380 370Q417 345 440 317.5Q463 290 463 250Q463 201 436 169.5Q409 138 364 118Q371 108 375.5 94Q380 80 380 61Q380 -12 321.5 -56Q263 -100 176 -100Q125 -100 87.5 -89Q50 -78 21 -58L43 69Q71 46 107 32Q143 18 179 18Q203 18 218 27Q233 36 233 53Q233 63 226.5 72Q220 81 210 88L112 154Q75 179 52 206.5Q29 234 29 274Q29 323 56 354.5Q83 386 128 405Z" glyph-name="section" horiz-adv-x="483" unicode="&#167;" /><glyph d="M-34 -105 54 11Q30 18 13.5 38Q-3 58 -3 90Q-3 130 23.5 154.5Q50 179 90 179Q127 179 154.5 154Q182 129 182 83Q182 55 169 31Q156 7 139 -15L68 -105ZM45 352Q45 392 72 418.5Q99 445 137 445Q176 445 203 418.5Q230 392 230 352Q230 312 203 285Q176 258 137 258Q99 258 72 285Q45 312 45 352Z" glyph-name="semicolon" horiz-adv-x="223" unicode=";" /><glyph d="M-14 -105 74 11Q50 18 34 38Q18 58 18 90Q18 130 44.5 154.5Q71 179 110 179Q147 179 174.5 154Q202 129 202 83Q202 55 189 31Q176 7 160 -15L89 -105ZM57 352Q57 392 84 418.5Q111 445 149 445Q188 445 215 418.5Q242 392 242 352Q242 312 215 285Q188 258 149 258Q111 258 84 285Q57 312 57 352Z" glyph-name="semicolon.tab" horiz-adv-x="260" /><glyph d="M541 611 170 0H-2L287 476H51L75 614H541Z" glyph-name="seven" horiz-adv-x="482" unicode="7" /><glyph d="M568 611 189 0H17L315 476H71L95 614H568Z" glyph-name="seven.lt" horiz-adv-x="520" /><glyph d="M244 -10Q145 -10 85.5 51.5Q26 113 26 194Q26 251 49.5 303.5Q73 356 127 422L287 614H467L306 429Q308 430 312 430.5Q316 431 319 431Q396 422 446 368.5Q496 315 496 238Q496 131 422 60.5Q348 -10 244 -10ZM253 128Q293 128 321.5 156Q350 184 350 227Q350 261 327 284.5Q304 308 270 308Q230 308 201.5 280.5Q173 253 173 210Q173 175 196 151.5Q219 128 253 128Z" glyph-name="six" horiz-adv-x="510" unicode="6" /><glyph d="M246 -10Q147 -10 87.5 51.5Q28 113 28 194Q28 251 51.5 303.5Q75 356 129 422L289 614H469L308 429Q311 430 314.5 430.5Q318 431 321 431Q398 422 448.5 368.5Q499 315 499 238Q499 131 424.5 60.5Q350 -10 246 -10ZM255 128Q295 128 324 156Q353 184 353 227Q353 261 330 284.5Q307 308 273 308Q233 308 204 280.5Q175 253 175 210Q175 175 198 151.5Q221 128 255 128Z" glyph-name="six.lt" horiz-adv-x="520" /><glyph d="M-54 -84 322 650H464L87 -84Z" glyph-name="slash" horiz-adv-x="394" unicode="/" /><glyph d="M-50 -64 326 670H470L93 -64Z" glyph-name="slash.cap" horiz-adv-x="394" /><glyph glyph-name="space" horiz-adv-x="200" unicode=" " /><glyph glyph-name="space.tab" horiz-adv-x="260" /><glyph d="M454 130 431 0H-4L18 130H63Q76 147 84.5 167.5Q93 188 99 221L103 244H39L60 363H124L132 410Q150 508 216 566Q282 624 386 624Q429 624 462.5 615.5Q496 607 514 594L490 453Q471 466 444 475Q417 484 386 484Q340 484 314.5 458.5Q289 433 280 382L277 363H393L372 244H255L251 221Q247 195 237.5 170Q228 145 214 130Z" glyph-name="sterling" horiz-adv-x="487" unicode="&#163;" /><glyph d="M465 130 442 0H7L29 130H74Q87 147 95.5 167.5Q104 188 110 221L114 244H50L71 363H135L143 410Q161 508 227 566Q293 624 397 624Q440 624 473.5 615.5Q507 607 525 594L501 453Q482 466 455 475Q428 484 397 484Q351 484 325.5 458.5Q300 433 291 382L288 363H404L383 244H266L262 221Q258 195 248.5 170Q239 145 225 130Z" glyph-name="sterling.lt" horiz-adv-x="520" /><glyph d="M269 328 211 0H55L113 328H35L57 450H135L156 574H312L291 450H379L357 328Z" glyph-name="t" horiz-adv-x="354" unicode="t" /><glyph d="M298 158H239L211 0H55L83 158H33L52 269H103L113 328H35L57 450H135L156 574H312L291 450H379L357 328H269L259 269H318Z" glyph-name="tbar" horiz-adv-x="354" unicode="&#359;" /><glyph d="M448 487H326L403 654H526ZM269 328 211 0H55L113 328H35L57 450H135L156 574H312L291 450H379L357 328Z" glyph-name="tcaron" horiz-adv-x="354" unicode="&#357;" /><glyph d="M23 -236 78 -174Q59 -167 45.5 -149.5Q32 -132 32 -106Q32 -74 55.5 -53.5Q79 -33 113 -33Q145 -33 169.5 -54Q194 -75 194 -112Q194 -137 182 -160Q170 -183 147 -207L120 -236ZM269 328 211 0H55L113 328H35L57 450H135L156 574H312L291 450H379L357 328Z" glyph-name="tcommaaccent" horiz-adv-x="354" unicode="&#355;" /><glyph d="M210 282 190 166Q195 147 212.5 135.5Q230 124 255 124Q299 124 327.5 160Q356 196 356 251Q356 284 339 305.5Q322 327 288 327Q262 327 242.5 314Q223 301 210 282ZM167 36 133 -159H-24L118 650H275L233 412Q252 431 282 445.5Q312 460 348 460Q431 460 473 403.5Q515 347 515 267Q515 154 449 72Q383 -10 277 -10Q240 -10 210 3.5Q180 17 167 36Z" glyph-name="thorn" horiz-adv-x="533" unicode="&#254;" /><glyph d="M72 476 97 614H503V611L337 368Q379 346 405.5 307.5Q432 269 432 216Q432 112 356 51Q280 -10 172 -10Q109 -10 64.5 5.5Q20 21 -8 43L18 189Q48 157 89 139.5Q130 122 174 122Q220 122 251 143.5Q282 165 282 208Q282 248 248.5 267Q215 286 166 286Q161 286 154.5 286Q148 286 141 285V288L271 476Z" glyph-name="three" horiz-adv-x="458" unicode="3" /><glyph d="M100 476 124 614H534V611L365 368Q408 346 435 307.5Q462 269 462 216Q462 112 385.5 51Q309 -10 201 -10Q137 -10 92 5.5Q47 21 19 43L45 189Q76 157 117 139.5Q158 122 202 122Q249 122 280.5 143.5Q312 165 312 208Q312 248 278 267Q244 286 195 286Q189 286 182.5 286Q176 286 169 285V288L301 476Z" glyph-name="three.lt" horiz-adv-x="520" /><glyph d="M684 614 159 0H63L587 614ZM86 521 102 614H346V612L253 476Q275 463 290 441Q305 419 305 391Q305 331 260.5 294.5Q216 258 150 258Q113 258 86.5 266.5Q60 275 44 287L61 383Q78 365 102 355Q126 345 150 345Q175 345 189.5 356Q204 367 204 384Q204 405 187 413Q170 421 146 421Q142 421 137 421Q132 421 127 420V422L197 521ZM638 350 508 145H554L562 196H653L644 145H688L674 62H630L619 0H529L539 62H373L383 117L536 350Z" glyph-name="threequarters" horiz-adv-x="732" unicode="&#190;" /><glyph d="M76 521 92 614H336V612L245 475Q267 462 280.5 440.5Q294 419 294 391Q294 331 250 294.5Q206 258 140 258Q103 258 76.5 266.5Q50 275 33 287L51 383Q68 365 91.5 355Q115 345 140 345Q165 345 179 356Q193 367 193 384Q193 405 176.5 413Q160 421 136 421Q132 421 127 421Q122 421 117 420V422L184 521Z" glyph-name="threesuperior" horiz-adv-x="291" unicode="&#179;" /><glyph d="M325 647H412Q402 587 374.5 542Q347 497 297 497Q263 497 246.5 515Q230 533 206 533Q194 533 186 524Q178 515 175 500H88Q99 560 126.5 605Q154 650 203 650Q237 650 254 632Q271 614 294 614Q305 614 313.5 623Q322 632 325 647Z" glyph-name="tilde" horiz-adv-x="500" unicode="&#732;" /><glyph d="M331 810H417Q407 750 379.5 705Q352 660 303 660Q269 660 246 678Q223 696 200 696Q188 696 179.5 687Q171 678 169 663H82Q92 723 119.5 768Q147 813 196 813Q230 813 253 795Q276 777 299 777Q311 777 319.5 786Q328 795 331 810Z" glyph-name="tilde.cap" horiz-adv-x="500" /><glyph d="M73 541 86 614H321L308 541H231L200 360H117L149 541ZM460 407H457L411 487L388 360H308L353 614H426L474 521L557 614H636L591 360H511L533 487Z" glyph-name="trademark" horiz-adv-x="604" unicode="&#8482;" /><glyph d="M269 138H448L423 0H-29V4L197 249Q234 289 273 334.5Q312 380 312 424Q312 447 297 462Q282 477 251 477Q203 477 148.5 449Q94 421 60 396L87 554Q127 582 185.5 603Q244 624 310 624Q391 624 436 580.5Q481 537 481 472Q481 400 440 338.5Q399 277 345 220Z" glyph-name="two" horiz-adv-x="477" unicode="2" /><glyph d="M274 138H460L436 0H-25V4L202 249Q240 289 280 334.5Q320 380 320 424Q320 447 304.5 462Q289 477 257 477Q209 477 153.5 449Q98 421 64 396L92 554Q132 582 191 603Q250 624 316 624Q399 624 444 580.5Q489 537 489 472Q489 400 447 338.5Q405 277 351 220Z" glyph-name="two.lt" horiz-adv-x="520" /><glyph d="M216 356H309L293 264H22V266L156 412Q176 435 194 457Q212 479 212 498Q212 508 205.5 515Q199 522 184 522Q159 522 124.5 505Q90 488 72 477L90 580Q114 596 149 607.5Q184 619 225 619Q273 619 299 593.5Q325 568 325 531Q325 493 302.5 460Q280 427 251 394Z" glyph-name="twosuperior" horiz-adv-x="307" unicode="&#178;" /><glyph d="M512 450 433 0H276L283 39Q262 19 230 4.5Q198 -10 158 -10Q95 -10 59 26Q23 62 23 122Q23 131 24 140Q25 149 26 159L77 450H234L190 193Q189 188 188 182.5Q187 177 187 171Q187 151 198 138Q209 125 234 125Q257 125 277 139.5Q297 154 307 176L355 450Z" glyph-name="u" horiz-adv-x="514" unicode="u" /><glyph d="M374 500H228L336 650H487ZM512 450 433 0H276L283 39Q262 19 230 4.5Q198 -10 158 -10Q95 -10 59 26Q23 62 23 122Q23 131 24 140Q25 149 26 159L77 450H234L190 193Q189 188 188 182.5Q187 177 187 171Q187 151 198 138Q209 125 234 125Q257 125 277 139.5Q297 154 307 176L355 450Z" glyph-name="uacute" horiz-adv-x="514" unicode="&#250;" /><glyph d="M512 450 433 0H276L283 39Q262 19 230 4.5Q198 -10 158 -10Q95 -10 59 26Q23 62 23 122Q23 131 24 140Q25 149 26 159L77 450H234L190 193Q189 188 188 182.5Q187 177 187 171Q187 151 198 138Q209 125 234 125Q257 125 277 139.5Q297 154 307 176L355 450ZM310 488Q249 488 211 527Q173 566 186 638H294Q290 616 296.5 603.5Q303 591 320 591Q338 591 349.5 603.5Q361 616 365 638H472Q459 564 415.5 526Q372 488 310 488Z" glyph-name="ubreve" horiz-adv-x="514" unicode="&#365;" /><glyph d="M387 649 457 498H344L314 553L264 498H145L268 649ZM512 450 433 0H276L283 39Q262 19 230 4.5Q198 -10 158 -10Q95 -10 59 26Q23 62 23 122Q23 131 24 140Q25 149 26 159L77 450H234L190 193Q189 188 188 182.5Q187 177 187 171Q187 151 198 138Q209 125 234 125Q257 125 277 139.5Q297 154 307 176L355 450Z" glyph-name="ucircumflex" horiz-adv-x="514" unicode="&#251;" /><glyph d="M329 567Q329 599 351.5 621.5Q374 644 405 644Q436 644 459.5 621.5Q483 599 483 567Q483 536 459.5 513.5Q436 491 405 491Q374 491 351.5 513.5Q329 536 329 567ZM152 567Q152 599 175 621.5Q198 644 229 644Q260 644 283 621.5Q306 599 306 567Q306 536 283 513.5Q260 491 229 491Q198 491 175 513.5Q152 536 152 567ZM512 450 433 0H276L283 39Q262 19 230 4.5Q198 -10 158 -10Q95 -10 59 26Q23 62 23 122Q23 131 24 140Q25 149 26 159L77 450H234L190 193Q189 188 188 182.5Q187 177 187 171Q187 151 198 138Q209 125 234 125Q257 125 277 139.5Q297 154 307 176L355 450Z" glyph-name="udieresis" horiz-adv-x="514" unicode="&#252;" /><glyph d="M512 450 433 0H276L283 39Q262 19 230 4.5Q198 -10 158 -10Q95 -10 59 26Q23 62 23 122Q23 131 24 140Q25 149 26 159L77 450H234L190 193Q189 188 188 182.5Q187 177 187 171Q187 151 198 138Q209 125 234 125Q257 125 277 139.5Q297 154 307 176L355 450ZM370 500H237L176 650H314Z" glyph-name="ugrave" horiz-adv-x="514" unicode="&#249;" /><glyph d="M512 450 433 0H276L283 39Q262 19 230 4.5Q198 -10 158 -10Q95 -10 59 26Q23 62 23 122Q23 131 24 140Q25 149 26 159L77 450H234L190 193Q189 188 188 182.5Q187 177 187 171Q187 151 198 138Q209 125 234 125Q257 125 277 139.5Q297 154 307 176L355 450ZM441 500H318L421 650H544ZM280 500H158L260 650H383Z" glyph-name="uhungarumlaut" horiz-adv-x="514" unicode="&#369;" /><glyph d="M512 450 433 0H276L283 39Q262 19 230 4.5Q198 -10 158 -10Q95 -10 59 26Q23 62 23 122Q23 131 24 140Q25 149 26 159L77 450H234L190 193Q189 188 188 182.5Q187 177 187 171Q187 151 198 138Q209 125 234 125Q257 125 277 139.5Q297 154 307 176L355 450ZM180 504 199 612H451L432 504Z" glyph-name="umacron" horiz-adv-x="514" unicode="&#363;" /><glyph d="M-42 -161 -23 -42H318L298 -161Z" glyph-name="underscore" horiz-adv-x="381" unicode="_" /><glyph d="M282 614 219 264H117L159 497L65 455L83 560L208 614ZM670 614 146 0H50L574 614ZM469 257 485 350H729V348L636 212Q657 199 672 177Q687 155 687 127Q687 67 642.5 30.5Q598 -6 532 -6Q496 -6 469.5 2.5Q443 11 426 24L443 120Q461 101 484.5 91Q508 81 533 81Q558 81 572 92Q586 103 586 121Q586 141 569.5 149Q553 157 529 157Q525 157 519.5 157Q514 157 510 156V158L579 257Z" glyph-name="uni2153" horiz-adv-x="740" unicode="&#8531;" /><glyph d="M227 358H321L305 266H34V268L168 414Q188 437 206.5 459.5Q225 482 225 501Q225 511 218.5 518Q212 525 197 525Q172 525 137 507.5Q102 490 84 479L102 582Q125 598 160.5 609.5Q196 621 237 621Q284 621 310.5 595.5Q337 570 337 533Q337 495 314 462Q291 429 262 396ZM735 614 211 0H114L638 614ZM533 257 550 350H794V348L701 212Q722 199 737 177Q752 155 752 127Q752 67 707.5 30.5Q663 -6 597 -6Q560 -6 534 2.5Q508 11 491 24L508 120Q525 101 549 91Q573 81 598 81Q623 81 637 92Q651 103 651 121Q651 141 634 149Q617 157 594 157Q590 157 584.5 157Q579 157 575 156V158L644 257Z" glyph-name="uni2154" horiz-adv-x="805" unicode="&#8532;" /><glyph d="M278 614 216 264H114L155 497L61 455L79 560L204 614ZM667 614 142 0H46L570 614ZM542 -5Q495 -5 451.5 18Q408 41 408 94Q408 126 426 149Q444 172 472 182Q457 192 449 208Q441 224 441 243Q441 300 483 328Q525 356 575 356Q623 356 658.5 330.5Q694 305 694 259Q694 231 680 207Q666 183 641 170Q657 161 669 144Q681 127 681 103Q681 49 638.5 22Q596 -5 542 -5ZM601 251Q601 264 592 271Q583 278 569 278Q553 278 542 269.5Q531 261 531 245Q531 232 540.5 225Q550 218 563 218Q579 218 590 226.5Q601 235 601 251ZM507 104Q507 91 517 82.5Q527 74 543 74Q559 74 571.5 83.5Q584 93 584 109Q584 122 574 130Q564 138 548 138Q531 138 519 129Q507 120 507 104Z" glyph-name="uni215B" horiz-adv-x="740" unicode="&#8539;" /><glyph d="M683 614 159 0H63L587 614ZM86 521 102 614H346V612L253 476Q275 463 290 441Q305 419 305 391Q305 331 260.5 294.5Q216 258 150 258Q113 258 86.5 266.5Q60 275 44 287L61 383Q78 365 102 355Q126 345 150 345Q175 345 189.5 356Q204 367 204 384Q204 405 187 413Q170 421 146 421Q142 421 137 421Q132 421 127 420V422L197 521ZM561 -5Q514 -5 471 18Q428 41 428 94Q428 126 446 149Q464 172 491 182Q476 192 468.5 208Q461 224 461 243Q461 300 502.5 328Q544 356 594 356Q643 356 678.5 330.5Q714 305 714 259Q714 231 699.5 207Q685 183 660 170Q676 161 688.5 144Q701 127 701 103Q701 49 658 22Q615 -5 561 -5ZM620 251Q620 264 611 271Q602 278 588 278Q573 278 562 269.5Q551 261 551 245Q551 232 560 225Q569 218 582 218Q598 218 609 226.5Q620 235 620 251ZM526 104Q526 91 536 82.5Q546 74 562 74Q578 74 590.5 83.5Q603 93 603 109Q603 122 593 130Q583 138 567 138Q551 138 538.5 129Q526 120 526 104Z" glyph-name="uni215C" horiz-adv-x="753" unicode="&#8540;" /><glyph d="M685 614 161 0H65L589 614ZM306 393Q306 328 260.5 293Q215 258 151 258Q114 258 87.5 266.5Q61 275 44 288L60 379Q74 363 100 352Q126 341 153 341Q172 341 189.5 350.5Q207 360 207 381Q207 397 194 405Q181 413 156 413Q140 413 116 410Q92 407 76 401L113 614H326L311 524H181L175 490Q179 491 184.5 491.5Q190 492 194 492Q246 492 276 466Q306 440 306 393ZM563 -5Q516 -5 473 18Q430 41 430 94Q430 126 448 149Q466 172 493 182Q478 192 470.5 208Q463 224 463 243Q463 300 504.5 328Q546 356 596 356Q645 356 680.5 330.5Q716 305 716 259Q716 231 702 207Q688 183 662 170Q678 161 690.5 144Q703 127 703 103Q703 49 660 22Q617 -5 563 -5ZM623 251Q623 264 613.5 271Q604 278 591 278Q575 278 564 269.5Q553 261 553 245Q553 232 562 225Q571 218 585 218Q601 218 612 226.5Q623 235 623 251ZM528 104Q528 91 538 82.5Q548 74 564 74Q581 74 593 83.5Q605 93 605 109Q605 122 595.5 130Q586 138 570 138Q553 138 540.5 129Q528 120 528 104Z" glyph-name="uni215D" horiz-adv-x="756" unicode="&#8541;" /><glyph d="M377 612 157 264H48L214 524H81L97 614H378ZM645 614 121 0H24L549 614ZM523 -5Q476 -5 433 18Q390 41 390 94Q390 126 408 149Q426 172 453 182Q438 192 430.5 208Q423 224 423 243Q423 300 464.5 328Q506 356 556 356Q605 356 640.5 330.5Q676 305 676 259Q676 231 662 207Q648 183 622 170Q638 161 650.5 144Q663 127 663 103Q663 49 620 22Q577 -5 523 -5ZM583 251Q583 264 573.5 271Q564 278 551 278Q535 278 524 269.5Q513 261 513 245Q513 232 522 225Q531 218 545 218Q561 218 572 226.5Q583 235 583 251ZM488 104Q488 91 498 82.5Q508 74 524 74Q541 74 553 83.5Q565 93 565 109Q565 122 555.5 130Q546 138 530 138Q513 138 500.5 129Q488 120 488 104Z" glyph-name="uni215E" horiz-adv-x="716" unicode="&#8542;" /><glyph d="M276 0 283 39Q262 19 230 4.5Q198 -10 158 -10Q95 -10 59 26Q23 62 23 122Q23 131 24 140Q25 149 26 159L77 450H234L190 193Q189 188 188 182.5Q187 177 187 171Q187 151 198 138Q209 125 234 125Q257 125 277 139.5Q297 154 307 176L355 450H512L433 0Q408 -24 389.5 -43Q371 -62 371 -79Q371 -86 375 -90Q379 -94 387 -94Q396 -94 404 -90.5Q412 -87 425 -79L409 -166Q395 -174 378.5 -179.5Q362 -185 341 -185Q306 -185 285 -168Q264 -151 264 -120Q264 -83 286.5 -54.5Q309 -26 336 0Z" glyph-name="uogonek" horiz-adv-x="514" unicode="&#371;" /><glyph d="M316 485Q272 485 242.5 514Q213 543 213 585Q213 630 245.5 662.5Q278 695 326 695Q370 695 399.5 665.5Q429 636 429 594Q429 549 396.5 517Q364 485 316 485ZM319 554Q334 554 345.5 565Q357 576 357 592Q357 606 347 616Q337 626 323 626Q308 626 296.5 615Q285 604 285 587Q285 574 295 564Q305 554 319 554ZM512 450 433 0H276L283 39Q262 19 230 4.5Q198 -10 158 -10Q95 -10 59 26Q23 62 23 122Q23 131 24 140Q25 149 26 159L77 450H234L190 193Q189 188 188 182.5Q187 177 187 171Q187 151 198 138Q209 125 234 125Q257 125 277 139.5Q297 154 307 176L355 450Z" glyph-name="uring" horiz-adv-x="514" unicode="&#367;" /><glyph d="M512 450 433 0H276L283 39Q262 19 230 4.5Q198 -10 158 -10Q95 -10 59 26Q23 62 23 122Q23 131 24 140Q25 149 26 159L77 450H234L190 193Q189 188 188 182.5Q187 177 187 171Q187 151 198 138Q209 125 234 125Q257 125 277 139.5Q297 154 307 176L355 450ZM393 647H480Q470 587 442.5 542Q415 497 365 497Q331 497 314.5 515Q298 533 274 533Q262 533 254 524Q246 515 243 500H156Q167 560 194.5 605Q222 650 271 650Q305 650 322 632Q339 614 362 614Q373 614 381.5 623Q390 632 393 647Z" glyph-name="utilde" horiz-adv-x="514" unicode="&#361;" /><glyph d="M265 0H122L47 450H194L232 192L374 450H531Z" glyph-name="v" horiz-adv-x="497" unicode="v" /><glyph d="M438 450 455 206 577 450H726L488 0H358L340 228L229 0H99L47 450H194L215 206L334 450Z" glyph-name="w" horiz-adv-x="692" unicode="w" /><glyph d="M461 500H315L423 650H574ZM438 450 455 206 577 450H726L488 0H358L340 228L229 0H99L47 450H194L215 206L334 450Z" glyph-name="wacute" horiz-adv-x="692" unicode="&#7811;" /><glyph d="M473 649 543 498H430L400 553L350 498H231L354 649ZM438 450 455 206 577 450H726L488 0H358L340 228L229 0H99L47 450H194L215 206L334 450Z" glyph-name="wcircumflex" horiz-adv-x="692" unicode="&#373;" /><glyph d="M415 567Q415 599 437.5 621.5Q460 644 491 644Q522 644 545.5 621.5Q569 599 569 567Q569 536 545.5 513.5Q522 491 491 491Q460 491 437.5 513.5Q415 536 415 567ZM238 567Q238 599 261 621.5Q284 644 315 644Q346 644 369 621.5Q392 599 392 567Q392 536 369 513.5Q346 491 315 491Q284 491 261 513.5Q238 536 238 567ZM438 450 455 206 577 450H726L488 0H358L340 228L229 0H99L47 450H194L215 206L334 450Z" glyph-name="wdieresis" horiz-adv-x="692" unicode="&#7813;" /><glyph d="M438 450 455 206 577 450H726L488 0H358L340 228L229 0H99L47 450H194L215 206L334 450ZM456 500H323L262 650H400Z" glyph-name="wgrave" horiz-adv-x="692" unicode="&#7809;" /><glyph d="M534 450 334 226 452 0H293L232 120L127 0H-41L168 233L54 450H214L270 339L366 450Z" glyph-name="x" horiz-adv-x="500" unicode="x" /><glyph d="M171 -159H14L119 17L46 450H194L233 192L374 450H531Z" glyph-name="y" horiz-adv-x="497" unicode="y" /><glyph d="M171 -159H14L119 17L46 450H194L233 192L374 450H531ZM358 500H212L320 650H471Z" glyph-name="yacute" horiz-adv-x="497" unicode="&#253;" /><glyph d="M171 -159H14L119 17L46 450H194L233 192L374 450H531ZM371 649 441 498H328L298 553L248 498H129L252 649Z" glyph-name="ycircumflex" horiz-adv-x="497" unicode="&#375;" /><glyph d="M171 -159H14L119 17L46 450H194L233 192L374 450H531ZM314 567Q314 599 336.5 621.5Q359 644 390 644Q421 644 444.5 621.5Q468 599 468 567Q468 536 444.5 513.5Q421 491 390 491Q359 491 336.5 513.5Q314 536 314 567ZM137 567Q137 599 160 621.5Q183 644 214 644Q245 644 268 621.5Q291 599 291 567Q291 536 268 513.5Q245 491 214 491Q183 491 160 513.5Q137 536 137 567Z" glyph-name="ydieresis" horiz-adv-x="497" unicode="&#255;" /><glyph d="M488 104H343L325 0H169L187 104H42L59 196H204L212 244H66L83 336H180L84 614H251L316 400L456 614H629L432 336H529L512 244H367L359 196H505Z" glyph-name="yen" horiz-adv-x="573" unicode="&#165;" /><glyph d="M447 104H308L290 0H134L152 104H13L30 196H168L176 244H37L54 336H150L71 614H226L282 396L412 614H571L391 336H487L471 244H332L324 196H463Z" glyph-name="yen.lt" horiz-adv-x="520" /><glyph d="M171 -159H14L119 17L46 450H194L233 192L374 450H531ZM355 500H222L161 650H299Z" glyph-name="ygrave" horiz-adv-x="497" unicode="&#7923;" /><glyph d="M401 123 380 0H-29V4L221 328H48L70 450H468V446L225 123Z" glyph-name="z" horiz-adv-x="444" unicode="z" /><glyph d="M337 500H191L299 650H450ZM401 123 380 0H-29V4L221 328H48L70 450H468V446L225 123Z" glyph-name="zacute" horiz-adv-x="444" unicode="&#378;" /><glyph d="M210 498 140 649H253L283 593L333 649H452L329 498ZM401 123 380 0H-29V4L221 328H48L70 450H468V446L225 123Z" glyph-name="zcaron" horiz-adv-x="444" unicode="&#382;" /><glyph d="M401 123 380 0H-29V4L221 328H48L70 450H468V446L225 123ZM371 579Q371 541 344.5 518Q318 495 282 495Q246 495 219.5 518Q193 541 193 579Q193 618 219.5 641Q246 664 282 664Q318 664 344.5 641Q371 618 371 579Z" glyph-name="zdotaccent" horiz-adv-x="444" unicode="&#380;" /><glyph d="M260 -10Q153 -10 94.5 64.5Q36 139 36 251Q36 402 119.5 513Q203 624 325 624Q432 624 490.5 549.5Q549 475 549 363Q549 212 465.5 101Q382 -10 260 -10ZM266 131Q331 131 364.5 206.5Q398 282 398 363Q398 413 379 448Q360 483 319 483Q254 483 220.5 407.5Q187 332 187 251Q187 201 206 166Q225 131 266 131Z" glyph-name="zero" horiz-adv-x="557" unicode="0" /><glyph d="M234 -10Q131 -10 78.5 59.5Q26 129 26 236Q26 399 105.5 511.5Q185 624 304 624Q408 624 460 554.5Q512 485 512 378Q512 215 432.5 102.5Q353 -10 234 -10ZM242 130Q301 130 330.5 217.5Q360 305 360 383Q360 427 345.5 455.5Q331 484 296 484Q238 484 208 396.5Q178 309 178 231Q178 187 192.5 158.5Q207 130 242 130Z" glyph-name="zero.lt" horiz-adv-x="520" /></font>
</defs>
</svg>
