<svg width="198" height="128" fill="none" xmlns="http://www.w3.org/2000/svg"><path opacity=".25" d="M66.169 62.735C53.32 81 52 106 52 106l17 10.5 34.439-13.335C151.129 91.32 156.5 48 197.857 38.122L103.439 2.5s0 14.695-11.479 31.144C80.481 50.094 79.016 44.47 66.169 62.735z" fill="url(#paint0_linear)"/><path d="M113.084 95.747a2.268 2.268 0 0 1-.081.013l-33.501 4.229c-.04.248-.092.496-.154.744-1.282 3.11-3.298 4.147-5.954 3.767 0 0-17.64-2.356-19.187-2.5-1.547-.144-1.573-1.411 0-1.226l19.187 1.701c1.796.159 3.447-1.032 3.91-2.854a3.963 3.963 0 0 0-.38-2.921 3.699 3.699 0 0 0-2.254-1.787L51.306 88.49a13.654 13.654 0 0 0-7.963.215L3 98.242c1.806 7.445 8.595 14.961 12.217 21.433l7.85-5.496c3.899-2.345 8.554-3.501 12.773-1.859l25.355 9.867c4.677 1.641 9.726 1.374 14.219-.751l40.487-18.313c1.867-1.127 2.622-2.831 1.717-4.88-.793-1.8-2.659-2.823-4.534-2.496z" fill="#B6AAFF"/><path fill-rule="evenodd" clip-rule="evenodd" d="M86.164 63.642l-.4-3.514-.402 3.514a1.737 1.737 0 0 0-1.285 1.287l-3.513.402 3.513.4c.15.635.65 1.135 1.285 1.285l.4 3.514.402-3.515a1.737 1.737 0 0 0 1.285-1.285l3.513-.403-3.513-.4a1.735 1.735 0 0 0-1.285-1.286z" fill="#fff"/><path fill-rule="evenodd" clip-rule="evenodd" d="M113.638 80.465l-.451-3.953-.452 3.953a1.953 1.953 0 0 0-1.445 1.447l-3.952.453 3.952.45a1.95 1.95 0 0 0 1.445 1.446l.451 3.953.452-3.954a1.953 1.953 0 0 0 1.445-1.446l3.952-.453-3.952-.45a1.951 1.951 0 0 0-1.445-1.446z" fill="#96FCBF"/><path fill-rule="evenodd" clip-rule="evenodd" d="M56.453 48.265l-.842-7.378-.843 7.378a3.648 3.648 0 0 0-2.7 2.702l-7.375.845 7.376.84a3.643 3.643 0 0 0 2.699 2.698l.841 7.379.844-7.38a3.648 3.648 0 0 0 2.698-2.7l7.377-.846-7.377-.84a3.643 3.643 0 0 0-2.698-2.698z" fill="#FFA78B"/><path fill-rule="evenodd" clip-rule="evenodd" d="M117.278 48.684l-.711-6.238-.713 6.238a3.085 3.085 0 0 0-2.281 2.282l-6.234.715 6.234.71a3.08 3.08 0 0 0 2.281 2.281l.711 6.236.713-6.236a3.083 3.083 0 0 0 2.281-2.284l6.234-.714-6.234-.71a3.079 3.079 0 0 0-2.281-2.28z" fill="#B6AAFF"/><ellipse rx="1.04" ry="1.04" transform="matrix(1 0 0 -1 92.001 51.804)" fill="#fff"/><ellipse rx="1.56" ry="1.56" transform="matrix(1 0 0 -1 68.087 86.651)" fill="#fff"/><ellipse rx="1.04" ry="1.04" transform="matrix(1 0 0 -1 94.08 79.89)" fill="#B6AAFF"/><ellipse rx="2.08" ry="2.08" transform="matrix(1 0 0 -1 68.606 74.43)" fill="#96FCBF"/><ellipse rx="1.04" ry="1.04" transform="matrix(1 0 0 -1 96.16 70.008)" fill="#96FCBF"/><ellipse rx="1.56" ry="1.56" transform="matrix(1 0 0 -1 105.778 66.888)" fill="#FFA78B"/><ellipse rx="1.56" ry="1.56" transform="matrix(1 0 0 -1 80.564 88.212)" fill="#B6AAFF"/><ellipse rx="1.17" ry="1.17" transform="matrix(1 0 0 -1 103.049 90.942)" fill="#FFA78B"/><ellipse rx="1.04" ry="1.04" transform="matrix(1 0 0 -1 101.879 35.941)" fill="#B6AAFF"/><defs><linearGradient id="paint0_linear" x1="114" y1="13.5" x2="74.461" y2="106.483" gradientUnits="userSpaceOnUse"><stop stop-color="#B1B1B1" stop-opacity="0"/><stop stop-color="#B1B1B1" stop-opacity="0"/><stop offset=".714" stop-color="#B1B1B1"/></linearGradient></defs></svg>