<svg width="392" height="283" fill="none" xmlns="http://www.w3.org/2000/svg"><path fill-rule="evenodd" clip-rule="evenodd" d="M332.546 79.499l-1.542 13.51-1.545-13.512a6.681 6.681 0 0 1-4.945-4.948L311.002 73l13.513-1.538a6.671 6.671 0 0 1 4.943-4.939L331 53.008l1.545 13.516a6.682 6.682 0 0 1 4.943 4.943l13.514 1.55-13.512 1.537a6.673 6.673 0 0 1-4.944 4.945z" fill="#fff"/><path fill-rule="evenodd" clip-rule="evenodd" d="M275.546 243.496l-1.542 13.512-1.545-13.513a6.681 6.681 0 0 1-4.944-4.946L254.002 237l13.513-1.538a6.67 6.67 0 0 1 4.943-4.941L274 217.008l1.545 13.514a6.682 6.682 0 0 1 4.944 4.945l13.513 1.549-13.513 1.538a6.672 6.672 0 0 1-4.943 4.942z" fill="#96FCBF"/><path fill-rule="evenodd" clip-rule="evenodd" d="M29.237 62.194l-1.234 10.808-1.236-10.809a5.345 5.345 0 0 1-3.955-3.956l-10.81-1.239 10.81-1.23c.462-1.954 2-3.49 3.954-3.953L28 41.007l1.236 10.81a5.345 5.345 0 0 1 3.955 3.955L44 57.011l-10.81 1.23a5.338 5.338 0 0 1-3.954 3.953z" fill="#FFA78B"/><path fill-rule="evenodd" clip-rule="evenodd" d="M249.855 47.793l-1.85 16.217-1.854-16.218a8.017 8.017 0 0 1-5.932-5.933L224.002 40l16.216-1.846a8.007 8.007 0 0 1 5.932-5.931L248 16.01l1.853 16.214a8.02 8.02 0 0 1 5.935 5.937l16.214 1.858-16.215 1.846a8.006 8.006 0 0 1-5.932 5.928z" fill="#B6AAFF"/><circle cx="70" cy="62" r="2" fill="#fff"/><circle cx="333" cy="259" r="2" fill="#fff"/><circle cx="143" cy="261" r="4" fill="#B6AAFF"/><circle cx="355" cy="45" r="4" fill="#96FCBF"/><circle cx="119" cy="281" r="2" fill="#FFA78B"/><circle cx="390" cy="2" r="2" fill="#FFA78B"/><circle cx="2" cy="32" r="2" fill="#B6AAFF"/></svg>