<svg width="160" height="160" viewBox="0 0 160 160" fill="none" xmlns="http://www.w3.org/2000/svg">
<g clip-path="url(#clip0)">
<circle cx="80" cy="80" r="80" fill="#222222"/>
<path d="M112.499 64.0584C104.963 62.4911 98.5353 61.7075 93.2158 61.7075C87.8962 61.7075 83.962 61.8545 81.413 62.1483L80.5818 66.4092L88.8937 67.2908C106.736 69.3478 115.658 75.8615 115.658 86.8321C115.658 88.1055 115.325 90.5053 114.66 94.0316C113.995 97.4599 112.887 100.79 111.336 104.023C109.784 107.255 107.789 109.9 105.351 111.957C103.024 113.916 100.696 115.532 98.3691 116.805C96.1526 117.981 93.2712 118.813 89.7248 119.303C84.1836 120.087 76.7584 120.479 67.4492 120.479C58.2508 120.479 48.9415 119.352 39.5215 117.099L47.6671 95.3539C56.3113 97.5088 63.8474 98.5863 70.2752 98.5863C76.8138 98.5863 81.413 98.4394 84.0728 98.1455L84.904 93.4439L74.4311 92.4154C65.4543 91.5338 59.0819 89.6727 55.3139 86.8321C51.5459 83.9915 49.6619 79.9265 49.6619 74.6371C49.6619 72.6781 49.939 70.2293 50.4931 67.2908C52.7096 56.81 56.6992 49.5615 62.4621 45.5455C68.2249 41.5295 76.98 39.5215 88.7274 39.5215C100.586 39.5215 111.169 40.55 120.479 42.607L112.499 64.0584Z" fill="white"/>
<mask id="mask0" mask-type="alpha" maskUnits="userSpaceOnUse" x="0" y="0" width="160" height="160">
<path fill-rule="evenodd" clip-rule="evenodd" d="M160 80C160 124.183 124.183 160 80 160C35.8172 160 0 124.183 0 80C0 35.8172 35.8172 0 80 0C124.183 0 160 35.8172 160 80ZM112.499 64.0584C104.963 62.4911 98.5353 61.7075 93.2158 61.7075C87.8962 61.7075 83.962 61.8545 81.413 62.1483L80.5818 66.4092L88.8936 67.2908C106.736 69.3478 115.658 75.8615 115.658 86.8321C115.658 88.1055 115.325 90.5053 114.66 94.0316C114.039 97.2326 113.032 100.348 111.638 103.379L107.431 97.678L101.65 105.867L69.3755 87.8027L50.1013 69.5874C50.2112 68.8584 50.3418 68.0928 50.4931 67.2908C52.7096 56.81 56.6992 49.5615 62.4621 45.5455C68.2249 41.5295 76.98 39.5215 88.7274 39.5215C100.586 39.5215 111.169 40.55 120.479 42.607L112.499 64.0584ZM70.6915 98.6574C71.8141 99.6747 72.3028 100.324 72.1409 100.659C71.7269 101.515 67.0592 100.314 57.8586 97.9456C54.9252 97.1907 51.531 96.3172 47.6671 95.3539L39.5215 117.099C48.9415 119.352 58.2508 120.479 67.4492 120.479C76.7584 120.479 84.1836 120.087 89.7248 119.303C93.2712 118.813 96.1526 117.981 98.3691 116.805C98.3984 116.789 98.4277 116.773 98.4569 116.757L70.6915 98.6574Z" fill="#FF7070"/>
</mask>
<g mask="url(#mask0)">
</g>
<g clip-path="url(#clip1)">
<path fill-rule="evenodd" clip-rule="evenodd" d="M31.6829 62.5755C16.0117 43.7705 22.6519 34.2228 46.5843 41.2961C70.5167 48.3694 102.61 69.3649 118.282 88.17C133.953 106.975 127.313 116.523 103.38 109.449C85.6226 104.201 61.8192 88.6263 50.1996 74.6831C40.3144 62.8212 44.4967 56.7893 59.6108 61.2564C62.5868 62.1359 65.8053 63.4305 69.0905 65.0247C69.5491 64.8474 70.0171 64.6891 70.4933 64.5498C66.1875 62.3349 61.9393 60.5511 58.0701 59.4076C41.719 54.5749 37.1306 61.0881 47.8916 74.001C60.3871 88.9952 85.9263 105.684 104.921 111.298C130.09 118.737 137.137 108.708 120.589 88.8521C104.042 68.996 70.2129 46.8861 45.0436 39.4473C19.8742 32.0084 12.8279 42.0374 29.375 61.8934C29.8004 62.404 30.662 62.9705 31.2993 63.1589C31.9366 63.3472 32.1084 63.0861 31.6829 62.5755ZM98.1701 85.1892C98.1553 85.8518 98.1013 86.5107 98.0072 87.1628C102.928 94.0222 99.8401 97.3212 90.4078 94.5335C85.1574 92.9817 78.6878 89.3343 73.5397 85.2648C67.7415 81.1448 64.4456 77.7309 63.0798 74.8945C63.1885 75.9185 63.9012 77.2873 65.2715 78.9316C71.1256 85.9564 83.0757 93.7599 91.9486 96.3823C103.342 99.7495 106.548 95.2131 99.0402 86.2041C98.7592 85.8669 98.469 85.5285 98.1701 85.1892Z" fill="url(#paint0_radial)"/>
<ellipse rx="1.21475" ry="1.21351" transform="matrix(1.00009 1.69821e-08 0.000308847 -0.999906 108.858 29.542)" fill="white"/>
<ellipse rx="1.21475" ry="1.21351" transform="matrix(1.00009 1.69821e-08 0.000308847 -0.999906 102.16 102.454)" fill="black"/>
<ellipse rx="1.21475" ry="1.21351" transform="matrix(1.00009 1.69821e-08 0.000308847 -0.999906 89.9063 21.6391)" fill="#FFA78B"/>
<ellipse rx="1.21474" ry="1.21351" transform="matrix(1.00009 1.69821e-08 0.000308847 -0.999906 72.0285 22.8843)" fill="#B6AAFF"/>
<ellipse rx="1.21475" ry="1.2135" transform="matrix(1.00009 1.69821e-08 0.000308847 -0.999906 64.4622 25.0986)" fill="white"/>
<ellipse rx="1.21475" ry="1.2135" transform="matrix(1.00009 1.69821e-08 0.000308847 -0.999906 60.4691 64.5747)" fill="black"/>
<ellipse rx="1.21475" ry="1.2135" transform="matrix(1.00009 1.69821e-08 0.000308847 -0.999906 48.4369 50.29)" fill="#96FCBF"/>
<ellipse rx="1.21475" ry="1.2135" transform="matrix(1.00009 1.69821e-08 0.000308847 -0.999906 101.725 138.444)" fill="#96FCBF"/>
<ellipse rx="1.21475" ry="1.2135" transform="matrix(1.00009 1.69821e-08 0.000308847 -0.999906 56.0207 137.135)" fill="#FFA78B"/>
<ellipse rx="1.21475" ry="1.21351" transform="matrix(1.00009 1.69821e-08 0.000308847 -0.999906 39.6044 128.164)" fill="#96FCBF"/>
<ellipse rx="1.21475" ry="1.21351" transform="matrix(1.00009 1.69821e-08 0.000308847 -0.999906 10.4104 106.226)" fill="#B6AAFF"/>
<ellipse rx="1.21475" ry="1.2135" transform="matrix(1.00009 1.69821e-08 0.000308847 -0.999906 144.908 46.0517)" fill="#FFA78B"/>
<ellipse rx="2.12581" ry="2.12363" transform="matrix(1.00009 1.69821e-08 0.000308847 -0.999906 120.167 38.6573)" fill="#B6AAFF"/>
<ellipse rx="2.12582" ry="2.12364" transform="matrix(1.00009 1.69821e-08 0.000308847 -0.999906 96.1866 22.2569)" fill="#96FCBF"/>
<ellipse rx="2.12581" ry="2.12364" transform="matrix(1.00009 1.69821e-08 0.000308847 -0.999906 114.051 129.902)" fill="#B6AAFF"/>
<ellipse rx="2.12581" ry="2.12363" transform="matrix(1.00009 1.69821e-08 0.000308847 -0.999906 27.4542 102.651)" fill="#FFA78B"/>
<ellipse rx="2.12581" ry="2.12362" transform="matrix(1.00009 1.69821e-08 0.000308847 -0.999906 31.5523 118.224)" fill="white"/>
<path fill-rule="evenodd" clip-rule="evenodd" d="M130.217 57.5892L129.357 65.0933L128.501 57.5893C127.142 57.2678 126.073 56.1995 125.752 54.8423L118.239 53.9852L125.753 53.128C126.076 51.772 127.145 50.7047 128.503 50.3833L129.364 42.877L130.22 50.3834C131.577 50.7049 132.645 51.7721 132.967 53.1279L140.482 53.9852L132.967 54.8423C132.645 56.1994 131.576 57.2676 130.217 57.5892Z" fill="white"/>
<path fill-rule="evenodd" clip-rule="evenodd" d="M50.8363 37.1918L50.0592 43.9692L49.2863 37.1918C48.06 36.9015 47.095 35.9374 46.8046 34.7125L40.0193 33.9384L46.805 33.1644C47.096 31.9393 48.0617 30.975 49.2883 30.6847L50.0654 23.9076L50.8383 30.6847C52.0647 30.9751 53.0298 31.9393 53.3201 33.1644L60.1053 33.9384L53.3195 34.7125C53.0284 35.9373 52.0628 36.9015 50.8363 37.1918Z" fill="#96FCBF"/>
<path fill-rule="evenodd" clip-rule="evenodd" d="M117.361 115.182L116.668 121.229L115.978 115.182C114.884 114.923 114.023 114.063 113.764 112.97L107.711 112.28L113.764 111.589C114.024 110.496 114.886 109.636 115.98 109.377L116.673 103.331L117.363 109.377C118.457 109.636 119.318 110.496 119.577 111.589L125.63 112.28L119.576 112.97C119.317 114.063 118.455 114.923 117.361 115.182Z" fill="#FFA78B"/>
<path fill-rule="evenodd" clip-rule="evenodd" d="M79.7828 143.294L78.8693 151.26L77.9608 143.294C76.52 142.953 75.3861 141.82 75.0446 140.381L67.0694 139.471L75.0447 138.561C75.3865 137.121 76.5216 135.987 77.9634 135.646L78.8766 127.682L79.7849 135.646C81.2267 135.987 82.3614 137.121 82.7023 138.561L90.6765 139.471L82.7013 140.381C82.3589 141.82 81.224 142.953 79.7828 143.294Z" fill="#B6AAFF"/>
</g>
</g>
<defs>
<radialGradient id="paint0_radial" cx="0" cy="0" r="1" gradientUnits="userSpaceOnUse" gradientTransform="translate(79.5126 78.9913) rotate(123.67) scale(21.0693 65.9119)">
<stop offset="0.359375" stop-color="white"/>
<stop offset="0.75" stop-color="#B6AAFF"/>
<stop offset="0.875" stop-color="#FFA78B"/>
<stop offset="1" stop-color="#96FCBF"/>
</radialGradient>
<clipPath id="clip0">
<rect width="160" height="160" fill="white"/>
</clipPath>
<clipPath id="clip1">
<rect width="163.848" height="163.848" fill="white" transform="translate(-1.92432 -1.92432)"/>
</clipPath>
</defs>
</svg>
