<svg width="405" height="160" viewBox="0 0 405 160" fill="none" xmlns="http://www.w3.org/2000/svg">
<g clip-path="url(#clip0)">
<path d="M28.0567 73.0501C25.1594 72.3672 22.6882 72.0258 20.6431 72.0258C18.5979 72.0258 17.0854 72.0898 16.1054 72.2179L15.7859 74.0744L18.9814 74.4585C25.8411 75.3548 29.271 78.193 29.271 82.9731C29.271 83.5279 29.1431 84.5736 28.8875 86.1101C28.6319 87.6038 28.2058 89.0549 27.6093 90.4634C27.0128 91.8718 26.2459 93.0241 25.3085 93.9204C24.4138 94.774 23.519 95.4782 22.6243 96.033C21.7721 96.5452 20.6644 96.908 19.3009 97.1214C17.1706 97.4628 14.3159 97.6335 10.7369 97.6335C7.20057 97.6335 3.62159 97.1427 0 96.1611L3.13161 86.6862C6.45495 87.6252 9.35222 88.0947 11.8234 88.0947C14.3372 88.0947 16.1054 88.0306 17.128 87.9026L17.4475 85.854L13.4212 85.4058C9.97002 85.0217 7.52012 84.2108 6.07149 82.9731C4.62285 81.7354 3.89853 79.9642 3.89853 77.6595C3.89853 76.8059 4.00505 75.7389 4.21809 74.4585C5.07023 69.8918 6.60407 66.7335 8.81963 64.9837C11.0352 63.2338 14.4011 62.3589 18.9175 62.3589C23.4764 62.3589 27.5454 62.807 31.1244 63.7033L28.0567 73.0501Z" fill="white"/>
<path d="M61.5951 87.9026C62.7455 87.9026 63.5338 87.7746 63.9598 87.5185C64.4285 87.2197 64.7481 86.5369 64.9185 85.4699L68.9448 62.9991H79.6818L76.3585 82.0768C75.3359 88.052 73.6742 92.1492 71.3734 94.3685C69.1153 96.5452 65.238 97.6335 59.7417 97.6335C55.3532 97.6335 52.2855 96.9933 50.5386 95.713C48.7918 94.3899 47.9183 92.1065 47.9183 88.8629C47.9183 87.0703 48.1527 84.8083 48.6213 82.0768L52.0086 62.9991H62.7455L58.3996 87.9026H61.5951Z" fill="white"/>
<path d="M111.929 88.9269H105.729L104.323 96.8653H93.5863L99.466 62.9991H115.699C121.877 62.9991 124.966 65.9226 124.966 71.7697C124.966 74.4159 124.583 76.8486 123.816 79.0679C123.049 81.2873 122.218 83.0371 121.323 84.3175C120.429 85.5979 119.15 86.6862 117.489 87.5825C115.87 88.4788 114.016 88.9269 111.929 88.9269ZM113.335 74.0744C113.335 74.0317 113.356 73.9037 113.399 73.6903C113.399 72.794 112.482 72.3459 110.65 72.3459H108.605L107.263 80.2843H109.244C110.224 80.2843 110.991 80.1776 111.545 79.9642C112.099 79.7081 112.44 79.196 112.568 78.4277L113.335 74.0744Z" fill="white"/>
<path d="M161.671 83.1011H152.148L151.381 87.4545H163.205L161.543 96.8653H138.983L144.862 62.9991H167.359L164.355 72.602H153.938L153.171 76.9553H162.757L161.671 83.1011Z" fill="white"/>
<path d="M203.995 62.9991C210.216 62.9991 213.326 65.8159 213.326 71.4496C213.326 74.0104 212.815 76.6779 211.793 79.452C210.77 82.1835 209.044 84.2322 206.616 85.5979L210.259 96.8653H198.307L195.879 87.0063H194.345L192.619 96.8653H181.882L187.762 62.9991H203.995ZM201.631 74.0744C201.631 74.0317 201.652 73.8183 201.695 73.4342C201.695 72.7087 200.566 72.3459 198.307 72.3459H196.901L195.879 78.2357H197.924C199.884 78.2357 200.992 77.5955 201.247 76.3151L201.631 74.0744Z" fill="white"/>
<path d="M248.714 96.8653L242.131 84.1895H241.875L239.639 96.8653H228.902L234.781 62.9991H243.473L250.12 75.6109H250.503L252.676 62.9991H263.349L257.406 96.8653H248.714Z" fill="white"/>
<mask id="mask0" mask-type="alpha" maskUnits="userSpaceOnUse" x="213" y="-4" width="168" height="168">
<ellipse cx="297.067" cy="79.9965" rx="83.5396" ry="83.682" fill="white"/>
</mask>
<g mask="url(#mask0)">
<path fill-rule="evenodd" clip-rule="evenodd" d="M305.325 67.2603C297.308 62.047 287.558 62.2986 281.435 67.2962C280.583 67.9917 279.936 68.756 279.53 69.5971C279.693 69.401 279.883 69.2141 280.1 69.0374C286.271 64.0231 296.099 63.7743 304.183 69.0107C312.33 74.2875 316.118 83.459 313.961 91.1793C313.874 91.4878 313.763 91.7683 313.628 92.0222C314.258 91.3114 314.718 90.4092 315.015 89.3407C317.159 81.6489 313.404 72.5138 305.325 67.2603Z" fill="white"/>
<path fill-rule="evenodd" clip-rule="evenodd" d="M247.619 62.1415C231.568 42.8513 238.37 33.0642 262.869 40.3193C287.369 47.5744 320.231 69.1077 336.282 88.398C352.333 107.688 345.53 117.475 321.031 110.22C302.828 104.83 278.419 88.8333 266.5 74.5088C256.35 62.3102 260.647 56.1134 276.154 60.7057C279.257 61.6247 282.618 62.9838 286.047 64.6589C286.443 64.5084 286.847 64.3716 287.256 64.2488C282.948 62.0375 278.699 60.2556 274.825 59.1085C258.248 54.1995 253.603 60.8134 264.508 73.9189C277.181 89.1502 303.088 106.11 322.36 111.817C347.929 119.389 355.079 109.185 338.274 88.9879C321.469 68.7909 287.109 46.2938 261.54 38.7221C235.972 31.1503 228.821 41.3545 245.626 61.5515C245.993 61.9926 246.737 62.4822 247.287 62.6451C247.837 62.8081 247.986 62.5826 247.619 62.1415ZM315.594 85.4497C315.576 86.0205 315.53 86.5885 315.454 87.1517C320.76 94.3863 317.615 97.8913 307.802 94.9854C302.006 93.2689 294.766 89.0725 289.293 84.5123C284.483 80.9596 281.55 77.9393 280.116 75.3665C280.36 76.3314 281.054 77.5428 282.23 78.9565C288.13 86.0481 300.18 93.9318 309.131 96.5826C320.652 99.9944 323.888 95.3992 316.301 86.2809C316.071 86.0046 315.835 85.7274 315.594 85.4497Z" fill="white"/>
<path d="M280.107 69.0399C286.278 64.0211 296.104 63.7686 304.185 69.0042C312.327 74.2801 316.112 83.4541 313.952 91.1785C312.235 97.316 300.617 92.3936 292.257 86.9761C284.055 81.6613 275.333 72.9225 280.107 69.0399Z" fill="white"/>
<ellipse rx="1.23933" ry="1.23868" transform="matrix(0.999803 0.000404282 -9.49626e-05 -1.0002 326.494 28.4559)" fill="white"/>
<ellipse rx="1.23933" ry="1.23869" transform="matrix(0.999803 0.000404282 -9.49626e-05 -1.0002 319.664 102.932)" fill="white"/>
<ellipse rx="1.23932" ry="1.23868" transform="matrix(0.999803 0.000404282 -9.49626e-05 -1.0002 307.169 20.3836)" fill="white"/>
<ellipse rx="1.23932" ry="1.23868" transform="matrix(0.999803 0.000404282 -9.49626e-05 -1.0002 288.938 21.6551)" fill="white"/>
<ellipse rx="1.23933" ry="1.23868" transform="matrix(0.999803 0.000404282 -9.49626e-05 -1.0002 281.223 23.9173)" fill="white"/>
<ellipse rx="1.23932" ry="1.23868" transform="matrix(0.999803 0.000404282 -9.49626e-05 -1.0002 277.151 64.2401)" fill="white"/>
<ellipse rx="1.23932" ry="1.23868" transform="matrix(0.999803 0.000404282 -9.49626e-05 -1.0002 264.882 49.6488)" fill="white"/>
<ellipse rx="1.23933" ry="1.23868" transform="matrix(0.999803 0.000404282 -9.49626e-05 -1.0002 319.22 139.695)" fill="white"/>
<ellipse rx="1.23933" ry="1.23868" transform="matrix(0.999803 0.000404282 -9.49626e-05 -1.0002 272.615 138.357)" fill="white"/>
<ellipse rx="1.23932" ry="1.23868" transform="matrix(0.999803 0.000404282 -9.49626e-05 -1.0002 255.875 129.194)" fill="white"/>
<ellipse rx="1.23933" ry="1.23868" transform="matrix(0.999803 0.000404282 -9.49626e-05 -1.0002 226.105 106.786)" fill="white"/>
<ellipse rx="1.23932" ry="1.23868" transform="matrix(0.999803 0.000404282 -9.49626e-05 -1.0002 363.254 45.3197)" fill="white"/>
<ellipse rx="2.16883" ry="2.16769" transform="matrix(0.999803 0.000404282 -9.49626e-05 -1.0002 338.026 37.7664)" fill="white"/>
<ellipse rx="2.16882" ry="2.16769" transform="matrix(0.999803 0.000404282 -9.49626e-05 -1.0002 313.573 21.0144)" fill="white"/>
<ellipse rx="2.16882" ry="2.16769" transform="matrix(0.999803 0.000404282 -9.49626e-05 -1.0002 331.789 130.969)" fill="white"/>
<ellipse rx="2.16882" ry="2.16768" transform="matrix(0.999803 0.000404282 -9.49626e-05 -1.0002 243.485 103.133)" fill="white"/>
<ellipse rx="2.16882" ry="2.16768" transform="matrix(0.999803 0.000404282 -9.49626e-05 -1.0002 247.664 119.041)" fill="white"/>
<path fill-rule="evenodd" clip-rule="evenodd" d="M348.276 57.1041L347.402 64.7653L346.526 57.1035C345.14 56.7746 344.049 55.6832 343.721 54.2972L336.057 53.4189L343.721 52.5467C344.05 51.1625 345.14 50.0734 346.525 49.7458L347.399 42.0816L348.276 49.7466C349.66 50.0754 350.75 51.1653 351.079 52.5497L358.744 53.4281L351.08 54.3002C350.752 55.6858 349.662 56.7763 348.276 57.1041Z" fill="white"/>
<path fill-rule="evenodd" clip-rule="evenodd" d="M267.33 36.2693L266.54 43.1887L265.749 36.2687C264.498 35.9717 263.513 34.9868 263.217 33.7358L256.296 32.9427L263.217 32.1551C263.513 30.9046 264.497 29.9206 265.748 29.6247L266.538 22.7049L267.329 29.6253C268.58 29.9223 269.565 30.9071 269.861 32.1578L276.782 32.951L269.862 33.7385C269.565 34.9892 268.581 35.9734 267.33 36.2693Z" fill="white"/>
<path fill-rule="evenodd" clip-rule="evenodd" d="M335.166 115.933L334.461 122.106L333.755 115.932C332.639 115.667 331.761 114.788 331.496 113.672L325.322 112.965L331.496 112.262C331.761 111.147 332.639 110.269 333.755 110.005L334.459 103.831L335.165 110.005C336.281 110.27 337.16 111.149 337.424 112.265L343.599 112.972L337.424 113.675C337.16 114.791 336.282 115.669 335.166 115.933Z" fill="white"/>
<path fill-rule="evenodd" clip-rule="evenodd" d="M296.847 144.647L295.919 152.781L294.989 144.646C293.519 144.297 292.362 143.14 292.013 141.671L283.879 140.739L292.013 139.813C292.361 138.343 293.518 137.186 294.988 136.838L295.917 128.706L296.846 136.838C298.317 137.187 299.475 138.345 299.823 139.816L307.957 140.748L299.823 141.674C299.474 143.143 298.317 144.3 296.847 144.647Z" fill="white"/>
</g>
<path d="M344.397 63.063V82.3968H344.652L352.066 63.063H363.634L349.957 96.9292H334.427L332.573 63.063H344.397Z" fill="white"/>
<path d="M394.013 96.9292L393.757 91.7436H385.704L383.723 96.9292H372.667L386.855 63.063H402.704L405.197 96.9292H394.013ZM393.757 82.5889V72.8579H392.862L389.092 82.5889H393.757Z" fill="white"/>
</g>
<defs>
<clipPath id="clip0">
<rect width="405" height="160" fill="white"/>
</clipPath>
</defs>
</svg>
