<svg width="160" height="160" viewBox="0 0 160 160" fill="none" xmlns="http://www.w3.org/2000/svg">
<g clip-path="url(#clip0)">
<path fill-rule="evenodd" clip-rule="evenodd" d="M87.9112 67.8139C80.2388 62.8311 70.9053 63.0767 65.0408 67.8603C64.2258 68.525 63.6072 69.2553 63.2183 70.0588C63.3738 69.8718 63.5548 69.6936 63.7624 69.5251C69.6724 64.7254 79.0813 64.4825 86.8177 69.4874C94.6138 74.5309 98.2363 83.3022 96.1667 90.6883C96.084 90.9837 95.9772 91.2523 95.848 91.4954C96.4514 90.8152 96.8915 89.952 97.1771 88.9299C99.2329 81.5712 95.6428 72.835 87.9112 67.8139Z" fill="white"/>
<path fill-rule="evenodd" clip-rule="evenodd" d="M32.8898 63.0056C17.6139 44.675 24.0855 35.3665 47.4173 42.2623C70.749 49.158 102.035 69.6257 117.311 87.9564C132.587 106.287 126.115 115.595 102.783 108.7C85.4812 103.586 62.2909 88.4118 50.9715 74.8288C41.3458 63.2782 45.4172 57.403 60.1378 61.7537C63.0163 62.6045 66.1277 63.8541 69.3043 65.3922C69.7801 65.2069 70.2664 65.0424 70.7616 64.8989C66.5248 62.716 62.3437 60.9582 58.5373 59.8332C42.5318 55.1027 38.0385 61.4779 48.574 74.1202C60.8033 88.795 85.7967 105.127 104.384 110.62C129 117.896 135.894 108.087 119.708 88.665C103.522 69.2426 70.4335 47.6173 45.8168 40.3417C21.2001 33.0662 14.3066 42.8746 30.4923 62.297C30.9343 62.8274 31.8292 63.4159 32.4913 63.6116C33.1533 63.8072 33.3317 63.5359 32.8898 63.0056ZM97.7447 85.008C97.7317 85.6974 97.6754 86.3829 97.5747 87.0606C102.263 93.6666 99.247 96.8329 90.1155 94.1341C85.1779 92.6748 79.1317 89.3081 74.2147 85.5092C68.0783 81.2163 64.6855 77.6966 63.3787 74.8022C63.4222 75.8246 64.1239 77.2289 65.5457 78.935C71.2896 85.8275 83.013 93.4824 91.716 96.0546C102.88 99.3542 106.024 94.9093 98.665 86.0792C98.3685 85.7234 98.0615 85.3662 97.7447 85.008Z" fill="white"/>
<path d="M63.7619 69.5261C69.6719 64.7264 79.0807 64.4835 86.8172 69.4884C94.6133 74.5319 98.2358 83.3032 96.1662 90.6893C94.5219 96.558 83.3979 91.853 75.3932 86.6743C67.5403 81.5936 59.1897 73.2392 63.7619 69.5261Z" fill="white"/>
<ellipse rx="1.18628" ry="1.18494" transform="matrix(1.00004 -2.36419e-08 0.000308899 -0.999958 108.18 30.7277)" fill="white"/>
<ellipse rx="1.18628" ry="1.18494" transform="matrix(1.00004 -2.36419e-08 0.000308899 -0.999958 101.639 101.927)" fill="white"/>
<ellipse rx="1.18628" ry="1.18494" transform="matrix(1.00004 -2.36419e-08 0.000308899 -0.999958 89.6738 23.0099)" fill="white"/>
<ellipse rx="1.18627" ry="1.18494" transform="matrix(1.00004 -2.36419e-08 0.000308899 -0.999958 72.2159 24.2262)" fill="white"/>
<ellipse rx="1.18628" ry="1.18494" transform="matrix(1.00004 -2.36419e-08 0.000308899 -0.999958 64.8273 26.3888)" fill="white"/>
<ellipse rx="1.18628" ry="1.18494" transform="matrix(1.00004 -2.36419e-08 0.000308899 -0.999958 60.928 64.9372)" fill="white"/>
<ellipse rx="1.18628" ry="1.18494" transform="matrix(1.00004 -2.36419e-08 0.000308899 -0.999958 49.1784 50.988)" fill="white"/>
<ellipse rx="1.18628" ry="1.18494" transform="matrix(1.00004 -2.36419e-08 0.000308899 -0.999958 101.215 137.072)" fill="white"/>
<ellipse rx="1.18628" ry="1.18494" transform="matrix(1.00004 -2.36419e-08 0.000308899 -0.999958 56.584 135.793)" fill="white"/>
<ellipse rx="1.18628" ry="1.18494" transform="matrix(1.00004 -2.36419e-08 0.000308899 -0.999958 40.5534 127.033)" fill="white"/>
<ellipse rx="1.18628" ry="1.18494" transform="matrix(1.00004 -2.36419e-08 0.000308899 -0.999958 12.0451 105.611)" fill="white"/>
<ellipse rx="1.18628" ry="1.18494" transform="matrix(1.00004 -2.36419e-08 0.000308899 -0.999958 143.383 46.8493)" fill="white"/>
<ellipse rx="2.07599" ry="2.07364" transform="matrix(1.00004 -2.36419e-08 0.000308899 -0.999958 119.224 39.6281)" fill="white"/>
<ellipse rx="2.07599" ry="2.07365" transform="matrix(1.00004 -2.36419e-08 0.000308899 -0.999958 95.8066 23.6135)" fill="white"/>
<ellipse rx="2.07598" ry="2.07365" transform="matrix(1.00004 -2.36419e-08 0.000308899 -0.999958 113.251 128.731)" fill="white"/>
<ellipse rx="2.07599" ry="2.07364" transform="matrix(1.00004 -2.36419e-08 0.000308899 -0.999958 28.6885 102.119)" fill="white"/>
<ellipse rx="2.07598" ry="2.07364" transform="matrix(1.00004 -2.36419e-08 0.000308899 -0.999958 32.6904 117.326)" fill="white"/>
<path fill-rule="evenodd" clip-rule="evenodd" d="M129.038 58.1159L128.198 65.4434L127.362 58.116C126.035 57.802 124.991 56.7586 124.678 55.4332L117.341 54.5962L124.679 53.7591C124.994 52.4351 126.038 51.3931 127.364 51.0792L128.204 43.749L129.04 51.0793C130.366 51.3933 131.409 52.4352 131.723 53.759L139.061 54.5962L131.724 55.4332C131.409 56.7585 130.365 57.8018 129.038 58.1159Z" fill="white"/>
<path fill-rule="evenodd" clip-rule="evenodd" d="M51.5214 38.1977L50.7625 44.8159L50.0078 38.1977C48.8103 37.9142 47.8679 36.9727 47.5844 35.7766L40.9585 35.0207L47.5848 34.2648C47.869 33.0686 48.812 32.127 50.0098 31.8435L50.7686 25.2255L51.5233 31.8435C52.7209 32.127 53.6633 33.0686 53.9468 34.2648L60.5726 35.0207L53.9463 35.7766C53.662 36.9727 52.7191 37.9142 51.5214 38.1977Z" fill="white"/>
<path fill-rule="evenodd" clip-rule="evenodd" d="M116.483 114.356L115.806 120.26L115.133 114.356C114.065 114.103 113.224 113.263 112.971 112.196L107.06 111.522L112.971 110.847C113.225 109.78 114.066 108.94 115.135 108.687L115.812 102.783L116.485 108.687C117.553 108.94 118.394 109.78 118.647 110.847L124.558 111.522L118.647 112.196C118.393 113.263 117.552 114.103 116.483 114.356Z" fill="white"/>
<path fill-rule="evenodd" clip-rule="evenodd" d="M79.788 141.808L78.8961 149.587L78.0089 141.808C76.6019 141.474 75.4946 140.368 75.1612 138.963L67.3733 138.075L75.1613 137.186C75.495 135.78 76.6035 134.673 78.0114 134.34L78.9032 126.562L79.7901 134.339C81.1981 134.673 82.3061 135.78 82.639 137.186L90.4259 138.075L82.638 138.963C82.3036 140.368 81.1954 141.475 79.788 141.808Z" fill="white"/>
</g>
<defs>
<clipPath id="clip0">
<rect width="160" height="160" fill="white"/>
</clipPath>
</defs>
</svg>
