<svg width="160" height="160" viewBox="0 0 160 160" fill="none" xmlns="http://www.w3.org/2000/svg">
<path fill-rule="evenodd" clip-rule="evenodd" d="M160 80C160 124.183 124.183 160 80 160C35.8172 160 0 124.183 0 80C0 35.8172 35.8172 0 80 0C124.183 0 160 35.8172 160 80ZM69.3031 65.3918C67.7536 65.9956 66.3153 66.8209 65.0408 67.8604C64.2258 68.5252 63.6072 69.2555 63.2183 70.0589C63.3738 69.8719 63.5548 69.6938 63.7624 69.5252C69.6724 64.7255 79.0813 64.4826 86.8177 69.4875C94.6138 74.531 98.2363 83.3023 96.1667 90.6884C96.084 90.9838 95.9772 91.2524 95.848 91.4955C95.977 91.2527 96.0835 90.9845 96.1662 90.6895C98.2357 83.3033 94.6132 74.5321 86.8171 69.4886C79.0807 64.4837 69.6719 64.7266 63.7618 69.5263C61.9898 70.9653 62.1589 73.1016 63.4878 75.4742C63.738 76.4095 64.4136 77.5767 65.5457 78.9351C71.2895 85.8276 83.013 93.4826 91.716 96.0547C102.88 99.3543 106.024 94.9094 98.665 86.0793C98.3685 85.7236 98.0617 85.3666 97.745 85.0085C97.8649 78.6563 94.3036 71.9654 87.9112 67.814C82.4181 64.2466 76.0736 63.3592 70.7603 64.8984C66.5239 62.7158 62.3433 60.9582 58.5373 59.8333C42.5317 55.1028 38.0385 61.478 48.574 74.1203C60.8032 88.7951 85.7967 105.127 104.384 110.62C105.453 110.936 106.489 111.22 107.491 111.473L107.06 111.522L108.239 111.656C109.965 112.071 111.588 112.388 113.104 112.612C113.453 113.478 114.208 114.137 115.133 114.356L115.806 120.26L116.483 114.356C117.257 114.173 117.911 113.683 118.309 113.022C130.938 112.965 132.231 103.693 119.708 88.6651C104.65 70.5961 74.963 50.6206 51.0779 42.0663L51.5214 38.1981C52.7191 37.9146 53.6621 36.9731 53.9463 35.7769L60.5727 35.021L53.9468 34.2652C53.6633 33.0689 52.7209 32.1273 51.5233 31.8438L50.7686 25.2258L50.0098 31.8438C48.812 32.1274 47.869 33.0689 47.5848 34.2652L40.9585 35.021L47.5844 35.7769C47.8679 36.9731 48.8103 37.9146 50.0078 38.1981L50.4224 41.8339C48.8594 41.2854 47.3222 40.7868 45.8167 40.3419C21.2 33.0663 14.3065 42.8747 30.4923 62.2971C30.9342 62.8275 31.8292 63.416 32.4912 63.6117C33.1533 63.8074 33.3317 63.536 32.8897 63.0057C17.6138 44.6751 24.0855 35.3666 47.4172 42.2624C48.4582 42.5701 49.5151 42.9048 50.5856 43.2651L50.7625 44.8163L50.9271 43.3807C73.7982 51.1734 102.789 70.5306 117.311 87.9565C128.185 101.006 128.039 109.483 118.635 110.797C118.367 109.754 117.536 108.936 116.485 108.687L115.812 102.783L115.135 108.687C114.073 108.939 113.236 109.769 112.977 110.826C110.057 110.541 106.652 109.843 102.783 108.7C85.4811 103.586 62.2909 88.4119 50.9715 74.8289C41.3458 63.2784 45.4172 57.4031 60.1378 61.7539C63.0159 62.6045 66.1269 63.8539 69.3031 65.3918ZM95.848 91.4955C96.4514 90.8154 96.8915 89.9521 97.1771 88.93C97.3487 88.3156 97.481 87.6916 97.5748 87.061C102.263 93.6668 99.2469 96.833 90.1155 94.1342C86.7083 93.1272 82.7733 91.212 79.0456 88.8733C85.999 92.7557 93.7847 95.3812 95.848 91.4955ZM108.18 29.5429C108.836 29.5429 109.367 30.0734 109.366 30.7278C109.366 31.3822 108.835 31.9127 108.18 31.9127C107.525 31.9127 106.994 31.3822 106.994 30.7278C106.994 30.0734 107.525 29.5429 108.18 29.5429ZM102.826 101.927C102.826 101.273 102.295 100.742 101.64 100.742C100.985 100.742 100.453 101.273 100.453 101.927C100.453 102.581 100.984 103.112 101.639 103.112C102.294 103.112 102.826 102.581 102.826 101.927ZM89.6741 21.8253C90.3293 21.8253 90.8603 22.3558 90.8601 23.0102C90.8599 23.6646 90.3286 24.1951 89.6734 24.1951C89.0182 24.1951 88.4872 23.6646 88.4874 23.0102C88.4876 22.3558 89.0189 21.8253 89.6741 21.8253ZM73.4021 24.2262C73.4023 23.5718 72.8713 23.0413 72.2161 23.0413C71.561 23.0413 71.0297 23.5718 71.0295 24.2262C71.0293 24.8806 71.5602 25.4111 72.2154 25.4111C72.8706 25.4111 73.4019 24.8806 73.4021 24.2262ZM64.8277 25.2038C65.4829 25.2038 66.0138 25.7343 66.0136 26.3887C66.0134 27.0431 65.4821 27.5736 64.8269 27.5736C64.1718 27.5736 63.6408 27.0431 63.641 26.3887C63.6412 25.7343 64.1725 25.2038 64.8277 25.2038ZM62.1143 64.9372C62.1145 64.2828 61.5835 63.7523 60.9284 63.7523C60.2732 63.7523 59.7419 64.2828 59.7417 64.9372C59.7415 65.5916 60.2724 66.1221 60.9276 66.1221C61.5828 66.1221 62.1141 65.5916 62.1143 64.9372ZM49.1787 49.8031C49.8339 49.8031 50.3649 50.3336 50.3647 50.9879C50.3645 51.6423 49.8332 52.1728 49.178 52.1728C48.5228 52.1728 47.9919 51.6423 47.9921 50.9879C47.9923 50.3336 48.5236 49.8031 49.1787 49.8031ZM102.401 137.072C102.401 136.418 101.87 135.887 101.215 135.887C100.56 135.887 100.029 136.418 100.029 137.072C100.028 137.726 100.559 138.257 101.214 138.257C101.87 138.257 102.401 137.726 102.401 137.072ZM56.5843 134.608C57.2395 134.608 57.7705 135.138 57.7703 135.793C57.7701 136.447 57.2388 136.978 56.5836 136.978C55.9284 136.978 55.3974 136.447 55.3976 135.793C55.3978 135.138 55.9291 134.608 56.5843 134.608ZM41.7396 127.033C41.7398 126.378 41.2089 125.848 40.5537 125.848C39.8985 125.848 39.3672 126.378 39.367 127.033C39.3668 127.687 39.8978 128.218 40.5529 128.218C41.2081 128.218 41.7394 127.687 41.7396 127.033ZM12.0455 104.426C12.7006 104.426 13.2316 104.956 13.2314 105.611C13.2312 106.265 12.6999 106.795 12.0447 106.795C11.3895 106.795 10.8586 106.265 10.8588 105.611C10.859 104.956 11.3903 104.426 12.0455 104.426ZM144.569 46.8493C144.57 46.1949 144.039 45.6644 143.384 45.6644C142.728 45.6644 142.197 46.1949 142.197 46.8493C142.197 47.5037 142.728 48.0342 143.383 48.0342C144.038 48.0342 144.569 47.5037 144.569 46.8493ZM119.225 37.5549C120.371 37.5549 121.3 38.4832 121.3 39.6284C121.3 40.7736 120.37 41.702 119.223 41.702C118.077 41.702 117.147 40.7736 117.148 39.6284C117.148 38.4832 118.078 37.5549 119.225 37.5549ZM97.8826 23.6136C97.8829 22.4684 96.9537 21.54 95.8071 21.54C94.6605 21.54 93.7308 22.4684 93.7304 23.6136C93.7301 24.7588 94.6593 25.6872 95.8058 25.6872C96.9524 25.6872 97.8822 24.7588 97.8826 23.6136ZM113.252 126.657C114.399 126.657 115.328 127.586 115.327 128.731C115.327 129.876 114.397 130.804 113.251 130.804C112.104 130.804 111.175 129.876 111.175 128.731C111.176 127.586 112.105 126.657 113.252 126.657ZM30.7646 102.119C30.7649 100.974 29.8357 100.046 28.6892 100.046C27.5426 100.046 26.6128 100.974 26.6124 102.119C26.6121 103.264 27.5413 104.193 28.6879 104.193C29.8345 104.193 30.7642 103.264 30.7646 102.119ZM32.691 115.253C33.8376 115.253 34.7668 116.181 34.7664 117.326C34.7661 118.472 33.8363 119.4 32.6897 119.4C31.5431 119.4 30.6139 118.472 30.6143 117.326C30.6146 116.181 31.5444 115.253 32.691 115.253ZM129.038 58.1162L128.198 65.4436L127.362 58.1163C126.035 57.8023 124.991 56.7589 124.678 55.4334L117.341 54.5965L124.679 53.7594C124.994 52.4354 126.038 51.3934 127.364 51.0795L128.204 43.7493L129.04 51.0796C130.366 51.3936 131.409 52.4355 131.723 53.7593L139.061 54.5964L131.723 55.4335C131.409 56.7588 130.365 57.8021 129.038 58.1162ZM78.896 149.587L79.7879 141.808C81.1953 141.475 82.3035 140.368 82.6379 138.963L90.4258 138.074L82.6389 137.186C82.3059 135.78 81.198 134.673 79.79 134.339L78.9031 126.562L78.0113 134.339C76.6034 134.673 75.4949 135.78 75.1611 137.186L67.3732 138.074L75.1611 138.963C75.4945 140.368 76.6018 141.474 78.0088 141.808L78.896 149.587Z" fill="black"/>
</svg>
