<svg width="160" height="160" viewBox="0 0 160 160" fill="none" xmlns="http://www.w3.org/2000/svg">
<path fill-rule="evenodd" clip-rule="evenodd" d="M80 160C124.183 160 160 124.183 160 80C160 35.8172 124.183 0 80 0C35.8172 0 0 35.8172 0 80C0 124.183 35.8172 160 80 160ZM93.2158 61.7075C98.5353 61.7075 104.963 62.4911 112.499 64.0584L120.479 42.607C111.169 40.55 100.586 39.5215 88.7274 39.5215C76.98 39.5215 68.2249 41.5295 62.4621 45.5455C62.2699 45.6795 62.0797 45.817 61.8914 45.9581C57.9646 44.1306 54.1019 42.5266 50.3775 41.1945L50.8363 37.1936C52.0629 36.9033 53.0286 35.9389 53.3196 34.7139L60.1053 33.9398L53.32 33.1657C53.0296 31.9409 52.0646 30.9769 50.8384 30.6865L50.0654 23.909L49.2883 30.6865C48.0619 30.9768 47.0963 31.9409 46.8051 33.1657L40.0194 33.9398L46.8045 34.7139C47.0947 35.939 48.0599 36.9033 49.2864 37.1936L49.7159 40.9602C48.1305 40.4045 46.5711 39.899 45.0436 39.4476C19.8743 32.0087 12.8279 42.0377 29.375 61.8937C29.8005 62.4043 30.662 62.9708 31.2994 63.1592C31.9367 63.3476 32.1084 63.0864 31.683 62.5759C16.0117 43.7708 22.652 34.2231 46.5843 41.2964C47.6647 41.6157 48.7617 41.9634 49.873 42.3379L50.0592 43.9706L50.2325 42.4598C53.6861 43.6385 57.2755 45.0739 60.9332 46.7219C57.7275 49.435 55.1374 53.2705 53.1631 58.2284C40.9034 56.0656 38.2995 62.491 47.8916 74.0013C48.471 74.6965 49.0784 75.3954 49.7119 76.0966C50.0328 80.6801 51.9002 84.2586 55.3139 86.8321C57.9443 88.8151 61.8437 90.3207 67.0123 91.349C70.4269 93.8539 74.0077 96.2614 77.6519 98.5044C75.5536 98.559 73.0947 98.5863 70.2752 98.5863C63.8474 98.5863 56.3113 97.5089 47.6671 95.3539L39.5215 117.099C48.9415 119.352 58.2508 120.479 67.4492 120.479C76.7584 120.479 84.1836 120.087 89.7248 119.303C93.2712 118.813 96.1526 117.981 98.3691 116.805C100.696 115.532 103.024 113.916 105.351 111.957C105.506 111.826 105.66 111.692 105.811 111.557C106.656 111.796 107.479 112.016 108.281 112.216L107.711 112.281L109.306 112.463C110.922 112.839 112.447 113.131 113.878 113.341C114.226 114.256 115.011 114.954 115.978 115.183L116.668 121.229L117.361 115.183C118.177 114.99 118.864 114.462 119.268 113.753C132.078 113.642 133.357 104.172 120.59 88.8524C118.967 86.9052 117.178 84.9364 115.247 82.9618C113.833 76.6469 108.765 72.1575 100.042 69.4938C96.6411 66.8344 93.0751 64.2344 89.4095 61.7363C90.5878 61.7171 91.8566 61.7075 93.2158 61.7075ZM119.577 111.59L119.653 111.599C129.287 110.245 129.433 101.551 118.282 88.1703C117.428 87.1459 116.526 86.1151 115.578 85.0803C115.631 85.6511 115.658 86.235 115.658 86.8321C115.658 88.1055 115.325 90.5053 114.66 94.0316C113.995 97.4599 112.887 100.79 111.336 104.023C110.146 106.501 108.695 108.635 106.984 110.422C109.404 111.009 111.615 111.401 113.608 111.608L113.764 111.59C114.024 110.497 114.886 109.637 115.98 109.378L116.673 103.332L117.363 109.378C118.457 109.637 119.318 110.497 119.577 111.59ZM81.413 62.1483C82.9831 61.9673 85.0788 61.8421 87.7001 61.7725C91.0569 64.0303 94.3315 66.3804 97.4691 68.787C94.8858 68.1508 92.0273 67.652 88.8937 67.2908L80.5818 66.4092L81.413 62.1483ZM84.0728 98.1455C82.9097 98.274 81.3758 98.3744 79.4711 98.4467C75.9899 96.3627 72.5564 94.1099 69.2719 91.7551C70.8837 92.0158 72.6034 92.2359 74.4311 92.4154L84.6134 93.4153C84.7041 93.4604 84.7947 93.5053 84.8853 93.5498L84.0728 98.1455ZM50.4931 67.2908C49.9942 69.9365 49.7199 72.1853 49.6701 74.037C42.1505 64.6908 43.653 59.1542 52.5571 59.8398C51.7516 62.1093 51.0636 64.593 50.4931 67.2908ZM108.858 28.3299C109.529 28.3299 110.073 28.8731 110.073 29.5433C110.073 30.2134 109.528 30.7567 108.858 30.7567C108.187 30.7567 107.643 30.2134 107.643 29.5433C107.643 28.8731 108.187 28.3299 108.858 28.3299ZM89.9068 20.4265C90.5777 20.4265 91.1215 20.9697 91.1213 21.6399C91.1211 22.31 90.577 22.8533 89.906 22.8533C89.2351 22.8533 88.6914 22.31 88.6916 21.6399C88.6918 20.9697 89.2358 20.4265 89.9068 20.4265ZM73.2434 22.8855C73.2436 22.2154 72.6998 21.6721 72.0289 21.6721C71.3579 21.6721 70.8139 22.2154 70.8137 22.8855C70.8135 23.5556 71.3572 24.0989 72.0281 24.0989C72.6991 24.0989 73.2432 23.5556 73.2434 22.8855ZM64.4628 23.886C65.1337 23.886 65.6775 24.4293 65.6773 25.0994C65.6771 25.7696 65.133 26.3128 64.462 26.3128C63.7911 26.3128 63.2473 25.7696 63.2475 25.0994C63.2478 24.4293 63.7918 23.886 64.4628 23.886ZM48.4373 49.0768C49.1083 49.0768 49.652 49.6201 49.6518 50.2902C49.6516 50.9604 49.1075 51.5036 48.4366 51.5036C47.7656 51.5036 47.2219 50.9604 47.2221 50.2902C47.2223 49.6201 47.7664 49.0768 48.4373 49.0768ZM102.94 138.445C102.94 137.775 102.396 137.231 101.726 137.231C101.055 137.231 100.511 137.775 100.51 138.445C100.51 139.115 101.054 139.658 101.725 139.658C102.396 139.658 102.94 139.115 102.94 138.445ZM56.0211 135.922C56.692 135.922 57.2358 136.465 57.2356 137.135C57.2354 137.805 56.6913 138.349 56.0203 138.349C55.3494 138.349 54.8056 137.805 54.8058 137.135C54.8061 136.465 55.3501 135.922 56.0211 135.922ZM40.8194 128.165C40.8196 127.495 40.2759 126.951 39.6049 126.951C38.934 126.951 38.3899 127.495 38.3897 128.165C38.3895 128.835 38.9332 129.378 39.6042 129.378C40.2751 129.378 40.8192 128.835 40.8194 128.165ZM10.411 105.013C11.0819 105.013 11.6257 105.557 11.6255 106.227C11.6253 106.897 11.0812 107.44 10.4102 107.44C9.73928 107.44 9.19553 106.897 9.19574 106.227C9.19595 105.557 9.74003 105.013 10.411 105.013ZM146.123 46.0523C146.123 45.3821 145.579 44.8389 144.908 44.8389C144.237 44.8389 143.693 45.3821 143.693 46.0523C143.693 46.7224 144.236 47.2657 144.907 47.2657C145.578 47.2657 146.122 46.7224 146.123 46.0523ZM120.168 36.534C121.342 36.534 122.294 37.4847 122.293 38.6575C122.293 39.8302 121.341 40.7809 120.167 40.7809C118.993 40.7809 118.041 39.8302 118.041 38.6575C118.042 37.4847 118.994 36.534 120.168 36.534ZM98.3126 22.2575C98.313 21.0848 97.3614 20.1341 96.1873 20.1341C95.0131 20.1341 94.061 21.0848 94.0606 22.2575C94.0602 23.4302 95.0118 24.3809 96.186 24.3809C97.3601 24.3809 98.3123 23.4302 98.3126 22.2575ZM114.052 127.78C115.226 127.78 116.177 128.73 116.177 129.903C116.177 131.076 115.225 132.026 114.05 132.026C112.876 132.026 111.925 131.076 111.925 129.903C111.925 128.73 112.878 127.78 114.052 127.78ZM29.5803 102.652C29.5807 101.479 28.6291 100.528 27.4549 100.528C26.2808 100.528 25.3286 101.479 25.3283 102.652C25.3279 103.824 26.2795 104.775 27.4536 104.775C28.6278 104.775 29.5799 103.824 29.5803 102.652ZM31.5531 116.101C32.7272 116.101 33.6788 117.052 33.6784 118.224C33.678 119.397 32.7259 120.348 31.5517 120.348C30.3776 120.348 29.426 119.397 29.4264 118.224C29.4268 117.052 30.3789 116.101 31.5531 116.101ZM130.217 57.5896L129.357 65.0936L128.501 57.5897C127.142 57.2682 126.073 56.1998 125.752 54.8426L118.239 53.9855L125.753 53.1283C126.076 51.7723 127.145 50.705 128.503 50.3836L129.364 42.8774L130.22 50.3837C131.577 50.7053 132.646 51.7724 132.967 53.1283L140.482 53.9855L132.967 54.8427C132.645 56.1997 131.576 57.2679 130.217 57.5896ZM78.8694 151.261L79.7828 143.295C81.2242 142.954 82.3591 141.821 82.7014 140.381L90.6766 139.472L82.7022 138.562C82.3611 137.122 81.2267 135.988 79.785 135.647L78.8767 127.682L77.9634 135.647C76.5218 135.988 75.3868 137.122 75.0449 138.562L67.0695 139.472L75.0445 140.381C75.3859 141.821 76.5199 142.954 77.9609 143.295L78.8694 151.261Z" fill="black"/>
</svg>
