<svg width="405" height="160" viewBox="0 0 405 160" fill="none" xmlns="http://www.w3.org/2000/svg">
<g clip-path="url(#clip0)">
<path d="M28.0567 73.0506C25.1594 72.3677 22.6882 72.0263 20.6431 72.0263C18.5979 72.0263 17.0854 72.0903 16.1054 72.2184L15.7859 74.0749L18.9814 74.459C25.8411 75.3553 29.271 78.1935 29.271 82.9736C29.271 83.5284 29.1431 84.5741 28.8875 86.1105C28.6319 87.6043 28.2058 89.0554 27.6093 90.4639C27.0128 91.8723 26.2459 93.0246 25.3085 93.9209C24.4138 94.7745 23.519 95.4787 22.6243 96.0335C21.7721 96.5457 20.6644 96.9085 19.3009 97.1219C17.1706 97.4633 14.3159 97.634 10.7369 97.634C7.20057 97.634 3.62159 97.1432 0 96.1616L3.13161 86.6867C6.45495 87.6257 9.35222 88.0951 11.8234 88.0951C14.3372 88.0951 16.1054 88.0311 17.128 87.9031L17.4475 85.8545L13.4212 85.4063C9.97003 85.0222 7.52012 84.2113 6.07149 82.9736C4.62285 81.7359 3.89853 79.9647 3.89853 77.66C3.89853 76.8064 4.00505 75.7394 4.21809 74.459C5.07023 69.8923 6.60407 66.734 8.81963 64.9842C11.0352 63.2343 14.4011 62.3594 18.9175 62.3594C23.4764 62.3594 27.5454 62.8075 31.1244 63.7038L28.0567 73.0506Z" fill="black"/>
<path d="M61.5951 87.9031C62.7455 87.9031 63.5338 87.775 63.9598 87.519C64.4285 87.2202 64.7481 86.5373 64.9185 85.4704L68.9448 62.9996H79.6818L76.3585 82.0773C75.3359 88.0525 73.6742 92.1497 71.3734 94.369C69.1153 96.5457 65.238 97.634 59.7417 97.634C55.3532 97.634 52.2855 96.9938 50.5386 95.7134C48.7918 94.3904 47.9183 92.107 47.9183 88.8634C47.9183 87.0708 48.1527 84.8088 48.6213 82.0773L52.0086 62.9996H62.7455L58.3996 87.9031H61.5951Z" fill="black"/>
<path d="M111.929 88.9274H105.729L104.323 96.8658H93.5863L99.466 62.9996H115.699C121.877 62.9996 124.966 65.9231 124.966 71.7702C124.966 74.4163 124.583 76.8491 123.816 79.0684C123.049 81.2878 122.218 83.0376 121.323 84.318C120.429 85.5984 119.15 86.6867 117.489 87.583C115.87 88.4793 114.016 88.9274 111.929 88.9274ZM113.335 74.0749C113.335 74.0322 113.356 73.9042 113.399 73.6908C113.399 72.7945 112.482 72.3464 110.65 72.3464H108.605L107.263 80.2848H109.244C110.224 80.2848 110.991 80.1781 111.545 79.9647C112.099 79.7086 112.44 79.1965 112.568 78.4282L113.335 74.0749Z" fill="black"/>
<path d="M161.671 83.1016H152.148L151.381 87.455H163.205L161.543 96.8658H138.983L144.862 62.9996H167.359L164.355 72.6025H153.938L153.171 76.9558H162.757L161.671 83.1016Z" fill="black"/>
<path d="M203.995 62.9996C210.216 62.9996 213.326 65.8164 213.326 71.4501C213.326 74.0109 212.815 76.6784 211.793 79.4525C210.77 82.184 209.044 84.2326 206.616 85.5984L210.259 96.8658H198.307L195.879 87.0068H194.345L192.619 96.8658H181.882L187.762 62.9996H203.995ZM201.631 74.0749C201.631 74.0322 201.652 73.8188 201.695 73.4347C201.695 72.7092 200.566 72.3464 198.307 72.3464H196.901L195.879 78.2362H197.924C199.884 78.2362 200.992 77.596 201.247 76.3156L201.631 74.0749Z" fill="black"/>
<path d="M248.714 96.8658L242.131 84.19H241.875L239.639 96.8658H228.902L234.781 62.9996H243.473L250.12 75.6114H250.503L252.676 62.9996H263.349L257.406 96.8658H248.714Z" fill="black"/>
<g clip-path="url(#clip1)">
<path fill-rule="evenodd" clip-rule="evenodd" d="M305.325 67.2608C297.308 62.0475 287.558 62.2991 281.435 67.2967C280.583 67.9922 279.936 68.7565 279.53 69.5976C279.693 69.4015 279.883 69.2146 280.1 69.0379C286.271 64.0235 296.099 63.7748 304.183 69.0112C312.33 74.288 316.118 83.4595 313.961 91.1798C313.874 91.4883 313.763 91.7688 313.628 92.0226C314.258 91.3119 314.718 90.4096 315.015 89.3411C317.159 81.6494 313.404 72.5143 305.325 67.2608Z" fill="black"/>
<path fill-rule="evenodd" clip-rule="evenodd" d="M247.619 62.142C231.568 42.8517 238.37 33.0647 262.869 40.3198C287.369 47.5749 320.231 69.1082 336.282 88.3985C352.333 107.689 345.53 117.476 321.031 110.221C302.828 104.83 278.419 88.8338 266.5 74.5093C256.35 62.3107 260.647 56.1138 276.154 60.7062C279.257 61.6252 282.618 62.9843 286.047 64.6594C286.443 64.5089 286.847 64.3721 287.256 64.2493C282.948 62.038 278.699 60.2561 274.825 59.1089C258.248 54.2 253.603 60.8139 264.508 73.9194C277.181 89.1507 303.088 106.111 322.36 111.818C347.929 119.39 355.079 109.185 338.274 88.9884C321.469 68.7914 287.109 46.2943 261.54 38.7226C235.972 31.1508 228.821 41.355 245.626 61.552C245.993 61.9931 246.737 62.4827 247.287 62.6456C247.837 62.8085 247.986 62.583 247.619 62.142ZM315.594 85.4501C315.576 86.021 315.53 86.589 315.454 87.1521C320.76 94.3868 317.615 97.8917 307.802 94.9859C302.006 93.2694 294.766 89.073 289.293 84.5127C284.483 80.9601 281.55 77.9398 280.116 75.367C280.36 76.3319 281.054 77.5433 282.23 78.957C288.13 86.0486 300.18 93.9323 309.131 96.5831C320.652 99.9949 323.888 95.3996 316.301 86.2814C316.071 86.0051 315.835 85.7279 315.594 85.4501Z" fill="black"/>
<path d="M280.107 69.0404C286.278 64.0216 296.104 63.7691 304.185 69.0047C312.327 74.2806 316.112 83.4546 313.952 91.179C312.235 97.3165 300.617 92.3941 292.257 86.9766C284.055 81.6618 275.333 72.923 280.107 69.0404Z" fill="black"/>
<ellipse rx="1.23933" ry="1.23868" transform="matrix(0.999803 0.000404282 -9.49626e-05 -1.0002 326.494 28.4569)" fill="black"/>
<ellipse rx="1.23933" ry="1.23869" transform="matrix(0.999803 0.000404282 -9.49626e-05 -1.0002 319.664 102.932)" fill="black"/>
<ellipse rx="1.23932" ry="1.23868" transform="matrix(0.999803 0.000404282 -9.49626e-05 -1.0002 307.169 20.3836)" fill="black"/>
<ellipse rx="1.23932" ry="1.23868" transform="matrix(0.999803 0.000404282 -9.49626e-05 -1.0002 288.938 21.6561)" fill="black"/>
<ellipse rx="1.23933" ry="1.23868" transform="matrix(0.999803 0.000404282 -9.49626e-05 -1.0002 281.223 23.9178)" fill="black"/>
<ellipse rx="1.23932" ry="1.23868" transform="matrix(0.999803 0.000404282 -9.49626e-05 -1.0002 277.151 64.2401)" fill="black"/>
<ellipse rx="1.23932" ry="1.23868" transform="matrix(0.999803 0.000404282 -9.49626e-05 -1.0002 264.882 49.6493)" fill="black"/>
<ellipse rx="1.23933" ry="1.23868" transform="matrix(0.999803 0.000404282 -9.49626e-05 -1.0002 319.22 139.695)" fill="black"/>
<ellipse rx="1.23933" ry="1.23868" transform="matrix(0.999803 0.000404282 -9.49626e-05 -1.0002 272.615 138.357)" fill="black"/>
<ellipse rx="1.23932" ry="1.23868" transform="matrix(0.999803 0.000404282 -9.49626e-05 -1.0002 255.875 129.194)" fill="black"/>
<ellipse rx="1.23933" ry="1.23868" transform="matrix(0.999803 0.000404282 -9.49626e-05 -1.0002 226.105 106.786)" fill="black"/>
<ellipse rx="1.23932" ry="1.23868" transform="matrix(0.999803 0.000404282 -9.49626e-05 -1.0002 363.254 45.3202)" fill="black"/>
<ellipse rx="2.16883" ry="2.16769" transform="matrix(0.999803 0.000404282 -9.49626e-05 -1.0002 338.026 37.7664)" fill="black"/>
<ellipse rx="2.16882" ry="2.16769" transform="matrix(0.999803 0.000404282 -9.49626e-05 -1.0002 313.573 21.0154)" fill="black"/>
<ellipse rx="2.16882" ry="2.16769" transform="matrix(0.999803 0.000404282 -9.49626e-05 -1.0002 331.789 130.97)" fill="black"/>
<ellipse rx="2.16882" ry="2.16768" transform="matrix(0.999803 0.000404282 -9.49626e-05 -1.0002 243.485 103.134)" fill="black"/>
<ellipse rx="2.16882" ry="2.16768" transform="matrix(0.999803 0.000404282 -9.49626e-05 -1.0002 247.664 119.041)" fill="black"/>
<path fill-rule="evenodd" clip-rule="evenodd" d="M348.276 57.1041L347.402 64.7653L346.526 57.1035C345.14 56.7746 344.049 55.6832 343.721 54.2972L336.057 53.4189L343.721 52.5467C344.05 51.1625 345.14 50.0734 346.525 49.7458L347.399 42.0816L348.276 49.7466C349.66 50.0754 350.75 51.1653 351.079 52.5497L358.744 53.4281L351.08 54.3002C350.752 55.6858 349.662 56.7763 348.276 57.1041Z" fill="black"/>
<path fill-rule="evenodd" clip-rule="evenodd" d="M267.33 36.2703L266.54 43.1897L265.749 36.2697C264.498 35.9727 263.513 34.9877 263.217 33.7368L256.296 32.9436L263.217 32.1561C263.513 30.9056 264.497 29.9216 265.748 29.6256L266.538 22.7059L267.329 29.6263C268.58 29.9232 269.565 30.908 269.861 32.1588L276.782 32.9519L269.862 33.7395C269.565 34.9902 268.581 35.9744 267.33 36.2703Z" fill="black"/>
<path fill-rule="evenodd" clip-rule="evenodd" d="M335.166 115.933L334.461 122.106L333.755 115.933C332.639 115.668 331.761 114.789 331.496 113.673L325.322 112.965L331.496 112.263C331.761 111.147 332.639 110.269 333.755 110.005L334.459 103.832L335.165 110.006C336.281 110.271 337.16 111.149 337.424 112.265L343.599 112.973L337.424 113.675C337.16 114.791 336.282 115.669 335.166 115.933Z" fill="black"/>
<path fill-rule="evenodd" clip-rule="evenodd" d="M296.847 144.648L295.919 152.781L294.989 144.647C293.519 144.298 292.362 143.141 292.013 141.671L283.879 140.739L292.013 139.813C292.361 138.343 293.518 137.186 294.988 136.838L295.917 128.707L296.846 136.839C298.317 137.188 299.475 138.346 299.823 139.817L307.957 140.749L299.823 141.674C299.474 143.144 298.317 144.3 296.847 144.648Z" fill="black"/>
</g>
<path d="M344.397 63.0635V82.3973H344.652L352.066 63.0635H363.634L349.957 96.9297H334.427L332.573 63.0635H344.397Z" fill="black"/>
<path d="M394.013 96.9297L393.757 91.7441H385.704L383.723 96.9297H372.667L386.855 63.0635H402.704L405.197 96.9297H394.013ZM393.757 82.5894V72.8584H392.862L389.092 82.5894H393.757Z" fill="black"/>
</g>
<defs>
<clipPath id="clip0">
<rect width="405" height="160" fill="white"/>
</clipPath>
<clipPath id="clip1">
<rect width="167.079" height="167.364" fill="white" transform="translate(213.527 -3.68555)"/>
</clipPath>
</defs>
</svg>
