<svg width="128" height="128" fill="none" xmlns="http://www.w3.org/2000/svg"><path fill-rule="evenodd" clip-rule="evenodd" d="M71.6 24.515l-.4-3.513-.402 3.514a1.737 1.737 0 0 0-1.285 1.287L66 26.205l3.513.4c.15.635.65 1.134 1.285 1.285l.4 3.514.402-3.515a1.737 1.737 0 0 0 1.285-1.285l3.513-.403-3.512-.4a1.735 1.735 0 0 0-1.285-1.286z" fill="#fff"/><path fill-rule="evenodd" clip-rule="evenodd" d="M17.3 64.955l-.45-3.953-.452 3.953a1.954 1.954 0 0 0-1.446 1.447L11 66.855l3.95.45c.17.715.732 1.277 1.446 1.446l.451 3.953.452-3.954a1.954 1.954 0 0 0 1.445-1.446l3.952-.453-3.951-.45a1.951 1.951 0 0 0-1.446-1.446z" fill="#96FCBF"/><path fill-rule="evenodd" clip-rule="evenodd" d="M28.762 22.383l-.842-7.379-.843 7.38a3.648 3.648 0 0 0-2.7 2.7l-7.376.846 7.376.84a3.643 3.643 0 0 0 2.699 2.698l.842 7.378.843-7.38a3.648 3.648 0 0 0 2.698-2.7l7.378-.845-7.377-.84a3.643 3.643 0 0 0-2.698-2.698z" fill="#FFA78B"/><path fill-rule="evenodd" clip-rule="evenodd" d="M110.94 29.241l-.711-6.237-.713 6.238a3.083 3.083 0 0 0-2.28 2.282l-6.235.715 6.234.71a3.08 3.08 0 0 0 2.281 2.28l.711 6.237.713-6.237a3.083 3.083 0 0 0 2.281-2.283l6.234-.715-6.234-.71a3.079 3.079 0 0 0-2.281-2.28z" fill="#B6AAFF"/><ellipse rx="1.04" ry="1.04" transform="matrix(1 0 0 -1 28.04 61.04)" fill="#fff"/><ellipse rx="1.04" ry="1.04" transform="matrix(1 0 0 -1 120.04 28.04)" fill="#fff"/><ellipse rx="1.04" ry="1.04" transform="matrix(1 0 0 -1 45.04 9.04)" fill="#fff"/><ellipse rx="1.56" ry="1.56" transform="matrix(1 0 0 -1 100.56 66.56)" fill="#fff"/><ellipse rx="1.04" ry="1.04" transform="matrix(1 0 0 -1 20.04 33.04)" fill="#B6AAFF"/><ellipse rx="1.04" ry="1.04" transform="matrix(1 0 0 -1 12.04 85.04)" fill="#B6AAFF"/><ellipse rx="2.08" ry="2.08" transform="matrix(1 0 0 -1 104.08 55.08)" fill="#96FCBF"/><ellipse rx="1.04" ry="1.04" transform="matrix(1 0 0 -1 10.04 19.04)" fill="#96FCBF"/><ellipse rx="1.04" ry="1.04" transform="matrix(1 0 0 -1 51.04 31.04)" fill="#96FCBF"/><ellipse rx="1.04" ry="1.04" transform="matrix(1 0 0 -1 101.04 11.04)" fill="#96FCBF"/><ellipse rx="1.56" ry="1.56" transform="matrix(1 0 0 -1 82.56 21.56)" fill="#FFA78B"/><ellipse rx="1.56" ry="1.56" transform="matrix(1 0 0 -1 35.56 71.56)" fill="#FFA78B"/><ellipse rx="1.56" ry="1.56" transform="matrix(1 0 0 -1 116.56 66.56)" fill="#B6AAFF"/><ellipse rx="1.17" ry="1.17" transform="matrix(1 0 0 -1 102.17 84.17)" fill="#FFA78B"/><ellipse rx="1.17" ry="1.17" transform="matrix(1 0 0 -1 5.17 54.17)" fill="#FFA78B"/><ellipse rx="1.17" ry="1.17" transform="matrix(1 0 0 -1 122.17 47.17)" fill="#FFA78B"/><ellipse rx="1.04" ry="1.04" transform="matrix(1 0 0 -1 77.04 12.04)" fill="#B6AAFF"/><path d="M70 100l-15-8v16l15-8z" fill="#96FCBF"/><path d="M73 96l-15-8v16l15-8z" fill="#B6AAFF"/><path d="M50.87 65.948l5.13-12.5m-5.13 12.5l11.63 7.471m-11.63-7.471l-12.625 32m12.626-32l10.627-10M62.5 73.419L82 85.948M62.5 73.419l11.63-7.471M62.5 73.419L43 85.948M27 127l11.245-29.052m0 0L56 127m18.13-61.052L69 53.448m5.13 12.5l12.625 32m-12.626-32l-10.627-10M98 127L86.755 97.948m0 0L69 127m-5.498-71.052c4.776-.5 8.498-4.54 8.498-9.448a9.5 9.5 0 0 0-19 0c0 4.908 3.722 8.947 8.498 9.448m2.004 0a9.614 9.614 0 0 1-2.004 0" stroke="#B1B1B1" stroke-width="2" stroke-linecap="round"/><circle cx="62.5" cy="46.5" r="10.5" fill="#fff" filter="url(#filter0_d)"/><path fill-rule="evenodd" clip-rule="evenodd" d="M88.445 36.832a1 1 0 0 1 1.11-1.664C92.847 37.367 95 41.426 95 46c0 4.575-2.152 8.633-5.445 10.832a1 1 0 0 1-1.11-1.664C91.135 53.373 93 49.966 93 46c0-3.964-1.866-7.372-4.555-9.168zm-50.613-1.387a1 1 0 0 1-.277 1.387C34.866 38.628 33 42.036 33 46c0 3.966 1.866 7.373 4.555 9.168a1 1 0 0 1-1.11 1.664C33.152 54.633 31 50.575 31 46c0-4.574 2.153-8.633 5.445-10.832a1 1 0 0 1 1.387.277zm5.723 5.387a1 1 0 0 0-1.11-1.664C40.349 40.568 39 43.134 39 46c0 2.867 1.349 5.432 3.445 6.832a1 1 0 0 0 1.11-1.664C42.062 50.171 41 48.258 41 46c0-2.257 1.062-4.171 2.555-5.168zm5 4a1 1 0 0 0-1.11-1.664C46.545 43.77 46 44.842 46 46c0 1.159.545 2.231 1.445 2.832a1 1 0 0 0 1.11-1.664C48.258 46.97 48 46.55 48 46c0-.55.259-.97.555-1.168zm28.89 0a1 1 0 0 1 1.11-1.664C79.455 43.77 80 44.842 80 46c0 1.159-.545 2.231-1.445 2.832a1 1 0 0 1-1.11-1.664C77.742 46.97 78 46.55 78 46c0-.55-.259-.97-.555-1.168zm4.723-5.387a1 1 0 0 0 .277 1.387C83.938 41.829 85 43.743 85 46c0 2.258-1.062 4.171-2.555 5.168a1 1 0 0 0 1.11 1.664C85.651 51.432 87 48.867 87 46c0-2.866-1.349-5.432-3.445-6.832a1 1 0 0 0-1.387.277z" fill="url(#paint0_radial)"/><defs><filter id="filter0_d" x="28" y="12" width="69" height="69" filterUnits="userSpaceOnUse" color-interpolation-filters="sRGB"><feFlood flood-opacity="0" result="BackgroundImageFix"/><feColorMatrix in="SourceAlpha" values="0 0 0 0 0 0 0 0 0 0 0 0 0 0 0 0 0 0 127 0"/><feOffset/><feGaussianBlur stdDeviation="12"/><feColorMatrix values="0 0 0 0 1 0 0 0 0 1 0 0 0 0 1 0 0 0 1 0"/><feBlend in2="BackgroundImageFix" result="effect1_dropShadow"/><feBlend in="SourceGraphic" in2="effect1_dropShadow" result="shape"/></filter><radialGradient id="paint0_radial" cx="0" cy="0" r="1" gradientUnits="userSpaceOnUse" gradientTransform="matrix(32 0 0 37.8409 63 46)"><stop stop-color="#B1B1B1"/><stop offset="1" stop-color="#B1B1B1" stop-opacity=".12"/></radialGradient></defs></svg>