<svg width="24" height="24" viewBox="0 0 24 24" fill="none" xmlns="http://www.w3.org/2000/svg">
  <path d="M9.5,8c2-1.3,4.5-1.3,6.5,0c2,1.3,3,3.3,3,5.6s-1,4.3-3,5.6c-2,1.3-4.5,1.3-6.5,0c-2-1.3-3-3.3-3-5.6S7.5,9.3,9.5,8z" fill="#6FBCF0"/>
  <path d="M12.5,10.5L11,11.4c-0.2,0.1-0.2,0.3,0,0.4l1.5,0.9c0.1,0.1,0.3,0.1,0.4,0l1.5-0.9c0.2-0.1,0.2-0.3,0-0.4l-1.5-0.9 C12.8,10.4,12.6,10.4,12.5,10.5z" fill="white"/>
  <path d="M12.5,14.1L11,15c-0.2,0.1-0.2,0.3,0,0.4l1.5,0.9c0.1,0.1,0.3,0.1,0.4,0l1.5-0.9c0.2-0.1,0.2-0.3,0-0.4l-1.5-0.9 C12.8,14,12.6,14,12.5,14.1z" fill="white"/>
  <path d="M8.9,12.3L7.4,13.2c-0.2,0.1-0.2,0.3,0,0.4l1.5,0.9c0.1,0.1,0.3,0.1,0.4,0l1.5-0.9c0.2-0.1,0.2-0.3,0-0.4l-1.5-0.9 C9.2,12.2,9,12.2,8.9,12.3z" fill="white"/>
  <path d="M16.1,12.3l-1.5,0.9c-0.2,0.1-0.2,0.3,0,0.4l1.5,0.9c0.1,0.1,0.3,0.1,0.4,0l1.5-0.9c0.2-0.1,0.2-0.3,0-0.4l-1.5-0.9 C16.4,12.2,16.2,12.2,16.1,12.3z" fill="white"/>
</svg>