<svg width="180" height="180" viewBox="0 0 180 180" fill="none" xmlns="http://www.w3.org/2000/svg">
<path d="M59.0578 90.7603C59.1019 82.1661 61.06 73.6904 64.7887 65.9521C68.5173 58.2138 73.9225 51.4082 80.6095 46.0324L67.3891 32.7756C65.4833 30.8655 62.8994 29.7925 60.2052 29.7925C57.5107 29.7925 54.9267 30.8655 53.0213 32.7756L3.17074 82.7626C1.26586 84.6731 0.195801 87.2643 0.195801 89.966C0.195801 92.6677 1.26586 95.2589 3.17074 97.1694L53.0213 147.156C54.9267 149.067 57.5107 150.139 60.2052 150.139C62.8994 150.139 65.4833 149.067 67.3891 147.156L79.599 134.886C73.172 129.479 68.003 122.727 64.4547 115.104C60.906 107.481 59.0639 99.1727 59.0578 90.7603Z" fill="#342E37"/>
<path d="M119.34 32.1441C105.153 32.122 91.3956 37.0379 80.4047 46.0568L116.839 82.7112C117.781 83.6533 118.529 84.7736 119.039 86.0073C119.549 87.2409 119.812 88.5636 119.812 89.8995C119.812 91.2358 119.549 92.5585 119.039 93.7921C118.529 95.0258 117.781 96.1462 116.839 97.0882L79.3989 134.727C90.5555 144.23 104.717 149.425 119.34 149.377C152.675 149.377 179.729 123.165 179.729 90.8016C179.729 58.4389 152.621 32.1441 119.34 32.1441Z" fill="#342E37"/>
</svg>
