<svg width="551" height="53" viewBox="0 0 551 53" fill="none" xmlns="http://www.w3.org/2000/svg">
<g clip-path="url(#clip0_426_22478)">
<path d="M21.3558 31.027C21.3518 27.8937 22.0539 24.7998 23.4097 21.9751C24.7656 19.1504 26.7405 16.6674 29.1876 14.7106L24.4015 9.89732C23.7083 9.20651 22.7695 8.8186 21.7909 8.8186C20.8122 8.8186 19.8734 9.20651 19.1802 9.89732L1.09628 27.9813C0.405473 28.6745 0.0175781 29.6132 0.0175781 30.5919C0.0175781 31.5706 0.405473 32.5093 1.09628 33.2025L19.1802 51.2865C19.8734 51.9773 20.8122 52.3653 21.7909 52.3653C22.7695 52.3653 23.7083 51.9773 24.4015 51.2865L28.8341 46.8539C26.5167 44.914 24.6479 42.4943 23.3568 39.7618C22.0656 37.0293 21.3829 34.0491 21.3558 31.027Z" fill="#24272A"/>
<path d="M43.3831 9.84307C38.2126 9.83207 33.1975 11.6095 29.1878 14.8739L42.4857 28.1447C43.1765 28.8379 43.5644 29.7766 43.5644 30.7553C43.5644 31.7339 43.1765 32.6727 42.4857 33.3659L28.8887 46.9629C32.931 50.4587 38.0932 52.3884 43.4375 52.4017C46.317 52.5474 49.196 52.1061 51.8997 51.1046C54.6033 50.1031 57.075 48.5622 59.1647 46.5757C61.2543 44.5892 62.9181 42.1985 64.055 39.549C65.192 36.8994 65.7783 34.0464 65.7783 31.1632C65.7783 28.28 65.192 25.4269 64.055 22.7774C62.9181 20.1279 61.2543 17.7371 59.1647 15.7506C57.075 13.7641 54.6033 12.2232 51.8997 11.2217C49.196 10.2202 46.317 9.77888 43.4375 9.92465L43.3831 9.84307Z" fill="#24272A"/>
<path d="M87.2198 45.6575C84.7177 44.2335 82.6498 42.1561 81.2371 39.6476C79.7919 37.0385 79.0337 34.1049 79.0337 31.1223C79.0337 28.1397 79.7919 25.206 81.2371 22.597C82.6556 20.0858 84.7216 18.0011 87.2198 16.5599C89.5921 15.2297 92.2454 14.4797 94.963 14.371C97.6806 14.2622 100.386 14.798 102.857 15.9345C104.991 16.9426 106.855 18.4432 108.295 20.3127C109.758 22.0879 110.7 24.2343 111.015 26.5129H103.564C103.16 24.9864 102.187 23.6727 100.844 22.8417C99.333 21.8567 97.5622 21.3454 95.7587 21.3732C94.0814 21.3536 92.4323 21.8059 90.9998 22.6785C89.5702 23.5188 88.3953 24.7312 87.6005 26.1866C86.7556 27.6977 86.3241 29.4048 86.3496 31.1359C86.3246 32.8496 86.7564 34.5391 87.6005 36.0308C88.4036 37.4729 89.5771 38.6746 90.9998 39.5116C92.4396 40.3641 94.0854 40.8062 95.7587 40.7897C97.5842 40.8256 99.3772 40.3039 100.899 39.2941C102.253 38.3773 103.222 36.9925 103.618 35.4053H111.123C110.828 37.7549 109.886 39.9764 108.404 41.8231C106.927 43.7361 105.004 45.258 102.802 46.2557C100.317 47.3886 97.6011 47.9244 94.8719 47.8206C92.1427 47.7167 89.4757 46.9759 87.0838 45.6575H87.2198Z" fill="#24272A"/>
<path d="M95.6773 48.2408C92.6472 48.2843 89.6608 47.5142 87.0296 46.0109C84.4543 44.5548 82.3284 42.4195 80.8838 39.8379C79.4027 37.1717 78.6255 34.1721 78.6255 31.1222C78.6255 28.0723 79.4027 25.0727 80.8838 22.4065C82.3414 19.8206 84.463 17.6707 87.0296 16.1791C89.6608 14.6758 92.6472 13.9058 95.6773 13.9493C98.2127 13.9403 100.719 14.488 103.02 15.5537C105.252 16.576 107.209 18.1139 108.731 20.0407C110.21 21.8889 111.151 24.1097 111.45 26.4585V26.9208H103.292V26.6216C102.859 25.1658 101.886 23.9303 100.572 23.168C99.1231 22.2585 97.4424 21.7864 95.7317 21.8083C94.1337 21.7873 92.5614 22.211 91.1903 23.032C89.8318 23.8462 88.7074 24.9986 87.927 26.3768C87.1283 27.835 86.7164 29.4733 86.7305 31.1358C86.7132 32.7727 87.1258 34.3856 87.927 35.8131C88.6982 37.205 89.8297 38.3637 91.203 39.1675C92.5762 39.9713 94.1405 40.3908 95.7317 40.3818C97.4718 40.4097 99.1792 39.907 100.627 38.9405C101.299 38.5443 101.886 38.0179 102.353 37.3923C102.82 36.7666 103.158 36.0541 103.346 35.2965V34.9974H111.64V35.4597C111.37 37.8735 110.428 40.1631 108.921 42.0678C107.407 44.033 105.438 45.6009 103.183 46.6364C100.828 47.7128 98.2663 48.2604 95.6773 48.2408ZM95.6773 14.7651C92.8146 14.738 89.9971 15.4799 87.5191 16.9134C85.0425 18.3281 82.9942 20.3858 81.5908 22.8688C80.1813 25.4109 79.4417 28.2698 79.4417 31.1766C79.4417 34.0833 80.1813 36.9423 81.5908 39.4844C82.9802 41.9293 84.999 43.9575 87.4375 45.3583C89.9242 46.7677 92.7374 47.4991 95.5957 47.4794C98.0473 47.4962 100.472 46.9667 102.694 45.9293C104.832 44.9531 106.699 43.4687 108.132 41.6055C109.44 39.9422 110.284 37.9626 110.58 35.8675H103.944C103.466 37.4465 102.433 38.799 101.035 39.6747C99.4304 40.7547 97.5287 41.3062 95.5957 41.2519C93.8461 41.2723 92.1245 40.8114 90.6192 39.9195C89.1432 39.0338 87.9245 37.7776 87.084 36.2754C86.2089 34.7248 85.7587 32.9706 85.7787 31.1902C85.7555 29.3921 86.2057 27.6196 87.084 26.0505C87.9175 24.5225 89.1485 23.2483 90.6469 22.3627C92.1453 21.4771 93.8552 21.013 95.5957 21.0197C97.4738 21.0006 99.3167 21.5299 100.899 22.5425C102.264 23.3676 103.295 24.6485 103.808 26.1593H110.525C110.151 24.1632 109.281 22.2931 107.996 20.7205C106.54 18.8935 104.678 17.4316 102.558 16.4511C100.42 15.3732 98.0705 14.779 95.6773 14.7107V14.7651Z" fill="#24272A"/>
<path d="M122.79 45.6303C120.291 44.1931 118.217 42.1195 116.78 39.6204C115.286 37.0065 114.525 34.0376 114.577 31.0271C114.545 28.0363 115.305 25.0902 116.78 22.4882C118.213 19.9792 120.287 17.8958 122.79 16.4511C125.375 15.0079 128.286 14.2502 131.247 14.2502C134.208 14.2502 137.119 15.0079 139.704 16.4511C142.217 17.892 144.301 19.9757 145.742 22.4882C147.247 25.0803 148.026 28.0298 147.999 31.0271C148.02 33.2282 147.603 35.4115 146.77 37.4489C145.936 39.4864 144.705 41.337 143.147 42.8922C141.59 44.4474 139.737 45.6758 137.698 46.5056C135.659 47.3354 133.475 47.7497 131.274 47.7242C128.311 47.7905 125.382 47.0679 122.79 45.6303ZM122.98 36.0308C123.796 37.4816 124.989 38.6844 126.434 39.5116C127.906 40.3583 129.576 40.7994 131.274 40.7897C132.965 40.8065 134.628 40.3648 136.088 39.5116C137.562 38.6483 138.778 37.4062 139.61 35.9142C140.442 34.4223 140.86 32.7349 140.819 31.0271C140.835 29.2937 140.394 27.5867 139.541 26.0778C138.719 24.625 137.527 23.415 136.088 22.5698C134.635 21.6968 132.969 21.2448 131.274 21.2645C129.572 21.2511 127.898 21.7024 126.434 22.5698C124.982 23.4 123.788 24.6137 122.98 26.0778C122.148 27.5939 121.717 29.2977 121.729 31.0271C121.698 32.7761 122.13 34.5023 122.98 36.0308Z" fill="#24272A"/>
<path d="M131.274 48.241C128.234 48.2718 125.239 47.4928 122.599 45.9839C120.02 44.515 117.879 42.3839 116.399 39.8108C114.899 37.1686 114.129 34.1743 114.169 31.136C114.128 28.0803 114.898 25.0684 116.399 22.4067C117.911 19.8046 120.079 17.6449 122.687 16.1436C125.295 14.6424 128.251 13.8523 131.261 13.8523C134.27 13.8523 137.226 14.6424 139.834 16.1436C142.443 17.6449 144.611 19.8046 146.122 22.4067C147.64 25.0641 148.428 28.0757 148.406 31.136C148.428 34.1426 147.651 37.101 146.156 39.7095C144.661 42.3179 142.5 44.483 139.895 45.9839C137.273 47.4896 134.297 48.2687 131.274 48.241ZM131.274 14.7652C128.413 14.746 125.597 15.4874 123.116 16.9135C120.609 18.307 118.538 20.3686 117.133 22.869C115.724 25.4062 114.984 28.2607 114.984 31.1632C114.984 34.0656 115.724 36.9202 117.133 39.4574C118.525 41.9099 120.555 43.9398 123.007 45.3312C125.491 46.7501 128.305 47.491 131.165 47.4796C134.026 47.491 136.84 46.7501 139.324 45.3312C141.806 43.8983 143.866 41.8369 145.298 39.3545C146.731 36.8721 147.484 34.0563 147.482 31.1904C147.518 28.2679 146.756 25.3909 145.279 22.869C143.945 20.4157 141.984 18.3606 139.596 16.9135C137.076 15.4312 134.197 14.6692 131.274 14.7108V14.7652ZM131.274 41.1978C129.508 41.2143 127.77 40.7539 126.243 39.8652C124.732 38.9982 123.482 37.7393 122.627 36.2213C121.752 34.6706 121.301 32.9164 121.321 31.136C121.301 29.3382 121.751 27.5664 122.627 25.9963C123.474 24.465 124.725 23.1952 126.243 22.3251C127.77 21.434 129.506 20.9644 131.274 20.9644C133.042 20.9644 134.778 21.434 136.305 22.3251C137.796 23.2093 139.033 24.4648 139.895 25.9691C140.788 27.5431 141.248 29.3261 141.227 31.136C141.251 32.9203 140.79 34.6778 139.895 36.2213C139.025 37.7197 137.79 38.9734 136.305 39.8652C134.78 40.7577 133.041 41.2184 131.274 41.1978ZM131.274 21.8085C129.651 21.7948 128.055 22.2174 126.651 23.0322C125.243 23.8186 124.077 24.9753 123.279 26.377C122.459 27.8279 122.037 29.4696 122.055 31.136C122.035 32.7768 122.457 34.3929 123.279 35.8133C124.065 37.2312 125.233 38.3996 126.651 39.1854C128.056 39.9977 129.652 40.4202 131.274 40.4091C132.889 40.4233 134.477 40.0005 135.87 39.1854C137.287 38.3552 138.455 37.1606 139.254 35.7259C140.052 34.2912 140.452 32.6687 140.411 31.0272C140.433 29.3691 140.01 27.7354 139.188 26.2954C138.403 24.8949 137.258 23.7305 135.87 22.9234C134.468 22.1399 132.879 21.7544 131.274 21.8085Z" fill="#24272A"/>
<path d="M183.106 47.1802H175.628V28.8787C175.73 26.8205 175.05 24.7997 173.724 23.2224C173.091 22.5321 172.316 21.9874 171.452 21.6259C170.588 21.2644 169.656 21.0947 168.72 21.1284C167.221 21.1354 165.753 21.5553 164.477 22.3421C163.201 23.1288 162.166 24.252 161.487 25.5882V47.3434H154.117V15.0098H161.487V19.1433C162.531 17.7481 163.868 16.5973 165.403 15.7712C167.182 14.7894 169.191 14.3012 171.222 14.3572C173.159 14.2139 175.096 14.6265 176.806 15.5467C178.517 16.4668 179.928 17.8561 180.876 19.5511C182.154 18.0253 183.715 16.7603 185.472 15.8256C187.302 14.844 189.35 14.339 191.427 14.3572C193.805 14.3056 196.156 14.8676 198.253 15.9888C200.205 17.0522 201.817 18.6453 202.903 20.5845C204.055 22.7018 204.636 25.0821 204.589 27.4918V47.1802H197.138V28.8787C197.255 26.8149 196.585 24.7835 195.262 23.1951C194.604 22.4941 193.8 21.9458 192.907 21.5887C192.015 21.2317 191.055 21.0746 190.095 21.1284C188.626 21.1468 187.193 21.5805 185.961 22.3793C184.648 23.1559 183.561 24.2621 182.807 25.5882L182.997 26.7032L183.106 47.1802Z" fill="#24272A"/>
<path d="M204.997 47.5882H196.703V28.8788C196.818 26.9082 196.187 24.9666 194.935 23.44C194.311 22.787 193.552 22.2764 192.712 21.9432C191.872 21.61 190.97 21.4619 190.068 21.5092C188.676 21.536 187.32 21.9504 186.152 22.7058C184.962 23.4154 183.963 24.4049 183.242 25.5883L183.405 26.5401V47.561H175.247V28.8516C175.359 26.8767 174.718 24.9328 173.452 23.4128C172.856 22.7661 172.126 22.2562 171.314 21.9182C170.502 21.5802 169.627 21.4221 168.748 21.4548C167.298 21.4399 165.875 21.8359 164.641 22.597C163.504 23.3107 162.568 24.3029 161.922 25.4795V47.5066H153.764V14.7107H161.922V18.11C162.872 17.0397 163.982 16.1225 165.212 15.3905C167.067 14.3993 169.147 13.9029 171.249 13.9493C173.162 13.8199 175.073 14.2057 176.786 15.0667C178.498 15.9276 179.948 17.2321 180.985 18.8442C182.207 17.4756 183.662 16.3339 185.281 15.4721C187.175 14.4448 189.3 13.9204 191.454 13.9493C193.909 13.8929 196.335 14.4738 198.498 15.6353C200.503 16.7474 202.16 18.395 203.284 20.3942C204.466 22.5704 205.066 25.0155 205.024 27.4919L204.997 47.5882ZM197.546 46.7724H204.154V27.4919C204.202 25.1613 203.649 22.8577 202.55 20.8022C201.497 18.9281 199.943 17.3839 198.063 16.3423C196.021 15.2614 193.737 14.7186 191.427 14.7651C189.417 14.7388 187.432 15.2255 185.662 16.1791C183.956 17.086 182.442 18.3141 181.202 19.796L180.822 20.2583L180.523 19.7416C179.617 18.1007 178.259 16.7543 176.61 15.8625C174.961 14.9707 173.091 14.5709 171.222 14.7107C169.259 14.6666 167.319 15.1353 165.593 16.0704C164.12 16.8835 162.832 17.9949 161.813 19.3337L161.079 20.3671V15.3634H154.525V46.718H161.079V25.2348C161.809 23.8502 162.905 22.6923 164.248 21.8869C165.59 21.0814 167.128 20.6592 168.693 20.6662C169.709 20.6092 170.724 20.7799 171.665 21.1657C172.606 21.5515 173.449 22.1427 174.132 22.8961C175.524 24.5488 176.243 26.6656 176.144 28.8244V46.718H182.698V26.5945L182.48 25.3979C183.285 24.0034 184.437 22.8415 185.825 22.0259C187.123 21.1876 188.632 20.735 190.176 20.7206C191.189 20.6697 192.2 20.8404 193.139 21.2209C194.079 21.6014 194.924 22.1824 195.615 22.9233C197.014 24.5817 197.724 26.7128 197.6 28.8788L197.546 46.7724Z" fill="#24272A"/>
<path d="M241.165 47.1802H233.796V28.8787C233.898 26.8205 233.218 24.7997 231.892 23.2224C231.257 22.535 230.481 21.9922 229.618 21.6309C228.755 21.2697 227.824 21.0983 226.888 21.1284C225.385 21.1304 223.911 21.548 222.629 22.335C221.348 23.1221 220.309 24.2479 219.628 25.5882V47.3434H212.258V15.0098H219.628V19.1433C220.686 17.7606 222.019 16.6124 223.544 15.7712C225.333 14.7896 227.35 14.3016 229.39 14.3572C231.327 14.2139 233.264 14.6265 234.974 15.5467C236.685 16.4668 238.097 17.8561 239.044 19.5511C240.306 18.0195 241.859 16.7533 243.613 15.8256C245.443 14.844 247.491 14.339 249.568 14.3572C251.954 14.3058 254.314 14.8676 256.421 15.9888C258.367 17.0605 259.977 18.6515 261.071 20.5845C262.213 22.7044 262.785 25.0845 262.73 27.4918V47.1802H255.306V28.8787C255.423 26.8149 254.753 24.7835 253.43 23.1951C252.772 22.4941 251.968 21.9458 251.075 21.5887C250.183 21.2317 249.223 21.0746 248.263 21.1284C246.785 21.1432 245.343 21.577 244.102 22.3793C242.795 23.1637 241.71 24.268 240.948 25.5882L241.165 26.7032V47.1802Z" fill="#24272A"/>
<path d="M263.138 47.5881H254.98V28.8787C255.094 26.9081 254.463 24.9665 253.212 23.4399C252.587 22.7869 251.829 22.2763 250.989 21.9431C250.149 21.6099 249.247 21.4619 248.344 21.5091C246.945 21.5352 245.579 21.9494 244.401 22.7057C243.177 23.4092 242.142 24.3981 241.383 25.5882L241.546 26.54V47.561H233.388V28.8515C233.5 26.8766 232.859 24.9327 231.593 23.4127C231.003 22.7652 230.279 22.2545 229.471 21.9163C228.663 21.5781 227.791 21.4205 226.915 21.4547C225.466 21.4398 224.043 21.8358 222.809 22.5969C221.659 23.2946 220.719 24.2908 220.09 25.4795V47.5066H211.932V14.7107H220.09V18.1099C221.034 17.0335 222.145 16.1154 223.38 15.3905C225.234 14.3958 227.314 13.8992 229.417 13.9493C231.325 13.8219 233.233 14.2089 234.94 15.0699C236.648 15.9309 238.093 17.2343 239.126 18.8441C240.357 17.4747 241.821 16.3332 243.449 15.4721C245.334 14.4481 247.45 13.9239 249.595 13.9493C252.05 13.8866 254.478 14.4678 256.638 15.6353C258.658 16.7387 260.326 18.3878 261.452 20.3942C262.625 22.5729 263.215 25.0178 263.165 27.4918L263.138 47.5881ZM255.714 46.7723H262.322V27.4918C262.374 25.1575 261.811 22.8505 260.69 20.8021C259.655 18.9237 258.109 17.3773 256.231 16.3423C254.181 15.2569 251.887 14.7139 249.568 14.7651C247.566 14.7422 245.592 15.2288 243.83 16.1791C242.13 17.0949 240.617 18.3217 239.37 19.7959L238.99 20.2582L238.69 19.7415C237.781 18.0917 236.414 16.7395 234.755 15.8471C233.095 14.9548 231.214 14.5602 229.336 14.7107C227.373 14.6628 225.431 15.1317 223.707 16.0704C222.223 16.8682 220.932 17.9822 219.927 19.3336L219.165 20.367V15.3634H212.639V46.718H219.165V25.2347C219.861 23.8714 220.925 22.7311 222.238 21.9443C223.601 21.0974 225.175 20.6543 226.78 20.6661C227.795 20.6111 228.809 20.7826 229.75 21.1683C230.691 21.554 231.534 22.1442 232.218 22.896C233.611 24.5488 234.329 26.6655 234.231 28.8243V46.718H240.757V26.5944L240.567 25.3979C241.378 24.0388 242.519 22.9069 243.885 22.1074C245.182 21.2691 246.691 20.8165 248.236 20.8021C249.247 20.7549 250.257 20.9273 251.196 21.3076C252.135 21.6878 252.981 22.2668 253.674 23.0048C255.063 24.6686 255.773 26.7958 255.66 28.9603L255.714 46.7723Z" fill="#24272A"/>
<path d="M277.007 45.6303C274.508 44.1932 272.434 42.1195 270.997 39.6205C269.521 37.0385 268.761 34.1097 268.794 31.136C268.762 28.1451 269.522 25.199 270.997 22.5971C272.43 20.088 274.504 18.0047 277.007 16.56C279.592 15.1168 282.503 14.3591 285.464 14.3591C288.425 14.3591 291.336 15.1168 293.921 16.56C296.464 17.9893 298.577 20.074 300.04 22.5971C301.545 25.1892 302.325 28.1387 302.297 31.136C302.319 33.337 301.901 35.5203 301.068 37.5578C300.235 39.5952 299.004 41.4458 297.446 43.001C295.888 44.5562 294.035 45.7847 291.997 46.6145C289.958 47.4442 287.774 47.8585 285.573 47.8331C282.572 47.8808 279.613 47.12 277.007 45.6303ZM277.197 36.0309C278.013 37.4817 279.206 38.6845 280.651 39.5117C282.123 40.3584 283.793 40.7994 285.491 40.7898C287.182 40.8065 288.845 40.3648 290.305 39.5117C291.762 38.6574 292.968 37.4325 293.799 35.9614C294.63 34.4903 295.057 32.8254 295.036 31.136C295.052 29.4026 294.611 27.6956 293.758 26.1867C292.936 24.7339 291.744 23.5239 290.305 22.6786C288.852 21.8056 287.186 21.3537 285.491 21.3733C283.789 21.3599 282.115 21.8112 280.651 22.6786C279.199 23.5089 278.005 24.7226 277.197 26.1867C276.365 27.7028 275.934 29.4065 275.946 31.136C275.934 32.8482 276.365 34.5344 277.197 36.0309Z" fill="#24272A"/>
<path d="M285.491 48.2408C282.451 48.2716 279.457 47.4926 276.817 45.9837C274.236 44.5249 272.102 42.3908 270.643 39.8107C269.135 37.1706 268.356 34.1765 268.386 31.1358C268.355 28.0778 269.134 25.0661 270.643 22.4065C272.104 19.8138 274.237 17.6626 276.817 16.1791C280.762 13.8876 285.456 13.2564 289.867 14.4242C294.278 15.5919 298.044 18.463 300.339 22.4065C301.886 25.0188 302.721 27.9913 302.76 31.027C302.789 34.0746 301.99 37.0729 300.448 39.7019C298.975 42.2807 296.833 44.4135 294.248 45.875C291.597 47.4422 288.571 48.26 285.491 48.2408ZM285.491 14.765C282.63 14.7458 279.814 15.4872 277.333 16.9133C274.874 18.3079 272.842 20.3485 271.459 22.8144C270.05 25.3516 269.31 28.2062 269.31 31.1086C269.31 34.0111 270.05 36.8656 271.459 39.4028C272.858 41.8496 274.886 43.8777 277.333 45.2767C279.817 46.6956 282.631 47.4364 285.491 47.425C288.343 47.4553 291.152 46.7287 293.631 45.3194C296.111 43.9101 298.172 41.8685 299.605 39.4028C301.048 36.8766 301.807 34.0178 301.807 31.1086C301.807 28.1995 301.048 25.3406 299.605 22.8144C298.204 20.3533 296.165 18.3149 293.704 16.9133C291.216 15.4501 288.378 14.6889 285.491 14.7106V14.765ZM285.491 41.1976C283.725 41.2141 281.987 40.7538 280.461 39.8651C278.949 38.9981 277.699 37.7391 276.844 36.2211C275.959 34.6358 275.518 32.8417 275.566 31.027C275.545 29.2293 275.995 27.4574 276.871 25.8874C277.718 24.356 278.969 23.0863 280.488 22.2162C282.015 21.325 283.751 20.8554 285.519 20.8554C287.286 20.8554 289.023 21.325 290.549 22.2162C292.041 23.1004 293.277 24.3558 294.139 25.8602C295.033 27.4342 295.493 29.2172 295.472 31.027C295.495 32.8114 295.035 34.5688 294.139 36.1123C293.27 37.6107 292.035 38.8644 290.549 39.7563C289.028 40.6917 287.278 41.1903 285.491 41.1976ZM285.491 21.8083C283.869 21.7946 282.272 22.2172 280.868 23.032C279.49 23.8301 278.353 24.9858 277.578 26.3768C276.758 27.8277 276.336 29.4694 276.354 31.1358C276.333 32.7767 276.756 34.3927 277.578 35.8132C278.378 37.2384 279.566 38.4076 281.004 39.1852C282.409 39.9975 284.005 40.42 285.627 40.4089C287.242 40.4272 288.831 40.0041 290.223 39.1852C291.64 38.355 292.808 37.1604 293.607 35.7257C294.406 34.291 294.805 32.6685 294.765 31.027C294.786 29.3689 294.363 27.7352 293.541 26.2953C292.748 24.901 291.604 23.7386 290.223 22.9232C288.782 22.1152 287.142 21.7288 285.491 21.8083Z" fill="#24272A"/>
<path d="M315.704 19.2793C316.726 17.7293 318.143 16.4806 319.81 15.6626C322.317 14.483 325.129 14.1111 327.857 14.5983C330.585 15.0854 333.094 16.4075 335.039 18.3819C337.525 21.3177 338.799 25.0909 338.601 28.9332V47.2891H331.286V30.1025C331.413 27.8726 330.672 25.68 329.219 23.9839C328.517 23.2549 327.671 22.6802 326.735 22.2963C325.798 21.9123 324.792 21.7277 323.78 21.754C322.14 21.6924 320.514 22.0778 319.076 22.8689C317.682 23.6338 316.504 24.7374 315.649 26.0778V47.2075H308.28V15.0099H315.649L315.704 19.2793Z" fill="#24272A"/>
<path d="M339.009 47.5881H330.851V29.9936C330.981 27.8728 330.278 25.785 328.893 24.1741C328.221 23.4657 327.404 22.9098 326.499 22.5438C325.593 22.1779 324.62 22.0105 323.644 22.053C322.119 22.0445 320.618 22.4385 319.293 23.1951C318.002 23.9247 316.903 24.9498 316.084 26.1865V47.5881H307.926V14.7106H316.084V18.1371C317.063 17.0084 318.255 16.0842 319.592 15.4177C322.175 14.202 325.068 13.8109 327.881 14.2974C330.693 14.784 333.287 16.1246 335.311 18.1371C337.877 21.1622 339.19 25.0533 338.982 29.0147L339.009 47.5881ZM331.694 46.7723H338.112V28.8243C338.308 25.0835 337.074 21.4081 334.658 18.545C333.472 17.2818 332.027 16.29 330.421 15.6376C328.816 14.9851 327.089 14.6875 325.358 14.765C323.472 14.7566 321.611 15.1847 319.919 16.0159C318.315 16.8107 316.946 18.0106 315.948 19.4968L315.214 20.6661V15.4177H308.742V46.7723H315.296V25.9418C316.202 24.5535 317.422 23.3982 318.858 22.5697C320.312 21.757 321.952 21.3354 323.617 21.346C324.704 21.2997 325.788 21.487 326.797 21.8951C327.806 22.3032 328.715 22.9227 329.464 23.7118C330.978 25.4862 331.757 27.7726 331.639 30.1024L331.694 46.7723Z" fill="#24272A"/>
</g>
<path d="M355.081 46.7064H362.651L370.1 23.2091H370.463L377.852 46.7064H385.482L394.869 15.0335H388.086L381.606 39.1969H381.182L373.673 15.0335H366.951L359.381 39.1969H358.957L352.477 15.0335H345.755L355.081 46.7064Z" fill="#24272A"/>
<path d="M414.474 47.4937C422.286 47.4937 427.918 43.2545 429.553 37.1379H423.376C422.104 40.2265 418.653 42.1644 414.656 42.1644C408.842 42.1644 405.148 38.4097 404.905 32.8987H429.856V30.5369C429.856 21.5134 424.224 14.2462 414.353 14.2462C405.329 14.2462 398.547 20.9078 398.547 30.9608C398.547 40.4687 404.966 47.4937 414.474 47.4937ZM405.027 27.9933C405.511 23.0274 409.508 19.5755 414.353 19.5755C419.258 19.5755 423.134 22.6641 423.558 27.9933H405.027Z" fill="#24272A"/>
<path d="M451.32 47.4937C457.618 47.4937 460.707 43.4361 461.555 42.2249H461.918V46.7064H468.156V15.0335H461.797V19.6361H461.373C460.343 18.0009 457.073 14.2462 451.017 14.2462C442.175 14.2462 435.938 21.1501 435.938 30.9608C435.938 40.7715 442.236 47.4937 451.32 47.4937ZM452.228 41.7405C446.415 41.7405 442.418 37.5013 442.418 30.9002C442.418 24.5414 446.415 20.06 452.168 20.06C457.739 20.06 461.979 24.0569 461.979 30.9002C461.979 36.8957 458.284 41.7405 452.228 41.7405Z" fill="#24272A"/>
<path d="M485.445 46.7064H488.049V41.0743H486.716C485.142 41.0743 484.294 40.1659 484.294 38.4702V1.28638H477.935V38.8336C477.935 43.7995 480.66 46.7064 485.445 46.7064Z" fill="#24272A"/>
<path d="M508.358 46.7064H513.627V41.3165H509.327C505.997 41.3165 504.725 39.4997 504.725 36.4717V20.2417H513.93V15.0335H504.725V6.07062H498.729V13.035C498.729 14.3068 497.942 15.0941 496.852 15.0941H492.673V20.2417H498.366V36.6534C498.366 43.2545 502.121 46.7064 508.358 46.7064Z" fill="#24272A"/>
<path d="M522.082 46.7064H528.441V27.9328C528.441 23.4513 531.954 20.1811 536.253 20.1811C540.25 20.1811 543.46 23.1485 543.46 27.5694V46.7064H549.819V26.3582C549.819 19.5149 545.337 14.2462 538.131 14.2462C533.407 14.2462 530.137 16.6686 528.805 19.2727H528.381V1.28638H522.082V46.7064Z" fill="#24272A"/>
<path fillRule="evenodd" clipRule="evenodd" d="M354.632 47.3063L344.953 14.4334H352.937L359.197 37.7762L366.51 14.4334H374.115L381.368 37.7708L387.626 14.4334H395.673L385.93 47.3063H377.411L370.28 24.6264L363.09 47.3063H354.632ZM370.1 23.209H370.463L377.852 46.7063H385.482L394.869 15.0334H388.086L381.606 39.1968H381.182L373.673 15.0334H366.951L359.381 39.1968H358.957L352.477 15.0334H345.755L355.081 46.7063H362.651L370.1 23.209ZM430.335 36.5378L430.133 37.2928C428.417 43.7106 422.515 48.0936 414.474 48.0936C409.565 48.0936 405.423 46.2768 402.509 43.2055C399.599 40.1372 397.947 35.8508 397.947 30.9607C397.947 25.7963 399.691 21.4626 402.634 18.4166C405.578 15.3703 409.689 13.6461 414.353 13.6461C419.446 13.6461 423.489 15.5262 426.253 18.607C429.009 21.6796 430.456 25.903 430.456 30.5368V33.4986H405.549C405.775 35.843 406.679 37.783 408.109 39.167C409.662 40.6712 411.882 41.5643 414.656 41.5643C418.481 41.5643 421.667 39.7137 422.821 36.9094L422.974 36.5378H430.335ZM404.946 33.4986C405.422 38.6803 409.055 42.1643 414.656 42.1643C418.652 42.1643 422.104 40.2264 423.376 37.1378H429.553C429.499 37.3399 429.441 37.5399 429.378 37.7378C427.544 43.5298 422.028 47.4936 414.474 47.4936C404.966 47.4936 398.547 40.4686 398.547 30.9607C398.547 20.9077 405.329 14.2461 414.353 14.2461C424.224 14.2461 429.856 21.5133 429.856 30.5368V32.8986H404.905C404.914 33.101 404.928 33.301 404.946 33.4986ZM405.026 27.9932H423.558C423.542 27.79 423.52 27.59 423.494 27.3932C422.837 22.4328 419.071 19.5754 414.353 19.5754C409.706 19.5754 405.838 22.7515 405.103 27.3932C405.072 27.5906 405.046 27.7907 405.026 27.9932ZM405.711 27.3932H422.889C422.579 25.1811 421.616 23.4469 420.24 22.2364C418.728 20.9067 416.679 20.1754 414.353 20.1754C410.025 20.1754 406.436 23.1007 405.711 27.3932ZM461.797 15.0334H468.156V46.7063H461.918V42.2248H461.554C461.489 42.3183 461.41 42.4286 461.318 42.5528C460.211 44.0378 457.132 47.4936 451.32 47.4936C442.236 47.4936 435.938 40.7714 435.938 30.9607C435.938 21.15 442.175 14.2461 451.017 14.2461C456.763 14.2461 460.001 17.6257 461.197 19.3686C461.261 19.4627 461.32 19.5521 461.373 19.636H461.797V15.0334ZM461.197 18.3676V14.4334H468.756V47.3063H461.318V43.5185C459.863 45.2484 456.71 48.0936 451.32 48.0936C446.623 48.0936 442.615 46.3521 439.783 43.3153C436.955 40.2817 435.338 35.9951 435.338 30.9607C435.338 25.9285 436.938 21.6 439.716 18.5224C442.498 15.4404 446.431 13.6461 451.017 13.6461C456.365 13.6461 459.646 16.4489 461.197 18.3676ZM445.585 38.3904C447.188 40.1404 449.474 41.1404 452.228 41.1404C455.083 41.1404 457.353 40.0043 458.919 38.1781C460.492 36.3428 461.378 33.7782 461.378 30.9001C461.378 27.6038 460.36 25.0507 458.727 23.3263C457.095 21.6031 454.806 20.6599 452.168 20.6599C449.456 20.6599 447.183 21.7118 445.582 23.4961C443.976 25.2853 443.018 27.8457 443.018 30.9001C443.018 34.0801 443.979 36.6361 445.585 38.3904ZM488.649 47.3063H485.444C482.929 47.3063 480.879 46.5389 479.461 45.0452C478.047 43.556 477.335 41.4226 477.335 38.8335V0.686279H484.894V38.4701C484.894 39.2254 485.083 39.708 485.354 39.9992C485.618 40.2833 486.044 40.4742 486.716 40.4742H488.649V47.3063ZM488.049 46.7063H485.444C480.66 46.7063 477.935 43.7994 477.935 38.8335V1.28628H484.294V38.4701C484.294 40.1658 485.142 41.0742 486.716 41.0742H488.049V46.7063ZM514.227 47.3063H508.358C505.132 47.3063 502.464 46.4121 500.603 44.5832C498.739 42.7524 497.766 40.0665 497.766 36.6533V20.8416H492.073V14.494H496.852C497.247 14.494 497.552 14.3547 497.761 14.1313C497.973 13.9054 498.129 13.5463 498.129 13.0349V5.47052H505.325V14.4334H514.53V20.8416H505.325V36.4716C505.325 37.9167 505.631 38.9562 506.227 39.6327C506.81 40.2941 507.769 40.7164 509.327 40.7164H514.227V47.3063ZM513.93 20.2416H504.725V36.4716C504.725 39.4996 505.997 41.3164 509.327 41.3164H513.627V46.7063H508.358C502.121 46.7063 498.366 43.2544 498.366 36.6533V20.2416H492.673V15.094H496.852C497.942 15.094 498.729 14.3067 498.729 13.0349V6.07052H504.725V15.0334H513.93V20.2416ZM521.482 47.3063V0.686279H528.981V17.8572C530.699 15.5319 533.876 13.6461 538.131 13.6461C541.888 13.6461 544.974 15.0239 547.117 17.3272C549.255 19.6254 550.419 22.8061 550.419 26.3581V47.3063H542.86V27.5693C542.86 23.4831 539.922 20.781 536.253 20.781C532.27 20.781 529.041 23.7978 529.041 27.9327V47.3063H521.482ZM528.981 18.9491C528.919 19.0565 528.86 19.1644 528.804 19.2726H528.381V1.28628H522.082V46.7063H528.441V27.9327C528.441 23.4512 531.954 20.181 536.253 20.181C540.25 20.181 543.46 23.1484 543.46 27.5693V46.7063H549.819V26.3581C549.819 19.5148 545.337 14.2461 538.131 14.2461C533.603 14.2461 530.411 16.4714 528.981 18.9491ZM442.418 30.9001C442.418 37.5012 446.414 41.7404 452.228 41.7404C458.284 41.7404 461.978 36.8956 461.978 30.9001C461.978 24.0568 457.739 20.0599 452.168 20.0599C446.414 20.0599 442.418 24.5413 442.418 30.9001Z" fill="#24272A"/>
<defs>
<clipPath id="clip0_426_22478">
<rect width="339" height="45" fill="white" transform="translate(0.00878906 8)"/>
</clipPath>
</defs>
</svg>
