<svg width="320" height="200" viewBox="0 0 320 200" fill="none" xmlns="http://www.w3.org/2000/svg">
<g clip-path="url(#clip0_2074_231)">
<rect width="320" height="200" fill="black"/>
<path d="M193.25 103.874C193.25 122.237 208.137 137.124 226.5 137.124L226.5 103.874L193.25 103.874Z" fill="white"/>
<path d="M160 137.124C178.363 137.124 193.25 122.237 193.25 103.874L126.75 103.874C126.75 122.237 141.637 137.124 160 137.124Z" fill="white"/>
<path d="M93.5 137.124C111.863 137.124 126.75 122.237 126.75 103.874L93.5 103.874L93.5 137.124Z" fill="white"/>
<path d="M52.25 137.124C70.6134 137.124 85.5 122.237 85.5 103.874L52.25 103.874L52.25 137.124Z" fill="white"/>
<path d="M52.25 137.124C33.8866 137.124 19 122.237 19 103.874L52.25 103.874L52.25 137.124Z" fill="white"/>
<path d="M19 103.874C19 85.5101 33.8865 70.6236 52.25 70.6236L52.25 103.874L19 103.874Z" fill="white"/>
<path d="M85.5 103.874C85.5 85.5101 70.6135 70.6236 52.25 70.6236L52.25 103.874L85.5 103.874Z" fill="white"/>
<path d="M126.75 103.874C126.75 85.5101 111.863 70.6236 93.5 70.6236L93.5 103.874L126.75 103.874Z" fill="white"/>
<path d="M160 70.6236C141.637 70.6236 126.75 85.5101 126.75 103.874L193.25 103.874C193.25 85.5101 178.363 70.6236 160 70.6236Z" fill="white"/>
<path d="M226.5 70.6236C208.137 70.6236 193.25 85.5101 193.25 103.874L226.5 103.874L226.5 70.6236Z" fill="white"/>
<path d="M126.75 70.25C126.75 51.8865 111.863 37 93.5 37L93.5 70.25L126.75 70.25Z" fill="white"/>
<path d="M160 37C141.637 37 126.75 51.8865 126.75 70.25L193.25 70.25C193.25 51.8865 178.363 37 160 37Z" fill="white"/>
<path d="M226.5 37C208.137 37 193.25 51.8865 193.25 70.25L226.5 70.25L226.5 37Z" fill="white"/>
<g style="mix-blend-mode:multiply">
<path d="M235 103.874C235 122.237 249.887 137.124 268.25 137.124L268.25 103.874L235 103.874Z" fill="white"/>
</g>
<g style="mix-blend-mode:multiply">
<path d="M268.25 103.874C268.25 122.237 283.137 137.124 301.5 137.124L301.5 103.874L268.25 103.874Z" fill="white"/>
</g>
<g style="mix-blend-mode:multiply">
<path d="M235 137.124C235 155.487 249.887 170.374 268.25 170.374L268.25 137.124L235 137.124Z" fill="white"/>
</g>
<g style="mix-blend-mode:multiply">
<path d="M268.25 137.124C268.25 155.487 283.137 170.374 301.5 170.374L301.5 137.124L268.25 137.124Z" fill="white"/>
</g>
<path d="M193.25 136.75C193.25 155.113 208.137 170 226.5 170L226.5 136.75L193.25 136.75Z" fill="white"/>
<path d="M160 170C178.363 170 193.25 155.113 193.25 136.75L126.75 136.75C126.75 155.113 141.637 170 160 170Z" fill="white"/>
<path d="M93.5 170C111.863 170 126.75 155.113 126.75 136.75L93.5 136.75L93.5 170Z" fill="white"/>
<path d="M52.25 170C70.6134 170 85.5 155.113 85.5 136.75L52.25 136.75L52.25 170Z" fill="white"/>
<path d="M52.25 170C33.8866 170 19 155.113 19 136.75L52.25 136.75L52.25 170Z" fill="white"/>
<rect x="268" y="104" width="33.25" height="66.5" fill="white"/>
<mask id="mask0_2074_231" style="mask-type:alpha" maskUnits="userSpaceOnUse" x="19" y="37" width="284" height="134">
<g style="mix-blend-mode:multiply">
<path d="M193.25 103.874C193.25 122.237 208.137 137.124 226.5 137.124L226.5 103.874L193.25 103.874Z" fill="#0079CC"/>
</g>
<g style="mix-blend-mode:multiply">
<path d="M160 137.124C178.363 137.124 193.25 122.237 193.25 103.874L126.75 103.874C126.75 122.237 141.637 137.124 160 137.124Z" fill="#DE2F00"/>
</g>
<g style="mix-blend-mode:multiply">
<path d="M93.5 137.124C111.863 137.124 126.75 122.237 126.75 103.874L93.5 103.874L93.5 137.124Z" fill="#E76200"/>
</g>
<g style="mix-blend-mode:multiply">
<path d="M52.25 137.124C70.6134 137.124 85.5 122.237 85.5 103.874L52.25 103.874L52.25 137.124Z" fill="#E76200"/>
</g>
<g style="mix-blend-mode:multiply">
<path d="M52.25 137.124C33.8866 137.124 19 122.237 19 103.874L52.25 103.874L52.25 137.124Z" fill="#E76200"/>
</g>
<g style="mix-blend-mode:multiply">
<path d="M19 103.874C19 85.5101 33.8865 70.6236 52.25 70.6236L52.25 103.874L19 103.874Z" fill="#0079CC"/>
</g>
<g style="mix-blend-mode:multiply">
<path d="M85.5 103.874C85.5 85.5101 70.6135 70.6236 52.25 70.6236L52.25 103.874L85.5 103.874Z" fill="#0079CC"/>
</g>
<g style="mix-blend-mode:multiply">
<path d="M126.75 103.874C126.75 85.5101 111.863 70.6236 93.5 70.6236L93.5 103.874L126.75 103.874Z" fill="#0079CC"/>
</g>
<g style="mix-blend-mode:multiply">
<path d="M160 70.6236C141.637 70.6236 126.75 85.5101 126.75 103.874L193.25 103.874C193.25 85.5101 178.363 70.6236 160 70.6236Z" fill="#DE2F00"/>
</g>
<g style="mix-blend-mode:multiply">
<path d="M226.5 70.6236C208.137 70.6236 193.25 85.5101 193.25 103.874L226.5 103.874L226.5 70.6236Z" fill="#E76200"/>
</g>
<g style="mix-blend-mode:multiply">
<path d="M126.75 70.25C126.75 51.8865 111.863 37 93.5 37L93.5 70.25L126.75 70.25Z" fill="#0079CC"/>
</g>
<g style="mix-blend-mode:multiply">
<path d="M160 37C141.637 37 126.75 51.8865 126.75 70.25L193.25 70.25C193.25 51.8865 178.363 37 160 37Z" fill="#DE2F00"/>
</g>
<g style="mix-blend-mode:multiply">
<path d="M226.5 37C208.137 37 193.25 51.8865 193.25 70.25L226.5 70.25L226.5 37Z" fill="#E76200"/>
</g>
<g style="mix-blend-mode:multiply">
<path d="M235 103.874C235 122.237 249.887 137.124 268.25 137.124L268.25 103.874L235 103.874Z" fill="#0079CC"/>
</g>
<g style="mix-blend-mode:multiply">
<path d="M268.25 103.874C268.25 122.237 283.137 137.124 301.5 137.124L301.5 103.874L268.25 103.874Z" fill="#0079CC"/>
</g>
<g style="mix-blend-mode:multiply">
<path d="M235 137.124C235 155.487 249.887 170.374 268.25 170.374L268.25 137.124L235 137.124Z" fill="#0079CC"/>
</g>
<g style="mix-blend-mode:multiply">
<path d="M268.25 137.124C268.25 155.487 283.137 170.374 301.5 170.374L301.5 137.124L268.25 137.124Z" fill="#0079CC"/>
</g>
<g style="mix-blend-mode:multiply">
<path d="M193.25 136.75C193.25 155.113 208.137 170 226.5 170L226.5 136.75L193.25 136.75Z" fill="#0079CC"/>
</g>
<g style="mix-blend-mode:multiply">
<path d="M160 170C178.363 170 193.25 155.113 193.25 136.75L126.75 136.75C126.75 155.113 141.637 170 160 170Z" fill="#DE2F00"/>
</g>
<g style="mix-blend-mode:multiply">
<path d="M93.5 170C111.863 170 126.75 155.113 126.75 136.75L93.5 136.75L93.5 170Z" fill="#E76200"/>
</g>
<g style="mix-blend-mode:multiply">
<path d="M52.25 170C70.6134 170 85.5 155.113 85.5 136.75L52.25 136.75L52.25 170Z" fill="#E76200"/>
</g>
<g style="mix-blend-mode:multiply">
<path d="M52.25 170C33.8866 170 19 155.113 19 136.75L52.25 136.75L52.25 170Z" fill="#E76200"/>
</g>
<rect x="268" y="104" width="33.25" height="66.5" fill="#FF80D7"/>
</mask>
<g mask="url(#mask0_2074_231)">
<g style="mix-blend-mode:multiply" filter="url(#filter0_f_2074_231)">
<circle cx="68.8104" cy="131.716" r="77.4406" transform="rotate(-115.806 68.8104 131.716)" fill="#0079CC"/>
</g>
<g style="mix-blend-mode:multiply" filter="url(#filter1_f_2074_231)">
<ellipse cx="213.502" cy="127.779" rx="156.517" ry="154.881" transform="rotate(-115.806 213.502 127.779)" fill="#FF80D7"/>
</g>
<g style="mix-blend-mode:multiply" filter="url(#filter2_f_2074_231)">
<circle cx="152.391" cy="8.91601" r="116.706" transform="rotate(-25.806 152.391 8.91601)" fill="#FF1000"/>
</g>
</g>
<g style="mix-blend-mode:overlay">
<rect x="18" y="70" width="70" height="104" fill="url(#paint0_linear_2074_231)"/>
</g>
<g style="mix-blend-mode:overlay">
<rect x="233" y="104" width="70" height="104" fill="url(#paint1_linear_2074_231)"/>
</g>
<mask id="mask1_2074_231" style="mask-type:alpha" maskUnits="userSpaceOnUse" x="19" y="37" width="284" height="134">
<g style="mix-blend-mode:multiply">
<path d="M193.25 103.874C193.25 122.237 208.137 137.124 226.5 137.124L226.5 103.874L193.25 103.874Z" fill="#0079CC"/>
</g>
<g style="mix-blend-mode:multiply">
<path d="M160 137.124C178.363 137.124 193.25 122.237 193.25 103.874L126.75 103.874C126.75 122.237 141.637 137.124 160 137.124Z" fill="#DE2F00"/>
</g>
<g style="mix-blend-mode:multiply">
<path d="M93.5 137.124C111.863 137.124 126.75 122.237 126.75 103.874L93.5 103.874L93.5 137.124Z" fill="#E76200"/>
</g>
<g style="mix-blend-mode:multiply">
<path d="M52.25 137.124C70.6134 137.124 85.5 122.237 85.5 103.874L52.25 103.874L52.25 137.124Z" fill="#E76200"/>
</g>
<g style="mix-blend-mode:multiply">
<path d="M52.25 137.124C33.8866 137.124 19 122.237 19 103.874L52.25 103.874L52.25 137.124Z" fill="#E76200"/>
</g>
<g style="mix-blend-mode:multiply">
<path d="M19 103.874C19 85.5101 33.8865 70.6236 52.25 70.6236L52.25 103.874L19 103.874Z" fill="#0079CC"/>
</g>
<g style="mix-blend-mode:multiply">
<path d="M85.5 103.874C85.5 85.5101 70.6135 70.6236 52.25 70.6236L52.25 103.874L85.5 103.874Z" fill="#0079CC"/>
</g>
<g style="mix-blend-mode:multiply">
<path d="M126.75 103.874C126.75 85.5101 111.863 70.6236 93.5 70.6236L93.5 103.874L126.75 103.874Z" fill="#0079CC"/>
</g>
<g style="mix-blend-mode:multiply">
<path d="M160 70.6236C141.637 70.6236 126.75 85.5101 126.75 103.874L193.25 103.874C193.25 85.5101 178.363 70.6236 160 70.6236Z" fill="#DE2F00"/>
</g>
<g style="mix-blend-mode:multiply">
<path d="M226.5 70.6236C208.137 70.6236 193.25 85.5101 193.25 103.874L226.5 103.874L226.5 70.6236Z" fill="#E76200"/>
</g>
<g style="mix-blend-mode:multiply">
<path d="M126.75 70.25C126.75 51.8865 111.863 37 93.5 37L93.5 70.25L126.75 70.25Z" fill="#0079CC"/>
</g>
<g style="mix-blend-mode:multiply">
<path d="M160 37C141.637 37 126.75 51.8865 126.75 70.25L193.25 70.25C193.25 51.8865 178.363 37 160 37Z" fill="#DE2F00"/>
</g>
<g style="mix-blend-mode:multiply">
<path d="M226.5 37C208.137 37 193.25 51.8865 193.25 70.25L226.5 70.25L226.5 37Z" fill="#E76200"/>
</g>
<g style="mix-blend-mode:multiply">
<path d="M235 103.874C235 122.237 249.887 137.124 268.25 137.124L268.25 103.874L235 103.874Z" fill="#0079CC"/>
</g>
<g style="mix-blend-mode:multiply">
<path d="M268.25 103.874C268.25 122.237 283.137 137.124 301.5 137.124L301.5 103.874L268.25 103.874Z" fill="#0079CC"/>
</g>
<g style="mix-blend-mode:multiply">
<path d="M235 137.124C235 155.487 249.887 170.374 268.25 170.374L268.25 137.124L235 137.124Z" fill="#0079CC"/>
</g>
<g style="mix-blend-mode:multiply">
<path d="M268.25 137.124C268.25 155.487 283.137 170.374 301.5 170.374L301.5 137.124L268.25 137.124Z" fill="#0079CC"/>
</g>
<g style="mix-blend-mode:multiply">
<path d="M193.25 136.75C193.25 155.113 208.137 170 226.5 170L226.5 136.75L193.25 136.75Z" fill="#0079CC"/>
</g>
<g style="mix-blend-mode:multiply">
<path d="M160 170C178.363 170 193.25 155.113 193.25 136.75L126.75 136.75C126.75 155.113 141.637 170 160 170Z" fill="#DE2F00"/>
</g>
<g style="mix-blend-mode:multiply">
<path d="M93.5 170C111.863 170 126.75 155.113 126.75 136.75L93.5 136.75L93.5 170Z" fill="#E76200"/>
</g>
<g style="mix-blend-mode:multiply">
<path d="M52.25 170C70.6134 170 85.5 155.113 85.5 136.75L52.25 136.75L52.25 170Z" fill="#E76200"/>
</g>
<g style="mix-blend-mode:multiply">
<path d="M52.25 170C33.8866 170 19 155.113 19 136.75L52.25 136.75L52.25 170Z" fill="#E76200"/>
</g>
<rect x="268" y="104" width="33.25" height="66.5" fill="#FF80D7"/>
</mask>
<g mask="url(#mask1_2074_231)">
<g style="mix-blend-mode:screen">
<rect x="89" y="37" width="142" height="104" fill="url(#paint2_linear_2074_231)"/>
</g>
</g>
</g>
<defs>
<filter id="filter0_f_2074_231" x="-52.5475" y="10.3576" width="242.716" height="242.717" filterUnits="userSpaceOnUse" color-interpolation-filters="sRGB">
<feFlood flood-opacity="0" result="BackgroundImageFix"/>
<feBlend mode="normal" in="SourceGraphic" in2="BackgroundImageFix" result="shape"/>
<feGaussianBlur stdDeviation="21.95" result="effect1_foregroundBlur_2074_231"/>
</filter>
<filter id="filter1_f_2074_231" x="14.3744" y="-72.3656" width="398.256" height="400.289" filterUnits="userSpaceOnUse" color-interpolation-filters="sRGB">
<feFlood flood-opacity="0" result="BackgroundImageFix"/>
<feBlend mode="normal" in="SourceGraphic" in2="BackgroundImageFix" result="shape"/>
<feGaussianBlur stdDeviation="21.95" result="effect1_foregroundBlur_2074_231"/>
</filter>
<filter id="filter2_f_2074_231" x="-8.2418" y="-151.717" width="321.266" height="321.266" filterUnits="userSpaceOnUse" color-interpolation-filters="sRGB">
<feFlood flood-opacity="0" result="BackgroundImageFix"/>
<feBlend mode="normal" in="SourceGraphic" in2="BackgroundImageFix" result="shape"/>
<feGaussianBlur stdDeviation="21.95" result="effect1_foregroundBlur_2074_231"/>
</filter>
<linearGradient id="paint0_linear_2074_231" x1="53" y1="70" x2="53" y2="174" gradientUnits="userSpaceOnUse">
<stop stop-color="white"/>
<stop offset="0.5" stop-color="#141111" stop-opacity="0"/>
</linearGradient>
<linearGradient id="paint1_linear_2074_231" x1="268" y1="104" x2="268" y2="208" gradientUnits="userSpaceOnUse">
<stop stop-color="white"/>
<stop offset="0.5" stop-color="#141111" stop-opacity="0"/>
</linearGradient>
<linearGradient id="paint2_linear_2074_231" x1="160" y1="37" x2="160" y2="141" gradientUnits="userSpaceOnUse">
<stop stop-color="white"/>
<stop offset="0.5" stop-color="#141111" stop-opacity="0"/>
</linearGradient>
<clipPath id="clip0_2074_231">
<rect width="320" height="200" fill="white"/>
</clipPath>
</defs>
</svg>
