<?xml version="1.0" encoding="UTF-8"?>
<svg xmlns="http://www.w3.org/2000/svg" xmlns:xlink="http://www.w3.org/1999/xlink" width="384pt" height="384pt" viewBox="0 0 384 384" version="1.1">
    <g id="surface1">
        <path style=" stroke:none;fillRule:nonzero;fill:rgb(30.196078%,30.196078%,30.196078%);fill-opacity:1;" d="M 243.96875 206.394531 L 140.027344 206.394531 C 140.027344 177.691406 163.296875 154.417969 192.003906 154.417969 C 220.707031 154.417969 243.96875 177.691406 243.96875 206.394531 Z M 243.96875 206.394531 "/>
        <path style=" stroke:none;fillRule:nonzero;fill:rgb(30.196078%,30.196078%,30.196078%);fill-opacity:1;" d="M 147.949219 89.664062 C 160.847656 89.664062 171.304688 100.113281 171.304688 113.011719 C 171.304688 125.90625 160.847656 136.363281 147.949219 136.363281 C 135.054688 136.363281 124.605469 125.90625 124.605469 113.011719 C 124.605469 100.113281 135.054688 89.664062 147.949219 89.664062 Z M 147.949219 89.664062 "/>
        <path style=" stroke:none;fillRule:nonzero;fill:rgb(30.196078%,30.196078%,30.196078%);fill-opacity:1;" d="M 236.042969 89.664062 C 248.941406 89.664062 259.390625 100.113281 259.390625 113.011719 C 259.390625 125.90625 248.941406 136.363281 236.042969 136.363281 C 223.144531 136.363281 212.695312 125.90625 212.695312 113.011719 C 212.695312 100.113281 223.144531 89.664062 236.042969 89.664062 Z M 236.042969 89.664062 "/>
        <path style=" stroke:none;fillRule:nonzero;fill:rgb(90.196078%,90.196078%,90.196078%);fill-opacity:1;" d="M 311.015625 125.898438 L 311.015625 345.363281 C 311.015625 360.148438 293.925781 368.394531 282.351562 359.1875 L 282.351562 359.175781 C 275.910156 354.058594 266.785156 354.058594 260.34375 359.175781 L 242.675781 373.238281 C 236.234375 378.367188 227.117188 378.367188 220.679688 373.238281 L 203.011719 359.175781 C 196.570312 354.058594 187.441406 354.058594 181.003906 359.175781 L 163.335938 373.25 C 156.894531 378.367188 147.777344 378.367188 141.339844 373.25 L 123.660156 359.175781 C 117.222656 354.058594 108.09375 354.058594 101.65625 359.175781 L 101.644531 359.1875 C 90.078125 368.394531 72.980469 360.160156 72.980469 345.363281 L 72.980469 125.898438 C 72.980469 60.164062 126.269531 6.882812 192.003906 6.882812 C 224.863281 6.882812 254.621094 20.203125 276.160156 41.742188 C 297.695312 63.273438 311.015625 93.03125 311.015625 125.898438 Z M 259.390625 113.011719 C 259.390625 100.113281 248.941406 89.664062 236.042969 89.664062 C 223.144531 89.664062 212.695312 100.113281 212.695312 113.011719 C 212.695312 125.90625 223.144531 136.363281 236.042969 136.363281 C 248.941406 136.363281 259.390625 125.90625 259.390625 113.011719 Z M 140.027344 206.394531 L 243.96875 206.394531 C 243.96875 177.691406 220.707031 154.417969 192.003906 154.417969 C 163.300781 154.417969 140.027344 177.691406 140.027344 206.394531 Z M 171.308594 113.011719 C 171.308594 100.113281 160.847656 89.664062 147.953125 89.664062 C 135.054688 89.664062 124.605469 100.113281 124.605469 113.011719 C 124.605469 125.90625 135.054688 136.363281 147.953125 136.363281 C 160.847656 136.367188 171.308594 125.90625 171.308594 113.011719 Z M 171.308594 113.011719 "/>
        <path style=" stroke:none;fillRule:nonzero;fill:rgb(80%,80%,80%);fill-opacity:1;" d="M 212.183594 8.589844 C 205.625 7.472656 198.882812 6.882812 192.003906 6.882812 C 126.265625 6.882812 72.976562 60.160156 72.976562 125.898438 L 72.976562 345.363281 C 72.976562 360.160156 90.078125 368.394531 101.644531 359.1875 L 101.652344 359.175781 C 106.003906 355.71875 111.578125 354.601562 116.726562 355.808594 C 114.617188 352.964844 113.339844 349.40625 113.339844 345.363281 L 113.339844 125.898438 C 113.339844 67.042969 156.0625 18.167969 212.183594 8.589844 Z M 212.183594 8.589844 "/>
        <path style=" stroke:none;fillRule:nonzero;fill:rgb(20%,20%,20%);fill-opacity:1;" d="M 192 0 C 122.578125 0 66.101562 56.476562 66.101562 125.898438 L 66.101562 345.363281 C 66.101562 354.871094 71.421875 363.34375 79.984375 367.472656 C 88.550781 371.601562 98.492188 370.492188 105.933594 364.570312 C 105.941406 364.5625 105.953125 364.554688 105.964844 364.546875 C 109.917969 361.414062 115.429688 361.417969 119.375 364.5625 L 137.050781 378.628906 C 141.550781 382.210938 146.941406 384 152.335938 384 C 157.730469 384 163.121094 382.210938 167.621094 378.628906 L 185.289062 364.5625 C 189.246094 361.414062 194.769531 361.414062 198.726562 364.5625 L 216.390625 378.625 C 225.390625 385.789062 237.964844 385.792969 246.964844 378.625 L 264.632812 364.566406 C 268.585938 361.414062 274.113281 361.414062 278.066406 364.566406 C 285.507812 370.488281 295.449219 371.597656 304.015625 367.46875 C 312.578125 363.339844 317.898438 354.867188 317.898438 345.359375 L 317.898438 125.898438 C 317.898438 56.476562 261.417969 0 192 0 Z M 304.136719 345.359375 C 304.136719 349.601562 301.855469 353.234375 298.035156 355.074219 C 294.214844 356.917969 289.953125 356.441406 286.632812 353.796875 C 277.632812 346.636719 265.0625 346.636719 256.058594 353.796875 L 238.394531 367.859375 C 234.441406 371.007812 228.914062 371.007812 224.957031 367.859375 L 207.292969 353.796875 C 198.292969 346.632812 185.71875 346.632812 176.71875 353.796875 L 159.050781 367.863281 C 155.097656 371.007812 149.574219 371.007812 145.617188 367.863281 L 127.941406 353.796875 C 123.441406 350.214844 118.050781 348.425781 112.65625 348.425781 C 107.265625 348.425781 101.871094 350.214844 97.371094 353.796875 C 97.363281 353.804688 97.351562 353.8125 97.34375 353.820312 C 94.027344 356.445312 89.773438 356.917969 85.960938 355.078125 C 82.140625 353.238281 79.859375 349.605469 79.859375 345.363281 L 79.859375 125.898438 C 79.859375 64.066406 130.164062 13.761719 192 13.761719 C 253.832031 13.761719 304.136719 64.066406 304.136719 125.898438 Z M 304.136719 345.359375 "/>
        <path style=" stroke:none;fillRule:nonzero;fill:rgb(20%,20%,20%);fill-opacity:1;" d="M 178.183594 113.011719 C 178.183594 96.34375 164.621094 82.78125 147.953125 82.78125 C 131.285156 82.78125 117.722656 96.34375 117.722656 113.011719 C 117.722656 129.679688 131.285156 143.242188 147.953125 143.242188 C 164.621094 143.242188 178.183594 129.679688 178.183594 113.011719 Z M 131.484375 113.011719 C 131.484375 103.929688 138.871094 96.542969 147.953125 96.542969 C 157.035156 96.542969 164.421875 103.929688 164.421875 113.011719 C 164.421875 122.09375 157.035156 129.480469 147.953125 129.480469 C 138.871094 129.480469 131.484375 122.09375 131.484375 113.011719 Z M 131.484375 113.011719 "/>
        <path style=" stroke:none;fillRule:nonzero;fill:rgb(20%,20%,20%);fill-opacity:1;" d="M 236.042969 82.78125 C 219.375 82.78125 205.816406 96.34375 205.816406 113.011719 C 205.816406 129.679688 219.375 143.242188 236.042969 143.242188 C 252.710938 143.242188 266.273438 129.679688 266.273438 113.011719 C 266.273438 96.34375 252.710938 82.78125 236.042969 82.78125 Z M 236.042969 129.480469 C 226.960938 129.480469 219.574219 122.09375 219.574219 113.011719 C 219.574219 103.929688 226.960938 96.542969 236.042969 96.542969 C 245.125 96.542969 252.515625 103.929688 252.515625 113.011719 C 252.515625 122.09375 245.125 129.480469 236.042969 129.480469 Z M 236.042969 129.480469 "/>
        <path style=" stroke:none;fillRule:nonzero;fill:rgb(20%,20%,20%);fill-opacity:1;" d="M 192 147.542969 C 159.550781 147.542969 133.152344 173.941406 133.152344 206.390625 C 133.152344 210.191406 136.230469 213.269531 140.03125 213.269531 L 243.96875 213.269531 C 247.769531 213.269531 250.847656 210.191406 250.847656 206.390625 C 250.847656 173.941406 224.449219 147.542969 192 147.542969 Z M 147.433594 199.511719 C 150.757812 177.902344 169.476562 161.300781 192 161.300781 C 214.523438 161.300781 233.242188 177.902344 236.566406 199.511719 Z M 147.433594 199.511719 "/>
    </g>
</svg>
