<svg width="170" height="55" viewBox="0 0 170 55" fill="none" xmlns="http://www.w3.org/2000/svg">
<rect x="0.5" y="0.5" width="169" height="53.9217" rx="5.5" stroke="#E0DFE1"/>
<path d="M12.76 19V13.304H14.712C15.3573 13.304 15.8507 13.4587 16.192 13.768C16.5333 14.072 16.704 14.4907 16.704 15.024C16.704 15.5573 16.5333 15.9787 16.192 16.288C15.8507 16.592 15.3573 16.744 14.712 16.744H13.496V19H12.76ZM14.656 13.944H13.496V16.104H14.656C15.0827 16.104 15.4027 16.0107 15.616 15.824C15.8347 15.632 15.944 15.3653 15.944 15.024C15.944 14.6827 15.8347 14.4187 15.616 14.232C15.4027 14.04 15.0827 13.944 14.656 13.944ZM18.2078 13.992C18.6718 13.4587 19.3011 13.192 20.0958 13.192C20.8905 13.192 21.5198 13.4587 21.9838 13.992C22.4478 14.5253 22.6798 15.2453 22.6798 16.152C22.6798 17.0587 22.4478 17.7787 21.9838 18.312C21.5198 18.8453 20.8905 19.112 20.0958 19.112C19.3011 19.112 18.6718 18.8453 18.2078 18.312C17.7438 17.7787 17.5118 17.0587 17.5118 16.152C17.5118 15.2453 17.7438 14.5253 18.2078 13.992ZM20.0958 13.864C19.5358 13.864 19.0931 14.0693 18.7678 14.48C18.4425 14.8907 18.2798 15.448 18.2798 16.152C18.2798 16.856 18.4425 17.4133 18.7678 17.824C19.0931 18.2347 19.5358 18.44 20.0958 18.44C20.6505 18.44 21.0905 18.2347 21.4158 17.824C21.7465 17.408 21.9118 16.8507 21.9118 16.152C21.9118 15.4533 21.7465 14.8987 21.4158 14.488C21.0905 14.072 20.6505 13.864 20.0958 13.864ZM30.4117 13.304L29.0837 19H28.0278L27.4278 16.512C27.2091 15.6107 27.0117 14.76 26.8357 13.96H26.8197C26.6437 14.76 26.4464 15.6107 26.2277 16.512L25.6277 19H24.5717L23.2437 13.304H23.9797L24.5157 15.608C24.6384 16.1307 24.8357 17.024 25.1077 18.288H25.1237C25.3637 17.2107 25.5744 16.3147 25.7557 15.6L26.3157 13.304H27.3397L27.8997 15.6C28.0811 16.3147 28.2917 17.2107 28.5317 18.288H28.5477C28.7131 17.4827 28.9104 16.5893 29.1398 15.608L29.6757 13.304H30.4117ZM35.0057 13.304V13.96H32.0697V15.76H34.8377V16.408H32.0697V18.344H35.0937V19H31.3337V13.304H35.0057ZM36.4391 19V13.304H38.2471C38.9191 13.304 39.4204 13.4373 39.7511 13.704C40.0817 13.9707 40.2471 14.352 40.2471 14.848C40.2471 15.2107 40.1484 15.52 39.9511 15.776C39.7537 16.032 39.4897 16.1973 39.1591 16.272V16.288C39.3671 16.352 39.5297 16.4587 39.6471 16.608C39.7644 16.7573 39.8871 17.008 40.0151 17.36L40.5991 19H39.7991L39.2791 17.496C39.1617 17.1547 39.0231 16.92 38.8631 16.792C38.7084 16.664 38.4791 16.6 38.1751 16.6H37.1751V19H36.4391ZM38.1911 13.936H37.1751V15.976H38.2391C38.6657 15.976 38.9804 15.88 39.1831 15.688C39.3911 15.4907 39.4951 15.2293 39.4951 14.904C39.4951 14.2587 39.0604 13.936 38.1911 13.936ZM45.3882 13.304V13.96H42.4522V15.76H45.2202V16.408H42.4522V18.344H45.4762V19H41.7162V13.304H45.3882ZM46.8216 19V13.304H48.5576C49.5016 13.304 50.2296 13.552 50.7416 14.048C51.2536 14.5387 51.5096 15.24 51.5096 16.152C51.5096 17.064 51.2536 17.768 50.7416 18.264C50.2296 18.7547 49.5016 19 48.5576 19H46.8216ZM48.5496 13.96H47.5576V18.344H48.5496C49.2589 18.344 49.8002 18.1573 50.1736 17.784C50.5469 17.4107 50.7336 16.8667 50.7336 16.152C50.7336 15.4373 50.5469 14.8933 50.1736 14.52C49.8002 14.1467 49.2589 13.96 48.5496 13.96ZM54.7666 19V13.304H56.6226C57.2572 13.304 57.7346 13.4347 58.0546 13.696C58.3799 13.952 58.5426 14.304 58.5426 14.752C58.5426 15.408 58.2279 15.8507 57.5986 16.08V16.096C57.9399 16.176 58.2039 16.3333 58.3906 16.568C58.5772 16.7973 58.6706 17.0853 58.6706 17.432C58.6706 17.912 58.5026 18.2933 58.1666 18.576C57.8306 18.8587 57.3666 19 56.7746 19H54.7666ZM56.5666 16.408H55.5026V18.376H56.6706C57.4972 18.376 57.9106 18.048 57.9106 17.392C57.9106 16.736 57.4626 16.408 56.5666 16.408ZM56.5986 13.928H55.5026V15.792H56.5666C57.3986 15.792 57.8146 15.48 57.8146 14.856C57.8146 14.2373 57.4092 13.928 56.5986 13.928ZM63.6247 13.304L61.5687 16.64V19H60.8327V16.64L58.7767 13.304H59.6327L60.3287 14.48C60.6007 14.9387 60.8887 15.44 61.1927 15.984H61.2087C61.5127 15.44 61.8007 14.9387 62.0727 14.48L62.7767 13.304H63.6247Z" fill="#656167"/>
<g style="mix-blend-mode:multiply">
<path d="M78.5425 29.3961L78.5425 40.6372C78.5425 41.942 77.6931 42.8546 76.5476 42.8546C75.4021 42.8546 74.5439 41.8895 74.5439 40.6372L74.5439 35.5474L73.7067 37.6999C73.0166 39.4707 72.6558 39.8315 71.8291 39.8315C71.0024 39.8315 70.589 39.3218 69.9515 37.6999L69.1143 35.5474L69.1143 40.6372C69.1143 41.879 68.3086 42.8546 67.1211 42.8546C65.9336 42.8546 65.1156 41.942 65.1156 40.6372L65.1156 35.5474L64.2784 37.6999C63.5901 39.4707 63.2293 39.8315 62.4026 39.8315C61.5759 39.8315 61.1608 39.3218 60.525 37.6999L59.6878 35.5474L59.6878 40.6372C59.6878 41.879 58.8804 42.8546 57.6928 42.8546C56.5053 42.8546 55.6891 41.942 55.6891 40.6372L55.6891 29.3961C55.6891 27.9652 56.5264 27.0527 57.7366 27.0527C58.9469 27.0527 59.4741 27.7848 59.9943 28.9933L62.4026 34.5823L64.8091 28.9933C65.4099 27.5869 65.9546 27.0316 67.1158 27.0544C68.3857 27.0246 68.9006 27.7708 69.4225 28.9933L71.8291 34.5823L74.2356 28.9933C74.8294 27.6044 75.3601 27.0527 76.495 27.0527C77.7036 27.0527 78.5425 27.9652 78.5425 29.3961Z" fill="#000F00"/>
</g>
<path d="M43.3052 34.9536C43.3052 30.2876 46.1146 27.0001 50.2516 27.0001C54.3886 27.0001 57.177 30.2876 57.177 34.9536C57.177 39.6195 54.3676 42.9071 50.2516 42.9071C46.1356 42.9071 43.3052 39.609 43.3052 34.9536ZM50.2516 38.686C51.821 38.686 52.9559 37.1167 52.9559 34.9536C52.9559 32.7905 51.821 31.2212 50.2516 31.2212C48.6823 31.2212 47.5368 32.7905 47.5368 34.9536C47.5368 37.1167 48.6718 38.686 50.2516 38.686Z" fill="#000F00"/>
<path d="M77.0239 34.9536C77.0239 30.2876 79.8333 27.0001 83.9703 27.0001C88.1073 27.0001 90.8957 30.2876 90.8957 34.9536C90.8957 39.6195 88.0863 42.9071 83.9703 42.9071C79.8543 42.9071 77.0239 39.609 77.0239 34.9536ZM83.9703 38.686C85.5397 38.686 86.6746 37.1167 86.6746 34.9536C86.6746 32.7905 85.5397 31.2212 83.9703 31.2212C82.401 31.2212 81.2555 32.7905 81.2555 34.9536C81.2555 37.1167 82.3905 38.686 83.9703 38.686Z" fill="#000F00"/>
<path d="M32.2344 34.9746C32.2344 30.2561 35.1507 27.0001 39.3402 27.0001C41.8116 27.0001 43.6559 27.7322 45.0781 29.524C45.4914 30.0441 45.6403 30.6379 45.6403 31.1896C45.6403 32.293 44.7488 33.2248 43.6576 33.2248C43.0639 33.2248 42.3948 32.9499 41.9079 32.4822C41.0497 31.666 40.3911 31.2194 39.405 31.2194C37.6973 31.2194 36.4993 32.7782 36.4993 34.9728C36.4993 37.1674 37.6973 38.6842 39.405 38.6842C40.3386 38.6842 41.0602 38.2288 41.9184 37.4214C42.5121 36.8697 43.1812 36.6683 43.6997 36.6683C44.7926 36.6683 45.6613 37.6018 45.6613 38.7035C45.6613 39.2132 45.5335 39.7964 45.0781 40.3691C43.6786 42.1294 41.801 42.9035 39.3402 42.9035C35.1507 42.907 32.2344 39.672 32.2344 34.9746Z" fill="#000F00"/>
<path d="M89.8027 40.7544L89.8027 29.4503C89.8027 28.0089 90.5663 27.1069 91.8712 27.1069C92.7522 27.1069 93.3232 27.4256 94.1201 28.783L97.884 35.1882L97.884 29.2594C97.884 27.9756 98.7002 27.1069 99.942 27.1069C101.184 27.1069 102 27.9756 102 29.2594L102 40.553C102 41.9945 101.226 42.907 100.007 42.907C99.0523 42.907 98.5005 42.4078 97.8648 41.3902L93.9204 35.0376L93.9204 40.7527C93.9204 42.0365 93.1042 42.9053 91.8624 42.9053C90.6206 42.9053 89.8044 42.0365 89.8044 40.7527L89.8027 40.7544Z" fill="#000F00"/>
<g style="mix-blend-mode:multiply">
<ellipse cx="20.3826" cy="32.0401" rx="5.04" ry="5.04" fill="#0079CC"/>
</g>
<g style="mix-blend-mode:multiply">
<ellipse cx="23.725" cy="37.8817" rx="5.04" ry="5.04" fill="#FF80D7"/>
</g>
<g style="mix-blend-mode:multiply">
<ellipse cx="17.04" cy="37.8817" rx="5.04" ry="5.04" fill="#FF1F00"/>
</g>
</svg>
