<svg width="100" height="100" viewBox="0 0 100 100" fill="none" xmlns="http://www.w3.org/2000/svg">
    <g clip-path="url(#clip0_831_13192)">
        <path fill-rule="evenodd" clip-rule="evenodd" d="M39.5886 89.4882C39.5886 95.2937 44.2949 100 50.1004 100C55.9059 100 60.6122 95.2937 60.6122 89.4882V75.6162L70.449 85.4529C74.5541 89.5581 81.2099 89.5581 85.315 85.4529C89.4201 81.3478 89.4201 74.6921 85.315 70.587L75.3956 60.6676H89.4882C95.2937 60.6676 100 55.9613 100 50.1558C100 44.3502 95.2937 39.6439 89.4882 39.6439H75.4209L85.496 29.5689C89.6011 25.4638 89.6011 18.808 85.496 14.7029C81.3909 10.5978 74.7351 10.5978 70.63 14.7029L60.6122 24.7207V10.5118C60.6122 4.7063 55.9059 -4.64816e-06 50.1004 -4.52128e-06C44.2949 -4.39439e-06 39.5886 4.70629 39.5886 10.5118V24.8606L29.4703 14.7423C25.3652 10.6371 18.7094 10.6371 14.6043 14.7423C10.4992 18.8474 10.4992 25.5031 14.6043 29.6082L24.64 39.6439H10.5118C4.7063 39.6439 0 44.3502 0 50.1558C0 55.9613 4.7063 60.6676 10.5118 60.6676H24.6653L14.7853 70.5476C10.6802 74.6527 10.6802 81.3085 14.7853 85.4136C18.8904 89.5187 25.5461 89.5187 29.6513 85.4136L39.5886 75.4763V89.4882Z" fill="white"/>
        <g style="mix-blend-mode:multiply">
            <rect x="7.35233" y="77.9806" width="100" height="21.0237" rx="10.5118" transform="rotate(-45 7.35233 77.9806)" fill="#006FBB"/>
        </g>
        <g style="mix-blend-mode:multiply">
            <rect x="22.0373" y="7.30928" width="100" height="21.0237" rx="10.5118" transform="rotate(45 22.0373 7.30928)" fill="#006FBB"/>
        </g>
        <g style="mix-blend-mode:multiply">
            <rect x="39.5886" y="100" width="100" height="21.0237" rx="10.5118" transform="rotate(-90 39.5886 100)" fill="#F1CB00"/>
        </g>
        <g style="mix-blend-mode:multiply">
            <rect y="39.6439" width="100" height="21.0237" rx="10.5118" fill="#F1CB00"/>
        </g>
    </g>
    <defs>
        <clipPath id="clip0_831_13192">
            <rect width="100" height="100" fill="white"/>
        </clipPath>
    </defs>
</svg>
