<svg width="124" height="124" viewBox="0 0 124 124" fill="none" xmlns="http://www.w3.org/2000/svg">
<g opacity="0.8" filter="url(#filter0_f)">
<rect x="30" y="30" width="64" height="64" rx="20" fill="url(#paint0_linear)"/>
</g>
<rect x="31" y="24" width="64" height="64" rx="20" fill="white"/>
<path d="M62.3756 44.2615C63.1736 43.1505 64.8264 43.1505 65.6244 44.2615L65.7767 44.4736C66.3324 45.2472 67.3565 45.5216 68.2245 45.1295L68.4625 45.022C69.709 44.4588 71.1404 45.2852 71.276 46.6464L71.3019 46.9062C71.3963 47.854 72.146 48.6037 73.0938 48.6981L73.3536 48.724C74.7148 48.8596 75.5412 50.291 74.978 51.5375L74.8705 51.7755C74.4784 52.6435 74.7528 53.6676 75.5264 54.2233L75.7385 54.3756C76.8495 55.1736 76.8495 56.8264 75.7385 57.6244L75.5264 57.7767C74.7528 58.3324 74.4784 59.3565 74.8705 60.2245L74.978 60.4625C75.5412 61.709 74.7148 63.1404 73.3536 63.276L73.0938 63.3019C72.146 63.3963 71.3963 64.146 71.3019 65.0938L71.276 65.3536C71.1404 66.7148 69.709 67.5412 68.4625 66.978L68.2245 66.8705C67.3565 66.4784 66.3324 66.7528 65.7767 67.5264L65.6244 67.7385C64.8264 68.8495 63.1736 68.8495 62.3756 67.7385L62.2233 67.5264C61.6676 66.7528 60.6435 66.4784 59.7755 66.8705L59.5375 66.978C58.291 67.5412 56.8596 66.7148 56.724 65.3536L56.6981 65.0938C56.6037 64.146 55.854 63.3963 54.9062 63.3019L54.6464 63.276C53.2852 63.1404 52.4588 61.709 53.022 60.4625L53.1295 60.2245C53.5216 59.3565 53.2472 58.3324 52.4736 57.7767L52.2615 57.6244C51.1505 56.8264 51.1505 55.1736 52.2615 54.3756L52.4736 54.2233C53.2472 53.6676 53.5216 52.6435 53.1295 51.7755L53.022 51.5375C52.4588 50.291 53.2852 48.8596 54.6464 48.724L54.9062 48.6981C55.854 48.6037 56.6037 47.854 56.6981 46.9062L56.724 46.6464C56.8596 45.2852 58.291 44.4588 59.5375 45.022L59.7755 45.1295C60.6435 45.5216 61.6676 45.2472 62.2233 44.4736L62.3756 44.2615Z" fill="url(#paint1_linear)"/>
<rect x="59.1121" y="55.7678" width="7.01302" height="2" rx="1" transform="rotate(45 59.1121 55.7678)" fill="white"/>
<rect x="69.7279" y="52.2426" width="2" height="12" rx="1" transform="rotate(45 69.7279 52.2426)" fill="white"/>
<defs>
<filter id="filter0_f" x="0" y="0" width="124" height="124" filterUnits="userSpaceOnUse" color-interpolation-filters="sRGB">
<feFlood flood-opacity="0" result="BackgroundImageFix"/>
<feBlend mode="normal" in="SourceGraphic" in2="BackgroundImageFix" result="shape"/>
<feGaussianBlur stdDeviation="15" result="effect1_foregroundBlur"/>
</filter>
<linearGradient id="paint0_linear" x1="94" y1="34.5" x2="36.5" y2="94" gradientUnits="userSpaceOnUse">
<stop stop-color="#79E0E8"/>
<stop offset="0.2451" stop-color="#BF8E60"/>
<stop offset="0.5155" stop-color="#D69FCC"/>
<stop offset="0.7896" stop-color="#6086D1"/>
<stop offset="1" stop-color="#B37DBA"/>
</linearGradient>
<linearGradient id="paint1_linear" x1="165.879" y1="-60.8959" x2="58.199" y2="62.6561" gradientUnits="userSpaceOnUse">
<stop stop-color="#79E0E8"/>
<stop offset="0.2451" stop-color="#BF8E60"/>
<stop offset="0.5155" stop-color="#D69FCC"/>
<stop offset="0.7896" stop-color="#6086D1"/>
<stop offset="1" stop-color="#B37DBA"/>
</linearGradient>
</defs>
</svg>
