<svg width="16" height="15" viewBox="0 0 16 15" fill="none" xmlns="http://www.w3.org/2000/svg">
<path d="M1 7.99997L12.86 7.99997L9.23 12.36C9.14595 12.4611 9.08265 12.5778 9.0437 12.7034C9.00474 12.8289 8.99091 12.961 9.00298 13.0919C9.01505 13.2228 9.05279 13.3501 9.11405 13.4664C9.17531 13.5828 9.25888 13.6859 9.36 13.77C9.46112 13.854 9.5778 13.9173 9.70338 13.9563C9.82897 13.9952 9.96099 14.0091 10.0919 13.997C10.2229 13.9849 10.3501 13.9472 10.4665 13.8859C10.5828 13.8247 10.686 13.7411 10.77 13.64L15.77 7.63997C15.8036 7.59225 15.8337 7.54211 15.86 7.48997C15.86 7.43997 15.86 7.40997 15.93 7.35997C15.9753 7.24531 15.9991 7.12326 16 6.99997C15.9991 6.87668 15.9753 6.75463 15.93 6.63997C15.93 6.58997 15.93 6.55997 15.86 6.50997C15.8337 6.45783 15.8036 6.4077 15.77 6.35997L10.77 0.359972C10.676 0.247089 10.5582 0.156309 10.4252 0.0940876C10.2921 0.0318661 10.1469 -0.000267029 10 -2.86102e-05C9.76635 -0.00048542 9.53991 0.0808897 9.36 0.229971C9.25874 0.31392 9.17504 0.417022 9.11369 0.533369C9.05234 0.649716 9.01454 0.777022 9.00246 0.907999C8.99039 1.03898 9.00427 1.17105 9.04331 1.29665C9.08236 1.42226 9.1458 1.53892 9.23 1.63997L12.86 5.99997L1 5.99997C0.734783 5.99997 0.480429 6.10533 0.292892 6.29286C0.105356 6.4804 0 6.73476 0 6.99997C0 7.26519 0.105356 7.51954 0.292892 7.70708C0.480429 7.89461 0.734783 7.99997 1 7.99997Z" fill="#262632"/>
</svg>
