<svg width="124" height="124" viewBox="0 0 124 124" fill="none" xmlns="http://www.w3.org/2000/svg">
<g opacity="0.8" filter="url(#filter0_f)">
<rect x="30" y="30" width="64" height="64" rx="20" fill="url(#paint0_linear)"/>
</g>
<rect x="31" y="24" width="64" height="64" rx="20" fill="white"/>
<path d="M70.5 51C70.5 49.0109 69.7098 47.1032 68.3033 45.6967C66.8968 44.2902 64.9891 43.5 63 43.5C61.0109 43.5 59.1032 44.2902 57.6967 45.6967C56.2902 47.1032 55.5 49.0109 55.5 51C55.5 59.75 51.75 62.25 51.75 62.25H74.25C74.25 62.25 70.5 59.75 70.5 51Z" stroke="url(#paint1_linear)" stroke-width="3" stroke-linecap="round" stroke-linejoin="round"/>
<path d="M65.1625 67.25C64.9428 67.6288 64.6273 67.9433 64.2478 68.1619C63.8683 68.3805 63.438 68.4956 63 68.4956C62.562 68.4956 62.1318 68.3805 61.7522 68.1619C61.3727 67.9433 61.0573 67.6288 60.8375 67.25" stroke="url(#paint2_linear)" stroke-width="3" stroke-linecap="round" stroke-linejoin="round"/>
<defs>
<filter id="filter0_f" x="0" y="0" width="124" height="124" filterUnits="userSpaceOnUse" color-interpolation-filters="sRGB">
<feFlood flood-opacity="0" result="BackgroundImageFix"/>
<feBlend mode="normal" in="SourceGraphic" in2="BackgroundImageFix" result="shape"/>
<feGaussianBlur stdDeviation="15" result="effect1_foregroundBlur"/>
</filter>
<linearGradient id="paint0_linear" x1="94" y1="34.5" x2="36.5" y2="94" gradientUnits="userSpaceOnUse">
<stop stop-color="#79E0E8"/>
<stop offset="0.2451" stop-color="#BF8E60"/>
<stop offset="0.5155" stop-color="#D69FCC"/>
<stop offset="0.7896" stop-color="#6086D1"/>
<stop offset="1" stop-color="#B37DBA"/>
</linearGradient>
<linearGradient id="paint1_linear" x1="144.867" y1="-25.4035" x2="75.6475" y2="69.9034" gradientUnits="userSpaceOnUse">
<stop stop-color="#79E0E8"/>
<stop offset="0.2451" stop-color="#BF8E60"/>
<stop offset="0.5155" stop-color="#D69FCC"/>
<stop offset="0.7896" stop-color="#6086D1"/>
<stop offset="1" stop-color="#B37DBA"/>
</linearGradient>
<linearGradient id="paint2_linear" x1="78.7367" y1="62.6727" x2="76.4532" y2="71.7705" gradientUnits="userSpaceOnUse">
<stop stop-color="#79E0E8"/>
<stop offset="0.2451" stop-color="#BF8E60"/>
<stop offset="0.5155" stop-color="#D69FCC"/>
<stop offset="0.7896" stop-color="#6086D1"/>
<stop offset="1" stop-color="#B37DBA"/>
</linearGradient>
</defs>
</svg>
