<svg width="124" height="124" viewBox="0 0 124 124" fill="none" xmlns="http://www.w3.org/2000/svg">
<g opacity="0.8" filter="url(#filter0_f)">
<rect x="30" y="30" width="64" height="64" rx="20" fill="url(#paint0_linear)"/>
</g>
<rect x="31" y="24" width="64" height="64" rx="20" fill="white"/>
<g clip-path="url(#clip0)">
<path fillRule="evenodd" clipRule="evenodd" d="M68.7778 57.5H64.4444C63.65 57.5 63 58.175 63 59V63.5C63 64.325 63.65 65 64.4444 65H68.7778C69.5722 65 70.2222 64.325 70.2222 63.5V59C70.2222 58.175 69.5722 57.5 68.7778 57.5ZM68.7778 42.5V44H57.2222V42.5C57.2222 41.675 56.5722 41 55.7778 41C54.9833 41 54.3333 41.675 54.3333 42.5V44H52.8889C51.2856 44 50.0144 45.35 50.0144 47L50 68C50 69.65 51.2856 71 52.8889 71H73.1111C74.7 71 76 69.65 76 68V47C76 45.35 74.7 44 73.1111 44H71.6667V42.5C71.6667 41.675 71.0167 41 70.2222 41C69.4278 41 68.7778 41.675 68.7778 42.5ZM71.6667 68H54.3333C53.5389 68 52.8889 67.325 52.8889 66.5V51.5H73.1111V66.5C73.1111 67.325 72.4611 68 71.6667 68Z" fill="url(#paint1_linear)"/>
</g>
<defs>
<filter id="filter0_f" x="0" y="0" width="124" height="124" filterUnits="userSpaceOnUse" color-interpolation-filters="sRGB">
<feFlood flood-opacity="0" result="BackgroundImageFix"/>
<feBlend mode="normal" in="SourceGraphic" in2="BackgroundImageFix" result="shape"/>
<feGaussianBlur stdDeviation="15" result="effect1_foregroundBlur"/>
</filter>
<linearGradient id="paint0_linear" x1="94" y1="34.5" x2="36.5" y2="94" gradientUnits="userSpaceOnUse">
<stop stop-color="#79E0E8"/>
<stop offset="0.2451" stop-color="#BF8E60"/>
<stop offset="0.5155" stop-color="#D69FCC"/>
<stop offset="0.7896" stop-color="#6086D1"/>
<stop offset="1" stop-color="#B37DBA"/>
</linearGradient>
<linearGradient id="paint1_linear" x1="108.5" y1="3" x2="-11.499" y2="104.931" gradientUnits="userSpaceOnUse">
<stop stop-color="#79E0E8"/>
<stop offset="0.2451" stop-color="#BF8E60"/>
<stop offset="0.5155" stop-color="#D69FCC"/>
<stop offset="0.7896" stop-color="#6086D1"/>
<stop offset="1" stop-color="#B37DBA"/>
</linearGradient>
<clipPath id="clip0">
<rect width="26" height="30" fill="white" transform="translate(50 41)"/>
</clipPath>
</defs>
</svg>
