<svg width="124" height="124" viewBox="0 0 124 124" fill="none" xmlns="http://www.w3.org/2000/svg">
<g opacity="0.8" filter="url(#filter0_f)">
<rect x="30" y="30" width="64" height="64" rx="20" fill="url(#paint0_linear)"/>
</g>
<rect x="31" y="24" width="64" height="64" rx="20" fill="white"/>
<path d="M67.2492 55.9973C65.6838 55.9973 64.4159 57.2652 64.4159 58.8306C64.4159 60.3939 65.6838 61.6639 67.2492 61.6639C68.8132 61.6639 70.0825 60.3939 70.0825 58.8306C70.0825 57.2652 68.8132 55.9973 67.2492 55.9973ZM62.9992 67.3306C56.7404 67.3306 51.6659 62.2561 51.6659 55.9973C51.6659 49.737 56.7404 44.6639 62.9992 44.6639C69.258 44.6639 74.3325 49.737 74.3325 55.9973C74.3325 62.2561 69.258 67.3306 62.9992 67.3306ZM62.9992 41.8306C55.1749 41.8306 48.8325 48.173 48.8325 55.9973C48.8325 63.8215 55.1749 70.1639 62.9992 70.1639C70.8234 70.1639 77.1659 63.8215 77.1659 55.9973C77.1659 48.173 70.8234 41.8306 62.9992 41.8306ZM65.8325 51.7472C65.8325 50.1818 64.5632 48.9139 62.9992 48.9139C61.4338 48.9139 60.1659 50.1818 60.1659 51.7472C60.1659 53.3106 61.4338 54.5806 62.9992 54.5806C64.5632 54.5806 65.8325 53.3106 65.8325 51.7472ZM58.7492 55.9973C57.1852 55.9973 55.9159 57.2652 55.9159 58.8306C55.9159 60.3939 57.1852 61.6639 58.7492 61.6639C60.3132 61.6639 61.5825 60.3939 61.5825 58.8306C61.5825 57.2652 60.3132 55.9973 58.7492 55.9973Z" fill="url(#paint1_linear)"/>
<defs>
<filter id="filter0_f" x="0" y="0" width="124" height="124" filterUnits="userSpaceOnUse" color-interpolation-filters="sRGB">
<feFlood flood-opacity="0" result="BackgroundImageFix"/>
<feBlend mode="normal" in="SourceGraphic" in2="BackgroundImageFix" result="shape"/>
<feGaussianBlur stdDeviation="15" result="effect1_foregroundBlur"/>
</filter>
<linearGradient id="paint0_linear" x1="94" y1="34.5" x2="36.5" y2="94" gradientUnits="userSpaceOnUse">
<stop stop-color="#79E0E8"/>
<stop offset="0.2451" stop-color="#BF8E60"/>
<stop offset="0.5155" stop-color="#D69FCC"/>
<stop offset="0.7896" stop-color="#6086D1"/>
<stop offset="1" stop-color="#B37DBA"/>
</linearGradient>
<linearGradient id="paint1_linear" x1="77" y1="42" x2="-8.00013" y2="122" gradientUnits="userSpaceOnUse">
<stop stop-color="#79E0E8"/>
<stop offset="0.2451" stop-color="#BF8E60"/>
<stop offset="0.5155" stop-color="#D69FCC"/>
<stop offset="0.7896" stop-color="#6086D1"/>
<stop offset="1" stop-color="#B37DBA"/>
</linearGradient>
</defs>
</svg>
