<svg width="43" height="30" viewBox="0 0 43 30" fill="none" xmlns="http://www.w3.org/2000/svg">
<path d="M14.0202 15.1898C14.0308 13.1428 14.4972 11.124 15.3853 9.2808C16.2734 7.43761 17.5609 5.8166 19.1536 4.53613L16.0046 1.37851C15.5508 0.923552 14.9353 0.667969 14.2935 0.667969C13.6518 0.667969 13.0363 0.923552 12.5824 1.37851L0.708596 13.2848C0.254876 13.7399 0 14.3571 0 15.0006C0 15.6441 0.254876 16.2613 0.708596 16.7164L12.5824 28.6227C13.0363 29.0777 13.6518 29.3333 14.2935 29.3333C14.9353 29.3333 15.5508 29.0777 16.0046 28.6227L18.9129 25.7C17.3821 24.4121 16.1509 22.8039 15.3057 20.9883C14.4605 19.1726 14.0217 17.1935 14.0202 15.1898Z" fill="#342E37"/>
<path d="M28.3789 1.22463C24.9996 1.21935 21.7227 2.39027 19.1049 4.53848L27.7831 13.2691C28.0075 13.4935 28.1856 13.7603 28.3071 14.0542C28.4286 14.348 28.4911 14.6631 28.4911 14.9813C28.4911 15.2996 28.4286 15.6147 28.3071 15.9085C28.1856 16.2024 28.0075 16.4692 27.7831 16.6936L18.8652 25.6586C21.5227 27.9223 24.8958 29.1596 28.3789 29.1482C36.3188 29.1482 42.7627 22.9046 42.7627 15.1962C42.7627 7.48774 36.3059 1.22463 28.3789 1.22463Z" fill="#342E37"/>
</svg>
