<svg width="434" height="307" viewBox="0 0 434 307" fill="none" xmlns="http://www.w3.org/2000/svg">
<g filter="url(#filter0_d)">
<path d="M47 241C47 245.418 50.5817 249 55 249H379C383.418 249 387 245.418 387 241V44C387 39.5817 383.418 36 379 36H55C50.5817 36 47 39.5817 47 44V241Z" fill="#28292B"/>
<path d="M186.478 104.957C191.161 104.957 194.957 101.161 194.957 96.4783C194.957 91.7958 191.161 88 186.478 88C181.796 88 178 91.7958 178 96.4783C178 101.161 181.796 104.957 186.478 104.957Z" fill="url(#paint0_linear)"/>
<path d="M206.826 104.957C211.509 104.957 215.305 101.161 215.305 96.4783C215.305 91.7958 211.509 88 206.826 88C202.144 88 198.348 91.7958 198.348 96.4783C198.348 101.161 202.144 104.957 206.826 104.957Z" fill="url(#paint1_linear)"/>
<path d="M227.174 104.957C231.856 104.957 235.652 101.161 235.652 96.4783C235.652 91.7958 231.856 88 227.174 88C222.491 88 218.696 91.7958 218.696 96.4783C218.696 101.161 222.491 104.957 227.174 104.957Z" fill="url(#paint2_linear)"/>
<path d="M247.521 104.957C252.204 104.957 256 101.161 256 96.4783C256 91.7958 252.204 88 247.521 88C242.839 88 239.043 91.7958 239.043 96.4783C239.043 101.161 242.839 104.957 247.521 104.957Z" fill="url(#paint3_linear)"/>
<path d="M186.478 125.304C191.161 125.304 194.957 121.509 194.957 116.826C194.957 112.144 191.161 108.348 186.478 108.348C181.796 108.348 178 112.144 178 116.826C178 121.509 181.796 125.304 186.478 125.304Z" fill="url(#paint4_linear)"/>
<path d="M227.174 125.304C231.856 125.304 235.652 121.509 235.652 116.826C235.652 112.144 231.856 108.348 227.174 108.348C222.491 108.348 218.696 112.144 218.696 116.826C218.696 121.509 222.491 125.304 227.174 125.304Z" fill="url(#paint5_linear)"/>
<path d="M247.521 125.304C252.204 125.304 256 121.509 256 116.826C256 112.144 252.204 108.348 247.521 108.348C242.839 108.348 239.043 112.144 239.043 116.826C239.043 121.509 242.839 125.304 247.521 125.304Z" fill="url(#paint6_linear)"/>
<path d="M186.478 145.652C191.161 145.652 194.957 141.856 194.957 137.174C194.957 132.492 191.161 128.696 186.478 128.696C181.796 128.696 178 132.492 178 137.174C178 141.856 181.796 145.652 186.478 145.652Z" fill="url(#paint7_linear)"/>
<path d="M206.826 145.652C211.509 145.652 215.305 141.856 215.305 137.174C215.305 132.492 211.509 128.696 206.826 128.696C202.144 128.696 198.348 132.492 198.348 137.174C198.348 141.856 202.144 145.652 206.826 145.652Z" fill="url(#paint8_linear)"/>
<path d="M247.521 145.652C252.204 145.652 256 141.856 256 137.174C256 132.492 252.204 128.696 247.521 128.696C242.839 128.696 239.043 132.492 239.043 137.174C239.043 141.856 242.839 145.652 247.521 145.652Z" fill="url(#paint9_linear)"/>
<path d="M186.478 166C191.161 166 194.957 162.204 194.957 157.522C194.957 152.839 191.161 149.043 186.478 149.043C181.796 149.043 178 152.839 178 157.522C178 162.204 181.796 166 186.478 166Z" fill="url(#paint10_linear)"/>
<path d="M206.826 166C211.509 166 215.305 162.204 215.305 157.522C215.305 152.839 211.509 149.043 206.826 149.043C202.144 149.043 198.348 152.839 198.348 157.522C198.348 162.204 202.144 166 206.826 166Z" fill="url(#paint11_linear)"/>
<path d="M227.174 166C231.856 166 235.652 162.204 235.652 157.522C235.652 152.839 231.856 149.043 227.174 149.043C222.491 149.043 218.696 152.839 218.696 157.522C218.696 162.204 222.491 166 227.174 166Z" fill="url(#paint12_linear)"/>
<path d="M247.521 166C252.204 166 256 162.204 256 157.522C256 152.839 252.204 149.043 247.521 149.043C242.839 149.043 239.043 152.839 239.043 157.522C239.043 162.204 242.839 166 247.521 166Z" fill="url(#paint13_linear)"/>
<path d="M206.826 107.93L197.929 116.826L206.826 125.723L215.722 116.826L206.826 107.93Z" fill="white"/>
<path d="M227.173 128.277L218.277 137.174L227.173 146.07L236.07 137.174L227.173 128.277Z" fill="white"/>
<circle cx="90.1734" cy="49.7026" r="5.10652" fill="#A1E59D"/>
<circle cx="75.3179" cy="49.7026" r="5.10652" fill="#F2C571"/>
<circle cx="60.4625" cy="49.7026" r="5.10652" fill="#D27365"/>
</g>
<path d="M147.5 134.763C147.5 130.932 145.7 128.512 143.2 127C145.7 125.488 147.5 123.068 147.5 119.237V100.586C147.5 98.1662 148.8 96.8556 151.1 96.8556H161.6V90H151.2C144.7 90 140.1 94.6376 140.1 101.292V119.741C140.1 122.262 139 123.471 136.6 123.471H132V130.529H136.6C139 130.529 140.1 131.839 140.1 134.259V152.708C140.1 159.362 144.7 164 151.2 164H161.6V157.144H151.1C148.8 157.144 147.5 155.834 147.5 153.414V134.763Z" fill="white"/>
<path d="M286.1 119.237C286.1 123.068 287.9 125.488 290.4 127C287.9 128.512 286.1 130.932 286.1 134.763V153.414C286.1 155.834 284.8 157.144 282.5 157.144H272V164H282.4C288.9 164 293.5 159.362 293.5 152.708V134.259C293.5 131.738 294.6 130.529 297 130.529H301.6V123.471H297C294.6 123.471 293.5 122.161 293.5 119.741V101.292C293.5 94.6376 288.9 90 282.4 90H272V96.8556H282.5C284.8 96.8556 286.1 98.1662 286.1 100.586V119.237Z" fill="white"/>
<g filter="url(#filter1_d)">
<rect x="161.385" y="189.385" width="110.769" height="37.6923" rx="3.46154" fill="url(#paint14_linear)" stroke="#D9D9D9" stroke-width="0.769231"/>
<path d="M208.459 216.923V210.415H215.686V207.342H208.459V203.022H216.268V199.92H204.942V216.923H208.459ZM229.625 210.748C229.625 206.926 227.16 204.268 223.56 204.268C219.96 204.268 217.495 206.926 217.495 210.748C217.495 214.542 219.96 217.2 223.56 217.2C227.16 217.2 229.625 214.542 229.625 210.748ZM226.218 210.748C226.218 212.797 225.277 214.292 223.56 214.292C221.843 214.292 220.902 212.797 220.902 210.748C220.902 208.671 221.843 207.175 223.56 207.175C225.277 207.175 226.218 208.671 226.218 210.748ZM239.324 204.489C239.13 204.378 238.604 204.268 238.023 204.268C236.804 204.268 235.779 204.877 235.253 205.763V204.545H231.819V216.923H235.253V209.252C235.503 208.117 236.444 207.508 237.607 207.508C238.244 207.508 238.853 207.646 239.324 207.923V204.489ZM249.586 216.923H253.657L248.451 209.806L253.463 204.545H249.199L244.962 209.142V198.923H241.528V216.923H244.962V213.018L245.959 211.938L249.586 216.923Z" fill="#333333"/>
<g clip-path="url(#clip0)">
<path d="M183.572 216.644C183.572 216.264 183.439 215.94 183.173 215.674C182.906 215.407 182.583 215.274 182.202 215.274C181.821 215.274 181.498 215.407 181.232 215.674C180.965 215.94 180.832 216.264 180.832 216.644C180.832 217.025 180.965 217.348 181.232 217.615C181.498 217.881 181.821 218.014 182.202 218.014C182.583 218.014 182.906 217.881 183.173 217.615C183.439 217.348 183.572 217.025 183.572 216.644ZM183.572 200.202C183.572 199.821 183.439 199.498 183.173 199.231C182.906 198.965 182.583 198.832 182.202 198.832C181.821 198.832 181.498 198.965 181.232 199.231C180.965 199.498 180.832 199.821 180.832 200.202C180.832 200.583 180.965 200.906 181.232 201.172C181.498 201.439 181.821 201.572 182.202 201.572C182.583 201.572 182.906 201.439 183.173 201.172C183.439 200.906 183.572 200.583 183.572 200.202ZM192.707 202.029C192.707 201.648 192.574 201.325 192.307 201.058C192.041 200.792 191.717 200.659 191.337 200.659C190.956 200.659 190.633 200.792 190.366 201.058C190.1 201.325 189.966 201.648 189.966 202.029C189.966 202.409 190.1 202.733 190.366 202.999C190.633 203.266 190.956 203.399 191.337 203.399C191.717 203.399 192.041 203.266 192.307 202.999C192.574 202.733 192.707 202.409 192.707 202.029ZM194.077 202.029C194.077 202.524 193.953 202.983 193.706 203.406C193.459 203.83 193.126 204.16 192.707 204.398C192.688 207.129 191.613 209.099 189.481 210.307C188.844 210.669 187.878 211.054 186.584 211.463C185.366 211.844 184.559 212.182 184.165 212.477C183.77 212.772 183.572 213.247 183.572 213.904V214.275C183.991 214.513 184.324 214.843 184.571 215.267C184.819 215.69 184.942 216.149 184.942 216.644C184.942 217.405 184.676 218.052 184.143 218.585C183.61 219.118 182.963 219.385 182.202 219.385C181.441 219.385 180.794 219.118 180.261 218.585C179.728 218.052 179.462 217.405 179.462 216.644C179.462 216.149 179.585 215.69 179.833 215.267C180.08 214.843 180.413 214.513 180.832 214.275V202.571C180.413 202.333 180.08 202.003 179.833 201.579C179.585 201.156 179.462 200.697 179.462 200.202C179.462 199.441 179.728 198.794 180.261 198.261C180.794 197.728 181.441 197.462 182.202 197.462C182.963 197.462 183.61 197.728 184.143 198.261C184.676 198.794 184.942 199.441 184.942 200.202C184.942 200.697 184.819 201.156 184.571 201.579C184.324 202.003 183.991 202.333 183.572 202.571V209.665C184.086 209.417 184.819 209.146 185.77 208.851C186.294 208.69 186.71 208.549 187.019 208.43C187.328 208.311 187.664 208.164 188.025 207.988C188.387 207.812 188.668 207.624 188.867 207.424C189.067 207.224 189.26 206.982 189.446 206.696C189.631 206.411 189.764 206.08 189.845 205.704C189.926 205.328 189.966 204.893 189.966 204.398C189.548 204.16 189.215 203.83 188.967 203.406C188.72 202.983 188.596 202.524 188.596 202.029C188.596 201.268 188.863 200.621 189.396 200.088C189.928 199.555 190.575 199.288 191.337 199.288C192.098 199.288 192.745 199.555 193.278 200.088C193.811 200.621 194.077 201.268 194.077 202.029Z" fill="#323232"/>
</g>
</g>
<defs>
<filter id="filter0_d" x="0.577106" y="0.718601" width="432.846" height="305.846" filterUnits="userSpaceOnUse" color-interpolation-filters="sRGB">
<feFlood flood-opacity="0" result="BackgroundImageFix"/>
<feColorMatrix in="SourceAlpha" type="matrix" values="0 0 0 0 0 0 0 0 0 0 0 0 0 0 0 0 0 0 127 0"/>
<feOffset dy="11.1415"/>
<feGaussianBlur stdDeviation="23.2114"/>
<feColorMatrix type="matrix" values="0 0 0 0 0.0352941 0 0 0 0 0.0509804 0 0 0 0 0.0705882 0 0 0 0.2 0"/>
<feBlend mode="normal" in2="BackgroundImageFix" result="effect1_dropShadow"/>
<feBlend mode="normal" in="SourceGraphic" in2="effect1_dropShadow" result="shape"/>
</filter>
<filter id="filter1_d" x="125.29" y="161.86" width="182.958" height="109.881" filterUnits="userSpaceOnUse" color-interpolation-filters="sRGB">
<feFlood flood-opacity="0" result="BackgroundImageFix"/>
<feColorMatrix in="SourceAlpha" type="matrix" values="0 0 0 0 0 0 0 0 0 0 0 0 0 0 0 0 0 0 127 0"/>
<feOffset dy="8.57038"/>
<feGaussianBlur stdDeviation="17.855"/>
<feColorMatrix type="matrix" values="0 0 0 0 0.0352941 0 0 0 0 0.0509804 0 0 0 0 0.0705882 0 0 0 0.2 0"/>
<feBlend mode="normal" in2="BackgroundImageFix" result="effect1_dropShadow"/>
<feBlend mode="normal" in="SourceGraphic" in2="effect1_dropShadow" result="shape"/>
</filter>
<linearGradient id="paint0_linear" x1="217.94" y1="60.3794" x2="152.73" y2="135.201" gradientUnits="userSpaceOnUse">
<stop stop-color="#79E0E8"/>
<stop offset="0.2451" stop-color="#BF8E60"/>
<stop offset="0.5155" stop-color="#D69FCC"/>
<stop offset="0.7896" stop-color="#6086D1"/>
<stop offset="1" stop-color="#B37DBA"/>
</linearGradient>
<linearGradient id="paint1_linear" x1="229.504" y1="70.4579" x2="164.294" y2="145.28" gradientUnits="userSpaceOnUse">
<stop stop-color="#79E0E8"/>
<stop offset="0.2451" stop-color="#BF8E60"/>
<stop offset="0.5155" stop-color="#D69FCC"/>
<stop offset="0.7896" stop-color="#6086D1"/>
<stop offset="1" stop-color="#B37DBA"/>
</linearGradient>
<linearGradient id="paint2_linear" x1="241.068" y1="80.5364" x2="175.858" y2="155.358" gradientUnits="userSpaceOnUse">
<stop stop-color="#79E0E8"/>
<stop offset="0.2451" stop-color="#BF8E60"/>
<stop offset="0.5155" stop-color="#D69FCC"/>
<stop offset="0.7896" stop-color="#6086D1"/>
<stop offset="1" stop-color="#B37DBA"/>
</linearGradient>
<linearGradient id="paint3_linear" x1="252.632" y1="90.6149" x2="187.422" y2="165.437" gradientUnits="userSpaceOnUse">
<stop stop-color="#79E0E8"/>
<stop offset="0.2451" stop-color="#BF8E60"/>
<stop offset="0.5155" stop-color="#D69FCC"/>
<stop offset="0.7896" stop-color="#6086D1"/>
<stop offset="1" stop-color="#B37DBA"/>
</linearGradient>
<linearGradient id="paint4_linear" x1="228.018" y1="69.1632" x2="162.808" y2="143.985" gradientUnits="userSpaceOnUse">
<stop stop-color="#79E0E8"/>
<stop offset="0.2451" stop-color="#BF8E60"/>
<stop offset="0.5155" stop-color="#D69FCC"/>
<stop offset="0.7896" stop-color="#6086D1"/>
<stop offset="1" stop-color="#B37DBA"/>
</linearGradient>
<linearGradient id="paint5_linear" x1="251.146" y1="89.3202" x2="185.936" y2="164.142" gradientUnits="userSpaceOnUse">
<stop stop-color="#79E0E8"/>
<stop offset="0.2451" stop-color="#BF8E60"/>
<stop offset="0.5155" stop-color="#D69FCC"/>
<stop offset="0.7896" stop-color="#6086D1"/>
<stop offset="1" stop-color="#B37DBA"/>
</linearGradient>
<linearGradient id="paint6_linear" x1="262.71" y1="99.3987" x2="197.5" y2="174.221" gradientUnits="userSpaceOnUse">
<stop stop-color="#79E0E8"/>
<stop offset="0.2451" stop-color="#BF8E60"/>
<stop offset="0.5155" stop-color="#D69FCC"/>
<stop offset="0.7896" stop-color="#6086D1"/>
<stop offset="1" stop-color="#B37DBA"/>
</linearGradient>
<linearGradient id="paint7_linear" x1="238.097" y1="77.947" x2="172.887" y2="152.769" gradientUnits="userSpaceOnUse">
<stop stop-color="#79E0E8"/>
<stop offset="0.2451" stop-color="#BF8E60"/>
<stop offset="0.5155" stop-color="#D69FCC"/>
<stop offset="0.7896" stop-color="#6086D1"/>
<stop offset="1" stop-color="#B37DBA"/>
</linearGradient>
<linearGradient id="paint8_linear" x1="249.661" y1="88.0255" x2="184.451" y2="162.847" gradientUnits="userSpaceOnUse">
<stop stop-color="#79E0E8"/>
<stop offset="0.2451" stop-color="#BF8E60"/>
<stop offset="0.5155" stop-color="#D69FCC"/>
<stop offset="0.7896" stop-color="#6086D1"/>
<stop offset="1" stop-color="#B37DBA"/>
</linearGradient>
<linearGradient id="paint9_linear" x1="272.789" y1="108.182" x2="207.579" y2="183.004" gradientUnits="userSpaceOnUse">
<stop stop-color="#79E0E8"/>
<stop offset="0.2451" stop-color="#BF8E60"/>
<stop offset="0.5155" stop-color="#D69FCC"/>
<stop offset="0.7896" stop-color="#6086D1"/>
<stop offset="1" stop-color="#B37DBA"/>
</linearGradient>
<linearGradient id="paint10_linear" x1="248.175" y1="86.7307" x2="182.965" y2="161.553" gradientUnits="userSpaceOnUse">
<stop stop-color="#79E0E8"/>
<stop offset="0.2451" stop-color="#BF8E60"/>
<stop offset="0.5155" stop-color="#D69FCC"/>
<stop offset="0.7896" stop-color="#6086D1"/>
<stop offset="1" stop-color="#B37DBA"/>
</linearGradient>
<linearGradient id="paint11_linear" x1="259.74" y1="96.8092" x2="194.53" y2="171.631" gradientUnits="userSpaceOnUse">
<stop stop-color="#79E0E8"/>
<stop offset="0.2451" stop-color="#BF8E60"/>
<stop offset="0.5155" stop-color="#D69FCC"/>
<stop offset="0.7896" stop-color="#6086D1"/>
<stop offset="1" stop-color="#B37DBA"/>
</linearGradient>
<linearGradient id="paint12_linear" x1="271.303" y1="106.888" x2="206.093" y2="181.71" gradientUnits="userSpaceOnUse">
<stop stop-color="#79E0E8"/>
<stop offset="0.2451" stop-color="#BF8E60"/>
<stop offset="0.5155" stop-color="#D69FCC"/>
<stop offset="0.7896" stop-color="#6086D1"/>
<stop offset="1" stop-color="#B37DBA"/>
</linearGradient>
<linearGradient id="paint13_linear" x1="282.867" y1="116.966" x2="217.657" y2="191.788" gradientUnits="userSpaceOnUse">
<stop stop-color="#79E0E8"/>
<stop offset="0.2451" stop-color="#BF8E60"/>
<stop offset="0.5155" stop-color="#D69FCC"/>
<stop offset="0.7896" stop-color="#6086D1"/>
<stop offset="1" stop-color="#B37DBA"/>
</linearGradient>
<linearGradient id="paint14_linear" x1="216.769" y1="189" x2="216.769" y2="227.462" gradientUnits="userSpaceOnUse">
<stop stop-color="#FBFBFB"/>
<stop offset="1" stop-color="#EFEFEF"/>
</linearGradient>
<clipPath id="clip0">
<rect width="14.6154" height="21.9231" fill="white" transform="translate(179.462 197.462)"/>
</clipPath>
</defs>
</svg>
