<svg width="49" height="35" viewBox="0 0 49 35" fill="none" xmlns="http://www.w3.org/2000/svg">
<path d="M41.5625 4.37502C41.5625 4.37502 36.5467 0.44843 30.6249 0L30.0913 1.06859C35.4442 2.38001 37.9007 4.25469 40.4687 6.56251C36.0424 4.30283 31.6749 2.18749 24.0624 2.18749C16.45 2.18749 12.0827 4.30283 7.65626 6.56251C10.2244 4.25469 13.1469 2.17001 18.0338 1.06859L17.5 0C11.2875 0.585166 6.5625 4.37502 6.5625 4.37502C6.5625 4.37502 0.961398 12.4972 0 28.4375C5.64375 34.9486 14.2188 35 14.2188 35L16.0125 32.6112C12.9675 31.5526 9.53314 29.6636 6.5625 26.2501C10.1041 28.9297 15.4492 31.7187 24.0624 31.7187C32.6758 31.7187 38.0209 28.9297 41.5625 26.2501C38.5931 29.6636 35.1586 31.5526 32.1125 32.6112L33.9062 35C33.9062 35 42.4813 34.9486 48.125 28.4375C47.1638 12.4972 41.5625 4.37502 41.5625 4.37502ZM16.9532 24.0627C14.8378 24.0627 13.125 22.1047 13.125 19.6876C13.125 17.2703 14.8378 15.3125 16.9532 15.3125C19.0685 15.3125 20.7813 17.2703 20.7813 19.6876C20.7813 22.1047 19.0685 24.0627 16.9532 24.0627ZM31.172 24.0627C29.0565 24.0627 27.3437 22.1047 27.3437 19.6876C27.3437 17.2703 29.0565 15.3125 31.172 15.3125C33.2872 15.3125 35 17.2703 35 19.6876C35 22.1047 33.2872 24.0627 31.172 24.0627Z" fill="url(#paint0_linear)"/>
<defs>
<linearGradient id="paint0_linear" x1="0" y1="0" x2="50.2123" y2="3.30694" gradientUnits="userSpaceOnUse">
<stop stop-color="#8C8C8C"/>
<stop offset="1" stop-color="#B0B0B0"/>
</linearGradient>
</defs>
</svg>
