<svg width="669" height="494" viewBox="0 0 669 494" fill="none" xmlns="http://www.w3.org/2000/svg">
<g filter="url(#filter0_d)">
<path d="M20 43H649V19C649 16.2386 646.761 14 644 14H25C22.2386 14 20 16.2386 20 19V43Z" fill="#E3E3E3"/>
<path d="M20 43H649V463C649 465.761 646.761 468 644 468H25C22.2386 468 20 465.761 20 463V43Z" fill="white"/>
<rect x="54.5" y="171.5" width="56" height="27" rx="13.5" stroke="#E7E7E7"/>
<path d="M74.88 186.336C76.912 186.336 78.24 185.264 78.24 183.264C78.24 181.232 76.912 180.176 74.88 180.176H71.088V190H72.752V186.336H74.88ZM76.592 183.264C76.592 184.208 76 184.896 74.848 184.896H72.752V181.616H74.848C76 181.616 76.592 182.288 76.592 183.264ZM85.6543 186.448C85.6543 184.272 84.2783 182.736 82.2783 182.736C80.2783 182.736 78.9023 184.272 78.9023 186.448C78.9023 188.624 80.2783 190.16 82.2783 190.16C84.2783 190.16 85.6543 188.624 85.6543 186.448ZM84.0543 186.448C84.0543 187.792 83.4303 188.784 82.2783 188.784C81.1263 188.784 80.5023 187.792 80.5023 186.448C80.5023 185.104 81.1263 184.112 82.2783 184.112C83.4303 184.112 84.0543 185.104 84.0543 186.448ZM88.7483 179.6H87.1483V190H88.7483V179.6ZM92.3264 179.6H90.7264V190H92.3264V179.6Z" fill="#262523"/>
<rect x="54.5" y="129.5" width="89" height="27" rx="13.5" stroke="#E7E7E7"/>
<path d="M76.56 148L79.2 141.168V148H80.8V138.176H78.944L75.984 145.728L72.992 138.176H71.088V148H72.672V141.168L75.376 148H76.56ZM87.2666 145.792C87.0906 146.48 86.5146 146.816 85.7466 146.816C84.7226 146.816 84.0026 146.064 83.9546 144.816H88.8026V144.24C88.8026 142.16 87.7146 140.736 85.7146 140.736C83.7786 140.736 82.3866 142.336 82.3866 144.464C82.3866 146.656 83.7626 148.16 85.7466 148.16C87.4586 148.16 88.4986 147.2 88.7386 145.792H87.2666ZM85.7306 142.08C86.7066 142.08 87.2026 142.784 87.2186 143.648H84.0026C84.1946 142.624 84.8506 142.08 85.7306 142.08ZM95.5213 141.68C95.1533 141.136 94.4493 140.736 93.6493 140.736C92.8493 140.736 92.2093 141.04 91.8733 141.488V140.896H90.2733V148H91.8733V143.232C92.0173 142.528 92.5613 142.176 93.1373 142.176C93.9213 142.176 94.3053 142.752 94.3053 143.632V148H95.9053V143.232C96.0493 142.528 96.5933 142.176 97.1693 142.176C97.9533 142.176 98.3373 142.752 98.3373 143.632V148H99.9373V143.376C99.9373 141.76 99.0893 140.736 97.6333 140.736C96.6733 140.736 96.0173 141.104 95.5213 141.68ZM103.42 147.392C103.74 147.792 104.444 148.16 105.228 148.16C107.308 148.16 108.524 146.496 108.524 144.448C108.524 142.416 107.308 140.736 105.228 140.736C104.444 140.736 103.74 141.104 103.42 141.504V137.6H101.82V148H103.42V147.392ZM103.42 143.104C103.692 142.544 104.3 142.16 104.956 142.16C106.188 142.16 106.924 143.136 106.924 144.448C106.924 145.76 106.188 146.736 104.956 146.736C104.3 146.736 103.692 146.352 103.42 145.792V143.104ZM114.439 145.792C114.263 146.48 113.687 146.816 112.919 146.816C111.895 146.816 111.174 146.064 111.127 144.816H115.975V144.24C115.975 142.16 114.887 140.736 112.887 140.736C110.951 140.736 109.559 142.336 109.559 144.464C109.559 146.656 110.935 148.16 112.919 148.16C114.631 148.16 115.671 147.2 115.911 145.792H114.439ZM112.903 142.08C113.879 142.08 114.375 142.784 114.391 143.648H111.174C111.367 142.624 112.023 142.08 112.903 142.08ZM121.413 140.864C121.301 140.8 120.981 140.736 120.629 140.736C119.941 140.736 119.317 141.104 119.045 141.632V140.896H117.445V148H119.045V143.408C119.205 142.64 119.813 142.272 120.469 142.272C120.805 142.272 121.189 142.352 121.413 142.512V140.864ZM122.309 145.952C122.517 147.328 123.669 148.16 125.333 148.16C126.933 148.16 128.101 147.296 128.101 145.888C128.101 144.848 127.493 144.16 126.277 143.872L124.773 143.52C124.261 143.392 124.037 143.184 124.037 142.864C124.037 142.304 124.613 142.048 125.173 142.048C125.909 142.048 126.325 142.368 126.469 142.832H128.037C127.797 141.536 126.853 140.736 125.189 140.736C123.637 140.736 122.501 141.68 122.501 142.96C122.501 144.128 123.253 144.672 124.261 144.912L125.733 145.264C126.325 145.408 126.565 145.616 126.565 146C126.565 146.56 126.085 146.848 125.349 146.848C124.645 146.848 124.117 146.544 123.941 145.952H122.309Z" fill="#262523"/>
<path d="M81.784 77.336L79.4 73.176H77.176L80.712 79.272V83H82.744V79.272L86.312 73.176H84.152L81.784 77.336ZM92.7053 79.432C92.7053 77.224 91.2813 75.688 89.2013 75.688C87.1213 75.688 85.6973 77.224 85.6973 79.432C85.6973 81.624 87.1213 83.16 89.2013 83.16C91.2813 83.16 92.7053 81.624 92.7053 79.432ZM90.7373 79.432C90.7373 80.616 90.1933 81.48 89.2013 81.48C88.2093 81.48 87.6653 80.616 87.6653 79.432C87.6653 78.232 88.2093 77.368 89.2013 77.368C90.1933 77.368 90.7373 78.232 90.7373 79.432ZM100.309 75.848H98.3094V80.392C98.1654 81.016 97.6374 81.384 97.0294 81.384C96.2454 81.384 95.8774 80.872 95.8774 80.12V75.848H93.8934V80.52C93.8934 82.104 94.8054 83.16 96.4054 83.16C97.2374 83.16 97.9254 82.792 98.3254 82.344V83H100.309V75.848ZM106.356 75.816C106.244 75.752 105.94 75.688 105.604 75.688C104.9 75.688 104.308 76.04 104.004 76.552V75.848H102.02V83H104.004V78.568C104.148 77.912 104.692 77.56 105.364 77.56C105.732 77.56 106.084 77.64 106.356 77.8V75.816ZM110.572 74.968H113.724V83H115.788V74.968H118.956V73.176H110.572V74.968ZM125.752 79.432C125.752 77.224 124.328 75.688 122.248 75.688C120.168 75.688 118.744 77.224 118.744 79.432C118.744 81.624 120.168 83.16 122.248 83.16C124.328 83.16 125.752 81.624 125.752 79.432ZM123.784 79.432C123.784 80.616 123.24 81.48 122.248 81.48C121.256 81.48 120.712 80.616 120.712 79.432C120.712 78.232 121.256 77.368 122.248 77.368C123.24 77.368 123.784 78.232 123.784 79.432ZM131.676 83H134.028L131.02 78.888L133.916 75.848H131.452L129.004 78.504V72.6H127.02V83H129.004V80.744L129.58 80.12L131.676 83ZM139.06 80.664C138.9 81.272 138.404 81.56 137.732 81.56C136.852 81.56 136.244 80.92 136.18 79.848H140.948V79.24C140.948 77.144 139.796 75.688 137.7 75.688C135.7 75.688 134.26 77.272 134.26 79.432C134.26 81.64 135.652 83.16 137.732 83.16C139.524 83.16 140.644 82.184 140.9 80.664H139.06ZM137.716 77.304C138.532 77.304 138.98 77.896 138.996 78.648H136.228C136.404 77.768 136.948 77.304 137.716 77.304ZM142.208 83H144.192V78.472C144.352 77.848 144.88 77.48 145.488 77.48C146.272 77.48 146.656 77.992 146.656 78.744V83H148.64V78.328C148.64 76.744 147.728 75.688 146.112 75.688C145.28 75.688 144.576 76.056 144.192 76.504V75.848H142.208V83ZM152.893 84.344H154.733L158.701 72.6H156.861L152.893 84.344ZM165.148 81.192V74.968H166.508C168.38 74.968 169.404 76.168 169.404 78.088C169.404 79.992 168.38 81.192 166.508 81.192H165.148ZM163.116 83H166.588C169.564 83 171.436 81.08 171.436 78.088C171.436 75.096 169.564 73.176 166.588 73.176H163.116V83ZM174.77 75.848H172.786V83H174.77V75.848ZM174.946 73.784C174.946 73.128 174.402 72.648 173.778 72.648C173.138 72.648 172.594 73.128 172.594 73.784C172.594 74.456 173.138 74.92 173.778 74.92C174.402 74.92 174.946 74.456 174.946 73.784ZM176.041 80.872C176.249 82.328 177.481 83.16 179.225 83.16C180.889 83.16 182.153 82.296 182.153 80.84C182.153 79.752 181.497 79.064 180.249 78.76L178.777 78.424C178.329 78.312 178.137 78.152 178.137 77.864C178.137 77.416 178.601 77.192 179.081 77.192C179.737 77.192 180.073 77.496 180.201 77.896H182.089C181.849 76.552 180.857 75.688 179.049 75.688C177.449 75.688 176.201 76.616 176.201 78.008C176.201 79.208 176.969 79.768 178.057 80.024L179.497 80.344C179.993 80.472 180.217 80.632 180.217 80.952C180.217 81.416 179.817 81.656 179.209 81.656C178.617 81.656 178.169 81.384 178.009 80.872H176.041ZM183.041 79.432C183.041 81.64 184.449 83.16 186.481 83.16C188.273 83.16 189.409 82.12 189.617 80.584H187.665C187.553 81.128 187.121 81.464 186.481 81.464C185.569 81.464 185.009 80.632 185.009 79.432C185.009 78.216 185.569 77.384 186.481 77.384C187.121 77.384 187.553 77.72 187.665 78.264H189.617C189.409 76.744 188.273 75.688 186.481 75.688C184.449 75.688 183.041 77.208 183.041 79.432ZM197.169 75.848H195.169V80.392C195.025 81.016 194.497 81.384 193.889 81.384C193.105 81.384 192.737 80.872 192.737 80.12V75.848H190.753V80.52C190.753 82.104 191.665 83.16 193.265 83.16C194.097 83.16 194.785 82.792 195.185 82.344V83H197.169V75.848ZM198.416 80.872C198.624 82.328 199.856 83.16 201.6 83.16C203.264 83.16 204.528 82.296 204.528 80.84C204.528 79.752 203.872 79.064 202.624 78.76L201.152 78.424C200.704 78.312 200.512 78.152 200.512 77.864C200.512 77.416 200.976 77.192 201.456 77.192C202.112 77.192 202.448 77.496 202.576 77.896H204.464C204.224 76.552 203.232 75.688 201.424 75.688C199.824 75.688 198.576 76.616 198.576 78.008C198.576 79.208 199.344 79.768 200.432 80.024L201.872 80.344C202.368 80.472 202.592 80.632 202.592 80.952C202.592 81.416 202.192 81.656 201.584 81.656C200.992 81.656 200.544 81.384 200.384 80.872H198.416ZM205.4 80.872C205.608 82.328 206.84 83.16 208.584 83.16C210.248 83.16 211.512 82.296 211.512 80.84C211.512 79.752 210.856 79.064 209.608 78.76L208.136 78.424C207.688 78.312 207.496 78.152 207.496 77.864C207.496 77.416 207.96 77.192 208.44 77.192C209.096 77.192 209.432 77.496 209.56 77.896H211.448C211.208 76.552 210.216 75.688 208.408 75.688C206.808 75.688 205.56 76.616 205.56 78.008C205.56 79.208 206.328 79.768 207.416 80.024L208.856 80.344C209.352 80.472 209.576 80.632 209.576 80.952C209.576 81.416 209.176 81.656 208.568 81.656C207.976 81.656 207.528 81.384 207.368 80.872H205.4ZM214.832 75.848H212.848V83H214.832V75.848ZM215.008 73.784C215.008 73.128 214.464 72.648 213.84 72.648C213.2 72.648 212.656 73.128 212.656 73.784C212.656 74.456 213.2 74.92 213.84 74.92C214.464 74.92 215.008 74.456 215.008 73.784ZM223.127 79.432C223.127 77.224 221.703 75.688 219.623 75.688C217.543 75.688 216.119 77.224 216.119 79.432C216.119 81.624 217.543 83.16 219.623 83.16C221.703 83.16 223.127 81.624 223.127 79.432ZM221.159 79.432C221.159 80.616 220.615 81.48 219.623 81.48C218.631 81.48 218.087 80.616 218.087 79.432C218.087 78.232 218.631 77.368 219.623 77.368C220.615 77.368 221.159 78.232 221.159 79.432ZM224.395 83H226.379V78.472C226.539 77.848 227.067 77.48 227.675 77.48C228.459 77.48 228.843 77.992 228.843 78.744V83H230.827V78.328C230.827 76.744 229.915 75.688 228.299 75.688C227.467 75.688 226.763 76.056 226.379 76.504V75.848H224.395V83ZM232.009 80.872C232.217 82.328 233.449 83.16 235.193 83.16C236.857 83.16 238.121 82.296 238.121 80.84C238.121 79.752 237.465 79.064 236.217 78.76L234.745 78.424C234.297 78.312 234.105 78.152 234.105 77.864C234.105 77.416 234.569 77.192 235.049 77.192C235.705 77.192 236.041 77.496 236.169 77.896H238.057C237.817 76.552 236.825 75.688 235.017 75.688C233.417 75.688 232.169 76.616 232.169 78.008C232.169 79.208 232.937 79.768 234.025 80.024L235.465 80.344C235.961 80.472 236.185 80.632 236.185 80.952C236.185 81.416 235.785 81.656 235.177 81.656C234.585 81.656 234.137 81.384 233.977 80.872H232.009Z" fill="#262523"/>
<circle cx="66.5" cy="28.5" r="5.5" fill="#A1E59D"/>
<circle cx="548.5" cy="392.5" r="11.5" fill="#73304F" stroke="white" stroke-width="2"/>
<circle cx="561.5" cy="392.5" r="11.5" fill="#F7D58C" stroke="white" stroke-width="2"/>
<circle cx="574.5" cy="392.5" r="11.5" fill="#C3326B" stroke="white" stroke-width="2"/>
<circle cx="50.5" cy="28.5" r="5.5" fill="#F2C571"/>
<circle cx="34.5" cy="28.5" r="5.5" fill="#D27365"/>
<circle cx="547.5" cy="315.5" r="11.5" fill="#E1696C" stroke="white" stroke-width="2"/>
<circle cx="560.5" cy="315.5" r="11.5" fill="#8FD4D7" stroke="white" stroke-width="2"/>
<circle cx="573.5" cy="315.5" r="11.5" fill="#4DA978" stroke="white" stroke-width="2"/>
<circle cx="62" cy="79" r="8" fill="#DEDEDE"/>
<rect x="172" y="132" width="324" height="13" rx="4" fill="#D5D5D5"/>
<rect x="172" y="209" width="324" height="13" rx="4" fill="#D5D5D5"/>
<rect x="172" y="369" width="324" height="13" rx="4" fill="#D5D5D5"/>
<rect x="172" y="290" width="324" height="13" rx="4" fill="#D5D5D5"/>
<rect x="172" y="161" width="272" height="13" rx="4" fill="#E6E6E6"/>
<rect x="172" y="238" width="272" height="13" rx="4" fill="#E6E6E6"/>
<rect x="172" y="398" width="272" height="13" rx="4" fill="#E6E6E6"/>
<rect x="172" y="319" width="272" height="13" rx="4" fill="#E6E6E6"/>
<rect x="151" y="273" width="460" height="195" fill="url(#paint0_linear)"/>
<circle cx="548.5" cy="154.5" r="11.5" fill="#F7D58C" stroke="white" stroke-width="2"/>
<circle cx="561.5" cy="154.5" r="11.5" fill="#73304F" stroke="white" stroke-width="2"/>
<circle cx="561.5" cy="227.5" r="11.5" fill="#C3326B" stroke="white" stroke-width="2"/>
<circle cx="574.5" cy="154.5" r="11.5" fill="#8FD4DD" stroke="white" stroke-width="2"/>
<circle cx="574.5" cy="227.5" r="11.5" fill="#7E964F" stroke="white" stroke-width="2"/>
</g>
<defs>
<filter id="filter0_d" x="0" y="0" width="669" height="494" filterUnits="userSpaceOnUse" color-interpolation-filters="sRGB">
<feFlood flood-opacity="0" result="BackgroundImageFix"/>
<feColorMatrix in="SourceAlpha" type="matrix" values="0 0 0 0 0 0 0 0 0 0 0 0 0 0 0 0 0 0 127 0"/>
<feOffset dy="6"/>
<feGaussianBlur stdDeviation="10"/>
<feColorMatrix type="matrix" values="0 0 0 0 0.0352941 0 0 0 0 0.0509804 0 0 0 0 0.0705882 0 0 0 0.2 0"/>
<feBlend mode="normal" in2="BackgroundImageFix" result="effect1_dropShadow"/>
<feBlend mode="normal" in="SourceGraphic" in2="effect1_dropShadow" result="shape"/>
</filter>
<linearGradient id="paint0_linear" x1="381" y1="273" x2="381" y2="422.312" gradientUnits="userSpaceOnUse">
<stop stop-color="white" stop-opacity="0"/>
<stop offset="1" stop-color="white"/>
</linearGradient>
</defs>
</svg>
