<svg width="234" height="38" viewBox="0 0 234 38" fill="none" xmlns="http://www.w3.org/2000/svg">
<path d="M65.5461 28.7776C62.9959 28.7776 60.9342 27.9413 59.361 26.2688C57.7713 24.5962 56.9764 22.3524 56.9764 19.5372C56.9764 16.7055 57.763 14.4534 59.3362 12.7808C60.8928 11.1249 62.9628 10.2969 65.5461 10.2969C67.6161 10.2969 69.3797 10.8516 70.8369 11.9611C72.2942 13.0706 73.205 14.6769 73.5693 16.78H70.1663C69.8682 15.6208 69.3134 14.7432 68.502 14.147C67.7071 13.5343 66.7218 13.228 65.5461 13.228C63.9729 13.228 62.7309 13.791 61.8201 14.9171C60.9259 16.0266 60.4788 17.5666 60.4788 19.5372C60.4788 21.5244 60.9259 23.0727 61.8201 24.1822C62.7144 25.2918 63.9564 25.8465 65.5461 25.8465C66.7715 25.8465 67.8231 25.4822 68.7007 24.7536C69.5784 24.0249 70.1083 23.0148 70.2905 21.7231H73.6438C73.4286 23.9753 72.5509 25.714 71.0108 26.9395C69.4873 28.1649 67.6657 28.7776 65.5461 28.7776Z" fill="black"/>
<path d="M88.0163 21.9715C88.0163 23.9918 87.4201 25.6147 86.2278 26.8401C85.0355 28.0655 83.4624 28.6782 81.5083 28.6782C79.5542 28.6782 77.9811 28.0655 76.7888 26.8401C75.5799 25.6312 74.9755 24.0084 74.9755 21.9715C74.9755 19.9347 75.5799 18.3118 76.7888 17.1029C77.9811 15.8775 79.5542 15.2648 81.5083 15.2648C83.4624 15.2648 85.0355 15.8692 86.2278 17.0781C87.4201 18.287 88.0163 19.9181 88.0163 21.9715ZM79.0492 25.0268C79.6453 25.7389 80.465 26.0949 81.5083 26.0949C82.5516 26.0949 83.363 25.7389 83.9426 25.0268C84.5387 24.2982 84.8368 23.2797 84.8368 21.9715C84.8368 20.6633 84.5387 19.6532 83.9426 18.9411C83.363 18.2125 82.5516 17.8481 81.5083 17.8481C80.465 17.8481 79.6453 18.2042 79.0492 18.9162C78.4696 19.6283 78.1798 20.6467 78.1798 21.9715C78.1798 23.2963 78.4696 24.3147 79.0492 25.0268Z" fill="black"/>
<path d="M104.611 15.2648C106.018 15.2648 107.111 15.6788 107.889 16.5068C108.684 17.3348 109.082 18.4691 109.082 19.9098V28.3802H105.952V20.4066C105.952 18.7838 105.215 17.9723 103.741 17.9723C102.946 17.9723 102.3 18.2621 101.804 18.8417C101.323 19.4048 101.083 20.2327 101.083 21.3257V28.3802H97.9784V20.4066C97.9784 18.7838 97.2332 17.9723 95.7428 17.9723C94.9645 17.9723 94.3269 18.2621 93.8301 18.8417C93.3499 19.4048 93.1098 20.2327 93.1098 21.3257V28.3802H89.98V15.5629H93.0104V17.401C93.8881 15.9769 95.1052 15.2648 96.6619 15.2648C98.6159 15.2648 99.9407 16.0597 100.636 17.6494C101.597 16.0597 102.921 15.2648 104.611 15.2648Z" fill="black"/>
<path d="M126.248 15.2648C127.656 15.2648 128.749 15.6788 129.527 16.5068C130.322 17.3348 130.719 18.4691 130.719 19.9098V28.3802H127.59V20.4066C127.59 18.7838 126.853 17.9723 125.379 17.9723C124.584 17.9723 123.938 18.2621 123.441 18.8417C122.961 19.4048 122.721 20.2327 122.721 21.3257V28.3802H119.616V20.4066C119.616 18.7838 118.871 17.9723 117.38 17.9723C116.602 17.9723 115.965 18.2621 115.468 18.8417C114.988 19.4048 114.747 20.2327 114.747 21.3257V28.3802H111.618V15.5629H114.648V17.401C115.526 15.9769 116.743 15.2648 118.3 15.2648C120.254 15.2648 121.578 16.0597 122.274 17.6494C123.234 16.0597 124.559 15.2648 126.248 15.2648Z" fill="black"/>
<path d="M145.725 21.9715C145.725 23.9918 145.129 25.6147 143.936 26.8401C142.744 28.0655 141.171 28.6782 139.217 28.6782C137.263 28.6782 135.69 28.0655 134.497 26.8401C133.288 25.6312 132.684 24.0084 132.684 21.9715C132.684 19.9347 133.288 18.3118 134.497 17.1029C135.69 15.8775 137.263 15.2648 139.217 15.2648C141.171 15.2648 142.744 15.8692 143.936 17.0781C145.129 18.287 145.725 19.9181 145.725 21.9715ZM136.758 25.0268C137.354 25.7389 138.174 26.0949 139.217 26.0949C140.26 26.0949 141.072 25.7389 141.651 25.0268C142.247 24.2982 142.545 23.2797 142.545 21.9715C142.545 20.6633 142.247 19.6532 141.651 18.9411C141.072 18.2125 140.26 17.8481 139.217 17.8481C138.174 17.8481 137.354 18.2042 136.758 18.9162C136.178 19.6283 135.888 20.6467 135.888 21.9715C135.888 23.2963 136.178 24.3147 136.758 25.0268Z" fill="black"/>
<path d="M154.718 15.2648C156.109 15.2648 157.202 15.6705 157.997 16.482C158.808 17.2768 159.214 18.4112 159.214 19.885V28.3802H156.084V20.4066C156.084 18.7838 155.281 17.9723 153.675 17.9723C152.88 17.9723 152.201 18.2621 151.638 18.8417C151.092 19.4048 150.818 20.1913 150.818 21.2015V28.3802H147.689V15.5629H150.719V17.401C151.696 15.9769 153.029 15.2648 154.718 15.2648Z" fill="black"/>
<path d="M175.509 20.3569L176.95 15.5629H180.303L176.081 28.3802H172.802L171.187 23.1141C170.575 20.9614 170.21 19.6863 170.094 19.2888C170.045 19.471 169.689 20.7461 169.026 23.1141L167.436 28.3802H164.158L159.935 15.5629H163.288L164.729 20.3569C165.093 21.4996 165.516 22.9817 165.996 24.8032C166.459 22.9651 166.865 21.4747 167.213 20.3321L168.629 15.5629H171.61L173.025 20.3321C173.373 21.4747 173.779 22.9651 174.243 24.8032C174.673 23.1638 175.095 21.6817 175.509 20.3569Z" fill="black"/>
<path d="M193.091 22.1951V22.9403H183.503C183.619 24.0332 183.958 24.8612 184.521 25.4242C185.101 25.9707 185.871 26.2439 186.831 26.2439C188.256 26.2439 189.233 25.6312 189.762 24.4058H192.768C192.437 25.714 191.741 26.7573 190.682 27.5356C189.622 28.2974 188.33 28.6782 186.807 28.6782C184.902 28.6782 183.362 28.0655 182.186 26.8401C181.011 25.6147 180.423 23.9918 180.423 21.9715C180.423 19.9512 181.002 18.3284 182.162 17.1029C183.337 15.8775 184.869 15.2648 186.757 15.2648C188.694 15.2648 190.234 15.9024 191.377 17.1775C192.52 18.4526 193.091 20.1251 193.091 22.1951ZM186.732 17.6991C184.894 17.6991 183.826 18.7175 183.528 20.7544H189.961C189.829 19.8105 189.481 19.0653 188.918 18.5188C188.355 17.9723 187.626 17.6991 186.732 17.6991Z" fill="black"/>
<path d="M206.516 28.3802H203.386C203.237 28.1152 203.121 27.5936 203.039 26.8153C202.178 28.0572 200.803 28.6782 198.915 28.6782C197.508 28.6782 196.382 28.3388 195.537 27.6598C194.709 26.9809 194.295 26.0369 194.295 24.8281C194.295 22.4932 195.935 21.1601 199.213 20.8289L201.151 20.655C201.797 20.5722 202.26 20.4232 202.542 20.2079C202.823 19.9761 202.964 19.6366 202.964 19.1895C202.964 18.643 202.782 18.2456 202.418 17.9972C202.07 17.7322 201.474 17.5997 200.629 17.5997C199.718 17.5997 199.064 17.7571 198.667 18.0717C198.269 18.3698 198.038 18.8914 197.971 19.6366H194.891C195.073 16.7221 196.994 15.2648 200.654 15.2648C204.214 15.2648 205.995 16.5482 205.995 19.115V25.9459C205.995 27.0719 206.169 27.8834 206.516 28.3802ZM199.661 26.4427C200.638 26.4427 201.432 26.1777 202.045 25.6478C202.658 25.1013 202.964 24.323 202.964 23.3129V22.1454C202.666 22.4104 202.178 22.5842 201.499 22.667L199.81 22.8657C198.982 22.9651 198.385 23.1638 198.021 23.4619C197.673 23.7434 197.499 24.1574 197.499 24.7039C197.499 25.2504 197.682 25.6809 198.046 25.9955C198.427 26.2936 198.965 26.4427 199.661 26.4427Z" fill="black"/>
<path d="M211.438 28.3802H208.308V10.6943H211.438V28.3802Z" fill="black"/>
<path d="M220.642 15.5629V17.9475H218.108V24.8778C218.108 25.2918 218.216 25.5816 218.431 25.7471C218.663 25.9127 219.044 25.9955 219.574 25.9955H220.642V28.3802C219.963 28.4464 219.416 28.4795 219.002 28.4795C217.611 28.4795 216.593 28.2228 215.947 27.7095C215.318 27.1796 215.003 26.3433 215.003 25.2007V17.9475H213.016V15.5629H215.003V11.8369H218.108V15.5629H220.642Z" fill="black"/>
<path d="M229.504 15.2648C230.895 15.2648 231.988 15.6705 232.783 16.482C233.594 17.2768 234 18.4112 234 19.885V28.3802H230.87V20.4066C230.87 18.7838 230.067 17.9723 228.461 17.9723C227.666 17.9723 226.987 18.2621 226.424 18.8417C225.877 19.4048 225.604 20.1913 225.604 21.2015V28.3802H222.474V10.6943H225.604V17.2768C226.581 15.9355 227.881 15.2648 229.504 15.2648Z" fill="black"/>
<g clip-path="url(#clip0)">
<path d="M4.07833 8.39641C6.33073 8.39641 8.15666 6.57048 8.15666 4.31808C8.15666 2.06568 6.33073 0.239746 4.07833 0.239746C1.82593 0.239746 0 2.06568 0 4.31808C0 6.57048 1.82593 8.39641 4.07833 8.39641Z" fill="url(#paint0_linear)"/>
<path d="M13.8663 8.39641C16.1187 8.39641 17.9446 6.57048 17.9446 4.31808C17.9446 2.06568 16.1187 0.239746 13.8663 0.239746C11.6139 0.239746 9.78796 2.06568 9.78796 4.31808C9.78796 6.57048 11.6139 8.39641 13.8663 8.39641Z" fill="url(#paint1_linear)"/>
<path d="M23.6543 8.39641C25.9067 8.39641 27.7326 6.57048 27.7326 4.31808C27.7326 2.06568 25.9067 0.239746 23.6543 0.239746C21.4019 0.239746 19.576 2.06568 19.576 4.31808C19.576 6.57048 21.4019 8.39641 23.6543 8.39641Z" fill="url(#paint2_linear)"/>
<path d="M33.4423 8.39641C35.6947 8.39641 37.5206 6.57048 37.5206 4.31808C37.5206 2.06568 35.6947 0.239746 33.4423 0.239746C31.1899 0.239746 29.364 2.06568 29.364 4.31808C29.364 6.57048 31.1899 8.39641 33.4423 8.39641Z" fill="url(#paint3_linear)"/>
<path d="M4.07833 18.1845C6.33073 18.1845 8.15666 16.3586 8.15666 14.1062C8.15666 11.8538 6.33073 10.0278 4.07833 10.0278C1.82593 10.0278 0 11.8538 0 14.1062C0 16.3586 1.82593 18.1845 4.07833 18.1845Z" fill="url(#paint4_linear)"/>
<path d="M23.6543 18.1845C25.9067 18.1845 27.7326 16.3586 27.7326 14.1062C27.7326 11.8538 25.9067 10.0278 23.6543 10.0278C21.4019 10.0278 19.576 11.8538 19.576 14.1062C19.576 16.3586 21.4019 18.1845 23.6543 18.1845Z" fill="url(#paint5_linear)"/>
<path d="M33.4423 18.1845C35.6947 18.1845 37.5206 16.3586 37.5206 14.1062C37.5206 11.8538 35.6947 10.0278 33.4423 10.0278C31.1899 10.0278 29.364 11.8538 29.364 14.1062C29.364 16.3586 31.1899 18.1845 33.4423 18.1845Z" fill="url(#paint6_linear)"/>
<path d="M4.07833 27.9723C6.33073 27.9723 8.15666 26.1464 8.15666 23.894C8.15666 21.6416 6.33073 19.8157 4.07833 19.8157C1.82593 19.8157 0 21.6416 0 23.894C0 26.1464 1.82593 27.9723 4.07833 27.9723Z" fill="url(#paint7_linear)"/>
<path d="M13.8663 27.9723C16.1187 27.9723 17.9446 26.1464 17.9446 23.894C17.9446 21.6416 16.1187 19.8157 13.8663 19.8157C11.6139 19.8157 9.78796 21.6416 9.78796 23.894C9.78796 26.1464 11.6139 27.9723 13.8663 27.9723Z" fill="url(#paint8_linear)"/>
<path d="M33.4423 27.9723C35.6947 27.9723 37.5206 26.1464 37.5206 23.894C37.5206 21.6416 35.6947 19.8157 33.4423 19.8157C31.1899 19.8157 29.364 21.6416 29.364 23.894C29.364 26.1464 31.1899 27.9723 33.4423 27.9723Z" fill="url(#paint9_linear)"/>
<path d="M4.07833 37.7604C6.33073 37.7604 8.15666 35.9345 8.15666 33.6821C8.15666 31.4297 6.33073 29.6038 4.07833 29.6038C1.82593 29.6038 0 31.4297 0 33.6821C0 35.9345 1.82593 37.7604 4.07833 37.7604Z" fill="url(#paint10_linear)"/>
<path d="M13.8663 37.7604C16.1187 37.7604 17.9446 35.9345 17.9446 33.6821C17.9446 31.4297 16.1187 29.6038 13.8663 29.6038C11.6139 29.6038 9.78796 31.4297 9.78796 33.6821C9.78796 35.9345 11.6139 37.7604 13.8663 37.7604Z" fill="url(#paint11_linear)"/>
<path d="M23.6543 37.7604C25.9067 37.7604 27.7326 35.9345 27.7326 33.6821C27.7326 31.4297 25.9067 29.6038 23.6543 29.6038C21.4019 29.6038 19.576 31.4297 19.576 33.6821C19.576 35.9345 21.4019 37.7604 23.6543 37.7604Z" fill="url(#paint12_linear)"/>
<path d="M33.4423 37.7604C35.6947 37.7604 37.5206 35.9345 37.5206 33.6821C37.5206 31.4297 35.6947 29.6038 33.4423 29.6038C31.1899 29.6038 29.364 31.4297 29.364 33.6821C29.364 35.9345 31.1899 37.7604 33.4423 37.7604Z" fill="url(#paint13_linear)"/>
<path d="M13.8661 9.82642L9.58655 14.106L13.8661 18.3855L18.1456 14.106L13.8661 9.82642Z" fill="black"/>
<path d="M23.6541 19.6145L19.3745 23.894L23.6541 28.1736L27.9336 23.894L23.6541 19.6145Z" fill="black"/>
</g>
<defs>
<linearGradient id="paint0_linear" x1="19.2124" y1="-13.0467" x2="-12.1558" y2="22.9451" gradientUnits="userSpaceOnUse">
<stop stop-color="#79E0E8"/>
<stop offset="0.2451" stop-color="#BF8E60"/>
<stop offset="0.5155" stop-color="#D69FCC"/>
<stop offset="0.7896" stop-color="#6086D1"/>
<stop offset="1" stop-color="#B37DBA"/>
</linearGradient>
<linearGradient id="paint1_linear" x1="24.775" y1="-8.1986" x2="-6.59317" y2="27.7932" gradientUnits="userSpaceOnUse">
<stop stop-color="#79E0E8"/>
<stop offset="0.2451" stop-color="#BF8E60"/>
<stop offset="0.5155" stop-color="#D69FCC"/>
<stop offset="0.7896" stop-color="#6086D1"/>
<stop offset="1" stop-color="#B37DBA"/>
</linearGradient>
<linearGradient id="paint2_linear" x1="30.3378" y1="-3.3505" x2="-1.03044" y2="32.6413" gradientUnits="userSpaceOnUse">
<stop stop-color="#79E0E8"/>
<stop offset="0.2451" stop-color="#BF8E60"/>
<stop offset="0.5155" stop-color="#D69FCC"/>
<stop offset="0.7896" stop-color="#6086D1"/>
<stop offset="1" stop-color="#B37DBA"/>
</linearGradient>
<linearGradient id="paint3_linear" x1="35.9004" y1="1.49759" x2="4.53224" y2="37.4894" gradientUnits="userSpaceOnUse">
<stop stop-color="#79E0E8"/>
<stop offset="0.2451" stop-color="#BF8E60"/>
<stop offset="0.5155" stop-color="#D69FCC"/>
<stop offset="0.7896" stop-color="#6086D1"/>
<stop offset="1" stop-color="#B37DBA"/>
</linearGradient>
<linearGradient id="paint4_linear" x1="24.0605" y1="-8.82131" x2="-7.30775" y2="27.1705" gradientUnits="userSpaceOnUse">
<stop stop-color="#79E0E8"/>
<stop offset="0.2451" stop-color="#BF8E60"/>
<stop offset="0.5155" stop-color="#D69FCC"/>
<stop offset="0.7896" stop-color="#6086D1"/>
<stop offset="1" stop-color="#B37DBA"/>
</linearGradient>
<linearGradient id="paint5_linear" x1="35.1859" y1="0.874877" x2="3.81766" y2="36.8667" gradientUnits="userSpaceOnUse">
<stop stop-color="#79E0E8"/>
<stop offset="0.2451" stop-color="#BF8E60"/>
<stop offset="0.5155" stop-color="#D69FCC"/>
<stop offset="0.7896" stop-color="#6086D1"/>
<stop offset="1" stop-color="#B37DBA"/>
</linearGradient>
<linearGradient id="paint6_linear" x1="40.7485" y1="5.72298" x2="9.38033" y2="41.7148" gradientUnits="userSpaceOnUse">
<stop stop-color="#79E0E8"/>
<stop offset="0.2451" stop-color="#BF8E60"/>
<stop offset="0.5155" stop-color="#D69FCC"/>
<stop offset="0.7896" stop-color="#6086D1"/>
<stop offset="1" stop-color="#B37DBA"/>
</linearGradient>
<linearGradient id="paint7_linear" x1="28.9086" y1="-4.59617" x2="-2.45965" y2="31.3957" gradientUnits="userSpaceOnUse">
<stop stop-color="#79E0E8"/>
<stop offset="0.2451" stop-color="#BF8E60"/>
<stop offset="0.5155" stop-color="#D69FCC"/>
<stop offset="0.7896" stop-color="#6086D1"/>
<stop offset="1" stop-color="#B37DBA"/>
</linearGradient>
<linearGradient id="paint8_linear" x1="34.4712" y1="0.251927" x2="3.10302" y2="36.2438" gradientUnits="userSpaceOnUse">
<stop stop-color="#79E0E8"/>
<stop offset="0.2451" stop-color="#BF8E60"/>
<stop offset="0.5155" stop-color="#D69FCC"/>
<stop offset="0.7896" stop-color="#6086D1"/>
<stop offset="1" stop-color="#B37DBA"/>
</linearGradient>
<linearGradient id="paint9_linear" x1="45.5966" y1="9.94812" x2="14.2284" y2="45.94" gradientUnits="userSpaceOnUse">
<stop stop-color="#79E0E8"/>
<stop offset="0.2451" stop-color="#BF8E60"/>
<stop offset="0.5155" stop-color="#D69FCC"/>
<stop offset="0.7896" stop-color="#6086D1"/>
<stop offset="1" stop-color="#B37DBA"/>
</linearGradient>
<linearGradient id="paint10_linear" x1="33.7567" y1="-0.37078" x2="2.38844" y2="35.6211" gradientUnits="userSpaceOnUse">
<stop stop-color="#79E0E8"/>
<stop offset="0.2451" stop-color="#BF8E60"/>
<stop offset="0.5155" stop-color="#D69FCC"/>
<stop offset="0.7896" stop-color="#6086D1"/>
<stop offset="1" stop-color="#B37DBA"/>
</linearGradient>
<linearGradient id="paint11_linear" x1="39.3193" y1="4.47731" x2="7.95112" y2="40.4692" gradientUnits="userSpaceOnUse">
<stop stop-color="#79E0E8"/>
<stop offset="0.2451" stop-color="#BF8E60"/>
<stop offset="0.5155" stop-color="#D69FCC"/>
<stop offset="0.7896" stop-color="#6086D1"/>
<stop offset="1" stop-color="#B37DBA"/>
</linearGradient>
<linearGradient id="paint12_linear" x1="44.8821" y1="9.32541" x2="13.5138" y2="45.3173" gradientUnits="userSpaceOnUse">
<stop stop-color="#79E0E8"/>
<stop offset="0.2451" stop-color="#BF8E60"/>
<stop offset="0.5155" stop-color="#D69FCC"/>
<stop offset="0.7896" stop-color="#6086D1"/>
<stop offset="1" stop-color="#B37DBA"/>
</linearGradient>
<linearGradient id="paint13_linear" x1="50.4447" y1="14.1735" x2="19.0765" y2="50.1654" gradientUnits="userSpaceOnUse">
<stop stop-color="#79E0E8"/>
<stop offset="0.2451" stop-color="#BF8E60"/>
<stop offset="0.5155" stop-color="#D69FCC"/>
<stop offset="0.7896" stop-color="#6086D1"/>
<stop offset="1" stop-color="#B37DBA"/>
</linearGradient>
<clipPath id="clip0">
<rect width="37.5206" height="37.5206" fill="white" transform="translate(0 0.239746)"/>
</clipPath>
</defs>
</svg>
