<svg width="320" height="187" viewBox="0 0 320 187" fill="none" xmlns="http://www.w3.org/2000/svg">
<rect width="320" height="186" fill="white"/>
<rect width="320" height="165" fill="#E5F1FF"/>
<path d="M317.53 127.139C216.708 173.649 100.486 173.232 0 126V165H320V126L317.53 127.139Z" fill="white"/>
<g filter="url(#filter0_d_424_12589)">
<mask id="mask0_424_12589" style="mask-type:alpha" maskUnits="userSpaceOnUse" x="120" y="18" width="80" height="80">
<circle cx="160" cy="58" r="39.75" fill="#338FFF" stroke="black" stroke-width="0.5"/>
</mask>
<g mask="url(#mask0_424_12589)">
<rect x="120.25" y="18.25" width="79.5" height="79.5" fill="#338FFF"/>
<rect width="8" height="8" transform="translate(120 18)" fill="white"/>
<rect width="8" height="8" transform="translate(128 18)" fill="#656167"/>
<rect width="8" height="8" transform="translate(136 18)" fill="#F7F6F7"/>
<rect width="8" height="8" transform="translate(144 18)" fill="#CCE3FF"/>
<rect width="8" height="8" transform="translate(152 18)" fill="#CCE3FF"/>
<rect width="8" height="8" transform="translate(160 18)" fill="#CCE3FF"/>
<rect width="8" height="8" transform="translate(168 18)" fill="#CCE3FF"/>
<rect width="8" height="8" transform="translate(176 18)" fill="#F7F6F7"/>
<rect width="8" height="8" transform="translate(184 18)" fill="#656167"/>
<rect width="8" height="8" transform="translate(192 18)" fill="white"/>
<rect width="8" height="8" transform="translate(120 26)" fill="#656167"/>
<rect width="8" height="8" transform="translate(128 26)" fill="#F7F6F7"/>
<rect width="8" height="8" transform="translate(136 26)" fill="#99C7FF"/>
<rect width="8" height="8" transform="translate(144 26)" fill="white"/>
<rect width="8" height="8" transform="translate(152 26)" fill="white"/>
<rect width="8" height="8" transform="translate(160 26)" fill="white"/>
<rect width="8" height="8" transform="translate(168 26)" fill="white"/>
<rect width="8" height="8" transform="translate(176 26)" fill="#99C7FF"/>
<rect width="8" height="8" transform="translate(184 26)" fill="#F7F6F7"/>
<rect width="8" height="8" transform="translate(192 26)" fill="#656167"/>
<rect width="8" height="8" transform="translate(120 34)" fill="#A09DA2"/>
<rect width="8" height="8" transform="translate(128 34)" fill="#99C7FF"/>
<rect width="8" height="8" transform="translate(136 34)" fill="white"/>
<rect width="8" height="8" transform="translate(144 34)" fill="#99C7FF"/>
<rect width="8" height="8" transform="translate(152 34)" fill="#99C7FF"/>
<rect width="8" height="8" transform="translate(160 34)" fill="#99C7FF"/>
<rect width="8" height="8" transform="translate(168 34)" fill="#99C7FF"/>
<rect width="8" height="8" transform="translate(176 34)" fill="white"/>
<rect width="8" height="8" transform="translate(184 34)" fill="#99C7FF"/>
<rect width="8" height="8" transform="translate(192 34)" fill="#A09DA2"/>
<rect width="8" height="8" transform="translate(120 42)" fill="#656167"/>
<rect width="8" height="8" transform="translate(128 42)" fill="white"/>
<rect width="8" height="8" transform="translate(136 42)" fill="#99C7FF"/>
<rect width="8" height="8" transform="translate(144 42)" fill="white"/>
<rect width="8" height="8" transform="translate(152 42)" fill="white"/>
<rect width="8" height="8" transform="translate(160 42)" fill="white"/>
<rect width="8" height="8" transform="translate(168 42)" fill="white"/>
<rect width="8" height="8" transform="translate(176 42)" fill="#99C7FF"/>
<rect width="8" height="8" transform="translate(184 42)" fill="white"/>
<rect width="8" height="8" transform="translate(192 42)" fill="#656167"/>
<rect width="8" height="8" transform="translate(120 50)" fill="#E5F1FF"/>
<rect width="8" height="8" transform="translate(128 50)" fill="white"/>
<rect width="8" height="8" transform="translate(136 50)" fill="#99C7FF"/>
<rect width="8" height="8" transform="translate(144 50)" fill="white"/>
<rect width="8" height="8" transform="translate(152 50)" fill="#66ABFF"/>
<rect width="8" height="8" transform="translate(160 50)" fill="#338FFF"/>
<rect width="8" height="8" transform="translate(168 50)" fill="white"/>
<rect width="8" height="8" transform="translate(176 50)" fill="#99C7FF"/>
<rect width="8" height="8" transform="translate(184 50)" fill="white"/>
<rect width="8" height="8" transform="translate(192 50)" fill="#E5F1FF"/>
<rect width="8" height="8" transform="translate(120 58)" fill="#E5F1FF"/>
<rect width="8" height="8" transform="translate(128 58)" fill="white"/>
<rect width="8" height="8" transform="translate(136 58)" fill="#99C7FF"/>
<rect width="8" height="8" transform="translate(144 58)" fill="white"/>
<rect width="8" height="8" transform="translate(152 58)" fill="#338FFF"/>
<rect width="8" height="8" transform="translate(160 58)" fill="#66ABFF"/>
<rect width="8" height="8" transform="translate(168 58)" fill="white"/>
<rect width="8" height="8" transform="translate(176 58)" fill="#99C7FF"/>
<rect width="8" height="8" transform="translate(184 58)" fill="white"/>
<rect width="8" height="8" transform="translate(192 58)" fill="#E5F1FF"/>
<rect width="8" height="8" transform="translate(120 66)" fill="#656167"/>
<rect width="8" height="8" transform="translate(128 66)" fill="white"/>
<rect width="8" height="8" transform="translate(136 66)" fill="#99C7FF"/>
<rect width="8" height="8" transform="translate(144 66)" fill="white"/>
<rect width="8" height="8" transform="translate(152 66)" fill="white"/>
<rect width="8" height="8" transform="translate(160 66)" fill="white"/>
<rect width="8" height="8" transform="translate(168 66)" fill="white"/>
<rect width="8" height="8" transform="translate(176 66)" fill="#99C7FF"/>
<rect width="8" height="8" transform="translate(184 66)" fill="white"/>
<rect width="8" height="8" transform="translate(192 66)" fill="#656167"/>
<rect width="8" height="8" transform="translate(120 74)" fill="#A09DA2"/>
<rect width="8" height="8" transform="translate(128 74)" fill="#99C7FF"/>
<rect width="8" height="8" transform="translate(136 74)" fill="white"/>
<rect width="8" height="8" transform="translate(144 74)" fill="#99C7FF"/>
<rect width="8" height="8" transform="translate(152 74)" fill="#99C7FF"/>
<rect width="8" height="8" transform="translate(160 74)" fill="#99C7FF"/>
<rect width="8" height="8" transform="translate(168 74)" fill="#99C7FF"/>
<rect width="8" height="8" transform="translate(176 74)" fill="white"/>
<rect width="8" height="8" transform="translate(184 74)" fill="#99C7FF"/>
<rect width="8" height="8" transform="translate(192 74)" fill="#A09DA2"/>
<rect width="8" height="8" transform="translate(120 82)" fill="#656167"/>
<rect width="8" height="8" transform="translate(128 82)" fill="#F7F6F7"/>
<rect width="8" height="8" transform="translate(136 82)" fill="#99C7FF"/>
<rect width="8" height="8" transform="translate(144 82)" fill="white"/>
<rect width="8" height="8" transform="translate(152 82)" fill="white"/>
<rect width="8" height="8" transform="translate(160 82)" fill="white"/>
<rect width="8" height="8" transform="translate(168 82)" fill="white"/>
<rect width="8" height="8" transform="translate(176 82)" fill="#99C7FF"/>
<rect width="8" height="8" transform="translate(184 82)" fill="#F7F6F7"/>
<rect width="8" height="8" transform="translate(192 82)" fill="#656167"/>
<rect width="8" height="8" transform="translate(120 90)" fill="white"/>
<rect width="8" height="8" transform="translate(128 90)" fill="#656167"/>
<rect width="8" height="8" transform="translate(136 90)" fill="#F7F6F7"/>
<rect width="8" height="8" transform="translate(144 90)" fill="#CCE3FF"/>
<rect width="8" height="8" transform="translate(152 90)" fill="#CCE3FF"/>
<rect width="8" height="8" transform="translate(160 90)" fill="#CCE3FF"/>
<rect width="8" height="8" transform="translate(168 90)" fill="#CCE3FF"/>
<rect width="8" height="8" transform="translate(176 90)" fill="#F7F6F7"/>
<rect width="8" height="8" transform="translate(184 90)" fill="#656167"/>
<rect width="8" height="8" transform="translate(192 90)" fill="white"/>
<rect x="120.25" y="18.25" width="79.5" height="79.5" stroke="black" stroke-width="0.5"/>
</g>
<rect x="118.5" y="16.5" width="83" height="83" rx="41.5" stroke="#342E37" stroke-width="3" shape-rendering="crispEdges"/>
</g>
<path d="M161.023 105.903C160.418 105.338 159.469 105.371 158.903 105.977L149.692 115.846C149.127 116.451 149.16 117.401 149.765 117.966C150.371 118.531 151.32 118.498 151.885 117.893L160.073 109.12L168.846 117.308C169.451 117.873 170.401 117.84 170.966 117.235C171.531 116.629 171.498 115.68 170.893 115.115L161.023 105.903ZM130.042 146.499C139.703 146.231 147.711 139.941 153.168 132.107C158.627 124.272 161.762 114.584 161.499 106.948L158.501 107.052C158.738 113.916 155.873 122.978 150.707 130.393C145.539 137.809 138.297 143.269 129.958 143.501L130.042 146.499Z" fill="#342E37"/>
<g filter="url(#filter1_d_424_12589)">
<mask id="mask1_424_12589" style="mask-type:alpha" maskUnits="userSpaceOnUse" x="104" y="141" width="40" height="40">
<circle cx="124" cy="161" r="19.875" fill="#338FFF" stroke="black" stroke-width="0.25"/>
</mask>
<g mask="url(#mask1_424_12589)">
<rect x="104.125" y="141.125" width="39.75" height="39.75" fill="#DECCFF"/>
<rect width="4" height="4" transform="translate(104 141)" fill="white"/>
<rect width="4" height="4" transform="translate(108 141)" fill="#656167"/>
<rect width="4" height="4" transform="translate(112 141)" fill="#EEE5FF"/>
<rect width="4" height="4" transform="translate(116 141)" fill="#DECCFF"/>
<rect width="4" height="4" transform="translate(120 141)" fill="#DECCFF"/>
<rect width="4" height="4" transform="translate(124 141)" fill="#DECCFF"/>
<rect width="4" height="4" transform="translate(128 141)" fill="#DECCFF"/>
<rect width="4" height="4" transform="translate(132 141)" fill="#EEE5FF"/>
<rect width="4" height="4" transform="translate(136 141)" fill="#656167"/>
<rect width="4" height="4" transform="translate(140 141)" fill="white"/>
<rect width="4" height="4" transform="translate(104 145)" fill="#656167"/>
<rect width="4" height="4" transform="translate(108 145)" fill="#EEE5FF"/>
<rect width="4" height="4" transform="translate(112 145)" fill="#BD99FF"/>
<rect width="4" height="4" transform="translate(116 145)" fill="white"/>
<rect width="4" height="4" transform="translate(120 145)" fill="white"/>
<rect width="4" height="4" transform="translate(124 145)" fill="white"/>
<rect width="4" height="4" transform="translate(128 145)" fill="white"/>
<rect width="4" height="4" transform="translate(132 145)" fill="#BD99FF"/>
<rect width="4" height="4" transform="translate(136 145)" fill="#EEE5FF"/>
<rect width="4" height="4" transform="translate(140 145)" fill="#656167"/>
<rect width="4" height="4" transform="translate(104 149)" fill="#A09DA2"/>
<rect width="4" height="4" transform="translate(108 149)" fill="#BD99FF"/>
<rect width="4" height="4" transform="translate(112 149)" fill="white"/>
<rect width="4" height="4" transform="translate(116 149)" fill="#BD99FF"/>
<rect width="4" height="4" transform="translate(120 149)" fill="#BD99FF"/>
<rect width="4" height="4" transform="translate(124 149)" fill="#BD99FF"/>
<rect width="4" height="4" transform="translate(128 149)" fill="#BD99FF"/>
<rect width="4" height="4" transform="translate(132 149)" fill="white"/>
<rect width="4" height="4" transform="translate(136 149)" fill="#BD99FF"/>
<rect width="4" height="4" transform="translate(140 149)" fill="#A09DA2"/>
<rect width="4" height="4" transform="translate(104 153)" fill="#656167"/>
<rect width="4" height="4" transform="translate(108 153)" fill="white"/>
<rect width="4" height="4" transform="translate(112 153)" fill="#BD99FF"/>
<rect width="4" height="4" transform="translate(116 153)" fill="white"/>
<rect width="4" height="4" transform="translate(120 153)" fill="white"/>
<rect width="4" height="4" transform="translate(124 153)" fill="white"/>
<rect width="4" height="4" transform="translate(128 153)" fill="white"/>
<rect width="4" height="4" transform="translate(132 153)" fill="#BD99FF"/>
<rect width="4" height="4" transform="translate(136 153)" fill="white"/>
<rect width="4" height="4" transform="translate(140 153)" fill="#656167"/>
<rect width="4" height="4" transform="translate(104 157)" fill="#EEE5FF"/>
<rect width="4" height="4" transform="translate(108 157)" fill="white"/>
<rect width="4" height="4" transform="translate(112 157)" fill="#BD99FF"/>
<rect width="4" height="4" transform="translate(116 157)" fill="white"/>
<rect width="4" height="4" transform="translate(120 157)" fill="#9C66FF"/>
<rect width="4" height="4" transform="translate(124 157)" fill="#DECCFF"/>
<rect width="4" height="4" transform="translate(128 157)" fill="white"/>
<rect width="4" height="4" transform="translate(132 157)" fill="#BD99FF"/>
<rect width="4" height="4" transform="translate(136 157)" fill="white"/>
<rect width="4" height="4" transform="translate(140 157)" fill="#EEE5FF"/>
<rect width="4" height="4" transform="translate(104 161)" fill="#EEE5FF"/>
<rect width="4" height="4" transform="translate(108 161)" fill="white"/>
<rect width="4" height="4" transform="translate(112 161)" fill="#BD99FF"/>
<rect width="4" height="4" transform="translate(116 161)" fill="white"/>
<rect width="4" height="4" transform="translate(120 161)" fill="#DECCFF"/>
<rect width="4" height="4" transform="translate(124 161)" fill="#9C66FF"/>
<rect width="4" height="4" transform="translate(128 161)" fill="white"/>
<rect width="4" height="4" transform="translate(132 161)" fill="#BD99FF"/>
<rect width="4" height="4" transform="translate(136 161)" fill="white"/>
<rect width="4" height="4" transform="translate(140 161)" fill="#EEE5FF"/>
<rect width="4" height="4" transform="translate(104 165)" fill="#656167"/>
<rect width="4" height="4" transform="translate(108 165)" fill="white"/>
<rect width="4" height="4" transform="translate(112 165)" fill="#BD99FF"/>
<rect width="4" height="4" transform="translate(116 165)" fill="white"/>
<rect width="4" height="4" transform="translate(120 165)" fill="white"/>
<rect width="4" height="4" transform="translate(124 165)" fill="white"/>
<rect width="4" height="4" transform="translate(128 165)" fill="white"/>
<rect width="4" height="4" transform="translate(132 165)" fill="#BD99FF"/>
<rect width="4" height="4" transform="translate(136 165)" fill="white"/>
<rect width="4" height="4" transform="translate(140 165)" fill="#656167"/>
<rect width="4" height="4" transform="translate(104 169)" fill="#A09DA2"/>
<rect width="4" height="4" transform="translate(108 169)" fill="#BD99FF"/>
<rect width="4" height="4" transform="translate(112 169)" fill="white"/>
<rect width="4" height="4" transform="translate(116 169)" fill="#BD99FF"/>
<rect width="4" height="4" transform="translate(120 169)" fill="#BD99FF"/>
<rect width="4" height="4" transform="translate(124 169)" fill="#BD99FF"/>
<rect width="4" height="4" transform="translate(128 169)" fill="#BD99FF"/>
<rect width="4" height="4" transform="translate(132 169)" fill="white"/>
<rect width="4" height="4" transform="translate(136 169)" fill="#BD99FF"/>
<rect width="4" height="4" transform="translate(140 169)" fill="#A09DA2"/>
<rect width="4" height="4" transform="translate(104 173)" fill="#656167"/>
<rect width="4" height="4" transform="translate(108 173)" fill="#EEE5FF"/>
<rect width="4" height="4" transform="translate(112 173)" fill="#BD99FF"/>
<rect width="4" height="4" transform="translate(116 173)" fill="white"/>
<rect width="4" height="4" transform="translate(120 173)" fill="white"/>
<rect width="4" height="4" transform="translate(124 173)" fill="white"/>
<rect width="4" height="4" transform="translate(128 173)" fill="white"/>
<rect width="4" height="4" transform="translate(132 173)" fill="#BD99FF"/>
<rect width="4" height="4" transform="translate(136 173)" fill="#EEE5FF"/>
<rect width="4" height="4" transform="translate(140 173)" fill="#656167"/>
<rect width="4" height="4" transform="translate(104 177)" fill="white"/>
<rect width="4" height="4" transform="translate(108 177)" fill="#656167"/>
<rect width="4" height="4" transform="translate(112 177)" fill="#EEE5FF"/>
<rect width="4" height="4" transform="translate(116 177)" fill="#DECCFF"/>
<rect width="4" height="4" transform="translate(120 177)" fill="#DECCFF"/>
<rect width="4" height="4" transform="translate(124 177)" fill="#DECCFF"/>
<rect width="4" height="4" transform="translate(128 177)" fill="#DECCFF"/>
<rect width="4" height="4" transform="translate(132 177)" fill="#EEE5FF"/>
<rect width="4" height="4" transform="translate(136 177)" fill="#656167"/>
<rect width="4" height="4" transform="translate(140 177)" fill="white"/>
<rect x="104.125" y="141.125" width="39.75" height="39.75" stroke="black" stroke-width="0.25"/>
</g>
<rect x="102.5" y="139.5" width="43" height="43" rx="21.5" stroke="#342E37" stroke-width="3" shape-rendering="crispEdges"/>
</g>
<path d="M158.515 144C158.515 144.828 159.186 145.5 160.015 145.5C160.843 145.5 161.515 144.828 161.515 144H158.515ZM161.075 105.939C160.49 105.354 159.54 105.354 158.954 105.939L149.408 115.485C148.822 116.071 148.822 117.021 149.408 117.607C149.994 118.192 150.944 118.192 151.529 117.607L160.015 109.121L168.5 117.607C169.086 118.192 170.035 118.192 170.621 117.607C171.207 117.021 171.207 116.071 170.621 115.485L161.075 105.939ZM161.515 144V107H158.515V144H161.515Z" fill="#342E37"/>
<g filter="url(#filter2_d_424_12589)">
<mask id="mask2_424_12589" style="mask-type:alpha" maskUnits="userSpaceOnUse" x="140" y="141" width="41" height="40">
<circle cx="160.015" cy="161" r="19.875" fill="#338FFF" stroke="black" stroke-width="0.25"/>
</mask>
<g mask="url(#mask2_424_12589)">
<rect x="140.14" y="141.125" width="39.75" height="39.75" fill="#78A824"/>
<rect width="4" height="4" transform="translate(140.015 141)" fill="white"/>
<rect width="4" height="4" transform="translate(144.015 141)" fill="#656167"/>
<rect width="4" height="4" transform="translate(148.015 141)" fill="#F7F6F7"/>
<rect width="4" height="4" transform="translate(152.015 141)" fill="#EAF6D5"/>
<rect width="4" height="4" transform="translate(156.015 141)" fill="#EAF6D5"/>
<rect width="4" height="4" transform="translate(160.015 141)" fill="#EAF6D5"/>
<rect width="4" height="4" transform="translate(164.015 141)" fill="#EAF6D5"/>
<rect width="4" height="4" transform="translate(168.015 141)" fill="#F7F6F7"/>
<rect width="4" height="4" transform="translate(172.015 141)" fill="#656167"/>
<rect width="4" height="4" transform="translate(176.015 141)" fill="white"/>
<rect width="4" height="4" transform="translate(140.015 145)" fill="#656167"/>
<rect width="4" height="4" transform="translate(144.015 145)" fill="#F7F6F7"/>
<rect width="4" height="4" transform="translate(148.015 145)" fill="#ABDB58"/>
<rect width="4" height="4" transform="translate(152.015 145)" fill="white"/>
<rect width="4" height="4" transform="translate(156.015 145)" fill="white"/>
<rect width="4" height="4" transform="translate(160.015 145)" fill="white"/>
<rect width="4" height="4" transform="translate(164.015 145)" fill="white"/>
<rect width="4" height="4" transform="translate(168.015 145)" fill="#ABDB58"/>
<rect width="4" height="4" transform="translate(172.015 145)" fill="#F7F6F7"/>
<rect width="4" height="4" transform="translate(176.015 145)" fill="#656167"/>
<rect width="4" height="4" transform="translate(140.015 149)" fill="#A09DA2"/>
<rect width="4" height="4" transform="translate(144.015 149)" fill="#ABDB58"/>
<rect width="4" height="4" transform="translate(148.015 149)" fill="white"/>
<rect width="4" height="4" transform="translate(152.015 149)" fill="#ABDB58"/>
<rect width="4" height="4" transform="translate(156.015 149)" fill="#ABDB58"/>
<rect width="4" height="4" transform="translate(160.015 149)" fill="#ABDB58"/>
<rect width="4" height="4" transform="translate(164.015 149)" fill="#ABDB58"/>
<rect width="4" height="4" transform="translate(168.015 149)" fill="white"/>
<rect width="4" height="4" transform="translate(172.015 149)" fill="#ABDB58"/>
<rect width="4" height="4" transform="translate(176.015 149)" fill="#A09DA2"/>
<rect width="4" height="4" transform="translate(140.015 153)" fill="#656167"/>
<rect width="4" height="4" transform="translate(144.015 153)" fill="white"/>
<rect width="4" height="4" transform="translate(148.015 153)" fill="#ABDB58"/>
<rect width="4" height="4" transform="translate(152.015 153)" fill="white"/>
<rect width="4" height="4" transform="translate(156.015 153)" fill="white"/>
<rect width="4" height="4" transform="translate(160.015 153)" fill="white"/>
<rect width="4" height="4" transform="translate(164.015 153)" fill="white"/>
<rect width="4" height="4" transform="translate(168.015 153)" fill="#ABDB58"/>
<rect width="4" height="4" transform="translate(172.015 153)" fill="white"/>
<rect width="4" height="4" transform="translate(176.015 153)" fill="#656167"/>
<rect width="4" height="4" transform="translate(140.015 157)" fill="#EAF6D5"/>
<rect width="4" height="4" transform="translate(144.015 157)" fill="white"/>
<rect width="4" height="4" transform="translate(148.015 157)" fill="#ABDB58"/>
<rect width="4" height="4" transform="translate(152.015 157)" fill="white"/>
<rect width="4" height="4" transform="translate(156.015 157)" fill="#B8E071"/>
<rect width="4" height="4" transform="translate(160.015 157)" fill="#78A824"/>
<rect width="4" height="4" transform="translate(164.015 157)" fill="white"/>
<rect width="4" height="4" transform="translate(168.015 157)" fill="#ABDB58"/>
<rect width="4" height="4" transform="translate(172.015 157)" fill="white"/>
<rect width="4" height="4" transform="translate(176.015 157)" fill="#EAF6D5"/>
<rect width="4" height="4" transform="translate(140.015 161)" fill="#EAF6D5"/>
<rect width="4" height="4" transform="translate(144.015 161)" fill="white"/>
<rect width="4" height="4" transform="translate(148.015 161)" fill="#ABDB58"/>
<rect width="4" height="4" transform="translate(152.015 161)" fill="white"/>
<rect width="4" height="4" transform="translate(156.015 161)" fill="#78A824"/>
<rect width="4" height="4" transform="translate(160.015 161)" fill="#B8E071"/>
<rect width="4" height="4" transform="translate(164.015 161)" fill="white"/>
<rect width="4" height="4" transform="translate(168.015 161)" fill="#ABDB58"/>
<rect width="4" height="4" transform="translate(172.015 161)" fill="white"/>
<rect width="4" height="4" transform="translate(176.015 161)" fill="#EAF6D5"/>
<rect width="4" height="4" transform="translate(140.015 165)" fill="#656167"/>
<rect width="4" height="4" transform="translate(144.015 165)" fill="white"/>
<rect width="4" height="4" transform="translate(148.015 165)" fill="#ABDB58"/>
<rect width="4" height="4" transform="translate(152.015 165)" fill="white"/>
<rect width="4" height="4" transform="translate(156.015 165)" fill="white"/>
<rect width="4" height="4" transform="translate(160.015 165)" fill="white"/>
<rect width="4" height="4" transform="translate(164.015 165)" fill="white"/>
<rect width="4" height="4" transform="translate(168.015 165)" fill="#ABDB58"/>
<rect width="4" height="4" transform="translate(172.015 165)" fill="white"/>
<rect width="4" height="4" transform="translate(176.015 165)" fill="#656167"/>
<rect width="4" height="4" transform="translate(140.015 169)" fill="#A09DA2"/>
<rect width="4" height="4" transform="translate(144.015 169)" fill="#ABDB58"/>
<rect width="4" height="4" transform="translate(148.015 169)" fill="white"/>
<rect width="4" height="4" transform="translate(152.015 169)" fill="#ABDB58"/>
<rect width="4" height="4" transform="translate(156.015 169)" fill="#ABDB58"/>
<rect width="4" height="4" transform="translate(160.015 169)" fill="#ABDB58"/>
<rect width="4" height="4" transform="translate(164.015 169)" fill="#ABDB58"/>
<rect width="4" height="4" transform="translate(168.015 169)" fill="white"/>
<rect width="4" height="4" transform="translate(172.015 169)" fill="#ABDB58"/>
<rect width="4" height="4" transform="translate(176.015 169)" fill="#A09DA2"/>
<rect width="4" height="4" transform="translate(140.015 173)" fill="#656167"/>
<rect width="4" height="4" transform="translate(144.015 173)" fill="#F7F6F7"/>
<rect width="4" height="4" transform="translate(148.015 173)" fill="#ABDB58"/>
<rect width="4" height="4" transform="translate(152.015 173)" fill="white"/>
<rect width="4" height="4" transform="translate(156.015 173)" fill="white"/>
<rect width="4" height="4" transform="translate(160.015 173)" fill="white"/>
<rect width="4" height="4" transform="translate(164.015 173)" fill="white"/>
<rect width="4" height="4" transform="translate(168.015 173)" fill="#ABDB58"/>
<rect width="4" height="4" transform="translate(172.015 173)" fill="#F7F6F7"/>
<rect width="4" height="4" transform="translate(176.015 173)" fill="#656167"/>
<rect width="4" height="4" transform="translate(140.015 177)" fill="white"/>
<rect width="4" height="4" transform="translate(144.015 177)" fill="#656167"/>
<rect width="4" height="4" transform="translate(148.015 177)" fill="#F7F6F7"/>
<rect width="4" height="4" transform="translate(152.015 177)" fill="#EAF6D5"/>
<rect width="4" height="4" transform="translate(156.015 177)" fill="#EAF6D5"/>
<rect width="4" height="4" transform="translate(160.015 177)" fill="#EAF6D5"/>
<rect width="4" height="4" transform="translate(164.015 177)" fill="#EAF6D5"/>
<rect width="4" height="4" transform="translate(168.015 177)" fill="#F7F6F7"/>
<rect width="4" height="4" transform="translate(172.015 177)" fill="#656167"/>
<rect width="4" height="4" transform="translate(176.015 177)" fill="white"/>
<rect x="140.14" y="141.125" width="39.75" height="39.75" stroke="black" stroke-width="0.25"/>
</g>
<rect x="138.515" y="139.5" width="43" height="43" rx="21.5" stroke="#342E37" stroke-width="3" shape-rendering="crispEdges"/>
</g>
<path d="M159.006 105.903C159.611 105.338 160.56 105.371 161.126 105.977L170.337 115.846C170.902 116.451 170.87 117.401 170.264 117.966C169.658 118.531 168.709 118.498 168.144 117.893L159.956 109.12L151.183 117.308C150.578 117.873 149.629 117.84 149.063 117.235C148.498 116.629 148.531 115.68 149.136 115.115L159.006 105.903ZM189.987 146.499C180.327 146.231 172.319 139.941 166.861 132.107C161.402 124.272 158.267 114.584 158.53 106.948L161.528 107.052C161.292 113.916 164.156 122.978 169.322 130.393C174.49 137.809 181.732 143.269 190.071 143.501L189.987 146.499Z" fill="#342E37"/>
<g filter="url(#filter3_d_424_12589)">
<mask id="mask3_424_12589" style="mask-type:alpha" maskUnits="userSpaceOnUse" x="176" y="141" width="41" height="40">
<circle cx="196.014" cy="161" r="19.875" fill="#338FFF" stroke="black" stroke-width="0.25"/>
</mask>
<g mask="url(#mask3_424_12589)">
<rect x="176.139" y="141.125" width="39.75" height="39.75" fill="#FF521D"/>
<rect width="4" height="4" transform="translate(176.014 141)" fill="white"/>
<rect width="4" height="4" transform="translate(180.014 141)" fill="#656167"/>
<rect width="4" height="4" transform="translate(184.014 141)" fill="#F7F6F7"/>
<rect width="4" height="4" transform="translate(188.014 141)" fill="#FFD8CC"/>
<rect width="4" height="4" transform="translate(192.014 141)" fill="#FFD8CC"/>
<rect width="4" height="4" transform="translate(196.014 141)" fill="#FFD8CC"/>
<rect width="4" height="4" transform="translate(200.014 141)" fill="#FFD8CC"/>
<rect width="4" height="4" transform="translate(204.014 141)" fill="#F7F6F7"/>
<rect width="4" height="4" transform="translate(208.014 141)" fill="#656167"/>
<rect width="4" height="4" transform="translate(212.014 141)" fill="white"/>
<rect width="4" height="4" transform="translate(176.014 145)" fill="#656167"/>
<rect width="4" height="4" transform="translate(180.014 145)" fill="#F7F6F7"/>
<rect width="4" height="4" transform="translate(184.014 145)" fill="#FF8A66"/>
<rect width="4" height="4" transform="translate(188.014 145)" fill="white"/>
<rect width="4" height="4" transform="translate(192.014 145)" fill="white"/>
<rect width="4" height="4" transform="translate(196.014 145)" fill="white"/>
<rect width="4" height="4" transform="translate(200.014 145)" fill="white"/>
<rect width="4" height="4" transform="translate(204.014 145)" fill="#FF8A66"/>
<rect width="4" height="4" transform="translate(208.014 145)" fill="#F7F6F7"/>
<rect width="4" height="4" transform="translate(212.014 145)" fill="#656167"/>
<rect width="4" height="4" transform="translate(176.014 149)" fill="#A09DA2"/>
<rect width="4" height="4" transform="translate(180.014 149)" fill="#FF8A66"/>
<rect width="4" height="4" transform="translate(184.014 149)" fill="white"/>
<rect width="4" height="4" transform="translate(188.014 149)" fill="#FF8A66"/>
<rect width="4" height="4" transform="translate(192.014 149)" fill="#FF8A66"/>
<rect width="4" height="4" transform="translate(196.014 149)" fill="#FF8A66"/>
<rect width="4" height="4" transform="translate(200.014 149)" fill="#FF8A66"/>
<rect width="4" height="4" transform="translate(204.014 149)" fill="white"/>
<rect width="4" height="4" transform="translate(208.014 149)" fill="#FF8A66"/>
<rect width="4" height="4" transform="translate(212.014 149)" fill="#A09DA2"/>
<rect width="4" height="4" transform="translate(176.014 153)" fill="#656167"/>
<rect width="4" height="4" transform="translate(180.014 153)" fill="white"/>
<rect width="4" height="4" transform="translate(184.014 153)" fill="#FF8A66"/>
<rect width="4" height="4" transform="translate(188.014 153)" fill="white"/>
<rect width="4" height="4" transform="translate(192.014 153)" fill="white"/>
<rect width="4" height="4" transform="translate(196.014 153)" fill="white"/>
<rect width="4" height="4" transform="translate(200.014 153)" fill="white"/>
<rect width="4" height="4" transform="translate(204.014 153)" fill="#FF8A66"/>
<rect width="4" height="4" transform="translate(208.014 153)" fill="white"/>
<rect width="4" height="4" transform="translate(212.014 153)" fill="#656167"/>
<rect width="4" height="4" transform="translate(176.014 157)" fill="#FFD8CC"/>
<rect width="4" height="4" transform="translate(180.014 157)" fill="white"/>
<rect width="4" height="4" transform="translate(184.014 157)" fill="#FF8A66"/>
<rect width="4" height="4" transform="translate(188.014 157)" fill="white"/>
<rect width="4" height="4" transform="translate(192.014 157)" fill="#FF8A66"/>
<rect width="4" height="4" transform="translate(196.014 157)" fill="#FF521D"/>
<rect width="4" height="4" transform="translate(200.014 157)" fill="white"/>
<rect width="4" height="4" transform="translate(204.014 157)" fill="#FF8A66"/>
<rect width="4" height="4" transform="translate(208.014 157)" fill="white"/>
<rect width="4" height="4" transform="translate(212.014 157)" fill="#FFD8CC"/>
<rect width="4" height="4" transform="translate(176.014 161)" fill="#FFD8CC"/>
<rect width="4" height="4" transform="translate(180.014 161)" fill="white"/>
<rect width="4" height="4" transform="translate(184.014 161)" fill="#FF8A66"/>
<rect width="4" height="4" transform="translate(188.014 161)" fill="white"/>
<rect width="4" height="4" transform="translate(192.014 161)" fill="#FF521D"/>
<rect width="4" height="4" transform="translate(196.014 161)" fill="#FF8A66"/>
<rect width="4" height="4" transform="translate(200.014 161)" fill="white"/>
<rect width="4" height="4" transform="translate(204.014 161)" fill="#FF8A66"/>
<rect width="4" height="4" transform="translate(208.014 161)" fill="white"/>
<rect width="4" height="4" transform="translate(212.014 161)" fill="#FFD8CC"/>
<rect width="4" height="4" transform="translate(176.014 165)" fill="#656167"/>
<rect width="4" height="4" transform="translate(180.014 165)" fill="white"/>
<rect width="4" height="4" transform="translate(184.014 165)" fill="#FF8A66"/>
<rect width="4" height="4" transform="translate(188.014 165)" fill="white"/>
<rect width="4" height="4" transform="translate(192.014 165)" fill="white"/>
<rect width="4" height="4" transform="translate(196.014 165)" fill="white"/>
<rect width="4" height="4" transform="translate(200.014 165)" fill="white"/>
<rect width="4" height="4" transform="translate(204.014 165)" fill="#FF8A66"/>
<rect width="4" height="4" transform="translate(208.014 165)" fill="white"/>
<rect width="4" height="4" transform="translate(212.014 165)" fill="#656167"/>
<rect width="4" height="4" transform="translate(176.014 169)" fill="#A09DA2"/>
<rect width="4" height="4" transform="translate(180.014 169)" fill="#FF8A66"/>
<rect width="4" height="4" transform="translate(184.014 169)" fill="white"/>
<rect width="4" height="4" transform="translate(188.014 169)" fill="#FF8A66"/>
<rect width="4" height="4" transform="translate(192.014 169)" fill="#FF8A66"/>
<rect width="4" height="4" transform="translate(196.014 169)" fill="#FF8A66"/>
<rect width="4" height="4" transform="translate(200.014 169)" fill="#FF8A66"/>
<rect width="4" height="4" transform="translate(204.014 169)" fill="white"/>
<rect width="4" height="4" transform="translate(208.014 169)" fill="#FF8A66"/>
<rect width="4" height="4" transform="translate(212.014 169)" fill="#A09DA2"/>
<rect width="4" height="4" transform="translate(176.014 173)" fill="#656167"/>
<rect width="4" height="4" transform="translate(180.014 173)" fill="#F7F6F7"/>
<rect width="4" height="4" transform="translate(184.014 173)" fill="#FF8A66"/>
<rect width="4" height="4" transform="translate(188.014 173)" fill="white"/>
<rect width="4" height="4" transform="translate(192.014 173)" fill="white"/>
<rect width="4" height="4" transform="translate(196.014 173)" fill="white"/>
<rect width="4" height="4" transform="translate(200.014 173)" fill="white"/>
<rect width="4" height="4" transform="translate(204.014 173)" fill="#FF8A66"/>
<rect width="4" height="4" transform="translate(208.014 173)" fill="#F7F6F7"/>
<rect width="4" height="4" transform="translate(212.014 173)" fill="#656167"/>
<rect width="4" height="4" transform="translate(176.014 177)" fill="white"/>
<rect width="4" height="4" transform="translate(180.014 177)" fill="#656167"/>
<rect width="4" height="4" transform="translate(184.014 177)" fill="#F7F6F7"/>
<rect width="4" height="4" transform="translate(188.014 177)" fill="#FFD8CC"/>
<rect width="4" height="4" transform="translate(192.014 177)" fill="#FFD8CC"/>
<rect width="4" height="4" transform="translate(196.014 177)" fill="#FFD8CC"/>
<rect width="4" height="4" transform="translate(200.014 177)" fill="#FFD8CC"/>
<rect width="4" height="4" transform="translate(204.014 177)" fill="#F7F6F7"/>
<rect width="4" height="4" transform="translate(208.014 177)" fill="#656167"/>
<rect width="4" height="4" transform="translate(212.014 177)" fill="white"/>
<rect x="176.139" y="141.125" width="39.75" height="39.75" stroke="black" stroke-width="0.25"/>
</g>
<rect x="174.514" y="139.5" width="43" height="43" rx="21.5" stroke="#342E37" stroke-width="3" shape-rendering="crispEdges"/>
</g>
<defs>
<filter id="filter0_d_424_12589" x="114.333" y="15" width="91.3333" height="91.3333" filterUnits="userSpaceOnUse" color-interpolation-filters="sRGB">
<feFlood flood-opacity="0" result="BackgroundImageFix"/>
<feColorMatrix in="SourceAlpha" type="matrix" values="0 0 0 0 0 0 0 0 0 0 0 0 0 0 0 0 0 0 127 0" result="hardAlpha"/>
<feOffset dy="2.66667"/>
<feGaussianBlur stdDeviation="1.33333"/>
<feComposite in2="hardAlpha" operator="out"/>
<feColorMatrix type="matrix" values="0 0 0 0 0.2 0 0 0 0 0.560784 0 0 0 0 1 0 0 0 0.25 0"/>
<feBlend mode="normal" in2="BackgroundImageFix" result="effect1_dropShadow_424_12589"/>
<feBlend mode="normal" in="SourceGraphic" in2="effect1_dropShadow_424_12589" result="shape"/>
</filter>
<filter id="filter1_d_424_12589" x="99.6667" y="138" width="48.6667" height="48.6667" filterUnits="userSpaceOnUse" color-interpolation-filters="sRGB">
<feFlood flood-opacity="0" result="BackgroundImageFix"/>
<feColorMatrix in="SourceAlpha" type="matrix" values="0 0 0 0 0 0 0 0 0 0 0 0 0 0 0 0 0 0 127 0" result="hardAlpha"/>
<feOffset dy="1.33333"/>
<feGaussianBlur stdDeviation="0.666667"/>
<feComposite in2="hardAlpha" operator="out"/>
<feColorMatrix type="matrix" values="0 0 0 0 0.2 0 0 0 0 0.560784 0 0 0 0 1 0 0 0 0.25 0"/>
<feBlend mode="normal" in2="BackgroundImageFix" result="effect1_dropShadow_424_12589"/>
<feBlend mode="normal" in="SourceGraphic" in2="effect1_dropShadow_424_12589" result="shape"/>
</filter>
<filter id="filter2_d_424_12589" x="135.681" y="138" width="48.6667" height="48.6667" filterUnits="userSpaceOnUse" color-interpolation-filters="sRGB">
<feFlood flood-opacity="0" result="BackgroundImageFix"/>
<feColorMatrix in="SourceAlpha" type="matrix" values="0 0 0 0 0 0 0 0 0 0 0 0 0 0 0 0 0 0 127 0" result="hardAlpha"/>
<feOffset dy="1.33333"/>
<feGaussianBlur stdDeviation="0.666667"/>
<feComposite in2="hardAlpha" operator="out"/>
<feColorMatrix type="matrix" values="0 0 0 0 0.2 0 0 0 0 0.560784 0 0 0 0 1 0 0 0 0.25 0"/>
<feBlend mode="normal" in2="BackgroundImageFix" result="effect1_dropShadow_424_12589"/>
<feBlend mode="normal" in="SourceGraphic" in2="effect1_dropShadow_424_12589" result="shape"/>
</filter>
<filter id="filter3_d_424_12589" x="171.681" y="138" width="48.6667" height="48.6667" filterUnits="userSpaceOnUse" color-interpolation-filters="sRGB">
<feFlood flood-opacity="0" result="BackgroundImageFix"/>
<feColorMatrix in="SourceAlpha" type="matrix" values="0 0 0 0 0 0 0 0 0 0 0 0 0 0 0 0 0 0 127 0" result="hardAlpha"/>
<feOffset dy="1.33333"/>
<feGaussianBlur stdDeviation="0.666667"/>
<feComposite in2="hardAlpha" operator="out"/>
<feColorMatrix type="matrix" values="0 0 0 0 0.2 0 0 0 0 0.560784 0 0 0 0 1 0 0 0 0.25 0"/>
<feBlend mode="normal" in2="BackgroundImageFix" result="effect1_dropShadow_424_12589"/>
<feBlend mode="normal" in="SourceGraphic" in2="effect1_dropShadow_424_12589" result="shape"/>
</filter>
</defs>
</svg>
