<svg width="320" height="165" viewBox="0 0 320 165" fill="none" xmlns="http://www.w3.org/2000/svg">
<rect width="320" height="162" rx="5" fill="#E5F1FF"/>
<path d="M92.5475 64.7921C93.5354 63.8088 95.2498 64.4428 95.3602 65.8323L95.8301 71.7478C95.8753 72.3169 96.2196 72.8241 96.7369 73.0837L102.115 75.7829C103.378 76.4169 103.315 78.2157 102.012 78.734L96.4618 80.9406C95.928 81.1529 95.5493 81.6275 95.4645 82.1907L94.5824 88.0453C94.3753 89.4205 92.622 89.8982 91.7059 88.8291L87.8061 84.2773C87.431 83.8394 86.8527 83.6255 86.2829 83.714L80.3599 84.6331C78.9686 84.849 77.948 83.3455 78.6854 82.1664L81.8249 77.1466C82.1269 76.6637 82.1481 76.057 81.8808 75.5484L79.1022 70.2619C78.4496 69.0201 79.5721 67.6132 80.9439 67.9536L86.784 69.403C87.3458 69.5425 87.9372 69.3813 88.3418 68.9786L92.5475 64.7921Z" fill="#FFBF00"/>
<path d="M52.0935 104.96C52.0322 104.27 52.8215 103.815 53.3884 104.213L55.802 105.908C56.0342 106.071 56.338 106.1 56.6024 105.984L59.35 104.779C59.9955 104.497 60.6637 105.091 60.4464 105.754L59.5213 108.579C59.4323 108.851 59.4932 109.146 59.6816 109.357L61.6408 111.551C62.101 112.066 61.7248 112.889 61.0235 112.901L58.0382 112.952C57.751 112.957 57.4848 113.111 57.3369 113.357L55.8001 115.917C55.4391 116.518 54.5383 116.432 54.3222 115.776L53.4023 112.983C53.3138 112.714 53.0884 112.514 52.8086 112.455L49.8995 111.844C49.2162 111.7 49.0358 110.824 49.6035 110.407L52.0203 108.629C52.2527 108.458 52.3797 108.181 52.3546 107.898L52.0935 104.96Z" fill="#FFBF00"/>
<path d="M212.695 46.8847C213.215 46.3733 214.155 46.7071 214.236 47.4323L214.342 48.3788C214.375 48.6758 214.57 48.941 214.854 49.0774L215.761 49.512C216.456 49.8451 216.45 50.7834 215.751 51.0515L214.839 51.4015C214.552 51.5113 214.354 51.7583 214.317 52.052L214.198 52.988C214.107 53.7051 213.163 53.9513 212.65 53.3918L211.98 52.6616C211.77 52.4325 211.453 52.3199 211.145 52.365L210.165 52.5089C209.414 52.6191 208.837 51.8328 209.219 51.219L209.717 50.4177C209.873 50.1663 209.876 49.8497 209.723 49.5839L209.236 48.7368C208.863 48.0878 209.45 47.3557 210.199 47.5358L211.177 47.7708C211.484 47.8445 211.802 47.7615 212.015 47.5521L212.695 46.8847Z" fill="#FFBF00"/>
<path d="M35.9719 39.3677C36.1581 38.6622 37.1362 38.469 37.5767 39.0508L38.1515 39.8102C38.3319 40.0485 38.6346 40.1771 38.9489 40.1489L39.9506 40.0591C40.718 39.9903 41.192 40.8001 40.7282 41.3878L40.1229 42.1548C39.9329 42.3955 39.8889 42.7089 40.0069 42.9805L40.3829 43.8459C40.671 44.5089 39.9858 45.2025 39.2588 44.9839L38.3098 44.6986C38.012 44.6091 37.682 44.6742 37.4407 44.8702L36.6714 45.4949C36.082 45.9734 35.1846 45.5923 35.199 44.8695L35.2179 43.9261C35.2238 43.6302 35.0639 43.357 34.7967 43.2066L33.9452 42.7272C33.2929 42.36 33.4234 41.4307 34.1594 41.2027L35.1201 40.905C35.4215 40.8116 35.6526 40.5776 35.7289 40.2886L35.9719 39.3677Z" fill="#FFBF00"/>
<path d="M225.647 109.745C226.127 108.752 227.623 108.752 228.103 109.745L229.389 112.411C229.586 112.818 229.994 113.098 230.465 113.148L233.551 113.478C234.702 113.601 235.164 114.943 234.31 115.68L232.019 117.658C231.669 117.96 231.513 118.412 231.608 118.851L232.229 121.72C232.46 122.79 231.25 123.62 230.242 123.081L227.54 121.638C227.127 121.417 226.623 121.417 226.21 121.638L223.508 123.081C222.5 123.62 221.29 122.79 221.521 121.72L222.142 118.851C222.237 118.412 222.081 117.96 221.731 117.658L219.44 115.68C218.586 114.943 219.048 113.601 220.199 113.478L223.285 113.148C223.756 113.098 224.164 112.818 224.361 112.411L225.647 109.745Z" fill="#FFBF00"/>
<path d="M277.937 63.4517C278.658 62.6173 280.104 63.0074 280.307 64.0917L280.855 67.0006C280.938 67.4447 281.26 67.8213 281.701 67.9927L284.595 69.1153C285.673 69.5338 285.77 70.9503 284.754 71.4394L282.026 72.7514C281.61 72.9516 281.341 73.3482 281.319 73.7958L281.17 76.7282C281.115 77.8212 279.73 78.3066 278.898 77.5245L276.665 75.4264C276.324 75.1062 275.837 74.9746 275.381 75.0799L272.396 75.7695C271.283 76.0266 270.33 74.91 270.832 73.9377L272.18 71.329C272.386 70.9308 272.353 70.4529 272.094 70.0704L270.397 67.5642C269.765 66.6301 270.561 65.4546 271.704 65.6357L274.769 66.1215C275.237 66.1957 275.704 66.032 276 65.6902L277.937 63.4517Z" fill="#FFBF00"/>
<path d="M165.999 56.6512C165.305 55.9325 165.325 54.7873 166.044 54.0933L168.647 51.5804C169.365 50.8865 170.511 50.9066 171.205 51.6254L183.769 64.6397C184.463 65.3585 184.443 66.5037 183.724 67.1976L181.121 69.7105C180.403 70.4044 179.257 70.3843 178.564 69.6656L165.999 56.6512Z" fill="#EEEDEF"/>
<path fillRule="evenodd" clipRule="evenodd" d="M165.348 57.2794C164.307 56.2012 164.337 54.4834 165.416 53.4425L168.018 50.9296C169.097 49.8887 170.814 49.9189 171.855 50.997L184.42 64.0114C185.461 65.0895 185.431 66.8073 184.352 67.8482L181.75 70.3611C180.671 71.402 178.954 71.3718 177.913 70.2937L165.348 57.2794ZM166.672 54.7439C166.313 55.0909 166.303 55.6635 166.65 56.0229L179.214 69.0372C179.561 69.3966 180.134 69.4067 180.493 69.0597L183.096 66.5468C183.455 66.1998 183.465 65.6272 183.118 65.2678L170.554 52.2535C170.207 51.8941 169.634 51.8841 169.275 52.231L166.672 54.7439Z" fill="#342E37"/>
<path d="M133.51 44.4138C134.426 44.0154 135.491 44.4351 135.89 45.3513L137.333 48.6692C137.731 49.5853 137.311 50.6511 136.395 51.0495L119.806 58.2634C118.89 58.6618 117.824 58.242 117.426 57.3258L115.983 54.008C115.584 53.0918 116.004 52.0261 116.92 51.6277L133.51 44.4138Z" fill="#EEEDEF"/>
<path fillRule="evenodd" clipRule="evenodd" d="M133.149 43.5843C134.523 42.9867 136.122 43.6163 136.719 44.9906L138.162 48.3084C138.76 49.6827 138.13 51.2813 136.756 51.8789L120.167 59.0928C118.792 59.6904 117.194 59.0608 116.596 57.6865L115.153 54.3687C114.556 52.9944 115.185 51.3958 116.56 50.7982L133.149 43.5843ZM135.06 45.712C134.861 45.2539 134.328 45.044 133.87 45.2432L117.281 52.4571C116.823 52.6563 116.613 53.1892 116.812 53.6473L118.255 56.9651C118.454 57.4232 118.987 57.6331 119.445 57.4339L136.034 50.22C136.492 50.0208 136.702 49.4879 136.503 49.0298L135.06 45.712Z" fill="#342E37"/>
<path fillRule="evenodd" clipRule="evenodd" d="M133.45 35.6856C133.397 34.6879 134.163 33.8361 135.16 33.7831L175.314 31.6474C180.302 31.3821 184.561 35.2108 184.827 40.1992L185.41 51.1593L197.578 63.7627C198.271 64.4815 198.251 65.6267 197.533 66.3206L194.93 68.8335C194.211 69.5274 193.066 69.5073 192.372 68.7886L181.986 58.0313L154.643 59.4857C149.804 59.743 145.278 58.2495 141.678 55.5583L126.925 64.2404C126.064 64.7471 124.955 64.4599 124.449 63.5988L122.614 60.4807C122.107 59.6197 122.394 58.5109 123.255 58.0042L136.674 50.1075C134.962 47.3528 133.9 44.1396 133.715 40.6718L133.45 35.6856Z" fill="white"/>
<path fillRule="evenodd" clipRule="evenodd" d="M132.547 35.7335C132.467 34.237 133.616 32.9594 135.112 32.8798L175.266 30.7441C180.753 30.4522 185.438 34.6639 185.73 40.151L186.295 50.7739L198.228 63.1343C199.269 64.2125 199.239 65.9303 198.161 66.9712L195.558 69.4841C194.48 70.525 192.762 70.4948 191.721 69.4167L181.622 58.9564L154.691 60.3888C149.85 60.6462 145.306 59.2266 141.627 56.6381L127.384 65.0198C126.092 65.7799 124.429 65.349 123.669 64.0575L121.834 60.9393C121.074 59.6478 121.505 57.9846 122.797 57.2245L135.434 49.7873C133.921 47.0908 132.987 44.0142 132.812 40.7197L132.547 35.7335ZM135.208 34.6862C134.71 34.7127 134.327 35.1386 134.353 35.6374L134.619 40.6236C134.795 43.9354 135.808 47.0013 137.442 49.6298L137.931 50.4169L123.714 58.7836C123.284 59.0369 123.14 59.5913 123.393 60.0219L125.228 63.14C125.482 63.5705 126.036 63.7141 126.467 63.4608L141.738 54.4735L142.22 54.8338C145.656 57.4029 149.975 58.828 154.595 58.5823L182.35 57.1061L193.022 68.1602C193.369 68.5196 193.942 68.5296 194.301 68.1827L196.904 65.6698C197.264 65.3228 197.274 64.7502 196.927 64.3908L184.524 51.5444L183.923 40.2471C183.685 35.7576 179.852 32.3117 175.362 32.5505L135.208 34.6862Z" fill="#342E37"/>
<path d="M184.925 39.7732C186.471 45.5649 183.225 51.461 177.674 52.9425C172.124 54.424 166.371 50.9298 164.825 45.1381C163.279 39.3465 166.526 33.4504 172.076 31.9689C177.626 30.4874 183.379 33.9815 184.925 39.7732Z" fill="#342E37"/>
<path d="M157.777 50.296C158.872 54.3984 156.629 58.5596 152.768 59.5902C148.907 60.6208 144.889 58.1306 143.794 54.0281C142.699 49.9257 144.942 45.7645 148.803 44.7339C152.664 43.7033 156.682 46.1935 157.777 50.296Z" fill="#342E37"/>
<path d="M123.128 21.933L125.654 20.6126L127.855 24.8236L125.328 26.1439L123.128 21.933Z" fill="#EEEDEF"/>
<path d="M145.289 25.4092L146.709 27.8813L142.589 30.2474L141.169 27.7753L145.289 25.4092Z" fill="#EEEDEF"/>
<path d="M124.553 29.8545C125.999 25.9129 130.367 23.8899 134.309 25.336L137.426 26.4796C141.367 27.9256 143.39 32.2932 141.944 36.2348L139.326 43.3717C137.88 47.3133 133.512 49.3363 129.571 47.8902L126.454 46.7466C122.512 45.3006 120.489 40.933 121.935 36.9914L124.553 29.8545Z" fill="white"/>
<path d="M124.364 39.5704C124.974 37.5616 127.096 36.4271 129.105 37.0365L134.79 38.7608C136.798 39.3702 137.933 41.4927 137.324 43.5015L136.772 45.3202C136.162 47.329 134.04 48.4635 132.031 47.8542L126.347 46.1298C124.338 45.5205 123.203 43.398 123.813 41.3891L124.364 39.5704Z" fill="#FFE5FC"/>
<path fillRule="evenodd" clipRule="evenodd" d="M126.149 19.7006C125.749 19.0226 124.888 18.8181 124.226 19.244L123.77 19.5372C122.005 20.6728 121.438 23.059 122.505 24.8671L122.951 25.6235C122.298 25.5178 121.602 25.6469 120.991 26.0404L119.364 27.0866C118.915 27.3755 118.771 27.9826 119.042 28.4425C119.856 29.8225 121.608 30.2385 122.956 29.3718L123.059 29.3052C122.974 29.5579 122.899 29.8169 122.836 30.0817L121.096 37.4096C120.349 40.5577 121.447 43.7126 123.69 45.7384C124.466 46.6018 125.503 47.2459 126.718 47.5344L127.418 47.7007L127.442 47.7063L131.095 48.5737L131.118 48.5791L131.818 48.7452C133.031 49.0334 134.246 48.9249 135.326 48.5038C138.243 47.7037 140.644 45.3782 141.391 42.2285L143.131 34.9006C143.2 34.6101 143.254 34.3195 143.292 34.0298L143.409 34.2282C144.223 35.6081 145.975 36.0242 147.323 35.1575C147.772 34.8687 147.916 34.2616 147.645 33.8016L146.662 32.1359C146.292 31.5093 145.729 31.0814 145.098 30.8821L145.837 30.4071C147.602 29.2715 148.169 26.8852 147.102 25.0772L146.827 24.6103C146.427 23.9323 145.566 23.7279 144.904 24.1537L140.823 26.7782C140.81 26.7865 140.798 26.795 140.785 26.8037C139.713 25.7554 138.351 24.9756 136.786 24.6039L133.133 23.7365L133.122 23.734L133.115 23.7322L133.065 23.7206C131.54 23.3714 130.015 23.454 128.62 23.8889L128.614 23.8792L126.149 19.7006ZM124.792 21.1379L126.775 24.4981L125.12 25.5624L124.103 23.839C123.57 22.935 123.853 21.7419 124.736 21.1741L124.792 21.1379ZM145.47 26.0476L142.189 28.1581L143.188 29.8526L144.871 28.7702C145.754 28.2024 146.037 27.0093 145.504 26.1053L145.47 26.0476ZM127.757 26.3408C127.588 26.6805 127.456 27.0452 127.364 27.4309C126.735 30.0785 128.291 32.7152 130.838 33.3201C133.386 33.9249 135.96 32.2689 136.589 29.6213C136.853 28.5111 136.732 27.4029 136.316 26.4455L136.347 26.453C139.921 27.3017 142.131 30.8872 141.282 34.4615L139.542 41.7894C139.435 42.2396 139.285 42.6681 139.097 43.0716C139.136 40.3617 137.296 37.8919 134.549 37.2398L129.45 36.0289C126.704 35.377 123.951 36.7553 122.767 39.1922C122.78 38.7478 122.839 38.2981 122.946 37.8486L124.686 30.5208C125.119 28.6973 126.264 27.229 127.757 26.3408ZM125.039 44.3946C125.822 45.0805 126.778 45.5918 127.86 45.8523L131.554 46.7294C132.637 46.9828 133.719 46.9562 134.726 46.6965C135.871 46.2187 136.779 45.2185 137.087 43.9194C137.599 41.7635 136.266 39.6008 134.11 39.0889L129.011 37.878C126.855 37.3661 124.692 38.6989 124.18 40.8548C123.872 42.1529 124.233 43.4534 125.039 44.3946ZM126.004 35.2107C126.768 35.3921 127.54 34.8953 127.729 34.1011C127.918 33.3068 127.451 32.5158 126.687 32.3343C125.922 32.1528 125.15 32.6496 124.961 33.4439C124.773 34.2382 125.239 35.0292 126.004 35.2107ZM139.721 36.9485C139.532 37.7428 138.76 38.2395 137.996 38.0581C137.232 37.8766 136.765 37.0856 136.953 36.2913C137.142 35.4971 137.914 35.0003 138.679 35.1817C139.443 35.3632 139.91 36.1542 139.721 36.9485ZM126.716 42.4696C127.226 42.5906 127.741 42.2594 127.866 41.7299C127.992 41.2003 127.681 40.673 127.172 40.552C126.662 40.4311 126.147 40.7623 126.021 41.2918C125.896 41.8213 126.207 42.3486 126.716 42.4696ZM135.246 43.4822C135.121 44.0117 134.606 44.3429 134.096 44.222C133.587 44.101 133.276 43.5737 133.402 43.0441C133.527 42.5146 134.042 42.1834 134.552 42.3044C135.061 42.4254 135.372 42.9527 135.246 43.4822Z" fill="#342E37"/>
<path d="M180.186 34.8698L182.076 32.9236L191.56 42.1379C191.739 42.3119 191.743 42.5982 191.569 42.7774L191.254 43.1017C190.558 43.8183 189.413 43.8348 188.696 43.1386L180.186 34.8698Z" fill="#342E37"/>
<circle cx="156.924" cy="108.662" r="34.875" fill="#F7F6F7" stroke="#342E37" stroke-width="3"/>
<path d="M179.719 97.8515C178.448 100.068 172.088 98.8087 165.512 95.0392C158.937 91.2696 154.636 86.4171 155.907 84.2008C157.177 81.9844 163.538 83.2436 170.113 87.0131C176.689 90.7827 180.989 95.6352 179.719 97.8515Z" fill="#342E37"/>
<path d="M135.301 105.316C139.465 104.136 144.318 108.391 146.14 114.82C147.961 121.248 146.062 127.416 141.898 128.596C137.733 129.776 132.881 125.521 131.059 119.093C129.238 112.664 131.137 106.496 135.301 105.316Z" fill="#342E37"/>
<path d="M173.562 113.351C175.832 114.17 177.111 116.389 176.419 118.308C175.727 120.227 173.326 121.119 171.056 120.301C168.786 119.482 167.507 117.263 168.199 115.344C168.89 113.425 171.291 112.533 173.562 113.351Z" fill="#342E37"/>
<path d="M317.53 127.139C216.708 173.649 100.486 173.232 0 126V165H320V126L317.53 127.139Z" fill="white"/>
</svg>
