<svg width="729" height="554" viewBox="0 0 729 554" fill="none" xmlns="http://www.w3.org/2000/svg">
<g filter="url(#filter0_d)">
<path d="M50 67H679V43C679 40.2386 676.761 38 674 38H55C52.2386 38 50 40.2386 50 43V67Z" fill="#4C4B51"/>
<path d="M50 67H679V487C679 489.761 676.761 492 674 492H55C52.2386 492 50 489.761 50 487V67Z" fill="white"/>
<rect x="84.5" y="195.5" width="56" height="27" rx="13.5" stroke="#E7E7E7"/>
<path d="M104.88 210.336C106.912 210.336 108.24 209.264 108.24 207.264C108.24 205.232 106.912 204.176 104.88 204.176H101.088V214H102.752V210.336H104.88ZM106.592 207.264C106.592 208.208 106 208.896 104.848 208.896H102.752V205.616H104.848C106 205.616 106.592 206.288 106.592 207.264ZM115.654 210.448C115.654 208.272 114.278 206.736 112.278 206.736C110.278 206.736 108.902 208.272 108.902 210.448C108.902 212.624 110.278 214.16 112.278 214.16C114.278 214.16 115.654 212.624 115.654 210.448ZM114.054 210.448C114.054 211.792 113.43 212.784 112.278 212.784C111.126 212.784 110.502 211.792 110.502 210.448C110.502 209.104 111.126 208.112 112.278 208.112C113.43 208.112 114.054 209.104 114.054 210.448ZM118.748 203.6H117.148V214H118.748V203.6ZM122.326 203.6H120.726V214H122.326V203.6Z" fill="#262523"/>
<rect x="84.5" y="153.5" width="89" height="27" rx="13.5" stroke="#E7E7E7"/>
<path d="M106.56 172L109.2 165.168V172H110.8V162.176H108.944L105.984 169.728L102.992 162.176H101.088V172H102.672V165.168L105.376 172H106.56ZM117.267 169.792C117.091 170.48 116.515 170.816 115.747 170.816C114.723 170.816 114.003 170.064 113.955 168.816H118.803V168.24C118.803 166.16 117.715 164.736 115.715 164.736C113.779 164.736 112.387 166.336 112.387 168.464C112.387 170.656 113.763 172.16 115.747 172.16C117.459 172.16 118.499 171.2 118.739 169.792H117.267ZM115.731 166.08C116.707 166.08 117.203 166.784 117.219 167.648H114.003C114.195 166.624 114.851 166.08 115.731 166.08ZM125.521 165.68C125.153 165.136 124.449 164.736 123.649 164.736C122.849 164.736 122.209 165.04 121.873 165.488V164.896H120.273V172H121.873V167.232C122.017 166.528 122.561 166.176 123.137 166.176C123.921 166.176 124.305 166.752 124.305 167.632V172H125.905V167.232C126.049 166.528 126.593 166.176 127.169 166.176C127.953 166.176 128.337 166.752 128.337 167.632V172H129.937V167.376C129.937 165.76 129.089 164.736 127.633 164.736C126.673 164.736 126.017 165.104 125.521 165.68ZM133.42 171.392C133.74 171.792 134.444 172.16 135.228 172.16C137.308 172.16 138.524 170.496 138.524 168.448C138.524 166.416 137.308 164.736 135.228 164.736C134.444 164.736 133.74 165.104 133.42 165.504V161.6H131.82V172H133.42V171.392ZM133.42 167.104C133.692 166.544 134.3 166.16 134.956 166.16C136.188 166.16 136.924 167.136 136.924 168.448C136.924 169.76 136.188 170.736 134.956 170.736C134.3 170.736 133.692 170.352 133.42 169.792V167.104ZM144.439 169.792C144.263 170.48 143.687 170.816 142.919 170.816C141.895 170.816 141.174 170.064 141.127 168.816H145.975V168.24C145.975 166.16 144.887 164.736 142.887 164.736C140.951 164.736 139.559 166.336 139.559 168.464C139.559 170.656 140.935 172.16 142.919 172.16C144.631 172.16 145.671 171.2 145.911 169.792H144.439ZM142.903 166.08C143.879 166.08 144.375 166.784 144.391 167.648H141.174C141.367 166.624 142.023 166.08 142.903 166.08ZM151.413 164.864C151.301 164.8 150.981 164.736 150.629 164.736C149.941 164.736 149.317 165.104 149.045 165.632V164.896H147.445V172H149.045V167.408C149.205 166.64 149.813 166.272 150.469 166.272C150.805 166.272 151.189 166.352 151.413 166.512V164.864ZM152.309 169.952C152.517 171.328 153.669 172.16 155.333 172.16C156.933 172.16 158.101 171.296 158.101 169.888C158.101 168.848 157.493 168.16 156.277 167.872L154.773 167.52C154.261 167.392 154.037 167.184 154.037 166.864C154.037 166.304 154.613 166.048 155.173 166.048C155.909 166.048 156.325 166.368 156.469 166.832H158.037C157.797 165.536 156.853 164.736 155.189 164.736C153.637 164.736 152.501 165.68 152.501 166.96C152.501 168.128 153.253 168.672 154.261 168.912L155.733 169.264C156.325 169.408 156.565 169.616 156.565 170C156.565 170.56 156.085 170.848 155.349 170.848C154.645 170.848 154.117 170.544 153.941 169.952H152.309Z" fill="#262523"/>
<path d="M111.784 101.336L109.4 97.176H107.176L110.712 103.272V107H112.744V103.272L116.312 97.176H114.152L111.784 101.336ZM122.705 103.432C122.705 101.224 121.281 99.688 119.201 99.688C117.121 99.688 115.697 101.224 115.697 103.432C115.697 105.624 117.121 107.16 119.201 107.16C121.281 107.16 122.705 105.624 122.705 103.432ZM120.737 103.432C120.737 104.616 120.193 105.48 119.201 105.48C118.209 105.48 117.665 104.616 117.665 103.432C117.665 102.232 118.209 101.368 119.201 101.368C120.193 101.368 120.737 102.232 120.737 103.432ZM130.309 99.848H128.309V104.392C128.165 105.016 127.637 105.384 127.029 105.384C126.245 105.384 125.877 104.872 125.877 104.12V99.848H123.893V104.52C123.893 106.104 124.805 107.16 126.405 107.16C127.237 107.16 127.925 106.792 128.325 106.344V107H130.309V99.848ZM136.356 99.816C136.244 99.752 135.94 99.688 135.604 99.688C134.9 99.688 134.308 100.04 134.004 100.552V99.848H132.02V107H134.004V102.568C134.148 101.912 134.692 101.56 135.364 101.56C135.732 101.56 136.084 101.64 136.356 101.8V99.816ZM140.572 98.968H143.724V107H145.788V98.968H148.956V97.176H140.572V98.968ZM155.752 103.432C155.752 101.224 154.328 99.688 152.248 99.688C150.168 99.688 148.744 101.224 148.744 103.432C148.744 105.624 150.168 107.16 152.248 107.16C154.328 107.16 155.752 105.624 155.752 103.432ZM153.784 103.432C153.784 104.616 153.24 105.48 152.248 105.48C151.256 105.48 150.712 104.616 150.712 103.432C150.712 102.232 151.256 101.368 152.248 101.368C153.24 101.368 153.784 102.232 153.784 103.432ZM161.676 107H164.028L161.02 102.888L163.916 99.848H161.452L159.004 102.504V96.6H157.02V107H159.004V104.744L159.58 104.12L161.676 107ZM169.06 104.664C168.9 105.272 168.404 105.56 167.732 105.56C166.852 105.56 166.244 104.92 166.18 103.848H170.948V103.24C170.948 101.144 169.796 99.688 167.7 99.688C165.7 99.688 164.26 101.272 164.26 103.432C164.26 105.64 165.652 107.16 167.732 107.16C169.524 107.16 170.644 106.184 170.9 104.664H169.06ZM167.716 101.304C168.532 101.304 168.98 101.896 168.996 102.648H166.228C166.404 101.768 166.948 101.304 167.716 101.304ZM172.208 107H174.192V102.472C174.352 101.848 174.88 101.48 175.488 101.48C176.272 101.48 176.656 101.992 176.656 102.744V107H178.64V102.328C178.64 100.744 177.728 99.688 176.112 99.688C175.28 99.688 174.576 100.056 174.192 100.504V99.848H172.208V107ZM182.893 108.344H184.733L188.701 96.6H186.861L182.893 108.344ZM197.116 103.592C199.196 103.592 200.572 102.472 200.572 100.392C200.572 98.296 199.196 97.176 197.116 97.176H193.116V107H195.148V103.592H197.116ZM198.556 100.392C198.556 101.24 198.044 101.848 196.988 101.848H195.148V98.92H196.988C198.044 98.92 198.556 99.512 198.556 100.392ZM208.127 103.432C208.127 101.224 206.703 99.688 204.623 99.688C202.543 99.688 201.119 101.224 201.119 103.432C201.119 105.624 202.543 107.16 204.623 107.16C206.703 107.16 208.127 105.624 208.127 103.432ZM206.159 103.432C206.159 104.616 205.615 105.48 204.623 105.48C203.631 105.48 203.087 104.616 203.087 103.432C203.087 102.232 203.631 101.368 204.623 101.368C205.615 101.368 206.159 102.232 206.159 103.432ZM211.379 96.6H209.395V107H211.379V96.6ZM215.098 96.6H213.114V107H215.098V96.6Z" fill="#262523"/>
<circle cx="96.5" cy="52.5" r="5.5" fill="#A1E59D"/>
<circle cx="80.5" cy="52.5" r="5.5" fill="#F2C571"/>
<circle cx="64.5" cy="52.5" r="5.5" fill="#D27365"/>
<circle cx="92" cy="103" r="8" fill="#DEDEDE"/>
</g>
<g opacity="0.8" filter="url(#filter1_f)">
<rect x="202" y="162" width="434" height="272" rx="20" fill="url(#paint0_linear)"/>
</g>
<rect x="201" y="153" width="435" height="273.293" rx="20" fill="white"/>
<path d="M229.918 184.835C229.918 188.391 232.225 190.83 235.327 190.83C238.07 190.83 239.753 189.223 240.188 186.878H237.786C237.389 187.956 236.67 188.674 235.327 188.674C233.474 188.674 232.377 187.029 232.377 184.835C232.377 182.622 233.474 180.996 235.327 180.996C236.67 180.996 237.389 181.714 237.786 182.773H240.188C239.753 180.447 238.07 178.84 235.327 178.84C232.225 178.84 229.918 181.279 229.918 184.835ZM249.523 186.424C249.523 183.814 247.839 181.998 245.381 181.998C242.922 181.998 241.239 183.814 241.239 186.424C241.239 189.015 242.922 190.83 245.381 190.83C247.839 190.83 249.523 189.015 249.523 186.424ZM247.196 186.424C247.196 187.823 246.553 188.845 245.381 188.845C244.208 188.845 243.565 187.823 243.565 186.424C243.565 185.005 244.208 183.984 245.381 183.984C246.553 183.984 247.196 185.005 247.196 186.424ZM257.774 183.076C257.301 182.452 256.506 181.998 255.504 181.998C254.558 181.998 253.783 182.357 253.367 182.887V182.187H251.022V190.641H253.367V185.194C253.518 184.476 254.086 184.097 254.691 184.097C255.504 184.097 255.882 184.703 255.882 185.61V190.641H258.246V185.194C258.398 184.476 258.946 184.097 259.551 184.097C260.365 184.097 260.762 184.703 260.762 185.61V190.641H263.107V185.119C263.107 183.208 262.067 181.998 260.327 181.998C259.135 181.998 258.322 182.471 257.774 183.076ZM271.811 183.076C271.338 182.452 270.543 181.998 269.541 181.998C268.595 181.998 267.82 182.357 267.404 182.887V182.187H265.059V190.641H267.404V185.194C267.555 184.476 268.123 184.097 268.728 184.097C269.541 184.097 269.919 184.703 269.919 185.61V190.641H272.283V185.194C272.435 184.476 272.983 184.097 273.588 184.097C274.402 184.097 274.799 184.703 274.799 185.61V190.641H277.144V185.119C277.144 183.208 276.104 181.998 274.364 181.998C273.172 181.998 272.359 182.471 271.811 183.076ZM286.85 186.424C286.85 183.814 285.167 181.998 282.708 181.998C280.249 181.998 278.566 183.814 278.566 186.424C278.566 189.015 280.249 190.83 282.708 190.83C285.167 190.83 286.85 189.015 286.85 186.424ZM284.524 186.424C284.524 187.823 283.881 188.845 282.708 188.845C281.535 188.845 280.892 187.823 280.892 186.424C280.892 185.005 281.535 183.984 282.708 183.984C283.881 183.984 284.524 185.005 284.524 186.424ZM288.349 190.641H290.694V185.289C290.883 184.551 291.508 184.116 292.226 184.116C293.153 184.116 293.607 184.722 293.607 185.61V190.641H295.952V185.119C295.952 183.246 294.874 181.998 292.964 181.998C291.98 181.998 291.148 182.433 290.694 182.963V182.187H288.349V190.641ZM304.103 182.187H302.306L300.925 187.577L299.412 182.187H297.067L299.639 190.641H301.795L303.176 185.459L304.557 190.641H306.713L309.285 182.187H307.015L305.502 187.577L304.103 182.187ZM315.602 187.88C315.413 188.599 314.826 188.939 314.032 188.939C312.992 188.939 312.273 188.183 312.197 186.915H317.833V186.197C317.833 183.719 316.472 181.998 313.994 181.998C311.63 181.998 309.928 183.87 309.928 186.424C309.928 189.034 311.573 190.83 314.032 190.83C316.15 190.83 317.474 189.677 317.777 187.88H315.602ZM314.013 183.908C314.978 183.908 315.507 184.608 315.526 185.497H312.254C312.462 184.457 313.105 183.908 314.013 183.908ZM326.282 190.641V185.251C326.282 183.227 324.977 181.998 322.727 181.998C320.798 181.998 319.417 183.171 319.171 184.703H321.403C321.592 184.211 321.989 183.908 322.651 183.908C323.597 183.908 324.032 184.495 324.032 185.213V185.837C323.691 185.592 322.84 185.346 322.103 185.346C320.268 185.346 318.831 186.443 318.831 188.05C318.831 189.809 320.268 190.793 321.97 190.793C322.897 190.793 323.748 190.471 324.032 190.187V190.641H326.282ZM324.032 188.334C323.824 188.788 323.181 189.072 322.5 189.072C321.762 189.072 321.006 188.769 321.006 188.031C321.006 187.313 321.762 186.991 322.5 186.991C323.181 186.991 323.824 187.275 324.032 187.729V188.334ZM330.534 178.348H328.188V190.641H330.534V178.348ZM333.095 188.088C333.095 189.96 334.173 190.812 335.894 190.812C336.518 190.812 337.085 190.717 337.407 190.547V188.466C337.142 188.637 336.745 188.75 336.386 188.75C335.78 188.75 335.421 188.447 335.421 187.785V184.078H337.275V182.187H335.421V179.899H333.095V182.187H331.809V184.078H333.095V188.088ZM339.104 190.641H341.449V185.289C341.638 184.551 342.262 184.116 342.981 184.116C343.908 184.116 344.362 184.722 344.362 185.61V190.641H346.707V185.119C346.707 183.246 345.629 181.998 343.719 181.998C342.735 181.998 341.903 182.433 341.449 182.963V178.348H339.104V190.641ZM357.484 186.613C359.942 186.613 361.569 185.289 361.569 182.83C361.569 180.353 359.942 179.029 357.484 179.029H352.755V190.641H355.157V186.613H357.484ZM359.186 182.83C359.186 183.833 358.581 184.551 357.332 184.551H355.157V181.09H357.332C358.581 181.09 359.186 181.79 359.186 182.83ZM370.5 186.424C370.5 183.814 368.816 181.998 366.358 181.998C363.899 181.998 362.216 183.814 362.216 186.424C362.216 189.015 363.899 190.83 366.358 190.83C368.816 190.83 370.5 189.015 370.5 186.424ZM368.173 186.424C368.173 187.823 367.53 188.845 366.358 188.845C365.185 188.845 364.542 187.823 364.542 186.424C364.542 185.005 365.185 183.984 366.358 183.984C367.53 183.984 368.173 185.005 368.173 186.424ZM379.827 186.424C379.827 183.814 378.144 181.998 375.685 181.998C373.226 181.998 371.543 183.814 371.543 186.424C371.543 189.015 373.226 190.83 375.685 190.83C378.144 190.83 379.827 189.015 379.827 186.424ZM377.501 186.424C377.501 187.823 376.858 188.845 375.685 188.845C374.512 188.845 373.869 187.823 373.869 186.424C373.869 185.005 374.512 183.984 375.685 183.984C376.858 183.984 377.501 185.005 377.501 186.424ZM383.671 178.348H381.326V190.641H383.671V178.348Z" fill="#111111"/>
<path d="M233.573 256.953H232.795L229.783 258.492V259.816L232.299 258.525V267.13H233.573V256.953ZM236.918 263.887C236.918 262.513 237.828 261.57 239.119 261.57C240.393 261.57 241.303 262.53 241.303 263.887C241.303 265.227 240.393 266.171 239.119 266.171C237.811 266.171 236.918 265.211 236.918 263.887ZM242.362 259.336C241.965 257.78 240.989 256.82 239.201 256.82C237 256.82 235.478 258.939 235.478 262.232C235.478 263.423 235.643 264.433 236.074 265.343C236.702 266.617 237.778 267.279 239.102 267.279C241.187 267.279 242.511 265.74 242.511 263.87C242.511 262.033 241.187 260.494 239.218 260.494C238.026 260.494 236.984 261.206 236.653 262.232C236.653 262.133 236.636 261.884 236.636 261.785C236.636 259.601 237.712 257.896 239.201 257.896C240.227 257.896 240.79 258.475 241.071 259.336H242.362ZM245.192 263.887C245.192 262.513 246.102 261.57 247.393 261.57C248.667 261.57 249.578 262.53 249.578 263.887C249.578 265.227 248.667 266.171 247.393 266.171C246.086 266.171 245.192 265.211 245.192 263.887ZM250.637 259.336C250.239 257.78 249.263 256.82 247.476 256.82C245.275 256.82 243.752 258.939 243.752 262.232C243.752 263.423 243.918 264.433 244.348 265.343C244.977 266.617 246.053 267.279 247.377 267.279C249.462 267.279 250.786 265.74 250.786 263.87C250.786 262.033 249.462 260.494 247.492 260.494C246.301 260.494 245.258 261.206 244.927 262.232C244.927 262.133 244.911 261.884 244.911 261.785C244.911 259.601 245.986 257.896 247.476 257.896C248.502 257.896 249.065 258.475 249.346 259.336H250.637ZM257.007 256.969H255.683L251.777 263.903V264.83H256.461V267.13H257.669V264.83H259.456V263.738H257.669V261.289H256.461V263.738H253.217L257.007 256.969ZM264.333 267.279C266.601 267.279 268.123 265.145 268.123 262.05C268.123 258.955 266.601 256.82 264.333 256.82C262.066 256.82 260.544 258.955 260.544 262.05C260.544 265.145 262.066 267.279 264.333 267.279ZM264.333 257.995C265.972 257.995 266.849 259.683 266.849 262.05C266.849 264.416 265.972 266.104 264.333 266.104C262.678 266.104 261.818 264.416 261.818 262.05C261.818 259.683 262.678 257.995 264.333 257.995ZM273.647 256.969V267.13H280.118V265.955H274.938V262.497H279.638V261.338H274.938V258.128H280.118V256.969H273.647ZM281.452 258.128H284.994V267.13H286.301V258.128H289.842V256.969H281.452V258.128ZM298.603 256.969V261.322H292.861V256.969H291.553V267.13H292.861V262.497H298.603V267.13H299.911V256.969H298.603Z" fill="#111111"/>
<path d="M403.036 348.104C403.036 351.265 405.022 353.334 407.587 353.334C409.705 353.334 411.129 352.093 411.542 350.189H410.251C409.838 351.381 408.994 352.159 407.587 352.159C405.634 352.159 404.344 350.504 404.344 348.104C404.344 345.688 405.651 344.05 407.587 344.05C408.994 344.05 409.838 344.828 410.251 346.003H411.542C411.129 344.116 409.722 342.875 407.587 342.875C405.022 342.875 403.036 344.943 403.036 348.104ZM419.039 345.837H417.781V350.818C417.517 351.613 416.805 352.192 415.944 352.192C414.836 352.192 414.339 351.48 414.339 350.454V345.837H413.081V350.653C413.081 352.258 413.975 353.334 415.647 353.334C416.59 353.334 417.368 352.837 417.781 352.258V353.185H419.039V345.837ZM425.018 345.804C424.886 345.738 424.621 345.688 424.307 345.688C423.496 345.688 422.801 346.168 422.486 346.797V345.837H421.245V353.185H422.486V348.253C422.735 347.393 423.413 346.88 424.191 346.88C424.505 346.88 424.82 346.946 425.018 347.078V345.804ZM430.335 345.804C430.203 345.738 429.938 345.688 429.624 345.688C428.813 345.688 428.118 346.168 427.803 346.797V345.837H426.562V353.185H427.803V348.253C428.052 347.393 428.73 346.88 429.508 346.88C429.822 346.88 430.137 346.946 430.335 347.078V345.804ZM436.303 350.984C436.104 351.811 435.426 352.275 434.515 352.275C433.274 352.275 432.397 351.315 432.381 349.743H437.577V349.296C437.577 347.161 436.501 345.688 434.482 345.688C432.48 345.688 431.139 347.326 431.139 349.527C431.139 351.795 432.513 353.334 434.515 353.334C436.17 353.334 437.213 352.374 437.478 350.984H436.303ZM434.499 346.747C435.723 346.747 436.303 347.707 436.319 348.799H432.414C432.596 347.508 433.39 346.747 434.499 346.747ZM439.232 353.185H440.474V348.204C440.738 347.409 441.483 346.83 442.344 346.83C443.452 346.83 443.965 347.542 443.965 348.568V353.185H445.223V348.369C445.223 346.764 444.313 345.688 442.641 345.688C441.698 345.688 440.904 346.185 440.474 346.764V345.837H439.232V353.185ZM447.677 351.331C447.677 352.688 448.504 353.334 449.696 353.334C450.142 353.334 450.573 353.234 450.854 353.085V351.927C450.606 352.093 450.242 352.225 449.894 352.225C449.265 352.225 448.918 351.911 448.918 351.199V346.896H450.688V345.837H448.918V343.901H447.677V345.837H446.485V346.896H447.677V351.331ZM455.621 351.166C455.853 352.523 457.028 353.334 458.633 353.334C460.206 353.334 461.364 352.506 461.364 351.116C461.364 350.09 460.752 349.395 459.494 349.064L458.071 348.717C457.376 348.518 457.045 348.286 457.045 347.79C457.045 347.078 457.723 346.731 458.451 346.731C459.345 346.731 459.858 347.111 460.073 347.773H461.314C461.05 346.482 460.09 345.688 458.468 345.688C456.978 345.688 455.837 346.549 455.837 347.856C455.837 348.998 456.565 349.527 457.607 349.792L459.064 350.173C459.825 350.371 460.156 350.686 460.156 351.199C460.156 351.944 459.527 352.291 458.65 352.291C457.789 352.291 457.144 351.927 456.912 351.166H455.621ZM463.434 351.331C463.434 352.688 464.261 353.334 465.453 353.334C465.899 353.334 466.33 353.234 466.611 353.085V351.927C466.363 352.093 465.999 352.225 465.651 352.225C465.022 352.225 464.675 351.911 464.675 351.199V346.896H466.445V345.837H464.675V343.901H463.434V345.837H462.242V346.896H463.434V351.331ZM473.554 353.185V348.286C473.554 346.681 472.511 345.688 470.757 345.688C469.351 345.688 468.258 346.532 468.01 347.773H469.235C469.466 347.095 469.963 346.764 470.741 346.764C471.8 346.764 472.363 347.426 472.363 348.336V349.263C472.048 348.981 471.27 348.667 470.509 348.667C468.937 348.667 467.696 349.594 467.696 350.967C467.696 352.424 468.937 353.317 470.426 353.317C471.303 353.317 472.081 352.937 472.363 352.639V353.185H473.554ZM472.363 351.364C472.147 351.911 471.403 352.275 470.641 352.275C469.748 352.275 468.887 351.861 468.887 350.967C468.887 350.09 469.748 349.693 470.641 349.693C471.403 349.693 472.147 350.057 472.363 350.603V351.364ZM480.508 353.185H482.03L478.605 349.014L481.914 345.837H480.276L476.917 349.097V342.428H475.676V353.185H476.917V350.553L477.711 349.792L480.508 353.185ZM487.776 350.984C487.577 351.811 486.899 352.275 485.988 352.275C484.747 352.275 483.87 351.315 483.854 349.743H489.05V349.296C489.05 347.161 487.974 345.688 485.955 345.688C483.953 345.688 482.612 347.326 482.612 349.527C482.612 351.795 483.986 353.334 485.988 353.334C487.643 353.334 488.686 352.374 488.951 350.984H487.776ZM485.972 346.747C487.196 346.747 487.776 347.707 487.792 348.799H483.887C484.069 347.508 484.863 346.747 485.972 346.747ZM490.126 352.374C490.126 352.887 490.523 353.268 491.02 353.268C491.5 353.268 491.897 352.887 491.897 352.374C491.897 351.861 491.5 351.464 491.02 351.464C490.523 351.464 490.126 351.861 490.126 352.374ZM490.126 347.178C490.126 347.691 490.523 348.071 491.02 348.071C491.5 348.071 491.897 347.691 491.897 347.178C491.897 346.664 491.5 346.267 491.02 346.267C490.523 346.267 490.126 346.664 490.126 347.178ZM500.281 343.007H499.503L496.491 344.546V345.87L499.006 344.579V353.185H500.281V343.007ZM502.053 352.374C502.053 352.887 502.45 353.268 502.947 353.268C503.427 353.268 503.824 352.887 503.824 352.374C503.824 351.861 503.427 351.464 502.947 351.464C502.45 351.464 502.053 351.861 502.053 352.374ZM508.302 353.334C510.569 353.334 512.092 351.199 512.092 348.104C512.092 345.01 510.569 342.875 508.302 342.875C506.035 342.875 504.513 345.01 504.513 348.104C504.513 351.199 506.035 353.334 508.302 353.334ZM508.302 344.05C509.941 344.05 510.818 345.738 510.818 348.104C510.818 350.471 509.941 352.159 508.302 352.159C506.647 352.159 505.787 350.471 505.787 348.104C505.787 345.738 506.647 344.05 508.302 344.05ZM517.207 353.334C519.474 353.334 520.997 351.199 520.997 348.104C520.997 345.01 519.474 342.875 517.207 342.875C514.94 342.875 513.417 345.01 513.417 348.104C513.417 351.199 514.94 353.334 517.207 353.334ZM517.207 344.05C518.845 344.05 519.722 345.738 519.722 348.104C519.722 350.471 518.845 352.159 517.207 352.159C515.552 352.159 514.692 350.471 514.692 348.104C514.692 345.738 515.552 344.05 517.207 344.05ZM526.112 353.334C528.379 353.334 529.901 351.199 529.901 348.104C529.901 345.01 528.379 342.875 526.112 342.875C523.844 342.875 522.322 345.01 522.322 348.104C522.322 351.199 523.844 353.334 526.112 353.334ZM526.112 344.05C527.75 344.05 528.627 345.738 528.627 348.104C528.627 350.471 527.75 352.159 526.112 352.159C524.457 352.159 523.596 350.471 523.596 348.104C523.596 345.738 524.457 344.05 526.112 344.05ZM535.016 353.334C537.284 353.334 538.806 351.199 538.806 348.104C538.806 345.01 537.284 342.875 535.016 342.875C532.749 342.875 531.227 345.01 531.227 348.104C531.227 351.199 532.749 353.334 535.016 353.334ZM535.016 344.05C536.655 344.05 537.532 345.738 537.532 348.104C537.532 350.471 536.655 352.159 535.016 352.159C533.362 352.159 532.501 350.471 532.501 348.104C532.501 345.738 533.362 344.05 535.016 344.05ZM543.921 353.334C546.188 353.334 547.711 351.199 547.711 348.104C547.711 345.01 546.188 342.875 543.921 342.875C541.654 342.875 540.131 345.01 540.131 348.104C540.131 351.199 541.654 353.334 543.921 353.334ZM543.921 344.05C545.56 344.05 546.437 345.738 546.437 348.104C546.437 350.471 545.56 352.159 543.921 352.159C542.266 352.159 541.406 350.471 541.406 348.104C541.406 345.738 542.266 344.05 543.921 344.05ZM552.826 353.334C555.093 353.334 556.616 351.199 556.616 348.104C556.616 345.01 555.093 342.875 552.826 342.875C550.559 342.875 549.036 345.01 549.036 348.104C549.036 351.199 550.559 353.334 552.826 353.334ZM552.826 344.05C554.464 344.05 555.341 345.738 555.341 348.104C555.341 350.471 554.464 352.159 552.826 352.159C551.171 352.159 550.31 350.471 550.31 348.104C550.31 345.738 551.171 344.05 552.826 344.05ZM561.337 343.007H560.559L557.547 344.546V345.87L560.063 344.579V353.185H561.337V343.007ZM567.44 343.024V353.185H573.911V352.01H568.731V348.551H573.431V347.393H568.731V344.182H573.911V343.024H567.44ZM575.246 344.182H578.787V353.185H580.094V344.182H583.636V343.024H575.246V344.182ZM592.397 343.024V347.376H586.654V343.024H585.347V353.185H586.654V348.551H592.397V353.185H593.704V343.024H592.397Z" fill="#111111"/>
<path d="M403.036 385.93C403.036 389.091 405.022 391.16 407.587 391.16C409.705 391.16 411.129 389.919 411.542 388.016H410.251C409.838 389.207 408.994 389.985 407.587 389.985C405.634 389.985 404.344 388.33 404.344 385.93C404.344 383.514 405.651 381.876 407.587 381.876C408.994 381.876 409.838 382.654 410.251 383.829H411.542C411.129 381.942 409.722 380.701 407.587 380.701C405.022 380.701 403.036 382.77 403.036 385.93ZM419.039 383.663H417.781V388.644C417.517 389.439 416.805 390.018 415.944 390.018C414.836 390.018 414.339 389.306 414.339 388.28V383.663H413.081V388.479C413.081 390.084 413.975 391.16 415.647 391.16C416.59 391.16 417.368 390.663 417.781 390.084V391.011H419.039V383.663ZM425.018 383.63C424.886 383.564 424.621 383.514 424.307 383.514C423.496 383.514 422.801 383.994 422.486 384.623V383.663H421.245V391.011H422.486V386.079C422.735 385.219 423.413 384.706 424.191 384.706C424.505 384.706 424.82 384.772 425.018 384.904V383.63ZM430.335 383.63C430.203 383.564 429.938 383.514 429.624 383.514C428.813 383.514 428.118 383.994 427.803 384.623V383.663H426.562V391.011H427.803V386.079C428.052 385.219 428.73 384.706 429.508 384.706C429.822 384.706 430.137 384.772 430.335 384.904V383.63ZM436.303 388.81C436.104 389.637 435.426 390.101 434.515 390.101C433.274 390.101 432.397 389.141 432.381 387.569H437.577V387.122C437.577 384.987 436.501 383.514 434.482 383.514C432.48 383.514 431.139 385.153 431.139 387.354C431.139 389.621 432.513 391.16 434.515 391.16C436.17 391.16 437.213 390.2 437.478 388.81H436.303ZM434.499 384.573C435.723 384.573 436.303 385.533 436.319 386.625H432.414C432.596 385.335 433.39 384.573 434.499 384.573ZM439.232 391.011H440.474V386.03C440.738 385.235 441.483 384.656 442.344 384.656C443.452 384.656 443.965 385.368 443.965 386.394V391.011H445.223V386.195C445.223 384.59 444.313 383.514 442.641 383.514C441.698 383.514 440.904 384.011 440.474 384.59V383.663H439.232V391.011ZM447.677 389.157C447.677 390.514 448.504 391.16 449.696 391.16C450.142 391.16 450.573 391.061 450.854 390.912V389.753C450.606 389.919 450.242 390.051 449.894 390.051C449.265 390.051 448.918 389.737 448.918 389.025V384.722H450.688V383.663H448.918V381.727H447.677V383.663H446.485V384.722H447.677V389.157ZM457.475 383.663H456.234V391.011H457.475V383.663ZM457.657 381.446C457.657 380.999 457.293 380.651 456.846 380.651C456.416 380.651 456.052 380.999 456.052 381.446C456.052 381.876 456.416 382.24 456.846 382.24C457.293 382.24 457.657 381.876 457.657 381.446ZM459.692 391.011H460.933V386.03C461.198 385.235 461.943 384.656 462.803 384.656C463.912 384.656 464.425 385.368 464.425 386.394V391.011H465.683V386.195C465.683 384.59 464.773 383.514 463.101 383.514C462.158 383.514 461.364 384.011 460.933 384.59V383.663H459.692V391.011ZM468.136 389.157C468.136 390.514 468.964 391.16 470.155 391.16C470.602 391.16 471.033 391.061 471.314 390.912V389.753C471.066 389.919 470.702 390.051 470.354 390.051C469.725 390.051 469.378 389.737 469.378 389.025V384.722H471.148V383.663H469.378V381.727H468.136V383.663H466.945V384.722H468.136V389.157ZM477.594 388.81C477.396 389.637 476.717 390.101 475.807 390.101C474.566 390.101 473.689 389.141 473.672 387.569H478.868V387.122C478.868 384.987 477.793 383.514 475.774 383.514C473.771 383.514 472.431 385.153 472.431 387.354C472.431 389.621 473.804 391.16 475.807 391.16C477.462 391.16 478.504 390.2 478.769 388.81H477.594ZM475.79 384.573C477.015 384.573 477.594 385.533 477.611 386.625H473.705C473.887 385.335 474.682 384.573 475.79 384.573ZM484.297 383.63C484.165 383.564 483.9 383.514 483.585 383.514C482.774 383.514 482.079 383.994 481.765 384.623V383.663H480.524V391.011H481.765V386.079C482.013 385.219 482.692 384.706 483.47 384.706C483.784 384.706 484.098 384.772 484.297 384.904V383.63ZM490.264 388.81C490.066 389.637 489.387 390.101 488.477 390.101C487.236 390.101 486.359 389.141 486.342 387.569H491.539V387.122C491.539 384.987 490.463 383.514 488.444 383.514C486.442 383.514 485.101 385.153 485.101 387.354C485.101 389.621 486.475 391.16 488.477 391.16C490.132 391.16 491.175 390.2 491.439 388.81H490.264ZM488.461 384.573C489.685 384.573 490.264 385.533 490.281 386.625H486.375C486.557 385.335 487.352 384.573 488.461 384.573ZM492.614 388.992C492.846 390.349 494.021 391.16 495.626 391.16C497.198 391.16 498.357 390.332 498.357 388.942C498.357 387.916 497.744 387.221 496.487 386.89L495.063 386.543C494.368 386.344 494.037 386.112 494.037 385.616C494.037 384.904 494.716 384.557 495.444 384.557C496.338 384.557 496.851 384.937 497.066 385.599H498.307C498.042 384.309 497.082 383.514 495.461 383.514C493.971 383.514 492.829 384.375 492.829 385.682C492.829 386.824 493.557 387.354 494.6 387.618L496.056 387.999C496.818 388.198 497.149 388.512 497.149 389.025C497.149 389.77 496.52 390.117 495.643 390.117C494.782 390.117 494.137 389.753 493.905 388.992H492.614ZM500.426 389.157C500.426 390.514 501.254 391.16 502.445 391.16C502.892 391.16 503.322 391.061 503.604 390.912V389.753C503.355 389.919 502.991 390.051 502.644 390.051C502.015 390.051 501.667 389.737 501.667 389.025V384.722H503.438V383.663H501.667V381.727H500.426V383.663H499.235V384.722H500.426V389.157ZM504.8 390.2C504.8 390.713 505.197 391.094 505.694 391.094C506.174 391.094 506.571 390.713 506.571 390.2C506.571 389.687 506.174 389.29 505.694 389.29C505.197 389.29 504.8 389.687 504.8 390.2ZM504.8 385.004C504.8 385.517 505.197 385.897 505.694 385.897C506.174 385.897 506.571 385.517 506.571 385.004C506.571 384.491 506.174 384.093 505.694 384.093C505.197 384.093 504.8 384.491 504.8 385.004ZM515.203 391.16C517.47 391.16 518.993 389.025 518.993 385.93C518.993 382.836 517.47 380.701 515.203 380.701C512.936 380.701 511.413 382.836 511.413 385.93C511.413 389.025 512.936 391.16 515.203 391.16ZM515.203 381.876C516.841 381.876 517.718 383.564 517.718 385.93C517.718 388.297 516.841 389.985 515.203 389.985C513.548 389.985 512.688 388.297 512.688 385.93C512.688 383.564 513.548 381.876 515.203 381.876ZM519.685 390.2C519.685 390.713 520.082 391.094 520.578 391.094C521.058 391.094 521.455 390.713 521.455 390.2C521.455 389.687 521.058 389.29 520.578 389.29C520.082 389.29 519.685 389.687 519.685 390.2ZM525.934 391.16C528.201 391.16 529.724 389.025 529.724 385.93C529.724 382.836 528.201 380.701 525.934 380.701C523.667 380.701 522.144 382.836 522.144 385.93C522.144 389.025 523.667 391.16 525.934 391.16ZM525.934 381.876C527.572 381.876 528.449 383.564 528.449 385.93C528.449 388.297 527.572 389.985 525.934 389.985C524.279 389.985 523.418 388.297 523.418 385.93C523.418 383.564 524.279 381.876 525.934 381.876ZM534.839 391.16C537.106 391.16 538.628 389.025 538.628 385.93C538.628 382.836 537.106 380.701 534.839 380.701C532.571 380.701 531.049 382.836 531.049 385.93C531.049 389.025 532.571 391.16 534.839 391.16ZM534.839 381.876C536.477 381.876 537.354 383.564 537.354 385.93C537.354 388.297 536.477 389.985 534.839 389.985C533.184 389.985 532.323 388.297 532.323 385.93C532.323 383.564 533.184 381.876 534.839 381.876ZM543.743 391.16C546.011 391.16 547.533 389.025 547.533 385.93C547.533 382.836 546.011 380.701 543.743 380.701C541.476 380.701 539.954 382.836 539.954 385.93C539.954 389.025 541.476 391.16 543.743 391.16ZM543.743 381.876C545.382 381.876 546.259 383.564 546.259 385.93C546.259 388.297 545.382 389.985 543.743 389.985C542.089 389.985 541.228 388.297 541.228 385.93C541.228 383.564 542.089 381.876 543.743 381.876ZM553.822 380.85H552.498L548.593 387.784V388.711H553.276V391.011H554.484V388.711H556.272V387.618H554.484V385.169H553.276V387.618H550.033L553.822 380.85ZM558.75 387.767C558.75 386.394 559.661 385.45 560.951 385.45C562.226 385.45 563.136 386.41 563.136 387.767C563.136 389.108 562.226 390.051 560.951 390.051C559.644 390.051 558.75 389.091 558.75 387.767ZM564.195 383.216C563.798 381.661 562.821 380.701 561.034 380.701C558.833 380.701 557.311 382.819 557.311 386.112C557.311 387.304 557.476 388.313 557.906 389.224C558.535 390.498 559.611 391.16 560.935 391.16C563.02 391.16 564.344 389.621 564.344 387.751C564.344 385.914 563.02 384.375 561.051 384.375C559.859 384.375 558.817 385.086 558.486 386.112C558.486 386.013 558.469 385.765 558.469 385.666C558.469 383.481 559.545 381.777 561.034 381.777C562.06 381.777 562.623 382.356 562.904 383.216H564.195ZM569.784 380.85V391.011H576.254V389.836H571.074V386.377H575.774V385.219H571.074V382.008H576.254V380.85H569.784ZM577.589 382.008H581.13V391.011H582.438V382.008H585.979V380.85H577.589V382.008ZM594.74 380.85V385.202H588.997V380.85H587.69V391.011H588.997V386.377H594.74V391.011H596.047V380.85H594.74Z" fill="#111111"/>
<rect opacity="0.1" x="402.424" y="292.957" width="206.152" height="31.2065" rx="15.6033" stroke="#111111" stroke-width="0.945652" stroke-linecap="square"/>
<path opacity="0.3" d="M421.599 304.252V314.413H428.07V313.238H422.89V309.779H427.59V308.621H422.89V305.41H428.07V304.252H421.599ZM429.405 305.41H432.946V314.413H434.254V305.41H437.795V304.252H429.405V305.41ZM446.556 304.252V308.604H440.813V304.252H439.506V314.413H440.813V309.779H446.556V314.413H447.863V304.252H446.556ZM455.08 313.552C455.444 314.082 456.238 314.562 457.148 314.562C459.3 314.562 460.458 312.824 460.458 310.739C460.458 308.671 459.3 306.916 457.148 306.916C456.238 306.916 455.444 307.396 455.08 307.926V303.656H453.822V314.413H455.08V313.552ZM455.08 309.25C455.46 308.489 456.188 308.042 456.966 308.042C458.373 308.042 459.2 309.184 459.2 310.739C459.2 312.295 458.373 313.437 456.966 313.437C456.188 313.437 455.46 312.99 455.08 312.229V309.25ZM467.474 314.413V309.515C467.474 307.909 466.431 306.916 464.677 306.916C463.27 306.916 462.178 307.76 461.93 309.002H463.155C463.386 308.323 463.883 307.992 464.661 307.992C465.72 307.992 466.282 308.654 466.282 309.564V310.491C465.968 310.21 465.19 309.895 464.429 309.895C462.857 309.895 461.616 310.822 461.616 312.195C461.616 313.652 462.857 314.545 464.346 314.545C465.223 314.545 466.001 314.165 466.282 313.867V314.413H467.474ZM466.282 312.593C466.067 313.139 465.323 313.503 464.561 313.503C463.668 313.503 462.807 313.089 462.807 312.195C462.807 311.318 463.668 310.921 464.561 310.921C465.323 310.921 466.067 311.285 466.282 311.831V312.593ZM470.837 303.656H469.595V314.413H470.837V303.656ZM478.383 314.413V309.515C478.383 307.909 477.34 306.916 475.586 306.916C474.179 306.916 473.087 307.76 472.839 309.002H474.063C474.295 308.323 474.792 307.992 475.569 307.992C476.628 307.992 477.191 308.654 477.191 309.564V310.491C476.877 310.21 476.099 309.895 475.338 309.895C473.765 309.895 472.524 310.822 472.524 312.195C472.524 313.652 473.765 314.545 475.255 314.545C476.132 314.545 476.91 314.165 477.191 313.867V314.413H478.383ZM477.191 312.593C476.976 313.139 476.231 313.503 475.47 313.503C474.576 313.503 473.716 313.089 473.716 312.195C473.716 311.318 474.576 310.921 475.47 310.921C476.231 310.921 476.976 311.285 477.191 311.831V312.593ZM480.504 314.413H481.745V309.432C482.01 308.637 482.755 308.058 483.615 308.058C484.724 308.058 485.237 308.77 485.237 309.796V314.413H486.495V309.597C486.495 307.992 485.585 306.916 483.913 306.916C482.97 306.916 482.176 307.413 481.745 307.992V307.065H480.504V314.413ZM488.071 310.739C488.071 313.023 489.445 314.562 491.414 314.562C493.069 314.562 494.112 313.602 494.36 312.195H493.086C492.92 312.99 492.291 313.47 491.414 313.47C490.156 313.47 489.329 312.344 489.329 310.739C489.329 309.134 490.156 308.009 491.414 308.009C492.291 308.009 492.92 308.489 493.086 309.283H494.36C494.112 307.876 493.069 306.916 491.414 306.916C489.445 306.916 488.071 308.455 488.071 310.739ZM500.588 312.212C500.389 313.039 499.711 313.503 498.8 313.503C497.559 313.503 496.682 312.543 496.666 310.971H501.862V310.524C501.862 308.389 500.786 306.916 498.767 306.916C496.765 306.916 495.425 308.555 495.425 310.756C495.425 313.023 496.798 314.562 498.8 314.562C500.455 314.562 501.498 313.602 501.763 312.212H500.588ZM498.784 307.976C500.009 307.976 500.588 308.935 500.604 310.028H496.699C496.881 308.737 497.675 307.976 498.784 307.976ZM507.517 312.56C507.517 313.917 508.345 314.562 509.536 314.562C509.983 314.562 510.413 314.463 510.695 314.314V313.155C510.447 313.321 510.082 313.453 509.735 313.453C509.106 313.453 508.759 313.139 508.759 312.427V308.124H510.529V307.065H508.759V305.129H507.517V307.065H506.326V308.124H507.517V312.56ZM518.564 310.739C518.564 308.489 517.19 306.916 515.188 306.916C513.169 306.916 511.812 308.489 511.812 310.739C511.812 312.99 513.169 314.562 515.188 314.562C517.19 314.562 518.564 312.99 518.564 310.739ZM517.306 310.739C517.306 312.344 516.512 313.47 515.188 313.47C513.864 313.47 513.07 312.344 513.07 310.739C513.07 309.134 513.864 308.009 515.188 308.009C516.512 308.009 517.306 309.134 517.306 310.739ZM523.284 312.394C523.516 313.751 524.691 314.562 526.296 314.562C527.868 314.562 529.027 313.735 529.027 312.344C529.027 311.318 528.414 310.623 527.157 310.292L525.733 309.945C525.038 309.746 524.707 309.515 524.707 309.018C524.707 308.306 525.386 307.959 526.114 307.959C527.008 307.959 527.521 308.34 527.736 309.002H528.977C528.712 307.711 527.752 306.916 526.131 306.916C524.641 306.916 523.499 307.777 523.499 309.084C523.499 310.226 524.228 310.756 525.27 311.021L526.726 311.401C527.488 311.6 527.819 311.914 527.819 312.427C527.819 313.172 527.19 313.519 526.313 313.519C525.452 313.519 524.807 313.155 524.575 312.394H523.284ZM531.096 312.56C531.096 313.917 531.924 314.562 533.115 314.562C533.562 314.562 533.992 314.463 534.274 314.314V313.155C534.026 313.321 533.661 313.453 533.314 313.453C532.685 313.453 532.338 313.139 532.338 312.427V308.124H534.108V307.065H532.338V305.129H531.096V307.065H529.905V308.124H531.096V312.56ZM541.217 314.413V309.515C541.217 307.909 540.174 306.916 538.42 306.916C537.013 306.916 535.921 307.76 535.673 309.002H536.898C537.129 308.323 537.626 307.992 538.403 307.992C539.463 307.992 540.025 308.654 540.025 309.564V310.491C539.711 310.21 538.933 309.895 538.172 309.895C536.6 309.895 535.358 310.822 535.358 312.195C535.358 313.652 536.6 314.545 538.089 314.545C538.966 314.545 539.744 314.165 540.025 313.867V314.413H541.217ZM540.025 312.593C539.81 313.139 539.065 313.503 538.304 313.503C537.411 313.503 536.55 313.089 536.55 312.195C536.55 311.318 537.411 310.921 538.304 310.921C539.065 310.921 539.81 311.285 540.025 311.831V312.593ZM548.171 314.413H549.693L546.267 310.243L549.577 307.065H547.939L544.579 310.325V303.656H543.338V314.413H544.579V311.782L545.374 311.021L548.171 314.413ZM555.438 312.212C555.24 313.039 554.561 313.503 553.651 313.503C552.41 313.503 551.533 312.543 551.516 310.971H556.713V310.524C556.713 308.389 555.637 306.916 553.618 306.916C551.616 306.916 550.275 308.555 550.275 310.756C550.275 313.023 551.649 314.562 553.651 314.562C555.306 314.562 556.349 313.602 556.613 312.212H555.438ZM553.635 307.976C554.859 307.976 555.438 308.935 555.455 310.028H551.549C551.731 308.737 552.526 307.976 553.635 307.976ZM557.789 313.602C557.789 314.115 558.186 314.496 558.682 314.496C559.162 314.496 559.56 314.115 559.56 313.602C559.56 313.089 559.162 312.692 558.682 312.692C558.186 312.692 557.789 313.089 557.789 313.602ZM560.966 313.602C560.966 314.115 561.363 314.496 561.843 314.496C562.34 314.496 562.737 314.115 562.737 313.602C562.737 313.089 562.34 312.692 561.843 312.692C561.363 312.692 560.966 313.089 560.966 313.602ZM564.127 313.602C564.127 314.115 564.524 314.496 565.021 314.496C565.501 314.496 565.898 314.115 565.898 313.602C565.898 313.089 565.501 312.692 565.021 312.692C564.524 312.692 564.127 313.089 564.127 313.602Z" fill="#111111"/>
<rect x="229.37" y="292.957" width="156.033" height="31.2065" rx="15.6033" fill="#333322"/>
<path d="M265.393 309.167C266.138 308.902 266.717 308.108 266.717 307.016C266.717 305.195 265.393 304.252 263.275 304.252H259.717V314.413H263.606C265.724 314.413 267.048 313.404 267.048 311.5C267.048 310.425 266.353 309.481 265.393 309.167ZM261.388 308.522V305.741H263.258C264.433 305.741 265.062 306.155 265.062 307.115C265.062 308.075 264.433 308.522 263.258 308.522H261.388ZM261.388 309.945H263.573C264.731 309.945 265.36 310.507 265.36 311.434C265.36 312.344 264.731 312.924 263.573 312.924H261.388V309.945ZM274.392 314.413V309.597C274.392 307.926 273.3 306.9 271.447 306.9C269.941 306.9 268.782 307.843 268.567 309.101H270.156C270.338 308.588 270.752 308.306 271.413 308.306C272.357 308.306 272.82 308.886 272.82 309.63V310.226C272.522 310.011 271.778 309.779 271.116 309.779C269.494 309.779 268.253 310.756 268.253 312.146C268.253 313.652 269.494 314.545 271 314.545C271.827 314.545 272.572 314.248 272.82 313.999V314.413H274.392ZM272.82 312.46C272.638 312.924 271.976 313.205 271.314 313.205C270.569 313.205 269.792 312.891 269.792 312.146C269.792 311.418 270.569 311.103 271.314 311.103C271.976 311.103 272.638 311.385 272.82 311.848V312.46ZM275.831 310.739C275.831 313.023 277.271 314.579 279.257 314.579C281.011 314.579 282.12 313.586 282.335 312.113H280.68C280.548 312.775 280.002 313.139 279.274 313.139C278.165 313.139 277.486 312.129 277.486 310.739C277.486 309.349 278.165 308.34 279.274 308.34C280.002 308.34 280.548 308.704 280.68 309.366H282.335C282.12 307.893 281.011 306.9 279.257 306.9C277.271 306.9 275.831 308.455 275.831 310.739ZM288.577 314.413H290.579L287.336 310.243L290.463 307.065H288.345L285.466 310.077V303.656H283.811V314.413H285.466V311.98L286.144 311.285L288.577 314.413ZM294.918 310.739C294.918 313.023 296.357 314.579 298.343 314.579C300.097 314.579 301.206 313.586 301.421 312.113H299.766C299.634 312.775 299.088 313.139 298.36 313.139C297.251 313.139 296.572 312.129 296.572 310.739C296.572 309.349 297.251 308.34 298.36 308.34C299.088 308.34 299.634 308.704 299.766 309.366H301.421C301.206 307.893 300.097 306.9 298.343 306.9C296.357 306.9 294.918 308.455 294.918 310.739ZM309.368 310.739C309.368 308.489 307.944 306.9 305.876 306.9C303.807 306.9 302.384 308.489 302.384 310.739C302.384 312.99 303.807 314.579 305.876 314.579C307.944 314.579 309.368 312.99 309.368 310.739ZM307.713 310.739C307.713 312.129 307.067 313.155 305.876 313.155C304.684 313.155 304.039 312.129 304.039 310.739C304.039 309.349 304.684 308.323 305.876 308.323C307.067 308.323 307.713 309.349 307.713 310.739ZM312.568 303.656H310.913V314.413H312.568V303.656ZM316.269 303.656H314.614V314.413H316.269V303.656ZM322.849 312.129C322.667 312.841 322.071 313.188 321.277 313.188C320.218 313.188 319.473 312.411 319.423 311.12H324.438V310.524C324.438 308.373 323.312 306.9 321.244 306.9C319.241 306.9 317.802 308.555 317.802 310.756C317.802 313.023 319.225 314.579 321.277 314.579C323.048 314.579 324.123 313.586 324.372 312.129H322.849ZM321.26 308.29C322.27 308.29 322.783 309.018 322.799 309.912H319.473C319.672 308.853 320.35 308.29 321.26 308.29ZM325.494 310.739C325.494 313.023 326.934 314.579 328.92 314.579C330.674 314.579 331.783 313.586 331.998 312.113H330.343C330.211 312.775 329.665 313.139 328.936 313.139C327.828 313.139 327.149 312.129 327.149 310.739C327.149 309.349 327.828 308.34 328.936 308.34C329.665 308.34 330.211 308.704 330.343 309.366H331.998C331.783 307.893 330.674 306.9 328.92 306.9C326.934 306.9 325.494 308.455 325.494 310.739ZM333.935 312.427C333.935 313.883 334.862 314.579 336.169 314.579C336.682 314.579 337.129 314.479 337.41 314.314V312.808C337.179 312.973 336.798 313.106 336.467 313.106C335.921 313.106 335.59 312.841 335.59 312.245V308.439H337.245V307.065H335.59V305.096H333.935V307.065H332.777V308.439H333.935V312.427ZM340.753 307.065H339.098V314.413H340.753V307.065ZM340.951 304.848C340.951 304.285 340.471 303.838 339.925 303.838C339.379 303.838 338.899 304.285 338.899 304.848C338.899 305.41 339.379 305.857 339.925 305.857C340.471 305.857 340.951 305.41 340.951 304.848ZM346.555 314.413L349.352 307.065H347.631L345.744 312.444L343.841 307.065H342.07L344.851 314.413H346.555ZM355.042 312.129C354.86 312.841 354.264 313.188 353.47 313.188C352.411 313.188 351.666 312.411 351.616 311.12H356.631V310.524C356.631 308.373 355.505 306.9 353.437 306.9C351.434 306.9 349.994 308.555 349.994 310.756C349.994 313.023 351.418 314.579 353.47 314.579C355.24 314.579 356.316 313.586 356.564 312.129H355.042ZM353.453 308.29C354.463 308.29 354.976 309.018 354.992 309.912H351.666C351.864 308.853 352.543 308.29 353.453 308.29Z" fill="white"/>
<rect x="229.37" y="330.783" width="156.033" height="31.2065" rx="15.6033" fill="#333322"/>
<path d="M255.046 342.078L253.11 349.558L251.273 342.078H249.585L252.199 352.239H253.772L255.724 344.974L257.644 352.239H259.233L261.847 342.078H260.192L258.356 349.558L256.436 342.078H255.046ZM264.816 344.891H263.161V352.239H264.816V344.891ZM265.015 342.674C265.015 342.111 264.535 341.664 263.989 341.664C263.443 341.664 262.963 342.111 262.963 342.674C262.963 343.237 263.443 343.683 263.989 343.683C264.535 343.683 265.015 343.237 265.015 342.674ZM267.243 350.253C267.243 351.71 268.169 352.405 269.477 352.405C269.99 352.405 270.437 352.305 270.718 352.14V350.634C270.486 350.799 270.106 350.932 269.775 350.932C269.229 350.932 268.898 350.667 268.898 350.071V346.265H270.552V344.891H268.898V342.922H267.243V344.891H266.084V346.265H267.243V350.253ZM272.405 352.239H274.06V347.407C274.242 346.679 274.888 346.232 275.599 346.232C276.543 346.232 276.989 346.828 276.989 347.738V352.239H278.644V347.456C278.644 345.835 277.718 344.726 276.046 344.726C275.186 344.726 274.457 345.123 274.06 345.586V341.482H272.405V352.239ZM285.365 352.239H287.02V341.482H285.365V345.52C285.034 345.107 284.306 344.726 283.495 344.726C281.344 344.726 280.086 346.464 280.086 348.565C280.086 350.684 281.344 352.405 283.495 352.405C284.306 352.405 285.034 352.024 285.365 351.61V352.239ZM285.365 349.955C285.084 350.535 284.455 350.932 283.776 350.932C282.502 350.932 281.741 349.922 281.741 348.565C281.741 347.208 282.502 346.199 283.776 346.199C284.455 346.199 285.084 346.596 285.365 347.175V349.955ZM293.171 344.858C293.056 344.792 292.725 344.726 292.361 344.726C291.649 344.726 291.004 345.107 290.722 345.653V344.891H289.067V352.239H290.722V347.49C290.888 346.695 291.517 346.315 292.195 346.315C292.543 346.315 292.94 346.397 293.171 346.563V344.858ZM300.109 352.239V347.423C300.109 345.752 299.016 344.726 297.163 344.726C295.657 344.726 294.499 345.669 294.284 346.927H295.872C296.054 346.414 296.468 346.133 297.13 346.133C298.073 346.133 298.537 346.712 298.537 347.456V348.052C298.239 347.837 297.494 347.605 296.832 347.605C295.21 347.605 293.969 348.582 293.969 349.972C293.969 351.478 295.21 352.372 296.716 352.372C297.544 352.372 298.288 352.074 298.537 351.825V352.239H300.109ZM298.537 350.286C298.355 350.75 297.693 351.031 297.031 351.031C296.286 351.031 295.508 350.717 295.508 349.972C295.508 349.244 296.286 348.929 297.031 348.929C297.693 348.929 298.355 349.211 298.537 349.674V350.286ZM307.208 344.891H305.702L304.411 350.104L302.988 344.891H301.333L303.468 352.239H305.122L306.43 347.126L307.737 352.239H309.392L311.527 344.891H309.922L308.498 350.104L307.208 344.891ZM318.164 351.61C318.495 352.024 319.223 352.405 320.034 352.405C322.185 352.405 323.443 350.684 323.443 348.565C323.443 346.464 322.185 344.726 320.034 344.726C319.223 344.726 318.495 345.107 318.164 345.52V341.482H316.509V352.239H318.164V351.61ZM318.164 347.175C318.445 346.596 319.074 346.199 319.752 346.199C321.027 346.199 321.788 347.208 321.788 348.565C321.788 349.922 321.027 350.932 319.752 350.932C319.074 350.932 318.445 350.535 318.164 349.955V347.175ZM330.637 352.239V347.423C330.637 345.752 329.545 344.726 327.691 344.726C326.185 344.726 325.027 345.669 324.812 346.927H326.4C326.582 346.414 326.996 346.133 327.658 346.133C328.601 346.133 329.065 346.712 329.065 347.456V348.052C328.767 347.837 328.022 347.605 327.36 347.605C325.738 347.605 324.497 348.582 324.497 349.972C324.497 351.478 325.738 352.372 327.244 352.372C328.072 352.372 328.817 352.074 329.065 351.825V352.239H330.637ZM329.065 350.286C328.883 350.75 328.221 351.031 327.559 351.031C326.814 351.031 326.036 350.717 326.036 349.972C326.036 349.244 326.814 348.929 327.559 348.929C328.221 348.929 328.883 349.211 329.065 349.674V350.286ZM332.076 348.565C332.076 350.849 333.516 352.405 335.502 352.405C337.256 352.405 338.365 351.412 338.58 349.939H336.925C336.792 350.601 336.246 350.965 335.518 350.965C334.409 350.965 333.731 349.955 333.731 348.565C333.731 347.175 334.409 346.166 335.518 346.166C336.246 346.166 336.792 346.53 336.925 347.192H338.58C338.365 345.719 337.256 344.726 335.502 344.726C333.516 344.726 332.076 346.282 332.076 348.565ZM344.822 352.239H346.824L343.58 348.069L346.708 344.891H344.59L341.71 347.903V341.482H340.055V352.239H341.71V349.806L342.389 349.111L344.822 352.239ZM349.678 344.891H348.023V352.239H349.678V344.891ZM349.876 342.674C349.876 342.111 349.396 341.664 348.85 341.664C348.304 341.664 347.824 342.111 347.824 342.674C347.824 343.237 348.304 343.683 348.85 343.683C349.396 343.683 349.876 343.237 349.876 342.674ZM351.724 352.239H353.379V347.407C353.561 346.679 354.206 346.232 354.918 346.232C355.861 346.232 356.308 346.828 356.308 347.738V352.239H357.963V347.456C357.963 345.835 357.036 344.726 355.365 344.726C354.504 344.726 353.776 345.123 353.379 345.586V344.891H351.724V352.239ZM364.683 351.743C364.683 353.116 364.104 353.861 362.88 353.861C361.969 353.861 361.39 353.447 361.225 352.636H359.62C359.802 354.242 361.01 355.218 362.88 355.218C364.832 355.218 366.338 354.109 366.338 351.627V344.891H364.683V345.487C364.353 345.09 363.641 344.726 362.813 344.726C360.646 344.726 359.404 346.513 359.404 348.449C359.404 350.386 360.646 352.173 362.813 352.173C363.641 352.173 364.353 351.809 364.683 351.412V351.743ZM364.683 349.84C364.402 350.336 363.79 350.717 363.095 350.717C361.821 350.717 361.092 349.757 361.092 348.449C361.092 347.142 361.821 346.182 363.095 346.182C363.79 346.182 364.402 346.563 364.683 347.059V349.84Z" fill="white"/>
<rect x="229.37" y="368.609" width="156.033" height="31.2065" rx="15.6033" fill="#333322"/>
<path d="M254.706 379.904L252.77 387.384L250.933 379.904H249.245L251.86 390.065H253.432L255.385 382.8L257.304 390.065H258.893L261.508 379.904H259.853L258.016 387.384L256.096 379.904H254.706ZM264.476 382.717H262.822V390.065H264.476V382.717ZM264.675 380.5C264.675 379.937 264.195 379.49 263.649 379.49C263.103 379.49 262.623 379.937 262.623 380.5C262.623 381.063 263.103 381.509 263.649 381.509C264.195 381.509 264.675 381.063 264.675 380.5ZM266.903 388.079C266.903 389.536 267.83 390.231 269.137 390.231C269.65 390.231 270.097 390.131 270.378 389.966V388.46C270.147 388.625 269.766 388.758 269.435 388.758C268.889 388.758 268.558 388.493 268.558 387.897V384.091H270.213V382.717H268.558V380.748H266.903V382.717H265.745V384.091H266.903V388.079ZM272.066 390.065H273.721V385.233C273.903 384.505 274.548 384.058 275.26 384.058C276.203 384.058 276.65 384.654 276.65 385.564V390.065H278.305V385.283C278.305 383.661 277.378 382.552 275.706 382.552C274.846 382.552 274.118 382.949 273.721 383.413V379.308H272.066V390.065ZM285.025 390.065H286.68V379.308H285.025V383.346C284.694 382.933 283.966 382.552 283.155 382.552C281.004 382.552 279.746 384.29 279.746 386.391C279.746 388.51 281.004 390.231 283.155 390.231C283.966 390.231 284.694 389.85 285.025 389.436V390.065ZM285.025 387.781C284.744 388.361 284.115 388.758 283.437 388.758C282.162 388.758 281.401 387.748 281.401 386.391C281.401 385.034 282.162 384.025 283.437 384.025C284.115 384.025 284.744 384.422 285.025 385.001V387.781ZM292.832 382.684C292.716 382.618 292.385 382.552 292.021 382.552C291.309 382.552 290.664 382.933 290.383 383.479V382.717H288.728V390.065H290.383V385.316C290.548 384.521 291.177 384.141 291.855 384.141C292.203 384.141 292.6 384.223 292.832 384.389V382.684ZM299.769 390.065V385.249C299.769 383.578 298.677 382.552 296.823 382.552C295.317 382.552 294.159 383.495 293.944 384.753H295.533C295.715 384.24 296.128 383.959 296.79 383.959C297.734 383.959 298.197 384.538 298.197 385.283V385.878C297.899 385.663 297.154 385.432 296.492 385.432C294.871 385.432 293.629 386.408 293.629 387.798C293.629 389.304 294.871 390.198 296.377 390.198C297.204 390.198 297.949 389.9 298.197 389.651V390.065H299.769ZM298.197 388.112C298.015 388.576 297.353 388.857 296.691 388.857C295.946 388.857 295.168 388.543 295.168 387.798C295.168 387.07 295.946 386.755 296.691 386.755C297.353 386.755 298.015 387.037 298.197 387.5V388.112ZM306.868 382.717H305.362L304.071 387.93L302.648 382.717H300.993L303.128 390.065H304.783L306.09 384.952L307.397 390.065H309.052L311.187 382.717H309.582L308.159 387.93L306.868 382.717ZM317.824 382.717H316.169V390.065H317.824V382.717ZM318.023 380.5C318.023 379.937 317.543 379.49 316.997 379.49C316.45 379.49 315.971 379.937 315.971 380.5C315.971 381.063 316.45 381.509 316.997 381.509C317.543 381.509 318.023 381.063 318.023 380.5ZM319.87 390.065H321.525V385.233C321.707 384.505 322.352 384.058 323.064 384.058C324.007 384.058 324.454 384.654 324.454 385.564V390.065H326.109V385.283C326.109 383.661 325.182 382.552 323.511 382.552C322.65 382.552 321.922 382.949 321.525 383.413V382.717H319.87V390.065ZM328.444 388.079C328.444 389.536 329.371 390.231 330.678 390.231C331.191 390.231 331.638 390.131 331.92 389.966V388.46C331.688 388.625 331.307 388.758 330.976 388.758C330.43 388.758 330.099 388.493 330.099 387.897V384.091H331.754V382.717H330.099V380.748H328.444V382.717H327.286V384.091H328.444V388.079ZM338.061 387.781C337.878 388.493 337.283 388.841 336.488 388.841C335.429 388.841 334.685 388.063 334.635 386.772H339.649V386.176C339.649 384.025 338.524 382.552 336.455 382.552C334.453 382.552 333.013 384.207 333.013 386.408C333.013 388.675 334.436 390.231 336.488 390.231C338.259 390.231 339.335 389.238 339.583 387.781H338.061ZM336.472 383.942C337.481 383.942 337.994 384.67 338.011 385.564H334.685C334.883 384.505 335.562 383.942 336.472 383.942ZM345.274 382.684C345.159 382.618 344.828 382.552 344.464 382.552C343.752 382.552 343.107 382.933 342.825 383.479V382.717H341.17V390.065H342.825V385.316C342.991 384.521 343.62 384.141 344.298 384.141C344.646 384.141 345.043 384.223 345.274 384.389V382.684ZM351.086 387.781C350.904 388.493 350.309 388.841 349.514 388.841C348.455 388.841 347.71 388.063 347.661 386.772H352.675V386.176C352.675 384.025 351.55 382.552 349.481 382.552C347.479 382.552 346.039 384.207 346.039 386.408C346.039 388.675 347.462 390.231 349.514 390.231C351.285 390.231 352.361 389.238 352.609 387.781H351.086ZM349.498 383.942C350.507 383.942 351.02 384.67 351.037 385.564H347.71C347.909 384.505 348.587 383.942 349.498 383.942ZM353.683 387.947C353.898 389.37 355.09 390.231 356.811 390.231C358.466 390.231 359.674 389.337 359.674 387.881C359.674 386.805 359.045 386.093 357.787 385.796L356.232 385.432C355.702 385.299 355.47 385.084 355.47 384.753C355.47 384.174 356.066 383.909 356.645 383.909C357.407 383.909 357.837 384.24 357.986 384.72H359.608C359.359 383.379 358.383 382.552 356.662 382.552C355.057 382.552 353.882 383.528 353.882 384.852C353.882 386.06 354.659 386.623 355.702 386.871L357.225 387.235C357.837 387.384 358.085 387.599 358.085 387.997C358.085 388.576 357.589 388.874 356.827 388.874C356.099 388.874 355.553 388.559 355.371 387.947H353.683ZM361.671 388.079C361.671 389.536 362.598 390.231 363.906 390.231C364.419 390.231 364.865 390.131 365.147 389.966V388.46C364.915 388.625 364.534 388.758 364.203 388.758C363.657 388.758 363.326 388.493 363.326 387.897V384.091H364.981V382.717H363.326V380.748H361.671V382.717H360.513V384.091H361.671V388.079Z" fill="white"/>
<g opacity="0.4">
<path d="M231.885 208.741H230.578V218.902H231.885V208.741ZM242.697 218.902H243.954V208.145H242.697V212.415C242.333 211.885 241.538 211.406 240.628 211.406C238.477 211.406 237.318 213.16 237.318 215.228C237.318 217.313 238.477 219.051 240.628 219.051C241.538 219.051 242.333 218.571 242.697 218.042V218.902ZM242.697 216.718C242.316 217.479 241.588 217.926 240.81 217.926C239.403 217.926 238.576 216.784 238.576 215.228C238.576 213.673 239.403 212.531 240.81 212.531C241.588 212.531 242.316 212.978 242.697 213.739V216.718ZM252.377 215.228C252.377 212.978 251.003 211.406 249.001 211.406C246.982 211.406 245.625 212.978 245.625 215.228C245.625 217.479 246.982 219.051 249.001 219.051C251.003 219.051 252.377 217.479 252.377 215.228ZM251.119 215.228C251.119 216.834 250.325 217.959 249.001 217.959C247.677 217.959 246.883 216.834 246.883 215.228C246.883 213.623 247.677 212.498 249.001 212.498C250.325 212.498 251.119 213.623 251.119 215.228ZM254.057 218.902H255.299V213.921C255.563 213.127 256.308 212.547 257.169 212.547C258.277 212.547 258.79 213.259 258.79 214.285V218.902H260.048V214.086C260.048 212.481 259.138 211.406 257.466 211.406C256.523 211.406 255.729 211.902 255.299 212.481V211.554H254.057V218.902ZM261.23 212.001H262.074L262.918 210.595C263.117 210.264 263.282 209.9 263.282 209.552C263.282 208.94 262.902 208.592 262.405 208.592C261.909 208.592 261.512 208.956 261.512 209.469C261.512 209.933 261.826 210.231 262.24 210.297L261.23 212.001ZM265.184 217.049C265.184 218.406 266.012 219.051 267.203 219.051C267.65 219.051 268.08 218.952 268.362 218.803V217.644C268.113 217.81 267.749 217.942 267.402 217.942C266.773 217.942 266.425 217.628 266.425 216.916V212.614H268.196V211.554H266.425V209.618H265.184V211.554H263.993V212.614H265.184V217.049ZM278.574 218.902H280.096L276.671 214.732L279.98 211.554H278.342L274.983 214.815V208.145H273.742V218.902H274.983V216.271L275.777 215.51L278.574 218.902ZM281.418 218.902H282.659V213.921C282.924 213.127 283.669 212.547 284.529 212.547C285.638 212.547 286.151 213.259 286.151 214.285V218.902H287.409V214.086C287.409 212.481 286.499 211.406 284.827 211.406C283.884 211.406 283.089 211.902 282.659 212.481V211.554H281.418V218.902ZM295.737 215.228C295.737 212.978 294.364 211.406 292.361 211.406C290.342 211.406 288.985 212.978 288.985 215.228C288.985 217.479 290.342 219.051 292.361 219.051C294.364 219.051 295.737 217.479 295.737 215.228ZM294.479 215.228C294.479 216.834 293.685 217.959 292.361 217.959C291.037 217.959 290.243 216.834 290.243 215.228C290.243 213.623 291.037 212.498 292.361 212.498C293.685 212.498 294.479 213.623 294.479 215.228ZM302.084 211.554H300.975L299.47 217.165L297.848 211.554H296.607L298.774 218.902H299.983L301.522 213.325L303.044 218.902H304.252L306.42 211.554H305.212L303.59 217.165L302.084 211.554ZM316.144 211.554H315.036L313.53 217.165L311.908 211.554H310.667L312.835 218.902H314.043L315.582 213.325L317.104 218.902H318.312L320.48 211.554H319.272L317.65 217.165L316.144 211.554ZM321.885 218.902H323.126V213.921C323.391 213.127 324.136 212.547 324.996 212.547C326.105 212.547 326.618 213.259 326.618 214.285V218.902H327.876V214.086C327.876 212.481 326.966 211.406 325.294 211.406C324.351 211.406 323.557 211.902 323.126 212.481V208.145H321.885V218.902ZM335.311 218.902V214.004C335.311 212.398 334.268 211.406 332.514 211.406C331.107 211.406 330.015 212.25 329.767 213.491H330.991C331.223 212.812 331.72 212.481 332.497 212.481C333.557 212.481 334.119 213.143 334.119 214.053V214.98C333.805 214.699 333.027 214.384 332.266 214.384C330.694 214.384 329.452 215.311 329.452 216.685C329.452 218.141 330.694 219.035 332.183 219.035C333.06 219.035 333.838 218.654 334.119 218.356V218.902H335.311ZM334.119 217.082C333.904 217.628 333.159 217.992 332.398 217.992C331.504 217.992 330.644 217.578 330.644 216.685C330.644 215.808 331.504 215.41 332.398 215.41C333.159 215.41 333.904 215.774 334.119 216.321V217.082ZM337.731 217.049C337.731 218.406 338.559 219.051 339.75 219.051C340.197 219.051 340.627 218.952 340.909 218.803V217.644C340.66 217.81 340.296 217.942 339.949 217.942C339.32 217.942 338.972 217.628 338.972 216.916V212.614H340.743V211.554H338.972V209.618H337.731V211.554H336.54V212.614H337.731V217.049ZM346.636 217.049C346.636 218.406 347.463 219.051 348.655 219.051C349.102 219.051 349.532 218.952 349.813 218.803V217.644C349.565 217.81 349.201 217.942 348.854 217.942C348.225 217.942 347.877 217.628 347.877 216.916V212.614H349.648V211.554H347.877V209.618H346.636V211.554H345.444V212.614H346.636V217.049ZM351.541 218.902H352.782V213.921C353.047 213.127 353.791 212.547 354.652 212.547C355.761 212.547 356.274 213.259 356.274 214.285V218.902H357.532V214.086C357.532 212.481 356.621 211.406 354.95 211.406C354.007 211.406 353.212 211.902 352.782 212.481V208.145H351.541V218.902ZM364.271 216.701C364.073 217.529 363.394 217.992 362.484 217.992C361.243 217.992 360.366 217.032 360.349 215.46H365.545V215.013C365.545 212.878 364.47 211.406 362.451 211.406C360.448 211.406 359.108 213.044 359.108 215.245C359.108 217.512 360.482 219.051 362.484 219.051C364.139 219.051 365.181 218.091 365.446 216.701H364.271ZM362.467 212.465C363.692 212.465 364.271 213.424 364.288 214.517H360.382C360.564 213.226 361.359 212.465 362.467 212.465ZM372.094 218.042C372.475 218.571 373.253 219.051 374.163 219.051C376.331 219.051 377.473 217.264 377.473 215.228C377.473 213.193 376.331 211.406 374.163 211.406C373.253 211.406 372.475 211.885 372.094 212.415V211.554H370.853V221.715H372.094V218.042ZM372.094 213.739C372.475 212.978 373.203 212.531 373.981 212.531C375.388 212.531 376.215 213.673 376.215 215.228C376.215 216.784 375.388 217.926 373.981 217.926C373.203 217.926 372.475 217.479 372.094 216.718V213.739ZM385.415 215.228C385.415 212.978 384.041 211.406 382.039 211.406C380.02 211.406 378.663 212.978 378.663 215.228C378.663 217.479 380.02 219.051 382.039 219.051C384.041 219.051 385.415 217.479 385.415 215.228ZM384.157 215.228C384.157 216.834 383.363 217.959 382.039 217.959C380.715 217.959 379.921 216.834 379.921 215.228C379.921 213.623 380.715 212.498 382.039 212.498C383.363 212.498 384.157 213.623 384.157 215.228ZM388.336 208.145H387.095V218.902H388.336V208.145ZM391.795 211.554H390.554V218.902H391.795V211.554ZM391.977 209.337C391.977 208.89 391.613 208.543 391.166 208.543C390.736 208.543 390.372 208.89 390.372 209.337C390.372 209.767 390.736 210.131 391.166 210.131C391.613 210.131 391.977 209.767 391.977 209.337ZM393.482 215.228C393.482 217.512 394.856 219.051 396.825 219.051C398.48 219.051 399.523 218.091 399.771 216.685H398.497C398.331 217.479 397.702 217.959 396.825 217.959C395.568 217.959 394.74 216.834 394.74 215.228C394.74 213.623 395.568 212.498 396.825 212.498C397.702 212.498 398.331 212.978 398.497 213.772H399.771C399.523 212.365 398.48 211.406 396.825 211.406C394.856 211.406 393.482 212.945 393.482 215.228ZM402.639 211.554H401.398V218.902H402.639V211.554ZM402.821 209.337C402.821 208.89 402.457 208.543 402.01 208.543C401.58 208.543 401.216 208.89 401.216 209.337C401.216 209.767 401.58 210.131 402.01 210.131C402.457 210.131 402.821 209.767 402.821 209.337ZM409.49 216.701C409.291 217.529 408.613 217.992 407.703 217.992C406.461 217.992 405.584 217.032 405.568 215.46H410.764V215.013C410.764 212.878 409.688 211.406 407.669 211.406C405.667 211.406 404.327 213.044 404.327 215.245C404.327 217.512 405.7 219.051 407.703 219.051C409.357 219.051 410.4 218.091 410.665 216.701H409.49ZM407.686 212.465C408.911 212.465 409.49 213.424 409.506 214.517H405.601C405.783 213.226 406.577 212.465 407.686 212.465ZM411.84 216.883C412.071 218.24 413.246 219.051 414.851 219.051C416.424 219.051 417.582 218.224 417.582 216.834C417.582 215.808 416.97 215.112 415.712 214.781L414.289 214.434C413.594 214.235 413.263 214.004 413.263 213.507C413.263 212.796 413.941 212.448 414.669 212.448C415.563 212.448 416.076 212.829 416.291 213.491H417.532C417.268 212.2 416.308 211.406 414.686 211.406C413.197 211.406 412.055 212.266 412.055 213.573C412.055 214.715 412.783 215.245 413.825 215.51L415.282 215.89C416.043 216.089 416.374 216.403 416.374 216.916C416.374 217.661 415.745 218.009 414.868 218.009C414.007 218.009 413.362 217.644 413.13 216.883H411.84ZM428.285 218.902V214.004C428.285 212.398 427.243 211.406 425.488 211.406C424.082 211.406 422.99 212.25 422.741 213.491H423.966C424.198 212.812 424.694 212.481 425.472 212.481C426.531 212.481 427.094 213.143 427.094 214.053V214.98C426.779 214.699 426.001 214.384 425.24 214.384C423.668 214.384 422.427 215.311 422.427 216.685C422.427 218.141 423.668 219.035 425.158 219.035C426.035 219.035 426.812 218.654 427.094 218.356V218.902H428.285ZM427.094 217.082C426.879 217.628 426.134 217.992 425.373 217.992C424.479 217.992 423.618 217.578 423.618 216.685C423.618 215.808 424.479 215.41 425.373 215.41C426.134 215.41 426.879 215.774 427.094 216.321V217.082ZM434.18 211.521C434.047 211.455 433.783 211.406 433.468 211.406C432.657 211.406 431.962 211.885 431.648 212.514V211.554H430.407V218.902H431.648V213.971C431.896 213.11 432.575 212.597 433.352 212.597C433.667 212.597 433.981 212.663 434.18 212.796V211.521ZM440.147 216.701C439.949 217.529 439.27 217.992 438.36 217.992C437.119 217.992 436.242 217.032 436.225 215.46H441.422V215.013C441.422 212.878 440.346 211.406 438.327 211.406C436.325 211.406 434.984 213.044 434.984 215.245C434.984 217.512 436.358 219.051 438.36 219.051C440.015 219.051 441.058 218.091 441.322 216.701H440.147ZM438.344 212.465C439.568 212.465 440.147 213.424 440.164 214.517H436.258C436.44 213.226 437.235 212.465 438.344 212.465ZM450.403 208.162C450.122 208.046 449.841 207.996 449.443 207.996C448.153 207.996 447.193 208.857 447.193 210.33V211.554H445.952V212.614H447.193V218.902H448.417V212.614H450.072V211.554H448.417V210.429C448.417 209.552 448.897 209.089 449.625 209.089C449.89 209.089 450.172 209.138 450.403 209.287V208.162ZM455.286 211.521C455.154 211.455 454.889 211.406 454.575 211.406C453.764 211.406 453.069 211.885 452.754 212.514V211.554H451.513V218.902H452.754V213.971C453.002 213.11 453.681 212.597 454.459 212.597C454.773 212.597 455.088 212.663 455.286 212.796V211.521ZM462.842 215.228C462.842 212.978 461.469 211.406 459.466 211.406C457.447 211.406 456.09 212.978 456.09 215.228C456.09 217.479 457.447 219.051 459.466 219.051C461.469 219.051 462.842 217.479 462.842 215.228ZM461.585 215.228C461.585 216.834 460.79 217.959 459.466 217.959C458.142 217.959 457.348 216.834 457.348 215.228C457.348 213.623 458.142 212.498 459.466 212.498C460.79 212.498 461.585 213.623 461.585 215.228ZM469.736 212.58C469.388 211.885 468.676 211.406 467.75 211.406C466.84 211.406 466.128 211.836 465.764 212.415V211.554H464.523V218.902H465.764V213.838C465.996 213.044 466.641 212.531 467.386 212.531C468.329 212.531 468.776 213.209 468.776 214.235V218.902H470.017V213.838C470.249 213.044 470.894 212.531 471.639 212.531C472.582 212.531 473.029 213.209 473.029 214.235V218.902H474.287V214.037C474.287 212.448 473.459 211.406 471.97 211.406C470.944 211.406 470.199 211.919 469.736 212.58ZM484.704 211.554H483.595L482.089 217.165L480.468 211.554H479.226L481.394 218.902H482.602L484.141 213.325L485.664 218.902H486.872L489.04 211.554H487.832L486.21 217.165L484.704 211.554ZM491.686 211.554H490.445V218.902H491.686V211.554ZM491.868 209.337C491.868 208.89 491.504 208.543 491.057 208.543C490.627 208.543 490.263 208.89 490.263 209.337C490.263 209.767 490.627 210.131 491.057 210.131C491.504 210.131 491.868 209.767 491.868 209.337ZM494.251 217.049C494.251 218.406 495.078 219.051 496.27 219.051C496.717 219.051 497.147 218.952 497.428 218.803V217.644C497.18 217.81 496.816 217.942 496.469 217.942C495.84 217.942 495.492 217.628 495.492 216.916V212.614H497.263V211.554H495.492V209.618H494.251V211.554H493.06V212.614H494.251V217.049ZM499.156 218.902H500.397V213.921C500.662 213.127 501.406 212.547 502.267 212.547C503.376 212.547 503.889 213.259 503.889 214.285V218.902H505.147V214.086C505.147 212.481 504.236 211.406 502.565 211.406C501.622 211.406 500.827 211.902 500.397 212.481V208.145H499.156V218.902ZM512.101 218.902H513.359V208.145H512.101V212.415C511.737 211.885 510.943 211.406 510.033 211.406C507.881 211.406 506.723 213.16 506.723 215.228C506.723 217.313 507.881 219.051 510.033 219.051C510.943 219.051 511.737 218.571 512.101 218.042V218.902ZM512.101 216.718C511.721 217.479 510.993 217.926 510.215 217.926C508.808 217.926 507.981 216.784 507.981 215.228C507.981 213.673 508.808 212.531 510.215 212.531C510.993 212.531 511.721 212.978 512.101 213.739V216.718ZM519.332 211.521C519.2 211.455 518.935 211.406 518.621 211.406C517.81 211.406 517.115 211.885 516.8 212.514V211.554H515.559V218.902H516.8V213.971C517.049 213.11 517.727 212.597 518.505 212.597C518.819 212.597 519.134 212.663 519.332 212.796V211.521ZM526.011 218.902V214.004C526.011 212.398 524.969 211.406 523.214 211.406C521.808 211.406 520.715 212.25 520.467 213.491H521.692C521.924 212.812 522.42 212.481 523.198 212.481C524.257 212.481 524.82 213.143 524.82 214.053V214.98C524.505 214.699 523.727 214.384 522.966 214.384C521.394 214.384 520.153 215.311 520.153 216.685C520.153 218.141 521.394 219.035 522.883 219.035C523.76 219.035 524.538 218.654 524.82 218.356V218.902H526.011ZM524.82 217.082C524.604 217.628 523.86 217.992 523.098 217.992C522.205 217.992 521.344 217.578 521.344 216.685C521.344 215.808 522.205 215.41 523.098 215.41C523.86 215.41 524.604 215.774 524.82 216.321V217.082ZM532.799 211.554H531.691L530.185 217.165L528.563 211.554H527.322L529.49 218.902H530.698L532.237 213.325L533.759 218.902H534.967L537.135 211.554H535.927L534.305 217.165L532.799 211.554ZM539.781 211.554H538.54V218.902H539.781V211.554ZM539.964 209.337C539.964 208.89 539.599 208.543 539.153 208.543C538.722 208.543 538.358 208.89 538.358 209.337C538.358 209.767 538.722 210.131 539.153 210.131C539.599 210.131 539.964 209.767 539.964 209.337ZM541.999 218.902H543.24V213.921C543.505 213.127 544.249 212.547 545.11 212.547C546.219 212.547 546.732 213.259 546.732 214.285V218.902H547.989V214.086C547.989 212.481 547.079 211.406 545.408 211.406C544.465 211.406 543.67 211.902 543.24 212.481V211.554H541.999V218.902ZM554.911 218.406C554.911 219.994 554.216 220.822 552.892 220.822C551.883 220.822 551.188 220.375 550.973 219.448H549.748C549.98 220.954 551.105 221.881 552.892 221.881C554.779 221.881 556.169 220.739 556.169 218.323V211.554H554.911V212.382C554.547 211.869 553.769 211.406 552.859 211.406C550.708 211.406 549.566 213.176 549.566 215.129C549.566 217.065 550.708 218.853 552.859 218.853C553.769 218.853 554.547 218.373 554.911 217.86V218.406ZM554.911 216.585C554.531 217.28 553.836 217.727 553.041 217.727C551.651 217.727 550.84 216.635 550.84 215.129C550.84 213.607 551.651 212.514 553.041 212.514C553.836 212.514 554.531 212.961 554.911 213.656V216.585ZM565.712 208.162C565.431 208.046 565.15 207.996 564.753 207.996C563.462 207.996 562.502 208.857 562.502 210.33V211.554H561.261V212.614H562.502V218.902H563.726V212.614H565.381V211.554H563.726V210.429C563.726 209.552 564.206 209.089 564.935 209.089C565.199 209.089 565.481 209.138 565.712 209.287V208.162ZM570.595 211.521C570.463 211.455 570.198 211.406 569.884 211.406C569.073 211.406 568.378 211.885 568.063 212.514V211.554H566.822V218.902H568.063V213.971C568.312 213.11 568.99 212.597 569.768 212.597C570.082 212.597 570.397 212.663 570.595 212.796V211.521ZM578.151 215.228C578.151 212.978 576.778 211.406 574.775 211.406C572.757 211.406 571.399 212.978 571.399 215.228C571.399 217.479 572.757 219.051 574.775 219.051C576.778 219.051 578.151 217.479 578.151 215.228ZM576.894 215.228C576.894 216.834 576.099 217.959 574.775 217.959C573.452 217.959 572.657 216.834 572.657 215.228C572.657 213.623 573.452 212.498 574.775 212.498C576.099 212.498 576.894 213.623 576.894 215.228ZM585.045 212.58C584.697 211.885 583.986 211.406 583.059 211.406C582.149 211.406 581.437 211.836 581.073 212.415V211.554H579.832V218.902H581.073V213.838C581.305 213.044 581.95 212.531 582.695 212.531C583.638 212.531 584.085 213.209 584.085 214.235V218.902H585.326V213.838C585.558 213.044 586.203 212.531 586.948 212.531C587.891 212.531 588.338 213.209 588.338 214.235V218.902H589.596V214.037C589.596 212.448 588.768 211.406 587.279 211.406C586.253 211.406 585.508 211.919 585.045 212.58ZM230.826 237.049C230.826 238.406 231.653 239.051 232.845 239.051C233.292 239.051 233.722 238.952 234.003 238.803V237.644C233.755 237.81 233.391 237.942 233.043 237.942C232.415 237.942 232.067 237.628 232.067 236.916V232.614H233.838V231.554H232.067V229.618H230.826V231.554H229.634V232.614H230.826V237.049ZM235.731 238.902H236.972V233.921C237.237 233.127 237.981 232.547 238.842 232.547C239.951 232.547 240.464 233.259 240.464 234.285V238.902H241.721V234.086C241.721 232.481 240.811 231.406 239.14 231.406C238.197 231.406 237.402 231.902 236.972 232.481V228.145H235.731V238.902ZM245.069 231.554H243.827V238.902H245.069V231.554ZM245.251 229.337C245.251 228.89 244.887 228.543 244.44 228.543C244.009 228.543 243.645 228.89 243.645 229.337C243.645 229.767 244.009 230.131 244.44 230.131C244.887 230.131 245.251 229.767 245.251 229.337ZM246.674 236.883C246.905 238.24 248.08 239.051 249.685 239.051C251.258 239.051 252.416 238.224 252.416 236.834C252.416 235.808 251.804 235.112 250.546 234.781L249.123 234.434C248.428 234.235 248.097 234.004 248.097 233.507C248.097 232.796 248.775 232.448 249.503 232.448C250.397 232.448 250.91 232.829 251.125 233.491H252.366C252.102 232.2 251.142 231.406 249.52 231.406C248.031 231.406 246.889 232.266 246.889 233.573C246.889 234.715 247.617 235.245 248.659 235.51L250.116 235.89C250.877 236.089 251.208 236.403 251.208 236.916C251.208 237.661 250.579 238.009 249.702 238.009C248.841 238.009 248.196 237.644 247.964 236.883H246.674ZM259.032 238.042C259.412 238.571 260.19 239.051 261.1 239.051C263.268 239.051 264.41 237.264 264.41 235.228C264.41 233.193 263.268 231.406 261.1 231.406C260.19 231.406 259.412 231.885 259.032 232.415V231.554H257.791V241.715H259.032V238.042ZM259.032 233.739C259.412 232.978 260.141 232.531 260.918 232.531C262.325 232.531 263.152 233.673 263.152 235.228C263.152 236.784 262.325 237.926 260.918 237.926C260.141 237.926 259.412 237.479 259.032 236.718V233.739ZM272.352 235.228C272.352 232.978 270.979 231.406 268.976 231.406C266.957 231.406 265.6 232.978 265.6 235.228C265.6 237.479 266.957 239.051 268.976 239.051C270.979 239.051 272.352 237.479 272.352 235.228ZM271.094 235.228C271.094 236.834 270.3 237.959 268.976 237.959C267.652 237.959 266.858 236.834 266.858 235.228C266.858 233.623 267.652 232.498 268.976 232.498C270.3 232.498 271.094 233.623 271.094 235.228ZM280.287 235.228C280.287 232.978 278.914 231.406 276.911 231.406C274.892 231.406 273.535 232.978 273.535 235.228C273.535 237.479 274.892 239.051 276.911 239.051C278.914 239.051 280.287 237.479 280.287 235.228ZM279.029 235.228C279.029 236.834 278.235 237.959 276.911 237.959C275.587 237.959 274.793 236.834 274.793 235.228C274.793 233.623 275.587 232.498 276.911 232.498C278.235 232.498 279.029 233.623 279.029 235.228ZM283.209 228.145H281.968V238.902H283.209V228.145ZM290.32 238.042C290.684 238.571 291.478 239.051 292.388 239.051C294.54 239.051 295.698 237.313 295.698 235.228C295.698 233.16 294.54 231.406 292.388 231.406C291.478 231.406 290.684 231.885 290.32 232.415V228.145H289.062V238.902H290.32V238.042ZM290.32 233.739C290.7 232.978 291.428 232.531 292.206 232.531C293.613 232.531 294.44 233.673 294.44 235.228C294.44 236.784 293.613 237.926 292.206 237.926C291.428 237.926 290.7 237.479 290.32 236.718V233.739ZM303.243 231.554H301.986V236.536C301.721 237.33 301.009 237.909 300.149 237.909C299.04 237.909 298.544 237.198 298.544 236.172V231.554H297.286V236.37C297.286 237.975 298.179 239.051 299.851 239.051C300.794 239.051 301.572 238.555 301.986 237.975V238.902H303.243V231.554ZM305.797 237.049C305.797 238.406 306.624 239.051 307.816 239.051C308.263 239.051 308.693 238.952 308.974 238.803V237.644C308.726 237.81 308.362 237.942 308.015 237.942C307.386 237.942 307.038 237.628 307.038 236.916V232.614H308.809V231.554H307.038V229.618H305.797V231.554H304.606V232.614H305.797V237.049ZM315.595 231.554H314.354V238.902H315.595V231.554ZM315.777 229.337C315.777 228.89 315.413 228.543 314.967 228.543C314.536 228.543 314.172 228.89 314.172 229.337C314.172 229.767 314.536 230.131 314.967 230.131C315.413 230.131 315.777 229.767 315.777 229.337ZM318.16 237.049C318.16 238.406 318.988 239.051 320.179 239.051C320.626 239.051 321.056 238.952 321.338 238.803V237.644C321.089 237.81 320.725 237.942 320.378 237.942C319.749 237.942 319.401 237.628 319.401 236.916V232.614H321.172V231.554H319.401V229.618H318.16V231.554H316.969V232.614H318.16V237.049ZM330.391 228.162C330.11 228.046 329.829 227.996 329.431 227.996C328.141 227.996 327.181 228.857 327.181 230.33V231.554H325.94V232.614H327.181V238.902H328.405V232.614H330.06V231.554H328.405V230.429C328.405 229.552 328.885 229.089 329.614 229.089C329.878 229.089 330.16 229.138 330.391 229.287V228.162ZM336.668 238.902V234.004C336.668 232.398 335.626 231.406 333.871 231.406C332.465 231.406 331.373 232.25 331.124 233.491H332.349C332.581 232.812 333.077 232.481 333.855 232.481C334.914 232.481 335.477 233.143 335.477 234.053V234.98C335.162 234.699 334.385 234.384 333.623 234.384C332.051 234.384 330.81 235.311 330.81 236.685C330.81 238.141 332.051 239.035 333.541 239.035C334.418 239.035 335.195 238.654 335.477 238.356V238.902H336.668ZM335.477 237.082C335.262 237.628 334.517 237.992 333.756 237.992C332.862 237.992 332.001 237.578 332.001 236.685C332.001 235.808 332.862 235.41 333.756 235.41C334.517 235.41 335.262 235.774 335.477 236.321V237.082ZM342.563 231.521C342.431 231.455 342.166 231.406 341.851 231.406C341.04 231.406 340.345 231.885 340.031 232.514V231.554H338.79V238.902H340.031V233.971C340.279 233.11 340.958 232.597 341.735 232.597C342.05 232.597 342.364 232.663 342.563 232.796V231.521ZM349.32 232.58C348.972 231.885 348.261 231.406 347.334 231.406C346.424 231.406 345.712 231.836 345.348 232.415V231.554H344.107V238.902H345.348V233.838C345.58 233.044 346.225 232.531 346.97 232.531C347.913 232.531 348.36 233.209 348.36 234.235V238.902H349.601V233.838C349.833 233.044 350.478 232.531 351.223 232.531C352.166 232.531 352.613 233.209 352.613 234.235V238.902H353.871V234.037C353.871 232.448 353.043 231.406 351.554 231.406C350.528 231.406 349.783 231.919 349.32 232.58ZM355.357 236.883C355.588 238.24 356.763 239.051 358.369 239.051C359.941 239.051 361.099 238.224 361.099 236.834C361.099 235.808 360.487 235.112 359.229 234.781L357.806 234.434C357.111 234.235 356.78 234.004 356.78 233.507C356.78 232.796 357.458 232.448 358.187 232.448C359.08 232.448 359.593 232.829 359.808 233.491H361.049C360.785 232.2 359.825 231.406 358.203 231.406C356.714 231.406 355.572 232.266 355.572 233.573C355.572 234.715 356.3 235.245 357.343 235.51L358.799 235.89C359.56 236.089 359.891 236.403 359.891 236.916C359.891 237.661 359.262 238.009 358.385 238.009C357.525 238.009 356.879 237.644 356.647 236.883H355.357ZM365.861 236.883C366.093 238.24 367.268 239.051 368.873 239.051C370.445 239.051 371.604 238.224 371.604 236.834C371.604 235.808 370.991 235.112 369.734 234.781L368.311 234.434C367.616 234.235 367.285 234.004 367.285 233.507C367.285 232.796 367.963 232.448 368.691 232.448C369.585 232.448 370.098 232.829 370.313 233.491H371.554C371.289 232.2 370.33 231.406 368.708 231.406C367.218 231.406 366.076 232.266 366.076 233.573C366.076 234.715 366.805 235.245 367.847 235.51L369.303 235.89C370.065 236.089 370.396 236.403 370.396 236.916C370.396 237.661 369.767 238.009 368.89 238.009C368.029 238.009 367.384 237.644 367.152 236.883H365.861ZM379.548 235.228C379.548 232.978 378.175 231.406 376.172 231.406C374.153 231.406 372.796 232.978 372.796 235.228C372.796 237.479 374.153 239.051 376.172 239.051C378.175 239.051 379.548 237.479 379.548 235.228ZM378.291 235.228C378.291 236.834 377.496 237.959 376.172 237.959C374.848 237.959 374.054 236.834 374.054 235.228C374.054 233.623 374.848 232.498 376.172 232.498C377.496 232.498 378.291 233.623 378.291 235.228ZM386.442 232.58C386.094 231.885 385.382 231.406 384.456 231.406C383.546 231.406 382.834 231.836 382.47 232.415V231.554H381.229V238.902H382.47V233.838C382.702 233.044 383.347 232.531 384.092 232.531C385.035 232.531 385.482 233.209 385.482 234.235V238.902H386.723V233.838C386.955 233.044 387.6 232.531 388.345 232.531C389.288 232.531 389.735 233.209 389.735 234.235V238.902H390.993V234.037C390.993 232.448 390.165 231.406 388.676 231.406C387.65 231.406 386.905 231.919 386.442 232.58ZM397.725 236.701C397.526 237.529 396.847 237.992 395.937 237.992C394.696 237.992 393.819 237.032 393.802 235.46H398.999V235.013C398.999 232.878 397.923 231.406 395.904 231.406C393.902 231.406 392.561 233.044 392.561 235.245C392.561 237.512 393.935 239.051 395.937 239.051C397.592 239.051 398.635 238.091 398.9 236.701H397.725ZM395.921 232.465C397.145 232.465 397.725 233.424 397.741 234.517H393.836C394.018 233.226 394.812 232.465 395.921 232.465ZM401.002 237.049C401.002 238.406 401.829 239.051 403.021 239.051C403.468 239.051 403.898 238.952 404.179 238.803V237.644C403.931 237.81 403.567 237.942 403.219 237.942C402.59 237.942 402.243 237.628 402.243 236.916V232.614H404.014V231.554H402.243V229.618H401.002V231.554H399.81V232.614H401.002V237.049ZM405.907 238.902H407.148V233.921C407.413 233.127 408.157 232.547 409.018 232.547C410.127 232.547 410.64 233.259 410.64 234.285V238.902H411.897V234.086C411.897 232.481 410.987 231.406 409.316 231.406C408.372 231.406 407.578 231.902 407.148 232.481V228.145H405.907V238.902ZM415.244 231.554H414.003V238.902H415.244V231.554ZM415.426 229.337C415.426 228.89 415.062 228.543 414.616 228.543C414.185 228.543 413.821 228.89 413.821 229.337C413.821 229.767 414.185 230.131 414.616 230.131C415.062 230.131 415.426 229.767 415.426 229.337ZM417.462 238.902H418.703V233.921C418.968 233.127 419.712 232.547 420.573 232.547C421.682 232.547 422.195 233.259 422.195 234.285V238.902H423.452V234.086C423.452 232.481 422.542 231.406 420.871 231.406C419.928 231.406 419.133 231.902 418.703 232.481V231.554H417.462V238.902ZM430.374 238.406C430.374 239.994 429.679 240.822 428.355 240.822C427.346 240.822 426.651 240.375 426.436 239.448H425.211C425.443 240.954 426.568 241.881 428.355 241.881C430.242 241.881 431.632 240.739 431.632 238.323V231.554H430.374V232.382C430.01 231.869 429.232 231.406 428.322 231.406C426.171 231.406 425.029 233.176 425.029 235.129C425.029 237.065 426.171 238.853 428.322 238.853C429.232 238.853 430.01 238.373 430.374 237.86V238.406ZM430.374 236.585C429.994 237.28 429.298 237.727 428.504 237.727C427.114 237.727 426.303 236.635 426.303 235.129C426.303 233.607 427.114 232.514 428.504 232.514C429.298 232.514 429.994 232.961 430.374 233.656V236.585ZM433.27 238.091C433.27 238.604 433.667 238.985 434.163 238.985C434.643 238.985 435.041 238.604 435.041 238.091C435.041 237.578 434.643 237.181 434.163 237.181C433.667 237.181 433.27 237.578 433.27 238.091ZM445.642 233.64C446.436 233.391 447.131 232.647 447.131 231.439C447.131 229.684 445.874 228.741 443.772 228.741H440.429V238.902H444.103C446.188 238.902 447.479 237.893 447.479 236.039C447.479 234.897 446.734 233.921 445.642 233.64ZM441.703 233.16V229.883H443.772C445.129 229.883 445.874 230.396 445.874 231.505C445.874 232.614 445.129 233.16 443.772 233.16H441.703ZM441.703 234.252H444.103C445.476 234.252 446.204 234.93 446.204 236.006C446.204 237.065 445.476 237.76 444.103 237.76H441.703V234.252ZM453.917 236.701C453.718 237.529 453.039 237.992 452.129 237.992C450.888 237.992 450.011 237.032 449.994 235.46H455.191V235.013C455.191 232.878 454.115 231.406 452.096 231.406C450.094 231.406 448.753 233.044 448.753 235.245C448.753 237.512 450.127 239.051 452.129 239.051C453.784 239.051 454.827 238.091 455.092 236.701H453.917ZM452.113 232.465C453.337 232.465 453.917 233.424 453.933 234.517H450.028C450.21 233.226 451.004 232.465 452.113 232.465ZM456.846 238.902H458.087V233.921C458.352 233.127 459.097 232.547 459.957 232.547C461.066 232.547 461.579 233.259 461.579 234.285V238.902H462.837V234.086C462.837 232.481 461.927 231.406 460.255 231.406C459.312 231.406 458.518 231.902 458.087 232.481V231.554H456.846V238.902ZM469.577 236.701C469.378 237.529 468.7 237.992 467.789 237.992C466.548 237.992 465.671 237.032 465.655 235.46H470.851V235.013C470.851 232.878 469.775 231.406 467.756 231.406C465.754 231.406 464.413 233.044 464.413 235.245C464.413 237.512 465.787 239.051 467.789 239.051C469.444 239.051 470.487 238.091 470.752 236.701H469.577ZM467.773 232.465C468.997 232.465 469.577 233.424 469.593 234.517H465.688C465.87 233.226 466.664 232.465 467.773 232.465ZM476.18 228.162C475.899 228.046 475.617 227.996 475.22 227.996C473.929 227.996 472.97 228.857 472.97 230.33V231.554H471.728V232.614H472.97V238.902H474.194V232.614H475.849V231.554H474.194V230.429C474.194 229.552 474.674 229.089 475.402 229.089C475.667 229.089 475.948 229.138 476.18 229.287V228.162ZM478.531 231.554H477.29V238.902H478.531V231.554ZM478.713 229.337C478.713 228.89 478.349 228.543 477.902 228.543C477.472 228.543 477.108 228.89 477.108 229.337C477.108 229.767 477.472 230.131 477.902 230.131C478.349 230.131 478.713 229.767 478.713 229.337ZM480.219 235.228C480.219 237.512 481.592 239.051 483.562 239.051C485.217 239.051 486.259 238.091 486.507 236.685H485.233C485.068 237.479 484.439 237.959 483.562 237.959C482.304 237.959 481.477 236.834 481.477 235.228C481.477 233.623 482.304 232.498 483.562 232.498C484.439 232.498 485.068 232.978 485.233 233.772H486.507C486.259 232.365 485.217 231.406 483.562 231.406C481.592 231.406 480.219 232.945 480.219 235.228ZM489.375 231.554H488.134V238.902H489.375V231.554ZM489.557 229.337C489.557 228.89 489.193 228.543 488.746 228.543C488.316 228.543 487.952 228.89 487.952 229.337C487.952 229.767 488.316 230.131 488.746 230.131C489.193 230.131 489.557 229.767 489.557 229.337ZM496.921 238.902V234.004C496.921 232.398 495.879 231.406 494.124 231.406C492.718 231.406 491.626 232.25 491.377 233.491H492.602C492.834 232.812 493.33 232.481 494.108 232.481C495.167 232.481 495.73 233.143 495.73 234.053V234.98C495.415 234.699 494.637 234.384 493.876 234.384C492.304 234.384 491.063 235.311 491.063 236.685C491.063 238.141 492.304 239.035 493.793 239.035C494.671 239.035 495.448 238.654 495.73 238.356V238.902H496.921ZM495.73 237.082C495.515 237.628 494.77 237.992 494.009 237.992C493.115 237.992 492.254 237.578 492.254 236.685C492.254 235.808 493.115 235.41 494.009 235.41C494.77 235.41 495.515 235.774 495.73 236.321V237.082ZM502.816 231.521C502.683 231.455 502.419 231.406 502.104 231.406C501.293 231.406 500.598 231.885 500.284 232.514V231.554H499.043V238.902H500.284V233.971C500.532 233.11 501.211 232.597 501.988 232.597C502.303 232.597 502.617 232.663 502.816 232.796V231.521ZM506.528 241.715L510.483 231.554H509.192L507.057 237.347L504.889 231.554H503.549L506.412 238.952L505.303 241.715H506.528ZM511.312 238.091C511.312 238.604 511.709 238.985 512.205 238.985C512.685 238.985 513.082 238.604 513.082 238.091C513.082 237.578 512.685 237.181 512.205 237.181C511.709 237.181 511.312 237.578 511.312 238.091ZM511.312 232.895C511.312 233.408 511.709 233.789 512.205 233.789C512.685 233.789 513.082 233.408 513.082 232.895C513.082 232.382 512.685 231.985 512.205 231.985C511.709 231.985 511.312 232.382 511.312 232.895ZM519.778 237.727V229.9H521.714C524.014 229.9 525.372 231.439 525.372 233.822C525.372 236.205 524.014 237.727 521.714 237.727H519.778ZM518.471 238.902H521.731C524.71 238.902 526.662 236.916 526.662 233.822C526.662 230.727 524.71 228.741 521.731 228.741H518.471V238.902ZM529.632 231.554H528.391V238.902H529.632V231.554ZM529.814 229.337C529.814 228.89 529.45 228.543 529.003 228.543C528.573 228.543 528.209 228.89 528.209 229.337C528.209 229.767 528.573 230.131 529.003 230.131C529.45 230.131 529.814 229.767 529.814 229.337ZM533.091 228.145H531.85V238.902H533.091V228.145ZM536.549 228.145H535.308V238.902H536.549V228.145ZM544.989 235.228C544.989 232.978 543.615 231.406 541.613 231.406C539.594 231.406 538.237 232.978 538.237 235.228C538.237 237.479 539.594 239.051 541.613 239.051C543.615 239.051 544.989 237.479 544.989 235.228ZM543.731 235.228C543.731 236.834 542.937 237.959 541.613 237.959C540.289 237.959 539.495 236.834 539.495 235.228C539.495 233.623 540.289 232.498 541.613 232.498C542.937 232.498 543.731 233.623 543.731 235.228ZM546.669 238.902H547.91V233.921C548.175 233.127 548.92 232.547 549.781 232.547C550.889 232.547 551.402 233.259 551.402 234.285V238.902H552.66V234.086C552.66 232.481 551.75 231.406 550.078 231.406C549.135 231.406 548.341 231.902 547.91 232.481V231.554H546.669V238.902ZM561.761 239.051C564.028 239.051 565.551 236.916 565.551 233.822C565.551 230.727 564.028 228.592 561.761 228.592C559.494 228.592 557.972 230.727 557.972 233.822C557.972 236.916 559.494 239.051 561.761 239.051ZM561.761 229.767C563.4 229.767 564.277 231.455 564.277 233.822C564.277 236.188 563.4 237.876 561.761 237.876C560.106 237.876 559.246 236.188 559.246 233.822C559.246 231.455 560.106 229.767 561.761 229.767ZM573.198 231.554H571.841L569.938 234.186L568.084 231.554H566.661L569.226 235.146L566.512 238.902H567.853L569.905 236.039L571.94 238.902H573.347L570.616 235.096L573.198 231.554ZM579.242 228.741H577.918L574.013 235.675V236.602H578.696V238.902H579.904V236.602H581.691V235.51H579.904V233.06H578.696V235.51H575.452L579.242 228.741ZM586.104 233.441C587.345 233.441 588.189 234.417 588.189 235.692C588.189 236.966 587.345 237.926 586.12 237.926C584.846 237.926 584.118 237.198 583.903 236.006H582.628C582.86 237.893 584.184 239.051 586.12 239.051C588.04 239.051 589.413 237.611 589.413 235.692C589.413 233.739 588.089 232.316 586.219 232.316C585.392 232.316 584.713 232.647 584.366 232.961V229.9H588.834V228.741H583.274V234.318H584.3C584.68 233.855 585.293 233.441 586.104 233.441Z" fill="#111111"/>
<path d="M517.263 240.061H589.943V240.557H517.263V240.061Z" fill="#111111"/>
</g>
<rect x="84" y="195" width="57" height="28" rx="14" fill="#4C4B51"/>
<path d="M104.88 210.336C106.912 210.336 108.24 209.264 108.24 207.264C108.24 205.232 106.912 204.176 104.88 204.176H101.088V214H102.752V210.336H104.88ZM106.592 207.264C106.592 208.208 106 208.896 104.848 208.896H102.752V205.616H104.848C106 205.616 106.592 206.288 106.592 207.264ZM115.654 210.448C115.654 208.272 114.278 206.736 112.278 206.736C110.278 206.736 108.902 208.272 108.902 210.448C108.902 212.624 110.278 214.16 112.278 214.16C114.278 214.16 115.654 212.624 115.654 210.448ZM114.054 210.448C114.054 211.792 113.43 212.784 112.278 212.784C111.126 212.784 110.502 211.792 110.502 210.448C110.502 209.104 111.126 208.112 112.278 208.112C113.43 208.112 114.054 209.104 114.054 210.448ZM118.748 203.6H117.148V214H118.748V203.6ZM122.326 203.6H120.726V214H122.326V203.6Z" fill="white"/>
<defs>
<filter id="filter0_d" x="0" y="0" width="729" height="554" filterUnits="userSpaceOnUse" color-interpolation-filters="sRGB">
<feFlood flood-opacity="0" result="BackgroundImageFix"/>
<feColorMatrix in="SourceAlpha" type="matrix" values="0 0 0 0 0 0 0 0 0 0 0 0 0 0 0 0 0 0 127 0"/>
<feOffset dy="12"/>
<feGaussianBlur stdDeviation="25"/>
<feColorMatrix type="matrix" values="0 0 0 0 0.0352941 0 0 0 0 0.0509804 0 0 0 0 0.0705882 0 0 0 0.2 0"/>
<feBlend mode="normal" in2="BackgroundImageFix" result="effect1_dropShadow"/>
<feBlend mode="normal" in="SourceGraphic" in2="effect1_dropShadow" result="shape"/>
</filter>
<filter id="filter1_f" x="172" y="132" width="494" height="332" filterUnits="userSpaceOnUse" color-interpolation-filters="sRGB">
<feFlood flood-opacity="0" result="BackgroundImageFix"/>
<feBlend mode="normal" in="SourceGraphic" in2="BackgroundImageFix" result="shape"/>
<feGaussianBlur stdDeviation="15" result="effect1_foregroundBlur"/>
</filter>
<linearGradient id="paint0_linear" x1="636" y1="181.125" x2="419.301" y2="538.914" gradientUnits="userSpaceOnUse">
<stop stop-color="#79E0E8"/>
<stop offset="0.2451" stop-color="#BF8E60"/>
<stop offset="0.5155" stop-color="#D69FCC"/>
<stop offset="0.7896" stop-color="#6086D1"/>
<stop offset="1" stop-color="#B37DBA"/>
</linearGradient>
</defs>
</svg>
