<svg width="41" height="35" viewBox="0 0 41 35" fill="none" xmlns="http://www.w3.org/2000/svg">
<path fillRule="evenodd" clipRule="evenodd" d="M33.4786 34.1306L40.3009 1.31564C40.4764 0.469428 39.645 -0.236561 38.8392 0.0750951L0.824334 14.7403C-0.113895 15.1016 -0.105855 16.43 0.835054 16.7824L10.0979 20.2395L13.6831 31.7698C13.9126 32.5077 14.8156 32.7808 15.4148 32.2908L20.5782 28.082C21.1193 27.6407 21.8903 27.6188 22.4557 28.0292L31.7686 34.7905C32.4095 35.2564 33.318 34.9053 33.4786 34.1306ZM13.1055 18.3993L31.2085 7.24971C31.5336 7.04998 31.8686 7.48987 31.5888 7.74894L16.649 21.6364C16.1237 22.1251 15.7851 22.7797 15.6889 23.4896L15.1802 27.2612C15.1125 27.7646 14.4055 27.8144 14.2662 27.3271L12.309 20.4497C12.0851 19.6653 12.4117 18.8274 13.1055 18.3993Z" fill="url(#paint0_linear)"/>
<defs>
<linearGradient id="paint0_linear" x1="0.125" y1="0" x2="42.1229" y2="2.31044" gradientUnits="userSpaceOnUse">
<stop stop-color="#8C8C8C"/>
<stop offset="1" stop-color="#B0B0B0"/>
</linearGradient>
</defs>
</svg>
