<svg width="240" height="169" viewBox="0 0 240 169" fill="none" xmlns="http://www.w3.org/2000/svg">
<g id="Group 316121447">
<g id="Group 316121444">
<path id="Union" fill-rule="evenodd" clip-rule="evenodd" d="M148.162 43.7277L124.334 11.2866L86.1179 23.9232L86.3171 62.3738C80.24 50.0293 66.6795 42.4743 52.3529 44.6528C34.6512 47.3444 22.4831 63.8765 25.1748 81.5782C27.8664 99.2799 44.3985 111.448 62.1002 108.756C64.5893 108.378 66.969 107.726 69.2133 106.835L8.61472 141.175C3.85698 143.871 2.18571 149.914 4.88183 154.672C7.57795 159.429 13.6205 161.101 18.3782 158.404L71.7567 128.156V159.95H140.055V157.881C145.421 159.207 151.431 159.95 157.778 159.95C177.078 159.95 193.269 153.083 197.666 143.827L216.95 154.831L216.715 108.397L196.487 120.212C198.013 117.905 198.844 115.421 198.844 112.833C198.844 107.87 195.789 103.29 190.634 99.6051C195.789 96.0651 198.844 91.6647 198.844 86.8964C198.844 75.1984 180.458 65.7152 157.778 65.7152C145.723 65.7152 134.881 68.3945 127.368 72.6617L148.162 43.7277ZM122.78 75.8101L87.2583 64.4716C88.1996 66.7878 88.886 69.2506 89.2783 71.8309C90.352 78.8919 89.0613 85.7668 85.9982 91.6514H117.751C117.072 90.1229 116.713 88.5313 116.713 86.8964C116.713 82.832 118.932 79.0349 122.78 75.8101Z" fill="white"/>
<g id="Group 2608803">
<g id="Ellipse 192" style="mix-blend-mode:multiply">
<circle cx="57.2265" cy="76.7418" r="32.4202" transform="rotate(-8.64595 57.2265 76.7418)" fill="#FF80D7"/>
</g>
<g id="Rectangle 34129" style="mix-blend-mode:multiply">
<rect x="71.7567" y="91.6885" width="68.2985" height="68.2985" fill="#0079CC"/>
</g>
<g id="Rectangle 34130" style="mix-blend-mode:multiply">
<rect y="146.094" width="94.1958" height="19.8034" rx="9.9017" transform="rotate(-29.5394 0 146.094)" fill="#FF1F00"/>
</g>
<g id="Union_2" style="mix-blend-mode:multiply">
<path fill-rule="evenodd" clip-rule="evenodd" d="M116.713 86.9336C116.713 91.702 119.768 96.1024 124.923 99.6424C119.768 103.327 116.713 107.907 116.713 112.87C116.713 117.833 119.767 122.413 124.923 126.097C119.768 129.637 116.713 134.038 116.713 138.806C116.713 150.504 135.098 159.987 157.778 159.987C180.458 159.987 198.844 150.504 198.844 138.806C198.844 134.038 195.789 129.637 190.634 126.097C195.789 122.413 198.844 117.833 198.844 112.87C198.844 107.907 195.789 103.327 190.634 99.6424C195.789 96.1024 198.844 91.702 198.844 86.9336C198.844 75.2356 180.458 65.7524 157.778 65.7524C135.098 65.7524 116.713 75.2356 116.713 86.9336Z" fill="#F1CB00"/>
</g>
<g id="Polygon 21" style="mix-blend-mode:multiply">
<path d="M216.715 108.434L216.95 154.868L176.619 131.854L216.715 108.434Z" fill="#FF80D7"/>
</g>
<path id="Polygon 22" d="M124.334 11.3239L148.162 43.7649L124.672 76.4512L86.3265 64.2114L86.1179 23.9605L124.334 11.3239Z" fill="#FF1F00"/>
</g>
</g>
<g id="Group 316121445">
<path id="Vector 1" d="M52.4125 147.869L56.5793 164.973" stroke="white" stroke-width="0.677091"/>
<path id="Vector 2" d="M47.4164 149.173L60.694 160.051" stroke="white" stroke-width="0.677091"/>
<path id="Vector 3" d="M59.4287 151.996L50.3222 157.525" stroke="white" stroke-width="0.677091"/>
</g>
<g id="Group 316121443">
<path id="Vector 1_2" d="M226.092 79.6252L214.813 93.1418" stroke="white" stroke-width="0.677091"/>
<path id="Vector 2_2" d="M222.073 76.3826L221.217 93.5255" stroke="white" stroke-width="0.677091"/>
<path id="Vector 3_2" d="M226.942 87.7209L217.084 83.6832" stroke="white" stroke-width="0.677091"/>
</g>
<path id="Vector" d="M57.5528 46.6157C48.4101 47.637 47.6531 48.465 46.7193 58.4648C45.7855 48.465 45.0285 47.637 35.8858 46.6157C45.0285 45.5944 45.7855 44.7664 46.7193 34.7666C47.6531 44.7664 48.4101 45.5944 57.5528 46.6157Z" fill="white"/>
</g>
</svg>
