<svg width="228" height="41" viewBox="0 0 228 41" fill="none" xmlns="http://www.w3.org/2000/svg">
<g style="mix-blend-mode:multiply">
<g style="mix-blend-mode:multiply">
<path d="M167.151 6.20261L167.151 35.122C167.151 38.479 164.965 40.8266 162.018 40.8266C159.071 40.8266 156.864 38.3438 156.864 35.122L156.864 22.0276L154.71 27.5655C152.934 32.121 152.006 33.0493 149.879 33.0493C147.752 33.0493 146.689 31.738 145.049 27.5655L142.895 22.0276L142.895 35.122C142.895 38.3168 140.822 40.8266 137.767 40.8266C134.712 40.8266 132.608 38.479 132.608 35.122L132.608 22.0276L130.454 27.5655C128.683 32.121 127.755 33.0493 125.628 33.0493C123.501 33.0493 122.433 31.738 120.798 27.5655L118.644 22.0276L118.644 35.122C118.644 38.3168 116.567 40.8266 113.511 40.8266C110.456 40.8266 108.357 38.479 108.357 35.122L108.357 6.2026C108.357 2.5212 110.51 0.173584 113.624 0.173585C116.738 0.173585 118.094 2.05709 119.432 5.16622L125.628 19.5448L131.819 5.16622C133.365 1.54791 134.766 0.119517 137.754 0.178095C141.021 0.101494 142.345 2.02105 143.688 5.16622L149.879 19.5448L156.071 5.16623C157.598 1.59298 158.963 0.173593 161.883 0.173593C164.992 0.173594 167.151 2.52121 167.151 6.20261Z" fill="#000F00"/>
</g>
<path d="M76.5802 20.5C76.5802 8.49607 83.8078 0.0383313 94.451 0.0383332C105.094 0.0383351 112.268 8.49608 112.268 20.5C112.268 32.504 105.04 40.9617 94.451 40.9617C83.8619 40.9617 76.5802 32.4769 76.5802 20.5ZM94.451 30.1023C98.4883 30.1023 101.408 26.0649 101.408 20.5C101.408 14.9351 98.4883 10.8978 94.451 10.8978C90.4136 10.8978 87.4667 14.9351 87.4667 20.5C87.4667 26.0649 90.3866 30.1023 94.451 30.1023Z" fill="#000F00"/>
<path d="M163.244 20.4998C163.244 8.49582 170.472 0.0380872 181.115 0.0380891C191.758 0.0380909 198.932 8.49583 198.932 20.4998C198.932 32.5037 191.704 40.9615 181.115 40.9615C170.526 40.9615 163.244 32.4767 163.244 20.4998ZM181.115 30.102C185.152 30.102 188.072 26.0647 188.072 20.4998C188.072 14.9349 185.152 10.8975 181.115 10.8975C177.078 10.8975 174.131 14.9349 174.131 20.4998C174.131 26.0647 177.051 30.102 181.115 30.102Z" fill="#000F00"/>
<path d="M48.0168 20.5541C48.0168 8.41496 55.5192 0.0383314 66.2976 0.0383333C72.6555 0.0383344 77.4003 1.92184 81.0592 6.53146C82.1226 7.86974 82.5056 9.39727 82.5056 10.8167C82.5056 13.6554 80.212 16.0526 77.4048 16.0526C75.8773 16.0526 74.156 15.3452 72.9033 14.1421C70.6954 12.0423 69.0011 10.8933 66.4643 10.8933C62.0709 10.8933 58.9888 14.9036 58.9888 20.5496C58.9888 26.1956 62.0709 30.0978 66.4643 30.0978C68.866 30.0978 70.7224 28.9262 72.9304 26.849C74.4579 25.4296 76.1792 24.9114 77.513 24.9114C80.3247 24.9114 82.5597 27.3131 82.5597 30.1473C82.5597 31.4586 82.2307 32.9591 81.0592 34.4325C77.4589 38.9611 72.6285 40.9527 66.2975 40.9527C55.5192 40.9617 48.0167 32.6391 48.0168 20.5541Z" fill="#000F00"/>
<path d="M196.12 35.4236L196.12 6.342C196.12 2.63357 198.085 0.312989 201.442 0.312989C203.708 0.31299 205.177 1.13308 207.227 4.62522L216.911 21.1036L216.911 5.85085C216.911 2.54796 219.011 0.312992 222.205 0.312993C225.4 0.312993 227.5 2.54796 227.5 5.85085L227.5 34.9055C227.5 38.6139 225.508 40.9615 222.372 40.9615C219.916 40.9615 218.497 39.6773 216.861 37.0593L206.714 20.7161L206.714 35.4191C206.714 38.722 204.614 40.957 201.419 40.957C198.224 40.957 196.125 38.722 196.125 35.4191L196.12 35.4236Z" fill="#000F00"/>
<g style="mix-blend-mode:multiply">
<circle cx="18.9657" cy="14.1387" r="11.1025" fill="#0079CC"/>
</g>
<g style="mix-blend-mode:multiply">
<circle cx="26.3285" cy="27.0066" r="11.1025" fill="#FF80D7"/>
</g>
<g style="mix-blend-mode:multiply">
<circle cx="11.6027" cy="27.0066" r="11.1025" fill="#FF1F00"/>
</g>
</g>
</svg>
