<svg width="512" height="512" viewBox="0 0 512 512" fill="none" xmlns="http://www.w3.org/2000/svg">
<path d="M167.987 258.163C168.112 233.717 173.682 209.608 184.288 187.597C194.894 165.586 210.269 146.228 229.289 130.937L191.685 93.2285C186.264 87.7953 178.914 84.7432 171.25 84.7432C163.586 84.7432 156.236 87.7953 150.816 93.2285L9.01917 235.414C3.60085 240.848 0.557129 248.219 0.557129 255.903C0.557129 263.588 3.60085 270.959 9.01917 276.393L150.816 418.578C156.236 424.012 163.586 427.063 171.25 427.063C178.914 427.063 186.264 424.012 191.685 418.578L226.415 383.675C208.134 368.295 193.431 349.09 183.338 327.408C173.244 305.725 168.004 282.091 167.987 258.163Z" fill="#342E37"/>
<path d="M339.457 91.4328C299.102 91.3698 259.97 105.353 228.706 131.007L332.342 235.268C335.021 237.948 337.148 241.135 338.6 244.644C340.05 248.153 340.797 251.915 340.797 255.715C340.797 259.516 340.05 263.278 338.6 266.787C337.148 270.296 335.021 273.483 332.342 276.163L225.846 383.223C257.58 410.256 297.862 425.031 339.457 424.896C434.275 424.896 511.228 350.336 511.228 258.281C511.228 166.227 434.121 91.4328 339.457 91.4328Z" fill="#342E37"/>
</svg>
