<svg width="48" height="48" viewBox="0 0 48 48" fill="none" xmlns="http://www.w3.org/2000/svg">
    <rect width="48" height="48" rx="24" fill="#141315"/>
    <g clip-path="url(#clip0_862_2417)">
        <path fill-rule="evenodd" clip-rule="evenodd" d="M24.2508 10.7621C24.124 10.6454 24.0585 10.6432 24.0475 10.6432C24.0365 10.6432 23.971 10.6454 23.8442 10.7621C23.714 10.882 23.5583 11.0887 23.3906 11.4078C23.0558 12.0446 22.7354 13.0071 22.4593 14.249C22.1487 15.6456 21.9033 17.3527 21.7485 19.2636C22.4963 19.6254 23.2652 20.0187 24.0473 20.4411C24.8296 20.0187 25.5986 19.6253 26.3465 19.2634C26.1917 17.3526 25.9463 15.6456 25.6358 14.249C25.3596 13.0071 25.0392 12.0446 24.7044 11.4078C24.5367 11.0887 24.3811 10.882 24.2508 10.7621ZM23.3929 20.7995C22.8185 20.4943 22.2526 20.2056 21.6985 19.9343C21.6565 20.5495 21.6238 21.1837 21.6011 21.8334C21.8941 21.6579 22.1915 21.4831 22.4928 21.3092C22.7942 21.1353 23.0943 20.9654 23.3929 20.7995ZM21.1453 18.9764C21.594 13.7363 22.7242 10.0182 24.0475 10.0182C25.3708 10.0182 26.501 13.7363 26.9497 18.9762C31.7148 16.7447 35.5018 15.8639 36.1634 17.0092C36.825 18.1544 34.1682 20.9916 29.8518 24C34.1682 27.0083 36.825 29.8455 36.1634 30.9908C35.5018 32.1361 31.7148 31.2553 26.9497 29.0237C26.501 34.2637 25.3708 37.9818 24.0475 37.9818C22.7242 37.9818 21.594 34.2636 21.1453 29.0236C16.3801 31.2552 12.5929 32.1361 11.9312 30.9908C11.2696 29.8455 13.9264 27.0083 18.2428 24C13.9264 20.9916 11.2696 18.1545 11.9312 17.0092C12.5929 15.8638 16.3801 16.7448 21.1453 18.9764ZM18.7935 23.6213C17.2149 22.5318 15.8582 21.4658 14.8031 20.4987C13.8649 19.6387 13.191 18.8801 12.8066 18.2719C12.614 17.9673 12.5127 17.7292 12.4739 17.5566C12.4362 17.3886 12.467 17.3311 12.4724 17.3218C12.4778 17.3125 12.5124 17.2569 12.677 17.2055C12.8461 17.1527 13.1032 17.1213 13.4636 17.1357C14.1829 17.1643 15.1772 17.3683 16.3916 17.7503C17.7572 18.1798 19.3592 18.821 21.0925 19.6424C21.0322 20.4703 20.9886 21.3324 20.9635 22.2203C20.2063 22.6862 19.481 23.155 18.7935 23.6213ZM18.7935 24.3786C17.2149 25.4681 15.8582 26.5341 14.8031 27.5013C13.8649 28.3613 13.191 29.1199 12.8066 29.728C12.614 30.0327 12.5127 30.2708 12.4739 30.4433C12.4362 30.6113 12.467 30.6689 12.4724 30.6781C12.4777 30.6874 12.5123 30.743 12.677 30.7945C12.8461 30.8473 13.1032 30.8786 13.4636 30.8643C14.1829 30.8356 15.1772 30.6317 16.3916 30.2497C17.7572 29.8201 19.3592 29.179 21.0925 28.3575C21.0322 27.5296 20.9886 26.6676 20.9635 25.7796C20.2063 25.3138 19.481 24.8449 18.7935 24.3786ZM20.947 25.034C20.3952 24.6894 19.8619 24.344 19.3497 24C19.8619 23.656 20.3952 23.3105 20.947 22.9659C20.9414 23.3074 20.9386 23.6522 20.9386 24C20.9386 24.3478 20.9414 24.6926 20.947 25.034ZM21.5797 25.4237C21.569 24.9559 21.5636 24.481 21.5636 24C21.5636 23.519 21.569 23.044 21.5797 22.5762C21.9797 22.3332 22.3884 22.091 22.8052 21.8506C23.2221 21.61 23.6365 21.3772 24.0473 21.1524C24.4581 21.3772 24.8725 21.61 25.2894 21.8506C25.7063 22.0911 26.1153 22.3333 26.5153 22.5765C26.526 23.0442 26.5314 23.5191 26.5314 24C26.5314 24.4809 26.526 24.9558 26.5153 25.4235C26.1153 25.6666 25.7063 25.9088 25.2894 26.1494C24.8725 26.3899 24.4581 26.6227 24.0473 26.8475C23.6365 26.6227 23.2221 26.3899 22.8052 26.1494C22.3884 25.9089 21.9797 25.6668 21.5797 25.4237ZM21.6011 26.1665C21.6238 26.8163 21.6565 27.4504 21.6985 28.0656C22.2526 27.7943 22.8185 27.5056 23.3929 27.2004C23.0943 27.0345 22.7942 26.8646 22.4928 26.6907C22.1915 26.5168 21.8941 26.342 21.6011 26.1665ZM24.0473 27.5589C23.2652 27.9812 22.4963 28.3745 21.7485 28.7363C21.9033 30.6473 22.1487 32.3543 22.4593 33.7509C22.7354 34.9929 23.0558 35.9554 23.3906 36.5922C23.5583 36.9112 23.714 37.118 23.8442 37.2378C23.971 37.3545 24.0365 37.3568 24.0475 37.3568C24.0585 37.3568 24.124 37.3545 24.2508 37.2378C24.3811 37.118 24.5367 36.9112 24.7044 36.5922C25.0392 35.9554 25.3596 34.9929 25.6358 33.7509C25.9463 32.3543 26.1917 30.6473 26.3465 28.7365C25.5986 28.3747 24.8296 27.9813 24.0473 27.5589ZM27.0025 28.3577C28.7357 29.1791 30.3375 29.8202 31.703 30.2497C32.9174 30.6317 33.9117 30.8356 34.6311 30.8643C34.9914 30.8786 35.2485 30.8473 35.4176 30.7945C35.5823 30.743 35.6168 30.6874 35.6222 30.6781C35.6276 30.6689 35.6584 30.6114 35.6207 30.4433C35.582 30.2708 35.4807 30.0327 35.288 29.728C34.9036 29.1199 34.2297 28.3613 33.2915 27.5013C32.2365 26.5341 30.8798 25.4681 29.3011 24.3786C28.6138 24.8448 27.8885 25.3136 27.1315 25.7793C27.1064 26.6675 27.0628 27.5296 27.0025 28.3577ZM29.3011 23.6213C30.8798 22.5318 32.2365 21.4658 33.2915 20.4987C34.2297 19.6387 34.9036 18.8801 35.288 18.2719C35.4807 17.9673 35.582 17.7292 35.6207 17.5566C35.6584 17.3885 35.6276 17.331 35.6222 17.3218C35.6168 17.3125 35.5823 17.2569 35.4176 17.2055C35.2485 17.1527 34.9914 17.1213 34.6311 17.1357C33.9117 17.1643 32.9174 17.3683 31.703 17.7503C30.3375 18.1798 28.7357 18.8209 27.0025 19.6423C27.0628 20.4703 27.1064 21.3325 27.1315 22.2206C27.8885 22.6863 28.6138 23.1551 29.3011 23.6213ZM27.1481 22.9662C27.6997 23.3107 28.2328 23.6561 28.7449 24C28.2328 24.3439 27.6997 24.6893 27.1481 25.0338C27.1536 24.6924 27.1564 24.3477 27.1564 24C27.1564 23.6523 27.1536 23.3075 27.1481 22.9662ZM26.494 21.8337C26.4713 21.1838 26.4385 20.5495 26.3965 19.9342C25.8423 20.2055 25.2763 20.4943 24.7017 20.7995C25.0003 20.9654 25.3005 21.1353 25.6018 21.3092C25.9033 21.4832 26.2008 21.6581 26.494 21.8337ZM26.3965 28.0658C25.8423 27.7945 25.2763 27.5057 24.7017 27.2004C25.0003 27.0345 25.3005 26.8646 25.6018 26.6907C25.9033 26.5168 26.2008 26.3419 26.494 26.1663C26.4713 26.8162 26.4385 27.4504 26.3965 28.0658Z" fill="white"/>
        <path fill-rule="evenodd" clip-rule="evenodd" d="M15.1109 20.0845C15.6539 20.0845 16.0941 20.5249 16.0941 21.0681C16.0941 21.6114 15.6539 22.0518 15.1109 22.0518C14.5679 22.0518 14.1277 21.6114 14.1277 21.0681C14.1277 20.5249 14.5679 20.0845 15.1109 20.0845Z" fill="white"/>
        <path fill-rule="evenodd" clip-rule="evenodd" d="M30.7371 16.7159C31.2804 16.7159 31.7208 17.1563 31.7208 17.6996C31.7208 18.2429 31.2804 18.6833 30.7371 18.6833C30.1938 18.6833 29.7534 18.2429 29.7534 17.6996C29.7534 17.1563 30.1938 16.7159 30.7371 16.7159Z" fill="white"/>
        <path fill-rule="evenodd" clip-rule="evenodd" d="M22.0662 32.1555C22.6095 32.1555 23.0499 32.5956 23.0499 33.1387C23.0499 33.6817 22.6095 34.1219 22.0662 34.1219C21.5229 34.1219 21.0825 33.6817 21.0825 33.1387C21.0825 32.5956 21.5229 32.1555 22.0662 32.1555Z" fill="white"/>
        <path fill-rule="evenodd" clip-rule="evenodd" d="M23.9928 22.3273C24.9126 22.3273 25.6582 23.0729 25.6582 23.9927C25.6582 24.9125 24.9126 25.6581 23.9928 25.6581C23.073 25.6581 22.3274 24.9125 22.3274 23.9927C22.3274 23.0729 23.073 22.3273 23.9928 22.3273Z" fill="white"/>
    </g>
    <defs>
        <clipPath id="clip0_862_2417">
            <rect width="32" height="32" fill="white" transform="translate(8 8)"/>
        </clipPath>
    </defs>
</svg>
