<svg width="48" height="48" viewBox="0 0 48 48" fill="none" xmlns="http://www.w3.org/2000/svg">
    <rect width="48" height="48" rx="24" fill="url(#paint0_linear_862_2842)"/>
    <path d="M31.1292 19.3257C30.6125 19.0208 29.941 19.0208 29.3727 19.3257L25.3432 21.6629L22.6052 23.1871L18.5756 25.5243C18.059 25.8291 17.3875 25.8291 16.8192 25.5243L13.6162 23.6952C13.0996 23.3903 12.738 22.8314 12.738 22.2218V18.6144C12.738 18.0047 13.048 17.4458 13.6162 17.1409L16.7675 15.3626C17.2841 15.0578 17.9557 15.0578 18.524 15.3626L21.6753 17.1409C22.1918 17.4458 22.5535 18.0047 22.5535 18.6144V20.9515L25.2915 19.3765V17.0393C25.2915 16.4296 24.9816 15.8707 24.4133 15.5659L18.5756 12.2125C18.059 11.9077 17.3875 11.9077 16.8192 12.2125L10.8782 15.5659C10.31 15.8707 10 16.4296 10 17.0393V23.7968C10 24.4065 10.31 24.9654 10.8782 25.2702L16.8192 28.6236C17.3358 28.9285 18.0074 28.9285 18.5756 28.6236L22.6052 26.3372L25.3432 24.7622L29.3727 22.4758C29.8893 22.1709 30.5609 22.1709 31.1292 22.4758L34.2804 24.2541C34.797 24.5589 35.1586 25.1178 35.1586 25.7275V29.3349C35.1586 29.9446 34.8487 30.5035 34.2804 30.8084L31.1292 32.6374C30.6125 32.9423 29.941 32.9423 29.3727 32.6374L26.2214 30.8591C25.7048 30.5543 25.3432 29.9954 25.3432 29.3857V27.0485L22.6052 28.6236V30.9608C22.6052 31.5705 22.9151 32.1294 23.4834 32.4342L29.4244 35.7875C29.941 36.0924 30.6125 36.0924 31.1808 35.7875L37.1218 32.4342C37.6384 32.1294 38 31.5705 38 30.9608V24.2033C38 23.5936 37.69 23.0347 37.1218 22.7298L31.1292 19.3257Z" fill="white"/>
    <defs>
        <linearGradient id="paint0_linear_862_2842" x1="8.14286" y1="9.42857" x2="39.8571" y2="40.2857" gradientUnits="userSpaceOnUse">
            <stop stop-color="#972FCE"/>
            <stop offset="0.619792" stop-color="#7C3FE4"/>
        </linearGradient>
    </defs>
</svg>
