<?xml version="1.0" encoding="UTF-8"?>
<svg width="64" height="64" viewBox="0 0 64 64" fill="none" xmlns="http://www.w3.org/2000/svg">
  <circle cx="32" cy="32" r="32" fill="#6FBCF0" opacity="0.1"/>
  <path d="M25.5,20.6c5-3.3,10.4-3.3,15.4,0c5,3.3,7.5,8.1,7.5,14.3s-2.5,10.9-7.5,14.2c-5,3.3-10.4,3.3-15.4,0
    c-5-3.3-7.5-8-7.5-14.2S20.5,23.9,25.5,20.6z" fill="#6FBCF0"/>
  <path d="M33,27.7l-4.4,2.5c-0.4,0.2-0.4,0.8,0,1.1l4.4,2.5c0.3,0.2,0.7,0.2,1,0l4.4-2.5c0.4-0.2,0.4-0.8,0-1.1l-4.4-2.5
    C33.7,27.5,33.3,27.5,33,27.7z" fill="white"/>
  <path d="M33,37.7l-4.4,2.5c-0.4,0.2-0.4,0.8,0,1.1l4.4,2.5c0.3,0.2,0.7,0.2,1,0l4.4-2.5c0.4-0.2,0.4-0.8,0-1.1l-4.4-2.5
    C33.7,37.5,33.3,37.5,33,37.7z" fill="white"/>
  <path d="M23,32.7l-4.4,2.5c-0.4,0.2-0.4,0.8,0,1.1l4.4,2.5c0.3,0.2,0.7,0.2,1,0l4.4-2.5c0.4-0.2,0.4-0.8,0-1.1l-4.4-2.5
    C23.7,32.5,23.3,32.5,23,32.7z" fill="white"/>
  <path d="M43,32.7l-4.4,2.5c-0.4,0.2-0.4,0.8,0,1.1l4.4,2.5c0.3,0.2,0.7,0.2,1,0l4.4-2.5c0.4-0.2,0.4-0.8,0-1.1l-4.4-2.5
    C43.7,32.5,43.3,32.5,43,32.7z" fill="white"/>
</svg>