<svg width="32" height="32" viewBox="0 0 32 32" fill="none" xmlns="http://www.w3.org/2000/svg">
<path d="M4.672 9.34401C7.25228 9.34401 9.34401 7.25228 9.34401 4.672C9.34401 2.09173 7.25228 0 4.672 0C2.09173 0 0 2.09173 0 4.672C0 7.25228 2.09173 9.34401 4.672 9.34401Z" fill="url(#paint0_linear)"/>
<path d="M15.8846 9.34401C18.4649 9.34401 20.5566 7.25228 20.5566 4.672C20.5566 2.09173 18.4649 0 15.8846 0C13.3044 0 11.2126 2.09173 11.2126 4.672C11.2126 7.25228 13.3044 9.34401 15.8846 9.34401Z" fill="url(#paint1_linear)"/>
<path d="M27.0975 9.34401C29.6778 9.34401 31.7695 7.25228 31.7695 4.672C31.7695 2.09173 29.6778 0 27.0975 0C24.5172 0 22.4255 2.09173 22.4255 4.672C22.4255 7.25228 24.5172 9.34401 27.0975 9.34401Z" fill="url(#paint2_linear)"/>
<path d="M4.672 20.557C7.25228 20.557 9.34401 18.4652 9.34401 15.8849C9.34401 13.3047 7.25228 11.2129 4.672 11.2129C2.09173 11.2129 0 13.3047 0 15.8849C0 18.4652 2.09173 20.557 4.672 20.557Z" fill="url(#paint3_linear)"/>
<path d="M27.0976 20.557C29.6778 20.557 31.7696 18.4652 31.7696 15.8849C31.7696 13.3047 29.6778 11.2129 27.0976 11.2129C24.5173 11.2129 22.4256 13.3047 22.4256 15.8849C22.4256 18.4652 24.5173 20.557 27.0976 20.557Z" fill="url(#paint4_linear)"/>
<path d="M4.672 31.7699C7.25228 31.7699 9.34401 29.6782 9.34401 27.0979C9.34401 24.5176 7.25228 22.4259 4.672 22.4259C2.09173 22.4259 0 24.5176 0 27.0979C0 29.6782 2.09173 31.7699 4.672 31.7699Z" fill="url(#paint5_linear)"/>
<path d="M15.8846 31.7699C18.4649 31.7699 20.5566 29.6782 20.5566 27.0979C20.5566 24.5176 18.4649 22.4259 15.8846 22.4259C13.3044 22.4259 11.2126 24.5176 11.2126 27.0979C11.2126 29.6782 13.3044 31.7699 15.8846 31.7699Z" fill="url(#paint6_linear)"/>
<path d="M15.8847 10.9823L10.9822 15.8848L15.8847 20.7873L20.7872 15.8848L15.8847 10.9823Z" fill="black"/>
<path d="M27.0973 22.1952L22.1948 27.0977L27.0973 32.0002L31.9998 27.0977L27.0973 22.1952Z" fill="black"/>
<defs>
<linearGradient id="paint0_linear" x1="34.2172" y1="4.33566" x2="-2.50438" y2="41.0573" gradientUnits="userSpaceOnUse">
<stop stop-color="#79E0E8"/>
<stop offset="0.2451" stop-color="#BF8E60"/>
<stop offset="0.5155" stop-color="#D69FCC"/>
<stop offset="0.7896" stop-color="#6086D1"/>
<stop offset="1" stop-color="#B37DBA"/>
</linearGradient>
<linearGradient id="paint1_linear" x1="34.2172" y1="4.33566" x2="-2.50438" y2="41.0573" gradientUnits="userSpaceOnUse">
<stop stop-color="#79E0E8"/>
<stop offset="0.2451" stop-color="#BF8E60"/>
<stop offset="0.5155" stop-color="#D69FCC"/>
<stop offset="0.7896" stop-color="#6086D1"/>
<stop offset="1" stop-color="#B37DBA"/>
</linearGradient>
<linearGradient id="paint2_linear" x1="34.2172" y1="4.33566" x2="-2.50438" y2="41.0573" gradientUnits="userSpaceOnUse">
<stop stop-color="#79E0E8"/>
<stop offset="0.2451" stop-color="#BF8E60"/>
<stop offset="0.5155" stop-color="#D69FCC"/>
<stop offset="0.7896" stop-color="#6086D1"/>
<stop offset="1" stop-color="#B37DBA"/>
</linearGradient>
<linearGradient id="paint3_linear" x1="34.2172" y1="4.33566" x2="-2.50438" y2="41.0573" gradientUnits="userSpaceOnUse">
<stop stop-color="#79E0E8"/>
<stop offset="0.2451" stop-color="#BF8E60"/>
<stop offset="0.5155" stop-color="#D69FCC"/>
<stop offset="0.7896" stop-color="#6086D1"/>
<stop offset="1" stop-color="#B37DBA"/>
</linearGradient>
<linearGradient id="paint4_linear" x1="34.2172" y1="4.33566" x2="-2.50438" y2="41.0573" gradientUnits="userSpaceOnUse">
<stop stop-color="#79E0E8"/>
<stop offset="0.2451" stop-color="#BF8E60"/>
<stop offset="0.5155" stop-color="#D69FCC"/>
<stop offset="0.7896" stop-color="#6086D1"/>
<stop offset="1" stop-color="#B37DBA"/>
</linearGradient>
<linearGradient id="paint5_linear" x1="34.2172" y1="4.33566" x2="-2.50438" y2="41.0573" gradientUnits="userSpaceOnUse">
<stop stop-color="#79E0E8"/>
<stop offset="0.2451" stop-color="#BF8E60"/>
<stop offset="0.5155" stop-color="#D69FCC"/>
<stop offset="0.7896" stop-color="#6086D1"/>
<stop offset="1" stop-color="#B37DBA"/>
</linearGradient>
<linearGradient id="paint6_linear" x1="34.2172" y1="4.33566" x2="-2.50438" y2="41.0573" gradientUnits="userSpaceOnUse">
<stop stop-color="#79E0E8"/>
<stop offset="0.2451" stop-color="#BF8E60"/>
<stop offset="0.5155" stop-color="#D69FCC"/>
<stop offset="0.7896" stop-color="#6086D1"/>
<stop offset="1" stop-color="#B37DBA"/>
</linearGradient>
</defs>
</svg>
